<?xml version="1.0" encoding="utf-8" standalone="no"?>
<!DOCTYPE svg PUBLIC "-//W3C//DTD SVG 1.1//EN"
  "http://www.w3.org/Graphics/SVG/1.1/DTD/svg11.dtd">
<svg xmlns:xlink="http://www.w3.org/1999/xlink" width="460.46125pt" height="315.034375pt" viewBox="0 0 460.46125 315.034375" xmlns="http://www.w3.org/2000/svg" version="1.1">
 <metadata>
  <rdf:RDF xmlns:dc="http://purl.org/dc/elements/1.1/" xmlns:cc="http://creativecommons.org/ns#" xmlns:rdf="http://www.w3.org/1999/02/22-rdf-syntax-ns#">
   <cc:Work>
    <dc:type rdf:resource="http://purl.org/dc/dcmitype/StillImage"/>
    <dc:format>image/svg+xml</dc:format>
    <dc:creator>
     <cc:Agent>
      <dc:title>Matplotlib v3.10.9, https://matplotlib.org/</dc:title>
     </cc:Agent>
    </dc:creator>
   </cc:Work>
  </rdf:RDF>
 </metadata>
 <defs>
  <style type="text/css">*{stroke-linejoin: round; stroke-linecap: butt}</style>
 </defs>
 <g id="figure_1">
  <g id="patch_1">
   <path d="M 0 315.034375 
L 460.46125 315.034375 
L 460.46125 0 
L 0 0 
z
" style="fill: #ffffff"/>
  </g>
  <g id="axes_1">
   <g id="patch_2">
    <path d="M 43.78125 277.478125 
L 453.26125 277.478125 
L 453.26125 22.318125 
L 43.78125 22.318125 
z
" style="fill: #ffffff"/>
   </g>
   <g id="FillBetweenPolyCollection_1">
    <defs>
     <path id="m8f0d63f96a" d="M 62.393977 -75.991444 
L 62.393977 -50.041142 
L 69.846521 -209.69667 
L 77.299064 -218.790775 
L 84.751608 -223.014224 
L 92.204151 -230.340443 
L 99.656695 -241.893435 
L 107.109238 -250.371933 
L 114.561781 -250.331246 
L 122.014325 -257.863415 
L 129.466868 -255.213607 
L 136.919412 -251.019488 
L 144.371955 -261.343042 
L 151.824499 -256.597633 
L 159.277042 -264.309903 
L 166.729586 -260.610459 
L 174.182129 -261.274122 
L 181.634673 -261.220778 
L 189.087216 -258.765346 
L 196.539759 -263.167304 
L 203.992303 -264.475088 
L 211.444846 -258.243507 
L 218.89739 -262.216252 
L 226.349933 -263.558129 
L 233.802477 -263.126638 
L 241.25502 -258.246148 
L 248.707564 -262.550392 
L 256.160107 -270.545822 
L 263.61265 -267.252303 
L 271.065194 -261.111246 
L 278.517737 -263.71737 
L 285.970281 -260.610463 
L 293.422824 -260.784376 
L 300.875368 -265.730655 
L 308.327911 -267.565307 
L 315.780455 -267.846614 
L 323.232998 -267.839137 
L 330.685542 -268.938251 
L 338.138085 -265.276767 
L 345.590628 -270.48024 
L 353.043172 -268.990842 
L 360.495715 -270.669536 
L 367.948259 -264.887005 
L 375.400802 -268.264129 
L 382.853346 -266.713335 
L 390.305889 -269.253166 
L 397.758433 -266.175075 
L 405.210976 -265.611354 
L 412.66352 -272.645271 
L 420.116063 -262.286179 
L 427.568606 -265.717795 
L 434.648523 -269.582829 
L 434.648523 -275.561258 
L 434.648523 -275.561258 
L 427.568606 -274.949799 
L 420.116063 -272.226238 
L 412.66352 -275.856195 
L 405.210976 -273.377557 
L 397.758433 -277.290329 
L 390.305889 -275.33136 
L 382.853346 -275.632941 
L 375.400802 -276.879958 
L 367.948259 -274.66146 
L 360.495715 -276.15324 
L 353.043172 -274.474556 
L 345.590628 -276.902097 
L 338.138085 -275.950387 
L 330.685542 -275.086714 
L 323.232998 -275.0667 
L 315.780455 -272.820973 
L 308.327911 -274.780976 
L 300.875368 -272.139127 
L 293.422824 -273.728041 
L 285.970281 -271.663704 
L 278.517737 -271.914155 
L 271.065194 -273.401178 
L 263.61265 -273.974844 
L 256.160107 -274.03871 
L 248.707564 -270.283336 
L 241.25502 -268.991964 
L 233.802477 -269.70709 
L 226.349933 -270.394721 
L 218.89739 -268.938787 
L 211.444846 -267.315916 
L 203.992303 -273.394695 
L 196.539759 -272.464221 
L 189.087216 -267.913206 
L 181.634673 -268.255571 
L 174.182129 -265.963977 
L 166.729586 -271.663701 
L 159.277042 -274.119453 
L 151.824499 -269.521371 
L 144.371955 -270.931132 
L 136.919412 -267.265637 
L 129.466868 -266.42889 
L 122.014325 -264.898197 
L 114.561781 -265.156081 
L 107.109238 -259.519779 
L 99.656695 -254.568803 
L 92.204151 -245.977577 
L 84.751608 -233.159592 
L 77.299064 -231.787425 
L 69.846521 -249.274949 
L 62.393977 -75.991444 
z
" style="stroke: #000000; stroke-opacity: 0.2"/>
    </defs>
    <g clip-path="url(#pef7fa07c7a)">
     <use xlink:href="#m8f0d63f96a" x="0" y="315.034375" style="fill-opacity: 0.2; stroke: #000000; stroke-opacity: 0.2"/>
    </g>
   </g>
   <g id="FillBetweenPolyCollection_2">
    <defs>
     <path id="m12660fb579" d="M 62.393977 -76.352087 
L 62.393977 -50.240059 
L 69.846521 -202.536655 
L 77.299064 -222.050235 
L 84.751608 -212.468902 
L 92.204151 -218.632487 
L 99.656695 -230.681439 
L 107.109238 -230.736211 
L 114.561781 -238.819294 
L 122.014325 -240.796578 
L 129.466868 -241.754628 
L 136.919412 -242.058572 
L 144.371955 -256.319171 
L 151.824499 -254.550024 
L 159.277042 -256.186018 
L 166.729586 -263.98721 
L 174.182129 -260.410513 
L 181.634673 -261.715975 
L 189.087216 -263.663814 
L 196.539759 -263.097982 
L 203.992303 -263.629212 
L 211.444846 -264.27694 
L 218.89739 -265.473827 
L 226.349933 -263.1772 
L 233.802477 -264.274184 
L 241.25502 -261.576248 
L 248.707564 -262.644859 
L 256.160107 -268.352589 
L 263.61265 -269.7001 
L 271.065194 -260.882954 
L 278.517737 -264.387883 
L 285.970281 -261.53993 
L 293.422824 -259.330735 
L 300.875368 -270.03127 
L 308.327911 -264.883105 
L 315.780455 -267.250194 
L 323.232998 -267.429778 
L 330.685542 -267.689751 
L 338.138085 -266.776996 
L 345.590628 -271.798341 
L 353.043172 -268.585356 
L 360.495715 -271.346237 
L 367.948259 -267.935515 
L 375.400802 -266.836916 
L 382.853346 -270.03127 
L 390.305889 -269.255804 
L 397.758433 -267.498221 
L 405.210976 -265.065181 
L 412.66352 -270.558938 
L 420.116063 -260.945693 
L 427.568606 -266.106411 
L 434.648523 -266.281348 
L 434.648523 -273.267123 
L 434.648523 -273.267123 
L 427.568606 -274.561182 
L 420.116063 -273.566724 
L 412.66352 -277.382953 
L 405.210976 -272.245041 
L 397.758433 -277.086306 
L 390.305889 -275.888277 
L 382.853346 -274.553256 
L 375.400802 -276.068921 
L 367.948259 -274.970315 
L 360.495715 -276.0361 
L 353.043172 -273.201366 
L 345.590628 -276.703118 
L 338.138085 -279.486213 
L 330.685542 -273.53741 
L 323.232998 -276.035627 
L 315.780455 -272.857845 
L 308.327911 -274.105799 
L 300.875368 -274.553256 
L 293.422824 -274.062561 
L 285.970281 -272.412926 
L 278.517737 -271.80321 
L 271.065194 -270.831652 
L 263.61265 -275.443987 
L 256.160107 -272.874572 
L 248.707564 -271.867552 
L 241.25502 -272.936162 
L 233.802477 -270.238227 
L 226.349933 -270.775643 
L 218.89739 -270.717259 
L 211.444846 -272.473727 
L 203.992303 -273.68101 
L 196.539759 -269.176178 
L 189.087216 -268.050772 
L 181.634673 -270.558186 
L 174.182129 -270.184965 
L 166.729586 -269.96564 
L 159.277042 -268.813851 
L 151.824499 -267.652027 
L 144.371955 -264.763758 
L 136.919412 -255.522787 
L 129.466868 -256.945853 
L 122.014325 -252.867849 
L 114.561781 -248.689963 
L 107.109238 -240.545755 
L 99.656695 -241.160087 
L 92.204151 -232.505274 
L 84.751608 -226.918074 
L 77.299064 -238.040507 
L 69.846521 -247.481984 
L 62.393977 -76.352087 
z
" style="stroke: #1f77b4; stroke-opacity: 0.2"/>
    </defs>
    <g clip-path="url(#pef7fa07c7a)">
     <use xlink:href="#m12660fb579" x="0" y="315.034375" style="fill: #1f77b4; fill-opacity: 0.2; stroke: #1f77b4; stroke-opacity: 0.2"/>
    </g>
   </g>
   <g id="matplotlib.axis_1">
    <g id="xtick_1">
     <g id="line2d_1">
      <defs>
       <path id="m27cda3270c" d="M 0 0 
L 0 3.5 
" style="stroke: #000000; stroke-width: 0.8"/>
      </defs>
      <g>
       <use xlink:href="#m27cda3270c" x="62.393977" y="277.478125" style="stroke: #000000; stroke-width: 0.8"/>
      </g>
     </g>
     <g id="text_1">
      <!-- 0 -->
      <g transform="translate(59.212727 292.076563) scale(0.1 -0.1)">
       <defs>
        <path id="DejaVuSans-30" d="M 2034 4250 
Q 1547 4250 1301 3770 
Q 1056 3291 1056 2328 
Q 1056 1369 1301 889 
Q 1547 409 2034 409 
Q 2525 409 2770 889 
Q 3016 1369 3016 2328 
Q 3016 3291 2770 3770 
Q 2525 4250 2034 4250 
z
M 2034 4750 
Q 2819 4750 3233 4129 
Q 3647 3509 3647 2328 
Q 3647 1150 3233 529 
Q 2819 -91 2034 -91 
Q 1250 -91 836 529 
Q 422 1150 422 2328 
Q 422 3509 836 4129 
Q 1250 4750 2034 4750 
z
" transform="scale(0.015625)"/>
       </defs>
       <use xlink:href="#DejaVuSans-30"/>
      </g>
     </g>
    </g>
    <g id="xtick_2">
     <g id="line2d_2">
      <g>
       <use xlink:href="#m27cda3270c" x="136.919412" y="277.478125" style="stroke: #000000; stroke-width: 0.8"/>
      </g>
     </g>
     <g id="text_2">
      <!-- 200 -->
      <g transform="translate(127.375662 292.076563) scale(0.1 -0.1)">
       <defs>
        <path id="DejaVuSans-32" d="M 1228 531 
L 3431 531 
L 3431 0 
L 469 0 
L 469 531 
Q 828 903 1448 1529 
Q 2069 2156 2228 2338 
Q 2531 2678 2651 2914 
Q 2772 3150 2772 3378 
Q 2772 3750 2511 3984 
Q 2250 4219 1831 4219 
Q 1534 4219 1204 4116 
Q 875 4013 500 3803 
L 500 4441 
Q 881 4594 1212 4672 
Q 1544 4750 1819 4750 
Q 2544 4750 2975 4387 
Q 3406 4025 3406 3419 
Q 3406 3131 3298 2873 
Q 3191 2616 2906 2266 
Q 2828 2175 2409 1742 
Q 1991 1309 1228 531 
z
" transform="scale(0.015625)"/>
       </defs>
       <use xlink:href="#DejaVuSans-32"/>
       <use xlink:href="#DejaVuSans-30" transform="translate(63.623047 0)"/>
       <use xlink:href="#DejaVuSans-30" transform="translate(127.246094 0)"/>
      </g>
     </g>
    </g>
    <g id="xtick_3">
     <g id="line2d_3">
      <g>
       <use xlink:href="#m27cda3270c" x="211.444846" y="277.478125" style="stroke: #000000; stroke-width: 0.8"/>
      </g>
     </g>
     <g id="text_3">
      <!-- 400 -->
      <g transform="translate(201.901096 292.076563) scale(0.1 -0.1)">
       <defs>
        <path id="DejaVuSans-34" d="M 2419 4116 
L 825 1625 
L 2419 1625 
L 2419 4116 
z
M 2253 4666 
L 3047 4666 
L 3047 1625 
L 3713 1625 
L 3713 1100 
L 3047 1100 
L 3047 0 
L 2419 0 
L 2419 1100 
L 313 1100 
L 313 1709 
L 2253 4666 
z
" transform="scale(0.015625)"/>
       </defs>
       <use xlink:href="#DejaVuSans-34"/>
       <use xlink:href="#DejaVuSans-30" transform="translate(63.623047 0)"/>
       <use xlink:href="#DejaVuSans-30" transform="translate(127.246094 0)"/>
      </g>
     </g>
    </g>
    <g id="xtick_4">
     <g id="line2d_4">
      <g>
       <use xlink:href="#m27cda3270c" x="285.970281" y="277.478125" style="stroke: #000000; stroke-width: 0.8"/>
      </g>
     </g>
     <g id="text_4">
      <!-- 600 -->
      <g transform="translate(276.426531 292.076563) scale(0.1 -0.1)">
       <defs>
        <path id="DejaVuSans-36" d="M 2113 2584 
Q 1688 2584 1439 2293 
Q 1191 2003 1191 1497 
Q 1191 994 1439 701 
Q 1688 409 2113 409 
Q 2538 409 2786 701 
Q 3034 994 3034 1497 
Q 3034 2003 2786 2293 
Q 2538 2584 2113 2584 
z
M 3366 4563 
L 3366 3988 
Q 3128 4100 2886 4159 
Q 2644 4219 2406 4219 
Q 1781 4219 1451 3797 
Q 1122 3375 1075 2522 
Q 1259 2794 1537 2939 
Q 1816 3084 2150 3084 
Q 2853 3084 3261 2657 
Q 3669 2231 3669 1497 
Q 3669 778 3244 343 
Q 2819 -91 2113 -91 
Q 1303 -91 875 529 
Q 447 1150 447 2328 
Q 447 3434 972 4092 
Q 1497 4750 2381 4750 
Q 2619 4750 2861 4703 
Q 3103 4656 3366 4563 
z
" transform="scale(0.015625)"/>
       </defs>
       <use xlink:href="#DejaVuSans-36"/>
       <use xlink:href="#DejaVuSans-30" transform="translate(63.623047 0)"/>
       <use xlink:href="#DejaVuSans-30" transform="translate(127.246094 0)"/>
      </g>
     </g>
    </g>
    <g id="xtick_5">
     <g id="line2d_5">
      <g>
       <use xlink:href="#m27cda3270c" x="360.495715" y="277.478125" style="stroke: #000000; stroke-width: 0.8"/>
      </g>
     </g>
     <g id="text_5">
      <!-- 800 -->
      <g transform="translate(350.951965 292.076563) scale(0.1 -0.1)">
       <defs>
        <path id="DejaVuSans-38" d="M 2034 2216 
Q 1584 2216 1326 1975 
Q 1069 1734 1069 1313 
Q 1069 891 1326 650 
Q 1584 409 2034 409 
Q 2484 409 2743 651 
Q 3003 894 3003 1313 
Q 3003 1734 2745 1975 
Q 2488 2216 2034 2216 
z
M 1403 2484 
Q 997 2584 770 2862 
Q 544 3141 544 3541 
Q 544 4100 942 4425 
Q 1341 4750 2034 4750 
Q 2731 4750 3128 4425 
Q 3525 4100 3525 3541 
Q 3525 3141 3298 2862 
Q 3072 2584 2669 2484 
Q 3125 2378 3379 2068 
Q 3634 1759 3634 1313 
Q 3634 634 3220 271 
Q 2806 -91 2034 -91 
Q 1263 -91 848 271 
Q 434 634 434 1313 
Q 434 1759 690 2068 
Q 947 2378 1403 2484 
z
M 1172 3481 
Q 1172 3119 1398 2916 
Q 1625 2713 2034 2713 
Q 2441 2713 2670 2916 
Q 2900 3119 2900 3481 
Q 2900 3844 2670 4047 
Q 2441 4250 2034 4250 
Q 1625 4250 1398 4047 
Q 1172 3844 1172 3481 
z
" transform="scale(0.015625)"/>
       </defs>
       <use xlink:href="#DejaVuSans-38"/>
       <use xlink:href="#DejaVuSans-30" transform="translate(63.623047 0)"/>
       <use xlink:href="#DejaVuSans-30" transform="translate(127.246094 0)"/>
      </g>
     </g>
    </g>
    <g id="xtick_6">
     <g id="line2d_6">
      <g>
       <use xlink:href="#m27cda3270c" x="435.02115" y="277.478125" style="stroke: #000000; stroke-width: 0.8"/>
      </g>
     </g>
     <g id="text_6">
      <!-- 1000 -->
      <g transform="translate(422.29615 292.076563) scale(0.1 -0.1)">
       <defs>
        <path id="DejaVuSans-31" d="M 794 531 
L 1825 531 
L 1825 4091 
L 703 3866 
L 703 4441 
L 1819 4666 
L 2450 4666 
L 2450 531 
L 3481 531 
L 3481 0 
L 794 0 
L 794 531 
z
" transform="scale(0.015625)"/>
       </defs>
       <use xlink:href="#DejaVuSans-31"/>
       <use xlink:href="#DejaVuSans-30" transform="translate(63.623047 0)"/>
       <use xlink:href="#DejaVuSans-30" transform="translate(127.246094 0)"/>
       <use xlink:href="#DejaVuSans-30" transform="translate(190.869141 0)"/>
      </g>
     </g>
    </g>
    <g id="text_7">
     <!-- training step -->
     <g transform="translate(216.747031 305.754687) scale(0.1 -0.1)">
      <defs>
       <path id="DejaVuSans-74" d="M 1172 4494 
L 1172 3500 
L 2356 3500 
L 2356 3053 
L 1172 3053 
L 1172 1153 
Q 1172 725 1289 603 
Q 1406 481 1766 481 
L 2356 481 
L 2356 0 
L 1766 0 
Q 1100 0 847 248 
Q 594 497 594 1153 
L 594 3053 
L 172 3053 
L 172 3500 
L 594 3500 
L 594 4494 
L 1172 4494 
z
" transform="scale(0.015625)"/>
       <path id="DejaVuSans-72" d="M 2631 2963 
Q 2534 3019 2420 3045 
Q 2306 3072 2169 3072 
Q 1681 3072 1420 2755 
Q 1159 2438 1159 1844 
L 1159 0 
L 581 0 
L 581 3500 
L 1159 3500 
L 1159 2956 
Q 1341 3275 1631 3429 
Q 1922 3584 2338 3584 
Q 2397 3584 2469 3576 
Q 2541 3569 2628 3553 
L 2631 2963 
z
" transform="scale(0.015625)"/>
       <path id="DejaVuSans-61" d="M 2194 1759 
Q 1497 1759 1228 1600 
Q 959 1441 959 1056 
Q 959 750 1161 570 
Q 1363 391 1709 391 
Q 2188 391 2477 730 
Q 2766 1069 2766 1631 
L 2766 1759 
L 2194 1759 
z
M 3341 1997 
L 3341 0 
L 2766 0 
L 2766 531 
Q 2569 213 2275 61 
Q 1981 -91 1556 -91 
Q 1019 -91 701 211 
Q 384 513 384 1019 
Q 384 1609 779 1909 
Q 1175 2209 1959 2209 
L 2766 2209 
L 2766 2266 
Q 2766 2663 2505 2880 
Q 2244 3097 1772 3097 
Q 1472 3097 1187 3025 
Q 903 2953 641 2809 
L 641 3341 
Q 956 3463 1253 3523 
Q 1550 3584 1831 3584 
Q 2591 3584 2966 3190 
Q 3341 2797 3341 1997 
z
" transform="scale(0.015625)"/>
       <path id="DejaVuSans-69" d="M 603 3500 
L 1178 3500 
L 1178 0 
L 603 0 
L 603 3500 
z
M 603 4863 
L 1178 4863 
L 1178 4134 
L 603 4134 
L 603 4863 
z
" transform="scale(0.015625)"/>
       <path id="DejaVuSans-6e" d="M 3513 2113 
L 3513 0 
L 2938 0 
L 2938 2094 
Q 2938 2591 2744 2837 
Q 2550 3084 2163 3084 
Q 1697 3084 1428 2787 
Q 1159 2491 1159 1978 
L 1159 0 
L 581 0 
L 581 3500 
L 1159 3500 
L 1159 2956 
Q 1366 3272 1645 3428 
Q 1925 3584 2291 3584 
Q 2894 3584 3203 3211 
Q 3513 2838 3513 2113 
z
" transform="scale(0.015625)"/>
       <path id="DejaVuSans-67" d="M 2906 1791 
Q 2906 2416 2648 2759 
Q 2391 3103 1925 3103 
Q 1463 3103 1205 2759 
Q 947 2416 947 1791 
Q 947 1169 1205 825 
Q 1463 481 1925 481 
Q 2391 481 2648 825 
Q 2906 1169 2906 1791 
z
M 3481 434 
Q 3481 -459 3084 -895 
Q 2688 -1331 1869 -1331 
Q 1566 -1331 1297 -1286 
Q 1028 -1241 775 -1147 
L 775 -588 
Q 1028 -725 1275 -790 
Q 1522 -856 1778 -856 
Q 2344 -856 2625 -561 
Q 2906 -266 2906 331 
L 2906 616 
Q 2728 306 2450 153 
Q 2172 0 1784 0 
Q 1141 0 747 490 
Q 353 981 353 1791 
Q 353 2603 747 3093 
Q 1141 3584 1784 3584 
Q 2172 3584 2450 3431 
Q 2728 3278 2906 2969 
L 2906 3500 
L 3481 3500 
L 3481 434 
z
" transform="scale(0.015625)"/>
       <path id="DejaVuSans-20" transform="scale(0.015625)"/>
       <path id="DejaVuSans-73" d="M 2834 3397 
L 2834 2853 
Q 2591 2978 2328 3040 
Q 2066 3103 1784 3103 
Q 1356 3103 1142 2972 
Q 928 2841 928 2578 
Q 928 2378 1081 2264 
Q 1234 2150 1697 2047 
L 1894 2003 
Q 2506 1872 2764 1633 
Q 3022 1394 3022 966 
Q 3022 478 2636 193 
Q 2250 -91 1575 -91 
Q 1294 -91 989 -36 
Q 684 19 347 128 
L 347 722 
Q 666 556 975 473 
Q 1284 391 1588 391 
Q 1994 391 2212 530 
Q 2431 669 2431 922 
Q 2431 1156 2273 1281 
Q 2116 1406 1581 1522 
L 1381 1569 
Q 847 1681 609 1914 
Q 372 2147 372 2553 
Q 372 3047 722 3315 
Q 1072 3584 1716 3584 
Q 2034 3584 2315 3537 
Q 2597 3491 2834 3397 
z
" transform="scale(0.015625)"/>
       <path id="DejaVuSans-65" d="M 3597 1894 
L 3597 1613 
L 953 1613 
Q 991 1019 1311 708 
Q 1631 397 2203 397 
Q 2534 397 2845 478 
Q 3156 559 3463 722 
L 3463 178 
Q 3153 47 2828 -22 
Q 2503 -91 2169 -91 
Q 1331 -91 842 396 
Q 353 884 353 1716 
Q 353 2575 817 3079 
Q 1281 3584 2069 3584 
Q 2775 3584 3186 3129 
Q 3597 2675 3597 1894 
z
M 3022 2063 
Q 3016 2534 2758 2815 
Q 2500 3097 2075 3097 
Q 1594 3097 1305 2825 
Q 1016 2553 972 2059 
L 3022 2063 
z
" transform="scale(0.015625)"/>
       <path id="DejaVuSans-70" d="M 1159 525 
L 1159 -1331 
L 581 -1331 
L 581 3500 
L 1159 3500 
L 1159 2969 
Q 1341 3281 1617 3432 
Q 1894 3584 2278 3584 
Q 2916 3584 3314 3078 
Q 3713 2572 3713 1747 
Q 3713 922 3314 415 
Q 2916 -91 2278 -91 
Q 1894 -91 1617 61 
Q 1341 213 1159 525 
z
M 3116 1747 
Q 3116 2381 2855 2742 
Q 2594 3103 2138 3103 
Q 1681 3103 1420 2742 
Q 1159 2381 1159 1747 
Q 1159 1113 1420 752 
Q 1681 391 2138 391 
Q 2594 391 2855 752 
Q 3116 1113 3116 1747 
z
" transform="scale(0.015625)"/>
      </defs>
      <use xlink:href="#DejaVuSans-74"/>
      <use xlink:href="#DejaVuSans-72" transform="translate(39.208984 0)"/>
      <use xlink:href="#DejaVuSans-61" transform="translate(80.322266 0)"/>
      <use xlink:href="#DejaVuSans-69" transform="translate(141.601562 0)"/>
      <use xlink:href="#DejaVuSans-6e" transform="translate(169.384766 0)"/>
      <use xlink:href="#DejaVuSans-69" transform="translate(232.763672 0)"/>
      <use xlink:href="#DejaVuSans-6e" transform="translate(260.546875 0)"/>
      <use xlink:href="#DejaVuSans-67" transform="translate(323.925781 0)"/>
      <use xlink:href="#DejaVuSans-20" transform="translate(387.402344 0)"/>
      <use xlink:href="#DejaVuSans-73" transform="translate(419.189453 0)"/>
      <use xlink:href="#DejaVuSans-74" transform="translate(471.289062 0)"/>
      <use xlink:href="#DejaVuSans-65" transform="translate(510.498047 0)"/>
      <use xlink:href="#DejaVuSans-70" transform="translate(572.021484 0)"/>
     </g>
    </g>
   </g>
   <g id="matplotlib.axis_2">
    <g id="ytick_1">
     <g id="line2d_7">
      <defs>
       <path id="m3c3e649a76" d="M 0 0 
L -3.5 0 
" style="stroke: #000000; stroke-width: 0.8"/>
      </defs>
      <g>
       <use xlink:href="#m3c3e649a76" x="43.78125" y="255.095669" style="stroke: #000000; stroke-width: 0.8"/>
      </g>
     </g>
     <g id="text_8">
      <!-- 0.5 -->
      <g transform="translate(20.878125 258.894888) scale(0.1 -0.1)">
       <defs>
        <path id="DejaVuSans-2e" d="M 684 794 
L 1344 794 
L 1344 0 
L 684 0 
L 684 794 
z
" transform="scale(0.015625)"/>
        <path id="DejaVuSans-35" d="M 691 4666 
L 3169 4666 
L 3169 4134 
L 1269 4134 
L 1269 2991 
Q 1406 3038 1543 3061 
Q 1681 3084 1819 3084 
Q 2600 3084 3056 2656 
Q 3513 2228 3513 1497 
Q 3513 744 3044 326 
Q 2575 -91 1722 -91 
Q 1428 -91 1123 -41 
Q 819 9 494 109 
L 494 744 
Q 775 591 1075 516 
Q 1375 441 1709 441 
Q 2250 441 2565 725 
Q 2881 1009 2881 1497 
Q 2881 1984 2565 2268 
Q 2250 2553 1709 2553 
Q 1456 2553 1204 2497 
Q 953 2441 691 2322 
L 691 4666 
z
" transform="scale(0.015625)"/>
       </defs>
       <use xlink:href="#DejaVuSans-30"/>
       <use xlink:href="#DejaVuSans-2e" transform="translate(63.623047 0)"/>
       <use xlink:href="#DejaVuSans-35" transform="translate(95.410156 0)"/>
      </g>
     </g>
    </g>
    <g id="ytick_2">
     <g id="line2d_8">
      <g>
       <use xlink:href="#m3c3e649a76" x="43.78125" y="210.330757" style="stroke: #000000; stroke-width: 0.8"/>
      </g>
     </g>
     <g id="text_9">
      <!-- 0.6 -->
      <g transform="translate(20.878125 214.129975) scale(0.1 -0.1)">
       <use xlink:href="#DejaVuSans-30"/>
       <use xlink:href="#DejaVuSans-2e" transform="translate(63.623047 0)"/>
       <use xlink:href="#DejaVuSans-36" transform="translate(95.410156 0)"/>
      </g>
     </g>
    </g>
    <g id="ytick_3">
     <g id="line2d_9">
      <g>
       <use xlink:href="#m3c3e649a76" x="43.78125" y="165.565844" style="stroke: #000000; stroke-width: 0.8"/>
      </g>
     </g>
     <g id="text_10">
      <!-- 0.7 -->
      <g transform="translate(20.878125 169.365063) scale(0.1 -0.1)">
       <defs>
        <path id="DejaVuSans-37" d="M 525 4666 
L 3525 4666 
L 3525 4397 
L 1831 0 
L 1172 0 
L 2766 4134 
L 525 4134 
L 525 4666 
z
" transform="scale(0.015625)"/>
       </defs>
       <use xlink:href="#DejaVuSans-30"/>
       <use xlink:href="#DejaVuSans-2e" transform="translate(63.623047 0)"/>
       <use xlink:href="#DejaVuSans-37" transform="translate(95.410156 0)"/>
      </g>
     </g>
    </g>
    <g id="ytick_4">
     <g id="line2d_10">
      <g>
       <use xlink:href="#m3c3e649a76" x="43.78125" y="120.800932" style="stroke: #000000; stroke-width: 0.8"/>
      </g>
     </g>
     <g id="text_11">
      <!-- 0.8 -->
      <g transform="translate(20.878125 124.600151) scale(0.1 -0.1)">
       <use xlink:href="#DejaVuSans-30"/>
       <use xlink:href="#DejaVuSans-2e" transform="translate(63.623047 0)"/>
       <use xlink:href="#DejaVuSans-38" transform="translate(95.410156 0)"/>
      </g>
     </g>
    </g>
    <g id="ytick_5">
     <g id="line2d_11">
      <g>
       <use xlink:href="#m3c3e649a76" x="43.78125" y="76.03602" style="stroke: #000000; stroke-width: 0.8"/>
      </g>
     </g>
     <g id="text_12">
      <!-- 0.9 -->
      <g transform="translate(20.878125 79.835238) scale(0.1 -0.1)">
       <defs>
        <path id="DejaVuSans-39" d="M 703 97 
L 703 672 
Q 941 559 1184 500 
Q 1428 441 1663 441 
Q 2288 441 2617 861 
Q 2947 1281 2994 2138 
Q 2813 1869 2534 1725 
Q 2256 1581 1919 1581 
Q 1219 1581 811 2004 
Q 403 2428 403 3163 
Q 403 3881 828 4315 
Q 1253 4750 1959 4750 
Q 2769 4750 3195 4129 
Q 3622 3509 3622 2328 
Q 3622 1225 3098 567 
Q 2575 -91 1691 -91 
Q 1453 -91 1209 -44 
Q 966 3 703 97 
z
M 1959 2075 
Q 2384 2075 2632 2365 
Q 2881 2656 2881 3163 
Q 2881 3666 2632 3958 
Q 2384 4250 1959 4250 
Q 1534 4250 1286 3958 
Q 1038 3666 1038 3163 
Q 1038 2656 1286 2365 
Q 1534 2075 1959 2075 
z
" transform="scale(0.015625)"/>
       </defs>
       <use xlink:href="#DejaVuSans-30"/>
       <use xlink:href="#DejaVuSans-2e" transform="translate(63.623047 0)"/>
       <use xlink:href="#DejaVuSans-39" transform="translate(95.410156 0)"/>
      </g>
     </g>
    </g>
    <g id="ytick_6">
     <g id="line2d_12">
      <g>
       <use xlink:href="#m3c3e649a76" x="43.78125" y="31.271107" style="stroke: #000000; stroke-width: 0.8"/>
      </g>
     </g>
     <g id="text_13">
      <!-- 1.0 -->
      <g transform="translate(20.878125 35.070326) scale(0.1 -0.1)">
       <use xlink:href="#DejaVuSans-31"/>
       <use xlink:href="#DejaVuSans-2e" transform="translate(63.623047 0)"/>
       <use xlink:href="#DejaVuSans-30" transform="translate(95.410156 0)"/>
      </g>
     </g>
    </g>
    <g id="text_14">
     <!-- accuracy (held-out) -->
     <g transform="translate(14.798438 198.842656) rotate(-90) scale(0.1 -0.1)">
      <defs>
       <path id="DejaVuSans-63" d="M 3122 3366 
L 3122 2828 
Q 2878 2963 2633 3030 
Q 2388 3097 2138 3097 
Q 1578 3097 1268 2742 
Q 959 2388 959 1747 
Q 959 1106 1268 751 
Q 1578 397 2138 397 
Q 2388 397 2633 464 
Q 2878 531 3122 666 
L 3122 134 
Q 2881 22 2623 -34 
Q 2366 -91 2075 -91 
Q 1284 -91 818 406 
Q 353 903 353 1747 
Q 353 2603 823 3093 
Q 1294 3584 2113 3584 
Q 2378 3584 2631 3529 
Q 2884 3475 3122 3366 
z
" transform="scale(0.015625)"/>
       <path id="DejaVuSans-75" d="M 544 1381 
L 544 3500 
L 1119 3500 
L 1119 1403 
Q 1119 906 1312 657 
Q 1506 409 1894 409 
Q 2359 409 2629 706 
Q 2900 1003 2900 1516 
L 2900 3500 
L 3475 3500 
L 3475 0 
L 2900 0 
L 2900 538 
Q 2691 219 2414 64 
Q 2138 -91 1772 -91 
Q 1169 -91 856 284 
Q 544 659 544 1381 
z
M 1991 3584 
L 1991 3584 
z
" transform="scale(0.015625)"/>
       <path id="DejaVuSans-79" d="M 2059 -325 
Q 1816 -950 1584 -1140 
Q 1353 -1331 966 -1331 
L 506 -1331 
L 506 -850 
L 844 -850 
Q 1081 -850 1212 -737 
Q 1344 -625 1503 -206 
L 1606 56 
L 191 3500 
L 800 3500 
L 1894 763 
L 2988 3500 
L 3597 3500 
L 2059 -325 
z
" transform="scale(0.015625)"/>
       <path id="DejaVuSans-28" d="M 1984 4856 
Q 1566 4138 1362 3434 
Q 1159 2731 1159 2009 
Q 1159 1288 1364 580 
Q 1569 -128 1984 -844 
L 1484 -844 
Q 1016 -109 783 600 
Q 550 1309 550 2009 
Q 550 2706 781 3412 
Q 1013 4119 1484 4856 
L 1984 4856 
z
" transform="scale(0.015625)"/>
       <path id="DejaVuSans-68" d="M 3513 2113 
L 3513 0 
L 2938 0 
L 2938 2094 
Q 2938 2591 2744 2837 
Q 2550 3084 2163 3084 
Q 1697 3084 1428 2787 
Q 1159 2491 1159 1978 
L 1159 0 
L 581 0 
L 581 4863 
L 1159 4863 
L 1159 2956 
Q 1366 3272 1645 3428 
Q 1925 3584 2291 3584 
Q 2894 3584 3203 3211 
Q 3513 2838 3513 2113 
z
" transform="scale(0.015625)"/>
       <path id="DejaVuSans-6c" d="M 603 4863 
L 1178 4863 
L 1178 0 
L 603 0 
L 603 4863 
z
" transform="scale(0.015625)"/>
       <path id="DejaVuSans-64" d="M 2906 2969 
L 2906 4863 
L 3481 4863 
L 3481 0 
L 2906 0 
L 2906 525 
Q 2725 213 2448 61 
Q 2172 -91 1784 -91 
Q 1150 -91 751 415 
Q 353 922 353 1747 
Q 353 2572 751 3078 
Q 1150 3584 1784 3584 
Q 2172 3584 2448 3432 
Q 2725 3281 2906 2969 
z
M 947 1747 
Q 947 1113 1208 752 
Q 1469 391 1925 391 
Q 2381 391 2643 752 
Q 2906 1113 2906 1747 
Q 2906 2381 2643 2742 
Q 2381 3103 1925 3103 
Q 1469 3103 1208 2742 
Q 947 2381 947 1747 
z
" transform="scale(0.015625)"/>
       <path id="DejaVuSans-2d" d="M 313 2009 
L 1997 2009 
L 1997 1497 
L 313 1497 
L 313 2009 
z
" transform="scale(0.015625)"/>
       <path id="DejaVuSans-6f" d="M 1959 3097 
Q 1497 3097 1228 2736 
Q 959 2375 959 1747 
Q 959 1119 1226 758 
Q 1494 397 1959 397 
Q 2419 397 2687 759 
Q 2956 1122 2956 1747 
Q 2956 2369 2687 2733 
Q 2419 3097 1959 3097 
z
M 1959 3584 
Q 2709 3584 3137 3096 
Q 3566 2609 3566 1747 
Q 3566 888 3137 398 
Q 2709 -91 1959 -91 
Q 1206 -91 779 398 
Q 353 888 353 1747 
Q 353 2609 779 3096 
Q 1206 3584 1959 3584 
z
" transform="scale(0.015625)"/>
       <path id="DejaVuSans-29" d="M 513 4856 
L 1013 4856 
Q 1481 4119 1714 3412 
Q 1947 2706 1947 2009 
Q 1947 1309 1714 600 
Q 1481 -109 1013 -844 
L 513 -844 
Q 928 -128 1133 580 
Q 1338 1288 1338 2009 
Q 1338 2731 1133 3434 
Q 928 4138 513 4856 
z
" transform="scale(0.015625)"/>
      </defs>
      <use xlink:href="#DejaVuSans-61"/>
      <use xlink:href="#DejaVuSans-63" transform="translate(61.279297 0)"/>
      <use xlink:href="#DejaVuSans-63" transform="translate(116.259766 0)"/>
      <use xlink:href="#DejaVuSans-75" transform="translate(171.240234 0)"/>
      <use xlink:href="#DejaVuSans-72" transform="translate(234.619141 0)"/>
      <use xlink:href="#DejaVuSans-61" transform="translate(275.732422 0)"/>
      <use xlink:href="#DejaVuSans-63" transform="translate(337.011719 0)"/>
      <use xlink:href="#DejaVuSans-79" transform="translate(391.992188 0)"/>
      <use xlink:href="#DejaVuSans-20" transform="translate(451.171875 0)"/>
      <use xlink:href="#DejaVuSans-28" transform="translate(482.958984 0)"/>
      <use xlink:href="#DejaVuSans-68" transform="translate(521.972656 0)"/>
      <use xlink:href="#DejaVuSans-65" transform="translate(585.351562 0)"/>
      <use xlink:href="#DejaVuSans-6c" transform="translate(646.875 0)"/>
      <use xlink:href="#DejaVuSans-64" transform="translate(674.658203 0)"/>
      <use xlink:href="#DejaVuSans-2d" transform="translate(738.134766 0)"/>
      <use xlink:href="#DejaVuSans-6f" transform="translate(776.09375 0)"/>
      <use xlink:href="#DejaVuSans-75" transform="translate(837.275391 0)"/>
      <use xlink:href="#DejaVuSans-74" transform="translate(900.654297 0)"/>
      <use xlink:href="#DejaVuSans-29" transform="translate(939.863281 0)"/>
     </g>
    </g>
   </g>
   <g id="line2d_13">
    <path d="M 62.393977 252.018082 
L 69.846521 85.548565 
L 77.299064 89.745275 
L 84.751608 86.947467 
L 92.204151 76.875365 
L 99.656695 66.803256 
L 107.109238 60.088519 
L 114.561781 57.290711 
L 122.014325 53.653569 
L 129.466868 54.213126 
L 136.919412 55.891812 
L 144.371955 48.897288 
L 151.824499 51.974873 
L 159.277042 45.819697 
L 166.729586 48.897295 
L 174.182129 51.415325 
L 181.634673 50.2962 
L 189.087216 51.695099 
L 196.539759 47.218612 
L 203.992303 46.099484 
L 211.444846 52.254663 
L 218.89739 49.456856 
L 226.349933 48.05795 
L 233.802477 48.617511 
L 241.25502 51.415319 
L 248.707564 48.617511 
L 256.160107 42.742109 
L 263.61265 44.420801 
L 271.065194 47.778163 
L 278.517737 47.218612 
L 285.970281 48.897292 
L 293.422824 47.778166 
L 300.875368 46.099484 
L 308.327911 43.861234 
L 315.780455 44.700582 
L 323.232998 43.581457 
L 330.685542 43.021892 
L 338.138085 44.420798 
L 345.590628 41.343206 
L 353.043172 43.301676 
L 360.495715 41.622987 
L 367.948259 45.260143 
L 375.400802 42.462332 
L 382.853346 43.861237 
L 390.305889 42.742112 
L 397.758433 43.301673 
L 405.210976 45.53992 
L 412.66352 40.783642 
L 420.116063 47.778166 
L 427.568606 44.700578 
L 434.648523 42.462332 
" clip-path="url(#pef7fa07c7a)" style="fill: none; stroke: #000000; stroke-width: 1.5; stroke-linecap: square"/>
    <defs>
     <path id="mb5b9b684fe" d="M 0 1.5 
C 0.397805 1.5 0.77937 1.341951 1.06066 1.06066 
C 1.341951 0.77937 1.5 0.397805 1.5 0 
C 1.5 -0.397805 1.341951 -0.77937 1.06066 -1.06066 
C 0.77937 -1.341951 0.397805 -1.5 0 -1.5 
C -0.397805 -1.5 -0.77937 -1.341951 -1.06066 -1.06066 
C -1.341951 -0.77937 -1.5 -0.397805 -1.5 0 
C -1.5 0.397805 -1.341951 0.77937 -1.06066 1.06066 
C -0.77937 1.341951 -0.397805 1.5 0 1.5 
z
" style="stroke: #000000"/>
    </defs>
    <g clip-path="url(#pef7fa07c7a)">
     <use xlink:href="#mb5b9b684fe" x="62.393977" y="252.018082" style="stroke: #000000"/>
     <use xlink:href="#mb5b9b684fe" x="69.846521" y="85.548565" style="stroke: #000000"/>
     <use xlink:href="#mb5b9b684fe" x="77.299064" y="89.745275" style="stroke: #000000"/>
     <use xlink:href="#mb5b9b684fe" x="84.751608" y="86.947467" style="stroke: #000000"/>
     <use xlink:href="#mb5b9b684fe" x="92.204151" y="76.875365" style="stroke: #000000"/>
     <use xlink:href="#mb5b9b684fe" x="99.656695" y="66.803256" style="stroke: #000000"/>
     <use xlink:href="#mb5b9b684fe" x="107.109238" y="60.088519" style="stroke: #000000"/>
     <use xlink:href="#mb5b9b684fe" x="114.561781" y="57.290711" style="stroke: #000000"/>
     <use xlink:href="#mb5b9b684fe" x="122.014325" y="53.653569" style="stroke: #000000"/>
     <use xlink:href="#mb5b9b684fe" x="129.466868" y="54.213126" style="stroke: #000000"/>
     <use xlink:href="#mb5b9b684fe" x="136.919412" y="55.891812" style="stroke: #000000"/>
     <use xlink:href="#mb5b9b684fe" x="144.371955" y="48.897288" style="stroke: #000000"/>
     <use xlink:href="#mb5b9b684fe" x="151.824499" y="51.974873" style="stroke: #000000"/>
     <use xlink:href="#mb5b9b684fe" x="159.277042" y="45.819697" style="stroke: #000000"/>
     <use xlink:href="#mb5b9b684fe" x="166.729586" y="48.897295" style="stroke: #000000"/>
     <use xlink:href="#mb5b9b684fe" x="174.182129" y="51.415325" style="stroke: #000000"/>
     <use xlink:href="#mb5b9b684fe" x="181.634673" y="50.2962" style="stroke: #000000"/>
     <use xlink:href="#mb5b9b684fe" x="189.087216" y="51.695099" style="stroke: #000000"/>
     <use xlink:href="#mb5b9b684fe" x="196.539759" y="47.218612" style="stroke: #000000"/>
     <use xlink:href="#mb5b9b684fe" x="203.992303" y="46.099484" style="stroke: #000000"/>
     <use xlink:href="#mb5b9b684fe" x="211.444846" y="52.254663" style="stroke: #000000"/>
     <use xlink:href="#mb5b9b684fe" x="218.89739" y="49.456856" style="stroke: #000000"/>
     <use xlink:href="#mb5b9b684fe" x="226.349933" y="48.05795" style="stroke: #000000"/>
     <use xlink:href="#mb5b9b684fe" x="233.802477" y="48.617511" style="stroke: #000000"/>
     <use xlink:href="#mb5b9b684fe" x="241.25502" y="51.415319" style="stroke: #000000"/>
     <use xlink:href="#mb5b9b684fe" x="248.707564" y="48.617511" style="stroke: #000000"/>
     <use xlink:href="#mb5b9b684fe" x="256.160107" y="42.742109" style="stroke: #000000"/>
     <use xlink:href="#mb5b9b684fe" x="263.61265" y="44.420801" style="stroke: #000000"/>
     <use xlink:href="#mb5b9b684fe" x="271.065194" y="47.778163" style="stroke: #000000"/>
     <use xlink:href="#mb5b9b684fe" x="278.517737" y="47.218612" style="stroke: #000000"/>
     <use xlink:href="#mb5b9b684fe" x="285.970281" y="48.897292" style="stroke: #000000"/>
     <use xlink:href="#mb5b9b684fe" x="293.422824" y="47.778166" style="stroke: #000000"/>
     <use xlink:href="#mb5b9b684fe" x="300.875368" y="46.099484" style="stroke: #000000"/>
     <use xlink:href="#mb5b9b684fe" x="308.327911" y="43.861234" style="stroke: #000000"/>
     <use xlink:href="#mb5b9b684fe" x="315.780455" y="44.700582" style="stroke: #000000"/>
     <use xlink:href="#mb5b9b684fe" x="323.232998" y="43.581457" style="stroke: #000000"/>
     <use xlink:href="#mb5b9b684fe" x="330.685542" y="43.021892" style="stroke: #000000"/>
     <use xlink:href="#mb5b9b684fe" x="338.138085" y="44.420798" style="stroke: #000000"/>
     <use xlink:href="#mb5b9b684fe" x="345.590628" y="41.343206" style="stroke: #000000"/>
     <use xlink:href="#mb5b9b684fe" x="353.043172" y="43.301676" style="stroke: #000000"/>
     <use xlink:href="#mb5b9b684fe" x="360.495715" y="41.622987" style="stroke: #000000"/>
     <use xlink:href="#mb5b9b684fe" x="367.948259" y="45.260143" style="stroke: #000000"/>
     <use xlink:href="#mb5b9b684fe" x="375.400802" y="42.462332" style="stroke: #000000"/>
     <use xlink:href="#mb5b9b684fe" x="382.853346" y="43.861237" style="stroke: #000000"/>
     <use xlink:href="#mb5b9b684fe" x="390.305889" y="42.742112" style="stroke: #000000"/>
     <use xlink:href="#mb5b9b684fe" x="397.758433" y="43.301673" style="stroke: #000000"/>
     <use xlink:href="#mb5b9b684fe" x="405.210976" y="45.53992" style="stroke: #000000"/>
     <use xlink:href="#mb5b9b684fe" x="412.66352" y="40.783642" style="stroke: #000000"/>
     <use xlink:href="#mb5b9b684fe" x="420.116063" y="47.778166" style="stroke: #000000"/>
     <use xlink:href="#mb5b9b684fe" x="427.568606" y="44.700578" style="stroke: #000000"/>
     <use xlink:href="#mb5b9b684fe" x="434.648523" y="42.462332" style="stroke: #000000"/>
    </g>
   </g>
   <g id="line2d_14">
    <path d="M 62.393977 251.738302 
L 69.846521 90.025055 
L 77.299064 84.989004 
L 84.751608 95.340887 
L 92.204151 89.465495 
L 99.656695 79.113612 
L 107.109238 79.393392 
L 114.561781 71.279746 
L 122.014325 68.202162 
L 129.466868 65.684134 
L 136.919412 66.243695 
L 144.371955 54.49291 
L 151.824499 53.933349 
L 159.277042 52.534441 
L 166.729586 48.05795 
L 174.182129 49.736636 
L 181.634673 48.897295 
L 189.087216 49.177082 
L 196.539759 48.897295 
L 203.992303 46.379264 
L 211.444846 46.659041 
L 218.89739 46.938832 
L 226.349933 48.057954 
L 233.802477 47.77817 
L 241.25502 47.77817 
L 248.707564 47.77817 
L 256.160107 44.420795 
L 263.61265 42.462332 
L 271.065194 49.177072 
L 278.517737 46.938828 
L 285.970281 48.057947 
L 293.422824 48.337727 
L 300.875368 42.742112 
L 308.327911 45.539923 
L 315.780455 44.980355 
L 323.232998 43.301673 
L 330.685542 44.420795 
L 338.138085 41.902771 
L 345.590628 40.783646 
L 353.043172 44.141014 
L 360.495715 41.343206 
L 367.948259 43.58146 
L 375.400802 43.581457 
L 382.853346 42.742112 
L 390.305889 42.462335 
L 397.758433 42.742112 
L 405.210976 46.379264 
L 412.66352 41.063429 
L 420.116063 47.778166 
L 427.568606 44.700578 
L 434.648523 45.260139 
" clip-path="url(#pef7fa07c7a)" style="fill: none; stroke: #1f77b4; stroke-width: 1.5; stroke-linecap: square"/>
    <defs>
     <path id="m092281f3ac" d="M 0 1.5 
C 0.397805 1.5 0.77937 1.341951 1.06066 1.06066 
C 1.341951 0.77937 1.5 0.397805 1.5 0 
C 1.5 -0.397805 1.341951 -0.77937 1.06066 -1.06066 
C 0.77937 -1.341951 0.397805 -1.5 0 -1.5 
C -0.397805 -1.5 -0.77937 -1.341951 -1.06066 -1.06066 
C -1.341951 -0.77937 -1.5 -0.397805 -1.5 0 
C -1.5 0.397805 -1.341951 0.77937 -1.06066 1.06066 
C -0.77937 1.341951 -0.397805 1.5 0 1.5 
z
" style="stroke: #1f77b4"/>
    </defs>
    <g clip-path="url(#pef7fa07c7a)">
     <use xlink:href="#m092281f3ac" x="62.393977" y="251.738302" style="fill: #1f77b4; stroke: #1f77b4"/>
     <use xlink:href="#m092281f3ac" x="69.846521" y="90.025055" style="fill: #1f77b4; stroke: #1f77b4"/>
     <use xlink:href="#m092281f3ac" x="77.299064" y="84.989004" style="fill: #1f77b4; stroke: #1f77b4"/>
     <use xlink:href="#m092281f3ac" x="84.751608" y="95.340887" style="fill: #1f77b4; stroke: #1f77b4"/>
     <use xlink:href="#m092281f3ac" x="92.204151" y="89.465495" style="fill: #1f77b4; stroke: #1f77b4"/>
     <use xlink:href="#m092281f3ac" x="99.656695" y="79.113612" style="fill: #1f77b4; stroke: #1f77b4"/>
     <use xlink:href="#m092281f3ac" x="107.109238" y="79.393392" style="fill: #1f77b4; stroke: #1f77b4"/>
     <use xlink:href="#m092281f3ac" x="114.561781" y="71.279746" style="fill: #1f77b4; stroke: #1f77b4"/>
     <use xlink:href="#m092281f3ac" x="122.014325" y="68.202162" style="fill: #1f77b4; stroke: #1f77b4"/>
     <use xlink:href="#m092281f3ac" x="129.466868" y="65.684134" style="fill: #1f77b4; stroke: #1f77b4"/>
     <use xlink:href="#m092281f3ac" x="136.919412" y="66.243695" style="fill: #1f77b4; stroke: #1f77b4"/>
     <use xlink:href="#m092281f3ac" x="144.371955" y="54.49291" style="fill: #1f77b4; stroke: #1f77b4"/>
     <use xlink:href="#m092281f3ac" x="151.824499" y="53.933349" style="fill: #1f77b4; stroke: #1f77b4"/>
     <use xlink:href="#m092281f3ac" x="159.277042" y="52.534441" style="fill: #1f77b4; stroke: #1f77b4"/>
     <use xlink:href="#m092281f3ac" x="166.729586" y="48.05795" style="fill: #1f77b4; stroke: #1f77b4"/>
     <use xlink:href="#m092281f3ac" x="174.182129" y="49.736636" style="fill: #1f77b4; stroke: #1f77b4"/>
     <use xlink:href="#m092281f3ac" x="181.634673" y="48.897295" style="fill: #1f77b4; stroke: #1f77b4"/>
     <use xlink:href="#m092281f3ac" x="189.087216" y="49.177082" style="fill: #1f77b4; stroke: #1f77b4"/>
     <use xlink:href="#m092281f3ac" x="196.539759" y="48.897295" style="fill: #1f77b4; stroke: #1f77b4"/>
     <use xlink:href="#m092281f3ac" x="203.992303" y="46.379264" style="fill: #1f77b4; stroke: #1f77b4"/>
     <use xlink:href="#m092281f3ac" x="211.444846" y="46.659041" style="fill: #1f77b4; stroke: #1f77b4"/>
     <use xlink:href="#m092281f3ac" x="218.89739" y="46.938832" style="fill: #1f77b4; stroke: #1f77b4"/>
     <use xlink:href="#m092281f3ac" x="226.349933" y="48.057954" style="fill: #1f77b4; stroke: #1f77b4"/>
     <use xlink:href="#m092281f3ac" x="233.802477" y="47.77817" style="fill: #1f77b4; stroke: #1f77b4"/>
     <use xlink:href="#m092281f3ac" x="241.25502" y="47.77817" style="fill: #1f77b4; stroke: #1f77b4"/>
     <use xlink:href="#m092281f3ac" x="248.707564" y="47.77817" style="fill: #1f77b4; stroke: #1f77b4"/>
     <use xlink:href="#m092281f3ac" x="256.160107" y="44.420795" style="fill: #1f77b4; stroke: #1f77b4"/>
     <use xlink:href="#m092281f3ac" x="263.61265" y="42.462332" style="fill: #1f77b4; stroke: #1f77b4"/>
     <use xlink:href="#m092281f3ac" x="271.065194" y="49.177072" style="fill: #1f77b4; stroke: #1f77b4"/>
     <use xlink:href="#m092281f3ac" x="278.517737" y="46.938828" style="fill: #1f77b4; stroke: #1f77b4"/>
     <use xlink:href="#m092281f3ac" x="285.970281" y="48.057947" style="fill: #1f77b4; stroke: #1f77b4"/>
     <use xlink:href="#m092281f3ac" x="293.422824" y="48.337727" style="fill: #1f77b4; stroke: #1f77b4"/>
     <use xlink:href="#m092281f3ac" x="300.875368" y="42.742112" style="fill: #1f77b4; stroke: #1f77b4"/>
     <use xlink:href="#m092281f3ac" x="308.327911" y="45.539923" style="fill: #1f77b4; stroke: #1f77b4"/>
     <use xlink:href="#m092281f3ac" x="315.780455" y="44.980355" style="fill: #1f77b4; stroke: #1f77b4"/>
     <use xlink:href="#m092281f3ac" x="323.232998" y="43.301673" style="fill: #1f77b4; stroke: #1f77b4"/>
     <use xlink:href="#m092281f3ac" x="330.685542" y="44.420795" style="fill: #1f77b4; stroke: #1f77b4"/>
     <use xlink:href="#m092281f3ac" x="338.138085" y="41.902771" style="fill: #1f77b4; stroke: #1f77b4"/>
     <use xlink:href="#m092281f3ac" x="345.590628" y="40.783646" style="fill: #1f77b4; stroke: #1f77b4"/>
     <use xlink:href="#m092281f3ac" x="353.043172" y="44.141014" style="fill: #1f77b4; stroke: #1f77b4"/>
     <use xlink:href="#m092281f3ac" x="360.495715" y="41.343206" style="fill: #1f77b4; stroke: #1f77b4"/>
     <use xlink:href="#m092281f3ac" x="367.948259" y="43.58146" style="fill: #1f77b4; stroke: #1f77b4"/>
     <use xlink:href="#m092281f3ac" x="375.400802" y="43.581457" style="fill: #1f77b4; stroke: #1f77b4"/>
     <use xlink:href="#m092281f3ac" x="382.853346" y="42.742112" style="fill: #1f77b4; stroke: #1f77b4"/>
     <use xlink:href="#m092281f3ac" x="390.305889" y="42.462335" style="fill: #1f77b4; stroke: #1f77b4"/>
     <use xlink:href="#m092281f3ac" x="397.758433" y="42.742112" style="fill: #1f77b4; stroke: #1f77b4"/>
     <use xlink:href="#m092281f3ac" x="405.210976" y="46.379264" style="fill: #1f77b4; stroke: #1f77b4"/>
     <use xlink:href="#m092281f3ac" x="412.66352" y="41.063429" style="fill: #1f77b4; stroke: #1f77b4"/>
     <use xlink:href="#m092281f3ac" x="420.116063" y="47.778166" style="fill: #1f77b4; stroke: #1f77b4"/>
     <use xlink:href="#m092281f3ac" x="427.568606" y="44.700578" style="fill: #1f77b4; stroke: #1f77b4"/>
     <use xlink:href="#m092281f3ac" x="434.648523" y="45.260139" style="fill: #1f77b4; stroke: #1f77b4"/>
    </g>
   </g>
   <g id="line2d_15">
    <path d="M 43.78125 255.095669 
L 453.26125 255.095669 
" clip-path="url(#pef7fa07c7a)" style="fill: none; stroke-dasharray: 5.55,2.4; stroke-dashoffset: 0; stroke: #808080; stroke-width: 1.5"/>
   </g>
   <g id="patch_3">
    <path d="M 43.78125 277.478125 
L 43.78125 22.318125 
" style="fill: none; stroke: #000000; stroke-width: 0.8; stroke-linejoin: miter; stroke-linecap: square"/>
   </g>
   <g id="patch_4">
    <path d="M 453.26125 277.478125 
L 453.26125 22.318125 
" style="fill: none; stroke: #000000; stroke-width: 0.8; stroke-linejoin: miter; stroke-linecap: square"/>
   </g>
   <g id="patch_5">
    <path d="M 43.78125 277.478125 
L 453.26125 277.478125 
" style="fill: none; stroke: #000000; stroke-width: 0.8; stroke-linejoin: miter; stroke-linecap: square"/>
   </g>
   <g id="patch_6">
    <path d="M 43.78125 22.318125 
L 453.26125 22.318125 
" style="fill: none; stroke: #000000; stroke-width: 0.8; stroke-linejoin: miter; stroke-linecap: square"/>
   </g>
   <g id="text_15">
    <!-- Cue accumulation (delay=50), 8 seeds -->
    <g transform="translate(131.739688 16.318125) scale(0.12 -0.12)">
     <defs>
      <path id="DejaVuSans-43" d="M 4122 4306 
L 4122 3641 
Q 3803 3938 3442 4084 
Q 3081 4231 2675 4231 
Q 1875 4231 1450 3742 
Q 1025 3253 1025 2328 
Q 1025 1406 1450 917 
Q 1875 428 2675 428 
Q 3081 428 3442 575 
Q 3803 722 4122 1019 
L 4122 359 
Q 3791 134 3420 21 
Q 3050 -91 2638 -91 
Q 1578 -91 968 557 
Q 359 1206 359 2328 
Q 359 3453 968 4101 
Q 1578 4750 2638 4750 
Q 3056 4750 3426 4639 
Q 3797 4528 4122 4306 
z
" transform="scale(0.015625)"/>
      <path id="DejaVuSans-6d" d="M 3328 2828 
Q 3544 3216 3844 3400 
Q 4144 3584 4550 3584 
Q 5097 3584 5394 3201 
Q 5691 2819 5691 2113 
L 5691 0 
L 5113 0 
L 5113 2094 
Q 5113 2597 4934 2840 
Q 4756 3084 4391 3084 
Q 3944 3084 3684 2787 
Q 3425 2491 3425 1978 
L 3425 0 
L 2847 0 
L 2847 2094 
Q 2847 2600 2669 2842 
Q 2491 3084 2119 3084 
Q 1678 3084 1418 2786 
Q 1159 2488 1159 1978 
L 1159 0 
L 581 0 
L 581 3500 
L 1159 3500 
L 1159 2956 
Q 1356 3278 1631 3431 
Q 1906 3584 2284 3584 
Q 2666 3584 2933 3390 
Q 3200 3197 3328 2828 
z
" transform="scale(0.015625)"/>
      <path id="DejaVuSans-3d" d="M 678 2906 
L 4684 2906 
L 4684 2381 
L 678 2381 
L 678 2906 
z
M 678 1631 
L 4684 1631 
L 4684 1100 
L 678 1100 
L 678 1631 
z
" transform="scale(0.015625)"/>
      <path id="DejaVuSans-2c" d="M 750 794 
L 1409 794 
L 1409 256 
L 897 -744 
L 494 -744 
L 750 256 
L 750 794 
z
" transform="scale(0.015625)"/>
     </defs>
     <use xlink:href="#DejaVuSans-43"/>
     <use xlink:href="#DejaVuSans-75" transform="translate(69.824219 0)"/>
     <use xlink:href="#DejaVuSans-65" transform="translate(133.203125 0)"/>
     <use xlink:href="#DejaVuSans-20" transform="translate(194.726562 0)"/>
     <use xlink:href="#DejaVuSans-61" transform="translate(226.513672 0)"/>
     <use xlink:href="#DejaVuSans-63" transform="translate(287.792969 0)"/>
     <use xlink:href="#DejaVuSans-63" transform="translate(342.773438 0)"/>
     <use xlink:href="#DejaVuSans-75" transform="translate(397.753906 0)"/>
     <use xlink:href="#DejaVuSans-6d" transform="translate(461.132812 0)"/>
     <use xlink:href="#DejaVuSans-75" transform="translate(558.544922 0)"/>
     <use xlink:href="#DejaVuSans-6c" transform="translate(621.923828 0)"/>
     <use xlink:href="#DejaVuSans-61" transform="translate(649.707031 0)"/>
     <use xlink:href="#DejaVuSans-74" transform="translate(710.986328 0)"/>
     <use xlink:href="#DejaVuSans-69" transform="translate(750.195312 0)"/>
     <use xlink:href="#DejaVuSans-6f" transform="translate(777.978516 0)"/>
     <use xlink:href="#DejaVuSans-6e" transform="translate(839.160156 0)"/>
     <use xlink:href="#DejaVuSans-20" transform="translate(902.539062 0)"/>
     <use xlink:href="#DejaVuSans-28" transform="translate(934.326172 0)"/>
     <use xlink:href="#DejaVuSans-64" transform="translate(973.339844 0)"/>
     <use xlink:href="#DejaVuSans-65" transform="translate(1036.816406 0)"/>
     <use xlink:href="#DejaVuSans-6c" transform="translate(1098.339844 0)"/>
     <use xlink:href="#DejaVuSans-61" transform="translate(1126.123047 0)"/>
     <use xlink:href="#DejaVuSans-79" transform="translate(1187.402344 0)"/>
     <use xlink:href="#DejaVuSans-3d" transform="translate(1246.582031 0)"/>
     <use xlink:href="#DejaVuSans-35" transform="translate(1330.371094 0)"/>
     <use xlink:href="#DejaVuSans-30" transform="translate(1393.994141 0)"/>
     <use xlink:href="#DejaVuSans-29" transform="translate(1457.617188 0)"/>
     <use xlink:href="#DejaVuSans-2c" transform="translate(1496.630859 0)"/>
     <use xlink:href="#DejaVuSans-20" transform="translate(1528.417969 0)"/>
     <use xlink:href="#DejaVuSans-38" transform="translate(1560.205078 0)"/>
     <use xlink:href="#DejaVuSans-20" transform="translate(1623.828125 0)"/>
     <use xlink:href="#DejaVuSans-73" transform="translate(1655.615234 0)"/>
     <use xlink:href="#DejaVuSans-65" transform="translate(1707.714844 0)"/>
     <use xlink:href="#DejaVuSans-65" transform="translate(1769.238281 0)"/>
     <use xlink:href="#DejaVuSans-64" transform="translate(1830.761719 0)"/>
     <use xlink:href="#DejaVuSans-73" transform="translate(1894.238281 0)"/>
    </g>
   </g>
   <g id="legend_1">
    <g id="patch_7">
     <path d="M 346.9075 168.711875 
L 447.66125 168.711875 
Q 449.26125 168.711875 449.26125 167.111875 
L 449.26125 132.684375 
Q 449.26125 131.084375 447.66125 131.084375 
L 346.9075 131.084375 
Q 345.3075 131.084375 345.3075 132.684375 
L 345.3075 167.111875 
Q 345.3075 168.711875 346.9075 168.711875 
z
" style="fill: #ffffff; opacity: 0.8; stroke: #cccccc; stroke-linejoin: miter"/>
    </g>
    <g id="line2d_16">
     <path d="M 348.5075 137.563125 
L 356.5075 137.563125 
L 364.5075 137.563125 
" style="fill: none; stroke: #000000; stroke-width: 1.5; stroke-linecap: square"/>
     <g>
      <use xlink:href="#mb5b9b684fe" x="356.5075" y="137.563125" style="stroke: #000000"/>
     </g>
    </g>
    <g id="text_16">
     <!-- BPTT -->
     <g transform="translate(370.9075 140.363125) scale(0.08 -0.08)">
      <defs>
       <path id="DejaVuSans-42" d="M 1259 2228 
L 1259 519 
L 2272 519 
Q 2781 519 3026 730 
Q 3272 941 3272 1375 
Q 3272 1813 3026 2020 
Q 2781 2228 2272 2228 
L 1259 2228 
z
M 1259 4147 
L 1259 2741 
L 2194 2741 
Q 2656 2741 2882 2914 
Q 3109 3088 3109 3444 
Q 3109 3797 2882 3972 
Q 2656 4147 2194 4147 
L 1259 4147 
z
M 628 4666 
L 2241 4666 
Q 2963 4666 3353 4366 
Q 3744 4066 3744 3513 
Q 3744 3084 3544 2831 
Q 3344 2578 2956 2516 
Q 3422 2416 3680 2098 
Q 3938 1781 3938 1306 
Q 3938 681 3513 340 
Q 3088 0 2303 0 
L 628 0 
L 628 4666 
z
" transform="scale(0.015625)"/>
       <path id="DejaVuSans-50" d="M 1259 4147 
L 1259 2394 
L 2053 2394 
Q 2494 2394 2734 2622 
Q 2975 2850 2975 3272 
Q 2975 3691 2734 3919 
Q 2494 4147 2053 4147 
L 1259 4147 
z
M 628 4666 
L 2053 4666 
Q 2838 4666 3239 4311 
Q 3641 3956 3641 3272 
Q 3641 2581 3239 2228 
Q 2838 1875 2053 1875 
L 1259 1875 
L 1259 0 
L 628 0 
L 628 4666 
z
" transform="scale(0.015625)"/>
       <path id="DejaVuSans-54" d="M -19 4666 
L 3928 4666 
L 3928 4134 
L 2272 4134 
L 2272 0 
L 1638 0 
L 1638 4134 
L -19 4134 
L -19 4666 
z
" transform="scale(0.015625)"/>
      </defs>
      <use xlink:href="#DejaVuSans-42"/>
      <use xlink:href="#DejaVuSans-50" transform="translate(68.603516 0)"/>
      <use xlink:href="#DejaVuSans-54" transform="translate(128.90625 0)"/>
      <use xlink:href="#DejaVuSans-54" transform="translate(188.240234 0)"/>
     </g>
    </g>
    <g id="line2d_17">
     <path d="M 348.5075 149.305625 
L 356.5075 149.305625 
L 364.5075 149.305625 
" style="fill: none; stroke: #1f77b4; stroke-width: 1.5; stroke-linecap: square"/>
     <g>
      <use xlink:href="#m092281f3ac" x="356.5075" y="149.305625" style="fill: #1f77b4; stroke: #1f77b4"/>
     </g>
    </g>
    <g id="text_17">
     <!-- single-layer e-prop -->
     <g transform="translate(370.9075 152.105625) scale(0.08 -0.08)">
      <use xlink:href="#DejaVuSans-73"/>
      <use xlink:href="#DejaVuSans-69" transform="translate(52.099609 0)"/>
      <use xlink:href="#DejaVuSans-6e" transform="translate(79.882812 0)"/>
      <use xlink:href="#DejaVuSans-67" transform="translate(143.261719 0)"/>
      <use xlink:href="#DejaVuSans-6c" transform="translate(206.738281 0)"/>
      <use xlink:href="#DejaVuSans-65" transform="translate(234.521484 0)"/>
      <use xlink:href="#DejaVuSans-2d" transform="translate(296.044922 0)"/>
      <use xlink:href="#DejaVuSans-6c" transform="translate(332.128906 0)"/>
      <use xlink:href="#DejaVuSans-61" transform="translate(359.912109 0)"/>
      <use xlink:href="#DejaVuSans-79" transform="translate(421.191406 0)"/>
      <use xlink:href="#DejaVuSans-65" transform="translate(480.371094 0)"/>
      <use xlink:href="#DejaVuSans-72" transform="translate(541.894531 0)"/>
      <use xlink:href="#DejaVuSans-20" transform="translate(583.007812 0)"/>
      <use xlink:href="#DejaVuSans-65" transform="translate(614.794922 0)"/>
      <use xlink:href="#DejaVuSans-2d" transform="translate(676.318359 0)"/>
      <use xlink:href="#DejaVuSans-70" transform="translate(712.402344 0)"/>
      <use xlink:href="#DejaVuSans-72" transform="translate(775.878906 0)"/>
      <use xlink:href="#DejaVuSans-6f" transform="translate(814.742188 0)"/>
      <use xlink:href="#DejaVuSans-70" transform="translate(875.923828 0)"/>
     </g>
    </g>
    <g id="line2d_18">
     <path d="M 348.5075 161.048125 
L 356.5075 161.048125 
L 364.5075 161.048125 
" style="fill: none; stroke-dasharray: 5.55,2.4; stroke-dashoffset: 0; stroke: #808080; stroke-width: 1.5"/>
    </g>
    <g id="text_18">
     <!-- chance -->
     <g transform="translate(370.9075 163.848125) scale(0.08 -0.08)">
      <use xlink:href="#DejaVuSans-63"/>
      <use xlink:href="#DejaVuSans-68" transform="translate(54.980469 0)"/>
      <use xlink:href="#DejaVuSans-61" transform="translate(118.359375 0)"/>
      <use xlink:href="#DejaVuSans-6e" transform="translate(179.638672 0)"/>
      <use xlink:href="#DejaVuSans-63" transform="translate(243.017578 0)"/>
      <use xlink:href="#DejaVuSans-65" transform="translate(297.998047 0)"/>
     </g>
    </g>
   </g>
  </g>
 </g>
 <defs>
  <clipPath id="pef7fa07c7a">
   <rect x="43.78125" y="22.318125" width="409.48" height="255.16"/>
  </clipPath>
 </defs>
</svg>
