<?xml version="1.0" encoding="utf-8" standalone="no"?>
<!DOCTYPE svg PUBLIC "-//W3C//DTD SVG 1.1//EN"
  "http://www.w3.org/Graphics/SVG/1.1/DTD/svg11.dtd">
<svg xmlns:xlink="http://www.w3.org/1999/xlink" width="496.54125pt" height="315.99625pt" viewBox="0 0 496.54125 315.99625" xmlns="http://www.w3.org/2000/svg" version="1.1">
 <metadata>
  <rdf:RDF xmlns:dc="http://purl.org/dc/elements/1.1/" xmlns:cc="http://creativecommons.org/ns#" xmlns:rdf="http://www.w3.org/1999/02/22-rdf-syntax-ns#">
   <cc:Work>
    <dc:type rdf:resource="http://purl.org/dc/dcmitype/StillImage"/>
    <dc:format>image/svg+xml</dc:format>
    <dc:creator>
     <cc:Agent>
      <dc:title>Matplotlib v3.10.9, https://matplotlib.org/</dc:title>
     </cc:Agent>
    </dc:creator>
   </cc:Work>
  </rdf:RDF>
 </metadata>
 <defs>
  <style type="text/css">*{stroke-linejoin: round; stroke-linecap: butt}</style>
 </defs>
 <g id="figure_1">
  <g id="patch_1">
   <path d="M 0 315.99625 
L 496.54125 315.99625 
L 496.54125 0 
L 0 0 
z
" style="fill: #ffffff"/>
  </g>
  <g id="axes_1">
   <g id="patch_2">
    <path d="M 43.78125 278.44 
L 476.61625 278.44 
L 476.61625 7.2 
L 43.78125 7.2 
z
" style="fill: #ffffff"/>
   </g>
   <g id="FillBetweenPolyCollection_1">
    <path d="M 43.78125 249.847143 
L 43.78125 254.857914 
L 87.06475 53.434813 
L 130.34825 18.686645 
L 173.63175 17.576848 
L 216.91525 17.665151 
L 260.19875 16.865447 
L 303.48225 16.813309 
L 346.76575 16.865447 
L 390.04925 16.813309 
L 433.33275 16.775281 
L 476.61625 17.040254 
L 519.89975 16.717193 
L 563.18325 16.83337 
L 606.46675 16.909425 
L 649.75025 16.813309 
L 693.03375 16.775281 
L 736.31725 16.717193 
L 779.60075 16.775281 
L 822.88425 16.717193 
L 866.16775 16.717193 
L 909.45125 16.717193 
L 952.73475 17.123811 
L 996.01825 16.717193 
L 1039.30175 16.775281 
L 1082.58525 16.717193 
L 1082.58525 16.717193 
L 1082.58525 16.717193 
L 1039.30175 16.717193 
L 996.01825 16.717193 
L 952.73475 16.717193 
L 909.45125 16.717193 
L 866.16775 16.717193 
L 822.88425 16.717193 
L 779.60075 16.717193 
L 736.31725 16.717193 
L 693.03375 16.717193 
L 649.75025 16.737254 
L 606.46675 16.757314 
L 563.18325 16.717193 
L 519.89975 16.717193 
L 476.61625 16.80075 
L 433.33275 16.717193 
L 390.04925 16.737254 
L 346.76575 16.743204 
L 303.48225 16.737254 
L 260.19875 16.743204 
L 216.91525 16.814825 
L 173.63175 16.84504 
L 130.34825 17.129363 
L 87.06475 37.448937 
L 43.78125 249.847143 
z
" clip-path="url(#pf78a9eb59a)" style="fill-opacity: 0.15; stroke: #000000; stroke-opacity: 0.15"/>
   </g>
   <g id="FillBetweenPolyCollection_2">
    <path d="M 43.78125 249.847143 
L 43.78125 254.857914 
L 87.06475 145.265073 
L 130.34825 80.997716 
L 173.63175 63.345645 
L 216.91525 40.261167 
L 260.19875 27.951576 
L 303.48225 21.094351 
L 346.76575 18.511493 
L 390.04925 18.108536 
L 433.33275 24.885253 
L 476.61625 18.131215 
L 519.89975 17.444774 
L 563.18325 17.641808 
L 606.46675 16.993457 
L 649.75025 16.949546 
L 693.03375 16.989058 
L 736.31725 17.013002 
L 779.60075 16.923535 
L 822.88425 17.536994 
L 866.16775 17.87896 
L 909.45125 17.040254 
L 952.73475 17.062365 
L 996.01825 17.035429 
L 1039.30175 16.826432 
L 1082.58525 16.794644 
L 1125.86875 17.221292 
L 1169.15225 16.717193 
L 1212.43575 16.717193 
L 1255.71925 17.646606 
L 1255.71925 16.717193 
L 1255.71925 16.717193 
L 1212.43575 16.717193 
L 1169.15225 16.717193 
L 1125.86875 16.770742 
L 1082.58525 16.717193 
L 1039.30175 16.740727 
L 996.01825 16.747487 
L 952.73475 16.778639 
L 909.45125 16.80075 
L 866.16775 17.007635 
L 822.88425 16.942982 
L 779.60075 16.801293 
L 736.31725 16.828003 
L 693.03375 16.851947 
L 649.75025 16.83337 
L 606.46675 16.905636 
L 563.18325 17.244787 
L 519.89975 17.035202 
L 476.61625 17.336263 
L 433.33275 17.610913 
L 390.04925 17.41703 
L 346.76575 17.769221 
L 303.48225 19.078282 
L 260.19875 21.689456 
L 216.91525 29.594606 
L 173.63175 53.155061 
L 130.34825 66.289809 
L 87.06475 121.277805 
L 43.78125 249.847143 
z
" clip-path="url(#pf78a9eb59a)" style="fill: #1f77b4; fill-opacity: 0.15; stroke: #1f77b4; stroke-opacity: 0.15"/>
   </g>
   <g id="FillBetweenPolyCollection_3">
    <path d="M 43.78125 249.847143 
L 43.78125 254.857914 
L 87.06475 208.576254 
L 130.34825 175.446288 
L 173.63175 143.56144 
L 216.91525 103.56423 
L 260.19875 67.440018 
L 303.48225 43.351512 
L 346.76575 31.733989 
L 390.04925 26.450026 
L 433.33275 25.151336 
L 476.61625 21.572333 
L 519.89975 22.078757 
L 563.18325 20.053616 
L 606.46675 20.316454 
L 649.75025 18.680721 
L 693.03375 19.703978 
L 736.31725 17.850104 
L 779.60075 18.295801 
L 822.88425 18.228595 
L 866.16775 17.757191 
L 909.45125 18.243782 
L 952.73475 17.483484 
L 996.01825 17.523188 
L 1039.30175 29.774164 
L 1082.58525 17.759445 
L 1125.86875 17.383419 
L 1169.15225 17.249389 
L 1212.43575 17.407531 
L 1255.71925 17.659284 
L 1299.00275 17.1819 
L 1299.00275 17.1819 
L 1299.00275 17.1819 
L 1255.71925 16.936868 
L 1212.43575 16.878817 
L 1169.15225 16.91525 
L 1125.86875 16.913994 
L 1082.58525 17.185238 
L 1039.30175 17.310981 
L 996.01825 17.131053 
L 952.73475 16.996492 
L 909.45125 17.339873 
L 866.16775 17.24558 
L 822.88425 17.35506 
L 779.60075 17.578295 
L 736.31725 17.210755 
L 693.03375 17.912768 
L 649.75025 17.599993 
L 606.46675 18.578235 
L 563.18325 18.376367 
L 519.89975 18.965201 
L 476.61625 18.658389 
L 433.33275 20.249247 
L 390.04925 20.693207 
L 346.76575 23.832053 
L 303.48225 34.055745 
L 260.19875 52.894519 
L 216.91525 75.555703 
L 173.63175 103.115228 
L 130.34825 135.650345 
L 87.06475 166.359459 
L 43.78125 249.847143 
z
" clip-path="url(#pf78a9eb59a)" style="fill: #d62728; fill-opacity: 0.15; stroke: #d62728; stroke-opacity: 0.15"/>
   </g>
   <g id="FillBetweenPolyCollection_4">
    <path d="M 43.78125 249.847143 
L 43.78125 254.857914 
L 87.06475 216.250627 
L 130.34825 182.47035 
L 173.63175 133.655077 
L 216.91525 104.375659 
L 260.19875 59.954681 
L 303.48225 46.699616 
L 346.76575 32.246438 
L 390.04925 25.409893 
L 433.33275 22.888197 
L 476.61625 22.030779 
L 519.89975 21.43559 
L 563.18325 20.734278 
L 606.46675 20.569401 
L 649.75025 19.835982 
L 693.03375 19.884872 
L 736.31725 19.468798 
L 779.60075 19.231057 
L 822.88425 18.90618 
L 866.16775 18.885143 
L 909.45125 18.521414 
L 952.73475 18.406105 
L 996.01825 18.405888 
L 1039.30175 18.318641 
L 1082.58525 18.762791 
L 1125.86875 25.264528 
L 1169.15225 25.144795 
L 1212.43575 18.020346 
L 1255.71925 18.464292 
L 1299.00275 18.111313 
L 1342.28625 19.040726 
L 1385.56975 17.87896 
L 1428.85325 17.87896 
L 1472.13675 17.87896 
L 1515.42025 137.540932 
L 1558.70375 17.646606 
L 1601.98725 17.1819 
L 1645.27075 17.1819 
L 1645.27075 17.1819 
L 1645.27075 17.1819 
L 1601.98725 17.1819 
L 1558.70375 17.646606 
L 1515.42025 17.414253 
L 1472.13675 17.646606 
L 1428.85325 17.87896 
L 1385.56975 17.87896 
L 1342.28625 17.414253 
L 1299.00275 17.026997 
L 1255.71925 17.44853 
L 1212.43575 16.924337 
L 1169.15225 17.583725 
L 1125.86875 17.17355 
L 1082.58525 17.285571 
L 1039.30175 17.265014 
L 996.01825 17.352032 
L 952.73475 17.293726 
L 909.45125 17.41077 
L 866.16775 17.627925 
L 822.88425 17.664976 
L 779.60075 17.804806 
L 736.31725 18.031772 
L 693.03375 18.138492 
L 649.75025 18.245471 
L 606.46675 18.557642 
L 563.18325 18.741295 
L 519.89975 19.20175 
L 476.61625 19.535974 
L 433.33275 20.188852 
L 390.04925 21.442899 
L 346.76575 23.203428 
L 303.48225 26.409104 
L 260.19875 39.351878 
L 216.91525 72.711182 
L 173.63175 110.117174 
L 130.34825 148.085875 
L 87.06475 192.608675 
L 43.78125 249.847143 
z
" clip-path="url(#pf78a9eb59a)" style="fill: #ff7f0e; fill-opacity: 0.15; stroke: #ff7f0e; stroke-opacity: 0.15"/>
   </g>
   <g id="matplotlib.axis_1">
    <g id="xtick_1">
     <g id="line2d_1">
      <defs>
       <path id="m27cda3270c" d="M 0 0 
L 0 3.5 
" style="stroke: #000000; stroke-width: 0.8"/>
      </defs>
      <g>
       <use xlink:href="#m27cda3270c" x="43.78125" y="278.44" style="stroke: #000000; stroke-width: 0.8"/>
      </g>
     </g>
     <g id="text_1">
      <!-- 0 -->
      <g transform="translate(40.6 293.038437) scale(0.1 -0.1)">
       <defs>
        <path id="DejaVuSans-30" d="M 2034 4250 
Q 1547 4250 1301 3770 
Q 1056 3291 1056 2328 
Q 1056 1369 1301 889 
Q 1547 409 2034 409 
Q 2525 409 2770 889 
Q 3016 1369 3016 2328 
Q 3016 3291 2770 3770 
Q 2525 4250 2034 4250 
z
M 2034 4750 
Q 2819 4750 3233 4129 
Q 3647 3509 3647 2328 
Q 3647 1150 3233 529 
Q 2819 -91 2034 -91 
Q 1250 -91 836 529 
Q 422 1150 422 2328 
Q 422 3509 836 4129 
Q 1250 4750 2034 4750 
z
" transform="scale(0.015625)"/>
       </defs>
       <use xlink:href="#DejaVuSans-30"/>
      </g>
     </g>
    </g>
    <g id="xtick_2">
     <g id="line2d_2">
      <g>
       <use xlink:href="#m27cda3270c" x="130.34825" y="278.44" style="stroke: #000000; stroke-width: 0.8"/>
      </g>
     </g>
     <g id="text_2">
      <!-- 200 -->
      <g transform="translate(120.8045 293.038437) scale(0.1 -0.1)">
       <defs>
        <path id="DejaVuSans-32" d="M 1228 531 
L 3431 531 
L 3431 0 
L 469 0 
L 469 531 
Q 828 903 1448 1529 
Q 2069 2156 2228 2338 
Q 2531 2678 2651 2914 
Q 2772 3150 2772 3378 
Q 2772 3750 2511 3984 
Q 2250 4219 1831 4219 
Q 1534 4219 1204 4116 
Q 875 4013 500 3803 
L 500 4441 
Q 881 4594 1212 4672 
Q 1544 4750 1819 4750 
Q 2544 4750 2975 4387 
Q 3406 4025 3406 3419 
Q 3406 3131 3298 2873 
Q 3191 2616 2906 2266 
Q 2828 2175 2409 1742 
Q 1991 1309 1228 531 
z
" transform="scale(0.015625)"/>
       </defs>
       <use xlink:href="#DejaVuSans-32"/>
       <use xlink:href="#DejaVuSans-30" transform="translate(63.623047 0)"/>
       <use xlink:href="#DejaVuSans-30" transform="translate(127.246094 0)"/>
      </g>
     </g>
    </g>
    <g id="xtick_3">
     <g id="line2d_3">
      <g>
       <use xlink:href="#m27cda3270c" x="216.91525" y="278.44" style="stroke: #000000; stroke-width: 0.8"/>
      </g>
     </g>
     <g id="text_3">
      <!-- 400 -->
      <g transform="translate(207.3715 293.038437) scale(0.1 -0.1)">
       <defs>
        <path id="DejaVuSans-34" d="M 2419 4116 
L 825 1625 
L 2419 1625 
L 2419 4116 
z
M 2253 4666 
L 3047 4666 
L 3047 1625 
L 3713 1625 
L 3713 1100 
L 3047 1100 
L 3047 0 
L 2419 0 
L 2419 1100 
L 313 1100 
L 313 1709 
L 2253 4666 
z
" transform="scale(0.015625)"/>
       </defs>
       <use xlink:href="#DejaVuSans-34"/>
       <use xlink:href="#DejaVuSans-30" transform="translate(63.623047 0)"/>
       <use xlink:href="#DejaVuSans-30" transform="translate(127.246094 0)"/>
      </g>
     </g>
    </g>
    <g id="xtick_4">
     <g id="line2d_4">
      <g>
       <use xlink:href="#m27cda3270c" x="303.48225" y="278.44" style="stroke: #000000; stroke-width: 0.8"/>
      </g>
     </g>
     <g id="text_4">
      <!-- 600 -->
      <g transform="translate(293.9385 293.038437) scale(0.1 -0.1)">
       <defs>
        <path id="DejaVuSans-36" d="M 2113 2584 
Q 1688 2584 1439 2293 
Q 1191 2003 1191 1497 
Q 1191 994 1439 701 
Q 1688 409 2113 409 
Q 2538 409 2786 701 
Q 3034 994 3034 1497 
Q 3034 2003 2786 2293 
Q 2538 2584 2113 2584 
z
M 3366 4563 
L 3366 3988 
Q 3128 4100 2886 4159 
Q 2644 4219 2406 4219 
Q 1781 4219 1451 3797 
Q 1122 3375 1075 2522 
Q 1259 2794 1537 2939 
Q 1816 3084 2150 3084 
Q 2853 3084 3261 2657 
Q 3669 2231 3669 1497 
Q 3669 778 3244 343 
Q 2819 -91 2113 -91 
Q 1303 -91 875 529 
Q 447 1150 447 2328 
Q 447 3434 972 4092 
Q 1497 4750 2381 4750 
Q 2619 4750 2861 4703 
Q 3103 4656 3366 4563 
z
" transform="scale(0.015625)"/>
       </defs>
       <use xlink:href="#DejaVuSans-36"/>
       <use xlink:href="#DejaVuSans-30" transform="translate(63.623047 0)"/>
       <use xlink:href="#DejaVuSans-30" transform="translate(127.246094 0)"/>
      </g>
     </g>
    </g>
    <g id="xtick_5">
     <g id="line2d_5">
      <g>
       <use xlink:href="#m27cda3270c" x="390.04925" y="278.44" style="stroke: #000000; stroke-width: 0.8"/>
      </g>
     </g>
     <g id="text_5">
      <!-- 800 -->
      <g transform="translate(380.5055 293.038437) scale(0.1 -0.1)">
       <defs>
        <path id="DejaVuSans-38" d="M 2034 2216 
Q 1584 2216 1326 1975 
Q 1069 1734 1069 1313 
Q 1069 891 1326 650 
Q 1584 409 2034 409 
Q 2484 409 2743 651 
Q 3003 894 3003 1313 
Q 3003 1734 2745 1975 
Q 2488 2216 2034 2216 
z
M 1403 2484 
Q 997 2584 770 2862 
Q 544 3141 544 3541 
Q 544 4100 942 4425 
Q 1341 4750 2034 4750 
Q 2731 4750 3128 4425 
Q 3525 4100 3525 3541 
Q 3525 3141 3298 2862 
Q 3072 2584 2669 2484 
Q 3125 2378 3379 2068 
Q 3634 1759 3634 1313 
Q 3634 634 3220 271 
Q 2806 -91 2034 -91 
Q 1263 -91 848 271 
Q 434 634 434 1313 
Q 434 1759 690 2068 
Q 947 2378 1403 2484 
z
M 1172 3481 
Q 1172 3119 1398 2916 
Q 1625 2713 2034 2713 
Q 2441 2713 2670 2916 
Q 2900 3119 2900 3481 
Q 2900 3844 2670 4047 
Q 2441 4250 2034 4250 
Q 1625 4250 1398 4047 
Q 1172 3844 1172 3481 
z
" transform="scale(0.015625)"/>
       </defs>
       <use xlink:href="#DejaVuSans-38"/>
       <use xlink:href="#DejaVuSans-30" transform="translate(63.623047 0)"/>
       <use xlink:href="#DejaVuSans-30" transform="translate(127.246094 0)"/>
      </g>
     </g>
    </g>
    <g id="xtick_6">
     <g id="line2d_6">
      <g>
       <use xlink:href="#m27cda3270c" x="476.61625" y="278.44" style="stroke: #000000; stroke-width: 0.8"/>
      </g>
     </g>
     <g id="text_6">
      <!-- 1000 -->
      <g transform="translate(463.89125 293.038437) scale(0.1 -0.1)">
       <defs>
        <path id="DejaVuSans-31" d="M 794 531 
L 1825 531 
L 1825 4091 
L 703 3866 
L 703 4441 
L 1819 4666 
L 2450 4666 
L 2450 531 
L 3481 531 
L 3481 0 
L 794 0 
L 794 531 
z
" transform="scale(0.015625)"/>
       </defs>
       <use xlink:href="#DejaVuSans-31"/>
       <use xlink:href="#DejaVuSans-30" transform="translate(63.623047 0)"/>
       <use xlink:href="#DejaVuSans-30" transform="translate(127.246094 0)"/>
       <use xlink:href="#DejaVuSans-30" transform="translate(190.869141 0)"/>
      </g>
     </g>
    </g>
    <g id="text_7">
     <!-- training step -->
     <g transform="translate(228.424531 306.716562) scale(0.1 -0.1)">
      <defs>
       <path id="DejaVuSans-74" d="M 1172 4494 
L 1172 3500 
L 2356 3500 
L 2356 3053 
L 1172 3053 
L 1172 1153 
Q 1172 725 1289 603 
Q 1406 481 1766 481 
L 2356 481 
L 2356 0 
L 1766 0 
Q 1100 0 847 248 
Q 594 497 594 1153 
L 594 3053 
L 172 3053 
L 172 3500 
L 594 3500 
L 594 4494 
L 1172 4494 
z
" transform="scale(0.015625)"/>
       <path id="DejaVuSans-72" d="M 2631 2963 
Q 2534 3019 2420 3045 
Q 2306 3072 2169 3072 
Q 1681 3072 1420 2755 
Q 1159 2438 1159 1844 
L 1159 0 
L 581 0 
L 581 3500 
L 1159 3500 
L 1159 2956 
Q 1341 3275 1631 3429 
Q 1922 3584 2338 3584 
Q 2397 3584 2469 3576 
Q 2541 3569 2628 3553 
L 2631 2963 
z
" transform="scale(0.015625)"/>
       <path id="DejaVuSans-61" d="M 2194 1759 
Q 1497 1759 1228 1600 
Q 959 1441 959 1056 
Q 959 750 1161 570 
Q 1363 391 1709 391 
Q 2188 391 2477 730 
Q 2766 1069 2766 1631 
L 2766 1759 
L 2194 1759 
z
M 3341 1997 
L 3341 0 
L 2766 0 
L 2766 531 
Q 2569 213 2275 61 
Q 1981 -91 1556 -91 
Q 1019 -91 701 211 
Q 384 513 384 1019 
Q 384 1609 779 1909 
Q 1175 2209 1959 2209 
L 2766 2209 
L 2766 2266 
Q 2766 2663 2505 2880 
Q 2244 3097 1772 3097 
Q 1472 3097 1187 3025 
Q 903 2953 641 2809 
L 641 3341 
Q 956 3463 1253 3523 
Q 1550 3584 1831 3584 
Q 2591 3584 2966 3190 
Q 3341 2797 3341 1997 
z
" transform="scale(0.015625)"/>
       <path id="DejaVuSans-69" d="M 603 3500 
L 1178 3500 
L 1178 0 
L 603 0 
L 603 3500 
z
M 603 4863 
L 1178 4863 
L 1178 4134 
L 603 4134 
L 603 4863 
z
" transform="scale(0.015625)"/>
       <path id="DejaVuSans-6e" d="M 3513 2113 
L 3513 0 
L 2938 0 
L 2938 2094 
Q 2938 2591 2744 2837 
Q 2550 3084 2163 3084 
Q 1697 3084 1428 2787 
Q 1159 2491 1159 1978 
L 1159 0 
L 581 0 
L 581 3500 
L 1159 3500 
L 1159 2956 
Q 1366 3272 1645 3428 
Q 1925 3584 2291 3584 
Q 2894 3584 3203 3211 
Q 3513 2838 3513 2113 
z
" transform="scale(0.015625)"/>
       <path id="DejaVuSans-67" d="M 2906 1791 
Q 2906 2416 2648 2759 
Q 2391 3103 1925 3103 
Q 1463 3103 1205 2759 
Q 947 2416 947 1791 
Q 947 1169 1205 825 
Q 1463 481 1925 481 
Q 2391 481 2648 825 
Q 2906 1169 2906 1791 
z
M 3481 434 
Q 3481 -459 3084 -895 
Q 2688 -1331 1869 -1331 
Q 1566 -1331 1297 -1286 
Q 1028 -1241 775 -1147 
L 775 -588 
Q 1028 -725 1275 -790 
Q 1522 -856 1778 -856 
Q 2344 -856 2625 -561 
Q 2906 -266 2906 331 
L 2906 616 
Q 2728 306 2450 153 
Q 2172 0 1784 0 
Q 1141 0 747 490 
Q 353 981 353 1791 
Q 353 2603 747 3093 
Q 1141 3584 1784 3584 
Q 2172 3584 2450 3431 
Q 2728 3278 2906 2969 
L 2906 3500 
L 3481 3500 
L 3481 434 
z
" transform="scale(0.015625)"/>
       <path id="DejaVuSans-20" transform="scale(0.015625)"/>
       <path id="DejaVuSans-73" d="M 2834 3397 
L 2834 2853 
Q 2591 2978 2328 3040 
Q 2066 3103 1784 3103 
Q 1356 3103 1142 2972 
Q 928 2841 928 2578 
Q 928 2378 1081 2264 
Q 1234 2150 1697 2047 
L 1894 2003 
Q 2506 1872 2764 1633 
Q 3022 1394 3022 966 
Q 3022 478 2636 193 
Q 2250 -91 1575 -91 
Q 1294 -91 989 -36 
Q 684 19 347 128 
L 347 722 
Q 666 556 975 473 
Q 1284 391 1588 391 
Q 1994 391 2212 530 
Q 2431 669 2431 922 
Q 2431 1156 2273 1281 
Q 2116 1406 1581 1522 
L 1381 1569 
Q 847 1681 609 1914 
Q 372 2147 372 2553 
Q 372 3047 722 3315 
Q 1072 3584 1716 3584 
Q 2034 3584 2315 3537 
Q 2597 3491 2834 3397 
z
" transform="scale(0.015625)"/>
       <path id="DejaVuSans-65" d="M 3597 1894 
L 3597 1613 
L 953 1613 
Q 991 1019 1311 708 
Q 1631 397 2203 397 
Q 2534 397 2845 478 
Q 3156 559 3463 722 
L 3463 178 
Q 3153 47 2828 -22 
Q 2503 -91 2169 -91 
Q 1331 -91 842 396 
Q 353 884 353 1716 
Q 353 2575 817 3079 
Q 1281 3584 2069 3584 
Q 2775 3584 3186 3129 
Q 3597 2675 3597 1894 
z
M 3022 2063 
Q 3016 2534 2758 2815 
Q 2500 3097 2075 3097 
Q 1594 3097 1305 2825 
Q 1016 2553 972 2059 
L 3022 2063 
z
" transform="scale(0.015625)"/>
       <path id="DejaVuSans-70" d="M 1159 525 
L 1159 -1331 
L 581 -1331 
L 581 3500 
L 1159 3500 
L 1159 2969 
Q 1341 3281 1617 3432 
Q 1894 3584 2278 3584 
Q 2916 3584 3314 3078 
Q 3713 2572 3713 1747 
Q 3713 922 3314 415 
Q 2916 -91 2278 -91 
Q 1894 -91 1617 61 
Q 1341 213 1159 525 
z
M 3116 1747 
Q 3116 2381 2855 2742 
Q 2594 3103 2138 3103 
Q 1681 3103 1420 2742 
Q 1159 2381 1159 1747 
Q 1159 1113 1420 752 
Q 1681 391 2138 391 
Q 2594 391 2855 752 
Q 3116 1113 3116 1747 
z
" transform="scale(0.015625)"/>
      </defs>
      <use xlink:href="#DejaVuSans-74"/>
      <use xlink:href="#DejaVuSans-72" transform="translate(39.208984 0)"/>
      <use xlink:href="#DejaVuSans-61" transform="translate(80.322266 0)"/>
      <use xlink:href="#DejaVuSans-69" transform="translate(141.601562 0)"/>
      <use xlink:href="#DejaVuSans-6e" transform="translate(169.384766 0)"/>
      <use xlink:href="#DejaVuSans-69" transform="translate(232.763672 0)"/>
      <use xlink:href="#DejaVuSans-6e" transform="translate(260.546875 0)"/>
      <use xlink:href="#DejaVuSans-67" transform="translate(323.925781 0)"/>
      <use xlink:href="#DejaVuSans-20" transform="translate(387.402344 0)"/>
      <use xlink:href="#DejaVuSans-73" transform="translate(419.189453 0)"/>
      <use xlink:href="#DejaVuSans-74" transform="translate(471.289062 0)"/>
      <use xlink:href="#DejaVuSans-65" transform="translate(510.498047 0)"/>
      <use xlink:href="#DejaVuSans-70" transform="translate(572.021484 0)"/>
     </g>
    </g>
   </g>
   <g id="matplotlib.axis_2">
    <g id="ytick_1">
     <g id="line2d_7">
      <defs>
       <path id="m3c3e649a76" d="M 0 0 
L -3.5 0 
" style="stroke: #000000; stroke-width: 0.8"/>
      </defs>
      <g>
       <use xlink:href="#m3c3e649a76" x="43.78125" y="254.647018" style="stroke: #000000; stroke-width: 0.8"/>
      </g>
     </g>
     <g id="text_8">
      <!-- 0.5 -->
      <g transform="translate(20.878125 258.446236) scale(0.1 -0.1)">
       <defs>
        <path id="DejaVuSans-2e" d="M 684 794 
L 1344 794 
L 1344 0 
L 684 0 
L 684 794 
z
" transform="scale(0.015625)"/>
        <path id="DejaVuSans-35" d="M 691 4666 
L 3169 4666 
L 3169 4134 
L 1269 4134 
L 1269 2991 
Q 1406 3038 1543 3061 
Q 1681 3084 1819 3084 
Q 2600 3084 3056 2656 
Q 3513 2228 3513 1497 
Q 3513 744 3044 326 
Q 2575 -91 1722 -91 
Q 1428 -91 1123 -41 
Q 819 9 494 109 
L 494 744 
Q 775 591 1075 516 
Q 1375 441 1709 441 
Q 2250 441 2565 725 
Q 2881 1009 2881 1497 
Q 2881 1984 2565 2268 
Q 2250 2553 1709 2553 
Q 1456 2553 1204 2497 
Q 953 2441 691 2322 
L 691 4666 
z
" transform="scale(0.015625)"/>
       </defs>
       <use xlink:href="#DejaVuSans-30"/>
       <use xlink:href="#DejaVuSans-2e" transform="translate(63.623047 0)"/>
       <use xlink:href="#DejaVuSans-35" transform="translate(95.410156 0)"/>
      </g>
     </g>
    </g>
    <g id="ytick_2">
     <g id="line2d_8">
      <g>
       <use xlink:href="#m3c3e649a76" x="43.78125" y="207.061053" style="stroke: #000000; stroke-width: 0.8"/>
      </g>
     </g>
     <g id="text_9">
      <!-- 0.6 -->
      <g transform="translate(20.878125 210.860271) scale(0.1 -0.1)">
       <use xlink:href="#DejaVuSans-30"/>
       <use xlink:href="#DejaVuSans-2e" transform="translate(63.623047 0)"/>
       <use xlink:href="#DejaVuSans-36" transform="translate(95.410156 0)"/>
      </g>
     </g>
    </g>
    <g id="ytick_3">
     <g id="line2d_9">
      <g>
       <use xlink:href="#m3c3e649a76" x="43.78125" y="159.475088" style="stroke: #000000; stroke-width: 0.8"/>
      </g>
     </g>
     <g id="text_10">
      <!-- 0.7 -->
      <g transform="translate(20.878125 163.274306) scale(0.1 -0.1)">
       <defs>
        <path id="DejaVuSans-37" d="M 525 4666 
L 3525 4666 
L 3525 4397 
L 1831 0 
L 1172 0 
L 2766 4134 
L 525 4134 
L 525 4666 
z
" transform="scale(0.015625)"/>
       </defs>
       <use xlink:href="#DejaVuSans-30"/>
       <use xlink:href="#DejaVuSans-2e" transform="translate(63.623047 0)"/>
       <use xlink:href="#DejaVuSans-37" transform="translate(95.410156 0)"/>
      </g>
     </g>
    </g>
    <g id="ytick_4">
     <g id="line2d_10">
      <g>
       <use xlink:href="#m3c3e649a76" x="43.78125" y="111.889123" style="stroke: #000000; stroke-width: 0.8"/>
      </g>
     </g>
     <g id="text_11">
      <!-- 0.8 -->
      <g transform="translate(20.878125 115.688342) scale(0.1 -0.1)">
       <use xlink:href="#DejaVuSans-30"/>
       <use xlink:href="#DejaVuSans-2e" transform="translate(63.623047 0)"/>
       <use xlink:href="#DejaVuSans-38" transform="translate(95.410156 0)"/>
      </g>
     </g>
    </g>
    <g id="ytick_5">
     <g id="line2d_11">
      <g>
       <use xlink:href="#m3c3e649a76" x="43.78125" y="64.303158" style="stroke: #000000; stroke-width: 0.8"/>
      </g>
     </g>
     <g id="text_12">
      <!-- 0.9 -->
      <g transform="translate(20.878125 68.102377) scale(0.1 -0.1)">
       <defs>
        <path id="DejaVuSans-39" d="M 703 97 
L 703 672 
Q 941 559 1184 500 
Q 1428 441 1663 441 
Q 2288 441 2617 861 
Q 2947 1281 2994 2138 
Q 2813 1869 2534 1725 
Q 2256 1581 1919 1581 
Q 1219 1581 811 2004 
Q 403 2428 403 3163 
Q 403 3881 828 4315 
Q 1253 4750 1959 4750 
Q 2769 4750 3195 4129 
Q 3622 3509 3622 2328 
Q 3622 1225 3098 567 
Q 2575 -91 1691 -91 
Q 1453 -91 1209 -44 
Q 966 3 703 97 
z
M 1959 2075 
Q 2384 2075 2632 2365 
Q 2881 2656 2881 3163 
Q 2881 3666 2632 3958 
Q 2384 4250 1959 4250 
Q 1534 4250 1286 3958 
Q 1038 3666 1038 3163 
Q 1038 2656 1286 2365 
Q 1534 2075 1959 2075 
z
" transform="scale(0.015625)"/>
       </defs>
       <use xlink:href="#DejaVuSans-30"/>
       <use xlink:href="#DejaVuSans-2e" transform="translate(63.623047 0)"/>
       <use xlink:href="#DejaVuSans-39" transform="translate(95.410156 0)"/>
      </g>
     </g>
    </g>
    <g id="ytick_6">
     <g id="line2d_12">
      <g>
       <use xlink:href="#m3c3e649a76" x="43.78125" y="16.717193" style="stroke: #000000; stroke-width: 0.8"/>
      </g>
     </g>
     <g id="text_13">
      <!-- 1.0 -->
      <g transform="translate(20.878125 20.516412) scale(0.1 -0.1)">
       <use xlink:href="#DejaVuSans-31"/>
       <use xlink:href="#DejaVuSans-2e" transform="translate(63.623047 0)"/>
       <use xlink:href="#DejaVuSans-30" transform="translate(95.410156 0)"/>
      </g>
     </g>
    </g>
    <g id="text_14">
     <!-- accuracy (held-out) -->
     <g transform="translate(14.798438 191.764531) rotate(-90) scale(0.1 -0.1)">
      <defs>
       <path id="DejaVuSans-63" d="M 3122 3366 
L 3122 2828 
Q 2878 2963 2633 3030 
Q 2388 3097 2138 3097 
Q 1578 3097 1268 2742 
Q 959 2388 959 1747 
Q 959 1106 1268 751 
Q 1578 397 2138 397 
Q 2388 397 2633 464 
Q 2878 531 3122 666 
L 3122 134 
Q 2881 22 2623 -34 
Q 2366 -91 2075 -91 
Q 1284 -91 818 406 
Q 353 903 353 1747 
Q 353 2603 823 3093 
Q 1294 3584 2113 3584 
Q 2378 3584 2631 3529 
Q 2884 3475 3122 3366 
z
" transform="scale(0.015625)"/>
       <path id="DejaVuSans-75" d="M 544 1381 
L 544 3500 
L 1119 3500 
L 1119 1403 
Q 1119 906 1312 657 
Q 1506 409 1894 409 
Q 2359 409 2629 706 
Q 2900 1003 2900 1516 
L 2900 3500 
L 3475 3500 
L 3475 0 
L 2900 0 
L 2900 538 
Q 2691 219 2414 64 
Q 2138 -91 1772 -91 
Q 1169 -91 856 284 
Q 544 659 544 1381 
z
M 1991 3584 
L 1991 3584 
z
" transform="scale(0.015625)"/>
       <path id="DejaVuSans-79" d="M 2059 -325 
Q 1816 -950 1584 -1140 
Q 1353 -1331 966 -1331 
L 506 -1331 
L 506 -850 
L 844 -850 
Q 1081 -850 1212 -737 
Q 1344 -625 1503 -206 
L 1606 56 
L 191 3500 
L 800 3500 
L 1894 763 
L 2988 3500 
L 3597 3500 
L 2059 -325 
z
" transform="scale(0.015625)"/>
       <path id="DejaVuSans-28" d="M 1984 4856 
Q 1566 4138 1362 3434 
Q 1159 2731 1159 2009 
Q 1159 1288 1364 580 
Q 1569 -128 1984 -844 
L 1484 -844 
Q 1016 -109 783 600 
Q 550 1309 550 2009 
Q 550 2706 781 3412 
Q 1013 4119 1484 4856 
L 1984 4856 
z
" transform="scale(0.015625)"/>
       <path id="DejaVuSans-68" d="M 3513 2113 
L 3513 0 
L 2938 0 
L 2938 2094 
Q 2938 2591 2744 2837 
Q 2550 3084 2163 3084 
Q 1697 3084 1428 2787 
Q 1159 2491 1159 1978 
L 1159 0 
L 581 0 
L 581 4863 
L 1159 4863 
L 1159 2956 
Q 1366 3272 1645 3428 
Q 1925 3584 2291 3584 
Q 2894 3584 3203 3211 
Q 3513 2838 3513 2113 
z
" transform="scale(0.015625)"/>
       <path id="DejaVuSans-6c" d="M 603 4863 
L 1178 4863 
L 1178 0 
L 603 0 
L 603 4863 
z
" transform="scale(0.015625)"/>
       <path id="DejaVuSans-64" d="M 2906 2969 
L 2906 4863 
L 3481 4863 
L 3481 0 
L 2906 0 
L 2906 525 
Q 2725 213 2448 61 
Q 2172 -91 1784 -91 
Q 1150 -91 751 415 
Q 353 922 353 1747 
Q 353 2572 751 3078 
Q 1150 3584 1784 3584 
Q 2172 3584 2448 3432 
Q 2725 3281 2906 2969 
z
M 947 1747 
Q 947 1113 1208 752 
Q 1469 391 1925 391 
Q 2381 391 2643 752 
Q 2906 1113 2906 1747 
Q 2906 2381 2643 2742 
Q 2381 3103 1925 3103 
Q 1469 3103 1208 2742 
Q 947 2381 947 1747 
z
" transform="scale(0.015625)"/>
       <path id="DejaVuSans-2d" d="M 313 2009 
L 1997 2009 
L 1997 1497 
L 313 1497 
L 313 2009 
z
" transform="scale(0.015625)"/>
       <path id="DejaVuSans-6f" d="M 1959 3097 
Q 1497 3097 1228 2736 
Q 959 2375 959 1747 
Q 959 1119 1226 758 
Q 1494 397 1959 397 
Q 2419 397 2687 759 
Q 2956 1122 2956 1747 
Q 2956 2369 2687 2733 
Q 2419 3097 1959 3097 
z
M 1959 3584 
Q 2709 3584 3137 3096 
Q 3566 2609 3566 1747 
Q 3566 888 3137 398 
Q 2709 -91 1959 -91 
Q 1206 -91 779 398 
Q 353 888 353 1747 
Q 353 2609 779 3096 
Q 1206 3584 1959 3584 
z
" transform="scale(0.015625)"/>
       <path id="DejaVuSans-29" d="M 513 4856 
L 1013 4856 
Q 1481 4119 1714 3412 
Q 1947 2706 1947 2009 
Q 1947 1309 1714 600 
Q 1481 -109 1013 -844 
L 513 -844 
Q 928 -128 1133 580 
Q 1338 1288 1338 2009 
Q 1338 2731 1133 3434 
Q 928 4138 513 4856 
z
" transform="scale(0.015625)"/>
      </defs>
      <use xlink:href="#DejaVuSans-61"/>
      <use xlink:href="#DejaVuSans-63" transform="translate(61.279297 0)"/>
      <use xlink:href="#DejaVuSans-63" transform="translate(116.259766 0)"/>
      <use xlink:href="#DejaVuSans-75" transform="translate(171.240234 0)"/>
      <use xlink:href="#DejaVuSans-72" transform="translate(234.619141 0)"/>
      <use xlink:href="#DejaVuSans-61" transform="translate(275.732422 0)"/>
      <use xlink:href="#DejaVuSans-63" transform="translate(337.011719 0)"/>
      <use xlink:href="#DejaVuSans-79" transform="translate(391.992188 0)"/>
      <use xlink:href="#DejaVuSans-20" transform="translate(451.171875 0)"/>
      <use xlink:href="#DejaVuSans-28" transform="translate(482.958984 0)"/>
      <use xlink:href="#DejaVuSans-68" transform="translate(521.972656 0)"/>
      <use xlink:href="#DejaVuSans-65" transform="translate(585.351562 0)"/>
      <use xlink:href="#DejaVuSans-6c" transform="translate(646.875 0)"/>
      <use xlink:href="#DejaVuSans-64" transform="translate(674.658203 0)"/>
      <use xlink:href="#DejaVuSans-2d" transform="translate(738.134766 0)"/>
      <use xlink:href="#DejaVuSans-6f" transform="translate(776.09375 0)"/>
      <use xlink:href="#DejaVuSans-75" transform="translate(837.275391 0)"/>
      <use xlink:href="#DejaVuSans-74" transform="translate(900.654297 0)"/>
      <use xlink:href="#DejaVuSans-29" transform="translate(939.863281 0)"/>
     </g>
    </g>
   </g>
   <g id="line2d_13">
    <path d="M 43.78125 252.352528 
L 87.06475 45.441875 
L 130.34825 17.908004 
L 173.63175 17.210944 
L 216.91525 17.239988 
L 260.19875 16.804325 
L 303.48225 16.775281 
L 346.76575 16.804325 
L 390.04925 16.775281 
L 433.33275 16.746237 
L 476.61625 16.920502 
L 497.54125 16.822214 
" clip-path="url(#pf78a9eb59a)" style="fill: none; stroke: #000000; stroke-width: 1.5; stroke-linecap: square"/>
    <defs>
     <path id="mb5b9b684fe" d="M 0 1.5 
C 0.397805 1.5 0.77937 1.341951 1.06066 1.06066 
C 1.341951 0.77937 1.5 0.397805 1.5 0 
C 1.5 -0.397805 1.341951 -0.77937 1.06066 -1.06066 
C 0.77937 -1.341951 0.397805 -1.5 0 -1.5 
C -0.397805 -1.5 -0.77937 -1.341951 -1.06066 -1.06066 
C -1.341951 -0.77937 -1.5 -0.397805 -1.5 0 
C -1.5 0.397805 -1.341951 0.77937 -1.06066 1.06066 
C -0.77937 1.341951 -0.397805 1.5 0 1.5 
z
" style="stroke: #000000"/>
    </defs>
    <g clip-path="url(#pf78a9eb59a)">
     <use xlink:href="#mb5b9b684fe" x="43.78125" y="252.352528" style="stroke: #000000"/>
     <use xlink:href="#mb5b9b684fe" x="87.06475" y="45.441875" style="stroke: #000000"/>
     <use xlink:href="#mb5b9b684fe" x="130.34825" y="17.908004" style="stroke: #000000"/>
     <use xlink:href="#mb5b9b684fe" x="173.63175" y="17.210944" style="stroke: #000000"/>
     <use xlink:href="#mb5b9b684fe" x="216.91525" y="17.239988" style="stroke: #000000"/>
     <use xlink:href="#mb5b9b684fe" x="260.19875" y="16.804325" style="stroke: #000000"/>
     <use xlink:href="#mb5b9b684fe" x="303.48225" y="16.775281" style="stroke: #000000"/>
     <use xlink:href="#mb5b9b684fe" x="346.76575" y="16.804325" style="stroke: #000000"/>
     <use xlink:href="#mb5b9b684fe" x="390.04925" y="16.775281" style="stroke: #000000"/>
     <use xlink:href="#mb5b9b684fe" x="433.33275" y="16.746237" style="stroke: #000000"/>
     <use xlink:href="#mb5b9b684fe" x="476.61625" y="16.920502" style="stroke: #000000"/>
     <use xlink:href="#mb5b9b684fe" x="519.89975" y="16.717193" style="stroke: #000000"/>
     <use xlink:href="#mb5b9b684fe" x="563.18325" y="16.775281" style="stroke: #000000"/>
     <use xlink:href="#mb5b9b684fe" x="606.46675" y="16.83337" style="stroke: #000000"/>
     <use xlink:href="#mb5b9b684fe" x="649.75025" y="16.775281" style="stroke: #000000"/>
     <use xlink:href="#mb5b9b684fe" x="693.03375" y="16.746237" style="stroke: #000000"/>
     <use xlink:href="#mb5b9b684fe" x="736.31725" y="16.717193" style="stroke: #000000"/>
     <use xlink:href="#mb5b9b684fe" x="779.60075" y="16.746237" style="stroke: #000000"/>
     <use xlink:href="#mb5b9b684fe" x="822.88425" y="16.717193" style="stroke: #000000"/>
     <use xlink:href="#mb5b9b684fe" x="866.16775" y="16.717193" style="stroke: #000000"/>
     <use xlink:href="#mb5b9b684fe" x="909.45125" y="16.717193" style="stroke: #000000"/>
     <use xlink:href="#mb5b9b684fe" x="952.73475" y="16.920502" style="stroke: #000000"/>
     <use xlink:href="#mb5b9b684fe" x="996.01825" y="16.717193" style="stroke: #000000"/>
     <use xlink:href="#mb5b9b684fe" x="1039.30175" y="16.746237" style="stroke: #000000"/>
     <use xlink:href="#mb5b9b684fe" x="1082.58525" y="16.717193" style="stroke: #000000"/>
    </g>
   </g>
   <g id="line2d_14">
    <path d="M 43.78125 252.352528 
L 87.06475 133.271439 
L 130.34825 73.643762 
L 173.63175 58.250353 
L 216.91525 34.927886 
L 260.19875 24.820516 
L 303.48225 20.086316 
L 346.76575 18.140357 
L 390.04925 17.762783 
L 433.33275 21.248083 
L 476.61625 17.733739 
L 497.54125 17.49504 
" clip-path="url(#pf78a9eb59a)" style="fill: none; stroke: #1f77b4; stroke-width: 1.5; stroke-linecap: square"/>
    <defs>
     <path id="m092281f3ac" d="M 0 1.5 
C 0.397805 1.5 0.77937 1.341951 1.06066 1.06066 
C 1.341951 0.77937 1.5 0.397805 1.5 0 
C 1.5 -0.397805 1.341951 -0.77937 1.06066 -1.06066 
C 0.77937 -1.341951 0.397805 -1.5 0 -1.5 
C -0.397805 -1.5 -0.77937 -1.341951 -1.06066 -1.06066 
C -1.341951 -0.77937 -1.5 -0.397805 -1.5 0 
C -1.5 0.397805 -1.341951 0.77937 -1.06066 1.06066 
C -0.77937 1.341951 -0.397805 1.5 0 1.5 
z
" style="stroke: #1f77b4"/>
    </defs>
    <g clip-path="url(#pf78a9eb59a)">
     <use xlink:href="#m092281f3ac" x="43.78125" y="252.352528" style="fill: #1f77b4; stroke: #1f77b4"/>
     <use xlink:href="#m092281f3ac" x="87.06475" y="133.271439" style="fill: #1f77b4; stroke: #1f77b4"/>
     <use xlink:href="#m092281f3ac" x="130.34825" y="73.643762" style="fill: #1f77b4; stroke: #1f77b4"/>
     <use xlink:href="#m092281f3ac" x="173.63175" y="58.250353" style="fill: #1f77b4; stroke: #1f77b4"/>
     <use xlink:href="#m092281f3ac" x="216.91525" y="34.927886" style="fill: #1f77b4; stroke: #1f77b4"/>
     <use xlink:href="#m092281f3ac" x="260.19875" y="24.820516" style="fill: #1f77b4; stroke: #1f77b4"/>
     <use xlink:href="#m092281f3ac" x="303.48225" y="20.086316" style="fill: #1f77b4; stroke: #1f77b4"/>
     <use xlink:href="#m092281f3ac" x="346.76575" y="18.140357" style="fill: #1f77b4; stroke: #1f77b4"/>
     <use xlink:href="#m092281f3ac" x="390.04925" y="17.762783" style="fill: #1f77b4; stroke: #1f77b4"/>
     <use xlink:href="#m092281f3ac" x="433.33275" y="21.248083" style="fill: #1f77b4; stroke: #1f77b4"/>
     <use xlink:href="#m092281f3ac" x="476.61625" y="17.733739" style="fill: #1f77b4; stroke: #1f77b4"/>
     <use xlink:href="#m092281f3ac" x="519.89975" y="17.239988" style="fill: #1f77b4; stroke: #1f77b4"/>
     <use xlink:href="#m092281f3ac" x="563.18325" y="17.443297" style="fill: #1f77b4; stroke: #1f77b4"/>
     <use xlink:href="#m092281f3ac" x="606.46675" y="16.949546" style="fill: #1f77b4; stroke: #1f77b4"/>
     <use xlink:href="#m092281f3ac" x="649.75025" y="16.891458" style="fill: #1f77b4; stroke: #1f77b4"/>
     <use xlink:href="#m092281f3ac" x="693.03375" y="16.920502" style="fill: #1f77b4; stroke: #1f77b4"/>
     <use xlink:href="#m092281f3ac" x="736.31725" y="16.920502" style="fill: #1f77b4; stroke: #1f77b4"/>
     <use xlink:href="#m092281f3ac" x="779.60075" y="16.862414" style="fill: #1f77b4; stroke: #1f77b4"/>
     <use xlink:href="#m092281f3ac" x="822.88425" y="17.239988" style="fill: #1f77b4; stroke: #1f77b4"/>
     <use xlink:href="#m092281f3ac" x="866.16775" y="17.443297" style="fill: #1f77b4; stroke: #1f77b4"/>
     <use xlink:href="#m092281f3ac" x="909.45125" y="16.920502" style="fill: #1f77b4; stroke: #1f77b4"/>
     <use xlink:href="#m092281f3ac" x="952.73475" y="16.920502" style="fill: #1f77b4; stroke: #1f77b4"/>
     <use xlink:href="#m092281f3ac" x="996.01825" y="16.891458" style="fill: #1f77b4; stroke: #1f77b4"/>
     <use xlink:href="#m092281f3ac" x="1039.30175" y="16.78358" style="fill: #1f77b4; stroke: #1f77b4"/>
     <use xlink:href="#m092281f3ac" x="1082.58525" y="16.755919" style="fill: #1f77b4; stroke: #1f77b4"/>
     <use xlink:href="#m092281f3ac" x="1125.86875" y="16.996017" style="fill: #1f77b4; stroke: #1f77b4"/>
     <use xlink:href="#m092281f3ac" x="1169.15225" y="16.717193" style="fill: #1f77b4; stroke: #1f77b4"/>
     <use xlink:href="#m092281f3ac" x="1212.43575" y="16.717193" style="fill: #1f77b4; stroke: #1f77b4"/>
     <use xlink:href="#m092281f3ac" x="1255.71925" y="17.1819" style="fill: #1f77b4; stroke: #1f77b4"/>
    </g>
   </g>
   <g id="line2d_15">
    <path d="M 43.78125 252.352528 
L 87.06475 187.467857 
L 130.34825 155.548316 
L 173.63175 123.338334 
L 216.91525 89.559966 
L 260.19875 60.167268 
L 303.48225 38.703628 
L 346.76575 27.783021 
L 390.04925 23.571617 
L 433.33275 22.700292 
L 476.61625 20.115361 
L 497.54125 20.311936 
" clip-path="url(#pf78a9eb59a)" style="fill: none; stroke: #d62728; stroke-width: 1.5; stroke-linecap: square"/>
    <defs>
     <path id="m610daf3221" d="M 0 1.5 
C 0.397805 1.5 0.77937 1.341951 1.06066 1.06066 
C 1.341951 0.77937 1.5 0.397805 1.5 0 
C 1.5 -0.397805 1.341951 -0.77937 1.06066 -1.06066 
C 0.77937 -1.341951 0.397805 -1.5 0 -1.5 
C -0.397805 -1.5 -0.77937 -1.341951 -1.06066 -1.06066 
C -1.341951 -0.77937 -1.5 -0.397805 -1.5 0 
C -1.5 0.397805 -1.341951 0.77937 -1.06066 1.06066 
C -0.77937 1.341951 -0.397805 1.5 0 1.5 
z
" style="stroke: #d62728"/>
    </defs>
    <g clip-path="url(#pf78a9eb59a)">
     <use xlink:href="#m610daf3221" x="43.78125" y="252.352528" style="fill: #d62728; stroke: #d62728"/>
     <use xlink:href="#m610daf3221" x="87.06475" y="187.467857" style="fill: #d62728; stroke: #d62728"/>
     <use xlink:href="#m610daf3221" x="130.34825" y="155.548316" style="fill: #d62728; stroke: #d62728"/>
     <use xlink:href="#m610daf3221" x="173.63175" y="123.338334" style="fill: #d62728; stroke: #d62728"/>
     <use xlink:href="#m610daf3221" x="216.91525" y="89.559966" style="fill: #d62728; stroke: #d62728"/>
     <use xlink:href="#m610daf3221" x="260.19875" y="60.167268" style="fill: #d62728; stroke: #d62728"/>
     <use xlink:href="#m610daf3221" x="303.48225" y="38.703628" style="fill: #d62728; stroke: #d62728"/>
     <use xlink:href="#m610daf3221" x="346.76575" y="27.783021" style="fill: #d62728; stroke: #d62728"/>
     <use xlink:href="#m610daf3221" x="390.04925" y="23.571617" style="fill: #d62728; stroke: #d62728"/>
     <use xlink:href="#m610daf3221" x="433.33275" y="22.700292" style="fill: #d62728; stroke: #d62728"/>
     <use xlink:href="#m610daf3221" x="476.61625" y="20.115361" style="fill: #d62728; stroke: #d62728"/>
     <use xlink:href="#m610daf3221" x="519.89975" y="20.521979" style="fill: #d62728; stroke: #d62728"/>
     <use xlink:href="#m610daf3221" x="563.18325" y="19.214991" style="fill: #d62728; stroke: #d62728"/>
     <use xlink:href="#m610daf3221" x="606.46675" y="19.447345" style="fill: #d62728; stroke: #d62728"/>
     <use xlink:href="#m610daf3221" x="649.75025" y="18.140357" style="fill: #d62728; stroke: #d62728"/>
     <use xlink:href="#m610daf3221" x="693.03375" y="18.808373" style="fill: #d62728; stroke: #d62728"/>
     <use xlink:href="#m610daf3221" x="736.31725" y="17.53043" style="fill: #d62728; stroke: #d62728"/>
     <use xlink:href="#m610daf3221" x="779.60075" y="17.937048" style="fill: #d62728; stroke: #d62728"/>
     <use xlink:href="#m610daf3221" x="822.88425" y="17.791827" style="fill: #d62728; stroke: #d62728"/>
     <use xlink:href="#m610daf3221" x="866.16775" y="17.501386" style="fill: #d62728; stroke: #d62728"/>
     <use xlink:href="#m610daf3221" x="909.45125" y="17.791827" style="fill: #d62728; stroke: #d62728"/>
     <use xlink:href="#m610daf3221" x="952.73475" y="17.239988" style="fill: #d62728; stroke: #d62728"/>
     <use xlink:href="#m610daf3221" x="996.01825" y="17.327121" style="fill: #d62728; stroke: #d62728"/>
     <use xlink:href="#m610daf3221" x="1039.30175" y="23.542572" style="fill: #d62728; stroke: #d62728"/>
     <use xlink:href="#m610daf3221" x="1082.58525" y="17.472341" style="fill: #d62728; stroke: #d62728"/>
     <use xlink:href="#m610daf3221" x="1125.86875" y="17.148706" style="fill: #d62728; stroke: #d62728"/>
     <use xlink:href="#m610daf3221" x="1169.15225" y="17.08232" style="fill: #d62728; stroke: #d62728"/>
     <use xlink:href="#m610daf3221" x="1212.43575" y="17.143174" style="fill: #d62728; stroke: #d62728"/>
     <use xlink:href="#m610daf3221" x="1255.71925" y="17.298076" style="fill: #d62728; stroke: #d62728"/>
     <use xlink:href="#m610daf3221" x="1299.00275" y="17.1819" style="fill: #d62728; stroke: #d62728"/>
    </g>
   </g>
   <g id="line2d_16">
    <path d="M 43.78125 252.352528 
L 87.06475 204.429651 
L 130.34825 165.278112 
L 173.63175 121.886125 
L 216.91525 88.543421 
L 260.19875 49.65328 
L 303.48225 36.55436 
L 346.76575 27.724933 
L 390.04925 23.426396 
L 433.33275 21.538525 
L 476.61625 20.783377 
L 497.54125 20.558718 
" clip-path="url(#pf78a9eb59a)" style="fill: none; stroke: #ff7f0e; stroke-width: 1.5; stroke-linecap: square"/>
    <defs>
     <path id="m6c6335b248" d="M 0 1.5 
C 0.397805 1.5 0.77937 1.341951 1.06066 1.06066 
C 1.341951 0.77937 1.5 0.397805 1.5 0 
C 1.5 -0.397805 1.341951 -0.77937 1.06066 -1.06066 
C 0.77937 -1.341951 0.397805 -1.5 0 -1.5 
C -0.397805 -1.5 -0.77937 -1.341951 -1.06066 -1.06066 
C -1.341951 -0.77937 -1.5 -0.397805 -1.5 0 
C -1.5 0.397805 -1.341951 0.77937 -1.06066 1.06066 
C -0.77937 1.341951 -0.397805 1.5 0 1.5 
z
" style="stroke: #ff7f0e"/>
    </defs>
    <g clip-path="url(#pf78a9eb59a)">
     <use xlink:href="#m6c6335b248" x="43.78125" y="252.352528" style="fill: #ff7f0e; stroke: #ff7f0e"/>
     <use xlink:href="#m6c6335b248" x="87.06475" y="204.429651" style="fill: #ff7f0e; stroke: #ff7f0e"/>
     <use xlink:href="#m6c6335b248" x="130.34825" y="165.278112" style="fill: #ff7f0e; stroke: #ff7f0e"/>
     <use xlink:href="#m6c6335b248" x="173.63175" y="121.886125" style="fill: #ff7f0e; stroke: #ff7f0e"/>
     <use xlink:href="#m6c6335b248" x="216.91525" y="88.543421" style="fill: #ff7f0e; stroke: #ff7f0e"/>
     <use xlink:href="#m6c6335b248" x="260.19875" y="49.65328" style="fill: #ff7f0e; stroke: #ff7f0e"/>
     <use xlink:href="#m6c6335b248" x="303.48225" y="36.55436" style="fill: #ff7f0e; stroke: #ff7f0e"/>
     <use xlink:href="#m6c6335b248" x="346.76575" y="27.724933" style="fill: #ff7f0e; stroke: #ff7f0e"/>
     <use xlink:href="#m6c6335b248" x="390.04925" y="23.426396" style="fill: #ff7f0e; stroke: #ff7f0e"/>
     <use xlink:href="#m6c6335b248" x="433.33275" y="21.538525" style="fill: #ff7f0e; stroke: #ff7f0e"/>
     <use xlink:href="#m6c6335b248" x="476.61625" y="20.783377" style="fill: #ff7f0e; stroke: #ff7f0e"/>
     <use xlink:href="#m6c6335b248" x="519.89975" y="20.31867" style="fill: #ff7f0e; stroke: #ff7f0e"/>
     <use xlink:href="#m6c6335b248" x="563.18325" y="19.737786" style="fill: #ff7f0e; stroke: #ff7f0e"/>
     <use xlink:href="#m6c6335b248" x="606.46675" y="19.563521" style="fill: #ff7f0e; stroke: #ff7f0e"/>
     <use xlink:href="#m6c6335b248" x="649.75025" y="19.040726" style="fill: #ff7f0e; stroke: #ff7f0e"/>
     <use xlink:href="#m6c6335b248" x="693.03375" y="19.011682" style="fill: #ff7f0e; stroke: #ff7f0e"/>
     <use xlink:href="#m6c6335b248" x="736.31725" y="18.750285" style="fill: #ff7f0e; stroke: #ff7f0e"/>
     <use xlink:href="#m6c6335b248" x="779.60075" y="18.517931" style="fill: #ff7f0e; stroke: #ff7f0e"/>
     <use xlink:href="#m6c6335b248" x="822.88425" y="18.285578" style="fill: #ff7f0e; stroke: #ff7f0e"/>
     <use xlink:href="#m6c6335b248" x="866.16775" y="18.256534" style="fill: #ff7f0e; stroke: #ff7f0e"/>
     <use xlink:href="#m6c6335b248" x="909.45125" y="17.966092" style="fill: #ff7f0e; stroke: #ff7f0e"/>
     <use xlink:href="#m6c6335b248" x="952.73475" y="17.849916" style="fill: #ff7f0e; stroke: #ff7f0e"/>
     <use xlink:href="#m6c6335b248" x="996.01825" y="17.87896" style="fill: #ff7f0e; stroke: #ff7f0e"/>
     <use xlink:href="#m6c6335b248" x="1039.30175" y="17.791827" style="fill: #ff7f0e; stroke: #ff7f0e"/>
     <use xlink:href="#m6c6335b248" x="1082.58525" y="18.024181" style="fill: #ff7f0e; stroke: #ff7f0e"/>
     <use xlink:href="#m6c6335b248" x="1125.86875" y="21.219039" style="fill: #ff7f0e; stroke: #ff7f0e"/>
     <use xlink:href="#m6c6335b248" x="1169.15225" y="21.36426" style="fill: #ff7f0e; stroke: #ff7f0e"/>
     <use xlink:href="#m6c6335b248" x="1212.43575" y="17.472341" style="fill: #ff7f0e; stroke: #ff7f0e"/>
     <use xlink:href="#m6c6335b248" x="1255.71925" y="17.956411" style="fill: #ff7f0e; stroke: #ff7f0e"/>
     <use xlink:href="#m6c6335b248" x="1299.00275" y="17.569155" style="fill: #ff7f0e; stroke: #ff7f0e"/>
     <use xlink:href="#m6c6335b248" x="1342.28625" y="18.22749" style="fill: #ff7f0e; stroke: #ff7f0e"/>
     <use xlink:href="#m6c6335b248" x="1385.56975" y="17.87896" style="fill: #ff7f0e; stroke: #ff7f0e"/>
     <use xlink:href="#m6c6335b248" x="1428.85325" y="17.87896" style="fill: #ff7f0e; stroke: #ff7f0e"/>
     <use xlink:href="#m6c6335b248" x="1472.13675" y="17.762783" style="fill: #ff7f0e; stroke: #ff7f0e"/>
     <use xlink:href="#m6c6335b248" x="1515.42025" y="77.477593" style="fill: #ff7f0e; stroke: #ff7f0e"/>
     <use xlink:href="#m6c6335b248" x="1558.70375" y="17.646606" style="fill: #ff7f0e; stroke: #ff7f0e"/>
     <use xlink:href="#m6c6335b248" x="1601.98725" y="17.1819" style="fill: #ff7f0e; stroke: #ff7f0e"/>
     <use xlink:href="#m6c6335b248" x="1645.27075" y="17.1819" style="fill: #ff7f0e; stroke: #ff7f0e"/>
    </g>
   </g>
   <g id="line2d_17">
    <path d="M 43.78125 254.647018 
L 476.61625 254.647018 
" clip-path="url(#pf78a9eb59a)" style="fill: none; stroke-dasharray: 5.55,2.4; stroke-dashoffset: 0; stroke: #808080; stroke-width: 1.5"/>
   </g>
   <g id="patch_3">
    <path d="M 43.78125 278.44 
L 43.78125 7.2 
" style="fill: none; stroke: #000000; stroke-width: 0.8; stroke-linejoin: miter; stroke-linecap: square"/>
   </g>
   <g id="patch_4">
    <path d="M 476.61625 278.44 
L 476.61625 7.2 
" style="fill: none; stroke: #000000; stroke-width: 0.8; stroke-linejoin: miter; stroke-linecap: square"/>
   </g>
   <g id="patch_5">
    <path d="M 43.78125 278.44 
L 476.61625 278.44 
" style="fill: none; stroke: #000000; stroke-width: 0.8; stroke-linejoin: miter; stroke-linecap: square"/>
   </g>
   <g id="patch_6">
    <path d="M 43.78125 7.2 
L 476.61625 7.2 
" style="fill: none; stroke: #000000; stroke-width: 0.8; stroke-linejoin: miter; stroke-linecap: square"/>
   </g>
   <g id="legend_1">
    <g id="patch_7">
     <path d="M 375.785 173.37625 
L 471.01625 173.37625 
Q 472.61625 173.37625 472.61625 171.77625 
L 472.61625 113.86375 
Q 472.61625 112.26375 471.01625 112.26375 
L 375.785 112.26375 
Q 374.185 112.26375 374.185 113.86375 
L 374.185 171.77625 
Q 374.185 173.37625 375.785 173.37625 
z
" style="fill: #ffffff; opacity: 0.8; stroke: #cccccc; stroke-linejoin: miter"/>
    </g>
    <g id="line2d_18">
     <path d="M 377.385 118.7425 
L 385.385 118.7425 
L 393.385 118.7425 
" style="fill: none; stroke: #000000; stroke-width: 1.5; stroke-linecap: square"/>
     <g>
      <use xlink:href="#mb5b9b684fe" x="385.385" y="118.7425" style="stroke: #000000"/>
     </g>
    </g>
    <g id="text_15">
     <!-- BPTT -->
     <g transform="translate(399.785 121.5425) scale(0.08 -0.08)">
      <defs>
       <path id="DejaVuSans-42" d="M 1259 2228 
L 1259 519 
L 2272 519 
Q 2781 519 3026 730 
Q 3272 941 3272 1375 
Q 3272 1813 3026 2020 
Q 2781 2228 2272 2228 
L 1259 2228 
z
M 1259 4147 
L 1259 2741 
L 2194 2741 
Q 2656 2741 2882 2914 
Q 3109 3088 3109 3444 
Q 3109 3797 2882 3972 
Q 2656 4147 2194 4147 
L 1259 4147 
z
M 628 4666 
L 2241 4666 
Q 2963 4666 3353 4366 
Q 3744 4066 3744 3513 
Q 3744 3084 3544 2831 
Q 3344 2578 2956 2516 
Q 3422 2416 3680 2098 
Q 3938 1781 3938 1306 
Q 3938 681 3513 340 
Q 3088 0 2303 0 
L 628 0 
L 628 4666 
z
" transform="scale(0.015625)"/>
       <path id="DejaVuSans-50" d="M 1259 4147 
L 1259 2394 
L 2053 2394 
Q 2494 2394 2734 2622 
Q 2975 2850 2975 3272 
Q 2975 3691 2734 3919 
Q 2494 4147 2053 4147 
L 1259 4147 
z
M 628 4666 
L 2053 4666 
Q 2838 4666 3239 4311 
Q 3641 3956 3641 3272 
Q 3641 2581 3239 2228 
Q 2838 1875 2053 1875 
L 1259 1875 
L 1259 0 
L 628 0 
L 628 4666 
z
" transform="scale(0.015625)"/>
       <path id="DejaVuSans-54" d="M -19 4666 
L 3928 4666 
L 3928 4134 
L 2272 4134 
L 2272 0 
L 1638 0 
L 1638 4134 
L -19 4134 
L -19 4666 
z
" transform="scale(0.015625)"/>
      </defs>
      <use xlink:href="#DejaVuSans-42"/>
      <use xlink:href="#DejaVuSans-50" transform="translate(68.603516 0)"/>
      <use xlink:href="#DejaVuSans-54" transform="translate(128.90625 0)"/>
      <use xlink:href="#DejaVuSans-54" transform="translate(188.240234 0)"/>
     </g>
    </g>
    <g id="line2d_19">
     <path d="M 377.385 130.485 
L 385.385 130.485 
L 393.385 130.485 
" style="fill: none; stroke: #1f77b4; stroke-width: 1.5; stroke-linecap: square"/>
     <g>
      <use xlink:href="#m092281f3ac" x="385.385" y="130.485" style="fill: #1f77b4; stroke: #1f77b4"/>
     </g>
    </g>
    <g id="text_16">
     <!-- deep e-prop (full) -->
     <g transform="translate(399.785 133.285) scale(0.08 -0.08)">
      <defs>
       <path id="DejaVuSans-66" d="M 2375 4863 
L 2375 4384 
L 1825 4384 
Q 1516 4384 1395 4259 
Q 1275 4134 1275 3809 
L 1275 3500 
L 2222 3500 
L 2222 3053 
L 1275 3053 
L 1275 0 
L 697 0 
L 697 3053 
L 147 3053 
L 147 3500 
L 697 3500 
L 697 3744 
Q 697 4328 969 4595 
Q 1241 4863 1831 4863 
L 2375 4863 
z
" transform="scale(0.015625)"/>
      </defs>
      <use xlink:href="#DejaVuSans-64"/>
      <use xlink:href="#DejaVuSans-65" transform="translate(63.476562 0)"/>
      <use xlink:href="#DejaVuSans-65" transform="translate(125 0)"/>
      <use xlink:href="#DejaVuSans-70" transform="translate(186.523438 0)"/>
      <use xlink:href="#DejaVuSans-20" transform="translate(250 0)"/>
      <use xlink:href="#DejaVuSans-65" transform="translate(281.787109 0)"/>
      <use xlink:href="#DejaVuSans-2d" transform="translate(343.310547 0)"/>
      <use xlink:href="#DejaVuSans-70" transform="translate(379.394531 0)"/>
      <use xlink:href="#DejaVuSans-72" transform="translate(442.871094 0)"/>
      <use xlink:href="#DejaVuSans-6f" transform="translate(481.734375 0)"/>
      <use xlink:href="#DejaVuSans-70" transform="translate(542.916016 0)"/>
      <use xlink:href="#DejaVuSans-20" transform="translate(606.392578 0)"/>
      <use xlink:href="#DejaVuSans-28" transform="translate(638.179688 0)"/>
      <use xlink:href="#DejaVuSans-66" transform="translate(677.193359 0)"/>
      <use xlink:href="#DejaVuSans-75" transform="translate(712.398438 0)"/>
      <use xlink:href="#DejaVuSans-6c" transform="translate(775.777344 0)"/>
      <use xlink:href="#DejaVuSans-6c" transform="translate(803.560547 0)"/>
      <use xlink:href="#DejaVuSans-29" transform="translate(831.34375 0)"/>
     </g>
    </g>
    <g id="line2d_20">
     <path d="M 377.385 142.2275 
L 385.385 142.2275 
L 393.385 142.2275 
" style="fill: none; stroke: #d62728; stroke-width: 1.5; stroke-linecap: square"/>
     <g>
      <use xlink:href="#m610daf3221" x="385.385" y="142.2275" style="fill: #d62728; stroke: #d62728"/>
     </g>
    </g>
    <g id="text_17">
     <!-- ablate temporal -->
     <g transform="translate(399.785 145.0275) scale(0.08 -0.08)">
      <defs>
       <path id="DejaVuSans-62" d="M 3116 1747 
Q 3116 2381 2855 2742 
Q 2594 3103 2138 3103 
Q 1681 3103 1420 2742 
Q 1159 2381 1159 1747 
Q 1159 1113 1420 752 
Q 1681 391 2138 391 
Q 2594 391 2855 752 
Q 3116 1113 3116 1747 
z
M 1159 2969 
Q 1341 3281 1617 3432 
Q 1894 3584 2278 3584 
Q 2916 3584 3314 3078 
Q 3713 2572 3713 1747 
Q 3713 922 3314 415 
Q 2916 -91 2278 -91 
Q 1894 -91 1617 61 
Q 1341 213 1159 525 
L 1159 0 
L 581 0 
L 581 4863 
L 1159 4863 
L 1159 2969 
z
" transform="scale(0.015625)"/>
       <path id="DejaVuSans-6d" d="M 3328 2828 
Q 3544 3216 3844 3400 
Q 4144 3584 4550 3584 
Q 5097 3584 5394 3201 
Q 5691 2819 5691 2113 
L 5691 0 
L 5113 0 
L 5113 2094 
Q 5113 2597 4934 2840 
Q 4756 3084 4391 3084 
Q 3944 3084 3684 2787 
Q 3425 2491 3425 1978 
L 3425 0 
L 2847 0 
L 2847 2094 
Q 2847 2600 2669 2842 
Q 2491 3084 2119 3084 
Q 1678 3084 1418 2786 
Q 1159 2488 1159 1978 
L 1159 0 
L 581 0 
L 581 3500 
L 1159 3500 
L 1159 2956 
Q 1356 3278 1631 3431 
Q 1906 3584 2284 3584 
Q 2666 3584 2933 3390 
Q 3200 3197 3328 2828 
z
" transform="scale(0.015625)"/>
      </defs>
      <use xlink:href="#DejaVuSans-61"/>
      <use xlink:href="#DejaVuSans-62" transform="translate(61.279297 0)"/>
      <use xlink:href="#DejaVuSans-6c" transform="translate(124.755859 0)"/>
      <use xlink:href="#DejaVuSans-61" transform="translate(152.539062 0)"/>
      <use xlink:href="#DejaVuSans-74" transform="translate(213.818359 0)"/>
      <use xlink:href="#DejaVuSans-65" transform="translate(253.027344 0)"/>
      <use xlink:href="#DejaVuSans-20" transform="translate(314.550781 0)"/>
      <use xlink:href="#DejaVuSans-74" transform="translate(346.337891 0)"/>
      <use xlink:href="#DejaVuSans-65" transform="translate(385.546875 0)"/>
      <use xlink:href="#DejaVuSans-6d" transform="translate(447.070312 0)"/>
      <use xlink:href="#DejaVuSans-70" transform="translate(544.482422 0)"/>
      <use xlink:href="#DejaVuSans-6f" transform="translate(607.958984 0)"/>
      <use xlink:href="#DejaVuSans-72" transform="translate(669.140625 0)"/>
      <use xlink:href="#DejaVuSans-61" transform="translate(710.253906 0)"/>
      <use xlink:href="#DejaVuSans-6c" transform="translate(771.533203 0)"/>
     </g>
    </g>
    <g id="line2d_21">
     <path d="M 377.385 153.97 
L 385.385 153.97 
L 393.385 153.97 
" style="fill: none; stroke: #ff7f0e; stroke-width: 1.5; stroke-linecap: square"/>
     <g>
      <use xlink:href="#m6c6335b248" x="385.385" y="153.97" style="fill: #ff7f0e; stroke: #ff7f0e"/>
     </g>
    </g>
    <g id="text_18">
     <!-- ablate spatial -->
     <g transform="translate(399.785 156.77) scale(0.08 -0.08)">
      <use xlink:href="#DejaVuSans-61"/>
      <use xlink:href="#DejaVuSans-62" transform="translate(61.279297 0)"/>
      <use xlink:href="#DejaVuSans-6c" transform="translate(124.755859 0)"/>
      <use xlink:href="#DejaVuSans-61" transform="translate(152.539062 0)"/>
      <use xlink:href="#DejaVuSans-74" transform="translate(213.818359 0)"/>
      <use xlink:href="#DejaVuSans-65" transform="translate(253.027344 0)"/>
      <use xlink:href="#DejaVuSans-20" transform="translate(314.550781 0)"/>
      <use xlink:href="#DejaVuSans-73" transform="translate(346.337891 0)"/>
      <use xlink:href="#DejaVuSans-70" transform="translate(398.4375 0)"/>
      <use xlink:href="#DejaVuSans-61" transform="translate(461.914062 0)"/>
      <use xlink:href="#DejaVuSans-74" transform="translate(523.193359 0)"/>
      <use xlink:href="#DejaVuSans-69" transform="translate(562.402344 0)"/>
      <use xlink:href="#DejaVuSans-61" transform="translate(590.185547 0)"/>
      <use xlink:href="#DejaVuSans-6c" transform="translate(651.464844 0)"/>
     </g>
    </g>
    <g id="line2d_22">
     <path d="M 377.385 165.7125 
L 385.385 165.7125 
L 393.385 165.7125 
" style="fill: none; stroke-dasharray: 5.55,2.4; stroke-dashoffset: 0; stroke: #808080; stroke-width: 1.5"/>
    </g>
    <g id="text_19">
     <!-- chance -->
     <g transform="translate(399.785 168.5125) scale(0.08 -0.08)">
      <use xlink:href="#DejaVuSans-63"/>
      <use xlink:href="#DejaVuSans-68" transform="translate(54.980469 0)"/>
      <use xlink:href="#DejaVuSans-61" transform="translate(118.359375 0)"/>
      <use xlink:href="#DejaVuSans-6e" transform="translate(179.638672 0)"/>
      <use xlink:href="#DejaVuSans-63" transform="translate(243.017578 0)"/>
      <use xlink:href="#DejaVuSans-65" transform="translate(297.998047 0)"/>
     </g>
    </g>
   </g>
  </g>
 </g>
 <defs>
  <clipPath id="pf78a9eb59a">
   <rect x="43.78125" y="7.2" width="432.835" height="271.24"/>
  </clipPath>
 </defs>
</svg>
