<?xml version="1.0" encoding="utf-8" standalone="no"?>
<!DOCTYPE svg PUBLIC "-//W3C//DTD SVG 1.1//EN"
  "http://www.w3.org/Graphics/SVG/1.1/DTD/svg11.dtd">
<svg xmlns:xlink="http://www.w3.org/1999/xlink" width="496.46125pt" height="315.99625pt" viewBox="0 0 496.46125 315.99625" xmlns="http://www.w3.org/2000/svg" version="1.1">
 <metadata>
  <rdf:RDF xmlns:dc="http://purl.org/dc/elements/1.1/" xmlns:cc="http://creativecommons.org/ns#" xmlns:rdf="http://www.w3.org/1999/02/22-rdf-syntax-ns#">
   <cc:Work>
    <dc:type rdf:resource="http://purl.org/dc/dcmitype/StillImage"/>
    <dc:format>image/svg+xml</dc:format>
    <dc:creator>
     <cc:Agent>
      <dc:title>Matplotlib v3.10.9, https://matplotlib.org/</dc:title>
     </cc:Agent>
    </dc:creator>
   </cc:Work>
  </rdf:RDF>
 </metadata>
 <defs>
  <style type="text/css">*{stroke-linejoin: round; stroke-linecap: butt}</style>
 </defs>
 <g id="figure_1">
  <g id="patch_1">
   <path d="M 0 315.99625 
L 496.46125 315.99625 
L 496.46125 0 
L 0 0 
z
" style="fill: #ffffff"/>
  </g>
  <g id="axes_1">
   <g id="patch_2">
    <path d="M 43.78125 278.44 
L 489.26125 278.44 
L 489.26125 7.2 
L 43.78125 7.2 
z
" style="fill: #ffffff"/>
   </g>
   <g id="FillBetweenPolyCollection_1">
    <defs>
     <path id="m2a5710a0c4" d="M 64.030341 -66.149107 
L 64.030341 -61.138336 
L 74.154886 -262.561437 
L 84.279432 -297.309605 
L 94.403977 -298.419402 
L 104.528523 -298.331099 
L 114.653068 -299.130803 
L 124.777614 -299.182941 
L 134.902159 -299.130803 
L 145.026705 -299.182941 
L 155.15125 -299.220969 
L 165.275795 -298.955996 
L 175.400341 -299.279057 
L 185.524886 -299.16288 
L 195.649432 -299.086825 
L 205.773977 -299.182941 
L 215.898523 -299.220969 
L 226.023068 -299.279057 
L 236.147614 -299.220969 
L 246.272159 -299.279057 
L 256.396705 -299.279057 
L 266.52125 -299.279057 
L 276.645795 -298.872439 
L 286.770341 -299.279057 
L 296.894886 -299.220969 
L 307.019432 -299.279057 
L 307.019432 -299.279057 
L 307.019432 -299.279057 
L 296.894886 -299.279057 
L 286.770341 -299.279057 
L 276.645795 -299.279057 
L 266.52125 -299.279057 
L 256.396705 -299.279057 
L 246.272159 -299.279057 
L 236.147614 -299.279057 
L 226.023068 -299.279057 
L 215.898523 -299.279057 
L 205.773977 -299.258996 
L 195.649432 -299.238936 
L 185.524886 -299.279057 
L 175.400341 -299.279057 
L 165.275795 -299.1955 
L 155.15125 -299.279057 
L 145.026705 -299.258996 
L 134.902159 -299.253046 
L 124.777614 -299.258996 
L 114.653068 -299.253046 
L 104.528523 -299.181425 
L 94.403977 -299.15121 
L 84.279432 -298.866887 
L 74.154886 -278.547313 
L 64.030341 -66.149107 
z
" style="stroke: #000000; stroke-opacity: 0.12"/>
    </defs>
    <g clip-path="url(#pd6d781f285)">
     <use xlink:href="#m2a5710a0c4" x="0" y="315.99625" style="fill-opacity: 0.12; stroke: #000000; stroke-opacity: 0.12"/>
    </g>
   </g>
   <g id="FillBetweenPolyCollection_2">
    <defs>
     <path id="m2b3ef180af" d="M 64.030341 -66.149107 
L 64.030341 -61.138336 
L 74.154886 -170.731177 
L 84.279432 -234.998534 
L 94.403977 -252.650605 
L 104.528523 -275.735083 
L 114.653068 -288.044674 
L 124.777614 -294.901899 
L 134.902159 -297.484757 
L 145.026705 -297.887714 
L 155.15125 -291.110997 
L 165.275795 -297.865035 
L 175.400341 -298.551476 
L 185.524886 -298.354442 
L 195.649432 -299.002793 
L 205.773977 -299.046704 
L 215.898523 -299.007192 
L 226.023068 -298.983248 
L 236.147614 -299.072715 
L 246.272159 -298.459256 
L 256.396705 -298.11729 
L 266.52125 -298.955996 
L 276.645795 -298.933885 
L 286.770341 -298.960821 
L 296.894886 -299.169818 
L 307.019432 -299.201606 
L 317.143977 -298.774958 
L 327.268523 -299.279057 
L 337.393068 -299.279057 
L 347.517614 -298.349644 
L 347.517614 -299.279057 
L 347.517614 -299.279057 
L 337.393068 -299.279057 
L 327.268523 -299.279057 
L 317.143977 -299.225508 
L 307.019432 -299.279057 
L 296.894886 -299.255523 
L 286.770341 -299.248763 
L 276.645795 -299.217611 
L 266.52125 -299.1955 
L 256.396705 -298.988615 
L 246.272159 -299.053268 
L 236.147614 -299.194957 
L 226.023068 -299.168247 
L 215.898523 -299.144303 
L 205.773977 -299.16288 
L 195.649432 -299.090614 
L 185.524886 -298.751463 
L 175.400341 -298.961048 
L 165.275795 -298.659987 
L 155.15125 -298.385337 
L 145.026705 -298.57922 
L 134.902159 -298.227029 
L 124.777614 -296.917968 
L 114.653068 -294.306794 
L 104.528523 -286.401644 
L 94.403977 -262.841189 
L 84.279432 -249.706441 
L 74.154886 -194.718445 
L 64.030341 -66.149107 
z
" style="stroke: #1f77b4; stroke-opacity: 0.12"/>
    </defs>
    <g clip-path="url(#pd6d781f285)">
     <use xlink:href="#m2b3ef180af" x="0" y="315.99625" style="fill: #1f77b4; fill-opacity: 0.12; stroke: #1f77b4; stroke-opacity: 0.12"/>
    </g>
   </g>
   <g id="FillBetweenPolyCollection_3">
    <defs>
     <path id="m5445061943" d="M 64.030341 -66.149107 
L 64.030341 -61.138336 
L 74.154886 -107.419996 
L 84.279432 -140.549962 
L 94.403977 -172.43481 
L 104.528523 -212.43202 
L 114.653068 -248.556232 
L 124.777614 -272.644738 
L 134.902159 -284.262261 
L 145.026705 -289.546224 
L 155.15125 -290.844914 
L 165.275795 -294.423917 
L 175.400341 -293.917493 
L 185.524886 -295.942634 
L 195.649432 -295.679796 
L 205.773977 -297.315529 
L 215.898523 -296.292272 
L 226.023068 -298.146146 
L 236.147614 -297.700449 
L 246.272159 -297.767655 
L 256.396705 -298.239059 
L 266.52125 -297.752468 
L 276.645795 -298.512766 
L 286.770341 -298.473062 
L 296.894886 -286.222086 
L 307.019432 -298.236805 
L 317.143977 -298.612831 
L 327.268523 -298.746861 
L 337.393068 -298.588719 
L 347.517614 -298.336966 
L 357.642159 -298.81435 
L 357.642159 -298.81435 
L 357.642159 -298.81435 
L 347.517614 -299.059382 
L 337.393068 -299.117433 
L 327.268523 -299.081 
L 317.143977 -299.082256 
L 307.019432 -298.811012 
L 296.894886 -298.685269 
L 286.770341 -298.865197 
L 276.645795 -298.999758 
L 266.52125 -298.656377 
L 256.396705 -298.75067 
L 246.272159 -298.64119 
L 236.147614 -298.417955 
L 226.023068 -298.785495 
L 215.898523 -298.083482 
L 205.773977 -298.396257 
L 195.649432 -297.418015 
L 185.524886 -297.619883 
L 175.400341 -297.031049 
L 165.275795 -297.337861 
L 155.15125 -295.747003 
L 145.026705 -295.303043 
L 134.902159 -292.164197 
L 124.777614 -281.940505 
L 114.653068 -263.101731 
L 104.528523 -240.440547 
L 94.403977 -212.881022 
L 84.279432 -180.345905 
L 74.154886 -149.636791 
L 64.030341 -66.149107 
z
" style="stroke: #d62728; stroke-opacity: 0.12"/>
    </defs>
    <g clip-path="url(#pd6d781f285)">
     <use xlink:href="#m5445061943" x="0" y="315.99625" style="fill: #d62728; fill-opacity: 0.12; stroke: #d62728; stroke-opacity: 0.12"/>
    </g>
   </g>
   <g id="FillBetweenPolyCollection_4">
    <defs>
     <path id="m16c840863a" d="M 64.030341 -66.149107 
L 64.030341 -61.138336 
L 74.154886 -99.745623 
L 84.279432 -133.5259 
L 94.403977 -182.341173 
L 104.528523 -211.620591 
L 114.653068 -256.041569 
L 124.777614 -269.296634 
L 134.902159 -283.749812 
L 145.026705 -290.586357 
L 155.15125 -293.108053 
L 165.275795 -293.965471 
L 175.400341 -294.56066 
L 185.524886 -295.261972 
L 195.649432 -295.426849 
L 205.773977 -296.160268 
L 215.898523 -296.111378 
L 226.023068 -296.527452 
L 236.147614 -296.765193 
L 246.272159 -297.09007 
L 256.396705 -297.111107 
L 266.52125 -297.474836 
L 276.645795 -297.590145 
L 286.770341 -297.590362 
L 296.894886 -297.677609 
L 307.019432 -297.233459 
L 317.143977 -290.731722 
L 327.268523 -290.851455 
L 337.393068 -297.975904 
L 347.517614 -297.531958 
L 357.642159 -297.884937 
L 367.766705 -296.955524 
L 377.89125 -298.11729 
L 388.015795 -298.11729 
L 398.140341 -298.11729 
L 408.264886 -178.455318 
L 418.389432 -298.349644 
L 428.513977 -298.81435 
L 438.638523 -298.81435 
L 438.638523 -298.81435 
L 438.638523 -298.81435 
L 428.513977 -298.81435 
L 418.389432 -298.349644 
L 408.264886 -298.581997 
L 398.140341 -298.349644 
L 388.015795 -298.11729 
L 377.89125 -298.11729 
L 367.766705 -298.581997 
L 357.642159 -298.969253 
L 347.517614 -298.54772 
L 337.393068 -299.071913 
L 327.268523 -298.412525 
L 317.143977 -298.8227 
L 307.019432 -298.710679 
L 296.894886 -298.731236 
L 286.770341 -298.644218 
L 276.645795 -298.702524 
L 266.52125 -298.58548 
L 256.396705 -298.368325 
L 246.272159 -298.331274 
L 236.147614 -298.191444 
L 226.023068 -297.964478 
L 215.898523 -297.857758 
L 205.773977 -297.750779 
L 195.649432 -297.438608 
L 185.524886 -297.254955 
L 175.400341 -296.7945 
L 165.275795 -296.460276 
L 155.15125 -295.807398 
L 145.026705 -294.553351 
L 134.902159 -292.792822 
L 124.777614 -289.587146 
L 114.653068 -276.644372 
L 104.528523 -243.285068 
L 94.403977 -205.879076 
L 84.279432 -167.910375 
L 74.154886 -123.387575 
L 64.030341 -66.149107 
z
" style="stroke: #ff7f0e; stroke-opacity: 0.12"/>
    </defs>
    <g clip-path="url(#pd6d781f285)">
     <use xlink:href="#m16c840863a" x="0" y="315.99625" style="fill: #ff7f0e; fill-opacity: 0.12; stroke: #ff7f0e; stroke-opacity: 0.12"/>
    </g>
   </g>
   <g id="FillBetweenPolyCollection_5">
    <defs>
     <path id="m575fd3b2f4" d="M 64.030341 -66.149107 
L 64.030341 -61.138336 
L 74.154886 -84.814619 
L 84.279432 -85.618747 
L 94.403977 -112.474416 
L 104.528523 -117.179309 
L 114.653068 -138.706378 
L 124.777614 -119.850735 
L 134.902159 -140.391408 
L 145.026705 -146.554927 
L 155.15125 -142.713838 
L 165.275795 -156.134787 
L 175.400341 -144.096103 
L 185.524886 -152.22838 
L 195.649432 -150.696259 
L 205.773977 -160.664202 
L 215.898523 -162.204805 
L 226.023068 -160.141163 
L 236.147614 -159.043801 
L 246.272159 -155.072885 
L 256.396705 -163.552422 
L 266.52125 -152.668343 
L 276.645795 -160.548497 
L 286.770341 -163.804416 
L 296.894886 -164.62516 
L 307.019432 -165.190545 
L 317.143977 -161.152868 
L 327.268523 -164.156474 
L 337.393068 -163.44301 
L 347.517614 -160.23684 
L 357.642159 -165.877451 
L 367.766705 -164.232941 
L 377.89125 -159.316713 
L 388.015795 -164.996301 
L 398.140341 -166.849198 
L 408.264886 -163.368218 
L 418.389432 -168.384963 
L 428.513977 -168.895853 
L 438.638523 -156.450747 
L 448.763068 -163.479979 
L 458.887614 -164.812359 
L 469.012159 -166.693818 
L 469.012159 -189.65917 
L 469.012159 -189.65917 
L 458.887614 -191.540629 
L 448.763068 -188.690649 
L 438.638523 -178.525733 
L 428.513977 -193.049105 
L 418.389432 -192.243326 
L 408.264886 -186.262013 
L 398.140341 -190.526145 
L 388.015795 -188.661388 
L 377.89125 -182.645858 
L 367.766705 -187.798275 
L 357.642159 -189.406712 
L 347.517614 -183.197302 
L 337.393068 -188.046048 
L 327.268523 -184.123895 
L 317.143977 -180.488834 
L 307.019432 -185.147811 
L 296.894886 -182.468547 
L 286.770341 -182.882673 
L 276.645795 -179.458433 
L 266.52125 -172.642238 
L 256.396705 -181.682458 
L 246.272159 -175.930353 
L 236.147614 -178.407242 
L 226.023068 -177.367968 
L 215.898523 -179.544775 
L 205.773977 -180.039788 
L 195.649432 -172.348877 
L 185.524886 -172.152788 
L 175.400341 -167.737984 
L 165.275795 -175.681688 
L 155.15125 -161.278324 
L 145.026705 -167.951224 
L 134.902159 -165.575757 
L 124.777614 -150.392103 
L 114.653068 -166.737992 
L 104.528523 -146.151017 
L 94.403977 -143.013985 
L 84.279432 -113.175438 
L 74.154886 -116.65163 
L 64.030341 -66.149107 
z
" style="stroke: #7f7f7f; stroke-opacity: 0.12"/>
    </defs>
    <g clip-path="url(#pd6d781f285)">
     <use xlink:href="#m575fd3b2f4" x="0" y="315.99625" style="fill: #7f7f7f; fill-opacity: 0.12; stroke: #7f7f7f; stroke-opacity: 0.12"/>
    </g>
   </g>
   <g id="matplotlib.axis_1">
    <g id="xtick_1">
     <g id="line2d_1">
      <defs>
       <path id="m27cda3270c" d="M 0 0 
L 0 3.5 
" style="stroke: #000000; stroke-width: 0.8"/>
      </defs>
      <g>
       <use xlink:href="#m27cda3270c" x="64.030341" y="278.44" style="stroke: #000000; stroke-width: 0.8"/>
      </g>
     </g>
     <g id="text_1">
      <!-- 0 -->
      <g transform="translate(60.849091 293.038437) scale(0.1 -0.1)">
       <defs>
        <path id="DejaVuSans-30" d="M 2034 4250 
Q 1547 4250 1301 3770 
Q 1056 3291 1056 2328 
Q 1056 1369 1301 889 
Q 1547 409 2034 409 
Q 2525 409 2770 889 
Q 3016 1369 3016 2328 
Q 3016 3291 2770 3770 
Q 2525 4250 2034 4250 
z
M 2034 4750 
Q 2819 4750 3233 4129 
Q 3647 3509 3647 2328 
Q 3647 1150 3233 529 
Q 2819 -91 2034 -91 
Q 1250 -91 836 529 
Q 422 1150 422 2328 
Q 422 3509 836 4129 
Q 1250 4750 2034 4750 
z
" transform="scale(0.015625)"/>
       </defs>
       <use xlink:href="#DejaVuSans-30"/>
      </g>
     </g>
    </g>
    <g id="xtick_2">
     <g id="line2d_2">
      <g>
       <use xlink:href="#m27cda3270c" x="114.653068" y="278.44" style="stroke: #000000; stroke-width: 0.8"/>
      </g>
     </g>
     <g id="text_2">
      <!-- 500 -->
      <g transform="translate(105.109318 293.038437) scale(0.1 -0.1)">
       <defs>
        <path id="DejaVuSans-35" d="M 691 4666 
L 3169 4666 
L 3169 4134 
L 1269 4134 
L 1269 2991 
Q 1406 3038 1543 3061 
Q 1681 3084 1819 3084 
Q 2600 3084 3056 2656 
Q 3513 2228 3513 1497 
Q 3513 744 3044 326 
Q 2575 -91 1722 -91 
Q 1428 -91 1123 -41 
Q 819 9 494 109 
L 494 744 
Q 775 591 1075 516 
Q 1375 441 1709 441 
Q 2250 441 2565 725 
Q 2881 1009 2881 1497 
Q 2881 1984 2565 2268 
Q 2250 2553 1709 2553 
Q 1456 2553 1204 2497 
Q 953 2441 691 2322 
L 691 4666 
z
" transform="scale(0.015625)"/>
       </defs>
       <use xlink:href="#DejaVuSans-35"/>
       <use xlink:href="#DejaVuSans-30" transform="translate(63.623047 0)"/>
       <use xlink:href="#DejaVuSans-30" transform="translate(127.246094 0)"/>
      </g>
     </g>
    </g>
    <g id="xtick_3">
     <g id="line2d_3">
      <g>
       <use xlink:href="#m27cda3270c" x="165.275795" y="278.44" style="stroke: #000000; stroke-width: 0.8"/>
      </g>
     </g>
     <g id="text_3">
      <!-- 1000 -->
      <g transform="translate(152.550795 293.038437) scale(0.1 -0.1)">
       <defs>
        <path id="DejaVuSans-31" d="M 794 531 
L 1825 531 
L 1825 4091 
L 703 3866 
L 703 4441 
L 1819 4666 
L 2450 4666 
L 2450 531 
L 3481 531 
L 3481 0 
L 794 0 
L 794 531 
z
" transform="scale(0.015625)"/>
       </defs>
       <use xlink:href="#DejaVuSans-31"/>
       <use xlink:href="#DejaVuSans-30" transform="translate(63.623047 0)"/>
       <use xlink:href="#DejaVuSans-30" transform="translate(127.246094 0)"/>
       <use xlink:href="#DejaVuSans-30" transform="translate(190.869141 0)"/>
      </g>
     </g>
    </g>
    <g id="xtick_4">
     <g id="line2d_4">
      <g>
       <use xlink:href="#m27cda3270c" x="215.898523" y="278.44" style="stroke: #000000; stroke-width: 0.8"/>
      </g>
     </g>
     <g id="text_4">
      <!-- 1500 -->
      <g transform="translate(203.173523 293.038437) scale(0.1 -0.1)">
       <use xlink:href="#DejaVuSans-31"/>
       <use xlink:href="#DejaVuSans-35" transform="translate(63.623047 0)"/>
       <use xlink:href="#DejaVuSans-30" transform="translate(127.246094 0)"/>
       <use xlink:href="#DejaVuSans-30" transform="translate(190.869141 0)"/>
      </g>
     </g>
    </g>
    <g id="xtick_5">
     <g id="line2d_5">
      <g>
       <use xlink:href="#m27cda3270c" x="266.52125" y="278.44" style="stroke: #000000; stroke-width: 0.8"/>
      </g>
     </g>
     <g id="text_5">
      <!-- 2000 -->
      <g transform="translate(253.79625 293.038437) scale(0.1 -0.1)">
       <defs>
        <path id="DejaVuSans-32" d="M 1228 531 
L 3431 531 
L 3431 0 
L 469 0 
L 469 531 
Q 828 903 1448 1529 
Q 2069 2156 2228 2338 
Q 2531 2678 2651 2914 
Q 2772 3150 2772 3378 
Q 2772 3750 2511 3984 
Q 2250 4219 1831 4219 
Q 1534 4219 1204 4116 
Q 875 4013 500 3803 
L 500 4441 
Q 881 4594 1212 4672 
Q 1544 4750 1819 4750 
Q 2544 4750 2975 4387 
Q 3406 4025 3406 3419 
Q 3406 3131 3298 2873 
Q 3191 2616 2906 2266 
Q 2828 2175 2409 1742 
Q 1991 1309 1228 531 
z
" transform="scale(0.015625)"/>
       </defs>
       <use xlink:href="#DejaVuSans-32"/>
       <use xlink:href="#DejaVuSans-30" transform="translate(63.623047 0)"/>
       <use xlink:href="#DejaVuSans-30" transform="translate(127.246094 0)"/>
       <use xlink:href="#DejaVuSans-30" transform="translate(190.869141 0)"/>
      </g>
     </g>
    </g>
    <g id="xtick_6">
     <g id="line2d_6">
      <g>
       <use xlink:href="#m27cda3270c" x="317.143977" y="278.44" style="stroke: #000000; stroke-width: 0.8"/>
      </g>
     </g>
     <g id="text_6">
      <!-- 2500 -->
      <g transform="translate(304.418977 293.038437) scale(0.1 -0.1)">
       <use xlink:href="#DejaVuSans-32"/>
       <use xlink:href="#DejaVuSans-35" transform="translate(63.623047 0)"/>
       <use xlink:href="#DejaVuSans-30" transform="translate(127.246094 0)"/>
       <use xlink:href="#DejaVuSans-30" transform="translate(190.869141 0)"/>
      </g>
     </g>
    </g>
    <g id="xtick_7">
     <g id="line2d_7">
      <g>
       <use xlink:href="#m27cda3270c" x="367.766705" y="278.44" style="stroke: #000000; stroke-width: 0.8"/>
      </g>
     </g>
     <g id="text_7">
      <!-- 3000 -->
      <g transform="translate(355.041705 293.038437) scale(0.1 -0.1)">
       <defs>
        <path id="DejaVuSans-33" d="M 2597 2516 
Q 3050 2419 3304 2112 
Q 3559 1806 3559 1356 
Q 3559 666 3084 287 
Q 2609 -91 1734 -91 
Q 1441 -91 1130 -33 
Q 819 25 488 141 
L 488 750 
Q 750 597 1062 519 
Q 1375 441 1716 441 
Q 2309 441 2620 675 
Q 2931 909 2931 1356 
Q 2931 1769 2642 2001 
Q 2353 2234 1838 2234 
L 1294 2234 
L 1294 2753 
L 1863 2753 
Q 2328 2753 2575 2939 
Q 2822 3125 2822 3475 
Q 2822 3834 2567 4026 
Q 2313 4219 1838 4219 
Q 1578 4219 1281 4162 
Q 984 4106 628 3988 
L 628 4550 
Q 988 4650 1302 4700 
Q 1616 4750 1894 4750 
Q 2613 4750 3031 4423 
Q 3450 4097 3450 3541 
Q 3450 3153 3228 2886 
Q 3006 2619 2597 2516 
z
" transform="scale(0.015625)"/>
       </defs>
       <use xlink:href="#DejaVuSans-33"/>
       <use xlink:href="#DejaVuSans-30" transform="translate(63.623047 0)"/>
       <use xlink:href="#DejaVuSans-30" transform="translate(127.246094 0)"/>
       <use xlink:href="#DejaVuSans-30" transform="translate(190.869141 0)"/>
      </g>
     </g>
    </g>
    <g id="xtick_8">
     <g id="line2d_8">
      <g>
       <use xlink:href="#m27cda3270c" x="418.389432" y="278.44" style="stroke: #000000; stroke-width: 0.8"/>
      </g>
     </g>
     <g id="text_8">
      <!-- 3500 -->
      <g transform="translate(405.664432 293.038437) scale(0.1 -0.1)">
       <use xlink:href="#DejaVuSans-33"/>
       <use xlink:href="#DejaVuSans-35" transform="translate(63.623047 0)"/>
       <use xlink:href="#DejaVuSans-30" transform="translate(127.246094 0)"/>
       <use xlink:href="#DejaVuSans-30" transform="translate(190.869141 0)"/>
      </g>
     </g>
    </g>
    <g id="xtick_9">
     <g id="line2d_9">
      <g>
       <use xlink:href="#m27cda3270c" x="469.012159" y="278.44" style="stroke: #000000; stroke-width: 0.8"/>
      </g>
     </g>
     <g id="text_9">
      <!-- 4000 -->
      <g transform="translate(456.287159 293.038437) scale(0.1 -0.1)">
       <defs>
        <path id="DejaVuSans-34" d="M 2419 4116 
L 825 1625 
L 2419 1625 
L 2419 4116 
z
M 2253 4666 
L 3047 4666 
L 3047 1625 
L 3713 1625 
L 3713 1100 
L 3047 1100 
L 3047 0 
L 2419 0 
L 2419 1100 
L 313 1100 
L 313 1709 
L 2253 4666 
z
" transform="scale(0.015625)"/>
       </defs>
       <use xlink:href="#DejaVuSans-34"/>
       <use xlink:href="#DejaVuSans-30" transform="translate(63.623047 0)"/>
       <use xlink:href="#DejaVuSans-30" transform="translate(127.246094 0)"/>
       <use xlink:href="#DejaVuSans-30" transform="translate(190.869141 0)"/>
      </g>
     </g>
    </g>
    <g id="text_10">
     <!-- training step -->
     <g transform="translate(234.747031 306.716562) scale(0.1 -0.1)">
      <defs>
       <path id="DejaVuSans-74" d="M 1172 4494 
L 1172 3500 
L 2356 3500 
L 2356 3053 
L 1172 3053 
L 1172 1153 
Q 1172 725 1289 603 
Q 1406 481 1766 481 
L 2356 481 
L 2356 0 
L 1766 0 
Q 1100 0 847 248 
Q 594 497 594 1153 
L 594 3053 
L 172 3053 
L 172 3500 
L 594 3500 
L 594 4494 
L 1172 4494 
z
" transform="scale(0.015625)"/>
       <path id="DejaVuSans-72" d="M 2631 2963 
Q 2534 3019 2420 3045 
Q 2306 3072 2169 3072 
Q 1681 3072 1420 2755 
Q 1159 2438 1159 1844 
L 1159 0 
L 581 0 
L 581 3500 
L 1159 3500 
L 1159 2956 
Q 1341 3275 1631 3429 
Q 1922 3584 2338 3584 
Q 2397 3584 2469 3576 
Q 2541 3569 2628 3553 
L 2631 2963 
z
" transform="scale(0.015625)"/>
       <path id="DejaVuSans-61" d="M 2194 1759 
Q 1497 1759 1228 1600 
Q 959 1441 959 1056 
Q 959 750 1161 570 
Q 1363 391 1709 391 
Q 2188 391 2477 730 
Q 2766 1069 2766 1631 
L 2766 1759 
L 2194 1759 
z
M 3341 1997 
L 3341 0 
L 2766 0 
L 2766 531 
Q 2569 213 2275 61 
Q 1981 -91 1556 -91 
Q 1019 -91 701 211 
Q 384 513 384 1019 
Q 384 1609 779 1909 
Q 1175 2209 1959 2209 
L 2766 2209 
L 2766 2266 
Q 2766 2663 2505 2880 
Q 2244 3097 1772 3097 
Q 1472 3097 1187 3025 
Q 903 2953 641 2809 
L 641 3341 
Q 956 3463 1253 3523 
Q 1550 3584 1831 3584 
Q 2591 3584 2966 3190 
Q 3341 2797 3341 1997 
z
" transform="scale(0.015625)"/>
       <path id="DejaVuSans-69" d="M 603 3500 
L 1178 3500 
L 1178 0 
L 603 0 
L 603 3500 
z
M 603 4863 
L 1178 4863 
L 1178 4134 
L 603 4134 
L 603 4863 
z
" transform="scale(0.015625)"/>
       <path id="DejaVuSans-6e" d="M 3513 2113 
L 3513 0 
L 2938 0 
L 2938 2094 
Q 2938 2591 2744 2837 
Q 2550 3084 2163 3084 
Q 1697 3084 1428 2787 
Q 1159 2491 1159 1978 
L 1159 0 
L 581 0 
L 581 3500 
L 1159 3500 
L 1159 2956 
Q 1366 3272 1645 3428 
Q 1925 3584 2291 3584 
Q 2894 3584 3203 3211 
Q 3513 2838 3513 2113 
z
" transform="scale(0.015625)"/>
       <path id="DejaVuSans-67" d="M 2906 1791 
Q 2906 2416 2648 2759 
Q 2391 3103 1925 3103 
Q 1463 3103 1205 2759 
Q 947 2416 947 1791 
Q 947 1169 1205 825 
Q 1463 481 1925 481 
Q 2391 481 2648 825 
Q 2906 1169 2906 1791 
z
M 3481 434 
Q 3481 -459 3084 -895 
Q 2688 -1331 1869 -1331 
Q 1566 -1331 1297 -1286 
Q 1028 -1241 775 -1147 
L 775 -588 
Q 1028 -725 1275 -790 
Q 1522 -856 1778 -856 
Q 2344 -856 2625 -561 
Q 2906 -266 2906 331 
L 2906 616 
Q 2728 306 2450 153 
Q 2172 0 1784 0 
Q 1141 0 747 490 
Q 353 981 353 1791 
Q 353 2603 747 3093 
Q 1141 3584 1784 3584 
Q 2172 3584 2450 3431 
Q 2728 3278 2906 2969 
L 2906 3500 
L 3481 3500 
L 3481 434 
z
" transform="scale(0.015625)"/>
       <path id="DejaVuSans-20" transform="scale(0.015625)"/>
       <path id="DejaVuSans-73" d="M 2834 3397 
L 2834 2853 
Q 2591 2978 2328 3040 
Q 2066 3103 1784 3103 
Q 1356 3103 1142 2972 
Q 928 2841 928 2578 
Q 928 2378 1081 2264 
Q 1234 2150 1697 2047 
L 1894 2003 
Q 2506 1872 2764 1633 
Q 3022 1394 3022 966 
Q 3022 478 2636 193 
Q 2250 -91 1575 -91 
Q 1294 -91 989 -36 
Q 684 19 347 128 
L 347 722 
Q 666 556 975 473 
Q 1284 391 1588 391 
Q 1994 391 2212 530 
Q 2431 669 2431 922 
Q 2431 1156 2273 1281 
Q 2116 1406 1581 1522 
L 1381 1569 
Q 847 1681 609 1914 
Q 372 2147 372 2553 
Q 372 3047 722 3315 
Q 1072 3584 1716 3584 
Q 2034 3584 2315 3537 
Q 2597 3491 2834 3397 
z
" transform="scale(0.015625)"/>
       <path id="DejaVuSans-65" d="M 3597 1894 
L 3597 1613 
L 953 1613 
Q 991 1019 1311 708 
Q 1631 397 2203 397 
Q 2534 397 2845 478 
Q 3156 559 3463 722 
L 3463 178 
Q 3153 47 2828 -22 
Q 2503 -91 2169 -91 
Q 1331 -91 842 396 
Q 353 884 353 1716 
Q 353 2575 817 3079 
Q 1281 3584 2069 3584 
Q 2775 3584 3186 3129 
Q 3597 2675 3597 1894 
z
M 3022 2063 
Q 3016 2534 2758 2815 
Q 2500 3097 2075 3097 
Q 1594 3097 1305 2825 
Q 1016 2553 972 2059 
L 3022 2063 
z
" transform="scale(0.015625)"/>
       <path id="DejaVuSans-70" d="M 1159 525 
L 1159 -1331 
L 581 -1331 
L 581 3500 
L 1159 3500 
L 1159 2969 
Q 1341 3281 1617 3432 
Q 1894 3584 2278 3584 
Q 2916 3584 3314 3078 
Q 3713 2572 3713 1747 
Q 3713 922 3314 415 
Q 2916 -91 2278 -91 
Q 1894 -91 1617 61 
Q 1341 213 1159 525 
z
M 3116 1747 
Q 3116 2381 2855 2742 
Q 2594 3103 2138 3103 
Q 1681 3103 1420 2742 
Q 1159 2381 1159 1747 
Q 1159 1113 1420 752 
Q 1681 391 2138 391 
Q 2594 391 2855 752 
Q 3116 1113 3116 1747 
z
" transform="scale(0.015625)"/>
      </defs>
      <use xlink:href="#DejaVuSans-74"/>
      <use xlink:href="#DejaVuSans-72" transform="translate(39.208984 0)"/>
      <use xlink:href="#DejaVuSans-61" transform="translate(80.322266 0)"/>
      <use xlink:href="#DejaVuSans-69" transform="translate(141.601562 0)"/>
      <use xlink:href="#DejaVuSans-6e" transform="translate(169.384766 0)"/>
      <use xlink:href="#DejaVuSans-69" transform="translate(232.763672 0)"/>
      <use xlink:href="#DejaVuSans-6e" transform="translate(260.546875 0)"/>
      <use xlink:href="#DejaVuSans-67" transform="translate(323.925781 0)"/>
      <use xlink:href="#DejaVuSans-20" transform="translate(387.402344 0)"/>
      <use xlink:href="#DejaVuSans-73" transform="translate(419.189453 0)"/>
      <use xlink:href="#DejaVuSans-74" transform="translate(471.289062 0)"/>
      <use xlink:href="#DejaVuSans-65" transform="translate(510.498047 0)"/>
      <use xlink:href="#DejaVuSans-70" transform="translate(572.021484 0)"/>
     </g>
    </g>
   </g>
   <g id="matplotlib.axis_2">
    <g id="ytick_1">
     <g id="line2d_10">
      <defs>
       <path id="m3c3e649a76" d="M 0 0 
L -3.5 0 
" style="stroke: #000000; stroke-width: 0.8"/>
      </defs>
      <g>
       <use xlink:href="#m3c3e649a76" x="43.78125" y="254.647018" style="stroke: #000000; stroke-width: 0.8"/>
      </g>
     </g>
     <g id="text_11">
      <!-- 0.5 -->
      <g transform="translate(20.878125 258.446236) scale(0.1 -0.1)">
       <defs>
        <path id="DejaVuSans-2e" d="M 684 794 
L 1344 794 
L 1344 0 
L 684 0 
L 684 794 
z
" transform="scale(0.015625)"/>
       </defs>
       <use xlink:href="#DejaVuSans-30"/>
       <use xlink:href="#DejaVuSans-2e" transform="translate(63.623047 0)"/>
       <use xlink:href="#DejaVuSans-35" transform="translate(95.410156 0)"/>
      </g>
     </g>
    </g>
    <g id="ytick_2">
     <g id="line2d_11">
      <g>
       <use xlink:href="#m3c3e649a76" x="43.78125" y="207.061053" style="stroke: #000000; stroke-width: 0.8"/>
      </g>
     </g>
     <g id="text_12">
      <!-- 0.6 -->
      <g transform="translate(20.878125 210.860271) scale(0.1 -0.1)">
       <defs>
        <path id="DejaVuSans-36" d="M 2113 2584 
Q 1688 2584 1439 2293 
Q 1191 2003 1191 1497 
Q 1191 994 1439 701 
Q 1688 409 2113 409 
Q 2538 409 2786 701 
Q 3034 994 3034 1497 
Q 3034 2003 2786 2293 
Q 2538 2584 2113 2584 
z
M 3366 4563 
L 3366 3988 
Q 3128 4100 2886 4159 
Q 2644 4219 2406 4219 
Q 1781 4219 1451 3797 
Q 1122 3375 1075 2522 
Q 1259 2794 1537 2939 
Q 1816 3084 2150 3084 
Q 2853 3084 3261 2657 
Q 3669 2231 3669 1497 
Q 3669 778 3244 343 
Q 2819 -91 2113 -91 
Q 1303 -91 875 529 
Q 447 1150 447 2328 
Q 447 3434 972 4092 
Q 1497 4750 2381 4750 
Q 2619 4750 2861 4703 
Q 3103 4656 3366 4563 
z
" transform="scale(0.015625)"/>
       </defs>
       <use xlink:href="#DejaVuSans-30"/>
       <use xlink:href="#DejaVuSans-2e" transform="translate(63.623047 0)"/>
       <use xlink:href="#DejaVuSans-36" transform="translate(95.410156 0)"/>
      </g>
     </g>
    </g>
    <g id="ytick_3">
     <g id="line2d_12">
      <g>
       <use xlink:href="#m3c3e649a76" x="43.78125" y="159.475088" style="stroke: #000000; stroke-width: 0.8"/>
      </g>
     </g>
     <g id="text_13">
      <!-- 0.7 -->
      <g transform="translate(20.878125 163.274306) scale(0.1 -0.1)">
       <defs>
        <path id="DejaVuSans-37" d="M 525 4666 
L 3525 4666 
L 3525 4397 
L 1831 0 
L 1172 0 
L 2766 4134 
L 525 4134 
L 525 4666 
z
" transform="scale(0.015625)"/>
       </defs>
       <use xlink:href="#DejaVuSans-30"/>
       <use xlink:href="#DejaVuSans-2e" transform="translate(63.623047 0)"/>
       <use xlink:href="#DejaVuSans-37" transform="translate(95.410156 0)"/>
      </g>
     </g>
    </g>
    <g id="ytick_4">
     <g id="line2d_13">
      <g>
       <use xlink:href="#m3c3e649a76" x="43.78125" y="111.889123" style="stroke: #000000; stroke-width: 0.8"/>
      </g>
     </g>
     <g id="text_14">
      <!-- 0.8 -->
      <g transform="translate(20.878125 115.688342) scale(0.1 -0.1)">
       <defs>
        <path id="DejaVuSans-38" d="M 2034 2216 
Q 1584 2216 1326 1975 
Q 1069 1734 1069 1313 
Q 1069 891 1326 650 
Q 1584 409 2034 409 
Q 2484 409 2743 651 
Q 3003 894 3003 1313 
Q 3003 1734 2745 1975 
Q 2488 2216 2034 2216 
z
M 1403 2484 
Q 997 2584 770 2862 
Q 544 3141 544 3541 
Q 544 4100 942 4425 
Q 1341 4750 2034 4750 
Q 2731 4750 3128 4425 
Q 3525 4100 3525 3541 
Q 3525 3141 3298 2862 
Q 3072 2584 2669 2484 
Q 3125 2378 3379 2068 
Q 3634 1759 3634 1313 
Q 3634 634 3220 271 
Q 2806 -91 2034 -91 
Q 1263 -91 848 271 
Q 434 634 434 1313 
Q 434 1759 690 2068 
Q 947 2378 1403 2484 
z
M 1172 3481 
Q 1172 3119 1398 2916 
Q 1625 2713 2034 2713 
Q 2441 2713 2670 2916 
Q 2900 3119 2900 3481 
Q 2900 3844 2670 4047 
Q 2441 4250 2034 4250 
Q 1625 4250 1398 4047 
Q 1172 3844 1172 3481 
z
" transform="scale(0.015625)"/>
       </defs>
       <use xlink:href="#DejaVuSans-30"/>
       <use xlink:href="#DejaVuSans-2e" transform="translate(63.623047 0)"/>
       <use xlink:href="#DejaVuSans-38" transform="translate(95.410156 0)"/>
      </g>
     </g>
    </g>
    <g id="ytick_5">
     <g id="line2d_14">
      <g>
       <use xlink:href="#m3c3e649a76" x="43.78125" y="64.303158" style="stroke: #000000; stroke-width: 0.8"/>
      </g>
     </g>
     <g id="text_15">
      <!-- 0.9 -->
      <g transform="translate(20.878125 68.102377) scale(0.1 -0.1)">
       <defs>
        <path id="DejaVuSans-39" d="M 703 97 
L 703 672 
Q 941 559 1184 500 
Q 1428 441 1663 441 
Q 2288 441 2617 861 
Q 2947 1281 2994 2138 
Q 2813 1869 2534 1725 
Q 2256 1581 1919 1581 
Q 1219 1581 811 2004 
Q 403 2428 403 3163 
Q 403 3881 828 4315 
Q 1253 4750 1959 4750 
Q 2769 4750 3195 4129 
Q 3622 3509 3622 2328 
Q 3622 1225 3098 567 
Q 2575 -91 1691 -91 
Q 1453 -91 1209 -44 
Q 966 3 703 97 
z
M 1959 2075 
Q 2384 2075 2632 2365 
Q 2881 2656 2881 3163 
Q 2881 3666 2632 3958 
Q 2384 4250 1959 4250 
Q 1534 4250 1286 3958 
Q 1038 3666 1038 3163 
Q 1038 2656 1286 2365 
Q 1534 2075 1959 2075 
z
" transform="scale(0.015625)"/>
       </defs>
       <use xlink:href="#DejaVuSans-30"/>
       <use xlink:href="#DejaVuSans-2e" transform="translate(63.623047 0)"/>
       <use xlink:href="#DejaVuSans-39" transform="translate(95.410156 0)"/>
      </g>
     </g>
    </g>
    <g id="ytick_6">
     <g id="line2d_15">
      <g>
       <use xlink:href="#m3c3e649a76" x="43.78125" y="16.717193" style="stroke: #000000; stroke-width: 0.8"/>
      </g>
     </g>
     <g id="text_16">
      <!-- 1.0 -->
      <g transform="translate(20.878125 20.516412) scale(0.1 -0.1)">
       <use xlink:href="#DejaVuSans-31"/>
       <use xlink:href="#DejaVuSans-2e" transform="translate(63.623047 0)"/>
       <use xlink:href="#DejaVuSans-30" transform="translate(95.410156 0)"/>
      </g>
     </g>
    </g>
    <g id="text_17">
     <!-- accuracy (held-out) -->
     <g transform="translate(14.798438 191.764531) rotate(-90) scale(0.1 -0.1)">
      <defs>
       <path id="DejaVuSans-63" d="M 3122 3366 
L 3122 2828 
Q 2878 2963 2633 3030 
Q 2388 3097 2138 3097 
Q 1578 3097 1268 2742 
Q 959 2388 959 1747 
Q 959 1106 1268 751 
Q 1578 397 2138 397 
Q 2388 397 2633 464 
Q 2878 531 3122 666 
L 3122 134 
Q 2881 22 2623 -34 
Q 2366 -91 2075 -91 
Q 1284 -91 818 406 
Q 353 903 353 1747 
Q 353 2603 823 3093 
Q 1294 3584 2113 3584 
Q 2378 3584 2631 3529 
Q 2884 3475 3122 3366 
z
" transform="scale(0.015625)"/>
       <path id="DejaVuSans-75" d="M 544 1381 
L 544 3500 
L 1119 3500 
L 1119 1403 
Q 1119 906 1312 657 
Q 1506 409 1894 409 
Q 2359 409 2629 706 
Q 2900 1003 2900 1516 
L 2900 3500 
L 3475 3500 
L 3475 0 
L 2900 0 
L 2900 538 
Q 2691 219 2414 64 
Q 2138 -91 1772 -91 
Q 1169 -91 856 284 
Q 544 659 544 1381 
z
M 1991 3584 
L 1991 3584 
z
" transform="scale(0.015625)"/>
       <path id="DejaVuSans-79" d="M 2059 -325 
Q 1816 -950 1584 -1140 
Q 1353 -1331 966 -1331 
L 506 -1331 
L 506 -850 
L 844 -850 
Q 1081 -850 1212 -737 
Q 1344 -625 1503 -206 
L 1606 56 
L 191 3500 
L 800 3500 
L 1894 763 
L 2988 3500 
L 3597 3500 
L 2059 -325 
z
" transform="scale(0.015625)"/>
       <path id="DejaVuSans-28" d="M 1984 4856 
Q 1566 4138 1362 3434 
Q 1159 2731 1159 2009 
Q 1159 1288 1364 580 
Q 1569 -128 1984 -844 
L 1484 -844 
Q 1016 -109 783 600 
Q 550 1309 550 2009 
Q 550 2706 781 3412 
Q 1013 4119 1484 4856 
L 1984 4856 
z
" transform="scale(0.015625)"/>
       <path id="DejaVuSans-68" d="M 3513 2113 
L 3513 0 
L 2938 0 
L 2938 2094 
Q 2938 2591 2744 2837 
Q 2550 3084 2163 3084 
Q 1697 3084 1428 2787 
Q 1159 2491 1159 1978 
L 1159 0 
L 581 0 
L 581 4863 
L 1159 4863 
L 1159 2956 
Q 1366 3272 1645 3428 
Q 1925 3584 2291 3584 
Q 2894 3584 3203 3211 
Q 3513 2838 3513 2113 
z
" transform="scale(0.015625)"/>
       <path id="DejaVuSans-6c" d="M 603 4863 
L 1178 4863 
L 1178 0 
L 603 0 
L 603 4863 
z
" transform="scale(0.015625)"/>
       <path id="DejaVuSans-64" d="M 2906 2969 
L 2906 4863 
L 3481 4863 
L 3481 0 
L 2906 0 
L 2906 525 
Q 2725 213 2448 61 
Q 2172 -91 1784 -91 
Q 1150 -91 751 415 
Q 353 922 353 1747 
Q 353 2572 751 3078 
Q 1150 3584 1784 3584 
Q 2172 3584 2448 3432 
Q 2725 3281 2906 2969 
z
M 947 1747 
Q 947 1113 1208 752 
Q 1469 391 1925 391 
Q 2381 391 2643 752 
Q 2906 1113 2906 1747 
Q 2906 2381 2643 2742 
Q 2381 3103 1925 3103 
Q 1469 3103 1208 2742 
Q 947 2381 947 1747 
z
" transform="scale(0.015625)"/>
       <path id="DejaVuSans-2d" d="M 313 2009 
L 1997 2009 
L 1997 1497 
L 313 1497 
L 313 2009 
z
" transform="scale(0.015625)"/>
       <path id="DejaVuSans-6f" d="M 1959 3097 
Q 1497 3097 1228 2736 
Q 959 2375 959 1747 
Q 959 1119 1226 758 
Q 1494 397 1959 397 
Q 2419 397 2687 759 
Q 2956 1122 2956 1747 
Q 2956 2369 2687 2733 
Q 2419 3097 1959 3097 
z
M 1959 3584 
Q 2709 3584 3137 3096 
Q 3566 2609 3566 1747 
Q 3566 888 3137 398 
Q 2709 -91 1959 -91 
Q 1206 -91 779 398 
Q 353 888 353 1747 
Q 353 2609 779 3096 
Q 1206 3584 1959 3584 
z
" transform="scale(0.015625)"/>
       <path id="DejaVuSans-29" d="M 513 4856 
L 1013 4856 
Q 1481 4119 1714 3412 
Q 1947 2706 1947 2009 
Q 1947 1309 1714 600 
Q 1481 -109 1013 -844 
L 513 -844 
Q 928 -128 1133 580 
Q 1338 1288 1338 2009 
Q 1338 2731 1133 3434 
Q 928 4138 513 4856 
z
" transform="scale(0.015625)"/>
      </defs>
      <use xlink:href="#DejaVuSans-61"/>
      <use xlink:href="#DejaVuSans-63" transform="translate(61.279297 0)"/>
      <use xlink:href="#DejaVuSans-63" transform="translate(116.259766 0)"/>
      <use xlink:href="#DejaVuSans-75" transform="translate(171.240234 0)"/>
      <use xlink:href="#DejaVuSans-72" transform="translate(234.619141 0)"/>
      <use xlink:href="#DejaVuSans-61" transform="translate(275.732422 0)"/>
      <use xlink:href="#DejaVuSans-63" transform="translate(337.011719 0)"/>
      <use xlink:href="#DejaVuSans-79" transform="translate(391.992188 0)"/>
      <use xlink:href="#DejaVuSans-20" transform="translate(451.171875 0)"/>
      <use xlink:href="#DejaVuSans-28" transform="translate(482.958984 0)"/>
      <use xlink:href="#DejaVuSans-68" transform="translate(521.972656 0)"/>
      <use xlink:href="#DejaVuSans-65" transform="translate(585.351562 0)"/>
      <use xlink:href="#DejaVuSans-6c" transform="translate(646.875 0)"/>
      <use xlink:href="#DejaVuSans-64" transform="translate(674.658203 0)"/>
      <use xlink:href="#DejaVuSans-2d" transform="translate(738.134766 0)"/>
      <use xlink:href="#DejaVuSans-6f" transform="translate(776.09375 0)"/>
      <use xlink:href="#DejaVuSans-75" transform="translate(837.275391 0)"/>
      <use xlink:href="#DejaVuSans-74" transform="translate(900.654297 0)"/>
      <use xlink:href="#DejaVuSans-29" transform="translate(939.863281 0)"/>
     </g>
    </g>
   </g>
   <g id="line2d_16">
    <path d="M 64.030341 252.352528 
L 74.154886 45.441875 
L 84.279432 17.908004 
L 94.403977 17.210944 
L 104.528523 17.239988 
L 114.653068 16.804325 
L 124.777614 16.775281 
L 134.902159 16.804325 
L 145.026705 16.775281 
L 155.15125 16.746237 
L 165.275795 16.920502 
L 175.400341 16.717193 
L 185.524886 16.775281 
L 195.649432 16.83337 
L 205.773977 16.775281 
L 215.898523 16.746237 
L 226.023068 16.717193 
L 236.147614 16.746237 
L 246.272159 16.717193 
L 256.396705 16.717193 
L 266.52125 16.717193 
L 276.645795 16.920502 
L 286.770341 16.717193 
L 296.894886 16.746237 
L 307.019432 16.717193 
" clip-path="url(#pd6d781f285)" style="fill: none; stroke: #000000; stroke-width: 1.5; stroke-linecap: square"/>
    <defs>
     <path id="mb5b9b684fe" d="M 0 1.5 
C 0.397805 1.5 0.77937 1.341951 1.06066 1.06066 
C 1.341951 0.77937 1.5 0.397805 1.5 0 
C 1.5 -0.397805 1.341951 -0.77937 1.06066 -1.06066 
C 0.77937 -1.341951 0.397805 -1.5 0 -1.5 
C -0.397805 -1.5 -0.77937 -1.341951 -1.06066 -1.06066 
C -1.341951 -0.77937 -1.5 -0.397805 -1.5 0 
C -1.5 0.397805 -1.341951 0.77937 -1.06066 1.06066 
C -0.77937 1.341951 -0.397805 1.5 0 1.5 
z
" style="stroke: #000000"/>
    </defs>
    <g clip-path="url(#pd6d781f285)">
     <use xlink:href="#mb5b9b684fe" x="64.030341" y="252.352528" style="stroke: #000000"/>
     <use xlink:href="#mb5b9b684fe" x="74.154886" y="45.441875" style="stroke: #000000"/>
     <use xlink:href="#mb5b9b684fe" x="84.279432" y="17.908004" style="stroke: #000000"/>
     <use xlink:href="#mb5b9b684fe" x="94.403977" y="17.210944" style="stroke: #000000"/>
     <use xlink:href="#mb5b9b684fe" x="104.528523" y="17.239988" style="stroke: #000000"/>
     <use xlink:href="#mb5b9b684fe" x="114.653068" y="16.804325" style="stroke: #000000"/>
     <use xlink:href="#mb5b9b684fe" x="124.777614" y="16.775281" style="stroke: #000000"/>
     <use xlink:href="#mb5b9b684fe" x="134.902159" y="16.804325" style="stroke: #000000"/>
     <use xlink:href="#mb5b9b684fe" x="145.026705" y="16.775281" style="stroke: #000000"/>
     <use xlink:href="#mb5b9b684fe" x="155.15125" y="16.746237" style="stroke: #000000"/>
     <use xlink:href="#mb5b9b684fe" x="165.275795" y="16.920502" style="stroke: #000000"/>
     <use xlink:href="#mb5b9b684fe" x="175.400341" y="16.717193" style="stroke: #000000"/>
     <use xlink:href="#mb5b9b684fe" x="185.524886" y="16.775281" style="stroke: #000000"/>
     <use xlink:href="#mb5b9b684fe" x="195.649432" y="16.83337" style="stroke: #000000"/>
     <use xlink:href="#mb5b9b684fe" x="205.773977" y="16.775281" style="stroke: #000000"/>
     <use xlink:href="#mb5b9b684fe" x="215.898523" y="16.746237" style="stroke: #000000"/>
     <use xlink:href="#mb5b9b684fe" x="226.023068" y="16.717193" style="stroke: #000000"/>
     <use xlink:href="#mb5b9b684fe" x="236.147614" y="16.746237" style="stroke: #000000"/>
     <use xlink:href="#mb5b9b684fe" x="246.272159" y="16.717193" style="stroke: #000000"/>
     <use xlink:href="#mb5b9b684fe" x="256.396705" y="16.717193" style="stroke: #000000"/>
     <use xlink:href="#mb5b9b684fe" x="266.52125" y="16.717193" style="stroke: #000000"/>
     <use xlink:href="#mb5b9b684fe" x="276.645795" y="16.920502" style="stroke: #000000"/>
     <use xlink:href="#mb5b9b684fe" x="286.770341" y="16.717193" style="stroke: #000000"/>
     <use xlink:href="#mb5b9b684fe" x="296.894886" y="16.746237" style="stroke: #000000"/>
     <use xlink:href="#mb5b9b684fe" x="307.019432" y="16.717193" style="stroke: #000000"/>
    </g>
   </g>
   <g id="line2d_17">
    <path d="M 64.030341 252.352528 
L 74.154886 133.271439 
L 84.279432 73.643762 
L 94.403977 58.250353 
L 104.528523 34.927886 
L 114.653068 24.820516 
L 124.777614 20.086316 
L 134.902159 18.140357 
L 145.026705 17.762783 
L 155.15125 21.248083 
L 165.275795 17.733739 
L 175.400341 17.239988 
L 185.524886 17.443297 
L 195.649432 16.949546 
L 205.773977 16.891458 
L 215.898523 16.920502 
L 226.023068 16.920502 
L 236.147614 16.862414 
L 246.272159 17.239988 
L 256.396705 17.443297 
L 266.52125 16.920502 
L 276.645795 16.920502 
L 286.770341 16.891458 
L 296.894886 16.78358 
L 307.019432 16.755919 
L 317.143977 16.996017 
L 327.268523 16.717193 
L 337.393068 16.717193 
L 347.517614 17.1819 
" clip-path="url(#pd6d781f285)" style="fill: none; stroke: #1f77b4; stroke-width: 1.5; stroke-linecap: square"/>
    <defs>
     <path id="m092281f3ac" d="M 0 1.5 
C 0.397805 1.5 0.77937 1.341951 1.06066 1.06066 
C 1.341951 0.77937 1.5 0.397805 1.5 0 
C 1.5 -0.397805 1.341951 -0.77937 1.06066 -1.06066 
C 0.77937 -1.341951 0.397805 -1.5 0 -1.5 
C -0.397805 -1.5 -0.77937 -1.341951 -1.06066 -1.06066 
C -1.341951 -0.77937 -1.5 -0.397805 -1.5 0 
C -1.5 0.397805 -1.341951 0.77937 -1.06066 1.06066 
C -0.77937 1.341951 -0.397805 1.5 0 1.5 
z
" style="stroke: #1f77b4"/>
    </defs>
    <g clip-path="url(#pd6d781f285)">
     <use xlink:href="#m092281f3ac" x="64.030341" y="252.352528" style="fill: #1f77b4; stroke: #1f77b4"/>
     <use xlink:href="#m092281f3ac" x="74.154886" y="133.271439" style="fill: #1f77b4; stroke: #1f77b4"/>
     <use xlink:href="#m092281f3ac" x="84.279432" y="73.643762" style="fill: #1f77b4; stroke: #1f77b4"/>
     <use xlink:href="#m092281f3ac" x="94.403977" y="58.250353" style="fill: #1f77b4; stroke: #1f77b4"/>
     <use xlink:href="#m092281f3ac" x="104.528523" y="34.927886" style="fill: #1f77b4; stroke: #1f77b4"/>
     <use xlink:href="#m092281f3ac" x="114.653068" y="24.820516" style="fill: #1f77b4; stroke: #1f77b4"/>
     <use xlink:href="#m092281f3ac" x="124.777614" y="20.086316" style="fill: #1f77b4; stroke: #1f77b4"/>
     <use xlink:href="#m092281f3ac" x="134.902159" y="18.140357" style="fill: #1f77b4; stroke: #1f77b4"/>
     <use xlink:href="#m092281f3ac" x="145.026705" y="17.762783" style="fill: #1f77b4; stroke: #1f77b4"/>
     <use xlink:href="#m092281f3ac" x="155.15125" y="21.248083" style="fill: #1f77b4; stroke: #1f77b4"/>
     <use xlink:href="#m092281f3ac" x="165.275795" y="17.733739" style="fill: #1f77b4; stroke: #1f77b4"/>
     <use xlink:href="#m092281f3ac" x="175.400341" y="17.239988" style="fill: #1f77b4; stroke: #1f77b4"/>
     <use xlink:href="#m092281f3ac" x="185.524886" y="17.443297" style="fill: #1f77b4; stroke: #1f77b4"/>
     <use xlink:href="#m092281f3ac" x="195.649432" y="16.949546" style="fill: #1f77b4; stroke: #1f77b4"/>
     <use xlink:href="#m092281f3ac" x="205.773977" y="16.891458" style="fill: #1f77b4; stroke: #1f77b4"/>
     <use xlink:href="#m092281f3ac" x="215.898523" y="16.920502" style="fill: #1f77b4; stroke: #1f77b4"/>
     <use xlink:href="#m092281f3ac" x="226.023068" y="16.920502" style="fill: #1f77b4; stroke: #1f77b4"/>
     <use xlink:href="#m092281f3ac" x="236.147614" y="16.862414" style="fill: #1f77b4; stroke: #1f77b4"/>
     <use xlink:href="#m092281f3ac" x="246.272159" y="17.239988" style="fill: #1f77b4; stroke: #1f77b4"/>
     <use xlink:href="#m092281f3ac" x="256.396705" y="17.443297" style="fill: #1f77b4; stroke: #1f77b4"/>
     <use xlink:href="#m092281f3ac" x="266.52125" y="16.920502" style="fill: #1f77b4; stroke: #1f77b4"/>
     <use xlink:href="#m092281f3ac" x="276.645795" y="16.920502" style="fill: #1f77b4; stroke: #1f77b4"/>
     <use xlink:href="#m092281f3ac" x="286.770341" y="16.891458" style="fill: #1f77b4; stroke: #1f77b4"/>
     <use xlink:href="#m092281f3ac" x="296.894886" y="16.78358" style="fill: #1f77b4; stroke: #1f77b4"/>
     <use xlink:href="#m092281f3ac" x="307.019432" y="16.755919" style="fill: #1f77b4; stroke: #1f77b4"/>
     <use xlink:href="#m092281f3ac" x="317.143977" y="16.996017" style="fill: #1f77b4; stroke: #1f77b4"/>
     <use xlink:href="#m092281f3ac" x="327.268523" y="16.717193" style="fill: #1f77b4; stroke: #1f77b4"/>
     <use xlink:href="#m092281f3ac" x="337.393068" y="16.717193" style="fill: #1f77b4; stroke: #1f77b4"/>
     <use xlink:href="#m092281f3ac" x="347.517614" y="17.1819" style="fill: #1f77b4; stroke: #1f77b4"/>
    </g>
   </g>
   <g id="line2d_18">
    <path d="M 64.030341 252.352528 
L 74.154886 187.467857 
L 84.279432 155.548316 
L 94.403977 123.338334 
L 104.528523 89.559966 
L 114.653068 60.167268 
L 124.777614 38.703628 
L 134.902159 27.783021 
L 145.026705 23.571617 
L 155.15125 22.700292 
L 165.275795 20.115361 
L 175.400341 20.521979 
L 185.524886 19.214991 
L 195.649432 19.447345 
L 205.773977 18.140357 
L 215.898523 18.808373 
L 226.023068 17.53043 
L 236.147614 17.937048 
L 246.272159 17.791827 
L 256.396705 17.501386 
L 266.52125 17.791827 
L 276.645795 17.239988 
L 286.770341 17.327121 
L 296.894886 23.542572 
L 307.019432 17.472341 
L 317.143977 17.148706 
L 327.268523 17.08232 
L 337.393068 17.143174 
L 347.517614 17.298076 
L 357.642159 17.1819 
" clip-path="url(#pd6d781f285)" style="fill: none; stroke: #d62728; stroke-width: 1.5; stroke-linecap: square"/>
    <defs>
     <path id="m610daf3221" d="M 0 1.5 
C 0.397805 1.5 0.77937 1.341951 1.06066 1.06066 
C 1.341951 0.77937 1.5 0.397805 1.5 0 
C 1.5 -0.397805 1.341951 -0.77937 1.06066 -1.06066 
C 0.77937 -1.341951 0.397805 -1.5 0 -1.5 
C -0.397805 -1.5 -0.77937 -1.341951 -1.06066 -1.06066 
C -1.341951 -0.77937 -1.5 -0.397805 -1.5 0 
C -1.5 0.397805 -1.341951 0.77937 -1.06066 1.06066 
C -0.77937 1.341951 -0.397805 1.5 0 1.5 
z
" style="stroke: #d62728"/>
    </defs>
    <g clip-path="url(#pd6d781f285)">
     <use xlink:href="#m610daf3221" x="64.030341" y="252.352528" style="fill: #d62728; stroke: #d62728"/>
     <use xlink:href="#m610daf3221" x="74.154886" y="187.467857" style="fill: #d62728; stroke: #d62728"/>
     <use xlink:href="#m610daf3221" x="84.279432" y="155.548316" style="fill: #d62728; stroke: #d62728"/>
     <use xlink:href="#m610daf3221" x="94.403977" y="123.338334" style="fill: #d62728; stroke: #d62728"/>
     <use xlink:href="#m610daf3221" x="104.528523" y="89.559966" style="fill: #d62728; stroke: #d62728"/>
     <use xlink:href="#m610daf3221" x="114.653068" y="60.167268" style="fill: #d62728; stroke: #d62728"/>
     <use xlink:href="#m610daf3221" x="124.777614" y="38.703628" style="fill: #d62728; stroke: #d62728"/>
     <use xlink:href="#m610daf3221" x="134.902159" y="27.783021" style="fill: #d62728; stroke: #d62728"/>
     <use xlink:href="#m610daf3221" x="145.026705" y="23.571617" style="fill: #d62728; stroke: #d62728"/>
     <use xlink:href="#m610daf3221" x="155.15125" y="22.700292" style="fill: #d62728; stroke: #d62728"/>
     <use xlink:href="#m610daf3221" x="165.275795" y="20.115361" style="fill: #d62728; stroke: #d62728"/>
     <use xlink:href="#m610daf3221" x="175.400341" y="20.521979" style="fill: #d62728; stroke: #d62728"/>
     <use xlink:href="#m610daf3221" x="185.524886" y="19.214991" style="fill: #d62728; stroke: #d62728"/>
     <use xlink:href="#m610daf3221" x="195.649432" y="19.447345" style="fill: #d62728; stroke: #d62728"/>
     <use xlink:href="#m610daf3221" x="205.773977" y="18.140357" style="fill: #d62728; stroke: #d62728"/>
     <use xlink:href="#m610daf3221" x="215.898523" y="18.808373" style="fill: #d62728; stroke: #d62728"/>
     <use xlink:href="#m610daf3221" x="226.023068" y="17.53043" style="fill: #d62728; stroke: #d62728"/>
     <use xlink:href="#m610daf3221" x="236.147614" y="17.937048" style="fill: #d62728; stroke: #d62728"/>
     <use xlink:href="#m610daf3221" x="246.272159" y="17.791827" style="fill: #d62728; stroke: #d62728"/>
     <use xlink:href="#m610daf3221" x="256.396705" y="17.501386" style="fill: #d62728; stroke: #d62728"/>
     <use xlink:href="#m610daf3221" x="266.52125" y="17.791827" style="fill: #d62728; stroke: #d62728"/>
     <use xlink:href="#m610daf3221" x="276.645795" y="17.239988" style="fill: #d62728; stroke: #d62728"/>
     <use xlink:href="#m610daf3221" x="286.770341" y="17.327121" style="fill: #d62728; stroke: #d62728"/>
     <use xlink:href="#m610daf3221" x="296.894886" y="23.542572" style="fill: #d62728; stroke: #d62728"/>
     <use xlink:href="#m610daf3221" x="307.019432" y="17.472341" style="fill: #d62728; stroke: #d62728"/>
     <use xlink:href="#m610daf3221" x="317.143977" y="17.148706" style="fill: #d62728; stroke: #d62728"/>
     <use xlink:href="#m610daf3221" x="327.268523" y="17.08232" style="fill: #d62728; stroke: #d62728"/>
     <use xlink:href="#m610daf3221" x="337.393068" y="17.143174" style="fill: #d62728; stroke: #d62728"/>
     <use xlink:href="#m610daf3221" x="347.517614" y="17.298076" style="fill: #d62728; stroke: #d62728"/>
     <use xlink:href="#m610daf3221" x="357.642159" y="17.1819" style="fill: #d62728; stroke: #d62728"/>
    </g>
   </g>
   <g id="line2d_19">
    <path d="M 64.030341 252.352528 
L 74.154886 204.429651 
L 84.279432 165.278112 
L 94.403977 121.886125 
L 104.528523 88.543421 
L 114.653068 49.65328 
L 124.777614 36.55436 
L 134.902159 27.724933 
L 145.026705 23.426396 
L 155.15125 21.538525 
L 165.275795 20.783377 
L 175.400341 20.31867 
L 185.524886 19.737786 
L 195.649432 19.563521 
L 205.773977 19.040726 
L 215.898523 19.011682 
L 226.023068 18.750285 
L 236.147614 18.517931 
L 246.272159 18.285578 
L 256.396705 18.256534 
L 266.52125 17.966092 
L 276.645795 17.849916 
L 286.770341 17.87896 
L 296.894886 17.791827 
L 307.019432 18.024181 
L 317.143977 21.219039 
L 327.268523 21.36426 
L 337.393068 17.472341 
L 347.517614 17.956411 
L 357.642159 17.569155 
L 367.766705 18.22749 
L 377.89125 17.87896 
L 388.015795 17.87896 
L 398.140341 17.762783 
L 408.264886 77.477593 
L 418.389432 17.646606 
L 428.513977 17.1819 
L 438.638523 17.1819 
" clip-path="url(#pd6d781f285)" style="fill: none; stroke: #ff7f0e; stroke-width: 1.5; stroke-linecap: square"/>
    <defs>
     <path id="m6c6335b248" d="M 0 1.5 
C 0.397805 1.5 0.77937 1.341951 1.06066 1.06066 
C 1.341951 0.77937 1.5 0.397805 1.5 0 
C 1.5 -0.397805 1.341951 -0.77937 1.06066 -1.06066 
C 0.77937 -1.341951 0.397805 -1.5 0 -1.5 
C -0.397805 -1.5 -0.77937 -1.341951 -1.06066 -1.06066 
C -1.341951 -0.77937 -1.5 -0.397805 -1.5 0 
C -1.5 0.397805 -1.341951 0.77937 -1.06066 1.06066 
C -0.77937 1.341951 -0.397805 1.5 0 1.5 
z
" style="stroke: #ff7f0e"/>
    </defs>
    <g clip-path="url(#pd6d781f285)">
     <use xlink:href="#m6c6335b248" x="64.030341" y="252.352528" style="fill: #ff7f0e; stroke: #ff7f0e"/>
     <use xlink:href="#m6c6335b248" x="74.154886" y="204.429651" style="fill: #ff7f0e; stroke: #ff7f0e"/>
     <use xlink:href="#m6c6335b248" x="84.279432" y="165.278112" style="fill: #ff7f0e; stroke: #ff7f0e"/>
     <use xlink:href="#m6c6335b248" x="94.403977" y="121.886125" style="fill: #ff7f0e; stroke: #ff7f0e"/>
     <use xlink:href="#m6c6335b248" x="104.528523" y="88.543421" style="fill: #ff7f0e; stroke: #ff7f0e"/>
     <use xlink:href="#m6c6335b248" x="114.653068" y="49.65328" style="fill: #ff7f0e; stroke: #ff7f0e"/>
     <use xlink:href="#m6c6335b248" x="124.777614" y="36.55436" style="fill: #ff7f0e; stroke: #ff7f0e"/>
     <use xlink:href="#m6c6335b248" x="134.902159" y="27.724933" style="fill: #ff7f0e; stroke: #ff7f0e"/>
     <use xlink:href="#m6c6335b248" x="145.026705" y="23.426396" style="fill: #ff7f0e; stroke: #ff7f0e"/>
     <use xlink:href="#m6c6335b248" x="155.15125" y="21.538525" style="fill: #ff7f0e; stroke: #ff7f0e"/>
     <use xlink:href="#m6c6335b248" x="165.275795" y="20.783377" style="fill: #ff7f0e; stroke: #ff7f0e"/>
     <use xlink:href="#m6c6335b248" x="175.400341" y="20.31867" style="fill: #ff7f0e; stroke: #ff7f0e"/>
     <use xlink:href="#m6c6335b248" x="185.524886" y="19.737786" style="fill: #ff7f0e; stroke: #ff7f0e"/>
     <use xlink:href="#m6c6335b248" x="195.649432" y="19.563521" style="fill: #ff7f0e; stroke: #ff7f0e"/>
     <use xlink:href="#m6c6335b248" x="205.773977" y="19.040726" style="fill: #ff7f0e; stroke: #ff7f0e"/>
     <use xlink:href="#m6c6335b248" x="215.898523" y="19.011682" style="fill: #ff7f0e; stroke: #ff7f0e"/>
     <use xlink:href="#m6c6335b248" x="226.023068" y="18.750285" style="fill: #ff7f0e; stroke: #ff7f0e"/>
     <use xlink:href="#m6c6335b248" x="236.147614" y="18.517931" style="fill: #ff7f0e; stroke: #ff7f0e"/>
     <use xlink:href="#m6c6335b248" x="246.272159" y="18.285578" style="fill: #ff7f0e; stroke: #ff7f0e"/>
     <use xlink:href="#m6c6335b248" x="256.396705" y="18.256534" style="fill: #ff7f0e; stroke: #ff7f0e"/>
     <use xlink:href="#m6c6335b248" x="266.52125" y="17.966092" style="fill: #ff7f0e; stroke: #ff7f0e"/>
     <use xlink:href="#m6c6335b248" x="276.645795" y="17.849916" style="fill: #ff7f0e; stroke: #ff7f0e"/>
     <use xlink:href="#m6c6335b248" x="286.770341" y="17.87896" style="fill: #ff7f0e; stroke: #ff7f0e"/>
     <use xlink:href="#m6c6335b248" x="296.894886" y="17.791827" style="fill: #ff7f0e; stroke: #ff7f0e"/>
     <use xlink:href="#m6c6335b248" x="307.019432" y="18.024181" style="fill: #ff7f0e; stroke: #ff7f0e"/>
     <use xlink:href="#m6c6335b248" x="317.143977" y="21.219039" style="fill: #ff7f0e; stroke: #ff7f0e"/>
     <use xlink:href="#m6c6335b248" x="327.268523" y="21.36426" style="fill: #ff7f0e; stroke: #ff7f0e"/>
     <use xlink:href="#m6c6335b248" x="337.393068" y="17.472341" style="fill: #ff7f0e; stroke: #ff7f0e"/>
     <use xlink:href="#m6c6335b248" x="347.517614" y="17.956411" style="fill: #ff7f0e; stroke: #ff7f0e"/>
     <use xlink:href="#m6c6335b248" x="357.642159" y="17.569155" style="fill: #ff7f0e; stroke: #ff7f0e"/>
     <use xlink:href="#m6c6335b248" x="367.766705" y="18.22749" style="fill: #ff7f0e; stroke: #ff7f0e"/>
     <use xlink:href="#m6c6335b248" x="377.89125" y="17.87896" style="fill: #ff7f0e; stroke: #ff7f0e"/>
     <use xlink:href="#m6c6335b248" x="388.015795" y="17.87896" style="fill: #ff7f0e; stroke: #ff7f0e"/>
     <use xlink:href="#m6c6335b248" x="398.140341" y="17.762783" style="fill: #ff7f0e; stroke: #ff7f0e"/>
     <use xlink:href="#m6c6335b248" x="408.264886" y="77.477593" style="fill: #ff7f0e; stroke: #ff7f0e"/>
     <use xlink:href="#m6c6335b248" x="418.389432" y="17.646606" style="fill: #ff7f0e; stroke: #ff7f0e"/>
     <use xlink:href="#m6c6335b248" x="428.513977" y="17.1819" style="fill: #ff7f0e; stroke: #ff7f0e"/>
     <use xlink:href="#m6c6335b248" x="438.638523" y="17.1819" style="fill: #ff7f0e; stroke: #ff7f0e"/>
    </g>
   </g>
   <g id="line2d_20">
    <path d="M 64.030341 252.352528 
L 74.154886 215.263126 
L 84.279432 216.599157 
L 94.403977 188.252049 
L 104.528523 184.331087 
L 114.653068 163.274065 
L 124.777614 180.874831 
L 134.902159 163.012667 
L 145.026705 158.743175 
L 155.15125 164.000169 
L 165.275795 150.088013 
L 175.400341 160.079206 
L 185.524886 153.805666 
L 195.649432 154.473682 
L 205.773977 145.644255 
L 215.898523 145.12146 
L 226.023068 147.241684 
L 236.147614 147.270728 
L 246.272159 150.494631 
L 256.396705 143.37881 
L 266.52125 153.340959 
L 276.645795 145.992785 
L 286.770341 142.652706 
L 296.894886 142.449396 
L 307.019432 140.827072 
L 317.143977 145.175399 
L 327.268523 141.856066 
L 337.393068 140.251721 
L 347.517614 144.279179 
L 357.642159 138.354169 
L 367.766705 139.980642 
L 377.89125 145.014965 
L 388.015795 139.167405 
L 398.140341 137.308579 
L 408.264886 141.181134 
L 418.389432 135.682105 
L 428.513977 135.023771 
L 438.638523 148.50801 
L 448.763068 139.910936 
L 458.887614 137.819756 
L 469.012159 137.819756 
" clip-path="url(#pd6d781f285)" style="fill: none; stroke-dasharray: 5.55,2.4; stroke-dashoffset: 0; stroke: #7f7f7f; stroke-width: 1.5"/>
    <defs>
     <path id="m146329ca4e" d="M 0 1.5 
C 0.397805 1.5 0.77937 1.341951 1.06066 1.06066 
C 1.341951 0.77937 1.5 0.397805 1.5 0 
C 1.5 -0.397805 1.341951 -0.77937 1.06066 -1.06066 
C 0.77937 -1.341951 0.397805 -1.5 0 -1.5 
C -0.397805 -1.5 -0.77937 -1.341951 -1.06066 -1.06066 
C -1.341951 -0.77937 -1.5 -0.397805 -1.5 0 
C -1.5 0.397805 -1.341951 0.77937 -1.06066 1.06066 
C -0.77937 1.341951 -0.397805 1.5 0 1.5 
z
" style="stroke: #7f7f7f"/>
    </defs>
    <g clip-path="url(#pd6d781f285)">
     <use xlink:href="#m146329ca4e" x="64.030341" y="252.352528" style="fill: #7f7f7f; stroke: #7f7f7f"/>
     <use xlink:href="#m146329ca4e" x="74.154886" y="215.263126" style="fill: #7f7f7f; stroke: #7f7f7f"/>
     <use xlink:href="#m146329ca4e" x="84.279432" y="216.599157" style="fill: #7f7f7f; stroke: #7f7f7f"/>
     <use xlink:href="#m146329ca4e" x="94.403977" y="188.252049" style="fill: #7f7f7f; stroke: #7f7f7f"/>
     <use xlink:href="#m146329ca4e" x="104.528523" y="184.331087" style="fill: #7f7f7f; stroke: #7f7f7f"/>
     <use xlink:href="#m146329ca4e" x="114.653068" y="163.274065" style="fill: #7f7f7f; stroke: #7f7f7f"/>
     <use xlink:href="#m146329ca4e" x="124.777614" y="180.874831" style="fill: #7f7f7f; stroke: #7f7f7f"/>
     <use xlink:href="#m146329ca4e" x="134.902159" y="163.012667" style="fill: #7f7f7f; stroke: #7f7f7f"/>
     <use xlink:href="#m146329ca4e" x="145.026705" y="158.743175" style="fill: #7f7f7f; stroke: #7f7f7f"/>
     <use xlink:href="#m146329ca4e" x="155.15125" y="164.000169" style="fill: #7f7f7f; stroke: #7f7f7f"/>
     <use xlink:href="#m146329ca4e" x="165.275795" y="150.088013" style="fill: #7f7f7f; stroke: #7f7f7f"/>
     <use xlink:href="#m146329ca4e" x="175.400341" y="160.079206" style="fill: #7f7f7f; stroke: #7f7f7f"/>
     <use xlink:href="#m146329ca4e" x="185.524886" y="153.805666" style="fill: #7f7f7f; stroke: #7f7f7f"/>
     <use xlink:href="#m146329ca4e" x="195.649432" y="154.473682" style="fill: #7f7f7f; stroke: #7f7f7f"/>
     <use xlink:href="#m146329ca4e" x="205.773977" y="145.644255" style="fill: #7f7f7f; stroke: #7f7f7f"/>
     <use xlink:href="#m146329ca4e" x="215.898523" y="145.12146" style="fill: #7f7f7f; stroke: #7f7f7f"/>
     <use xlink:href="#m146329ca4e" x="226.023068" y="147.241684" style="fill: #7f7f7f; stroke: #7f7f7f"/>
     <use xlink:href="#m146329ca4e" x="236.147614" y="147.270728" style="fill: #7f7f7f; stroke: #7f7f7f"/>
     <use xlink:href="#m146329ca4e" x="246.272159" y="150.494631" style="fill: #7f7f7f; stroke: #7f7f7f"/>
     <use xlink:href="#m146329ca4e" x="256.396705" y="143.37881" style="fill: #7f7f7f; stroke: #7f7f7f"/>
     <use xlink:href="#m146329ca4e" x="266.52125" y="153.340959" style="fill: #7f7f7f; stroke: #7f7f7f"/>
     <use xlink:href="#m146329ca4e" x="276.645795" y="145.992785" style="fill: #7f7f7f; stroke: #7f7f7f"/>
     <use xlink:href="#m146329ca4e" x="286.770341" y="142.652706" style="fill: #7f7f7f; stroke: #7f7f7f"/>
     <use xlink:href="#m146329ca4e" x="296.894886" y="142.449396" style="fill: #7f7f7f; stroke: #7f7f7f"/>
     <use xlink:href="#m146329ca4e" x="307.019432" y="140.827072" style="fill: #7f7f7f; stroke: #7f7f7f"/>
     <use xlink:href="#m146329ca4e" x="317.143977" y="145.175399" style="fill: #7f7f7f; stroke: #7f7f7f"/>
     <use xlink:href="#m146329ca4e" x="327.268523" y="141.856066" style="fill: #7f7f7f; stroke: #7f7f7f"/>
     <use xlink:href="#m146329ca4e" x="337.393068" y="140.251721" style="fill: #7f7f7f; stroke: #7f7f7f"/>
     <use xlink:href="#m146329ca4e" x="347.517614" y="144.279179" style="fill: #7f7f7f; stroke: #7f7f7f"/>
     <use xlink:href="#m146329ca4e" x="357.642159" y="138.354169" style="fill: #7f7f7f; stroke: #7f7f7f"/>
     <use xlink:href="#m146329ca4e" x="367.766705" y="139.980642" style="fill: #7f7f7f; stroke: #7f7f7f"/>
     <use xlink:href="#m146329ca4e" x="377.89125" y="145.014965" style="fill: #7f7f7f; stroke: #7f7f7f"/>
     <use xlink:href="#m146329ca4e" x="388.015795" y="139.167405" style="fill: #7f7f7f; stroke: #7f7f7f"/>
     <use xlink:href="#m146329ca4e" x="398.140341" y="137.308579" style="fill: #7f7f7f; stroke: #7f7f7f"/>
     <use xlink:href="#m146329ca4e" x="408.264886" y="141.181134" style="fill: #7f7f7f; stroke: #7f7f7f"/>
     <use xlink:href="#m146329ca4e" x="418.389432" y="135.682105" style="fill: #7f7f7f; stroke: #7f7f7f"/>
     <use xlink:href="#m146329ca4e" x="428.513977" y="135.023771" style="fill: #7f7f7f; stroke: #7f7f7f"/>
     <use xlink:href="#m146329ca4e" x="438.638523" y="148.50801" style="fill: #7f7f7f; stroke: #7f7f7f"/>
     <use xlink:href="#m146329ca4e" x="448.763068" y="139.910936" style="fill: #7f7f7f; stroke: #7f7f7f"/>
     <use xlink:href="#m146329ca4e" x="458.887614" y="137.819756" style="fill: #7f7f7f; stroke: #7f7f7f"/>
     <use xlink:href="#m146329ca4e" x="469.012159" y="137.819756" style="fill: #7f7f7f; stroke: #7f7f7f"/>
    </g>
   </g>
   <g id="line2d_21">
    <path d="M 43.78125 254.647018 
L 489.26125 254.647018 
" clip-path="url(#pd6d781f285)" style="fill: none; stroke-dasharray: 5.55,2.4; stroke-dashoffset: 0; stroke: #808080; stroke-width: 1.5"/>
   </g>
   <g id="patch_3">
    <path d="M 43.78125 278.44 
L 43.78125 7.2 
" style="fill: none; stroke: #000000; stroke-width: 0.8; stroke-linejoin: miter; stroke-linecap: square"/>
   </g>
   <g id="patch_4">
    <path d="M 489.26125 278.44 
L 489.26125 7.2 
" style="fill: none; stroke: #000000; stroke-width: 0.8; stroke-linejoin: miter; stroke-linecap: square"/>
   </g>
   <g id="patch_5">
    <path d="M 43.78125 278.44 
L 489.26125 278.44 
" style="fill: none; stroke: #000000; stroke-width: 0.8; stroke-linejoin: miter; stroke-linecap: square"/>
   </g>
   <g id="patch_6">
    <path d="M 43.78125 7.2 
L 489.26125 7.2 
" style="fill: none; stroke: #000000; stroke-width: 0.8; stroke-linejoin: miter; stroke-linecap: square"/>
   </g>
   <g id="legend_1">
    <g id="patch_7">
     <path d="M 362.6525 274.44 
L 483.66125 274.44 
Q 485.26125 274.44 485.26125 272.84 
L 485.26125 203.185 
Q 485.26125 201.585 483.66125 201.585 
L 362.6525 201.585 
Q 361.0525 201.585 361.0525 203.185 
L 361.0525 272.84 
Q 361.0525 274.44 362.6525 274.44 
z
" style="fill: #ffffff; opacity: 0.8; stroke: #cccccc; stroke-linejoin: miter"/>
    </g>
    <g id="line2d_22">
     <path d="M 364.2525 208.06375 
L 372.2525 208.06375 
L 380.2525 208.06375 
" style="fill: none; stroke: #000000; stroke-width: 1.5; stroke-linecap: square"/>
     <g>
      <use xlink:href="#mb5b9b684fe" x="372.2525" y="208.06375" style="stroke: #000000"/>
     </g>
    </g>
    <g id="text_18">
     <!-- BPTT -->
     <g transform="translate(386.6525 210.86375) scale(0.08 -0.08)">
      <defs>
       <path id="DejaVuSans-42" d="M 1259 2228 
L 1259 519 
L 2272 519 
Q 2781 519 3026 730 
Q 3272 941 3272 1375 
Q 3272 1813 3026 2020 
Q 2781 2228 2272 2228 
L 1259 2228 
z
M 1259 4147 
L 1259 2741 
L 2194 2741 
Q 2656 2741 2882 2914 
Q 3109 3088 3109 3444 
Q 3109 3797 2882 3972 
Q 2656 4147 2194 4147 
L 1259 4147 
z
M 628 4666 
L 2241 4666 
Q 2963 4666 3353 4366 
Q 3744 4066 3744 3513 
Q 3744 3084 3544 2831 
Q 3344 2578 2956 2516 
Q 3422 2416 3680 2098 
Q 3938 1781 3938 1306 
Q 3938 681 3513 340 
Q 3088 0 2303 0 
L 628 0 
L 628 4666 
z
" transform="scale(0.015625)"/>
       <path id="DejaVuSans-50" d="M 1259 4147 
L 1259 2394 
L 2053 2394 
Q 2494 2394 2734 2622 
Q 2975 2850 2975 3272 
Q 2975 3691 2734 3919 
Q 2494 4147 2053 4147 
L 1259 4147 
z
M 628 4666 
L 2053 4666 
Q 2838 4666 3239 4311 
Q 3641 3956 3641 3272 
Q 3641 2581 3239 2228 
Q 2838 1875 2053 1875 
L 1259 1875 
L 1259 0 
L 628 0 
L 628 4666 
z
" transform="scale(0.015625)"/>
       <path id="DejaVuSans-54" d="M -19 4666 
L 3928 4666 
L 3928 4134 
L 2272 4134 
L 2272 0 
L 1638 0 
L 1638 4134 
L -19 4134 
L -19 4666 
z
" transform="scale(0.015625)"/>
      </defs>
      <use xlink:href="#DejaVuSans-42"/>
      <use xlink:href="#DejaVuSans-50" transform="translate(68.603516 0)"/>
      <use xlink:href="#DejaVuSans-54" transform="translate(128.90625 0)"/>
      <use xlink:href="#DejaVuSans-54" transform="translate(188.240234 0)"/>
     </g>
    </g>
    <g id="line2d_23">
     <path d="M 364.2525 219.80625 
L 372.2525 219.80625 
L 380.2525 219.80625 
" style="fill: none; stroke: #1f77b4; stroke-width: 1.5; stroke-linecap: square"/>
     <g>
      <use xlink:href="#m092281f3ac" x="372.2525" y="219.80625" style="fill: #1f77b4; stroke: #1f77b4"/>
     </g>
    </g>
    <g id="text_19">
     <!-- full -->
     <g transform="translate(386.6525 222.60625) scale(0.08 -0.08)">
      <defs>
       <path id="DejaVuSans-66" d="M 2375 4863 
L 2375 4384 
L 1825 4384 
Q 1516 4384 1395 4259 
Q 1275 4134 1275 3809 
L 1275 3500 
L 2222 3500 
L 2222 3053 
L 1275 3053 
L 1275 0 
L 697 0 
L 697 3053 
L 147 3053 
L 147 3500 
L 697 3500 
L 697 3744 
Q 697 4328 969 4595 
Q 1241 4863 1831 4863 
L 2375 4863 
z
" transform="scale(0.015625)"/>
      </defs>
      <use xlink:href="#DejaVuSans-66"/>
      <use xlink:href="#DejaVuSans-75" transform="translate(35.205078 0)"/>
      <use xlink:href="#DejaVuSans-6c" transform="translate(98.583984 0)"/>
      <use xlink:href="#DejaVuSans-6c" transform="translate(126.367188 0)"/>
     </g>
    </g>
    <g id="line2d_24">
     <path d="M 364.2525 231.54875 
L 372.2525 231.54875 
L 380.2525 231.54875 
" style="fill: none; stroke: #d62728; stroke-width: 1.5; stroke-linecap: square"/>
     <g>
      <use xlink:href="#m610daf3221" x="372.2525" y="231.54875" style="fill: #d62728; stroke: #d62728"/>
     </g>
    </g>
    <g id="text_20">
     <!-- ablate temporal -->
     <g transform="translate(386.6525 234.34875) scale(0.08 -0.08)">
      <defs>
       <path id="DejaVuSans-62" d="M 3116 1747 
Q 3116 2381 2855 2742 
Q 2594 3103 2138 3103 
Q 1681 3103 1420 2742 
Q 1159 2381 1159 1747 
Q 1159 1113 1420 752 
Q 1681 391 2138 391 
Q 2594 391 2855 752 
Q 3116 1113 3116 1747 
z
M 1159 2969 
Q 1341 3281 1617 3432 
Q 1894 3584 2278 3584 
Q 2916 3584 3314 3078 
Q 3713 2572 3713 1747 
Q 3713 922 3314 415 
Q 2916 -91 2278 -91 
Q 1894 -91 1617 61 
Q 1341 213 1159 525 
L 1159 0 
L 581 0 
L 581 4863 
L 1159 4863 
L 1159 2969 
z
" transform="scale(0.015625)"/>
       <path id="DejaVuSans-6d" d="M 3328 2828 
Q 3544 3216 3844 3400 
Q 4144 3584 4550 3584 
Q 5097 3584 5394 3201 
Q 5691 2819 5691 2113 
L 5691 0 
L 5113 0 
L 5113 2094 
Q 5113 2597 4934 2840 
Q 4756 3084 4391 3084 
Q 3944 3084 3684 2787 
Q 3425 2491 3425 1978 
L 3425 0 
L 2847 0 
L 2847 2094 
Q 2847 2600 2669 2842 
Q 2491 3084 2119 3084 
Q 1678 3084 1418 2786 
Q 1159 2488 1159 1978 
L 1159 0 
L 581 0 
L 581 3500 
L 1159 3500 
L 1159 2956 
Q 1356 3278 1631 3431 
Q 1906 3584 2284 3584 
Q 2666 3584 2933 3390 
Q 3200 3197 3328 2828 
z
" transform="scale(0.015625)"/>
      </defs>
      <use xlink:href="#DejaVuSans-61"/>
      <use xlink:href="#DejaVuSans-62" transform="translate(61.279297 0)"/>
      <use xlink:href="#DejaVuSans-6c" transform="translate(124.755859 0)"/>
      <use xlink:href="#DejaVuSans-61" transform="translate(152.539062 0)"/>
      <use xlink:href="#DejaVuSans-74" transform="translate(213.818359 0)"/>
      <use xlink:href="#DejaVuSans-65" transform="translate(253.027344 0)"/>
      <use xlink:href="#DejaVuSans-20" transform="translate(314.550781 0)"/>
      <use xlink:href="#DejaVuSans-74" transform="translate(346.337891 0)"/>
      <use xlink:href="#DejaVuSans-65" transform="translate(385.546875 0)"/>
      <use xlink:href="#DejaVuSans-6d" transform="translate(447.070312 0)"/>
      <use xlink:href="#DejaVuSans-70" transform="translate(544.482422 0)"/>
      <use xlink:href="#DejaVuSans-6f" transform="translate(607.958984 0)"/>
      <use xlink:href="#DejaVuSans-72" transform="translate(669.140625 0)"/>
      <use xlink:href="#DejaVuSans-61" transform="translate(710.253906 0)"/>
      <use xlink:href="#DejaVuSans-6c" transform="translate(771.533203 0)"/>
     </g>
    </g>
    <g id="line2d_25">
     <path d="M 364.2525 243.29125 
L 372.2525 243.29125 
L 380.2525 243.29125 
" style="fill: none; stroke: #ff7f0e; stroke-width: 1.5; stroke-linecap: square"/>
     <g>
      <use xlink:href="#m6c6335b248" x="372.2525" y="243.29125" style="fill: #ff7f0e; stroke: #ff7f0e"/>
     </g>
    </g>
    <g id="text_21">
     <!-- ablate spatial -->
     <g transform="translate(386.6525 246.09125) scale(0.08 -0.08)">
      <use xlink:href="#DejaVuSans-61"/>
      <use xlink:href="#DejaVuSans-62" transform="translate(61.279297 0)"/>
      <use xlink:href="#DejaVuSans-6c" transform="translate(124.755859 0)"/>
      <use xlink:href="#DejaVuSans-61" transform="translate(152.539062 0)"/>
      <use xlink:href="#DejaVuSans-74" transform="translate(213.818359 0)"/>
      <use xlink:href="#DejaVuSans-65" transform="translate(253.027344 0)"/>
      <use xlink:href="#DejaVuSans-20" transform="translate(314.550781 0)"/>
      <use xlink:href="#DejaVuSans-73" transform="translate(346.337891 0)"/>
      <use xlink:href="#DejaVuSans-70" transform="translate(398.4375 0)"/>
      <use xlink:href="#DejaVuSans-61" transform="translate(461.914062 0)"/>
      <use xlink:href="#DejaVuSans-74" transform="translate(523.193359 0)"/>
      <use xlink:href="#DejaVuSans-69" transform="translate(562.402344 0)"/>
      <use xlink:href="#DejaVuSans-61" transform="translate(590.185547 0)"/>
      <use xlink:href="#DejaVuSans-6c" transform="translate(651.464844 0)"/>
     </g>
    </g>
    <g id="line2d_26">
     <path d="M 364.2525 255.03375 
L 372.2525 255.03375 
L 380.2525 255.03375 
" style="fill: none; stroke-dasharray: 5.55,2.4; stroke-dashoffset: 0; stroke: #7f7f7f; stroke-width: 1.5"/>
     <g>
      <use xlink:href="#m146329ca4e" x="372.2525" y="255.03375" style="fill: #7f7f7f; stroke: #7f7f7f"/>
     </g>
    </g>
    <g id="text_22">
     <!-- readout-only (reservoir) -->
     <g transform="translate(386.6525 257.83375) scale(0.08 -0.08)">
      <defs>
       <path id="DejaVuSans-76" d="M 191 3500 
L 800 3500 
L 1894 563 
L 2988 3500 
L 3597 3500 
L 2284 0 
L 1503 0 
L 191 3500 
z
" transform="scale(0.015625)"/>
      </defs>
      <use xlink:href="#DejaVuSans-72"/>
      <use xlink:href="#DejaVuSans-65" transform="translate(38.863281 0)"/>
      <use xlink:href="#DejaVuSans-61" transform="translate(100.386719 0)"/>
      <use xlink:href="#DejaVuSans-64" transform="translate(161.666016 0)"/>
      <use xlink:href="#DejaVuSans-6f" transform="translate(225.142578 0)"/>
      <use xlink:href="#DejaVuSans-75" transform="translate(286.324219 0)"/>
      <use xlink:href="#DejaVuSans-74" transform="translate(349.703125 0)"/>
      <use xlink:href="#DejaVuSans-2d" transform="translate(388.912109 0)"/>
      <use xlink:href="#DejaVuSans-6f" transform="translate(426.871094 0)"/>
      <use xlink:href="#DejaVuSans-6e" transform="translate(488.052734 0)"/>
      <use xlink:href="#DejaVuSans-6c" transform="translate(551.431641 0)"/>
      <use xlink:href="#DejaVuSans-79" transform="translate(579.214844 0)"/>
      <use xlink:href="#DejaVuSans-20" transform="translate(638.394531 0)"/>
      <use xlink:href="#DejaVuSans-28" transform="translate(670.181641 0)"/>
      <use xlink:href="#DejaVuSans-72" transform="translate(709.195312 0)"/>
      <use xlink:href="#DejaVuSans-65" transform="translate(748.058594 0)"/>
      <use xlink:href="#DejaVuSans-73" transform="translate(809.582031 0)"/>
      <use xlink:href="#DejaVuSans-65" transform="translate(861.681641 0)"/>
      <use xlink:href="#DejaVuSans-72" transform="translate(923.205078 0)"/>
      <use xlink:href="#DejaVuSans-76" transform="translate(964.318359 0)"/>
      <use xlink:href="#DejaVuSans-6f" transform="translate(1023.498047 0)"/>
      <use xlink:href="#DejaVuSans-69" transform="translate(1084.679688 0)"/>
      <use xlink:href="#DejaVuSans-72" transform="translate(1112.462891 0)"/>
      <use xlink:href="#DejaVuSans-29" transform="translate(1153.576172 0)"/>
     </g>
    </g>
    <g id="line2d_27">
     <path d="M 364.2525 266.77625 
L 372.2525 266.77625 
L 380.2525 266.77625 
" style="fill: none; stroke-dasharray: 5.55,2.4; stroke-dashoffset: 0; stroke: #808080; stroke-width: 1.5"/>
    </g>
    <g id="text_23">
     <!-- chance -->
     <g transform="translate(386.6525 269.57625) scale(0.08 -0.08)">
      <use xlink:href="#DejaVuSans-63"/>
      <use xlink:href="#DejaVuSans-68" transform="translate(54.980469 0)"/>
      <use xlink:href="#DejaVuSans-61" transform="translate(118.359375 0)"/>
      <use xlink:href="#DejaVuSans-6e" transform="translate(179.638672 0)"/>
      <use xlink:href="#DejaVuSans-63" transform="translate(243.017578 0)"/>
      <use xlink:href="#DejaVuSans-65" transform="translate(297.998047 0)"/>
     </g>
    </g>
   </g>
  </g>
 </g>
 <defs>
  <clipPath id="pd6d781f285">
   <rect x="43.78125" y="7.2" width="445.48" height="271.24"/>
  </clipPath>
 </defs>
</svg>
