<?xml version="1.0" encoding="utf-8" standalone="no"?>
<!DOCTYPE svg PUBLIC "-//W3C//DTD SVG 1.1//EN"
  "http://www.w3.org/Graphics/SVG/1.1/DTD/svg11.dtd">
<svg xmlns:xlink="http://www.w3.org/1999/xlink" width="856.46125pt" height="322.170062pt" viewBox="0 0 856.46125 322.170062" xmlns="http://www.w3.org/2000/svg" version="1.1">
 <metadata>
  <rdf:RDF xmlns:dc="http://purl.org/dc/elements/1.1/" xmlns:cc="http://creativecommons.org/ns#" xmlns:rdf="http://www.w3.org/1999/02/22-rdf-syntax-ns#">
   <cc:Work>
    <dc:type rdf:resource="http://purl.org/dc/dcmitype/StillImage"/>
    <dc:format>image/svg+xml</dc:format>
    <dc:creator>
     <cc:Agent>
      <dc:title>Matplotlib v3.10.9, https://matplotlib.org/</dc:title>
     </cc:Agent>
    </dc:creator>
   </cc:Work>
  </rdf:RDF>
 </metadata>
 <defs>
  <style type="text/css">*{stroke-linejoin: round; stroke-linecap: butt}</style>
 </defs>
 <g id="figure_1">
  <g id="patch_1">
   <path d="M 0 322.170062 
L 856.46125 322.170062 
L 856.46125 0 
L 0 0 
z
" style="fill: #ffffff"/>
  </g>
  <g id="axes_1">
   <g id="patch_2">
    <path d="M 43.78125 287.094125 
L 439.37125 287.094125 
L 439.37125 22.318125 
L 43.78125 22.318125 
z
" style="fill: #ffffff"/>
   </g>
   <g id="patch_3">
    <path d="M 61.762614 457.917351 
L 114.29244 457.917351 
L 114.29244 30.859286 
L 61.762614 30.859286 
z
" clip-path="url(#p68a2bb8a06)" style="fill: #1f77b4"/>
   </g>
   <g id="patch_4">
    <path d="M 263.800407 457.917351 
L 316.330234 457.917351 
L 316.330234 98.347524 
L 263.800407 98.347524 
z
" clip-path="url(#p68a2bb8a06)" style="fill: #1f77b4"/>
   </g>
   <g id="patch_5">
    <path d="M 114.29244 457.917351 
L 166.822266 457.917351 
L 166.822266 30.859286 
L 114.29244 30.859286 
z
" clip-path="url(#p68a2bb8a06)" style="fill: #d62728"/>
   </g>
   <g id="patch_6">
    <path d="M 316.330234 457.917351 
L 368.86006 457.917351 
L 368.86006 167.264251 
L 316.330234 167.264251 
z
" clip-path="url(#p68a2bb8a06)" style="fill: #d62728"/>
   </g>
   <g id="patch_7">
    <path d="M 166.822266 457.917351 
L 219.352093 457.917351 
L 219.352093 244.388319 
L 166.822266 244.388319 
z
" clip-path="url(#p68a2bb8a06)" style="fill: #ff7f0e"/>
   </g>
   <g id="patch_8">
    <path d="M 368.86006 457.917351 
L 421.389886 457.917351 
L 421.389886 244.388319 
L 368.86006 244.388319 
z
" clip-path="url(#p68a2bb8a06)" style="fill: #ff7f0e"/>
   </g>
   <g id="matplotlib.axis_1">
    <g id="xtick_1">
     <g id="line2d_1">
      <defs>
       <path id="m27cda3270c" d="M 0 0 
L 0 3.5 
" style="stroke: #000000; stroke-width: 0.8"/>
      </defs>
      <g>
       <use xlink:href="#m27cda3270c" x="140.557353" y="287.094125" style="stroke: #000000; stroke-width: 0.8"/>
      </g>
     </g>
     <g id="text_1">
      <!-- binary label -->
      <g transform="translate(111.064384 301.692562) scale(0.1 -0.1)">
       <defs>
        <path id="DejaVuSans-62" d="M 3116 1747 
Q 3116 2381 2855 2742 
Q 2594 3103 2138 3103 
Q 1681 3103 1420 2742 
Q 1159 2381 1159 1747 
Q 1159 1113 1420 752 
Q 1681 391 2138 391 
Q 2594 391 2855 752 
Q 3116 1113 3116 1747 
z
M 1159 2969 
Q 1341 3281 1617 3432 
Q 1894 3584 2278 3584 
Q 2916 3584 3314 3078 
Q 3713 2572 3713 1747 
Q 3713 922 3314 415 
Q 2916 -91 2278 -91 
Q 1894 -91 1617 61 
Q 1341 213 1159 525 
L 1159 0 
L 581 0 
L 581 4863 
L 1159 4863 
L 1159 2969 
z
" transform="scale(0.015625)"/>
        <path id="DejaVuSans-69" d="M 603 3500 
L 1178 3500 
L 1178 0 
L 603 0 
L 603 3500 
z
M 603 4863 
L 1178 4863 
L 1178 4134 
L 603 4134 
L 603 4863 
z
" transform="scale(0.015625)"/>
        <path id="DejaVuSans-6e" d="M 3513 2113 
L 3513 0 
L 2938 0 
L 2938 2094 
Q 2938 2591 2744 2837 
Q 2550 3084 2163 3084 
Q 1697 3084 1428 2787 
Q 1159 2491 1159 1978 
L 1159 0 
L 581 0 
L 581 3500 
L 1159 3500 
L 1159 2956 
Q 1366 3272 1645 3428 
Q 1925 3584 2291 3584 
Q 2894 3584 3203 3211 
Q 3513 2838 3513 2113 
z
" transform="scale(0.015625)"/>
        <path id="DejaVuSans-61" d="M 2194 1759 
Q 1497 1759 1228 1600 
Q 959 1441 959 1056 
Q 959 750 1161 570 
Q 1363 391 1709 391 
Q 2188 391 2477 730 
Q 2766 1069 2766 1631 
L 2766 1759 
L 2194 1759 
z
M 3341 1997 
L 3341 0 
L 2766 0 
L 2766 531 
Q 2569 213 2275 61 
Q 1981 -91 1556 -91 
Q 1019 -91 701 211 
Q 384 513 384 1019 
Q 384 1609 779 1909 
Q 1175 2209 1959 2209 
L 2766 2209 
L 2766 2266 
Q 2766 2663 2505 2880 
Q 2244 3097 1772 3097 
Q 1472 3097 1187 3025 
Q 903 2953 641 2809 
L 641 3341 
Q 956 3463 1253 3523 
Q 1550 3584 1831 3584 
Q 2591 3584 2966 3190 
Q 3341 2797 3341 1997 
z
" transform="scale(0.015625)"/>
        <path id="DejaVuSans-72" d="M 2631 2963 
Q 2534 3019 2420 3045 
Q 2306 3072 2169 3072 
Q 1681 3072 1420 2755 
Q 1159 2438 1159 1844 
L 1159 0 
L 581 0 
L 581 3500 
L 1159 3500 
L 1159 2956 
Q 1341 3275 1631 3429 
Q 1922 3584 2338 3584 
Q 2397 3584 2469 3576 
Q 2541 3569 2628 3553 
L 2631 2963 
z
" transform="scale(0.015625)"/>
        <path id="DejaVuSans-79" d="M 2059 -325 
Q 1816 -950 1584 -1140 
Q 1353 -1331 966 -1331 
L 506 -1331 
L 506 -850 
L 844 -850 
Q 1081 -850 1212 -737 
Q 1344 -625 1503 -206 
L 1606 56 
L 191 3500 
L 800 3500 
L 1894 763 
L 2988 3500 
L 3597 3500 
L 2059 -325 
z
" transform="scale(0.015625)"/>
        <path id="DejaVuSans-20" transform="scale(0.015625)"/>
        <path id="DejaVuSans-6c" d="M 603 4863 
L 1178 4863 
L 1178 0 
L 603 0 
L 603 4863 
z
" transform="scale(0.015625)"/>
        <path id="DejaVuSans-65" d="M 3597 1894 
L 3597 1613 
L 953 1613 
Q 991 1019 1311 708 
Q 1631 397 2203 397 
Q 2534 397 2845 478 
Q 3156 559 3463 722 
L 3463 178 
Q 3153 47 2828 -22 
Q 2503 -91 2169 -91 
Q 1331 -91 842 396 
Q 353 884 353 1716 
Q 353 2575 817 3079 
Q 1281 3584 2069 3584 
Q 2775 3584 3186 3129 
Q 3597 2675 3597 1894 
z
M 3022 2063 
Q 3016 2534 2758 2815 
Q 2500 3097 2075 3097 
Q 1594 3097 1305 2825 
Q 1016 2553 972 2059 
L 3022 2063 
z
" transform="scale(0.015625)"/>
       </defs>
       <use xlink:href="#DejaVuSans-62"/>
       <use xlink:href="#DejaVuSans-69" transform="translate(63.476562 0)"/>
       <use xlink:href="#DejaVuSans-6e" transform="translate(91.259766 0)"/>
       <use xlink:href="#DejaVuSans-61" transform="translate(154.638672 0)"/>
       <use xlink:href="#DejaVuSans-72" transform="translate(215.917969 0)"/>
       <use xlink:href="#DejaVuSans-79" transform="translate(257.03125 0)"/>
       <use xlink:href="#DejaVuSans-20" transform="translate(316.210938 0)"/>
       <use xlink:href="#DejaVuSans-6c" transform="translate(347.998047 0)"/>
       <use xlink:href="#DejaVuSans-61" transform="translate(375.78125 0)"/>
       <use xlink:href="#DejaVuSans-62" transform="translate(437.060547 0)"/>
       <use xlink:href="#DejaVuSans-65" transform="translate(500.537109 0)"/>
       <use xlink:href="#DejaVuSans-6c" transform="translate(562.060547 0)"/>
      </g>
      <!-- (readout-sign leak) -->
      <g transform="translate(93.055009 312.890375) scale(0.1 -0.1)">
       <defs>
        <path id="DejaVuSans-28" d="M 1984 4856 
Q 1566 4138 1362 3434 
Q 1159 2731 1159 2009 
Q 1159 1288 1364 580 
Q 1569 -128 1984 -844 
L 1484 -844 
Q 1016 -109 783 600 
Q 550 1309 550 2009 
Q 550 2706 781 3412 
Q 1013 4119 1484 4856 
L 1984 4856 
z
" transform="scale(0.015625)"/>
        <path id="DejaVuSans-64" d="M 2906 2969 
L 2906 4863 
L 3481 4863 
L 3481 0 
L 2906 0 
L 2906 525 
Q 2725 213 2448 61 
Q 2172 -91 1784 -91 
Q 1150 -91 751 415 
Q 353 922 353 1747 
Q 353 2572 751 3078 
Q 1150 3584 1784 3584 
Q 2172 3584 2448 3432 
Q 2725 3281 2906 2969 
z
M 947 1747 
Q 947 1113 1208 752 
Q 1469 391 1925 391 
Q 2381 391 2643 752 
Q 2906 1113 2906 1747 
Q 2906 2381 2643 2742 
Q 2381 3103 1925 3103 
Q 1469 3103 1208 2742 
Q 947 2381 947 1747 
z
" transform="scale(0.015625)"/>
        <path id="DejaVuSans-6f" d="M 1959 3097 
Q 1497 3097 1228 2736 
Q 959 2375 959 1747 
Q 959 1119 1226 758 
Q 1494 397 1959 397 
Q 2419 397 2687 759 
Q 2956 1122 2956 1747 
Q 2956 2369 2687 2733 
Q 2419 3097 1959 3097 
z
M 1959 3584 
Q 2709 3584 3137 3096 
Q 3566 2609 3566 1747 
Q 3566 888 3137 398 
Q 2709 -91 1959 -91 
Q 1206 -91 779 398 
Q 353 888 353 1747 
Q 353 2609 779 3096 
Q 1206 3584 1959 3584 
z
" transform="scale(0.015625)"/>
        <path id="DejaVuSans-75" d="M 544 1381 
L 544 3500 
L 1119 3500 
L 1119 1403 
Q 1119 906 1312 657 
Q 1506 409 1894 409 
Q 2359 409 2629 706 
Q 2900 1003 2900 1516 
L 2900 3500 
L 3475 3500 
L 3475 0 
L 2900 0 
L 2900 538 
Q 2691 219 2414 64 
Q 2138 -91 1772 -91 
Q 1169 -91 856 284 
Q 544 659 544 1381 
z
M 1991 3584 
L 1991 3584 
z
" transform="scale(0.015625)"/>
        <path id="DejaVuSans-74" d="M 1172 4494 
L 1172 3500 
L 2356 3500 
L 2356 3053 
L 1172 3053 
L 1172 1153 
Q 1172 725 1289 603 
Q 1406 481 1766 481 
L 2356 481 
L 2356 0 
L 1766 0 
Q 1100 0 847 248 
Q 594 497 594 1153 
L 594 3053 
L 172 3053 
L 172 3500 
L 594 3500 
L 594 4494 
L 1172 4494 
z
" transform="scale(0.015625)"/>
        <path id="DejaVuSans-2d" d="M 313 2009 
L 1997 2009 
L 1997 1497 
L 313 1497 
L 313 2009 
z
" transform="scale(0.015625)"/>
        <path id="DejaVuSans-73" d="M 2834 3397 
L 2834 2853 
Q 2591 2978 2328 3040 
Q 2066 3103 1784 3103 
Q 1356 3103 1142 2972 
Q 928 2841 928 2578 
Q 928 2378 1081 2264 
Q 1234 2150 1697 2047 
L 1894 2003 
Q 2506 1872 2764 1633 
Q 3022 1394 3022 966 
Q 3022 478 2636 193 
Q 2250 -91 1575 -91 
Q 1294 -91 989 -36 
Q 684 19 347 128 
L 347 722 
Q 666 556 975 473 
Q 1284 391 1588 391 
Q 1994 391 2212 530 
Q 2431 669 2431 922 
Q 2431 1156 2273 1281 
Q 2116 1406 1581 1522 
L 1381 1569 
Q 847 1681 609 1914 
Q 372 2147 372 2553 
Q 372 3047 722 3315 
Q 1072 3584 1716 3584 
Q 2034 3584 2315 3537 
Q 2597 3491 2834 3397 
z
" transform="scale(0.015625)"/>
        <path id="DejaVuSans-67" d="M 2906 1791 
Q 2906 2416 2648 2759 
Q 2391 3103 1925 3103 
Q 1463 3103 1205 2759 
Q 947 2416 947 1791 
Q 947 1169 1205 825 
Q 1463 481 1925 481 
Q 2391 481 2648 825 
Q 2906 1169 2906 1791 
z
M 3481 434 
Q 3481 -459 3084 -895 
Q 2688 -1331 1869 -1331 
Q 1566 -1331 1297 -1286 
Q 1028 -1241 775 -1147 
L 775 -588 
Q 1028 -725 1275 -790 
Q 1522 -856 1778 -856 
Q 2344 -856 2625 -561 
Q 2906 -266 2906 331 
L 2906 616 
Q 2728 306 2450 153 
Q 2172 0 1784 0 
Q 1141 0 747 490 
Q 353 981 353 1791 
Q 353 2603 747 3093 
Q 1141 3584 1784 3584 
Q 2172 3584 2450 3431 
Q 2728 3278 2906 2969 
L 2906 3500 
L 3481 3500 
L 3481 434 
z
" transform="scale(0.015625)"/>
        <path id="DejaVuSans-6b" d="M 581 4863 
L 1159 4863 
L 1159 1991 
L 2875 3500 
L 3609 3500 
L 1753 1863 
L 3688 0 
L 2938 0 
L 1159 1709 
L 1159 0 
L 581 0 
L 581 4863 
z
" transform="scale(0.015625)"/>
        <path id="DejaVuSans-29" d="M 513 4856 
L 1013 4856 
Q 1481 4119 1714 3412 
Q 1947 2706 1947 2009 
Q 1947 1309 1714 600 
Q 1481 -109 1013 -844 
L 513 -844 
Q 928 -128 1133 580 
Q 1338 1288 1338 2009 
Q 1338 2731 1133 3434 
Q 928 4138 513 4856 
z
" transform="scale(0.015625)"/>
       </defs>
       <use xlink:href="#DejaVuSans-28"/>
       <use xlink:href="#DejaVuSans-72" transform="translate(39.013672 0)"/>
       <use xlink:href="#DejaVuSans-65" transform="translate(77.876953 0)"/>
       <use xlink:href="#DejaVuSans-61" transform="translate(139.400391 0)"/>
       <use xlink:href="#DejaVuSans-64" transform="translate(200.679688 0)"/>
       <use xlink:href="#DejaVuSans-6f" transform="translate(264.15625 0)"/>
       <use xlink:href="#DejaVuSans-75" transform="translate(325.337891 0)"/>
       <use xlink:href="#DejaVuSans-74" transform="translate(388.716797 0)"/>
       <use xlink:href="#DejaVuSans-2d" transform="translate(427.925781 0)"/>
       <use xlink:href="#DejaVuSans-73" transform="translate(464.009766 0)"/>
       <use xlink:href="#DejaVuSans-69" transform="translate(516.109375 0)"/>
       <use xlink:href="#DejaVuSans-67" transform="translate(543.892578 0)"/>
       <use xlink:href="#DejaVuSans-6e" transform="translate(607.369141 0)"/>
       <use xlink:href="#DejaVuSans-20" transform="translate(670.748047 0)"/>
       <use xlink:href="#DejaVuSans-6c" transform="translate(702.535156 0)"/>
       <use xlink:href="#DejaVuSans-65" transform="translate(730.318359 0)"/>
       <use xlink:href="#DejaVuSans-61" transform="translate(791.841797 0)"/>
       <use xlink:href="#DejaVuSans-6b" transform="translate(853.121094 0)"/>
       <use xlink:href="#DejaVuSans-29" transform="translate(911.03125 0)"/>
      </g>
     </g>
    </g>
    <g id="xtick_2">
     <g id="line2d_2">
      <g>
       <use xlink:href="#m27cda3270c" x="342.595147" y="287.094125" style="stroke: #000000; stroke-width: 0.8"/>
      </g>
     </g>
     <g id="text_2">
      <!-- cue margin -->
      <g transform="translate(314.377178 301.692562) scale(0.1 -0.1)">
       <defs>
        <path id="DejaVuSans-63" d="M 3122 3366 
L 3122 2828 
Q 2878 2963 2633 3030 
Q 2388 3097 2138 3097 
Q 1578 3097 1268 2742 
Q 959 2388 959 1747 
Q 959 1106 1268 751 
Q 1578 397 2138 397 
Q 2388 397 2633 464 
Q 2878 531 3122 666 
L 3122 134 
Q 2881 22 2623 -34 
Q 2366 -91 2075 -91 
Q 1284 -91 818 406 
Q 353 903 353 1747 
Q 353 2603 823 3093 
Q 1294 3584 2113 3584 
Q 2378 3584 2631 3529 
Q 2884 3475 3122 3366 
z
" transform="scale(0.015625)"/>
        <path id="DejaVuSans-6d" d="M 3328 2828 
Q 3544 3216 3844 3400 
Q 4144 3584 4550 3584 
Q 5097 3584 5394 3201 
Q 5691 2819 5691 2113 
L 5691 0 
L 5113 0 
L 5113 2094 
Q 5113 2597 4934 2840 
Q 4756 3084 4391 3084 
Q 3944 3084 3684 2787 
Q 3425 2491 3425 1978 
L 3425 0 
L 2847 0 
L 2847 2094 
Q 2847 2600 2669 2842 
Q 2491 3084 2119 3084 
Q 1678 3084 1418 2786 
Q 1159 2488 1159 1978 
L 1159 0 
L 581 0 
L 581 3500 
L 1159 3500 
L 1159 2956 
Q 1356 3278 1631 3431 
Q 1906 3584 2284 3584 
Q 2666 3584 2933 3390 
Q 3200 3197 3328 2828 
z
" transform="scale(0.015625)"/>
       </defs>
       <use xlink:href="#DejaVuSans-63"/>
       <use xlink:href="#DejaVuSans-75" transform="translate(54.980469 0)"/>
       <use xlink:href="#DejaVuSans-65" transform="translate(118.359375 0)"/>
       <use xlink:href="#DejaVuSans-20" transform="translate(179.882812 0)"/>
       <use xlink:href="#DejaVuSans-6d" transform="translate(211.669922 0)"/>
       <use xlink:href="#DejaVuSans-61" transform="translate(309.082031 0)"/>
       <use xlink:href="#DejaVuSans-72" transform="translate(370.361328 0)"/>
       <use xlink:href="#DejaVuSans-67" transform="translate(409.724609 0)"/>
       <use xlink:href="#DejaVuSans-69" transform="translate(473.201172 0)"/>
       <use xlink:href="#DejaVuSans-6e" transform="translate(500.984375 0)"/>
      </g>
      <!-- (unanimous vs split) -->
      <g transform="translate(291.771709 312.890375) scale(0.1 -0.1)">
       <defs>
        <path id="DejaVuSans-76" d="M 191 3500 
L 800 3500 
L 1894 563 
L 2988 3500 
L 3597 3500 
L 2284 0 
L 1503 0 
L 191 3500 
z
" transform="scale(0.015625)"/>
        <path id="DejaVuSans-70" d="M 1159 525 
L 1159 -1331 
L 581 -1331 
L 581 3500 
L 1159 3500 
L 1159 2969 
Q 1341 3281 1617 3432 
Q 1894 3584 2278 3584 
Q 2916 3584 3314 3078 
Q 3713 2572 3713 1747 
Q 3713 922 3314 415 
Q 2916 -91 2278 -91 
Q 1894 -91 1617 61 
Q 1341 213 1159 525 
z
M 3116 1747 
Q 3116 2381 2855 2742 
Q 2594 3103 2138 3103 
Q 1681 3103 1420 2742 
Q 1159 2381 1159 1747 
Q 1159 1113 1420 752 
Q 1681 391 2138 391 
Q 2594 391 2855 752 
Q 3116 1113 3116 1747 
z
" transform="scale(0.015625)"/>
       </defs>
       <use xlink:href="#DejaVuSans-28"/>
       <use xlink:href="#DejaVuSans-75" transform="translate(39.013672 0)"/>
       <use xlink:href="#DejaVuSans-6e" transform="translate(102.392578 0)"/>
       <use xlink:href="#DejaVuSans-61" transform="translate(165.771484 0)"/>
       <use xlink:href="#DejaVuSans-6e" transform="translate(227.050781 0)"/>
       <use xlink:href="#DejaVuSans-69" transform="translate(290.429688 0)"/>
       <use xlink:href="#DejaVuSans-6d" transform="translate(318.212891 0)"/>
       <use xlink:href="#DejaVuSans-6f" transform="translate(415.625 0)"/>
       <use xlink:href="#DejaVuSans-75" transform="translate(476.806641 0)"/>
       <use xlink:href="#DejaVuSans-73" transform="translate(540.185547 0)"/>
       <use xlink:href="#DejaVuSans-20" transform="translate(592.285156 0)"/>
       <use xlink:href="#DejaVuSans-76" transform="translate(624.072266 0)"/>
       <use xlink:href="#DejaVuSans-73" transform="translate(683.251953 0)"/>
       <use xlink:href="#DejaVuSans-20" transform="translate(735.351562 0)"/>
       <use xlink:href="#DejaVuSans-73" transform="translate(767.138672 0)"/>
       <use xlink:href="#DejaVuSans-70" transform="translate(819.238281 0)"/>
       <use xlink:href="#DejaVuSans-6c" transform="translate(882.714844 0)"/>
       <use xlink:href="#DejaVuSans-69" transform="translate(910.498047 0)"/>
       <use xlink:href="#DejaVuSans-74" transform="translate(938.28125 0)"/>
       <use xlink:href="#DejaVuSans-29" transform="translate(977.490234 0)"/>
      </g>
     </g>
    </g>
   </g>
   <g id="matplotlib.axis_2">
    <g id="ytick_1">
     <g id="line2d_3">
      <defs>
       <path id="m3c3e649a76" d="M 0 0 
L -3.5 0 
" style="stroke: #000000; stroke-width: 0.8"/>
      </defs>
      <g>
       <use xlink:href="#m3c3e649a76" x="43.78125" y="287.094125" style="stroke: #000000; stroke-width: 0.8"/>
      </g>
     </g>
     <g id="text_3">
      <!-- 0.4 -->
      <g transform="translate(20.878125 290.893344) scale(0.1 -0.1)">
       <defs>
        <path id="DejaVuSans-30" d="M 2034 4250 
Q 1547 4250 1301 3770 
Q 1056 3291 1056 2328 
Q 1056 1369 1301 889 
Q 1547 409 2034 409 
Q 2525 409 2770 889 
Q 3016 1369 3016 2328 
Q 3016 3291 2770 3770 
Q 2525 4250 2034 4250 
z
M 2034 4750 
Q 2819 4750 3233 4129 
Q 3647 3509 3647 2328 
Q 3647 1150 3233 529 
Q 2819 -91 2034 -91 
Q 1250 -91 836 529 
Q 422 1150 422 2328 
Q 422 3509 836 4129 
Q 1250 4750 2034 4750 
z
" transform="scale(0.015625)"/>
        <path id="DejaVuSans-2e" d="M 684 794 
L 1344 794 
L 1344 0 
L 684 0 
L 684 794 
z
" transform="scale(0.015625)"/>
        <path id="DejaVuSans-34" d="M 2419 4116 
L 825 1625 
L 2419 1625 
L 2419 4116 
z
M 2253 4666 
L 3047 4666 
L 3047 1625 
L 3713 1625 
L 3713 1100 
L 3047 1100 
L 3047 0 
L 2419 0 
L 2419 1100 
L 313 1100 
L 313 1709 
L 2253 4666 
z
" transform="scale(0.015625)"/>
       </defs>
       <use xlink:href="#DejaVuSans-30"/>
       <use xlink:href="#DejaVuSans-2e" transform="translate(63.623047 0)"/>
       <use xlink:href="#DejaVuSans-34" transform="translate(95.410156 0)"/>
      </g>
     </g>
    </g>
    <g id="ytick_2">
     <g id="line2d_4">
      <g>
       <use xlink:href="#m3c3e649a76" x="43.78125" y="244.388319" style="stroke: #000000; stroke-width: 0.8"/>
      </g>
     </g>
     <g id="text_4">
      <!-- 0.5 -->
      <g transform="translate(20.878125 248.187537) scale(0.1 -0.1)">
       <defs>
        <path id="DejaVuSans-35" d="M 691 4666 
L 3169 4666 
L 3169 4134 
L 1269 4134 
L 1269 2991 
Q 1406 3038 1543 3061 
Q 1681 3084 1819 3084 
Q 2600 3084 3056 2656 
Q 3513 2228 3513 1497 
Q 3513 744 3044 326 
Q 2575 -91 1722 -91 
Q 1428 -91 1123 -41 
Q 819 9 494 109 
L 494 744 
Q 775 591 1075 516 
Q 1375 441 1709 441 
Q 2250 441 2565 725 
Q 2881 1009 2881 1497 
Q 2881 1984 2565 2268 
Q 2250 2553 1709 2553 
Q 1456 2553 1204 2497 
Q 953 2441 691 2322 
L 691 4666 
z
" transform="scale(0.015625)"/>
       </defs>
       <use xlink:href="#DejaVuSans-30"/>
       <use xlink:href="#DejaVuSans-2e" transform="translate(63.623047 0)"/>
       <use xlink:href="#DejaVuSans-35" transform="translate(95.410156 0)"/>
      </g>
     </g>
    </g>
    <g id="ytick_3">
     <g id="line2d_5">
      <g>
       <use xlink:href="#m3c3e649a76" x="43.78125" y="201.682512" style="stroke: #000000; stroke-width: 0.8"/>
      </g>
     </g>
     <g id="text_5">
      <!-- 0.6 -->
      <g transform="translate(20.878125 205.481731) scale(0.1 -0.1)">
       <defs>
        <path id="DejaVuSans-36" d="M 2113 2584 
Q 1688 2584 1439 2293 
Q 1191 2003 1191 1497 
Q 1191 994 1439 701 
Q 1688 409 2113 409 
Q 2538 409 2786 701 
Q 3034 994 3034 1497 
Q 3034 2003 2786 2293 
Q 2538 2584 2113 2584 
z
M 3366 4563 
L 3366 3988 
Q 3128 4100 2886 4159 
Q 2644 4219 2406 4219 
Q 1781 4219 1451 3797 
Q 1122 3375 1075 2522 
Q 1259 2794 1537 2939 
Q 1816 3084 2150 3084 
Q 2853 3084 3261 2657 
Q 3669 2231 3669 1497 
Q 3669 778 3244 343 
Q 2819 -91 2113 -91 
Q 1303 -91 875 529 
Q 447 1150 447 2328 
Q 447 3434 972 4092 
Q 1497 4750 2381 4750 
Q 2619 4750 2861 4703 
Q 3103 4656 3366 4563 
z
" transform="scale(0.015625)"/>
       </defs>
       <use xlink:href="#DejaVuSans-30"/>
       <use xlink:href="#DejaVuSans-2e" transform="translate(63.623047 0)"/>
       <use xlink:href="#DejaVuSans-36" transform="translate(95.410156 0)"/>
      </g>
     </g>
    </g>
    <g id="ytick_4">
     <g id="line2d_6">
      <g>
       <use xlink:href="#m3c3e649a76" x="43.78125" y="158.976706" style="stroke: #000000; stroke-width: 0.8"/>
      </g>
     </g>
     <g id="text_6">
      <!-- 0.7 -->
      <g transform="translate(20.878125 162.775924) scale(0.1 -0.1)">
       <defs>
        <path id="DejaVuSans-37" d="M 525 4666 
L 3525 4666 
L 3525 4397 
L 1831 0 
L 1172 0 
L 2766 4134 
L 525 4134 
L 525 4666 
z
" transform="scale(0.015625)"/>
       </defs>
       <use xlink:href="#DejaVuSans-30"/>
       <use xlink:href="#DejaVuSans-2e" transform="translate(63.623047 0)"/>
       <use xlink:href="#DejaVuSans-37" transform="translate(95.410156 0)"/>
      </g>
     </g>
    </g>
    <g id="ytick_5">
     <g id="line2d_7">
      <g>
       <use xlink:href="#m3c3e649a76" x="43.78125" y="116.270899" style="stroke: #000000; stroke-width: 0.8"/>
      </g>
     </g>
     <g id="text_7">
      <!-- 0.8 -->
      <g transform="translate(20.878125 120.070118) scale(0.1 -0.1)">
       <defs>
        <path id="DejaVuSans-38" d="M 2034 2216 
Q 1584 2216 1326 1975 
Q 1069 1734 1069 1313 
Q 1069 891 1326 650 
Q 1584 409 2034 409 
Q 2484 409 2743 651 
Q 3003 894 3003 1313 
Q 3003 1734 2745 1975 
Q 2488 2216 2034 2216 
z
M 1403 2484 
Q 997 2584 770 2862 
Q 544 3141 544 3541 
Q 544 4100 942 4425 
Q 1341 4750 2034 4750 
Q 2731 4750 3128 4425 
Q 3525 4100 3525 3541 
Q 3525 3141 3298 2862 
Q 3072 2584 2669 2484 
Q 3125 2378 3379 2068 
Q 3634 1759 3634 1313 
Q 3634 634 3220 271 
Q 2806 -91 2034 -91 
Q 1263 -91 848 271 
Q 434 634 434 1313 
Q 434 1759 690 2068 
Q 947 2378 1403 2484 
z
M 1172 3481 
Q 1172 3119 1398 2916 
Q 1625 2713 2034 2713 
Q 2441 2713 2670 2916 
Q 2900 3119 2900 3481 
Q 2900 3844 2670 4047 
Q 2441 4250 2034 4250 
Q 1625 4250 1398 4047 
Q 1172 3844 1172 3481 
z
" transform="scale(0.015625)"/>
       </defs>
       <use xlink:href="#DejaVuSans-30"/>
       <use xlink:href="#DejaVuSans-2e" transform="translate(63.623047 0)"/>
       <use xlink:href="#DejaVuSans-38" transform="translate(95.410156 0)"/>
      </g>
     </g>
    </g>
    <g id="ytick_6">
     <g id="line2d_8">
      <g>
       <use xlink:href="#m3c3e649a76" x="43.78125" y="73.565093" style="stroke: #000000; stroke-width: 0.8"/>
      </g>
     </g>
     <g id="text_8">
      <!-- 0.9 -->
      <g transform="translate(20.878125 77.364311) scale(0.1 -0.1)">
       <defs>
        <path id="DejaVuSans-39" d="M 703 97 
L 703 672 
Q 941 559 1184 500 
Q 1428 441 1663 441 
Q 2288 441 2617 861 
Q 2947 1281 2994 2138 
Q 2813 1869 2534 1725 
Q 2256 1581 1919 1581 
Q 1219 1581 811 2004 
Q 403 2428 403 3163 
Q 403 3881 828 4315 
Q 1253 4750 1959 4750 
Q 2769 4750 3195 4129 
Q 3622 3509 3622 2328 
Q 3622 1225 3098 567 
Q 2575 -91 1691 -91 
Q 1453 -91 1209 -44 
Q 966 3 703 97 
z
M 1959 2075 
Q 2384 2075 2632 2365 
Q 2881 2656 2881 3163 
Q 2881 3666 2632 3958 
Q 2384 4250 1959 4250 
Q 1534 4250 1286 3958 
Q 1038 3666 1038 3163 
Q 1038 2656 1286 2365 
Q 1534 2075 1959 2075 
z
" transform="scale(0.015625)"/>
       </defs>
       <use xlink:href="#DejaVuSans-30"/>
       <use xlink:href="#DejaVuSans-2e" transform="translate(63.623047 0)"/>
       <use xlink:href="#DejaVuSans-39" transform="translate(95.410156 0)"/>
      </g>
     </g>
    </g>
    <g id="ytick_7">
     <g id="line2d_9">
      <g>
       <use xlink:href="#m3c3e649a76" x="43.78125" y="30.859286" style="stroke: #000000; stroke-width: 0.8"/>
      </g>
     </g>
     <g id="text_9">
      <!-- 1.0 -->
      <g transform="translate(20.878125 34.658505) scale(0.1 -0.1)">
       <defs>
        <path id="DejaVuSans-31" d="M 794 531 
L 1825 531 
L 1825 4091 
L 703 3866 
L 703 4441 
L 1819 4666 
L 2450 4666 
L 2450 531 
L 3481 531 
L 3481 0 
L 794 0 
L 794 531 
z
" transform="scale(0.015625)"/>
       </defs>
       <use xlink:href="#DejaVuSans-31"/>
       <use xlink:href="#DejaVuSans-2e" transform="translate(63.623047 0)"/>
       <use xlink:href="#DejaVuSans-30" transform="translate(95.410156 0)"/>
      </g>
     </g>
    </g>
    <g id="text_10">
     <!-- cross-validated decode accuracy -->
     <g transform="translate(14.798438 236.638156) rotate(-90) scale(0.1 -0.1)">
      <use xlink:href="#DejaVuSans-63"/>
      <use xlink:href="#DejaVuSans-72" transform="translate(54.980469 0)"/>
      <use xlink:href="#DejaVuSans-6f" transform="translate(93.84375 0)"/>
      <use xlink:href="#DejaVuSans-73" transform="translate(155.025391 0)"/>
      <use xlink:href="#DejaVuSans-73" transform="translate(207.125 0)"/>
      <use xlink:href="#DejaVuSans-2d" transform="translate(259.224609 0)"/>
      <use xlink:href="#DejaVuSans-76" transform="translate(292.683594 0)"/>
      <use xlink:href="#DejaVuSans-61" transform="translate(351.863281 0)"/>
      <use xlink:href="#DejaVuSans-6c" transform="translate(413.142578 0)"/>
      <use xlink:href="#DejaVuSans-69" transform="translate(440.925781 0)"/>
      <use xlink:href="#DejaVuSans-64" transform="translate(468.708984 0)"/>
      <use xlink:href="#DejaVuSans-61" transform="translate(532.185547 0)"/>
      <use xlink:href="#DejaVuSans-74" transform="translate(593.464844 0)"/>
      <use xlink:href="#DejaVuSans-65" transform="translate(632.673828 0)"/>
      <use xlink:href="#DejaVuSans-64" transform="translate(694.197266 0)"/>
      <use xlink:href="#DejaVuSans-20" transform="translate(757.673828 0)"/>
      <use xlink:href="#DejaVuSans-64" transform="translate(789.460938 0)"/>
      <use xlink:href="#DejaVuSans-65" transform="translate(852.9375 0)"/>
      <use xlink:href="#DejaVuSans-63" transform="translate(914.460938 0)"/>
      <use xlink:href="#DejaVuSans-6f" transform="translate(969.441406 0)"/>
      <use xlink:href="#DejaVuSans-64" transform="translate(1030.623047 0)"/>
      <use xlink:href="#DejaVuSans-65" transform="translate(1094.099609 0)"/>
      <use xlink:href="#DejaVuSans-20" transform="translate(1155.623047 0)"/>
      <use xlink:href="#DejaVuSans-61" transform="translate(1187.410156 0)"/>
      <use xlink:href="#DejaVuSans-63" transform="translate(1248.689453 0)"/>
      <use xlink:href="#DejaVuSans-63" transform="translate(1303.669922 0)"/>
      <use xlink:href="#DejaVuSans-75" transform="translate(1358.650391 0)"/>
      <use xlink:href="#DejaVuSans-72" transform="translate(1422.029297 0)"/>
      <use xlink:href="#DejaVuSans-61" transform="translate(1463.142578 0)"/>
      <use xlink:href="#DejaVuSans-63" transform="translate(1524.421875 0)"/>
      <use xlink:href="#DejaVuSans-79" transform="translate(1579.402344 0)"/>
     </g>
    </g>
   </g>
   <g id="LineCollection_1">
    <path d="M 88.027527 30.859286 
L 88.027527 30.859286 
" clip-path="url(#p68a2bb8a06)" style="fill: none; stroke: #000000; stroke-width: 1.5"/>
    <path d="M 290.06532 103.186341 
L 290.06532 93.508707 
" clip-path="url(#p68a2bb8a06)" style="fill: none; stroke: #000000; stroke-width: 1.5"/>
   </g>
   <g id="line2d_10">
    <defs>
     <path id="m07fe21eb4d" d="M 4 0 
L -4 -0 
" style="stroke: #000000"/>
    </defs>
    <g clip-path="url(#p68a2bb8a06)">
     <use xlink:href="#m07fe21eb4d" x="88.027527" y="30.859286" style="fill: #1f77b4; stroke: #000000"/>
     <use xlink:href="#m07fe21eb4d" x="290.06532" y="103.186341" style="fill: #1f77b4; stroke: #000000"/>
    </g>
   </g>
   <g id="line2d_11">
    <g clip-path="url(#p68a2bb8a06)">
     <use xlink:href="#m07fe21eb4d" x="88.027527" y="30.859286" style="fill: #1f77b4; stroke: #000000"/>
     <use xlink:href="#m07fe21eb4d" x="290.06532" y="93.508707" style="fill: #1f77b4; stroke: #000000"/>
    </g>
   </g>
   <g id="LineCollection_2">
    <path d="M 140.557353 30.859286 
L 140.557353 30.859286 
" clip-path="url(#p68a2bb8a06)" style="fill: none; stroke: #000000; stroke-width: 1.5"/>
    <path d="M 342.595147 173.234533 
L 342.595147 161.293968 
" clip-path="url(#p68a2bb8a06)" style="fill: none; stroke: #000000; stroke-width: 1.5"/>
   </g>
   <g id="line2d_12">
    <g clip-path="url(#p68a2bb8a06)">
     <use xlink:href="#m07fe21eb4d" x="140.557353" y="30.859286" style="fill: #1f77b4; stroke: #000000"/>
     <use xlink:href="#m07fe21eb4d" x="342.595147" y="173.234533" style="fill: #1f77b4; stroke: #000000"/>
    </g>
   </g>
   <g id="line2d_13">
    <g clip-path="url(#p68a2bb8a06)">
     <use xlink:href="#m07fe21eb4d" x="140.557353" y="30.859286" style="fill: #1f77b4; stroke: #000000"/>
     <use xlink:href="#m07fe21eb4d" x="342.595147" y="161.293968" style="fill: #1f77b4; stroke: #000000"/>
    </g>
   </g>
   <g id="LineCollection_3">
    <path d="M 193.08718 244.388319 
L 193.08718 244.388319 
" clip-path="url(#p68a2bb8a06)" style="fill: none; stroke: #000000; stroke-width: 1.5"/>
    <path d="M 395.124973 244.388319 
L 395.124973 244.388319 
" clip-path="url(#p68a2bb8a06)" style="fill: none; stroke: #000000; stroke-width: 1.5"/>
   </g>
   <g id="line2d_14">
    <g clip-path="url(#p68a2bb8a06)">
     <use xlink:href="#m07fe21eb4d" x="193.08718" y="244.388319" style="fill: #1f77b4; stroke: #000000"/>
     <use xlink:href="#m07fe21eb4d" x="395.124973" y="244.388319" style="fill: #1f77b4; stroke: #000000"/>
    </g>
   </g>
   <g id="line2d_15">
    <g clip-path="url(#p68a2bb8a06)">
     <use xlink:href="#m07fe21eb4d" x="193.08718" y="244.388319" style="fill: #1f77b4; stroke: #000000"/>
     <use xlink:href="#m07fe21eb4d" x="395.124973" y="244.388319" style="fill: #1f77b4; stroke: #000000"/>
    </g>
   </g>
   <g id="line2d_16">
    <path d="M 43.78125 244.388319 
L 439.37125 244.388319 
" clip-path="url(#p68a2bb8a06)" style="fill: none; stroke-dasharray: 3.7,1.6; stroke-dashoffset: 0; stroke: #808080"/>
   </g>
   <g id="line2d_17">
    <path d="M 43.78125 229.248524 
L 439.37125 229.248524 
" clip-path="url(#p68a2bb8a06)" style="fill: none; stroke-dasharray: 1,1.65; stroke-dashoffset: 0; stroke: #808080"/>
   </g>
   <g id="patch_9">
    <path d="M 43.78125 287.094125 
L 43.78125 22.318125 
" style="fill: none; stroke: #000000; stroke-width: 0.8; stroke-linejoin: miter; stroke-linecap: square"/>
   </g>
   <g id="patch_10">
    <path d="M 439.37125 287.094125 
L 439.37125 22.318125 
" style="fill: none; stroke: #000000; stroke-width: 0.8; stroke-linejoin: miter; stroke-linecap: square"/>
   </g>
   <g id="patch_11">
    <path d="M 43.78125 287.094125 
L 439.37125 287.094125 
" style="fill: none; stroke: #000000; stroke-width: 0.8; stroke-linejoin: miter; stroke-linecap: square"/>
   </g>
   <g id="patch_12">
    <path d="M 43.78125 22.318125 
L 439.37125 22.318125 
" style="fill: none; stroke: #000000; stroke-width: 0.8; stroke-linejoin: miter; stroke-linecap: square"/>
   </g>
   <g id="text_11">
    <!-- input-adjacent (lower) layer -->
    <g transform="translate(158.050625 16.318125) scale(0.12 -0.12)">
     <defs>
      <path id="DejaVuSans-6a" d="M 603 3500 
L 1178 3500 
L 1178 -63 
Q 1178 -731 923 -1031 
Q 669 -1331 103 -1331 
L -116 -1331 
L -116 -844 
L 38 -844 
Q 366 -844 484 -692 
Q 603 -541 603 -63 
L 603 3500 
z
M 603 4863 
L 1178 4863 
L 1178 4134 
L 603 4134 
L 603 4863 
z
" transform="scale(0.015625)"/>
      <path id="DejaVuSans-77" d="M 269 3500 
L 844 3500 
L 1563 769 
L 2278 3500 
L 2956 3500 
L 3675 769 
L 4391 3500 
L 4966 3500 
L 4050 0 
L 3372 0 
L 2619 2869 
L 1863 0 
L 1184 0 
L 269 3500 
z
" transform="scale(0.015625)"/>
     </defs>
     <use xlink:href="#DejaVuSans-69"/>
     <use xlink:href="#DejaVuSans-6e" transform="translate(27.783203 0)"/>
     <use xlink:href="#DejaVuSans-70" transform="translate(91.162109 0)"/>
     <use xlink:href="#DejaVuSans-75" transform="translate(154.638672 0)"/>
     <use xlink:href="#DejaVuSans-74" transform="translate(218.017578 0)"/>
     <use xlink:href="#DejaVuSans-2d" transform="translate(257.226562 0)"/>
     <use xlink:href="#DejaVuSans-61" transform="translate(293.310547 0)"/>
     <use xlink:href="#DejaVuSans-64" transform="translate(354.589844 0)"/>
     <use xlink:href="#DejaVuSans-6a" transform="translate(418.066406 0)"/>
     <use xlink:href="#DejaVuSans-61" transform="translate(445.849609 0)"/>
     <use xlink:href="#DejaVuSans-63" transform="translate(507.128906 0)"/>
     <use xlink:href="#DejaVuSans-65" transform="translate(562.109375 0)"/>
     <use xlink:href="#DejaVuSans-6e" transform="translate(623.632812 0)"/>
     <use xlink:href="#DejaVuSans-74" transform="translate(687.011719 0)"/>
     <use xlink:href="#DejaVuSans-20" transform="translate(726.220703 0)"/>
     <use xlink:href="#DejaVuSans-28" transform="translate(758.007812 0)"/>
     <use xlink:href="#DejaVuSans-6c" transform="translate(797.021484 0)"/>
     <use xlink:href="#DejaVuSans-6f" transform="translate(824.804688 0)"/>
     <use xlink:href="#DejaVuSans-77" transform="translate(885.986328 0)"/>
     <use xlink:href="#DejaVuSans-65" transform="translate(967.773438 0)"/>
     <use xlink:href="#DejaVuSans-72" transform="translate(1029.296875 0)"/>
     <use xlink:href="#DejaVuSans-29" transform="translate(1070.410156 0)"/>
     <use xlink:href="#DejaVuSans-20" transform="translate(1109.423828 0)"/>
     <use xlink:href="#DejaVuSans-6c" transform="translate(1141.210938 0)"/>
     <use xlink:href="#DejaVuSans-61" transform="translate(1168.994141 0)"/>
     <use xlink:href="#DejaVuSans-79" transform="translate(1230.273438 0)"/>
     <use xlink:href="#DejaVuSans-65" transform="translate(1289.453125 0)"/>
     <use xlink:href="#DejaVuSans-72" transform="translate(1350.976562 0)"/>
    </g>
   </g>
   <g id="legend_1">
    <g id="patch_13">
     <path d="M 344.225 75.688125 
L 433.77125 75.688125 
Q 435.37125 75.688125 435.37125 74.088125 
L 435.37125 27.918125 
Q 435.37125 26.318125 433.77125 26.318125 
L 344.225 26.318125 
Q 342.625 26.318125 342.625 27.918125 
L 342.625 74.088125 
Q 342.625 75.688125 344.225 75.688125 
z
" style="fill: #ffffff; opacity: 0.8; stroke: #cccccc; stroke-linejoin: miter"/>
    </g>
    <g id="line2d_18">
     <path d="M 345.825 32.796875 
L 353.825 32.796875 
L 361.825 32.796875 
" style="fill: none; stroke-dasharray: 1,1.65; stroke-dashoffset: 0; stroke: #808080"/>
    </g>
    <g id="text_12">
     <!-- perm. 95% -->
     <g transform="translate(368.225 35.596875) scale(0.08 -0.08)">
      <defs>
       <path id="DejaVuSans-25" d="M 4653 2053 
Q 4381 2053 4226 1822 
Q 4072 1591 4072 1178 
Q 4072 772 4226 539 
Q 4381 306 4653 306 
Q 4919 306 5073 539 
Q 5228 772 5228 1178 
Q 5228 1588 5073 1820 
Q 4919 2053 4653 2053 
z
M 4653 2450 
Q 5147 2450 5437 2106 
Q 5728 1763 5728 1178 
Q 5728 594 5436 251 
Q 5144 -91 4653 -91 
Q 4153 -91 3862 251 
Q 3572 594 3572 1178 
Q 3572 1766 3864 2108 
Q 4156 2450 4653 2450 
z
M 1428 4353 
Q 1159 4353 1004 4120 
Q 850 3888 850 3481 
Q 850 3069 1003 2837 
Q 1156 2606 1428 2606 
Q 1700 2606 1854 2837 
Q 2009 3069 2009 3481 
Q 2009 3884 1853 4118 
Q 1697 4353 1428 4353 
z
M 4250 4750 
L 4750 4750 
L 1831 -91 
L 1331 -91 
L 4250 4750 
z
M 1428 4750 
Q 1922 4750 2215 4408 
Q 2509 4066 2509 3481 
Q 2509 2891 2217 2550 
Q 1925 2209 1428 2209 
Q 931 2209 642 2551 
Q 353 2894 353 3481 
Q 353 4063 643 4406 
Q 934 4750 1428 4750 
z
" transform="scale(0.015625)"/>
      </defs>
      <use xlink:href="#DejaVuSans-70"/>
      <use xlink:href="#DejaVuSans-65" transform="translate(63.476562 0)"/>
      <use xlink:href="#DejaVuSans-72" transform="translate(125 0)"/>
      <use xlink:href="#DejaVuSans-6d" transform="translate(164.363281 0)"/>
      <use xlink:href="#DejaVuSans-2e" transform="translate(261.775391 0)"/>
      <use xlink:href="#DejaVuSans-20" transform="translate(293.5625 0)"/>
      <use xlink:href="#DejaVuSans-39" transform="translate(325.349609 0)"/>
      <use xlink:href="#DejaVuSans-35" transform="translate(388.972656 0)"/>
      <use xlink:href="#DejaVuSans-25" transform="translate(452.595703 0)"/>
     </g>
    </g>
    <g id="patch_14">
     <path d="M 345.825 47.339375 
L 361.825 47.339375 
L 361.825 41.739375 
L 345.825 41.739375 
z
" style="fill: #1f77b4"/>
    </g>
    <g id="text_13">
     <!-- full -->
     <g transform="translate(368.225 47.339375) scale(0.08 -0.08)">
      <defs>
       <path id="DejaVuSans-66" d="M 2375 4863 
L 2375 4384 
L 1825 4384 
Q 1516 4384 1395 4259 
Q 1275 4134 1275 3809 
L 1275 3500 
L 2222 3500 
L 2222 3053 
L 1275 3053 
L 1275 0 
L 697 0 
L 697 3053 
L 147 3053 
L 147 3500 
L 697 3500 
L 697 3744 
Q 697 4328 969 4595 
Q 1241 4863 1831 4863 
L 2375 4863 
z
" transform="scale(0.015625)"/>
      </defs>
      <use xlink:href="#DejaVuSans-66"/>
      <use xlink:href="#DejaVuSans-75" transform="translate(35.205078 0)"/>
      <use xlink:href="#DejaVuSans-6c" transform="translate(98.583984 0)"/>
      <use xlink:href="#DejaVuSans-6c" transform="translate(126.367188 0)"/>
     </g>
    </g>
    <g id="patch_15">
     <path d="M 345.825 59.081875 
L 361.825 59.081875 
L 361.825 53.481875 
L 345.825 53.481875 
z
" style="fill: #d62728"/>
    </g>
    <g id="text_14">
     <!-- ablate temporal -->
     <g transform="translate(368.225 59.081875) scale(0.08 -0.08)">
      <use xlink:href="#DejaVuSans-61"/>
      <use xlink:href="#DejaVuSans-62" transform="translate(61.279297 0)"/>
      <use xlink:href="#DejaVuSans-6c" transform="translate(124.755859 0)"/>
      <use xlink:href="#DejaVuSans-61" transform="translate(152.539062 0)"/>
      <use xlink:href="#DejaVuSans-74" transform="translate(213.818359 0)"/>
      <use xlink:href="#DejaVuSans-65" transform="translate(253.027344 0)"/>
      <use xlink:href="#DejaVuSans-20" transform="translate(314.550781 0)"/>
      <use xlink:href="#DejaVuSans-74" transform="translate(346.337891 0)"/>
      <use xlink:href="#DejaVuSans-65" transform="translate(385.546875 0)"/>
      <use xlink:href="#DejaVuSans-6d" transform="translate(447.070312 0)"/>
      <use xlink:href="#DejaVuSans-70" transform="translate(544.482422 0)"/>
      <use xlink:href="#DejaVuSans-6f" transform="translate(607.958984 0)"/>
      <use xlink:href="#DejaVuSans-72" transform="translate(669.140625 0)"/>
      <use xlink:href="#DejaVuSans-61" transform="translate(710.253906 0)"/>
      <use xlink:href="#DejaVuSans-6c" transform="translate(771.533203 0)"/>
     </g>
    </g>
    <g id="patch_16">
     <path d="M 345.825 70.824375 
L 361.825 70.824375 
L 361.825 65.224375 
L 345.825 65.224375 
z
" style="fill: #ff7f0e"/>
    </g>
    <g id="text_15">
     <!-- ablate spatial -->
     <g transform="translate(368.225 70.824375) scale(0.08 -0.08)">
      <use xlink:href="#DejaVuSans-61"/>
      <use xlink:href="#DejaVuSans-62" transform="translate(61.279297 0)"/>
      <use xlink:href="#DejaVuSans-6c" transform="translate(124.755859 0)"/>
      <use xlink:href="#DejaVuSans-61" transform="translate(152.539062 0)"/>
      <use xlink:href="#DejaVuSans-74" transform="translate(213.818359 0)"/>
      <use xlink:href="#DejaVuSans-65" transform="translate(253.027344 0)"/>
      <use xlink:href="#DejaVuSans-20" transform="translate(314.550781 0)"/>
      <use xlink:href="#DejaVuSans-73" transform="translate(346.337891 0)"/>
      <use xlink:href="#DejaVuSans-70" transform="translate(398.4375 0)"/>
      <use xlink:href="#DejaVuSans-61" transform="translate(461.914062 0)"/>
      <use xlink:href="#DejaVuSans-74" transform="translate(523.193359 0)"/>
      <use xlink:href="#DejaVuSans-69" transform="translate(562.402344 0)"/>
      <use xlink:href="#DejaVuSans-61" transform="translate(590.185547 0)"/>
      <use xlink:href="#DejaVuSans-6c" transform="translate(651.464844 0)"/>
     </g>
    </g>
   </g>
  </g>
  <g id="axes_2">
   <g id="patch_17">
    <path d="M 453.67125 287.094125 
L 849.26125 287.094125 
L 849.26125 22.318125 
L 453.67125 22.318125 
z
" style="fill: #ffffff"/>
   </g>
   <g id="patch_18">
    <path d="M 471.652614 457.917351 
L 524.18244 457.917351 
L 524.18244 30.859286 
L 471.652614 30.859286 
z
" clip-path="url(#p43607aaf6a)" style="fill: #1f77b4"/>
   </g>
   <g id="patch_19">
    <path d="M 673.690407 457.917351 
L 726.220234 457.917351 
L 726.220234 141.477066 
L 673.690407 141.477066 
z
" clip-path="url(#p43607aaf6a)" style="fill: #1f77b4"/>
   </g>
   <g id="patch_20">
    <path d="M 524.18244 457.917351 
L 576.712266 457.917351 
L 576.712266 30.859286 
L 524.18244 30.859286 
z
" clip-path="url(#p43607aaf6a)" style="fill: #d62728"/>
   </g>
   <g id="patch_21">
    <path d="M 726.220234 457.917351 
L 778.75006 457.917351 
L 778.75006 141.477066 
L 726.220234 141.477066 
z
" clip-path="url(#p43607aaf6a)" style="fill: #d62728"/>
   </g>
   <g id="patch_22">
    <path d="M 576.712266 457.917351 
L 629.242093 457.917351 
L 629.242093 30.859286 
L 576.712266 30.859286 
z
" clip-path="url(#p43607aaf6a)" style="fill: #ff7f0e"/>
   </g>
   <g id="patch_23">
    <path d="M 778.75006 457.917351 
L 831.279886 457.917351 
L 831.279886 141.477066 
L 778.75006 141.477066 
z
" clip-path="url(#p43607aaf6a)" style="fill: #ff7f0e"/>
   </g>
   <g id="matplotlib.axis_3">
    <g id="xtick_3">
     <g id="line2d_19">
      <g>
       <use xlink:href="#m27cda3270c" x="550.447353" y="287.094125" style="stroke: #000000; stroke-width: 0.8"/>
      </g>
     </g>
     <g id="text_16">
      <!-- binary label -->
      <g transform="translate(520.954384 301.692562) scale(0.1 -0.1)">
       <use xlink:href="#DejaVuSans-62"/>
       <use xlink:href="#DejaVuSans-69" transform="translate(63.476562 0)"/>
       <use xlink:href="#DejaVuSans-6e" transform="translate(91.259766 0)"/>
       <use xlink:href="#DejaVuSans-61" transform="translate(154.638672 0)"/>
       <use xlink:href="#DejaVuSans-72" transform="translate(215.917969 0)"/>
       <use xlink:href="#DejaVuSans-79" transform="translate(257.03125 0)"/>
       <use xlink:href="#DejaVuSans-20" transform="translate(316.210938 0)"/>
       <use xlink:href="#DejaVuSans-6c" transform="translate(347.998047 0)"/>
       <use xlink:href="#DejaVuSans-61" transform="translate(375.78125 0)"/>
       <use xlink:href="#DejaVuSans-62" transform="translate(437.060547 0)"/>
       <use xlink:href="#DejaVuSans-65" transform="translate(500.537109 0)"/>
       <use xlink:href="#DejaVuSans-6c" transform="translate(562.060547 0)"/>
      </g>
      <!-- (readout-sign leak) -->
      <g transform="translate(502.945009 312.890375) scale(0.1 -0.1)">
       <use xlink:href="#DejaVuSans-28"/>
       <use xlink:href="#DejaVuSans-72" transform="translate(39.013672 0)"/>
       <use xlink:href="#DejaVuSans-65" transform="translate(77.876953 0)"/>
       <use xlink:href="#DejaVuSans-61" transform="translate(139.400391 0)"/>
       <use xlink:href="#DejaVuSans-64" transform="translate(200.679688 0)"/>
       <use xlink:href="#DejaVuSans-6f" transform="translate(264.15625 0)"/>
       <use xlink:href="#DejaVuSans-75" transform="translate(325.337891 0)"/>
       <use xlink:href="#DejaVuSans-74" transform="translate(388.716797 0)"/>
       <use xlink:href="#DejaVuSans-2d" transform="translate(427.925781 0)"/>
       <use xlink:href="#DejaVuSans-73" transform="translate(464.009766 0)"/>
       <use xlink:href="#DejaVuSans-69" transform="translate(516.109375 0)"/>
       <use xlink:href="#DejaVuSans-67" transform="translate(543.892578 0)"/>
       <use xlink:href="#DejaVuSans-6e" transform="translate(607.369141 0)"/>
       <use xlink:href="#DejaVuSans-20" transform="translate(670.748047 0)"/>
       <use xlink:href="#DejaVuSans-6c" transform="translate(702.535156 0)"/>
       <use xlink:href="#DejaVuSans-65" transform="translate(730.318359 0)"/>
       <use xlink:href="#DejaVuSans-61" transform="translate(791.841797 0)"/>
       <use xlink:href="#DejaVuSans-6b" transform="translate(853.121094 0)"/>
       <use xlink:href="#DejaVuSans-29" transform="translate(911.03125 0)"/>
      </g>
     </g>
    </g>
    <g id="xtick_4">
     <g id="line2d_20">
      <g>
       <use xlink:href="#m27cda3270c" x="752.485147" y="287.094125" style="stroke: #000000; stroke-width: 0.8"/>
      </g>
     </g>
     <g id="text_17">
      <!-- cue margin -->
      <g transform="translate(724.267178 301.692562) scale(0.1 -0.1)">
       <use xlink:href="#DejaVuSans-63"/>
       <use xlink:href="#DejaVuSans-75" transform="translate(54.980469 0)"/>
       <use xlink:href="#DejaVuSans-65" transform="translate(118.359375 0)"/>
       <use xlink:href="#DejaVuSans-20" transform="translate(179.882812 0)"/>
       <use xlink:href="#DejaVuSans-6d" transform="translate(211.669922 0)"/>
       <use xlink:href="#DejaVuSans-61" transform="translate(309.082031 0)"/>
       <use xlink:href="#DejaVuSans-72" transform="translate(370.361328 0)"/>
       <use xlink:href="#DejaVuSans-67" transform="translate(409.724609 0)"/>
       <use xlink:href="#DejaVuSans-69" transform="translate(473.201172 0)"/>
       <use xlink:href="#DejaVuSans-6e" transform="translate(500.984375 0)"/>
      </g>
      <!-- (unanimous vs split) -->
      <g transform="translate(701.661709 312.890375) scale(0.1 -0.1)">
       <use xlink:href="#DejaVuSans-28"/>
       <use xlink:href="#DejaVuSans-75" transform="translate(39.013672 0)"/>
       <use xlink:href="#DejaVuSans-6e" transform="translate(102.392578 0)"/>
       <use xlink:href="#DejaVuSans-61" transform="translate(165.771484 0)"/>
       <use xlink:href="#DejaVuSans-6e" transform="translate(227.050781 0)"/>
       <use xlink:href="#DejaVuSans-69" transform="translate(290.429688 0)"/>
       <use xlink:href="#DejaVuSans-6d" transform="translate(318.212891 0)"/>
       <use xlink:href="#DejaVuSans-6f" transform="translate(415.625 0)"/>
       <use xlink:href="#DejaVuSans-75" transform="translate(476.806641 0)"/>
       <use xlink:href="#DejaVuSans-73" transform="translate(540.185547 0)"/>
       <use xlink:href="#DejaVuSans-20" transform="translate(592.285156 0)"/>
       <use xlink:href="#DejaVuSans-76" transform="translate(624.072266 0)"/>
       <use xlink:href="#DejaVuSans-73" transform="translate(683.251953 0)"/>
       <use xlink:href="#DejaVuSans-20" transform="translate(735.351562 0)"/>
       <use xlink:href="#DejaVuSans-73" transform="translate(767.138672 0)"/>
       <use xlink:href="#DejaVuSans-70" transform="translate(819.238281 0)"/>
       <use xlink:href="#DejaVuSans-6c" transform="translate(882.714844 0)"/>
       <use xlink:href="#DejaVuSans-69" transform="translate(910.498047 0)"/>
       <use xlink:href="#DejaVuSans-74" transform="translate(938.28125 0)"/>
       <use xlink:href="#DejaVuSans-29" transform="translate(977.490234 0)"/>
      </g>
     </g>
    </g>
   </g>
   <g id="matplotlib.axis_4">
    <g id="ytick_8">
     <g id="line2d_21">
      <g>
       <use xlink:href="#m3c3e649a76" x="453.67125" y="287.094125" style="stroke: #000000; stroke-width: 0.8"/>
      </g>
     </g>
    </g>
    <g id="ytick_9">
     <g id="line2d_22">
      <g>
       <use xlink:href="#m3c3e649a76" x="453.67125" y="244.388319" style="stroke: #000000; stroke-width: 0.8"/>
      </g>
     </g>
    </g>
    <g id="ytick_10">
     <g id="line2d_23">
      <g>
       <use xlink:href="#m3c3e649a76" x="453.67125" y="201.682512" style="stroke: #000000; stroke-width: 0.8"/>
      </g>
     </g>
    </g>
    <g id="ytick_11">
     <g id="line2d_24">
      <g>
       <use xlink:href="#m3c3e649a76" x="453.67125" y="158.976706" style="stroke: #000000; stroke-width: 0.8"/>
      </g>
     </g>
    </g>
    <g id="ytick_12">
     <g id="line2d_25">
      <g>
       <use xlink:href="#m3c3e649a76" x="453.67125" y="116.270899" style="stroke: #000000; stroke-width: 0.8"/>
      </g>
     </g>
    </g>
    <g id="ytick_13">
     <g id="line2d_26">
      <g>
       <use xlink:href="#m3c3e649a76" x="453.67125" y="73.565093" style="stroke: #000000; stroke-width: 0.8"/>
      </g>
     </g>
    </g>
    <g id="ytick_14">
     <g id="line2d_27">
      <g>
       <use xlink:href="#m3c3e649a76" x="453.67125" y="30.859286" style="stroke: #000000; stroke-width: 0.8"/>
      </g>
     </g>
    </g>
   </g>
   <g id="LineCollection_4">
    <path d="M 497.917527 30.859286 
L 497.917527 30.859286 
" clip-path="url(#p43607aaf6a)" style="fill: none; stroke: #000000; stroke-width: 1.5"/>
    <path d="M 699.95532 163.238135 
L 699.95532 119.715997 
" clip-path="url(#p43607aaf6a)" style="fill: none; stroke: #000000; stroke-width: 1.5"/>
   </g>
   <g id="line2d_28">
    <g clip-path="url(#p43607aaf6a)">
     <use xlink:href="#m07fe21eb4d" x="497.917527" y="30.859286" style="fill: #1f77b4; stroke: #000000"/>
     <use xlink:href="#m07fe21eb4d" x="699.95532" y="163.238135" style="fill: #1f77b4; stroke: #000000"/>
    </g>
   </g>
   <g id="line2d_29">
    <g clip-path="url(#p43607aaf6a)">
     <use xlink:href="#m07fe21eb4d" x="497.917527" y="30.859286" style="fill: #1f77b4; stroke: #000000"/>
     <use xlink:href="#m07fe21eb4d" x="699.95532" y="119.715997" style="fill: #1f77b4; stroke: #000000"/>
    </g>
   </g>
   <g id="LineCollection_5">
    <path d="M 550.447353 30.859286 
L 550.447353 30.859286 
" clip-path="url(#p43607aaf6a)" style="fill: none; stroke: #000000; stroke-width: 1.5"/>
    <path d="M 752.485147 163.238135 
L 752.485147 119.715997 
" clip-path="url(#p43607aaf6a)" style="fill: none; stroke: #000000; stroke-width: 1.5"/>
   </g>
   <g id="line2d_30">
    <g clip-path="url(#p43607aaf6a)">
     <use xlink:href="#m07fe21eb4d" x="550.447353" y="30.859286" style="fill: #1f77b4; stroke: #000000"/>
     <use xlink:href="#m07fe21eb4d" x="752.485147" y="163.238135" style="fill: #1f77b4; stroke: #000000"/>
    </g>
   </g>
   <g id="line2d_31">
    <g clip-path="url(#p43607aaf6a)">
     <use xlink:href="#m07fe21eb4d" x="550.447353" y="30.859286" style="fill: #1f77b4; stroke: #000000"/>
     <use xlink:href="#m07fe21eb4d" x="752.485147" y="119.715997" style="fill: #1f77b4; stroke: #000000"/>
    </g>
   </g>
   <g id="LineCollection_6">
    <path d="M 602.97718 30.859286 
L 602.97718 30.859286 
" clip-path="url(#p43607aaf6a)" style="fill: none; stroke: #000000; stroke-width: 1.5"/>
    <path d="M 805.014973 163.238135 
L 805.014973 119.715997 
" clip-path="url(#p43607aaf6a)" style="fill: none; stroke: #000000; stroke-width: 1.5"/>
   </g>
   <g id="line2d_32">
    <g clip-path="url(#p43607aaf6a)">
     <use xlink:href="#m07fe21eb4d" x="602.97718" y="30.859286" style="fill: #1f77b4; stroke: #000000"/>
     <use xlink:href="#m07fe21eb4d" x="805.014973" y="163.238135" style="fill: #1f77b4; stroke: #000000"/>
    </g>
   </g>
   <g id="line2d_33">
    <g clip-path="url(#p43607aaf6a)">
     <use xlink:href="#m07fe21eb4d" x="602.97718" y="30.859286" style="fill: #1f77b4; stroke: #000000"/>
     <use xlink:href="#m07fe21eb4d" x="805.014973" y="119.715997" style="fill: #1f77b4; stroke: #000000"/>
    </g>
   </g>
   <g id="line2d_34">
    <path d="M 453.67125 244.388319 
L 849.26125 244.388319 
" clip-path="url(#p43607aaf6a)" style="fill: none; stroke-dasharray: 3.7,1.6; stroke-dashoffset: 0; stroke: #808080"/>
   </g>
   <g id="line2d_35">
    <path d="M 453.67125 221.519934 
L 849.26125 221.519934 
" clip-path="url(#p43607aaf6a)" style="fill: none; stroke-dasharray: 1,1.65; stroke-dashoffset: 0; stroke: #808080"/>
   </g>
   <g id="patch_24">
    <path d="M 453.67125 287.094125 
L 453.67125 22.318125 
" style="fill: none; stroke: #000000; stroke-width: 0.8; stroke-linejoin: miter; stroke-linecap: square"/>
   </g>
   <g id="patch_25">
    <path d="M 849.26125 287.094125 
L 849.26125 22.318125 
" style="fill: none; stroke: #000000; stroke-width: 0.8; stroke-linejoin: miter; stroke-linecap: square"/>
   </g>
   <g id="patch_26">
    <path d="M 453.67125 287.094125 
L 849.26125 287.094125 
" style="fill: none; stroke: #000000; stroke-width: 0.8; stroke-linejoin: miter; stroke-linecap: square"/>
   </g>
   <g id="patch_27">
    <path d="M 453.67125 22.318125 
L 849.26125 22.318125 
" style="fill: none; stroke: #000000; stroke-width: 0.8; stroke-linejoin: miter; stroke-linecap: square"/>
   </g>
   <g id="text_18">
    <!-- output-adjacent (top) layer -->
    <g transform="translate(570.155 16.318125) scale(0.12 -0.12)">
     <use xlink:href="#DejaVuSans-6f"/>
     <use xlink:href="#DejaVuSans-75" transform="translate(61.181641 0)"/>
     <use xlink:href="#DejaVuSans-74" transform="translate(124.560547 0)"/>
     <use xlink:href="#DejaVuSans-70" transform="translate(163.769531 0)"/>
     <use xlink:href="#DejaVuSans-75" transform="translate(227.246094 0)"/>
     <use xlink:href="#DejaVuSans-74" transform="translate(290.625 0)"/>
     <use xlink:href="#DejaVuSans-2d" transform="translate(329.833984 0)"/>
     <use xlink:href="#DejaVuSans-61" transform="translate(365.917969 0)"/>
     <use xlink:href="#DejaVuSans-64" transform="translate(427.197266 0)"/>
     <use xlink:href="#DejaVuSans-6a" transform="translate(490.673828 0)"/>
     <use xlink:href="#DejaVuSans-61" transform="translate(518.457031 0)"/>
     <use xlink:href="#DejaVuSans-63" transform="translate(579.736328 0)"/>
     <use xlink:href="#DejaVuSans-65" transform="translate(634.716797 0)"/>
     <use xlink:href="#DejaVuSans-6e" transform="translate(696.240234 0)"/>
     <use xlink:href="#DejaVuSans-74" transform="translate(759.619141 0)"/>
     <use xlink:href="#DejaVuSans-20" transform="translate(798.828125 0)"/>
     <use xlink:href="#DejaVuSans-28" transform="translate(830.615234 0)"/>
     <use xlink:href="#DejaVuSans-74" transform="translate(869.628906 0)"/>
     <use xlink:href="#DejaVuSans-6f" transform="translate(908.837891 0)"/>
     <use xlink:href="#DejaVuSans-70" transform="translate(970.019531 0)"/>
     <use xlink:href="#DejaVuSans-29" transform="translate(1033.496094 0)"/>
     <use xlink:href="#DejaVuSans-20" transform="translate(1072.509766 0)"/>
     <use xlink:href="#DejaVuSans-6c" transform="translate(1104.296875 0)"/>
     <use xlink:href="#DejaVuSans-61" transform="translate(1132.080078 0)"/>
     <use xlink:href="#DejaVuSans-79" transform="translate(1193.359375 0)"/>
     <use xlink:href="#DejaVuSans-65" transform="translate(1252.539062 0)"/>
     <use xlink:href="#DejaVuSans-72" transform="translate(1314.0625 0)"/>
    </g>
   </g>
  </g>
 </g>
 <defs>
  <clipPath id="p68a2bb8a06">
   <rect x="43.78125" y="22.318125" width="395.59" height="264.776"/>
  </clipPath>
  <clipPath id="p43607aaf6a">
   <rect x="453.67125" y="22.318125" width="395.59" height="264.776"/>
  </clipPath>
 </defs>
</svg>
