<?xml version="1.0" encoding="utf-8" standalone="no"?>
<!DOCTYPE svg PUBLIC "-//W3C//DTD SVG 1.1//EN"
  "http://www.w3.org/Graphics/SVG/1.1/DTD/svg11.dtd">
<svg xmlns:xlink="http://www.w3.org/1999/xlink" width="496.54125pt" height="337.59625pt" viewBox="0 0 496.54125 337.59625" xmlns="http://www.w3.org/2000/svg" version="1.1">
 <metadata>
  <rdf:RDF xmlns:dc="http://purl.org/dc/elements/1.1/" xmlns:cc="http://creativecommons.org/ns#" xmlns:rdf="http://www.w3.org/1999/02/22-rdf-syntax-ns#">
   <cc:Work>
    <dc:type rdf:resource="http://purl.org/dc/dcmitype/StillImage"/>
    <dc:format>image/svg+xml</dc:format>
    <dc:creator>
     <cc:Agent>
      <dc:title>Matplotlib v3.10.9, https://matplotlib.org/</dc:title>
     </cc:Agent>
    </dc:creator>
   </cc:Work>
  </rdf:RDF>
 </metadata>
 <defs>
  <style type="text/css">*{stroke-linejoin: round; stroke-linecap: butt}</style>
 </defs>
 <g id="figure_1">
  <g id="patch_1">
   <path d="M 0 337.59625 
L 496.54125 337.59625 
L 496.54125 0 
L 0 0 
z
" style="fill: #ffffff"/>
  </g>
  <g id="axes_1">
   <g id="patch_2">
    <path d="M 43.78125 300.04 
L 476.61625 300.04 
L 476.61625 7.2 
L 43.78125 7.2 
z
" style="fill: #ffffff"/>
   </g>
   <g id="FillBetweenPolyCollection_1">
    <path d="M 43.78125 248.043544 
L 43.78125 253.017071 
L 87.06475 53.091149 
L 130.34825 18.601264 
L 173.63175 17.499716 
L 216.91525 17.587364 
L 260.19875 16.793603 
L 303.48225 16.741853 
L 346.76575 16.793603 
L 390.04925 16.741853 
L 433.33275 16.704108 
L 476.61625 16.967112 
L 519.89975 16.646452 
L 563.18325 16.761765 
L 606.46675 16.837255 
L 649.75025 16.741853 
L 693.03375 16.704108 
L 736.31725 16.646452 
L 779.60075 16.704108 
L 822.88425 16.646452 
L 866.16775 16.646452 
L 909.45125 16.646452 
L 952.73475 17.050048 
L 996.01825 16.646452 
L 996.01825 16.646452 
L 996.01825 16.646452 
L 952.73475 16.646452 
L 909.45125 16.646452 
L 866.16775 16.646452 
L 822.88425 16.646452 
L 779.60075 16.646452 
L 736.31725 16.646452 
L 693.03375 16.646452 
L 649.75025 16.666363 
L 606.46675 16.686275 
L 563.18325 16.646452 
L 519.89975 16.646452 
L 476.61625 16.729388 
L 433.33275 16.646452 
L 390.04925 16.666363 
L 346.76575 16.67227 
L 303.48225 16.666363 
L 260.19875 16.67227 
L 216.91525 16.743358 
L 173.63175 16.773348 
L 130.34825 17.055558 
L 87.06475 37.224097 
L 43.78125 248.043544 
z
" clip-path="url(#pffd17aa715)" style="fill-opacity: 0.15; stroke: #000000; stroke-opacity: 0.15"/>
   </g>
   <g id="FillBetweenPolyCollection_2">
    <path d="M 43.78125 248.043544 
L 43.78125 253.017071 
L 87.06475 144.238834 
L 130.34825 80.449177 
L 173.63175 62.928314 
L 216.91525 40.015423 
L 260.19875 27.797329 
L 303.48225 20.991074 
L 346.76575 18.427415 
L 390.04925 18.027453 
L 433.33275 24.753799 
L 476.61625 18.049963 
L 519.89975 17.368624 
L 563.18325 17.564194 
L 606.46675 16.920662 
L 649.75025 16.877078 
L 693.03375 16.916296 
L 736.31725 16.940061 
L 779.60075 16.85126 
L 822.88425 17.460159 
L 866.16775 17.799583 
L 909.45125 16.967112 
L 952.73475 16.989058 
L 996.01825 16.962322 
L 996.01825 16.676521 
L 996.01825 16.676521 
L 952.73475 16.707441 
L 909.45125 16.729388 
L 866.16775 16.934734 
L 822.88425 16.870562 
L 779.60075 16.729926 
L 736.31725 16.756438 
L 693.03375 16.780204 
L 649.75025 16.761765 
L 606.46675 16.833494 
L 563.18325 17.170124 
L 519.89975 16.962097 
L 476.61625 17.26092 
L 433.33275 17.533529 
L 390.04925 17.341087 
L 346.76575 17.69066 
L 303.48225 18.989991 
L 260.19875 21.581756 
L 216.91525 29.428146 
L 173.63175 52.813477 
L 130.34825 65.850594 
L 87.06475 120.429864 
L 43.78125 248.043544 
z
" clip-path="url(#pffd17aa715)" style="fill: #1f77b4; fill-opacity: 0.15; stroke: #1f77b4; stroke-opacity: 0.15"/>
   </g>
   <g id="FillBetweenPolyCollection_3">
    <path d="M 43.78125 248.043544 
L 43.78125 253.017071 
L 87.06475 207.079423 
L 130.34825 174.195712 
L 173.63175 142.547864 
L 216.91525 102.847954 
L 260.19875 66.992254 
L 303.48225 43.082797 
L 346.76575 31.551627 
L 390.04925 26.306941 
L 433.33275 25.017904 
L 476.61625 21.465503 
L 519.89975 21.968163 
L 563.18325 19.958075 
L 606.46675 20.218959 
L 649.75025 18.595385 
L 693.03375 19.611036 
L 736.31725 17.770942 
L 779.60075 18.213326 
L 822.88425 18.146619 
L 866.16775 17.678719 
L 909.45125 18.161693 
L 952.73475 17.407047 
L 996.01825 17.446456 
L 996.01825 17.057236 
L 996.01825 17.057236 
L 952.73475 16.923674 
L 909.45125 17.264503 
L 866.16775 17.170911 
L 822.88425 17.279577 
L 779.60075 17.501153 
L 736.31725 17.136345 
L 693.03375 17.83314 
L 649.75025 17.52269 
L 606.46675 18.493661 
L 563.18325 18.293293 
L 519.89975 18.87775 
L 476.61625 18.573218 
L 433.33275 20.152252 
L 390.04925 20.592912 
L 346.76575 23.708427 
L 303.48225 33.856126 
L 260.19875 52.554871 
L 216.91525 75.047614 
L 173.63175 102.402289 
L 130.34825 134.695572 
L 87.06475 165.176426 
L 43.78125 248.043544 
z
" clip-path="url(#pffd17aa715)" style="fill: #d62728; fill-opacity: 0.15; stroke: #d62728; stroke-opacity: 0.15"/>
   </g>
   <g id="FillBetweenPolyCollection_4">
    <path d="M 43.78125 248.043544 
L 43.78125 253.017071 
L 87.06475 214.696752 
L 130.34825 181.167564 
L 173.63175 132.715135 
L 216.91525 103.653351 
L 260.19875 59.562555 
L 303.48225 46.406015 
L 346.76575 32.060267 
L 390.04925 25.274539 
L 433.33275 22.771587 
L 476.61625 21.920542 
L 519.89975 21.329777 
L 563.18325 20.633677 
L 606.46675 20.470026 
L 649.75025 19.742059 
L 693.03375 19.790586 
L 736.31725 19.377604 
L 779.60075 19.14163 
L 822.88425 18.819168 
L 866.16775 18.798287 
L 909.45125 18.437262 
L 952.73475 18.32281 
L 996.01825 18.322594 
L 996.01825 17.276572 
L 996.01825 17.276572 
L 952.73475 17.218699 
L 909.45125 17.334873 
L 866.16775 17.550414 
L 822.88425 17.58719 
L 779.60075 17.72598 
L 736.31725 17.951259 
L 693.03375 18.057186 
L 649.75025 18.16337 
L 606.46675 18.47322 
L 563.18325 18.655509 
L 519.89975 19.112541 
L 476.61625 19.44428 
L 433.33275 20.092306 
L 390.04925 21.337031 
L 346.76575 23.084474 
L 303.48225 26.266322 
L 260.19875 39.112893 
L 216.91525 72.224237 
L 173.63175 109.35219 
L 130.34825 147.038669 
L 87.06475 191.23053 
L 43.78125 248.043544 
z
" clip-path="url(#pffd17aa715)" style="fill: #ff7f0e; fill-opacity: 0.15; stroke: #ff7f0e; stroke-opacity: 0.15"/>
   </g>
   <g id="matplotlib.axis_1">
    <g id="xtick_1">
     <g id="line2d_1">
      <defs>
       <path id="m27cda3270c" d="M 0 0 
L 0 3.5 
" style="stroke: #000000; stroke-width: 0.8"/>
      </defs>
      <g>
       <use xlink:href="#m27cda3270c" x="43.78125" y="300.04" style="stroke: #000000; stroke-width: 0.8"/>
      </g>
     </g>
     <g id="text_1">
      <!-- 0 -->
      <g transform="translate(40.6 314.638437) scale(0.1 -0.1)">
       <defs>
        <path id="DejaVuSans-30" d="M 2034 4250 
Q 1547 4250 1301 3770 
Q 1056 3291 1056 2328 
Q 1056 1369 1301 889 
Q 1547 409 2034 409 
Q 2525 409 2770 889 
Q 3016 1369 3016 2328 
Q 3016 3291 2770 3770 
Q 2525 4250 2034 4250 
z
M 2034 4750 
Q 2819 4750 3233 4129 
Q 3647 3509 3647 2328 
Q 3647 1150 3233 529 
Q 2819 -91 2034 -91 
Q 1250 -91 836 529 
Q 422 1150 422 2328 
Q 422 3509 836 4129 
Q 1250 4750 2034 4750 
z
" transform="scale(0.015625)"/>
       </defs>
       <use xlink:href="#DejaVuSans-30"/>
      </g>
     </g>
    </g>
    <g id="xtick_2">
     <g id="line2d_2">
      <g>
       <use xlink:href="#m27cda3270c" x="130.34825" y="300.04" style="stroke: #000000; stroke-width: 0.8"/>
      </g>
     </g>
     <g id="text_2">
      <!-- 200 -->
      <g transform="translate(120.8045 314.638437) scale(0.1 -0.1)">
       <defs>
        <path id="DejaVuSans-32" d="M 1228 531 
L 3431 531 
L 3431 0 
L 469 0 
L 469 531 
Q 828 903 1448 1529 
Q 2069 2156 2228 2338 
Q 2531 2678 2651 2914 
Q 2772 3150 2772 3378 
Q 2772 3750 2511 3984 
Q 2250 4219 1831 4219 
Q 1534 4219 1204 4116 
Q 875 4013 500 3803 
L 500 4441 
Q 881 4594 1212 4672 
Q 1544 4750 1819 4750 
Q 2544 4750 2975 4387 
Q 3406 4025 3406 3419 
Q 3406 3131 3298 2873 
Q 3191 2616 2906 2266 
Q 2828 2175 2409 1742 
Q 1991 1309 1228 531 
z
" transform="scale(0.015625)"/>
       </defs>
       <use xlink:href="#DejaVuSans-32"/>
       <use xlink:href="#DejaVuSans-30" transform="translate(63.623047 0)"/>
       <use xlink:href="#DejaVuSans-30" transform="translate(127.246094 0)"/>
      </g>
     </g>
    </g>
    <g id="xtick_3">
     <g id="line2d_3">
      <g>
       <use xlink:href="#m27cda3270c" x="216.91525" y="300.04" style="stroke: #000000; stroke-width: 0.8"/>
      </g>
     </g>
     <g id="text_3">
      <!-- 400 -->
      <g transform="translate(207.3715 314.638437) scale(0.1 -0.1)">
       <defs>
        <path id="DejaVuSans-34" d="M 2419 4116 
L 825 1625 
L 2419 1625 
L 2419 4116 
z
M 2253 4666 
L 3047 4666 
L 3047 1625 
L 3713 1625 
L 3713 1100 
L 3047 1100 
L 3047 0 
L 2419 0 
L 2419 1100 
L 313 1100 
L 313 1709 
L 2253 4666 
z
" transform="scale(0.015625)"/>
       </defs>
       <use xlink:href="#DejaVuSans-34"/>
       <use xlink:href="#DejaVuSans-30" transform="translate(63.623047 0)"/>
       <use xlink:href="#DejaVuSans-30" transform="translate(127.246094 0)"/>
      </g>
     </g>
    </g>
    <g id="xtick_4">
     <g id="line2d_4">
      <g>
       <use xlink:href="#m27cda3270c" x="303.48225" y="300.04" style="stroke: #000000; stroke-width: 0.8"/>
      </g>
     </g>
     <g id="text_4">
      <!-- 600 -->
      <g transform="translate(293.9385 314.638437) scale(0.1 -0.1)">
       <defs>
        <path id="DejaVuSans-36" d="M 2113 2584 
Q 1688 2584 1439 2293 
Q 1191 2003 1191 1497 
Q 1191 994 1439 701 
Q 1688 409 2113 409 
Q 2538 409 2786 701 
Q 3034 994 3034 1497 
Q 3034 2003 2786 2293 
Q 2538 2584 2113 2584 
z
M 3366 4563 
L 3366 3988 
Q 3128 4100 2886 4159 
Q 2644 4219 2406 4219 
Q 1781 4219 1451 3797 
Q 1122 3375 1075 2522 
Q 1259 2794 1537 2939 
Q 1816 3084 2150 3084 
Q 2853 3084 3261 2657 
Q 3669 2231 3669 1497 
Q 3669 778 3244 343 
Q 2819 -91 2113 -91 
Q 1303 -91 875 529 
Q 447 1150 447 2328 
Q 447 3434 972 4092 
Q 1497 4750 2381 4750 
Q 2619 4750 2861 4703 
Q 3103 4656 3366 4563 
z
" transform="scale(0.015625)"/>
       </defs>
       <use xlink:href="#DejaVuSans-36"/>
       <use xlink:href="#DejaVuSans-30" transform="translate(63.623047 0)"/>
       <use xlink:href="#DejaVuSans-30" transform="translate(127.246094 0)"/>
      </g>
     </g>
    </g>
    <g id="xtick_5">
     <g id="line2d_5">
      <g>
       <use xlink:href="#m27cda3270c" x="390.04925" y="300.04" style="stroke: #000000; stroke-width: 0.8"/>
      </g>
     </g>
     <g id="text_5">
      <!-- 800 -->
      <g transform="translate(380.5055 314.638437) scale(0.1 -0.1)">
       <defs>
        <path id="DejaVuSans-38" d="M 2034 2216 
Q 1584 2216 1326 1975 
Q 1069 1734 1069 1313 
Q 1069 891 1326 650 
Q 1584 409 2034 409 
Q 2484 409 2743 651 
Q 3003 894 3003 1313 
Q 3003 1734 2745 1975 
Q 2488 2216 2034 2216 
z
M 1403 2484 
Q 997 2584 770 2862 
Q 544 3141 544 3541 
Q 544 4100 942 4425 
Q 1341 4750 2034 4750 
Q 2731 4750 3128 4425 
Q 3525 4100 3525 3541 
Q 3525 3141 3298 2862 
Q 3072 2584 2669 2484 
Q 3125 2378 3379 2068 
Q 3634 1759 3634 1313 
Q 3634 634 3220 271 
Q 2806 -91 2034 -91 
Q 1263 -91 848 271 
Q 434 634 434 1313 
Q 434 1759 690 2068 
Q 947 2378 1403 2484 
z
M 1172 3481 
Q 1172 3119 1398 2916 
Q 1625 2713 2034 2713 
Q 2441 2713 2670 2916 
Q 2900 3119 2900 3481 
Q 2900 3844 2670 4047 
Q 2441 4250 2034 4250 
Q 1625 4250 1398 4047 
Q 1172 3844 1172 3481 
z
" transform="scale(0.015625)"/>
       </defs>
       <use xlink:href="#DejaVuSans-38"/>
       <use xlink:href="#DejaVuSans-30" transform="translate(63.623047 0)"/>
       <use xlink:href="#DejaVuSans-30" transform="translate(127.246094 0)"/>
      </g>
     </g>
    </g>
    <g id="xtick_6">
     <g id="line2d_6">
      <g>
       <use xlink:href="#m27cda3270c" x="476.61625" y="300.04" style="stroke: #000000; stroke-width: 0.8"/>
      </g>
     </g>
     <g id="text_6">
      <!-- 1000 -->
      <g transform="translate(463.89125 314.638437) scale(0.1 -0.1)">
       <defs>
        <path id="DejaVuSans-31" d="M 794 531 
L 1825 531 
L 1825 4091 
L 703 3866 
L 703 4441 
L 1819 4666 
L 2450 4666 
L 2450 531 
L 3481 531 
L 3481 0 
L 794 0 
L 794 531 
z
" transform="scale(0.015625)"/>
       </defs>
       <use xlink:href="#DejaVuSans-31"/>
       <use xlink:href="#DejaVuSans-30" transform="translate(63.623047 0)"/>
       <use xlink:href="#DejaVuSans-30" transform="translate(127.246094 0)"/>
       <use xlink:href="#DejaVuSans-30" transform="translate(190.869141 0)"/>
      </g>
     </g>
    </g>
    <g id="text_7">
     <!-- training step -->
     <g transform="translate(228.424531 328.316562) scale(0.1 -0.1)">
      <defs>
       <path id="DejaVuSans-74" d="M 1172 4494 
L 1172 3500 
L 2356 3500 
L 2356 3053 
L 1172 3053 
L 1172 1153 
Q 1172 725 1289 603 
Q 1406 481 1766 481 
L 2356 481 
L 2356 0 
L 1766 0 
Q 1100 0 847 248 
Q 594 497 594 1153 
L 594 3053 
L 172 3053 
L 172 3500 
L 594 3500 
L 594 4494 
L 1172 4494 
z
" transform="scale(0.015625)"/>
       <path id="DejaVuSans-72" d="M 2631 2963 
Q 2534 3019 2420 3045 
Q 2306 3072 2169 3072 
Q 1681 3072 1420 2755 
Q 1159 2438 1159 1844 
L 1159 0 
L 581 0 
L 581 3500 
L 1159 3500 
L 1159 2956 
Q 1341 3275 1631 3429 
Q 1922 3584 2338 3584 
Q 2397 3584 2469 3576 
Q 2541 3569 2628 3553 
L 2631 2963 
z
" transform="scale(0.015625)"/>
       <path id="DejaVuSans-61" d="M 2194 1759 
Q 1497 1759 1228 1600 
Q 959 1441 959 1056 
Q 959 750 1161 570 
Q 1363 391 1709 391 
Q 2188 391 2477 730 
Q 2766 1069 2766 1631 
L 2766 1759 
L 2194 1759 
z
M 3341 1997 
L 3341 0 
L 2766 0 
L 2766 531 
Q 2569 213 2275 61 
Q 1981 -91 1556 -91 
Q 1019 -91 701 211 
Q 384 513 384 1019 
Q 384 1609 779 1909 
Q 1175 2209 1959 2209 
L 2766 2209 
L 2766 2266 
Q 2766 2663 2505 2880 
Q 2244 3097 1772 3097 
Q 1472 3097 1187 3025 
Q 903 2953 641 2809 
L 641 3341 
Q 956 3463 1253 3523 
Q 1550 3584 1831 3584 
Q 2591 3584 2966 3190 
Q 3341 2797 3341 1997 
z
" transform="scale(0.015625)"/>
       <path id="DejaVuSans-69" d="M 603 3500 
L 1178 3500 
L 1178 0 
L 603 0 
L 603 3500 
z
M 603 4863 
L 1178 4863 
L 1178 4134 
L 603 4134 
L 603 4863 
z
" transform="scale(0.015625)"/>
       <path id="DejaVuSans-6e" d="M 3513 2113 
L 3513 0 
L 2938 0 
L 2938 2094 
Q 2938 2591 2744 2837 
Q 2550 3084 2163 3084 
Q 1697 3084 1428 2787 
Q 1159 2491 1159 1978 
L 1159 0 
L 581 0 
L 581 3500 
L 1159 3500 
L 1159 2956 
Q 1366 3272 1645 3428 
Q 1925 3584 2291 3584 
Q 2894 3584 3203 3211 
Q 3513 2838 3513 2113 
z
" transform="scale(0.015625)"/>
       <path id="DejaVuSans-67" d="M 2906 1791 
Q 2906 2416 2648 2759 
Q 2391 3103 1925 3103 
Q 1463 3103 1205 2759 
Q 947 2416 947 1791 
Q 947 1169 1205 825 
Q 1463 481 1925 481 
Q 2391 481 2648 825 
Q 2906 1169 2906 1791 
z
M 3481 434 
Q 3481 -459 3084 -895 
Q 2688 -1331 1869 -1331 
Q 1566 -1331 1297 -1286 
Q 1028 -1241 775 -1147 
L 775 -588 
Q 1028 -725 1275 -790 
Q 1522 -856 1778 -856 
Q 2344 -856 2625 -561 
Q 2906 -266 2906 331 
L 2906 616 
Q 2728 306 2450 153 
Q 2172 0 1784 0 
Q 1141 0 747 490 
Q 353 981 353 1791 
Q 353 2603 747 3093 
Q 1141 3584 1784 3584 
Q 2172 3584 2450 3431 
Q 2728 3278 2906 2969 
L 2906 3500 
L 3481 3500 
L 3481 434 
z
" transform="scale(0.015625)"/>
       <path id="DejaVuSans-20" transform="scale(0.015625)"/>
       <path id="DejaVuSans-73" d="M 2834 3397 
L 2834 2853 
Q 2591 2978 2328 3040 
Q 2066 3103 1784 3103 
Q 1356 3103 1142 2972 
Q 928 2841 928 2578 
Q 928 2378 1081 2264 
Q 1234 2150 1697 2047 
L 1894 2003 
Q 2506 1872 2764 1633 
Q 3022 1394 3022 966 
Q 3022 478 2636 193 
Q 2250 -91 1575 -91 
Q 1294 -91 989 -36 
Q 684 19 347 128 
L 347 722 
Q 666 556 975 473 
Q 1284 391 1588 391 
Q 1994 391 2212 530 
Q 2431 669 2431 922 
Q 2431 1156 2273 1281 
Q 2116 1406 1581 1522 
L 1381 1569 
Q 847 1681 609 1914 
Q 372 2147 372 2553 
Q 372 3047 722 3315 
Q 1072 3584 1716 3584 
Q 2034 3584 2315 3537 
Q 2597 3491 2834 3397 
z
" transform="scale(0.015625)"/>
       <path id="DejaVuSans-65" d="M 3597 1894 
L 3597 1613 
L 953 1613 
Q 991 1019 1311 708 
Q 1631 397 2203 397 
Q 2534 397 2845 478 
Q 3156 559 3463 722 
L 3463 178 
Q 3153 47 2828 -22 
Q 2503 -91 2169 -91 
Q 1331 -91 842 396 
Q 353 884 353 1716 
Q 353 2575 817 3079 
Q 1281 3584 2069 3584 
Q 2775 3584 3186 3129 
Q 3597 2675 3597 1894 
z
M 3022 2063 
Q 3016 2534 2758 2815 
Q 2500 3097 2075 3097 
Q 1594 3097 1305 2825 
Q 1016 2553 972 2059 
L 3022 2063 
z
" transform="scale(0.015625)"/>
       <path id="DejaVuSans-70" d="M 1159 525 
L 1159 -1331 
L 581 -1331 
L 581 3500 
L 1159 3500 
L 1159 2969 
Q 1341 3281 1617 3432 
Q 1894 3584 2278 3584 
Q 2916 3584 3314 3078 
Q 3713 2572 3713 1747 
Q 3713 922 3314 415 
Q 2916 -91 2278 -91 
Q 1894 -91 1617 61 
Q 1341 213 1159 525 
z
M 3116 1747 
Q 3116 2381 2855 2742 
Q 2594 3103 2138 3103 
Q 1681 3103 1420 2742 
Q 1159 2381 1159 1747 
Q 1159 1113 1420 752 
Q 1681 391 2138 391 
Q 2594 391 2855 752 
Q 3116 1113 3116 1747 
z
" transform="scale(0.015625)"/>
      </defs>
      <use xlink:href="#DejaVuSans-74"/>
      <use xlink:href="#DejaVuSans-72" transform="translate(39.208984 0)"/>
      <use xlink:href="#DejaVuSans-61" transform="translate(80.322266 0)"/>
      <use xlink:href="#DejaVuSans-69" transform="translate(141.601562 0)"/>
      <use xlink:href="#DejaVuSans-6e" transform="translate(169.384766 0)"/>
      <use xlink:href="#DejaVuSans-69" transform="translate(232.763672 0)"/>
      <use xlink:href="#DejaVuSans-6e" transform="translate(260.546875 0)"/>
      <use xlink:href="#DejaVuSans-67" transform="translate(323.925781 0)"/>
      <use xlink:href="#DejaVuSans-20" transform="translate(387.402344 0)"/>
      <use xlink:href="#DejaVuSans-73" transform="translate(419.189453 0)"/>
      <use xlink:href="#DejaVuSans-74" transform="translate(471.289062 0)"/>
      <use xlink:href="#DejaVuSans-65" transform="translate(510.498047 0)"/>
      <use xlink:href="#DejaVuSans-70" transform="translate(572.021484 0)"/>
     </g>
    </g>
   </g>
   <g id="matplotlib.axis_2">
    <g id="ytick_1">
     <g id="line2d_7">
      <defs>
       <path id="m3c3e649a76" d="M 0 0 
L -3.5 0 
" style="stroke: #000000; stroke-width: 0.8"/>
      </defs>
      <g>
       <use xlink:href="#m3c3e649a76" x="43.78125" y="300.04" style="stroke: #000000; stroke-width: 0.8"/>
      </g>
     </g>
     <g id="text_8">
      <!-- 0.4 -->
      <g transform="translate(20.878125 303.839219) scale(0.1 -0.1)">
       <defs>
        <path id="DejaVuSans-2e" d="M 684 794 
L 1344 794 
L 1344 0 
L 684 0 
L 684 794 
z
" transform="scale(0.015625)"/>
       </defs>
       <use xlink:href="#DejaVuSans-30"/>
       <use xlink:href="#DejaVuSans-2e" transform="translate(63.623047 0)"/>
       <use xlink:href="#DejaVuSans-34" transform="translate(95.410156 0)"/>
      </g>
     </g>
    </g>
    <g id="ytick_2">
     <g id="line2d_8">
      <g>
       <use xlink:href="#m3c3e649a76" x="43.78125" y="252.807742" style="stroke: #000000; stroke-width: 0.8"/>
      </g>
     </g>
     <g id="text_9">
      <!-- 0.5 -->
      <g transform="translate(20.878125 256.606961) scale(0.1 -0.1)">
       <defs>
        <path id="DejaVuSans-35" d="M 691 4666 
L 3169 4666 
L 3169 4134 
L 1269 4134 
L 1269 2991 
Q 1406 3038 1543 3061 
Q 1681 3084 1819 3084 
Q 2600 3084 3056 2656 
Q 3513 2228 3513 1497 
Q 3513 744 3044 326 
Q 2575 -91 1722 -91 
Q 1428 -91 1123 -41 
Q 819 9 494 109 
L 494 744 
Q 775 591 1075 516 
Q 1375 441 1709 441 
Q 2250 441 2565 725 
Q 2881 1009 2881 1497 
Q 2881 1984 2565 2268 
Q 2250 2553 1709 2553 
Q 1456 2553 1204 2497 
Q 953 2441 691 2322 
L 691 4666 
z
" transform="scale(0.015625)"/>
       </defs>
       <use xlink:href="#DejaVuSans-30"/>
       <use xlink:href="#DejaVuSans-2e" transform="translate(63.623047 0)"/>
       <use xlink:href="#DejaVuSans-35" transform="translate(95.410156 0)"/>
      </g>
     </g>
    </g>
    <g id="ytick_3">
     <g id="line2d_9">
      <g>
       <use xlink:href="#m3c3e649a76" x="43.78125" y="205.575484" style="stroke: #000000; stroke-width: 0.8"/>
      </g>
     </g>
     <g id="text_10">
      <!-- 0.6 -->
      <g transform="translate(20.878125 209.374703) scale(0.1 -0.1)">
       <use xlink:href="#DejaVuSans-30"/>
       <use xlink:href="#DejaVuSans-2e" transform="translate(63.623047 0)"/>
       <use xlink:href="#DejaVuSans-36" transform="translate(95.410156 0)"/>
      </g>
     </g>
    </g>
    <g id="ytick_4">
     <g id="line2d_10">
      <g>
       <use xlink:href="#m3c3e649a76" x="43.78125" y="158.343226" style="stroke: #000000; stroke-width: 0.8"/>
      </g>
     </g>
     <g id="text_11">
      <!-- 0.7 -->
      <g transform="translate(20.878125 162.142445) scale(0.1 -0.1)">
       <defs>
        <path id="DejaVuSans-37" d="M 525 4666 
L 3525 4666 
L 3525 4397 
L 1831 0 
L 1172 0 
L 2766 4134 
L 525 4134 
L 525 4666 
z
" transform="scale(0.015625)"/>
       </defs>
       <use xlink:href="#DejaVuSans-30"/>
       <use xlink:href="#DejaVuSans-2e" transform="translate(63.623047 0)"/>
       <use xlink:href="#DejaVuSans-37" transform="translate(95.410156 0)"/>
      </g>
     </g>
    </g>
    <g id="ytick_5">
     <g id="line2d_11">
      <g>
       <use xlink:href="#m3c3e649a76" x="43.78125" y="111.110968" style="stroke: #000000; stroke-width: 0.8"/>
      </g>
     </g>
     <g id="text_12">
      <!-- 0.8 -->
      <g transform="translate(20.878125 114.910186) scale(0.1 -0.1)">
       <use xlink:href="#DejaVuSans-30"/>
       <use xlink:href="#DejaVuSans-2e" transform="translate(63.623047 0)"/>
       <use xlink:href="#DejaVuSans-38" transform="translate(95.410156 0)"/>
      </g>
     </g>
    </g>
    <g id="ytick_6">
     <g id="line2d_12">
      <g>
       <use xlink:href="#m3c3e649a76" x="43.78125" y="63.87871" style="stroke: #000000; stroke-width: 0.8"/>
      </g>
     </g>
     <g id="text_13">
      <!-- 0.9 -->
      <g transform="translate(20.878125 67.677928) scale(0.1 -0.1)">
       <defs>
        <path id="DejaVuSans-39" d="M 703 97 
L 703 672 
Q 941 559 1184 500 
Q 1428 441 1663 441 
Q 2288 441 2617 861 
Q 2947 1281 2994 2138 
Q 2813 1869 2534 1725 
Q 2256 1581 1919 1581 
Q 1219 1581 811 2004 
Q 403 2428 403 3163 
Q 403 3881 828 4315 
Q 1253 4750 1959 4750 
Q 2769 4750 3195 4129 
Q 3622 3509 3622 2328 
Q 3622 1225 3098 567 
Q 2575 -91 1691 -91 
Q 1453 -91 1209 -44 
Q 966 3 703 97 
z
M 1959 2075 
Q 2384 2075 2632 2365 
Q 2881 2656 2881 3163 
Q 2881 3666 2632 3958 
Q 2384 4250 1959 4250 
Q 1534 4250 1286 3958 
Q 1038 3666 1038 3163 
Q 1038 2656 1286 2365 
Q 1534 2075 1959 2075 
z
" transform="scale(0.015625)"/>
       </defs>
       <use xlink:href="#DejaVuSans-30"/>
       <use xlink:href="#DejaVuSans-2e" transform="translate(63.623047 0)"/>
       <use xlink:href="#DejaVuSans-39" transform="translate(95.410156 0)"/>
      </g>
     </g>
    </g>
    <g id="ytick_7">
     <g id="line2d_13">
      <g>
       <use xlink:href="#m3c3e649a76" x="43.78125" y="16.646452" style="stroke: #000000; stroke-width: 0.8"/>
      </g>
     </g>
     <g id="text_14">
      <!-- 1.0 -->
      <g transform="translate(20.878125 20.44567) scale(0.1 -0.1)">
       <use xlink:href="#DejaVuSans-31"/>
       <use xlink:href="#DejaVuSans-2e" transform="translate(63.623047 0)"/>
       <use xlink:href="#DejaVuSans-30" transform="translate(95.410156 0)"/>
      </g>
     </g>
    </g>
    <g id="text_15">
     <!-- accuracy (held-out) -->
     <g transform="translate(14.798438 202.564531) rotate(-90) scale(0.1 -0.1)">
      <defs>
       <path id="DejaVuSans-63" d="M 3122 3366 
L 3122 2828 
Q 2878 2963 2633 3030 
Q 2388 3097 2138 3097 
Q 1578 3097 1268 2742 
Q 959 2388 959 1747 
Q 959 1106 1268 751 
Q 1578 397 2138 397 
Q 2388 397 2633 464 
Q 2878 531 3122 666 
L 3122 134 
Q 2881 22 2623 -34 
Q 2366 -91 2075 -91 
Q 1284 -91 818 406 
Q 353 903 353 1747 
Q 353 2603 823 3093 
Q 1294 3584 2113 3584 
Q 2378 3584 2631 3529 
Q 2884 3475 3122 3366 
z
" transform="scale(0.015625)"/>
       <path id="DejaVuSans-75" d="M 544 1381 
L 544 3500 
L 1119 3500 
L 1119 1403 
Q 1119 906 1312 657 
Q 1506 409 1894 409 
Q 2359 409 2629 706 
Q 2900 1003 2900 1516 
L 2900 3500 
L 3475 3500 
L 3475 0 
L 2900 0 
L 2900 538 
Q 2691 219 2414 64 
Q 2138 -91 1772 -91 
Q 1169 -91 856 284 
Q 544 659 544 1381 
z
M 1991 3584 
L 1991 3584 
z
" transform="scale(0.015625)"/>
       <path id="DejaVuSans-79" d="M 2059 -325 
Q 1816 -950 1584 -1140 
Q 1353 -1331 966 -1331 
L 506 -1331 
L 506 -850 
L 844 -850 
Q 1081 -850 1212 -737 
Q 1344 -625 1503 -206 
L 1606 56 
L 191 3500 
L 800 3500 
L 1894 763 
L 2988 3500 
L 3597 3500 
L 2059 -325 
z
" transform="scale(0.015625)"/>
       <path id="DejaVuSans-28" d="M 1984 4856 
Q 1566 4138 1362 3434 
Q 1159 2731 1159 2009 
Q 1159 1288 1364 580 
Q 1569 -128 1984 -844 
L 1484 -844 
Q 1016 -109 783 600 
Q 550 1309 550 2009 
Q 550 2706 781 3412 
Q 1013 4119 1484 4856 
L 1984 4856 
z
" transform="scale(0.015625)"/>
       <path id="DejaVuSans-68" d="M 3513 2113 
L 3513 0 
L 2938 0 
L 2938 2094 
Q 2938 2591 2744 2837 
Q 2550 3084 2163 3084 
Q 1697 3084 1428 2787 
Q 1159 2491 1159 1978 
L 1159 0 
L 581 0 
L 581 4863 
L 1159 4863 
L 1159 2956 
Q 1366 3272 1645 3428 
Q 1925 3584 2291 3584 
Q 2894 3584 3203 3211 
Q 3513 2838 3513 2113 
z
" transform="scale(0.015625)"/>
       <path id="DejaVuSans-6c" d="M 603 4863 
L 1178 4863 
L 1178 0 
L 603 0 
L 603 4863 
z
" transform="scale(0.015625)"/>
       <path id="DejaVuSans-64" d="M 2906 2969 
L 2906 4863 
L 3481 4863 
L 3481 0 
L 2906 0 
L 2906 525 
Q 2725 213 2448 61 
Q 2172 -91 1784 -91 
Q 1150 -91 751 415 
Q 353 922 353 1747 
Q 353 2572 751 3078 
Q 1150 3584 1784 3584 
Q 2172 3584 2448 3432 
Q 2725 3281 2906 2969 
z
M 947 1747 
Q 947 1113 1208 752 
Q 1469 391 1925 391 
Q 2381 391 2643 752 
Q 2906 1113 2906 1747 
Q 2906 2381 2643 2742 
Q 2381 3103 1925 3103 
Q 1469 3103 1208 2742 
Q 947 2381 947 1747 
z
" transform="scale(0.015625)"/>
       <path id="DejaVuSans-2d" d="M 313 2009 
L 1997 2009 
L 1997 1497 
L 313 1497 
L 313 2009 
z
" transform="scale(0.015625)"/>
       <path id="DejaVuSans-6f" d="M 1959 3097 
Q 1497 3097 1228 2736 
Q 959 2375 959 1747 
Q 959 1119 1226 758 
Q 1494 397 1959 397 
Q 2419 397 2687 759 
Q 2956 1122 2956 1747 
Q 2956 2369 2687 2733 
Q 2419 3097 1959 3097 
z
M 1959 3584 
Q 2709 3584 3137 3096 
Q 3566 2609 3566 1747 
Q 3566 888 3137 398 
Q 2709 -91 1959 -91 
Q 1206 -91 779 398 
Q 353 888 353 1747 
Q 353 2609 779 3096 
Q 1206 3584 1959 3584 
z
" transform="scale(0.015625)"/>
       <path id="DejaVuSans-29" d="M 513 4856 
L 1013 4856 
Q 1481 4119 1714 3412 
Q 1947 2706 1947 2009 
Q 1947 1309 1714 600 
Q 1481 -109 1013 -844 
L 513 -844 
Q 928 -128 1133 580 
Q 1338 1288 1338 2009 
Q 1338 2731 1133 3434 
Q 928 4138 513 4856 
z
" transform="scale(0.015625)"/>
      </defs>
      <use xlink:href="#DejaVuSans-61"/>
      <use xlink:href="#DejaVuSans-63" transform="translate(61.279297 0)"/>
      <use xlink:href="#DejaVuSans-63" transform="translate(116.259766 0)"/>
      <use xlink:href="#DejaVuSans-75" transform="translate(171.240234 0)"/>
      <use xlink:href="#DejaVuSans-72" transform="translate(234.619141 0)"/>
      <use xlink:href="#DejaVuSans-61" transform="translate(275.732422 0)"/>
      <use xlink:href="#DejaVuSans-63" transform="translate(337.011719 0)"/>
      <use xlink:href="#DejaVuSans-79" transform="translate(391.992188 0)"/>
      <use xlink:href="#DejaVuSans-20" transform="translate(451.171875 0)"/>
      <use xlink:href="#DejaVuSans-28" transform="translate(482.958984 0)"/>
      <use xlink:href="#DejaVuSans-68" transform="translate(521.972656 0)"/>
      <use xlink:href="#DejaVuSans-65" transform="translate(585.351562 0)"/>
      <use xlink:href="#DejaVuSans-6c" transform="translate(646.875 0)"/>
      <use xlink:href="#DejaVuSans-64" transform="translate(674.658203 0)"/>
      <use xlink:href="#DejaVuSans-2d" transform="translate(738.134766 0)"/>
      <use xlink:href="#DejaVuSans-6f" transform="translate(776.09375 0)"/>
      <use xlink:href="#DejaVuSans-75" transform="translate(837.275391 0)"/>
      <use xlink:href="#DejaVuSans-74" transform="translate(900.654297 0)"/>
      <use xlink:href="#DejaVuSans-29" transform="translate(939.863281 0)"/>
     </g>
    </g>
   </g>
   <g id="line2d_14">
    <path d="M 43.78125 250.530308 
L 87.06475 45.157623 
L 130.34825 17.828411 
L 173.63175 17.136532 
L 216.91525 17.165361 
L 260.19875 16.732936 
L 303.48225 16.704108 
L 346.76575 16.732936 
L 390.04925 16.704108 
L 433.33275 16.67528 
L 476.61625 16.84825 
L 497.54125 16.750692 
" clip-path="url(#pffd17aa715)" style="fill: none; stroke: #000000; stroke-width: 1.5; stroke-linecap: square"/>
    <defs>
     <path id="mb5b9b684fe" d="M 0 1.5 
C 0.397805 1.5 0.77937 1.341951 1.06066 1.06066 
C 1.341951 0.77937 1.5 0.397805 1.5 0 
C 1.5 -0.397805 1.341951 -0.77937 1.06066 -1.06066 
C 0.77937 -1.341951 0.397805 -1.5 0 -1.5 
C -0.397805 -1.5 -0.77937 -1.341951 -1.06066 -1.06066 
C -1.341951 -0.77937 -1.5 -0.397805 -1.5 0 
C -1.5 0.397805 -1.341951 0.77937 -1.06066 1.06066 
C -0.77937 1.341951 -0.397805 1.5 0 1.5 
z
" style="stroke: #000000"/>
    </defs>
    <g clip-path="url(#pffd17aa715)">
     <use xlink:href="#mb5b9b684fe" x="43.78125" y="250.530308" style="stroke: #000000"/>
     <use xlink:href="#mb5b9b684fe" x="87.06475" y="45.157623" style="stroke: #000000"/>
     <use xlink:href="#mb5b9b684fe" x="130.34825" y="17.828411" style="stroke: #000000"/>
     <use xlink:href="#mb5b9b684fe" x="173.63175" y="17.136532" style="stroke: #000000"/>
     <use xlink:href="#mb5b9b684fe" x="216.91525" y="17.165361" style="stroke: #000000"/>
     <use xlink:href="#mb5b9b684fe" x="260.19875" y="16.732936" style="stroke: #000000"/>
     <use xlink:href="#mb5b9b684fe" x="303.48225" y="16.704108" style="stroke: #000000"/>
     <use xlink:href="#mb5b9b684fe" x="346.76575" y="16.732936" style="stroke: #000000"/>
     <use xlink:href="#mb5b9b684fe" x="390.04925" y="16.704108" style="stroke: #000000"/>
     <use xlink:href="#mb5b9b684fe" x="433.33275" y="16.67528" style="stroke: #000000"/>
     <use xlink:href="#mb5b9b684fe" x="476.61625" y="16.84825" style="stroke: #000000"/>
     <use xlink:href="#mb5b9b684fe" x="519.89975" y="16.646452" style="stroke: #000000"/>
     <use xlink:href="#mb5b9b684fe" x="563.18325" y="16.704108" style="stroke: #000000"/>
     <use xlink:href="#mb5b9b684fe" x="606.46675" y="16.761765" style="stroke: #000000"/>
     <use xlink:href="#mb5b9b684fe" x="649.75025" y="16.704108" style="stroke: #000000"/>
     <use xlink:href="#mb5b9b684fe" x="693.03375" y="16.67528" style="stroke: #000000"/>
     <use xlink:href="#mb5b9b684fe" x="736.31725" y="16.646452" style="stroke: #000000"/>
     <use xlink:href="#mb5b9b684fe" x="779.60075" y="16.67528" style="stroke: #000000"/>
     <use xlink:href="#mb5b9b684fe" x="822.88425" y="16.646452" style="stroke: #000000"/>
     <use xlink:href="#mb5b9b684fe" x="866.16775" y="16.646452" style="stroke: #000000"/>
     <use xlink:href="#mb5b9b684fe" x="909.45125" y="16.646452" style="stroke: #000000"/>
     <use xlink:href="#mb5b9b684fe" x="952.73475" y="16.84825" style="stroke: #000000"/>
     <use xlink:href="#mb5b9b684fe" x="996.01825" y="16.646452" style="stroke: #000000"/>
    </g>
   </g>
   <g id="line2d_15">
    <path d="M 43.78125 250.530308 
L 87.06475 132.334349 
L 130.34825 73.149885 
L 173.63175 57.870896 
L 216.91525 34.721785 
L 260.19875 24.689542 
L 303.48225 19.990532 
L 346.76575 18.059037 
L 390.04925 17.68427 
L 433.33275 21.143664 
L 476.61625 17.655442 
L 497.54125 17.418517 
" clip-path="url(#pffd17aa715)" style="fill: none; stroke: #1f77b4; stroke-width: 1.5; stroke-linecap: square"/>
    <defs>
     <path id="m092281f3ac" d="M 0 1.5 
C 0.397805 1.5 0.77937 1.341951 1.06066 1.06066 
C 1.341951 0.77937 1.5 0.397805 1.5 0 
C 1.5 -0.397805 1.341951 -0.77937 1.06066 -1.06066 
C 0.77937 -1.341951 0.397805 -1.5 0 -1.5 
C -0.397805 -1.5 -0.77937 -1.341951 -1.06066 -1.06066 
C -1.341951 -0.77937 -1.5 -0.397805 -1.5 0 
C -1.5 0.397805 -1.341951 0.77937 -1.06066 1.06066 
C -0.77937 1.341951 -0.397805 1.5 0 1.5 
z
" style="stroke: #1f77b4"/>
    </defs>
    <g clip-path="url(#pffd17aa715)">
     <use xlink:href="#m092281f3ac" x="43.78125" y="250.530308" style="fill: #1f77b4; stroke: #1f77b4"/>
     <use xlink:href="#m092281f3ac" x="87.06475" y="132.334349" style="fill: #1f77b4; stroke: #1f77b4"/>
     <use xlink:href="#m092281f3ac" x="130.34825" y="73.149885" style="fill: #1f77b4; stroke: #1f77b4"/>
     <use xlink:href="#m092281f3ac" x="173.63175" y="57.870896" style="fill: #1f77b4; stroke: #1f77b4"/>
     <use xlink:href="#m092281f3ac" x="216.91525" y="34.721785" style="fill: #1f77b4; stroke: #1f77b4"/>
     <use xlink:href="#m092281f3ac" x="260.19875" y="24.689542" style="fill: #1f77b4; stroke: #1f77b4"/>
     <use xlink:href="#m092281f3ac" x="303.48225" y="19.990532" style="fill: #1f77b4; stroke: #1f77b4"/>
     <use xlink:href="#m092281f3ac" x="346.76575" y="18.059037" style="fill: #1f77b4; stroke: #1f77b4"/>
     <use xlink:href="#m092281f3ac" x="390.04925" y="17.68427" style="fill: #1f77b4; stroke: #1f77b4"/>
     <use xlink:href="#m092281f3ac" x="433.33275" y="21.143664" style="fill: #1f77b4; stroke: #1f77b4"/>
     <use xlink:href="#m092281f3ac" x="476.61625" y="17.655442" style="fill: #1f77b4; stroke: #1f77b4"/>
     <use xlink:href="#m092281f3ac" x="519.89975" y="17.165361" style="fill: #1f77b4; stroke: #1f77b4"/>
     <use xlink:href="#m092281f3ac" x="563.18325" y="17.367159" style="fill: #1f77b4; stroke: #1f77b4"/>
     <use xlink:href="#m092281f3ac" x="606.46675" y="16.877078" style="fill: #1f77b4; stroke: #1f77b4"/>
     <use xlink:href="#m092281f3ac" x="649.75025" y="16.819421" style="fill: #1f77b4; stroke: #1f77b4"/>
     <use xlink:href="#m092281f3ac" x="693.03375" y="16.84825" style="fill: #1f77b4; stroke: #1f77b4"/>
     <use xlink:href="#m092281f3ac" x="736.31725" y="16.84825" style="fill: #1f77b4; stroke: #1f77b4"/>
     <use xlink:href="#m092281f3ac" x="779.60075" y="16.790593" style="fill: #1f77b4; stroke: #1f77b4"/>
     <use xlink:href="#m092281f3ac" x="822.88425" y="17.165361" style="fill: #1f77b4; stroke: #1f77b4"/>
     <use xlink:href="#m092281f3ac" x="866.16775" y="17.367159" style="fill: #1f77b4; stroke: #1f77b4"/>
     <use xlink:href="#m092281f3ac" x="909.45125" y="16.84825" style="fill: #1f77b4; stroke: #1f77b4"/>
     <use xlink:href="#m092281f3ac" x="952.73475" y="16.84825" style="fill: #1f77b4; stroke: #1f77b4"/>
     <use xlink:href="#m092281f3ac" x="996.01825" y="16.819421" style="fill: #1f77b4; stroke: #1f77b4"/>
    </g>
   </g>
   <g id="line2d_16">
    <path d="M 43.78125 250.530308 
L 87.06475 186.127924 
L 130.34825 154.445642 
L 173.63175 122.475077 
L 216.91525 88.947784 
L 260.19875 59.773562 
L 303.48225 38.469461 
L 346.76575 27.630027 
L 390.04925 23.449926 
L 433.33275 22.585078 
L 476.61625 20.019361 
L 497.54125 20.214475 
" clip-path="url(#pffd17aa715)" style="fill: none; stroke: #d62728; stroke-width: 1.5; stroke-linecap: square"/>
    <defs>
     <path id="m610daf3221" d="M 0 1.5 
C 0.397805 1.5 0.77937 1.341951 1.06066 1.06066 
C 1.341951 0.77937 1.5 0.397805 1.5 0 
C 1.5 -0.397805 1.341951 -0.77937 1.06066 -1.06066 
C 0.77937 -1.341951 0.397805 -1.5 0 -1.5 
C -0.397805 -1.5 -0.77937 -1.341951 -1.06066 -1.06066 
C -1.341951 -0.77937 -1.5 -0.397805 -1.5 0 
C -1.5 0.397805 -1.341951 0.77937 -1.06066 1.06066 
C -0.77937 1.341951 -0.397805 1.5 0 1.5 
z
" style="stroke: #d62728"/>
    </defs>
    <g clip-path="url(#pffd17aa715)">
     <use xlink:href="#m610daf3221" x="43.78125" y="250.530308" style="fill: #d62728; stroke: #d62728"/>
     <use xlink:href="#m610daf3221" x="87.06475" y="186.127924" style="fill: #d62728; stroke: #d62728"/>
     <use xlink:href="#m610daf3221" x="130.34825" y="154.445642" style="fill: #d62728; stroke: #d62728"/>
     <use xlink:href="#m610daf3221" x="173.63175" y="122.475077" style="fill: #d62728; stroke: #d62728"/>
     <use xlink:href="#m610daf3221" x="216.91525" y="88.947784" style="fill: #d62728; stroke: #d62728"/>
     <use xlink:href="#m610daf3221" x="260.19875" y="59.773562" style="fill: #d62728; stroke: #d62728"/>
     <use xlink:href="#m610daf3221" x="303.48225" y="38.469461" style="fill: #d62728; stroke: #d62728"/>
     <use xlink:href="#m610daf3221" x="346.76575" y="27.630027" style="fill: #d62728; stroke: #d62728"/>
     <use xlink:href="#m610daf3221" x="390.04925" y="23.449926" style="fill: #d62728; stroke: #d62728"/>
     <use xlink:href="#m610daf3221" x="433.33275" y="22.585078" style="fill: #d62728; stroke: #d62728"/>
     <use xlink:href="#m610daf3221" x="476.61625" y="20.019361" style="fill: #d62728; stroke: #d62728"/>
     <use xlink:href="#m610daf3221" x="519.89975" y="20.422957" style="fill: #d62728; stroke: #d62728"/>
     <use xlink:href="#m610daf3221" x="563.18325" y="19.125684" style="fill: #d62728; stroke: #d62728"/>
     <use xlink:href="#m610daf3221" x="606.46675" y="19.35631" style="fill: #d62728; stroke: #d62728"/>
     <use xlink:href="#m610daf3221" x="649.75025" y="18.059037" style="fill: #d62728; stroke: #d62728"/>
     <use xlink:href="#m610daf3221" x="693.03375" y="18.722088" style="fill: #d62728; stroke: #d62728"/>
     <use xlink:href="#m610daf3221" x="736.31725" y="17.453644" style="fill: #d62728; stroke: #d62728"/>
     <use xlink:href="#m610daf3221" x="779.60075" y="17.857239" style="fill: #d62728; stroke: #d62728"/>
     <use xlink:href="#m610daf3221" x="822.88425" y="17.713098" style="fill: #d62728; stroke: #d62728"/>
     <use xlink:href="#m610daf3221" x="866.16775" y="17.424815" style="fill: #d62728; stroke: #d62728"/>
     <use xlink:href="#m610daf3221" x="909.45125" y="17.713098" style="fill: #d62728; stroke: #d62728"/>
     <use xlink:href="#m610daf3221" x="952.73475" y="17.165361" style="fill: #d62728; stroke: #d62728"/>
     <use xlink:href="#m610daf3221" x="996.01825" y="17.251846" style="fill: #d62728; stroke: #d62728"/>
    </g>
   </g>
   <g id="line2d_17">
    <path d="M 43.78125 250.530308 
L 87.06475 202.963641 
L 130.34825 164.103117 
L 173.63175 121.033663 
L 216.91525 87.938794 
L 260.19875 49.337724 
L 303.48225 36.336169 
L 346.76575 27.572371 
L 390.04925 23.305785 
L 433.33275 21.431947 
L 476.61625 20.682411 
L 497.54125 20.459423 
" clip-path="url(#pffd17aa715)" style="fill: none; stroke: #ff7f0e; stroke-width: 1.5; stroke-linecap: square"/>
    <defs>
     <path id="m6c6335b248" d="M 0 1.5 
C 0.397805 1.5 0.77937 1.341951 1.06066 1.06066 
C 1.341951 0.77937 1.5 0.397805 1.5 0 
C 1.5 -0.397805 1.341951 -0.77937 1.06066 -1.06066 
C 0.77937 -1.341951 0.397805 -1.5 0 -1.5 
C -0.397805 -1.5 -0.77937 -1.341951 -1.06066 -1.06066 
C -1.341951 -0.77937 -1.5 -0.397805 -1.5 0 
C -1.5 0.397805 -1.341951 0.77937 -1.06066 1.06066 
C -0.77937 1.341951 -0.397805 1.5 0 1.5 
z
" style="stroke: #ff7f0e"/>
    </defs>
    <g clip-path="url(#pffd17aa715)">
     <use xlink:href="#m6c6335b248" x="43.78125" y="250.530308" style="fill: #ff7f0e; stroke: #ff7f0e"/>
     <use xlink:href="#m6c6335b248" x="87.06475" y="202.963641" style="fill: #ff7f0e; stroke: #ff7f0e"/>
     <use xlink:href="#m6c6335b248" x="130.34825" y="164.103117" style="fill: #ff7f0e; stroke: #ff7f0e"/>
     <use xlink:href="#m6c6335b248" x="173.63175" y="121.033663" style="fill: #ff7f0e; stroke: #ff7f0e"/>
     <use xlink:href="#m6c6335b248" x="216.91525" y="87.938794" style="fill: #ff7f0e; stroke: #ff7f0e"/>
     <use xlink:href="#m6c6335b248" x="260.19875" y="49.337724" style="fill: #ff7f0e; stroke: #ff7f0e"/>
     <use xlink:href="#m6c6335b248" x="303.48225" y="36.336169" style="fill: #ff7f0e; stroke: #ff7f0e"/>
     <use xlink:href="#m6c6335b248" x="346.76575" y="27.572371" style="fill: #ff7f0e; stroke: #ff7f0e"/>
     <use xlink:href="#m6c6335b248" x="390.04925" y="23.305785" style="fill: #ff7f0e; stroke: #ff7f0e"/>
     <use xlink:href="#m6c6335b248" x="433.33275" y="21.431947" style="fill: #ff7f0e; stroke: #ff7f0e"/>
     <use xlink:href="#m6c6335b248" x="476.61625" y="20.682411" style="fill: #ff7f0e; stroke: #ff7f0e"/>
     <use xlink:href="#m6c6335b248" x="519.89975" y="20.221159" style="fill: #ff7f0e; stroke: #ff7f0e"/>
     <use xlink:href="#m6c6335b248" x="563.18325" y="19.644593" style="fill: #ff7f0e; stroke: #ff7f0e"/>
     <use xlink:href="#m6c6335b248" x="606.46675" y="19.471623" style="fill: #ff7f0e; stroke: #ff7f0e"/>
     <use xlink:href="#m6c6335b248" x="649.75025" y="18.952714" style="fill: #ff7f0e; stroke: #ff7f0e"/>
     <use xlink:href="#m6c6335b248" x="693.03375" y="18.923886" style="fill: #ff7f0e; stroke: #ff7f0e"/>
     <use xlink:href="#m6c6335b248" x="736.31725" y="18.664431" style="fill: #ff7f0e; stroke: #ff7f0e"/>
     <use xlink:href="#m6c6335b248" x="779.60075" y="18.433805" style="fill: #ff7f0e; stroke: #ff7f0e"/>
     <use xlink:href="#m6c6335b248" x="822.88425" y="18.203179" style="fill: #ff7f0e; stroke: #ff7f0e"/>
     <use xlink:href="#m6c6335b248" x="866.16775" y="18.174351" style="fill: #ff7f0e; stroke: #ff7f0e"/>
     <use xlink:href="#m6c6335b248" x="909.45125" y="17.886068" style="fill: #ff7f0e; stroke: #ff7f0e"/>
     <use xlink:href="#m6c6335b248" x="952.73475" y="17.770755" style="fill: #ff7f0e; stroke: #ff7f0e"/>
     <use xlink:href="#m6c6335b248" x="996.01825" y="17.799583" style="fill: #ff7f0e; stroke: #ff7f0e"/>
    </g>
   </g>
   <g id="line2d_18">
    <path d="M 43.78125 252.807742 
L 476.61625 252.807742 
" clip-path="url(#pffd17aa715)" style="fill: none; stroke-dasharray: 2.96,1.28; stroke-dashoffset: 0; stroke: #808080; stroke-width: 0.8"/>
   </g>
   <g id="line2d_19">
    <path d="M 130.34825 271.700645 
L 346.76575 271.700645 
" clip-path="url(#pffd17aa715)" style="fill: none; stroke: #9467bd; stroke-width: 4"/>
   </g>
   <g id="line2d_20"/>
   <g id="line2d_21">
    <path d="M 87.06475 280.202452 
L 216.91525 280.202452 
" clip-path="url(#pffd17aa715)" style="fill: none; stroke: #8c564b; stroke-width: 4"/>
   </g>
   <g id="line2d_22">
    <path clip-path="url(#pffd17aa715)" style="fill: none; stroke: #8c564b; stroke-width: 4"/>
   </g>
   <g id="line2d_23"/>
   <g id="line2d_24"/>
   <g id="patch_3">
    <path d="M 43.78125 300.04 
L 43.78125 7.2 
" style="fill: none; stroke: #000000; stroke-width: 0.8; stroke-linejoin: miter; stroke-linecap: square"/>
   </g>
   <g id="patch_4">
    <path d="M 476.61625 300.04 
L 476.61625 7.2 
" style="fill: none; stroke: #000000; stroke-width: 0.8; stroke-linejoin: miter; stroke-linecap: square"/>
   </g>
   <g id="patch_5">
    <path d="M 43.78125 300.04 
L 476.61625 300.04 
" style="fill: none; stroke: #000000; stroke-width: 0.8; stroke-linejoin: miter; stroke-linecap: square"/>
   </g>
   <g id="patch_6">
    <path d="M 43.78125 7.2 
L 476.61625 7.2 
" style="fill: none; stroke: #000000; stroke-width: 0.8; stroke-linejoin: miter; stroke-linecap: square"/>
   </g>
   <g id="legend_1">
    <g id="patch_7">
     <path d="M 259.91375 175.219375 
L 471.71625 175.219375 
Q 473.11625 175.219375 473.11625 173.819375 
L 473.11625 133.420625 
Q 473.11625 132.020625 471.71625 132.020625 
L 259.91375 132.020625 
Q 258.51375 132.020625 258.51375 133.420625 
L 258.51375 173.819375 
Q 258.51375 175.219375 259.91375 175.219375 
z
" style="fill: #ffffff; opacity: 0.8; stroke: #cccccc; stroke-linejoin: miter"/>
    </g>
    <g id="line2d_25">
     <path d="M 261.31375 137.689531 
L 268.31375 137.689531 
L 275.31375 137.689531 
" style="fill: none; stroke: #000000; stroke-width: 1.5; stroke-linecap: square"/>
     <g>
      <use xlink:href="#mb5b9b684fe" x="268.31375" y="137.689531" style="stroke: #000000"/>
     </g>
    </g>
    <g id="text_16">
     <!-- BPTT -->
     <g transform="translate(280.91375 140.139531) scale(0.07 -0.07)">
      <defs>
       <path id="DejaVuSans-42" d="M 1259 2228 
L 1259 519 
L 2272 519 
Q 2781 519 3026 730 
Q 3272 941 3272 1375 
Q 3272 1813 3026 2020 
Q 2781 2228 2272 2228 
L 1259 2228 
z
M 1259 4147 
L 1259 2741 
L 2194 2741 
Q 2656 2741 2882 2914 
Q 3109 3088 3109 3444 
Q 3109 3797 2882 3972 
Q 2656 4147 2194 4147 
L 1259 4147 
z
M 628 4666 
L 2241 4666 
Q 2963 4666 3353 4366 
Q 3744 4066 3744 3513 
Q 3744 3084 3544 2831 
Q 3344 2578 2956 2516 
Q 3422 2416 3680 2098 
Q 3938 1781 3938 1306 
Q 3938 681 3513 340 
Q 3088 0 2303 0 
L 628 0 
L 628 4666 
z
" transform="scale(0.015625)"/>
       <path id="DejaVuSans-50" d="M 1259 4147 
L 1259 2394 
L 2053 2394 
Q 2494 2394 2734 2622 
Q 2975 2850 2975 3272 
Q 2975 3691 2734 3919 
Q 2494 4147 2053 4147 
L 1259 4147 
z
M 628 4666 
L 2053 4666 
Q 2838 4666 3239 4311 
Q 3641 3956 3641 3272 
Q 3641 2581 3239 2228 
Q 2838 1875 2053 1875 
L 1259 1875 
L 1259 0 
L 628 0 
L 628 4666 
z
" transform="scale(0.015625)"/>
       <path id="DejaVuSans-54" d="M -19 4666 
L 3928 4666 
L 3928 4134 
L 2272 4134 
L 2272 0 
L 1638 0 
L 1638 4134 
L -19 4134 
L -19 4666 
z
" transform="scale(0.015625)"/>
      </defs>
      <use xlink:href="#DejaVuSans-42"/>
      <use xlink:href="#DejaVuSans-50" transform="translate(68.603516 0)"/>
      <use xlink:href="#DejaVuSans-54" transform="translate(128.90625 0)"/>
      <use xlink:href="#DejaVuSans-54" transform="translate(188.240234 0)"/>
     </g>
    </g>
    <g id="line2d_26">
     <path d="M 261.31375 147.964219 
L 268.31375 147.964219 
L 275.31375 147.964219 
" style="fill: none; stroke: #1f77b4; stroke-width: 1.5; stroke-linecap: square"/>
     <g>
      <use xlink:href="#m092281f3ac" x="268.31375" y="147.964219" style="fill: #1f77b4; stroke: #1f77b4"/>
     </g>
    </g>
    <g id="text_17">
     <!-- deep e-prop (full) -->
     <g transform="translate(280.91375 150.414219) scale(0.07 -0.07)">
      <defs>
       <path id="DejaVuSans-66" d="M 2375 4863 
L 2375 4384 
L 1825 4384 
Q 1516 4384 1395 4259 
Q 1275 4134 1275 3809 
L 1275 3500 
L 2222 3500 
L 2222 3053 
L 1275 3053 
L 1275 0 
L 697 0 
L 697 3053 
L 147 3053 
L 147 3500 
L 697 3500 
L 697 3744 
Q 697 4328 969 4595 
Q 1241 4863 1831 4863 
L 2375 4863 
z
" transform="scale(0.015625)"/>
      </defs>
      <use xlink:href="#DejaVuSans-64"/>
      <use xlink:href="#DejaVuSans-65" transform="translate(63.476562 0)"/>
      <use xlink:href="#DejaVuSans-65" transform="translate(125 0)"/>
      <use xlink:href="#DejaVuSans-70" transform="translate(186.523438 0)"/>
      <use xlink:href="#DejaVuSans-20" transform="translate(250 0)"/>
      <use xlink:href="#DejaVuSans-65" transform="translate(281.787109 0)"/>
      <use xlink:href="#DejaVuSans-2d" transform="translate(343.310547 0)"/>
      <use xlink:href="#DejaVuSans-70" transform="translate(379.394531 0)"/>
      <use xlink:href="#DejaVuSans-72" transform="translate(442.871094 0)"/>
      <use xlink:href="#DejaVuSans-6f" transform="translate(481.734375 0)"/>
      <use xlink:href="#DejaVuSans-70" transform="translate(542.916016 0)"/>
      <use xlink:href="#DejaVuSans-20" transform="translate(606.392578 0)"/>
      <use xlink:href="#DejaVuSans-28" transform="translate(638.179688 0)"/>
      <use xlink:href="#DejaVuSans-66" transform="translate(677.193359 0)"/>
      <use xlink:href="#DejaVuSans-75" transform="translate(712.398438 0)"/>
      <use xlink:href="#DejaVuSans-6c" transform="translate(775.777344 0)"/>
      <use xlink:href="#DejaVuSans-6c" transform="translate(803.560547 0)"/>
      <use xlink:href="#DejaVuSans-29" transform="translate(831.34375 0)"/>
     </g>
    </g>
    <g id="line2d_27">
     <path d="M 261.31375 158.238906 
L 268.31375 158.238906 
L 275.31375 158.238906 
" style="fill: none; stroke: #d62728; stroke-width: 1.5; stroke-linecap: square"/>
     <g>
      <use xlink:href="#m610daf3221" x="268.31375" y="158.238906" style="fill: #d62728; stroke: #d62728"/>
     </g>
    </g>
    <g id="text_18">
     <!-- ablate temporal -->
     <g transform="translate(280.91375 160.688906) scale(0.07 -0.07)">
      <defs>
       <path id="DejaVuSans-62" d="M 3116 1747 
Q 3116 2381 2855 2742 
Q 2594 3103 2138 3103 
Q 1681 3103 1420 2742 
Q 1159 2381 1159 1747 
Q 1159 1113 1420 752 
Q 1681 391 2138 391 
Q 2594 391 2855 752 
Q 3116 1113 3116 1747 
z
M 1159 2969 
Q 1341 3281 1617 3432 
Q 1894 3584 2278 3584 
Q 2916 3584 3314 3078 
Q 3713 2572 3713 1747 
Q 3713 922 3314 415 
Q 2916 -91 2278 -91 
Q 1894 -91 1617 61 
Q 1341 213 1159 525 
L 1159 0 
L 581 0 
L 581 4863 
L 1159 4863 
L 1159 2969 
z
" transform="scale(0.015625)"/>
       <path id="DejaVuSans-6d" d="M 3328 2828 
Q 3544 3216 3844 3400 
Q 4144 3584 4550 3584 
Q 5097 3584 5394 3201 
Q 5691 2819 5691 2113 
L 5691 0 
L 5113 0 
L 5113 2094 
Q 5113 2597 4934 2840 
Q 4756 3084 4391 3084 
Q 3944 3084 3684 2787 
Q 3425 2491 3425 1978 
L 3425 0 
L 2847 0 
L 2847 2094 
Q 2847 2600 2669 2842 
Q 2491 3084 2119 3084 
Q 1678 3084 1418 2786 
Q 1159 2488 1159 1978 
L 1159 0 
L 581 0 
L 581 3500 
L 1159 3500 
L 1159 2956 
Q 1356 3278 1631 3431 
Q 1906 3584 2284 3584 
Q 2666 3584 2933 3390 
Q 3200 3197 3328 2828 
z
" transform="scale(0.015625)"/>
      </defs>
      <use xlink:href="#DejaVuSans-61"/>
      <use xlink:href="#DejaVuSans-62" transform="translate(61.279297 0)"/>
      <use xlink:href="#DejaVuSans-6c" transform="translate(124.755859 0)"/>
      <use xlink:href="#DejaVuSans-61" transform="translate(152.539062 0)"/>
      <use xlink:href="#DejaVuSans-74" transform="translate(213.818359 0)"/>
      <use xlink:href="#DejaVuSans-65" transform="translate(253.027344 0)"/>
      <use xlink:href="#DejaVuSans-20" transform="translate(314.550781 0)"/>
      <use xlink:href="#DejaVuSans-74" transform="translate(346.337891 0)"/>
      <use xlink:href="#DejaVuSans-65" transform="translate(385.546875 0)"/>
      <use xlink:href="#DejaVuSans-6d" transform="translate(447.070312 0)"/>
      <use xlink:href="#DejaVuSans-70" transform="translate(544.482422 0)"/>
      <use xlink:href="#DejaVuSans-6f" transform="translate(607.958984 0)"/>
      <use xlink:href="#DejaVuSans-72" transform="translate(669.140625 0)"/>
      <use xlink:href="#DejaVuSans-61" transform="translate(710.253906 0)"/>
      <use xlink:href="#DejaVuSans-6c" transform="translate(771.533203 0)"/>
     </g>
    </g>
    <g id="line2d_28">
     <path d="M 261.31375 168.513594 
L 268.31375 168.513594 
L 275.31375 168.513594 
" style="fill: none; stroke: #ff7f0e; stroke-width: 1.5; stroke-linecap: square"/>
     <g>
      <use xlink:href="#m6c6335b248" x="268.31375" y="168.513594" style="fill: #ff7f0e; stroke: #ff7f0e"/>
     </g>
    </g>
    <g id="text_19">
     <!-- ablate spatial -->
     <g transform="translate(280.91375 170.963594) scale(0.07 -0.07)">
      <use xlink:href="#DejaVuSans-61"/>
      <use xlink:href="#DejaVuSans-62" transform="translate(61.279297 0)"/>
      <use xlink:href="#DejaVuSans-6c" transform="translate(124.755859 0)"/>
      <use xlink:href="#DejaVuSans-61" transform="translate(152.539062 0)"/>
      <use xlink:href="#DejaVuSans-74" transform="translate(213.818359 0)"/>
      <use xlink:href="#DejaVuSans-65" transform="translate(253.027344 0)"/>
      <use xlink:href="#DejaVuSans-20" transform="translate(314.550781 0)"/>
      <use xlink:href="#DejaVuSans-73" transform="translate(346.337891 0)"/>
      <use xlink:href="#DejaVuSans-70" transform="translate(398.4375 0)"/>
      <use xlink:href="#DejaVuSans-61" transform="translate(461.914062 0)"/>
      <use xlink:href="#DejaVuSans-74" transform="translate(523.193359 0)"/>
      <use xlink:href="#DejaVuSans-69" transform="translate(562.402344 0)"/>
      <use xlink:href="#DejaVuSans-61" transform="translate(590.185547 0)"/>
      <use xlink:href="#DejaVuSans-6c" transform="translate(651.464844 0)"/>
     </g>
    </g>
    <g id="line2d_29">
     <path d="M 355.841094 137.689531 
L 362.841094 137.689531 
L 369.841094 137.689531 
" style="fill: none; stroke: #9467bd; stroke-width: 4; stroke-linecap: square"/>
    </g>
    <g id="text_20">
     <!-- sig: full vs ablate_temporal -->
     <g transform="translate(375.441094 140.139531) scale(0.07 -0.07)">
      <defs>
       <path id="DejaVuSans-3a" d="M 750 794 
L 1409 794 
L 1409 0 
L 750 0 
L 750 794 
z
M 750 3309 
L 1409 3309 
L 1409 2516 
L 750 2516 
L 750 3309 
z
" transform="scale(0.015625)"/>
       <path id="DejaVuSans-76" d="M 191 3500 
L 800 3500 
L 1894 563 
L 2988 3500 
L 3597 3500 
L 2284 0 
L 1503 0 
L 191 3500 
z
" transform="scale(0.015625)"/>
       <path id="DejaVuSans-5f" d="M 3263 -1063 
L 3263 -1509 
L -63 -1509 
L -63 -1063 
L 3263 -1063 
z
" transform="scale(0.015625)"/>
      </defs>
      <use xlink:href="#DejaVuSans-73"/>
      <use xlink:href="#DejaVuSans-69" transform="translate(52.099609 0)"/>
      <use xlink:href="#DejaVuSans-67" transform="translate(79.882812 0)"/>
      <use xlink:href="#DejaVuSans-3a" transform="translate(143.359375 0)"/>
      <use xlink:href="#DejaVuSans-20" transform="translate(177.050781 0)"/>
      <use xlink:href="#DejaVuSans-66" transform="translate(208.837891 0)"/>
      <use xlink:href="#DejaVuSans-75" transform="translate(244.042969 0)"/>
      <use xlink:href="#DejaVuSans-6c" transform="translate(307.421875 0)"/>
      <use xlink:href="#DejaVuSans-6c" transform="translate(335.205078 0)"/>
      <use xlink:href="#DejaVuSans-20" transform="translate(362.988281 0)"/>
      <use xlink:href="#DejaVuSans-76" transform="translate(394.775391 0)"/>
      <use xlink:href="#DejaVuSans-73" transform="translate(453.955078 0)"/>
      <use xlink:href="#DejaVuSans-20" transform="translate(506.054688 0)"/>
      <use xlink:href="#DejaVuSans-61" transform="translate(537.841797 0)"/>
      <use xlink:href="#DejaVuSans-62" transform="translate(599.121094 0)"/>
      <use xlink:href="#DejaVuSans-6c" transform="translate(662.597656 0)"/>
      <use xlink:href="#DejaVuSans-61" transform="translate(690.380859 0)"/>
      <use xlink:href="#DejaVuSans-74" transform="translate(751.660156 0)"/>
      <use xlink:href="#DejaVuSans-65" transform="translate(790.869141 0)"/>
      <use xlink:href="#DejaVuSans-5f" transform="translate(852.392578 0)"/>
      <use xlink:href="#DejaVuSans-74" transform="translate(902.392578 0)"/>
      <use xlink:href="#DejaVuSans-65" transform="translate(941.601562 0)"/>
      <use xlink:href="#DejaVuSans-6d" transform="translate(1003.125 0)"/>
      <use xlink:href="#DejaVuSans-70" transform="translate(1100.537109 0)"/>
      <use xlink:href="#DejaVuSans-6f" transform="translate(1164.013672 0)"/>
      <use xlink:href="#DejaVuSans-72" transform="translate(1225.195312 0)"/>
      <use xlink:href="#DejaVuSans-61" transform="translate(1266.308594 0)"/>
      <use xlink:href="#DejaVuSans-6c" transform="translate(1327.587891 0)"/>
     </g>
    </g>
    <g id="line2d_30">
     <path d="M 355.841094 148.158906 
L 362.841094 148.158906 
L 369.841094 148.158906 
" style="fill: none; stroke: #8c564b; stroke-width: 4; stroke-linecap: square"/>
    </g>
    <g id="text_21">
     <!-- sig: full vs ablate_spatial -->
     <g transform="translate(375.441094 150.608906) scale(0.07 -0.07)">
      <use xlink:href="#DejaVuSans-73"/>
      <use xlink:href="#DejaVuSans-69" transform="translate(52.099609 0)"/>
      <use xlink:href="#DejaVuSans-67" transform="translate(79.882812 0)"/>
      <use xlink:href="#DejaVuSans-3a" transform="translate(143.359375 0)"/>
      <use xlink:href="#DejaVuSans-20" transform="translate(177.050781 0)"/>
      <use xlink:href="#DejaVuSans-66" transform="translate(208.837891 0)"/>
      <use xlink:href="#DejaVuSans-75" transform="translate(244.042969 0)"/>
      <use xlink:href="#DejaVuSans-6c" transform="translate(307.421875 0)"/>
      <use xlink:href="#DejaVuSans-6c" transform="translate(335.205078 0)"/>
      <use xlink:href="#DejaVuSans-20" transform="translate(362.988281 0)"/>
      <use xlink:href="#DejaVuSans-76" transform="translate(394.775391 0)"/>
      <use xlink:href="#DejaVuSans-73" transform="translate(453.955078 0)"/>
      <use xlink:href="#DejaVuSans-20" transform="translate(506.054688 0)"/>
      <use xlink:href="#DejaVuSans-61" transform="translate(537.841797 0)"/>
      <use xlink:href="#DejaVuSans-62" transform="translate(599.121094 0)"/>
      <use xlink:href="#DejaVuSans-6c" transform="translate(662.597656 0)"/>
      <use xlink:href="#DejaVuSans-61" transform="translate(690.380859 0)"/>
      <use xlink:href="#DejaVuSans-74" transform="translate(751.660156 0)"/>
      <use xlink:href="#DejaVuSans-65" transform="translate(790.869141 0)"/>
      <use xlink:href="#DejaVuSans-5f" transform="translate(852.392578 0)"/>
      <use xlink:href="#DejaVuSans-73" transform="translate(902.392578 0)"/>
      <use xlink:href="#DejaVuSans-70" transform="translate(954.492188 0)"/>
      <use xlink:href="#DejaVuSans-61" transform="translate(1017.96875 0)"/>
      <use xlink:href="#DejaVuSans-74" transform="translate(1079.248047 0)"/>
      <use xlink:href="#DejaVuSans-69" transform="translate(1118.457031 0)"/>
      <use xlink:href="#DejaVuSans-61" transform="translate(1146.240234 0)"/>
      <use xlink:href="#DejaVuSans-6c" transform="translate(1207.519531 0)"/>
     </g>
    </g>
    <g id="line2d_31">
     <path d="M 355.841094 158.628281 
L 362.841094 158.628281 
L 369.841094 158.628281 
" style="fill: none; stroke: #e377c2; stroke-width: 4; stroke-linecap: square"/>
    </g>
    <g id="text_22">
     <!-- sig: temporal vs spatial -->
     <g transform="translate(375.441094 161.078281) scale(0.07 -0.07)">
      <use xlink:href="#DejaVuSans-73"/>
      <use xlink:href="#DejaVuSans-69" transform="translate(52.099609 0)"/>
      <use xlink:href="#DejaVuSans-67" transform="translate(79.882812 0)"/>
      <use xlink:href="#DejaVuSans-3a" transform="translate(143.359375 0)"/>
      <use xlink:href="#DejaVuSans-20" transform="translate(177.050781 0)"/>
      <use xlink:href="#DejaVuSans-74" transform="translate(208.837891 0)"/>
      <use xlink:href="#DejaVuSans-65" transform="translate(248.046875 0)"/>
      <use xlink:href="#DejaVuSans-6d" transform="translate(309.570312 0)"/>
      <use xlink:href="#DejaVuSans-70" transform="translate(406.982422 0)"/>
      <use xlink:href="#DejaVuSans-6f" transform="translate(470.458984 0)"/>
      <use xlink:href="#DejaVuSans-72" transform="translate(531.640625 0)"/>
      <use xlink:href="#DejaVuSans-61" transform="translate(572.753906 0)"/>
      <use xlink:href="#DejaVuSans-6c" transform="translate(634.033203 0)"/>
      <use xlink:href="#DejaVuSans-20" transform="translate(661.816406 0)"/>
      <use xlink:href="#DejaVuSans-76" transform="translate(693.603516 0)"/>
      <use xlink:href="#DejaVuSans-73" transform="translate(752.783203 0)"/>
      <use xlink:href="#DejaVuSans-20" transform="translate(804.882812 0)"/>
      <use xlink:href="#DejaVuSans-73" transform="translate(836.669922 0)"/>
      <use xlink:href="#DejaVuSans-70" transform="translate(888.769531 0)"/>
      <use xlink:href="#DejaVuSans-61" transform="translate(952.246094 0)"/>
      <use xlink:href="#DejaVuSans-74" transform="translate(1013.525391 0)"/>
      <use xlink:href="#DejaVuSans-69" transform="translate(1052.734375 0)"/>
      <use xlink:href="#DejaVuSans-61" transform="translate(1080.517578 0)"/>
      <use xlink:href="#DejaVuSans-6c" transform="translate(1141.796875 0)"/>
     </g>
    </g>
   </g>
  </g>
 </g>
 <defs>
  <clipPath id="pffd17aa715">
   <rect x="43.78125" y="7.2" width="432.835" height="292.84"/>
  </clipPath>
 </defs>
</svg>
