<?xml version="1.0" encoding="utf-8" standalone="no"?>
<!DOCTYPE svg PUBLIC "-//W3C//DTD SVG 1.1//EN"
  "http://www.w3.org/Graphics/SVG/1.1/DTD/svg11.dtd">
<svg xmlns:xlink="http://www.w3.org/1999/xlink" width="453.26125pt" height="322.346625pt" viewBox="0 0 453.26125 322.346625" xmlns="http://www.w3.org/2000/svg" version="1.1">
 <metadata>
  <rdf:RDF xmlns:dc="http://purl.org/dc/elements/1.1/" xmlns:cc="http://creativecommons.org/ns#" xmlns:rdf="http://www.w3.org/1999/02/22-rdf-syntax-ns#">
   <cc:Work>
    <dc:type rdf:resource="http://purl.org/dc/dcmitype/StillImage"/>
    <dc:format>image/svg+xml</dc:format>
    <dc:creator>
     <cc:Agent>
      <dc:title>Matplotlib v3.10.9, https://matplotlib.org/</dc:title>
     </cc:Agent>
    </dc:creator>
   </cc:Work>
  </rdf:RDF>
 </metadata>
 <defs>
  <style type="text/css">*{stroke-linejoin: round; stroke-linecap: butt}</style>
 </defs>
 <g id="figure_1">
  <g id="patch_1">
   <path d="M 0 322.346625 
L 453.26125 322.346625 
L 453.26125 0 
L 0 0 
z
" style="fill: #ffffff"/>
  </g>
  <g id="axes_1">
   <g id="patch_2">
    <path d="M 43.78125 289.358281 
L 446.06125 289.358281 
L 446.06125 21.558281 
L 43.78125 21.558281 
z
" style="fill: #ffffff"/>
   </g>
   <g id="line2d_1">
    <path d="M 43.78125 262.893186 
L 446.06125 262.893186 
" clip-path="url(#p9fb311403b)" style="fill: none; stroke-dasharray: 3.7,1.6; stroke-dashoffset: 0; stroke: #808080"/>
   </g>
   <g id="line2d_2">
    <path d="M 43.78125 243.605946 
L 446.06125 243.605946 
" clip-path="url(#p9fb311403b)" style="fill: none; stroke-dasharray: 1,1.65; stroke-dashoffset: 0; stroke: #808080"/>
   </g>
   <g id="matplotlib.axis_1">
    <g id="xtick_1">
     <g id="line2d_3">
      <defs>
       <path id="m27cda3270c" d="M 0 0 
L 0 3.5 
" style="stroke: #000000; stroke-width: 0.8"/>
      </defs>
      <g>
       <use xlink:href="#m27cda3270c" x="108.14605" y="289.358281" style="stroke: #000000; stroke-width: 0.8"/>
      </g>
     </g>
     <g id="text_1">
      <!-- ablate spatial -->
      <g transform="translate(77.5798 303.196875) scale(0.09 -0.09)">
       <defs>
        <path id="DejaVuSans-61" d="M 2194 1759 
Q 1497 1759 1228 1600 
Q 959 1441 959 1056 
Q 959 750 1161 570 
Q 1363 391 1709 391 
Q 2188 391 2477 730 
Q 2766 1069 2766 1631 
L 2766 1759 
L 2194 1759 
z
M 3341 1997 
L 3341 0 
L 2766 0 
L 2766 531 
Q 2569 213 2275 61 
Q 1981 -91 1556 -91 
Q 1019 -91 701 211 
Q 384 513 384 1019 
Q 384 1609 779 1909 
Q 1175 2209 1959 2209 
L 2766 2209 
L 2766 2266 
Q 2766 2663 2505 2880 
Q 2244 3097 1772 3097 
Q 1472 3097 1187 3025 
Q 903 2953 641 2809 
L 641 3341 
Q 956 3463 1253 3523 
Q 1550 3584 1831 3584 
Q 2591 3584 2966 3190 
Q 3341 2797 3341 1997 
z
" transform="scale(0.015625)"/>
        <path id="DejaVuSans-62" d="M 3116 1747 
Q 3116 2381 2855 2742 
Q 2594 3103 2138 3103 
Q 1681 3103 1420 2742 
Q 1159 2381 1159 1747 
Q 1159 1113 1420 752 
Q 1681 391 2138 391 
Q 2594 391 2855 752 
Q 3116 1113 3116 1747 
z
M 1159 2969 
Q 1341 3281 1617 3432 
Q 1894 3584 2278 3584 
Q 2916 3584 3314 3078 
Q 3713 2572 3713 1747 
Q 3713 922 3314 415 
Q 2916 -91 2278 -91 
Q 1894 -91 1617 61 
Q 1341 213 1159 525 
L 1159 0 
L 581 0 
L 581 4863 
L 1159 4863 
L 1159 2969 
z
" transform="scale(0.015625)"/>
        <path id="DejaVuSans-6c" d="M 603 4863 
L 1178 4863 
L 1178 0 
L 603 0 
L 603 4863 
z
" transform="scale(0.015625)"/>
        <path id="DejaVuSans-74" d="M 1172 4494 
L 1172 3500 
L 2356 3500 
L 2356 3053 
L 1172 3053 
L 1172 1153 
Q 1172 725 1289 603 
Q 1406 481 1766 481 
L 2356 481 
L 2356 0 
L 1766 0 
Q 1100 0 847 248 
Q 594 497 594 1153 
L 594 3053 
L 172 3053 
L 172 3500 
L 594 3500 
L 594 4494 
L 1172 4494 
z
" transform="scale(0.015625)"/>
        <path id="DejaVuSans-65" d="M 3597 1894 
L 3597 1613 
L 953 1613 
Q 991 1019 1311 708 
Q 1631 397 2203 397 
Q 2534 397 2845 478 
Q 3156 559 3463 722 
L 3463 178 
Q 3153 47 2828 -22 
Q 2503 -91 2169 -91 
Q 1331 -91 842 396 
Q 353 884 353 1716 
Q 353 2575 817 3079 
Q 1281 3584 2069 3584 
Q 2775 3584 3186 3129 
Q 3597 2675 3597 1894 
z
M 3022 2063 
Q 3016 2534 2758 2815 
Q 2500 3097 2075 3097 
Q 1594 3097 1305 2825 
Q 1016 2553 972 2059 
L 3022 2063 
z
" transform="scale(0.015625)"/>
        <path id="DejaVuSans-20" transform="scale(0.015625)"/>
        <path id="DejaVuSans-73" d="M 2834 3397 
L 2834 2853 
Q 2591 2978 2328 3040 
Q 2066 3103 1784 3103 
Q 1356 3103 1142 2972 
Q 928 2841 928 2578 
Q 928 2378 1081 2264 
Q 1234 2150 1697 2047 
L 1894 2003 
Q 2506 1872 2764 1633 
Q 3022 1394 3022 966 
Q 3022 478 2636 193 
Q 2250 -91 1575 -91 
Q 1294 -91 989 -36 
Q 684 19 347 128 
L 347 722 
Q 666 556 975 473 
Q 1284 391 1588 391 
Q 1994 391 2212 530 
Q 2431 669 2431 922 
Q 2431 1156 2273 1281 
Q 2116 1406 1581 1522 
L 1381 1569 
Q 847 1681 609 1914 
Q 372 2147 372 2553 
Q 372 3047 722 3315 
Q 1072 3584 1716 3584 
Q 2034 3584 2315 3537 
Q 2597 3491 2834 3397 
z
" transform="scale(0.015625)"/>
        <path id="DejaVuSans-70" d="M 1159 525 
L 1159 -1331 
L 581 -1331 
L 581 3500 
L 1159 3500 
L 1159 2969 
Q 1341 3281 1617 3432 
Q 1894 3584 2278 3584 
Q 2916 3584 3314 3078 
Q 3713 2572 3713 1747 
Q 3713 922 3314 415 
Q 2916 -91 2278 -91 
Q 1894 -91 1617 61 
Q 1341 213 1159 525 
z
M 3116 1747 
Q 3116 2381 2855 2742 
Q 2594 3103 2138 3103 
Q 1681 3103 1420 2742 
Q 1159 2381 1159 1747 
Q 1159 1113 1420 752 
Q 1681 391 2138 391 
Q 2594 391 2855 752 
Q 3116 1113 3116 1747 
z
" transform="scale(0.015625)"/>
        <path id="DejaVuSans-69" d="M 603 3500 
L 1178 3500 
L 1178 0 
L 603 0 
L 603 3500 
z
M 603 4863 
L 1178 4863 
L 1178 4134 
L 603 4134 
L 603 4863 
z
" transform="scale(0.015625)"/>
       </defs>
       <use xlink:href="#DejaVuSans-61"/>
       <use xlink:href="#DejaVuSans-62" transform="translate(61.279297 0)"/>
       <use xlink:href="#DejaVuSans-6c" transform="translate(124.755859 0)"/>
       <use xlink:href="#DejaVuSans-61" transform="translate(152.539062 0)"/>
       <use xlink:href="#DejaVuSans-74" transform="translate(213.818359 0)"/>
       <use xlink:href="#DejaVuSans-65" transform="translate(253.027344 0)"/>
       <use xlink:href="#DejaVuSans-20" transform="translate(314.550781 0)"/>
       <use xlink:href="#DejaVuSans-73" transform="translate(346.337891 0)"/>
       <use xlink:href="#DejaVuSans-70" transform="translate(398.4375 0)"/>
       <use xlink:href="#DejaVuSans-61" transform="translate(461.914062 0)"/>
       <use xlink:href="#DejaVuSans-74" transform="translate(523.193359 0)"/>
       <use xlink:href="#DejaVuSans-69" transform="translate(562.402344 0)"/>
       <use xlink:href="#DejaVuSans-61" transform="translate(590.185547 0)"/>
       <use xlink:href="#DejaVuSans-6c" transform="translate(651.464844 0)"/>
      </g>
      <!-- (depth wire cut) -->
      <g transform="translate(72.137612 313.274906) scale(0.09 -0.09)">
       <defs>
        <path id="DejaVuSans-28" d="M 1984 4856 
Q 1566 4138 1362 3434 
Q 1159 2731 1159 2009 
Q 1159 1288 1364 580 
Q 1569 -128 1984 -844 
L 1484 -844 
Q 1016 -109 783 600 
Q 550 1309 550 2009 
Q 550 2706 781 3412 
Q 1013 4119 1484 4856 
L 1984 4856 
z
" transform="scale(0.015625)"/>
        <path id="DejaVuSans-64" d="M 2906 2969 
L 2906 4863 
L 3481 4863 
L 3481 0 
L 2906 0 
L 2906 525 
Q 2725 213 2448 61 
Q 2172 -91 1784 -91 
Q 1150 -91 751 415 
Q 353 922 353 1747 
Q 353 2572 751 3078 
Q 1150 3584 1784 3584 
Q 2172 3584 2448 3432 
Q 2725 3281 2906 2969 
z
M 947 1747 
Q 947 1113 1208 752 
Q 1469 391 1925 391 
Q 2381 391 2643 752 
Q 2906 1113 2906 1747 
Q 2906 2381 2643 2742 
Q 2381 3103 1925 3103 
Q 1469 3103 1208 2742 
Q 947 2381 947 1747 
z
" transform="scale(0.015625)"/>
        <path id="DejaVuSans-68" d="M 3513 2113 
L 3513 0 
L 2938 0 
L 2938 2094 
Q 2938 2591 2744 2837 
Q 2550 3084 2163 3084 
Q 1697 3084 1428 2787 
Q 1159 2491 1159 1978 
L 1159 0 
L 581 0 
L 581 4863 
L 1159 4863 
L 1159 2956 
Q 1366 3272 1645 3428 
Q 1925 3584 2291 3584 
Q 2894 3584 3203 3211 
Q 3513 2838 3513 2113 
z
" transform="scale(0.015625)"/>
        <path id="DejaVuSans-77" d="M 269 3500 
L 844 3500 
L 1563 769 
L 2278 3500 
L 2956 3500 
L 3675 769 
L 4391 3500 
L 4966 3500 
L 4050 0 
L 3372 0 
L 2619 2869 
L 1863 0 
L 1184 0 
L 269 3500 
z
" transform="scale(0.015625)"/>
        <path id="DejaVuSans-72" d="M 2631 2963 
Q 2534 3019 2420 3045 
Q 2306 3072 2169 3072 
Q 1681 3072 1420 2755 
Q 1159 2438 1159 1844 
L 1159 0 
L 581 0 
L 581 3500 
L 1159 3500 
L 1159 2956 
Q 1341 3275 1631 3429 
Q 1922 3584 2338 3584 
Q 2397 3584 2469 3576 
Q 2541 3569 2628 3553 
L 2631 2963 
z
" transform="scale(0.015625)"/>
        <path id="DejaVuSans-63" d="M 3122 3366 
L 3122 2828 
Q 2878 2963 2633 3030 
Q 2388 3097 2138 3097 
Q 1578 3097 1268 2742 
Q 959 2388 959 1747 
Q 959 1106 1268 751 
Q 1578 397 2138 397 
Q 2388 397 2633 464 
Q 2878 531 3122 666 
L 3122 134 
Q 2881 22 2623 -34 
Q 2366 -91 2075 -91 
Q 1284 -91 818 406 
Q 353 903 353 1747 
Q 353 2603 823 3093 
Q 1294 3584 2113 3584 
Q 2378 3584 2631 3529 
Q 2884 3475 3122 3366 
z
" transform="scale(0.015625)"/>
        <path id="DejaVuSans-75" d="M 544 1381 
L 544 3500 
L 1119 3500 
L 1119 1403 
Q 1119 906 1312 657 
Q 1506 409 1894 409 
Q 2359 409 2629 706 
Q 2900 1003 2900 1516 
L 2900 3500 
L 3475 3500 
L 3475 0 
L 2900 0 
L 2900 538 
Q 2691 219 2414 64 
Q 2138 -91 1772 -91 
Q 1169 -91 856 284 
Q 544 659 544 1381 
z
M 1991 3584 
L 1991 3584 
z
" transform="scale(0.015625)"/>
        <path id="DejaVuSans-29" d="M 513 4856 
L 1013 4856 
Q 1481 4119 1714 3412 
Q 1947 2706 1947 2009 
Q 1947 1309 1714 600 
Q 1481 -109 1013 -844 
L 513 -844 
Q 928 -128 1133 580 
Q 1338 1288 1338 2009 
Q 1338 2731 1133 3434 
Q 928 4138 513 4856 
z
" transform="scale(0.015625)"/>
       </defs>
       <use xlink:href="#DejaVuSans-28"/>
       <use xlink:href="#DejaVuSans-64" transform="translate(39.013672 0)"/>
       <use xlink:href="#DejaVuSans-65" transform="translate(102.490234 0)"/>
       <use xlink:href="#DejaVuSans-70" transform="translate(164.013672 0)"/>
       <use xlink:href="#DejaVuSans-74" transform="translate(227.490234 0)"/>
       <use xlink:href="#DejaVuSans-68" transform="translate(266.699219 0)"/>
       <use xlink:href="#DejaVuSans-20" transform="translate(330.078125 0)"/>
       <use xlink:href="#DejaVuSans-77" transform="translate(361.865234 0)"/>
       <use xlink:href="#DejaVuSans-69" transform="translate(443.652344 0)"/>
       <use xlink:href="#DejaVuSans-72" transform="translate(471.435547 0)"/>
       <use xlink:href="#DejaVuSans-65" transform="translate(510.298828 0)"/>
       <use xlink:href="#DejaVuSans-20" transform="translate(571.822266 0)"/>
       <use xlink:href="#DejaVuSans-63" transform="translate(603.609375 0)"/>
       <use xlink:href="#DejaVuSans-75" transform="translate(658.589844 0)"/>
       <use xlink:href="#DejaVuSans-74" transform="translate(721.96875 0)"/>
       <use xlink:href="#DejaVuSans-29" transform="translate(761.177734 0)"/>
      </g>
     </g>
    </g>
    <g id="xtick_2">
     <g id="line2d_4">
      <g>
       <use xlink:href="#m27cda3270c" x="215.420717" y="289.358281" style="stroke: #000000; stroke-width: 0.8"/>
      </g>
     </g>
     <g id="text_2">
      <!-- ablate temporal -->
      <g transform="translate(179.450951 303.196875) scale(0.09 -0.09)">
       <defs>
        <path id="DejaVuSans-6d" d="M 3328 2828 
Q 3544 3216 3844 3400 
Q 4144 3584 4550 3584 
Q 5097 3584 5394 3201 
Q 5691 2819 5691 2113 
L 5691 0 
L 5113 0 
L 5113 2094 
Q 5113 2597 4934 2840 
Q 4756 3084 4391 3084 
Q 3944 3084 3684 2787 
Q 3425 2491 3425 1978 
L 3425 0 
L 2847 0 
L 2847 2094 
Q 2847 2600 2669 2842 
Q 2491 3084 2119 3084 
Q 1678 3084 1418 2786 
Q 1159 2488 1159 1978 
L 1159 0 
L 581 0 
L 581 3500 
L 1159 3500 
L 1159 2956 
Q 1356 3278 1631 3431 
Q 1906 3584 2284 3584 
Q 2666 3584 2933 3390 
Q 3200 3197 3328 2828 
z
" transform="scale(0.015625)"/>
        <path id="DejaVuSans-6f" d="M 1959 3097 
Q 1497 3097 1228 2736 
Q 959 2375 959 1747 
Q 959 1119 1226 758 
Q 1494 397 1959 397 
Q 2419 397 2687 759 
Q 2956 1122 2956 1747 
Q 2956 2369 2687 2733 
Q 2419 3097 1959 3097 
z
M 1959 3584 
Q 2709 3584 3137 3096 
Q 3566 2609 3566 1747 
Q 3566 888 3137 398 
Q 2709 -91 1959 -91 
Q 1206 -91 779 398 
Q 353 888 353 1747 
Q 353 2609 779 3096 
Q 1206 3584 1959 3584 
z
" transform="scale(0.015625)"/>
       </defs>
       <use xlink:href="#DejaVuSans-61"/>
       <use xlink:href="#DejaVuSans-62" transform="translate(61.279297 0)"/>
       <use xlink:href="#DejaVuSans-6c" transform="translate(124.755859 0)"/>
       <use xlink:href="#DejaVuSans-61" transform="translate(152.539062 0)"/>
       <use xlink:href="#DejaVuSans-74" transform="translate(213.818359 0)"/>
       <use xlink:href="#DejaVuSans-65" transform="translate(253.027344 0)"/>
       <use xlink:href="#DejaVuSans-20" transform="translate(314.550781 0)"/>
       <use xlink:href="#DejaVuSans-74" transform="translate(346.337891 0)"/>
       <use xlink:href="#DejaVuSans-65" transform="translate(385.546875 0)"/>
       <use xlink:href="#DejaVuSans-6d" transform="translate(447.070312 0)"/>
       <use xlink:href="#DejaVuSans-70" transform="translate(544.482422 0)"/>
       <use xlink:href="#DejaVuSans-6f" transform="translate(607.958984 0)"/>
       <use xlink:href="#DejaVuSans-72" transform="translate(669.140625 0)"/>
       <use xlink:href="#DejaVuSans-61" transform="translate(710.253906 0)"/>
       <use xlink:href="#DejaVuSans-6c" transform="translate(771.533203 0)"/>
      </g>
      <!-- (cross-layer carry cut) -->
      <g transform="translate(165.863764 313.274906) scale(0.09 -0.09)">
       <defs>
        <path id="DejaVuSans-2d" d="M 313 2009 
L 1997 2009 
L 1997 1497 
L 313 1497 
L 313 2009 
z
" transform="scale(0.015625)"/>
        <path id="DejaVuSans-79" d="M 2059 -325 
Q 1816 -950 1584 -1140 
Q 1353 -1331 966 -1331 
L 506 -1331 
L 506 -850 
L 844 -850 
Q 1081 -850 1212 -737 
Q 1344 -625 1503 -206 
L 1606 56 
L 191 3500 
L 800 3500 
L 1894 763 
L 2988 3500 
L 3597 3500 
L 2059 -325 
z
" transform="scale(0.015625)"/>
       </defs>
       <use xlink:href="#DejaVuSans-28"/>
       <use xlink:href="#DejaVuSans-63" transform="translate(39.013672 0)"/>
       <use xlink:href="#DejaVuSans-72" transform="translate(93.994141 0)"/>
       <use xlink:href="#DejaVuSans-6f" transform="translate(132.857422 0)"/>
       <use xlink:href="#DejaVuSans-73" transform="translate(194.039062 0)"/>
       <use xlink:href="#DejaVuSans-73" transform="translate(246.138672 0)"/>
       <use xlink:href="#DejaVuSans-2d" transform="translate(298.238281 0)"/>
       <use xlink:href="#DejaVuSans-6c" transform="translate(334.322266 0)"/>
       <use xlink:href="#DejaVuSans-61" transform="translate(362.105469 0)"/>
       <use xlink:href="#DejaVuSans-79" transform="translate(423.384766 0)"/>
       <use xlink:href="#DejaVuSans-65" transform="translate(482.564453 0)"/>
       <use xlink:href="#DejaVuSans-72" transform="translate(544.087891 0)"/>
       <use xlink:href="#DejaVuSans-20" transform="translate(585.201172 0)"/>
       <use xlink:href="#DejaVuSans-63" transform="translate(616.988281 0)"/>
       <use xlink:href="#DejaVuSans-61" transform="translate(671.96875 0)"/>
       <use xlink:href="#DejaVuSans-72" transform="translate(733.248047 0)"/>
       <use xlink:href="#DejaVuSans-72" transform="translate(772.611328 0)"/>
       <use xlink:href="#DejaVuSans-79" transform="translate(813.724609 0)"/>
       <use xlink:href="#DejaVuSans-20" transform="translate(872.904297 0)"/>
       <use xlink:href="#DejaVuSans-63" transform="translate(904.691406 0)"/>
       <use xlink:href="#DejaVuSans-75" transform="translate(959.671875 0)"/>
       <use xlink:href="#DejaVuSans-74" transform="translate(1023.050781 0)"/>
       <use xlink:href="#DejaVuSans-29" transform="translate(1062.259766 0)"/>
      </g>
     </g>
    </g>
    <g id="xtick_3">
     <g id="line2d_5">
      <g>
       <use xlink:href="#m27cda3270c" x="322.695383" y="289.358281" style="stroke: #000000; stroke-width: 0.8"/>
      </g>
     </g>
     <g id="text_3">
      <!-- full trace -->
      <g transform="translate(302.713977 303.196875) scale(0.09 -0.09)">
       <defs>
        <path id="DejaVuSans-66" d="M 2375 4863 
L 2375 4384 
L 1825 4384 
Q 1516 4384 1395 4259 
Q 1275 4134 1275 3809 
L 1275 3500 
L 2222 3500 
L 2222 3053 
L 1275 3053 
L 1275 0 
L 697 0 
L 697 3053 
L 147 3053 
L 147 3500 
L 697 3500 
L 697 3744 
Q 697 4328 969 4595 
Q 1241 4863 1831 4863 
L 2375 4863 
z
" transform="scale(0.015625)"/>
       </defs>
       <use xlink:href="#DejaVuSans-66"/>
       <use xlink:href="#DejaVuSans-75" transform="translate(35.205078 0)"/>
       <use xlink:href="#DejaVuSans-6c" transform="translate(98.583984 0)"/>
       <use xlink:href="#DejaVuSans-6c" transform="translate(126.367188 0)"/>
       <use xlink:href="#DejaVuSans-20" transform="translate(154.150391 0)"/>
       <use xlink:href="#DejaVuSans-74" transform="translate(185.9375 0)"/>
       <use xlink:href="#DejaVuSans-72" transform="translate(225.146484 0)"/>
       <use xlink:href="#DejaVuSans-61" transform="translate(266.259766 0)"/>
       <use xlink:href="#DejaVuSans-63" transform="translate(327.539062 0)"/>
       <use xlink:href="#DejaVuSans-65" transform="translate(382.519531 0)"/>
      </g>
     </g>
    </g>
   </g>
   <g id="matplotlib.axis_2">
    <g id="ytick_1">
     <g id="line2d_6">
      <defs>
       <path id="m3c3e649a76" d="M 0 0 
L -3.5 0 
" style="stroke: #000000; stroke-width: 0.8"/>
      </defs>
      <g>
       <use xlink:href="#m3c3e649a76" x="43.78125" y="262.893186" style="stroke: #000000; stroke-width: 0.8"/>
      </g>
     </g>
     <g id="text_4">
      <!-- 0.5 -->
      <g transform="translate(20.878125 266.692405) scale(0.1 -0.1)">
       <defs>
        <path id="DejaVuSans-30" d="M 2034 4250 
Q 1547 4250 1301 3770 
Q 1056 3291 1056 2328 
Q 1056 1369 1301 889 
Q 1547 409 2034 409 
Q 2525 409 2770 889 
Q 3016 1369 3016 2328 
Q 3016 3291 2770 3770 
Q 2525 4250 2034 4250 
z
M 2034 4750 
Q 2819 4750 3233 4129 
Q 3647 3509 3647 2328 
Q 3647 1150 3233 529 
Q 2819 -91 2034 -91 
Q 1250 -91 836 529 
Q 422 1150 422 2328 
Q 422 3509 836 4129 
Q 1250 4750 2034 4750 
z
" transform="scale(0.015625)"/>
        <path id="DejaVuSans-2e" d="M 684 794 
L 1344 794 
L 1344 0 
L 684 0 
L 684 794 
z
" transform="scale(0.015625)"/>
        <path id="DejaVuSans-35" d="M 691 4666 
L 3169 4666 
L 3169 4134 
L 1269 4134 
L 1269 2991 
Q 1406 3038 1543 3061 
Q 1681 3084 1819 3084 
Q 2600 3084 3056 2656 
Q 3513 2228 3513 1497 
Q 3513 744 3044 326 
Q 2575 -91 1722 -91 
Q 1428 -91 1123 -41 
Q 819 9 494 109 
L 494 744 
Q 775 591 1075 516 
Q 1375 441 1709 441 
Q 2250 441 2565 725 
Q 2881 1009 2881 1497 
Q 2881 1984 2565 2268 
Q 2250 2553 1709 2553 
Q 1456 2553 1204 2497 
Q 953 2441 691 2322 
L 691 4666 
z
" transform="scale(0.015625)"/>
       </defs>
       <use xlink:href="#DejaVuSans-30"/>
       <use xlink:href="#DejaVuSans-2e" transform="translate(63.623047 0)"/>
       <use xlink:href="#DejaVuSans-35" transform="translate(95.410156 0)"/>
      </g>
     </g>
    </g>
    <g id="ytick_2">
     <g id="line2d_7">
      <g>
       <use xlink:href="#m3c3e649a76" x="43.78125" y="209.962996" style="stroke: #000000; stroke-width: 0.8"/>
      </g>
     </g>
     <g id="text_5">
      <!-- 0.6 -->
      <g transform="translate(20.878125 213.762214) scale(0.1 -0.1)">
       <defs>
        <path id="DejaVuSans-36" d="M 2113 2584 
Q 1688 2584 1439 2293 
Q 1191 2003 1191 1497 
Q 1191 994 1439 701 
Q 1688 409 2113 409 
Q 2538 409 2786 701 
Q 3034 994 3034 1497 
Q 3034 2003 2786 2293 
Q 2538 2584 2113 2584 
z
M 3366 4563 
L 3366 3988 
Q 3128 4100 2886 4159 
Q 2644 4219 2406 4219 
Q 1781 4219 1451 3797 
Q 1122 3375 1075 2522 
Q 1259 2794 1537 2939 
Q 1816 3084 2150 3084 
Q 2853 3084 3261 2657 
Q 3669 2231 3669 1497 
Q 3669 778 3244 343 
Q 2819 -91 2113 -91 
Q 1303 -91 875 529 
Q 447 1150 447 2328 
Q 447 3434 972 4092 
Q 1497 4750 2381 4750 
Q 2619 4750 2861 4703 
Q 3103 4656 3366 4563 
z
" transform="scale(0.015625)"/>
       </defs>
       <use xlink:href="#DejaVuSans-30"/>
       <use xlink:href="#DejaVuSans-2e" transform="translate(63.623047 0)"/>
       <use xlink:href="#DejaVuSans-36" transform="translate(95.410156 0)"/>
      </g>
     </g>
    </g>
    <g id="ytick_3">
     <g id="line2d_8">
      <g>
       <use xlink:href="#m3c3e649a76" x="43.78125" y="157.032805" style="stroke: #000000; stroke-width: 0.8"/>
      </g>
     </g>
     <g id="text_6">
      <!-- 0.7 -->
      <g transform="translate(20.878125 160.832024) scale(0.1 -0.1)">
       <defs>
        <path id="DejaVuSans-37" d="M 525 4666 
L 3525 4666 
L 3525 4397 
L 1831 0 
L 1172 0 
L 2766 4134 
L 525 4134 
L 525 4666 
z
" transform="scale(0.015625)"/>
       </defs>
       <use xlink:href="#DejaVuSans-30"/>
       <use xlink:href="#DejaVuSans-2e" transform="translate(63.623047 0)"/>
       <use xlink:href="#DejaVuSans-37" transform="translate(95.410156 0)"/>
      </g>
     </g>
    </g>
    <g id="ytick_4">
     <g id="line2d_9">
      <g>
       <use xlink:href="#m3c3e649a76" x="43.78125" y="104.102615" style="stroke: #000000; stroke-width: 0.8"/>
      </g>
     </g>
     <g id="text_7">
      <!-- 0.8 -->
      <g transform="translate(20.878125 107.901833) scale(0.1 -0.1)">
       <defs>
        <path id="DejaVuSans-38" d="M 2034 2216 
Q 1584 2216 1326 1975 
Q 1069 1734 1069 1313 
Q 1069 891 1326 650 
Q 1584 409 2034 409 
Q 2484 409 2743 651 
Q 3003 894 3003 1313 
Q 3003 1734 2745 1975 
Q 2488 2216 2034 2216 
z
M 1403 2484 
Q 997 2584 770 2862 
Q 544 3141 544 3541 
Q 544 4100 942 4425 
Q 1341 4750 2034 4750 
Q 2731 4750 3128 4425 
Q 3525 4100 3525 3541 
Q 3525 3141 3298 2862 
Q 3072 2584 2669 2484 
Q 3125 2378 3379 2068 
Q 3634 1759 3634 1313 
Q 3634 634 3220 271 
Q 2806 -91 2034 -91 
Q 1263 -91 848 271 
Q 434 634 434 1313 
Q 434 1759 690 2068 
Q 947 2378 1403 2484 
z
M 1172 3481 
Q 1172 3119 1398 2916 
Q 1625 2713 2034 2713 
Q 2441 2713 2670 2916 
Q 2900 3119 2900 3481 
Q 2900 3844 2670 4047 
Q 2441 4250 2034 4250 
Q 1625 4250 1398 4047 
Q 1172 3844 1172 3481 
z
" transform="scale(0.015625)"/>
       </defs>
       <use xlink:href="#DejaVuSans-30"/>
       <use xlink:href="#DejaVuSans-2e" transform="translate(63.623047 0)"/>
       <use xlink:href="#DejaVuSans-38" transform="translate(95.410156 0)"/>
      </g>
     </g>
    </g>
    <g id="ytick_5">
     <g id="line2d_10">
      <g>
       <use xlink:href="#m3c3e649a76" x="43.78125" y="51.172424" style="stroke: #000000; stroke-width: 0.8"/>
      </g>
     </g>
     <g id="text_8">
      <!-- 0.9 -->
      <g transform="translate(20.878125 54.971643) scale(0.1 -0.1)">
       <defs>
        <path id="DejaVuSans-39" d="M 703 97 
L 703 672 
Q 941 559 1184 500 
Q 1428 441 1663 441 
Q 2288 441 2617 861 
Q 2947 1281 2994 2138 
Q 2813 1869 2534 1725 
Q 2256 1581 1919 1581 
Q 1219 1581 811 2004 
Q 403 2428 403 3163 
Q 403 3881 828 4315 
Q 1253 4750 1959 4750 
Q 2769 4750 3195 4129 
Q 3622 3509 3622 2328 
Q 3622 1225 3098 567 
Q 2575 -91 1691 -91 
Q 1453 -91 1209 -44 
Q 966 3 703 97 
z
M 1959 2075 
Q 2384 2075 2632 2365 
Q 2881 2656 2881 3163 
Q 2881 3666 2632 3958 
Q 2384 4250 1959 4250 
Q 1534 4250 1286 3958 
Q 1038 3666 1038 3163 
Q 1038 2656 1286 2365 
Q 1534 2075 1959 2075 
z
" transform="scale(0.015625)"/>
       </defs>
       <use xlink:href="#DejaVuSans-30"/>
       <use xlink:href="#DejaVuSans-2e" transform="translate(63.623047 0)"/>
       <use xlink:href="#DejaVuSans-39" transform="translate(95.410156 0)"/>
      </g>
     </g>
    </g>
    <g id="text_9">
     <!-- cross-validated cue-margin decode accuracy -->
     <g transform="translate(14.798438 267.412187) rotate(-90) scale(0.1 -0.1)">
      <defs>
       <path id="DejaVuSans-76" d="M 191 3500 
L 800 3500 
L 1894 563 
L 2988 3500 
L 3597 3500 
L 2284 0 
L 1503 0 
L 191 3500 
z
" transform="scale(0.015625)"/>
       <path id="DejaVuSans-67" d="M 2906 1791 
Q 2906 2416 2648 2759 
Q 2391 3103 1925 3103 
Q 1463 3103 1205 2759 
Q 947 2416 947 1791 
Q 947 1169 1205 825 
Q 1463 481 1925 481 
Q 2391 481 2648 825 
Q 2906 1169 2906 1791 
z
M 3481 434 
Q 3481 -459 3084 -895 
Q 2688 -1331 1869 -1331 
Q 1566 -1331 1297 -1286 
Q 1028 -1241 775 -1147 
L 775 -588 
Q 1028 -725 1275 -790 
Q 1522 -856 1778 -856 
Q 2344 -856 2625 -561 
Q 2906 -266 2906 331 
L 2906 616 
Q 2728 306 2450 153 
Q 2172 0 1784 0 
Q 1141 0 747 490 
Q 353 981 353 1791 
Q 353 2603 747 3093 
Q 1141 3584 1784 3584 
Q 2172 3584 2450 3431 
Q 2728 3278 2906 2969 
L 2906 3500 
L 3481 3500 
L 3481 434 
z
" transform="scale(0.015625)"/>
       <path id="DejaVuSans-6e" d="M 3513 2113 
L 3513 0 
L 2938 0 
L 2938 2094 
Q 2938 2591 2744 2837 
Q 2550 3084 2163 3084 
Q 1697 3084 1428 2787 
Q 1159 2491 1159 1978 
L 1159 0 
L 581 0 
L 581 3500 
L 1159 3500 
L 1159 2956 
Q 1366 3272 1645 3428 
Q 1925 3584 2291 3584 
Q 2894 3584 3203 3211 
Q 3513 2838 3513 2113 
z
" transform="scale(0.015625)"/>
      </defs>
      <use xlink:href="#DejaVuSans-63"/>
      <use xlink:href="#DejaVuSans-72" transform="translate(54.980469 0)"/>
      <use xlink:href="#DejaVuSans-6f" transform="translate(93.84375 0)"/>
      <use xlink:href="#DejaVuSans-73" transform="translate(155.025391 0)"/>
      <use xlink:href="#DejaVuSans-73" transform="translate(207.125 0)"/>
      <use xlink:href="#DejaVuSans-2d" transform="translate(259.224609 0)"/>
      <use xlink:href="#DejaVuSans-76" transform="translate(292.683594 0)"/>
      <use xlink:href="#DejaVuSans-61" transform="translate(351.863281 0)"/>
      <use xlink:href="#DejaVuSans-6c" transform="translate(413.142578 0)"/>
      <use xlink:href="#DejaVuSans-69" transform="translate(440.925781 0)"/>
      <use xlink:href="#DejaVuSans-64" transform="translate(468.708984 0)"/>
      <use xlink:href="#DejaVuSans-61" transform="translate(532.185547 0)"/>
      <use xlink:href="#DejaVuSans-74" transform="translate(593.464844 0)"/>
      <use xlink:href="#DejaVuSans-65" transform="translate(632.673828 0)"/>
      <use xlink:href="#DejaVuSans-64" transform="translate(694.197266 0)"/>
      <use xlink:href="#DejaVuSans-20" transform="translate(757.673828 0)"/>
      <use xlink:href="#DejaVuSans-63" transform="translate(789.460938 0)"/>
      <use xlink:href="#DejaVuSans-75" transform="translate(844.441406 0)"/>
      <use xlink:href="#DejaVuSans-65" transform="translate(907.820312 0)"/>
      <use xlink:href="#DejaVuSans-2d" transform="translate(969.34375 0)"/>
      <use xlink:href="#DejaVuSans-6d" transform="translate(1005.427734 0)"/>
      <use xlink:href="#DejaVuSans-61" transform="translate(1102.839844 0)"/>
      <use xlink:href="#DejaVuSans-72" transform="translate(1164.119141 0)"/>
      <use xlink:href="#DejaVuSans-67" transform="translate(1203.482422 0)"/>
      <use xlink:href="#DejaVuSans-69" transform="translate(1266.958984 0)"/>
      <use xlink:href="#DejaVuSans-6e" transform="translate(1294.742188 0)"/>
      <use xlink:href="#DejaVuSans-20" transform="translate(1358.121094 0)"/>
      <use xlink:href="#DejaVuSans-64" transform="translate(1389.908203 0)"/>
      <use xlink:href="#DejaVuSans-65" transform="translate(1453.384766 0)"/>
      <use xlink:href="#DejaVuSans-63" transform="translate(1514.908203 0)"/>
      <use xlink:href="#DejaVuSans-6f" transform="translate(1569.888672 0)"/>
      <use xlink:href="#DejaVuSans-64" transform="translate(1631.070312 0)"/>
      <use xlink:href="#DejaVuSans-65" transform="translate(1694.546875 0)"/>
      <use xlink:href="#DejaVuSans-20" transform="translate(1756.070312 0)"/>
      <use xlink:href="#DejaVuSans-61" transform="translate(1787.857422 0)"/>
      <use xlink:href="#DejaVuSans-63" transform="translate(1849.136719 0)"/>
      <use xlink:href="#DejaVuSans-63" transform="translate(1904.117188 0)"/>
      <use xlink:href="#DejaVuSans-75" transform="translate(1959.097656 0)"/>
      <use xlink:href="#DejaVuSans-72" transform="translate(2022.476562 0)"/>
      <use xlink:href="#DejaVuSans-61" transform="translate(2063.589844 0)"/>
      <use xlink:href="#DejaVuSans-63" transform="translate(2124.869141 0)"/>
      <use xlink:href="#DejaVuSans-79" transform="translate(2179.849609 0)"/>
     </g>
    </g>
   </g>
   <g id="patch_3">
    <path d="M 74.890903 527.544138 
L 141.401197 527.544138 
L 141.401197 262.893186 
L 74.890903 262.893186 
z
" clip-path="url(#p9fb311403b)" style="fill: #ff7f0e"/>
   </g>
   <g id="patch_4">
    <path d="M 182.16557 527.544138 
L 248.675863 527.544138 
L 248.675863 167.304508 
L 182.16557 167.304508 
z
" clip-path="url(#p9fb311403b)" style="fill: #d62728"/>
   </g>
   <g id="patch_5">
    <path d="M 289.440237 527.544138 
L 355.95053 527.544138 
L 355.95053 81.888126 
L 289.440237 81.888126 
z
" clip-path="url(#p9fb311403b)" style="fill: #1f77b4"/>
   </g>
   <g id="LineCollection_1">
    <path d="M 108.14605 262.893186 
L 108.14605 262.893186 
" clip-path="url(#p9fb311403b)" style="fill: none; stroke: #000000; stroke-width: 1.5"/>
    <path d="M 215.420717 174.704162 
L 215.420717 159.904854 
" clip-path="url(#p9fb311403b)" style="fill: none; stroke: #000000; stroke-width: 1.5"/>
    <path d="M 322.695383 87.885425 
L 322.695383 75.890827 
" clip-path="url(#p9fb311403b)" style="fill: none; stroke: #000000; stroke-width: 1.5"/>
   </g>
   <g id="line2d_11">
    <defs>
     <path id="m07fe21eb4d" d="M 4 0 
L -4 -0 
" style="stroke: #000000"/>
    </defs>
    <g clip-path="url(#p9fb311403b)">
     <use xlink:href="#m07fe21eb4d" x="108.14605" y="262.893186" style="fill: #1f77b4; stroke: #000000"/>
     <use xlink:href="#m07fe21eb4d" x="215.420717" y="174.704162" style="fill: #1f77b4; stroke: #000000"/>
     <use xlink:href="#m07fe21eb4d" x="322.695383" y="87.885425" style="fill: #1f77b4; stroke: #000000"/>
    </g>
   </g>
   <g id="line2d_12">
    <g clip-path="url(#p9fb311403b)">
     <use xlink:href="#m07fe21eb4d" x="108.14605" y="262.893186" style="fill: #1f77b4; stroke: #000000"/>
     <use xlink:href="#m07fe21eb4d" x="215.420717" y="159.904854" style="fill: #1f77b4; stroke: #000000"/>
     <use xlink:href="#m07fe21eb4d" x="322.695383" y="75.890827" style="fill: #1f77b4; stroke: #000000"/>
    </g>
   </g>
   <g id="patch_6">
    <path d="M 43.78125 289.358281 
L 43.78125 21.558281 
" style="fill: none; stroke: #000000; stroke-width: 0.8; stroke-linejoin: miter; stroke-linecap: square"/>
   </g>
   <g id="patch_7">
    <path d="M 43.78125 289.358281 
L 446.06125 289.358281 
" style="fill: none; stroke: #000000; stroke-width: 0.8; stroke-linejoin: miter; stroke-linecap: square"/>
   </g>
   <g id="text_10">
    <!-- chance -->
    <g style="fill: #808080" transform="translate(367.750743 241.476298) scale(0.075 -0.075)">
     <use xlink:href="#DejaVuSans-63"/>
     <use xlink:href="#DejaVuSans-68" transform="translate(54.980469 0)"/>
     <use xlink:href="#DejaVuSans-61" transform="translate(118.359375 0)"/>
     <use xlink:href="#DejaVuSans-6e" transform="translate(179.638672 0)"/>
     <use xlink:href="#DejaVuSans-63" transform="translate(243.017578 0)"/>
     <use xlink:href="#DejaVuSans-65" transform="translate(297.998047 0)"/>
    </g>
    <!-- (perm. 95%) -->
    <g style="fill: #808080" transform="translate(367.750743 249.874657) scale(0.075 -0.075)">
     <defs>
      <path id="DejaVuSans-25" d="M 4653 2053 
Q 4381 2053 4226 1822 
Q 4072 1591 4072 1178 
Q 4072 772 4226 539 
Q 4381 306 4653 306 
Q 4919 306 5073 539 
Q 5228 772 5228 1178 
Q 5228 1588 5073 1820 
Q 4919 2053 4653 2053 
z
M 4653 2450 
Q 5147 2450 5437 2106 
Q 5728 1763 5728 1178 
Q 5728 594 5436 251 
Q 5144 -91 4653 -91 
Q 4153 -91 3862 251 
Q 3572 594 3572 1178 
Q 3572 1766 3864 2108 
Q 4156 2450 4653 2450 
z
M 1428 4353 
Q 1159 4353 1004 4120 
Q 850 3888 850 3481 
Q 850 3069 1003 2837 
Q 1156 2606 1428 2606 
Q 1700 2606 1854 2837 
Q 2009 3069 2009 3481 
Q 2009 3884 1853 4118 
Q 1697 4353 1428 4353 
z
M 4250 4750 
L 4750 4750 
L 1831 -91 
L 1331 -91 
L 4250 4750 
z
M 1428 4750 
Q 1922 4750 2215 4408 
Q 2509 4066 2509 3481 
Q 2509 2891 2217 2550 
Q 1925 2209 1428 2209 
Q 931 2209 642 2551 
Q 353 2894 353 3481 
Q 353 4063 643 4406 
Q 934 4750 1428 4750 
z
" transform="scale(0.015625)"/>
     </defs>
     <use xlink:href="#DejaVuSans-28"/>
     <use xlink:href="#DejaVuSans-70" transform="translate(39.013672 0)"/>
     <use xlink:href="#DejaVuSans-65" transform="translate(102.490234 0)"/>
     <use xlink:href="#DejaVuSans-72" transform="translate(164.013672 0)"/>
     <use xlink:href="#DejaVuSans-6d" transform="translate(203.376953 0)"/>
     <use xlink:href="#DejaVuSans-2e" transform="translate(300.789062 0)"/>
     <use xlink:href="#DejaVuSans-20" transform="translate(332.576172 0)"/>
     <use xlink:href="#DejaVuSans-39" transform="translate(364.363281 0)"/>
     <use xlink:href="#DejaVuSans-35" transform="translate(427.986328 0)"/>
     <use xlink:href="#DejaVuSans-25" transform="translate(491.609375 0)"/>
     <use xlink:href="#DejaVuSans-29" transform="translate(586.628906 0)"/>
    </g>
   </g>
   <g id="patch_8">
    <path d="M 122.404859 256.155267 
Q 161.782933 215.099316 200.077533 175.173005 
" style="fill: none; stroke: #4c4c4c; stroke-width: 1.4; stroke-linecap: round"/>
    <path d="M 195.86531 176.675394 
L 200.077533 175.173005 
L 198.752111 179.444217 
" style="fill: none; stroke: #4c4c4c; stroke-width: 1.4; stroke-linecap: round"/>
   </g>
   <g id="text_11">
    <!-- a thin-layer -->
    <g style="fill: #4c4c4c" transform="translate(178.94733 212.685245) scale(0.085 -0.085)">
     <defs>
      <path id="DejaVuSans-Oblique-61" d="M 3438 1997 
L 3047 0 
L 2472 0 
L 2578 531 
Q 2325 219 2001 64 
Q 1678 -91 1281 -91 
Q 834 -91 548 182 
Q 263 456 263 884 
Q 263 1497 752 1853 
Q 1241 2209 2100 2209 
L 2900 2209 
L 2931 2363 
Q 2938 2388 2941 2417 
Q 2944 2447 2944 2509 
Q 2944 2788 2717 2942 
Q 2491 3097 2081 3097 
Q 1800 3097 1504 3025 
Q 1209 2953 897 2809 
L 997 3341 
Q 1322 3463 1633 3523 
Q 1944 3584 2234 3584 
Q 2853 3584 3176 3315 
Q 3500 3047 3500 2534 
Q 3500 2431 3484 2292 
Q 3469 2153 3438 1997 
z
M 2816 1759 
L 2241 1759 
Q 1534 1759 1195 1570 
Q 856 1381 856 984 
Q 856 709 1029 553 
Q 1203 397 1509 397 
Q 1978 397 2328 733 
Q 2678 1069 2791 1631 
L 2816 1759 
z
" transform="scale(0.015625)"/>
      <path id="DejaVuSans-Oblique-20" transform="scale(0.015625)"/>
      <path id="DejaVuSans-Oblique-74" d="M 2706 3500 
L 2619 3053 
L 1472 3053 
L 1100 1153 
Q 1081 1047 1072 975 
Q 1063 903 1063 863 
Q 1063 663 1183 572 
Q 1303 481 1569 481 
L 2150 481 
L 2053 0 
L 1503 0 
Q 991 0 739 200 
Q 488 400 488 806 
Q 488 878 497 964 
Q 506 1050 525 1153 
L 897 3053 
L 409 3053 
L 500 3500 
L 978 3500 
L 1172 4494 
L 1747 4494 
L 1556 3500 
L 2706 3500 
z
" transform="scale(0.015625)"/>
      <path id="DejaVuSans-Oblique-68" d="M 3566 2113 
L 3156 0 
L 2578 0 
L 2988 2091 
Q 3016 2238 3031 2350 
Q 3047 2463 3047 2528 
Q 3047 2791 2881 2937 
Q 2716 3084 2419 3084 
Q 1956 3084 1617 2771 
Q 1278 2459 1178 1941 
L 800 0 
L 225 0 
L 1172 4863 
L 1747 4863 
L 1375 2950 
Q 1594 3244 1934 3414 
Q 2275 3584 2650 3584 
Q 3113 3584 3367 3334 
Q 3622 3084 3622 2631 
Q 3622 2519 3608 2391 
Q 3594 2263 3566 2113 
z
" transform="scale(0.015625)"/>
      <path id="DejaVuSans-Oblique-69" d="M 1172 4863 
L 1747 4863 
L 1606 4134 
L 1031 4134 
L 1172 4863 
z
M 909 3500 
L 1484 3500 
L 800 0 
L 225 0 
L 909 3500 
z
" transform="scale(0.015625)"/>
      <path id="DejaVuSans-Oblique-6e" d="M 3566 2113 
L 3156 0 
L 2578 0 
L 2988 2091 
Q 3016 2238 3031 2350 
Q 3047 2463 3047 2528 
Q 3047 2791 2881 2937 
Q 2716 3084 2419 3084 
Q 1956 3084 1622 2776 
Q 1288 2469 1184 1941 
L 800 0 
L 225 0 
L 903 3500 
L 1478 3500 
L 1363 2950 
Q 1603 3253 1940 3418 
Q 2278 3584 2650 3584 
Q 3113 3584 3367 3334 
Q 3622 3084 3622 2631 
Q 3622 2519 3608 2391 
Q 3594 2263 3566 2113 
z
" transform="scale(0.015625)"/>
      <path id="DejaVuSans-Oblique-2d" d="M 391 2009 
L 2075 2009 
L 1978 1497 
L 288 1497 
L 391 2009 
z
" transform="scale(0.015625)"/>
      <path id="DejaVuSans-Oblique-6c" d="M 1172 4863 
L 1747 4863 
L 800 0 
L 225 0 
L 1172 4863 
z
" transform="scale(0.015625)"/>
      <path id="DejaVuSans-Oblique-79" d="M 1588 -325 
Q 1188 -997 936 -1164 
Q 684 -1331 294 -1331 
L -159 -1331 
L -63 -850 
L 269 -850 
Q 509 -850 678 -719 
Q 847 -588 1056 -206 
L 1234 128 
L 459 3500 
L 1069 3500 
L 1650 819 
L 3256 3500 
L 3859 3500 
L 1588 -325 
z
" transform="scale(0.015625)"/>
      <path id="DejaVuSans-Oblique-65" d="M 3078 2063 
Q 3088 2113 3092 2166 
Q 3097 2219 3097 2272 
Q 3097 2653 2873 2875 
Q 2650 3097 2266 3097 
Q 1838 3097 1509 2826 
Q 1181 2556 1013 2059 
L 3078 2063 
z
M 3578 1613 
L 903 1613 
Q 884 1494 878 1425 
Q 872 1356 872 1306 
Q 872 872 1139 634 
Q 1406 397 1894 397 
Q 2269 397 2603 481 
Q 2938 566 3225 728 
L 3116 159 
Q 2806 34 2476 -28 
Q 2147 -91 1806 -91 
Q 1078 -91 686 257 
Q 294 606 294 1247 
Q 294 1794 489 2264 
Q 684 2734 1063 3103 
Q 1306 3334 1642 3459 
Q 1978 3584 2356 3584 
Q 2950 3584 3301 3228 
Q 3653 2872 3653 2272 
Q 3653 2128 3634 1964 
Q 3616 1800 3578 1613 
z
" transform="scale(0.015625)"/>
      <path id="DejaVuSans-Oblique-72" d="M 2853 2969 
Q 2766 3016 2653 3041 
Q 2541 3066 2413 3066 
Q 1953 3066 1609 2717 
Q 1266 2369 1153 1784 
L 800 0 
L 225 0 
L 909 3500 
L 1484 3500 
L 1375 2956 
Q 1603 3259 1920 3421 
Q 2238 3584 2597 3584 
Q 2691 3584 2781 3573 
Q 2872 3563 2963 3538 
L 2853 2969 
z
" transform="scale(0.015625)"/>
     </defs>
     <use xlink:href="#DejaVuSans-Oblique-61"/>
     <use xlink:href="#DejaVuSans-Oblique-20" transform="translate(61.279297 0)"/>
     <use xlink:href="#DejaVuSans-Oblique-74" transform="translate(93.066406 0)"/>
     <use xlink:href="#DejaVuSans-Oblique-68" transform="translate(132.275391 0)"/>
     <use xlink:href="#DejaVuSans-Oblique-69" transform="translate(195.654297 0)"/>
     <use xlink:href="#DejaVuSans-Oblique-6e" transform="translate(223.4375 0)"/>
     <use xlink:href="#DejaVuSans-Oblique-2d" transform="translate(286.816406 0)"/>
     <use xlink:href="#DejaVuSans-Oblique-6c" transform="translate(322.900391 0)"/>
     <use xlink:href="#DejaVuSans-Oblique-61" transform="translate(350.683594 0)"/>
     <use xlink:href="#DejaVuSans-Oblique-79" transform="translate(411.962891 0)"/>
     <use xlink:href="#DejaVuSans-Oblique-65" transform="translate(471.142578 0)"/>
     <use xlink:href="#DejaVuSans-Oblique-72" transform="translate(532.666016 0)"/>
    </g>
    <!-- trace term -->
    <g style="fill: #4c4c4c" transform="translate(178.94733 222.203386) scale(0.085 -0.085)">
     <defs>
      <path id="DejaVuSans-Oblique-63" d="M 3431 3366 
L 3316 2797 
Q 3109 2947 2876 3022 
Q 2644 3097 2394 3097 
Q 2119 3097 1870 3000 
Q 1622 2903 1453 2725 
Q 1184 2453 1037 2087 
Q 891 1722 891 1331 
Q 891 859 1127 628 
Q 1363 397 1844 397 
Q 2081 397 2348 469 
Q 2616 541 2906 684 
L 2797 116 
Q 2547 13 2283 -39 
Q 2019 -91 1741 -91 
Q 1044 -91 669 257 
Q 294 606 294 1253 
Q 294 1797 489 2255 
Q 684 2713 1069 3078 
Q 1331 3328 1684 3456 
Q 2038 3584 2456 3584 
Q 2700 3584 2940 3529 
Q 3181 3475 3431 3366 
z
" transform="scale(0.015625)"/>
      <path id="DejaVuSans-Oblique-6d" d="M 5747 2113 
L 5338 0 
L 4763 0 
L 5166 2094 
Q 5191 2228 5203 2325 
Q 5216 2422 5216 2491 
Q 5216 2772 5059 2928 
Q 4903 3084 4622 3084 
Q 4203 3084 3875 2770 
Q 3547 2456 3450 1953 
L 3066 0 
L 2491 0 
L 2900 2094 
Q 2925 2209 2937 2307 
Q 2950 2406 2950 2484 
Q 2950 2769 2794 2926 
Q 2638 3084 2363 3084 
Q 1938 3084 1609 2770 
Q 1281 2456 1184 1953 
L 800 0 
L 225 0 
L 909 3500 
L 1484 3500 
L 1375 2956 
Q 1609 3263 1923 3423 
Q 2238 3584 2597 3584 
Q 2978 3584 3223 3384 
Q 3469 3184 3519 2828 
Q 3781 3197 4126 3390 
Q 4472 3584 4856 3584 
Q 5306 3584 5551 3325 
Q 5797 3066 5797 2591 
Q 5797 2488 5784 2364 
Q 5772 2241 5747 2113 
z
" transform="scale(0.015625)"/>
     </defs>
     <use xlink:href="#DejaVuSans-Oblique-74"/>
     <use xlink:href="#DejaVuSans-Oblique-72" transform="translate(39.208984 0)"/>
     <use xlink:href="#DejaVuSans-Oblique-61" transform="translate(80.322266 0)"/>
     <use xlink:href="#DejaVuSans-Oblique-63" transform="translate(141.601562 0)"/>
     <use xlink:href="#DejaVuSans-Oblique-65" transform="translate(196.582031 0)"/>
     <use xlink:href="#DejaVuSans-Oblique-20" transform="translate(258.105469 0)"/>
     <use xlink:href="#DejaVuSans-Oblique-74" transform="translate(289.892578 0)"/>
     <use xlink:href="#DejaVuSans-Oblique-65" transform="translate(329.101562 0)"/>
     <use xlink:href="#DejaVuSans-Oblique-72" transform="translate(390.625 0)"/>
     <use xlink:href="#DejaVuSans-Oblique-6d" transform="translate(431.738281 0)"/>
    </g>
   </g>
   <g id="patch_9">
    <path d="M 229.769096 160.65729 
Q 269.059185 124.595275 307.196119 89.591671 
" style="fill: none; stroke: #4c4c4c; stroke-width: 1.4; stroke-linecap: round"/>
    <path d="M 302.896837 90.823001 
L 307.196119 89.591671 
L 305.601614 93.769895 
" style="fill: none; stroke: #4c4c4c; stroke-width: 1.4; stroke-linecap: round"/>
   </g>
   <g id="text_12">
    <!-- cross-layer -->
    <g style="fill: #4c4c4c" transform="translate(286.221997 122.182715) scale(0.085 -0.085)">
     <defs>
      <path id="DejaVuSans-Oblique-6f" d="M 1625 -91 
Q 1009 -91 651 289 
Q 294 669 294 1325 
Q 294 1706 417 2101 
Q 541 2497 738 2766 
Q 1047 3184 1428 3384 
Q 1809 3584 2291 3584 
Q 2888 3584 3255 3212 
Q 3622 2841 3622 2241 
Q 3622 1825 3500 1412 
Q 3378 1000 3181 728 
Q 2875 309 2494 109 
Q 2113 -91 1625 -91 
z
M 891 1344 
Q 891 869 1089 633 
Q 1288 397 1691 397 
Q 2269 397 2648 901 
Q 3028 1406 3028 2181 
Q 3028 2634 2825 2865 
Q 2622 3097 2228 3097 
Q 1903 3097 1650 2945 
Q 1397 2794 1197 2484 
Q 1050 2253 970 1956 
Q 891 1659 891 1344 
z
" transform="scale(0.015625)"/>
      <path id="DejaVuSans-Oblique-73" d="M 3200 3397 
L 3091 2853 
Q 2863 2978 2609 3040 
Q 2356 3103 2088 3103 
Q 1634 3103 1373 2948 
Q 1113 2794 1113 2528 
Q 1113 2219 1719 2053 
Q 1766 2041 1788 2034 
L 1972 1978 
Q 2547 1819 2739 1644 
Q 2931 1469 2931 1166 
Q 2931 609 2489 259 
Q 2047 -91 1331 -91 
Q 1053 -91 747 -37 
Q 441 16 72 128 
L 184 722 
Q 500 559 806 475 
Q 1113 391 1394 391 
Q 1816 391 2080 572 
Q 2344 753 2344 1031 
Q 2344 1331 1650 1516 
L 1591 1531 
L 1394 1581 
Q 956 1697 753 1886 
Q 550 2075 550 2369 
Q 550 2928 970 3256 
Q 1391 3584 2113 3584 
Q 2397 3584 2667 3537 
Q 2938 3491 3200 3397 
z
" transform="scale(0.015625)"/>
     </defs>
     <use xlink:href="#DejaVuSans-Oblique-63"/>
     <use xlink:href="#DejaVuSans-Oblique-72" transform="translate(54.980469 0)"/>
     <use xlink:href="#DejaVuSans-Oblique-6f" transform="translate(96.09375 0)"/>
     <use xlink:href="#DejaVuSans-Oblique-73" transform="translate(157.275391 0)"/>
     <use xlink:href="#DejaVuSans-Oblique-73" transform="translate(209.375 0)"/>
     <use xlink:href="#DejaVuSans-Oblique-2d" transform="translate(261.474609 0)"/>
     <use xlink:href="#DejaVuSans-Oblique-6c" transform="translate(297.558594 0)"/>
     <use xlink:href="#DejaVuSans-Oblique-61" transform="translate(325.341797 0)"/>
     <use xlink:href="#DejaVuSans-Oblique-79" transform="translate(386.621094 0)"/>
     <use xlink:href="#DejaVuSans-Oblique-65" transform="translate(445.800781 0)"/>
     <use xlink:href="#DejaVuSans-Oblique-72" transform="translate(507.324219 0)"/>
    </g>
    <!-- share -->
    <g style="fill: #4c4c4c" transform="translate(286.221997 131.700856) scale(0.085 -0.085)">
     <use xlink:href="#DejaVuSans-Oblique-73"/>
     <use xlink:href="#DejaVuSans-Oblique-68" transform="translate(52.099609 0)"/>
     <use xlink:href="#DejaVuSans-Oblique-61" transform="translate(115.478516 0)"/>
     <use xlink:href="#DejaVuSans-Oblique-72" transform="translate(176.757812 0)"/>
     <use xlink:href="#DejaVuSans-Oblique-65" transform="translate(217.871094 0)"/>
    </g>
   </g>
   <g id="text_13">
    <g id="patch_10">
     <path d="M 51.82685 146.585234 
L 179.827241 146.585234 
Q 182.077241 146.585234 182.077241 144.335234 
L 182.077241 128.678281 
Q 182.077241 126.428281 179.827241 126.428281 
L 51.82685 126.428281 
Q 49.57685 126.428281 49.57685 128.678281 
L 49.57685 144.335234 
Q 49.57685 146.585234 51.82685 146.585234 
z
" style="fill: #ffffff; stroke: #cccccc; stroke-width: 0.6; stroke-linejoin: miter"/>
    </g>
    <!-- binary label ≈ 1.0 everywhere -->
    <g style="fill: #595959" transform="translate(51.82685 134.377109) scale(0.075 -0.075)">
     <defs>
      <path id="DejaVuSans-2248" d="M 4684 1947 
L 4684 1388 
Q 4356 1144 4076 1036 
Q 3797 928 3494 928 
Q 3150 928 2694 1113 
Q 2663 1125 2641 1134 
Q 2622 1141 2575 1159 
Q 2091 1350 1797 1350 
Q 1522 1350 1253 1231 
Q 984 1113 678 850 
L 678 1409 
Q 1006 1653 1286 1761 
Q 1566 1869 1869 1869 
Q 2213 1869 2672 1684 
Q 2706 1669 2722 1663 
Q 2741 1656 2788 1638 
Q 3272 1447 3566 1447 
Q 3834 1447 4098 1564 
Q 4363 1681 4684 1947 
z
M 4684 3163 
L 4684 2606 
Q 4356 2359 4076 2251 
Q 3797 2144 3494 2144 
Q 3150 2144 2694 2328 
Q 2663 2341 2641 2350 
Q 2622 2356 2575 2375 
Q 2091 2566 1797 2566 
Q 1522 2566 1253 2447 
Q 984 2328 678 2069 
L 678 2625 
Q 1006 2869 1286 2976 
Q 1566 3084 1869 3084 
Q 2213 3084 2672 2900 
Q 2703 2888 2719 2881 
Q 2741 2872 2788 2853 
Q 3272 2663 3566 2663 
Q 3834 2663 4098 2780 
Q 4363 2897 4684 3163 
z
" transform="scale(0.015625)"/>
      <path id="DejaVuSans-31" d="M 794 531 
L 1825 531 
L 1825 4091 
L 703 3866 
L 703 4441 
L 1819 4666 
L 2450 4666 
L 2450 531 
L 3481 531 
L 3481 0 
L 794 0 
L 794 531 
z
" transform="scale(0.015625)"/>
     </defs>
     <use xlink:href="#DejaVuSans-62"/>
     <use xlink:href="#DejaVuSans-69" transform="translate(63.476562 0)"/>
     <use xlink:href="#DejaVuSans-6e" transform="translate(91.259766 0)"/>
     <use xlink:href="#DejaVuSans-61" transform="translate(154.638672 0)"/>
     <use xlink:href="#DejaVuSans-72" transform="translate(215.917969 0)"/>
     <use xlink:href="#DejaVuSans-79" transform="translate(257.03125 0)"/>
     <use xlink:href="#DejaVuSans-20" transform="translate(316.210938 0)"/>
     <use xlink:href="#DejaVuSans-6c" transform="translate(347.998047 0)"/>
     <use xlink:href="#DejaVuSans-61" transform="translate(375.78125 0)"/>
     <use xlink:href="#DejaVuSans-62" transform="translate(437.060547 0)"/>
     <use xlink:href="#DejaVuSans-65" transform="translate(500.537109 0)"/>
     <use xlink:href="#DejaVuSans-6c" transform="translate(562.060547 0)"/>
     <use xlink:href="#DejaVuSans-20" transform="translate(589.84375 0)"/>
     <use xlink:href="#DejaVuSans-2248" transform="translate(621.630859 0)"/>
     <use xlink:href="#DejaVuSans-20" transform="translate(705.419922 0)"/>
     <use xlink:href="#DejaVuSans-31" transform="translate(737.207031 0)"/>
     <use xlink:href="#DejaVuSans-2e" transform="translate(800.830078 0)"/>
     <use xlink:href="#DejaVuSans-30" transform="translate(832.617188 0)"/>
     <use xlink:href="#DejaVuSans-20" transform="translate(896.240234 0)"/>
     <use xlink:href="#DejaVuSans-65" transform="translate(928.027344 0)"/>
     <use xlink:href="#DejaVuSans-76" transform="translate(989.550781 0)"/>
     <use xlink:href="#DejaVuSans-65" transform="translate(1048.730469 0)"/>
     <use xlink:href="#DejaVuSans-72" transform="translate(1110.253906 0)"/>
     <use xlink:href="#DejaVuSans-79" transform="translate(1151.367188 0)"/>
     <use xlink:href="#DejaVuSans-77" transform="translate(1210.546875 0)"/>
     <use xlink:href="#DejaVuSans-68" transform="translate(1292.333984 0)"/>
     <use xlink:href="#DejaVuSans-65" transform="translate(1355.712891 0)"/>
     <use xlink:href="#DejaVuSans-72" transform="translate(1417.236328 0)"/>
     <use xlink:href="#DejaVuSans-65" transform="translate(1456.099609 0)"/>
    </g>
    <!-- (readout-sign leak, not cue credit) -->
    <g style="fill: #595959" transform="translate(51.82685 142.775469) scale(0.075 -0.075)">
     <defs>
      <path id="DejaVuSans-6b" d="M 581 4863 
L 1159 4863 
L 1159 1991 
L 2875 3500 
L 3609 3500 
L 1753 1863 
L 3688 0 
L 2938 0 
L 1159 1709 
L 1159 0 
L 581 0 
L 581 4863 
z
" transform="scale(0.015625)"/>
      <path id="DejaVuSans-2c" d="M 750 794 
L 1409 794 
L 1409 256 
L 897 -744 
L 494 -744 
L 750 256 
L 750 794 
z
" transform="scale(0.015625)"/>
     </defs>
     <use xlink:href="#DejaVuSans-28"/>
     <use xlink:href="#DejaVuSans-72" transform="translate(39.013672 0)"/>
     <use xlink:href="#DejaVuSans-65" transform="translate(77.876953 0)"/>
     <use xlink:href="#DejaVuSans-61" transform="translate(139.400391 0)"/>
     <use xlink:href="#DejaVuSans-64" transform="translate(200.679688 0)"/>
     <use xlink:href="#DejaVuSans-6f" transform="translate(264.15625 0)"/>
     <use xlink:href="#DejaVuSans-75" transform="translate(325.337891 0)"/>
     <use xlink:href="#DejaVuSans-74" transform="translate(388.716797 0)"/>
     <use xlink:href="#DejaVuSans-2d" transform="translate(427.925781 0)"/>
     <use xlink:href="#DejaVuSans-73" transform="translate(464.009766 0)"/>
     <use xlink:href="#DejaVuSans-69" transform="translate(516.109375 0)"/>
     <use xlink:href="#DejaVuSans-67" transform="translate(543.892578 0)"/>
     <use xlink:href="#DejaVuSans-6e" transform="translate(607.369141 0)"/>
     <use xlink:href="#DejaVuSans-20" transform="translate(670.748047 0)"/>
     <use xlink:href="#DejaVuSans-6c" transform="translate(702.535156 0)"/>
     <use xlink:href="#DejaVuSans-65" transform="translate(730.318359 0)"/>
     <use xlink:href="#DejaVuSans-61" transform="translate(791.841797 0)"/>
     <use xlink:href="#DejaVuSans-6b" transform="translate(853.121094 0)"/>
     <use xlink:href="#DejaVuSans-2c" transform="translate(911.03125 0)"/>
     <use xlink:href="#DejaVuSans-20" transform="translate(942.818359 0)"/>
     <use xlink:href="#DejaVuSans-6e" transform="translate(974.605469 0)"/>
     <use xlink:href="#DejaVuSans-6f" transform="translate(1037.984375 0)"/>
     <use xlink:href="#DejaVuSans-74" transform="translate(1099.166016 0)"/>
     <use xlink:href="#DejaVuSans-20" transform="translate(1138.375 0)"/>
     <use xlink:href="#DejaVuSans-63" transform="translate(1170.162109 0)"/>
     <use xlink:href="#DejaVuSans-75" transform="translate(1225.142578 0)"/>
     <use xlink:href="#DejaVuSans-65" transform="translate(1288.521484 0)"/>
     <use xlink:href="#DejaVuSans-20" transform="translate(1350.044922 0)"/>
     <use xlink:href="#DejaVuSans-63" transform="translate(1381.832031 0)"/>
     <use xlink:href="#DejaVuSans-72" transform="translate(1436.8125 0)"/>
     <use xlink:href="#DejaVuSans-65" transform="translate(1475.675781 0)"/>
     <use xlink:href="#DejaVuSans-64" transform="translate(1537.199219 0)"/>
     <use xlink:href="#DejaVuSans-69" transform="translate(1600.675781 0)"/>
     <use xlink:href="#DejaVuSans-74" transform="translate(1628.458984 0)"/>
     <use xlink:href="#DejaVuSans-29" transform="translate(1667.667969 0)"/>
    </g>
   </g>
   <g id="text_14">
    <!-- Lower-layer cue credit: a ladder across the two trace terms -->
    <g transform="translate(82.117812 15.558281) scale(0.11 -0.11)">
     <defs>
      <path id="DejaVuSans-4c" d="M 628 4666 
L 1259 4666 
L 1259 531 
L 3531 531 
L 3531 0 
L 628 0 
L 628 4666 
z
" transform="scale(0.015625)"/>
      <path id="DejaVuSans-3a" d="M 750 794 
L 1409 794 
L 1409 0 
L 750 0 
L 750 794 
z
M 750 3309 
L 1409 3309 
L 1409 2516 
L 750 2516 
L 750 3309 
z
" transform="scale(0.015625)"/>
     </defs>
     <use xlink:href="#DejaVuSans-4c"/>
     <use xlink:href="#DejaVuSans-6f" transform="translate(53.962891 0)"/>
     <use xlink:href="#DejaVuSans-77" transform="translate(115.144531 0)"/>
     <use xlink:href="#DejaVuSans-65" transform="translate(196.931641 0)"/>
     <use xlink:href="#DejaVuSans-72" transform="translate(258.455078 0)"/>
     <use xlink:href="#DejaVuSans-2d" transform="translate(293.193359 0)"/>
     <use xlink:href="#DejaVuSans-6c" transform="translate(329.277344 0)"/>
     <use xlink:href="#DejaVuSans-61" transform="translate(357.060547 0)"/>
     <use xlink:href="#DejaVuSans-79" transform="translate(418.339844 0)"/>
     <use xlink:href="#DejaVuSans-65" transform="translate(477.519531 0)"/>
     <use xlink:href="#DejaVuSans-72" transform="translate(539.042969 0)"/>
     <use xlink:href="#DejaVuSans-20" transform="translate(580.15625 0)"/>
     <use xlink:href="#DejaVuSans-63" transform="translate(611.943359 0)"/>
     <use xlink:href="#DejaVuSans-75" transform="translate(666.923828 0)"/>
     <use xlink:href="#DejaVuSans-65" transform="translate(730.302734 0)"/>
     <use xlink:href="#DejaVuSans-20" transform="translate(791.826172 0)"/>
     <use xlink:href="#DejaVuSans-63" transform="translate(823.613281 0)"/>
     <use xlink:href="#DejaVuSans-72" transform="translate(878.59375 0)"/>
     <use xlink:href="#DejaVuSans-65" transform="translate(917.457031 0)"/>
     <use xlink:href="#DejaVuSans-64" transform="translate(978.980469 0)"/>
     <use xlink:href="#DejaVuSans-69" transform="translate(1042.457031 0)"/>
     <use xlink:href="#DejaVuSans-74" transform="translate(1070.240234 0)"/>
     <use xlink:href="#DejaVuSans-3a" transform="translate(1109.449219 0)"/>
     <use xlink:href="#DejaVuSans-20" transform="translate(1143.140625 0)"/>
     <use xlink:href="#DejaVuSans-61" transform="translate(1174.927734 0)"/>
     <use xlink:href="#DejaVuSans-20" transform="translate(1236.207031 0)"/>
     <use xlink:href="#DejaVuSans-6c" transform="translate(1267.994141 0)"/>
     <use xlink:href="#DejaVuSans-61" transform="translate(1295.777344 0)"/>
     <use xlink:href="#DejaVuSans-64" transform="translate(1357.056641 0)"/>
     <use xlink:href="#DejaVuSans-64" transform="translate(1420.533203 0)"/>
     <use xlink:href="#DejaVuSans-65" transform="translate(1484.009766 0)"/>
     <use xlink:href="#DejaVuSans-72" transform="translate(1545.533203 0)"/>
     <use xlink:href="#DejaVuSans-20" transform="translate(1586.646484 0)"/>
     <use xlink:href="#DejaVuSans-61" transform="translate(1618.433594 0)"/>
     <use xlink:href="#DejaVuSans-63" transform="translate(1679.712891 0)"/>
     <use xlink:href="#DejaVuSans-72" transform="translate(1734.693359 0)"/>
     <use xlink:href="#DejaVuSans-6f" transform="translate(1773.556641 0)"/>
     <use xlink:href="#DejaVuSans-73" transform="translate(1834.738281 0)"/>
     <use xlink:href="#DejaVuSans-73" transform="translate(1886.837891 0)"/>
     <use xlink:href="#DejaVuSans-20" transform="translate(1938.9375 0)"/>
     <use xlink:href="#DejaVuSans-74" transform="translate(1970.724609 0)"/>
     <use xlink:href="#DejaVuSans-68" transform="translate(2009.933594 0)"/>
     <use xlink:href="#DejaVuSans-65" transform="translate(2073.3125 0)"/>
     <use xlink:href="#DejaVuSans-20" transform="translate(2134.835938 0)"/>
     <use xlink:href="#DejaVuSans-74" transform="translate(2166.623047 0)"/>
     <use xlink:href="#DejaVuSans-77" transform="translate(2205.832031 0)"/>
     <use xlink:href="#DejaVuSans-6f" transform="translate(2287.619141 0)"/>
     <use xlink:href="#DejaVuSans-20" transform="translate(2348.800781 0)"/>
     <use xlink:href="#DejaVuSans-74" transform="translate(2380.587891 0)"/>
     <use xlink:href="#DejaVuSans-72" transform="translate(2419.796875 0)"/>
     <use xlink:href="#DejaVuSans-61" transform="translate(2460.910156 0)"/>
     <use xlink:href="#DejaVuSans-63" transform="translate(2522.189453 0)"/>
     <use xlink:href="#DejaVuSans-65" transform="translate(2577.169922 0)"/>
     <use xlink:href="#DejaVuSans-20" transform="translate(2638.693359 0)"/>
     <use xlink:href="#DejaVuSans-74" transform="translate(2670.480469 0)"/>
     <use xlink:href="#DejaVuSans-65" transform="translate(2709.689453 0)"/>
     <use xlink:href="#DejaVuSans-72" transform="translate(2771.212891 0)"/>
     <use xlink:href="#DejaVuSans-6d" transform="translate(2810.576172 0)"/>
     <use xlink:href="#DejaVuSans-73" transform="translate(2907.988281 0)"/>
    </g>
   </g>
   <g id="line2d_13">
    <path d="M 108.14605 262.893186 
L 215.420717 167.304508 
L 322.695383 81.888126 
" clip-path="url(#p9fb311403b)" style="fill: none; stroke: #262626; stroke-width: 1.6; stroke-linecap: square"/>
    <defs>
     <path id="m856a9a7903" d="M 0 2.5 
C 0.663008 2.5 1.29895 2.236584 1.767767 1.767767 
C 2.236584 1.29895 2.5 0.663008 2.5 0 
C 2.5 -0.663008 2.236584 -1.29895 1.767767 -1.767767 
C 1.29895 -2.236584 0.663008 -2.5 0 -2.5 
C -0.663008 -2.5 -1.29895 -2.236584 -1.767767 -1.767767 
C -2.236584 -1.29895 -2.5 -0.663008 -2.5 0 
C -2.5 0.663008 -2.236584 1.29895 -1.767767 1.767767 
C -1.29895 2.236584 -0.663008 2.5 0 2.5 
z
" style="stroke: #262626"/>
    </defs>
    <g clip-path="url(#p9fb311403b)">
     <use xlink:href="#m856a9a7903" x="108.14605" y="262.893186" style="fill: #262626; stroke: #262626"/>
     <use xlink:href="#m856a9a7903" x="215.420717" y="167.304508" style="fill: #262626; stroke: #262626"/>
     <use xlink:href="#m856a9a7903" x="322.695383" y="81.888126" style="fill: #262626; stroke: #262626"/>
    </g>
   </g>
   <g id="line2d_14">
    <path d="M 108.14605 53.845697 
L 108.14605 47.494075 
L 215.420717 47.494075 
L 215.420717 53.845697 
" clip-path="url(#p9fb311403b)" style="fill: none; stroke: #262626; stroke-width: 1.1; stroke-linecap: square"/>
   </g>
   <g id="text_15">
    <!-- * -->
    <g transform="translate(159.033383 43.089211) scale(0.11 -0.11)">
     <defs>
      <path id="DejaVuSans-2a" d="M 3009 3897 
L 1888 3291 
L 3009 2681 
L 2828 2375 
L 1778 3009 
L 1778 1831 
L 1422 1831 
L 1422 3009 
L 372 2375 
L 191 2681 
L 1313 3291 
L 191 3897 
L 372 4206 
L 1422 3572 
L 1422 4750 
L 1778 4750 
L 1778 3572 
L 2828 4206 
L 3009 3897 
z
" transform="scale(0.015625)"/>
     </defs>
     <use xlink:href="#DejaVuSans-2a"/>
    </g>
   </g>
   <g id="line2d_15">
    <path d="M 215.420717 53.845697 
L 215.420717 47.494075 
L 322.695383 47.494075 
L 322.695383 53.845697 
" clip-path="url(#p9fb311403b)" style="fill: none; stroke: #262626; stroke-width: 1.1; stroke-linecap: square"/>
   </g>
   <g id="text_16">
    <!-- * -->
    <g transform="translate(266.30805 43.089211) scale(0.11 -0.11)">
     <use xlink:href="#DejaVuSans-2a"/>
    </g>
   </g>
   <g id="text_17">
    <!-- 0.50 -->
    <g transform="translate(94.576519 251.078095) scale(0.11 -0.11)">
     <defs>
      <path id="DejaVuSans-Bold-30" d="M 2944 2338 
Q 2944 3213 2780 3570 
Q 2616 3928 2228 3928 
Q 1841 3928 1675 3570 
Q 1509 3213 1509 2338 
Q 1509 1453 1675 1090 
Q 1841 728 2228 728 
Q 2613 728 2778 1090 
Q 2944 1453 2944 2338 
z
M 4147 2328 
Q 4147 1169 3647 539 
Q 3147 -91 2228 -91 
Q 1306 -91 806 539 
Q 306 1169 306 2328 
Q 306 3491 806 4120 
Q 1306 4750 2228 4750 
Q 3147 4750 3647 4120 
Q 4147 3491 4147 2328 
z
" transform="scale(0.015625)"/>
      <path id="DejaVuSans-Bold-2e" d="M 653 1209 
L 1778 1209 
L 1778 0 
L 653 0 
L 653 1209 
z
" transform="scale(0.015625)"/>
      <path id="DejaVuSans-Bold-35" d="M 678 4666 
L 3669 4666 
L 3669 3781 
L 1638 3781 
L 1638 3059 
Q 1775 3097 1914 3117 
Q 2053 3138 2203 3138 
Q 3056 3138 3531 2711 
Q 4006 2284 4006 1522 
Q 4006 766 3489 337 
Q 2972 -91 2053 -91 
Q 1656 -91 1267 -14 
Q 878 63 494 219 
L 494 1166 
Q 875 947 1217 837 
Q 1559 728 1863 728 
Q 2300 728 2551 942 
Q 2803 1156 2803 1522 
Q 2803 1891 2551 2103 
Q 2300 2316 1863 2316 
Q 1603 2316 1309 2248 
Q 1016 2181 678 2041 
L 678 4666 
z
" transform="scale(0.015625)"/>
     </defs>
     <use xlink:href="#DejaVuSans-Bold-30"/>
     <use xlink:href="#DejaVuSans-Bold-2e" transform="translate(69.580078 0)"/>
     <use xlink:href="#DejaVuSans-Bold-35" transform="translate(107.568359 0)"/>
     <use xlink:href="#DejaVuSans-Bold-30" transform="translate(177.148438 0)"/>
    </g>
   </g>
   <g id="text_18">
    <!-- 0.68 -->
    <g transform="translate(201.851185 148.089763) scale(0.11 -0.11)">
     <defs>
      <path id="DejaVuSans-Bold-36" d="M 2316 2303 
Q 2000 2303 1842 2098 
Q 1684 1894 1684 1484 
Q 1684 1075 1842 870 
Q 2000 666 2316 666 
Q 2634 666 2792 870 
Q 2950 1075 2950 1484 
Q 2950 1894 2792 2098 
Q 2634 2303 2316 2303 
z
M 3803 4544 
L 3803 3681 
Q 3506 3822 3243 3889 
Q 2981 3956 2731 3956 
Q 2194 3956 1894 3657 
Q 1594 3359 1544 2772 
Q 1750 2925 1990 3001 
Q 2231 3078 2516 3078 
Q 3231 3078 3670 2659 
Q 4109 2241 4109 1563 
Q 4109 813 3618 361 
Q 3128 -91 2303 -91 
Q 1394 -91 895 523 
Q 397 1138 397 2266 
Q 397 3422 980 4083 
Q 1563 4744 2578 4744 
Q 2900 4744 3203 4694 
Q 3506 4644 3803 4544 
z
" transform="scale(0.015625)"/>
      <path id="DejaVuSans-Bold-38" d="M 2228 2088 
Q 1891 2088 1709 1903 
Q 1528 1719 1528 1375 
Q 1528 1031 1709 848 
Q 1891 666 2228 666 
Q 2563 666 2741 848 
Q 2919 1031 2919 1375 
Q 2919 1722 2741 1905 
Q 2563 2088 2228 2088 
z
M 1350 2484 
Q 925 2613 709 2878 
Q 494 3144 494 3541 
Q 494 4131 934 4440 
Q 1375 4750 2228 4750 
Q 3075 4750 3515 4442 
Q 3956 4134 3956 3541 
Q 3956 3144 3739 2878 
Q 3522 2613 3097 2484 
Q 3572 2353 3814 2058 
Q 4056 1763 4056 1313 
Q 4056 619 3595 264 
Q 3134 -91 2228 -91 
Q 1319 -91 855 264 
Q 391 619 391 1313 
Q 391 1763 633 2058 
Q 875 2353 1350 2484 
z
M 1631 3419 
Q 1631 3141 1786 2991 
Q 1941 2841 2228 2841 
Q 2509 2841 2662 2991 
Q 2816 3141 2816 3419 
Q 2816 3697 2662 3845 
Q 2509 3994 2228 3994 
Q 1941 3994 1786 3844 
Q 1631 3694 1631 3419 
z
" transform="scale(0.015625)"/>
     </defs>
     <use xlink:href="#DejaVuSans-Bold-30"/>
     <use xlink:href="#DejaVuSans-Bold-2e" transform="translate(69.580078 0)"/>
     <use xlink:href="#DejaVuSans-Bold-36" transform="translate(107.568359 0)"/>
     <use xlink:href="#DejaVuSans-Bold-38" transform="translate(177.148438 0)"/>
    </g>
   </g>
   <g id="text_19">
    <!-- 0.84 -->
    <g transform="translate(309.125852 64.075736) scale(0.11 -0.11)">
     <defs>
      <path id="DejaVuSans-Bold-34" d="M 2356 3675 
L 1038 1722 
L 2356 1722 
L 2356 3675 
z
M 2156 4666 
L 3494 4666 
L 3494 1722 
L 4159 1722 
L 4159 850 
L 3494 850 
L 3494 0 
L 2356 0 
L 2356 850 
L 288 850 
L 288 1881 
L 2156 4666 
z
" transform="scale(0.015625)"/>
     </defs>
     <use xlink:href="#DejaVuSans-Bold-30"/>
     <use xlink:href="#DejaVuSans-Bold-2e" transform="translate(69.580078 0)"/>
     <use xlink:href="#DejaVuSans-Bold-38" transform="translate(107.568359 0)"/>
     <use xlink:href="#DejaVuSans-Bold-34" transform="translate(177.148438 0)"/>
    </g>
   </g>
  </g>
 </g>
 <defs>
  <clipPath id="p9fb311403b">
   <rect x="43.78125" y="21.558281" width="402.28" height="267.8"/>
  </clipPath>
 </defs>
</svg>
