<?xml version="1.0" encoding="utf-8" standalone="no"?>
<!DOCTYPE svg PUBLIC "-//W3C//DTD SVG 1.1//EN"
  "http://www.w3.org/Graphics/SVG/1.1/DTD/svg11.dtd">
<svg xmlns:xlink="http://www.w3.org/1999/xlink" width="928.8pt" height="321.12pt" viewBox="0 0 928.8 321.12" xmlns="http://www.w3.org/2000/svg" version="1.1">
 <metadata>
  <rdf:RDF xmlns:dc="http://purl.org/dc/elements/1.1/" xmlns:cc="http://creativecommons.org/ns#" xmlns:rdf="http://www.w3.org/1999/02/22-rdf-syntax-ns#">
   <cc:Work>
    <dc:type rdf:resource="http://purl.org/dc/dcmitype/StillImage"/>
    <dc:date>2026-06-17T22:49:59.809586</dc:date>
    <dc:format>image/svg+xml</dc:format>
    <dc:creator>
     <cc:Agent>
      <dc:title>Matplotlib v3.8.2, https://matplotlib.org/</dc:title>
     </cc:Agent>
    </dc:creator>
   </cc:Work>
  </rdf:RDF>
 </metadata>
 <defs>
  <style type="text/css">*{stroke-linejoin: round; stroke-linecap: butt}</style>
 </defs>
 <g id="figure_1">
  <g id="patch_1">
   <path d="M 0 321.12 
L 928.8 321.12 
L 928.8 -0 
L 0 -0 
z
" style="fill: #ffffff"/>
  </g>
  <g id="axes_1">
   <g id="patch_2">
    <path d="M 47.888711 197.226667 
Q 56.800964 197.226667 64.595182 197.226667 
" style="fill: none; stroke: #888888; stroke-linecap: round"/>
    <path d="M 60.595182 195.226667 
L 64.595182 197.226667 
L 60.595182 199.226667 
" style="fill: none; stroke: #888888; stroke-linecap: round"/>
   </g>
   <g id="patch_3">
    <path d="M 97.488711 197.226667 
Q 106.400964 197.226667 114.195182 197.226667 
" style="fill: none; stroke: #888888; stroke-linecap: round"/>
    <path d="M 110.195182 195.226667 
L 114.195182 197.226667 
L 110.195182 199.226667 
" style="fill: none; stroke: #888888; stroke-linecap: round"/>
   </g>
   <g id="patch_4">
    <path d="M 147.088711 197.226667 
Q 156.000964 197.226667 163.795182 197.226667 
" style="fill: none; stroke: #888888; stroke-linecap: round"/>
    <path d="M 159.795182 195.226667 
L 163.795182 197.226667 
L 159.795182 199.226667 
" style="fill: none; stroke: #888888; stroke-linecap: round"/>
   </g>
   <g id="patch_5">
    <path d="M 196.688711 197.226667 
Q 205.600964 197.226667 213.395182 197.226667 
" style="fill: none; stroke: #888888; stroke-linecap: round"/>
    <path d="M 209.395182 195.226667 
L 213.395182 197.226667 
L 209.395182 199.226667 
" style="fill: none; stroke: #888888; stroke-linecap: round"/>
   </g>
   <g id="patch_6">
    <path d="M 246.288711 197.226667 
Q 255.200964 197.226667 262.995182 197.226667 
" style="fill: none; stroke: #888888; stroke-linecap: round"/>
    <path d="M 258.995182 195.226667 
L 262.995182 197.226667 
L 258.995182 199.226667 
" style="fill: none; stroke: #888888; stroke-linecap: round"/>
   </g>
   <g id="patch_7">
    <path d="M 280 168.00039 
Q 280 148.603861 280 130.884383 
" style="fill: none; stroke: #aa6600; stroke-width: 1.5; stroke-linecap: round"/>
    <path d="M 278 134.884383 
L 280 130.884383 
L 282 134.884383 
" style="fill: none; stroke: #aa6600; stroke-width: 1.5; stroke-linecap: round"/>
   </g>
   <g id="patch_8">
    <path d="M 264.111289 216.675556 
Q 255.199036 216.675556 248.522852 216.675556 
" style="fill: none; stroke: #d62728; stroke-width: 2; stroke-linecap: round"/>
    <path d="M 252.522852 218.675556 
L 248.522852 216.675556 
L 252.522852 214.675556 
" style="fill: none; stroke: #d62728; stroke-width: 2; stroke-linecap: round"/>
   </g>
   <g id="patch_9">
    <path d="M 214.511289 216.675556 
Q 205.599036 216.675556 198.922852 216.675556 
" style="fill: none; stroke: #d62728; stroke-width: 2; stroke-linecap: round"/>
    <path d="M 202.922852 218.675556 
L 198.922852 216.675556 
L 202.922852 214.675556 
" style="fill: none; stroke: #d62728; stroke-width: 2; stroke-linecap: round"/>
   </g>
   <g id="patch_10">
    <path d="M 164.911289 216.675556 
Q 155.999036 216.675556 149.322852 216.675556 
" style="fill: none; stroke: #d62728; stroke-width: 2; stroke-linecap: round"/>
    <path d="M 153.322852 218.675556 
L 149.322852 216.675556 
L 153.322852 214.675556 
" style="fill: none; stroke: #d62728; stroke-width: 2; stroke-linecap: round"/>
   </g>
   <g id="patch_11">
    <path d="M 115.311289 216.675556 
Q 106.399036 216.675556 99.722852 216.675556 
" style="fill: none; stroke: #d62728; stroke-width: 2; stroke-linecap: round"/>
    <path d="M 103.722852 218.675556 
L 99.722852 216.675556 
L 103.722852 214.675556 
" style="fill: none; stroke: #d62728; stroke-width: 2; stroke-linecap: round"/>
   </g>
   <g id="patch_12">
    <path d="M 65.711289 216.675556 
Q 56.799036 216.675556 50.122852 216.675556 
" style="fill: none; stroke: #d62728; stroke-width: 2; stroke-linecap: round"/>
    <path d="M 54.122852 218.675556 
L 50.122852 216.675556 
L 54.122852 214.675556 
" style="fill: none; stroke: #d62728; stroke-width: 2; stroke-linecap: round"/>
   </g>
   <g id="patch_13">
    <path d="M 32 224.455111 
C 35.683141 224.455111 39.215925 221.58615 41.820299 216.480084 
C 44.424673 211.374018 45.888 204.447735 45.888 197.226667 
C 45.888 190.005599 44.424673 183.079315 41.820299 177.973249 
C 39.215925 172.867183 35.683141 169.998222 32 169.998222 
C 28.316859 169.998222 24.784075 172.867183 22.179701 177.973249 
C 19.575327 183.079315 18.112 190.005599 18.112 197.226667 
C 18.112 204.447735 19.575327 211.374018 22.179701 216.480084 
C 24.784075 221.58615 28.316859 224.455111 32 224.455111 
z
" clip-path="url(#p1974fdd0a6)" style="fill: #ddeeff; stroke: #335577; stroke-width: 1.5; stroke-linejoin: miter"/>
   </g>
   <g id="patch_14">
    <path d="M 81.6 224.455111 
C 85.283141 224.455111 88.815925 221.58615 91.420299 216.480084 
C 94.024673 211.374018 95.488 204.447735 95.488 197.226667 
C 95.488 190.005599 94.024673 183.079315 91.420299 177.973249 
C 88.815925 172.867183 85.283141 169.998222 81.6 169.998222 
C 77.916859 169.998222 74.384075 172.867183 71.779701 177.973249 
C 69.175327 183.079315 67.712 190.005599 67.712 197.226667 
C 67.712 204.447735 69.175327 211.374018 71.779701 216.480084 
C 74.384075 221.58615 77.916859 224.455111 81.6 224.455111 
z
" clip-path="url(#p1974fdd0a6)" style="fill: #ddeeff; stroke: #335577; stroke-width: 1.5; stroke-linejoin: miter"/>
   </g>
   <g id="patch_15">
    <path d="M 131.2 224.455111 
C 134.883141 224.455111 138.415925 221.58615 141.020299 216.480084 
C 143.624673 211.374018 145.088 204.447735 145.088 197.226667 
C 145.088 190.005599 143.624673 183.079315 141.020299 177.973249 
C 138.415925 172.867183 134.883141 169.998222 131.2 169.998222 
C 127.516859 169.998222 123.984075 172.867183 121.379701 177.973249 
C 118.775327 183.079315 117.312 190.005599 117.312 197.226667 
C 117.312 204.447735 118.775327 211.374018 121.379701 216.480084 
C 123.984075 221.58615 127.516859 224.455111 131.2 224.455111 
z
" clip-path="url(#p1974fdd0a6)" style="fill: #ddeeff; stroke: #335577; stroke-width: 1.5; stroke-linejoin: miter"/>
   </g>
   <g id="patch_16">
    <path d="M 180.8 224.455111 
C 184.483141 224.455111 188.015925 221.58615 190.620299 216.480084 
C 193.224673 211.374018 194.688 204.447735 194.688 197.226667 
C 194.688 190.005599 193.224673 183.079315 190.620299 177.973249 
C 188.015925 172.867183 184.483141 169.998222 180.8 169.998222 
C 177.116859 169.998222 173.584075 172.867183 170.979701 177.973249 
C 168.375327 183.079315 166.912 190.005599 166.912 197.226667 
C 166.912 204.447735 168.375327 211.374018 170.979701 216.480084 
C 173.584075 221.58615 177.116859 224.455111 180.8 224.455111 
z
" clip-path="url(#p1974fdd0a6)" style="fill: #ddeeff; stroke: #335577; stroke-width: 1.5; stroke-linejoin: miter"/>
   </g>
   <g id="patch_17">
    <path d="M 230.4 224.455111 
C 234.083141 224.455111 237.615925 221.58615 240.220299 216.480084 
C 242.824673 211.374018 244.288 204.447735 244.288 197.226667 
C 244.288 190.005599 242.824673 183.079315 240.220299 177.973249 
C 237.615925 172.867183 234.083141 169.998222 230.4 169.998222 
C 226.716859 169.998222 223.184075 172.867183 220.579701 177.973249 
C 217.975327 183.079315 216.512 190.005599 216.512 197.226667 
C 216.512 204.447735 217.975327 211.374018 220.579701 216.480084 
C 223.184075 221.58615 226.716859 224.455111 230.4 224.455111 
z
" clip-path="url(#p1974fdd0a6)" style="fill: #ddeeff; stroke: #335577; stroke-width: 1.5; stroke-linejoin: miter"/>
   </g>
   <g id="patch_18">
    <path d="M 280 224.455111 
C 283.683141 224.455111 287.215925 221.58615 289.820299 216.480084 
C 292.424673 211.374018 293.888 204.447735 293.888 197.226667 
C 293.888 190.005599 292.424673 183.079315 289.820299 177.973249 
C 287.215925 172.867183 283.683141 169.998222 280 169.998222 
C 276.316859 169.998222 272.784075 172.867183 270.179701 177.973249 
C 267.575327 183.079315 266.112 190.005599 266.112 197.226667 
C 266.112 204.447735 267.575327 211.374018 270.179701 216.480084 
C 272.784075 221.58615 276.316859 224.455111 280 224.455111 
z
" clip-path="url(#p1974fdd0a6)" style="fill: #aaddcc; stroke: #335577; stroke-width: 1.5; stroke-linejoin: miter"/>
   </g>
   <g id="patch_19">
    <path d="M 280 127.210667 
C 283.683141 127.210667 287.215925 124.341706 289.820299 119.23564 
C 292.424673 114.129574 293.888 107.20329 293.888 99.982222 
C 293.888 92.761154 292.424673 85.834871 289.820299 80.728805 
C 287.215925 75.622738 283.683141 72.753778 280 72.753778 
C 276.316859 72.753778 272.784075 75.622738 270.179701 80.728805 
C 267.575327 85.834871 266.112 92.761154 266.112 99.982222 
C 266.112 107.20329 267.575327 114.129574 270.179701 119.23564 
C 272.784075 124.341706 276.316859 127.210667 280 127.210667 
z
" clip-path="url(#p1974fdd0a6)" style="fill: #ffeecc; stroke: #aa6600; stroke-width: 1.5; stroke-linejoin: miter"/>
   </g>
   <g id="text_1">
    <!-- Full back-propagation -->
    <g style="fill: #d62728" transform="translate(112.756875 266.063972) scale(0.08 -0.08)">
     <defs>
      <path id="DejaVuSans-46" d="M 628 4666 
L 3309 4666 
L 3309 4134 
L 1259 4134 
L 1259 2759 
L 3109 2759 
L 3109 2228 
L 1259 2228 
L 1259 0 
L 628 0 
L 628 4666 
z
" transform="scale(0.015625)"/>
      <path id="DejaVuSans-75" d="M 544 1381 
L 544 3500 
L 1119 3500 
L 1119 1403 
Q 1119 906 1312 657 
Q 1506 409 1894 409 
Q 2359 409 2629 706 
Q 2900 1003 2900 1516 
L 2900 3500 
L 3475 3500 
L 3475 0 
L 2900 0 
L 2900 538 
Q 2691 219 2414 64 
Q 2138 -91 1772 -91 
Q 1169 -91 856 284 
Q 544 659 544 1381 
z
M 1991 3584 
L 1991 3584 
z
" transform="scale(0.015625)"/>
      <path id="DejaVuSans-6c" d="M 603 4863 
L 1178 4863 
L 1178 0 
L 603 0 
L 603 4863 
z
" transform="scale(0.015625)"/>
      <path id="DejaVuSans-20" transform="scale(0.015625)"/>
      <path id="DejaVuSans-62" d="M 3116 1747 
Q 3116 2381 2855 2742 
Q 2594 3103 2138 3103 
Q 1681 3103 1420 2742 
Q 1159 2381 1159 1747 
Q 1159 1113 1420 752 
Q 1681 391 2138 391 
Q 2594 391 2855 752 
Q 3116 1113 3116 1747 
z
M 1159 2969 
Q 1341 3281 1617 3432 
Q 1894 3584 2278 3584 
Q 2916 3584 3314 3078 
Q 3713 2572 3713 1747 
Q 3713 922 3314 415 
Q 2916 -91 2278 -91 
Q 1894 -91 1617 61 
Q 1341 213 1159 525 
L 1159 0 
L 581 0 
L 581 4863 
L 1159 4863 
L 1159 2969 
z
" transform="scale(0.015625)"/>
      <path id="DejaVuSans-61" d="M 2194 1759 
Q 1497 1759 1228 1600 
Q 959 1441 959 1056 
Q 959 750 1161 570 
Q 1363 391 1709 391 
Q 2188 391 2477 730 
Q 2766 1069 2766 1631 
L 2766 1759 
L 2194 1759 
z
M 3341 1997 
L 3341 0 
L 2766 0 
L 2766 531 
Q 2569 213 2275 61 
Q 1981 -91 1556 -91 
Q 1019 -91 701 211 
Q 384 513 384 1019 
Q 384 1609 779 1909 
Q 1175 2209 1959 2209 
L 2766 2209 
L 2766 2266 
Q 2766 2663 2505 2880 
Q 2244 3097 1772 3097 
Q 1472 3097 1187 3025 
Q 903 2953 641 2809 
L 641 3341 
Q 956 3463 1253 3523 
Q 1550 3584 1831 3584 
Q 2591 3584 2966 3190 
Q 3341 2797 3341 1997 
z
" transform="scale(0.015625)"/>
      <path id="DejaVuSans-63" d="M 3122 3366 
L 3122 2828 
Q 2878 2963 2633 3030 
Q 2388 3097 2138 3097 
Q 1578 3097 1268 2742 
Q 959 2388 959 1747 
Q 959 1106 1268 751 
Q 1578 397 2138 397 
Q 2388 397 2633 464 
Q 2878 531 3122 666 
L 3122 134 
Q 2881 22 2623 -34 
Q 2366 -91 2075 -91 
Q 1284 -91 818 406 
Q 353 903 353 1747 
Q 353 2603 823 3093 
Q 1294 3584 2113 3584 
Q 2378 3584 2631 3529 
Q 2884 3475 3122 3366 
z
" transform="scale(0.015625)"/>
      <path id="DejaVuSans-6b" d="M 581 4863 
L 1159 4863 
L 1159 1991 
L 2875 3500 
L 3609 3500 
L 1753 1863 
L 3688 0 
L 2938 0 
L 1159 1709 
L 1159 0 
L 581 0 
L 581 4863 
z
" transform="scale(0.015625)"/>
      <path id="DejaVuSans-2d" d="M 313 2009 
L 1997 2009 
L 1997 1497 
L 313 1497 
L 313 2009 
z
" transform="scale(0.015625)"/>
      <path id="DejaVuSans-70" d="M 1159 525 
L 1159 -1331 
L 581 -1331 
L 581 3500 
L 1159 3500 
L 1159 2969 
Q 1341 3281 1617 3432 
Q 1894 3584 2278 3584 
Q 2916 3584 3314 3078 
Q 3713 2572 3713 1747 
Q 3713 922 3314 415 
Q 2916 -91 2278 -91 
Q 1894 -91 1617 61 
Q 1341 213 1159 525 
z
M 3116 1747 
Q 3116 2381 2855 2742 
Q 2594 3103 2138 3103 
Q 1681 3103 1420 2742 
Q 1159 2381 1159 1747 
Q 1159 1113 1420 752 
Q 1681 391 2138 391 
Q 2594 391 2855 752 
Q 3116 1113 3116 1747 
z
" transform="scale(0.015625)"/>
      <path id="DejaVuSans-72" d="M 2631 2963 
Q 2534 3019 2420 3045 
Q 2306 3072 2169 3072 
Q 1681 3072 1420 2755 
Q 1159 2438 1159 1844 
L 1159 0 
L 581 0 
L 581 3500 
L 1159 3500 
L 1159 2956 
Q 1341 3275 1631 3429 
Q 1922 3584 2338 3584 
Q 2397 3584 2469 3576 
Q 2541 3569 2628 3553 
L 2631 2963 
z
" transform="scale(0.015625)"/>
      <path id="DejaVuSans-6f" d="M 1959 3097 
Q 1497 3097 1228 2736 
Q 959 2375 959 1747 
Q 959 1119 1226 758 
Q 1494 397 1959 397 
Q 2419 397 2687 759 
Q 2956 1122 2956 1747 
Q 2956 2369 2687 2733 
Q 2419 3097 1959 3097 
z
M 1959 3584 
Q 2709 3584 3137 3096 
Q 3566 2609 3566 1747 
Q 3566 888 3137 398 
Q 2709 -91 1959 -91 
Q 1206 -91 779 398 
Q 353 888 353 1747 
Q 353 2609 779 3096 
Q 1206 3584 1959 3584 
z
" transform="scale(0.015625)"/>
      <path id="DejaVuSans-67" d="M 2906 1791 
Q 2906 2416 2648 2759 
Q 2391 3103 1925 3103 
Q 1463 3103 1205 2759 
Q 947 2416 947 1791 
Q 947 1169 1205 825 
Q 1463 481 1925 481 
Q 2391 481 2648 825 
Q 2906 1169 2906 1791 
z
M 3481 434 
Q 3481 -459 3084 -895 
Q 2688 -1331 1869 -1331 
Q 1566 -1331 1297 -1286 
Q 1028 -1241 775 -1147 
L 775 -588 
Q 1028 -725 1275 -790 
Q 1522 -856 1778 -856 
Q 2344 -856 2625 -561 
Q 2906 -266 2906 331 
L 2906 616 
Q 2728 306 2450 153 
Q 2172 0 1784 0 
Q 1141 0 747 490 
Q 353 981 353 1791 
Q 353 2603 747 3093 
Q 1141 3584 1784 3584 
Q 2172 3584 2450 3431 
Q 2728 3278 2906 2969 
L 2906 3500 
L 3481 3500 
L 3481 434 
z
" transform="scale(0.015625)"/>
      <path id="DejaVuSans-74" d="M 1172 4494 
L 1172 3500 
L 2356 3500 
L 2356 3053 
L 1172 3053 
L 1172 1153 
Q 1172 725 1289 603 
Q 1406 481 1766 481 
L 2356 481 
L 2356 0 
L 1766 0 
Q 1100 0 847 248 
Q 594 497 594 1153 
L 594 3053 
L 172 3053 
L 172 3500 
L 594 3500 
L 594 4494 
L 1172 4494 
z
" transform="scale(0.015625)"/>
      <path id="DejaVuSans-69" d="M 603 3500 
L 1178 3500 
L 1178 0 
L 603 0 
L 603 3500 
z
M 603 4863 
L 1178 4863 
L 1178 4134 
L 603 4134 
L 603 4863 
z
" transform="scale(0.015625)"/>
      <path id="DejaVuSans-6e" d="M 3513 2113 
L 3513 0 
L 2938 0 
L 2938 2094 
Q 2938 2591 2744 2837 
Q 2550 3084 2163 3084 
Q 1697 3084 1428 2787 
Q 1159 2491 1159 1978 
L 1159 0 
L 581 0 
L 581 3500 
L 1159 3500 
L 1159 2956 
Q 1366 3272 1645 3428 
Q 1925 3584 2291 3584 
Q 2894 3584 3203 3211 
Q 3513 2838 3513 2113 
z
" transform="scale(0.015625)"/>
     </defs>
     <use xlink:href="#DejaVuSans-46"/>
     <use xlink:href="#DejaVuSans-75" x="52.019531"/>
     <use xlink:href="#DejaVuSans-6c" x="115.398438"/>
     <use xlink:href="#DejaVuSans-6c" x="143.181641"/>
     <use xlink:href="#DejaVuSans-20" x="170.964844"/>
     <use xlink:href="#DejaVuSans-62" x="202.751953"/>
     <use xlink:href="#DejaVuSans-61" x="266.228516"/>
     <use xlink:href="#DejaVuSans-63" x="327.507812"/>
     <use xlink:href="#DejaVuSans-6b" x="382.488281"/>
     <use xlink:href="#DejaVuSans-2d" x="440.398438"/>
     <use xlink:href="#DejaVuSans-70" x="476.482422"/>
     <use xlink:href="#DejaVuSans-72" x="539.958984"/>
     <use xlink:href="#DejaVuSans-6f" x="578.822266"/>
     <use xlink:href="#DejaVuSans-70" x="640.003906"/>
     <use xlink:href="#DejaVuSans-61" x="703.480469"/>
     <use xlink:href="#DejaVuSans-67" x="764.759766"/>
     <use xlink:href="#DejaVuSans-61" x="828.236328"/>
     <use xlink:href="#DejaVuSans-74" x="889.515625"/>
     <use xlink:href="#DejaVuSans-69" x="928.724609"/>
     <use xlink:href="#DejaVuSans-6f" x="956.507812"/>
     <use xlink:href="#DejaVuSans-6e" x="1017.689453"/>
    </g>
    <!-- through time (O(T·n²)) -->
    <g style="fill: #d62728" transform="translate(111.461875 275.022222) scale(0.08 -0.08)">
     <defs>
      <path id="DejaVuSans-68" d="M 3513 2113 
L 3513 0 
L 2938 0 
L 2938 2094 
Q 2938 2591 2744 2837 
Q 2550 3084 2163 3084 
Q 1697 3084 1428 2787 
Q 1159 2491 1159 1978 
L 1159 0 
L 581 0 
L 581 4863 
L 1159 4863 
L 1159 2956 
Q 1366 3272 1645 3428 
Q 1925 3584 2291 3584 
Q 2894 3584 3203 3211 
Q 3513 2838 3513 2113 
z
" transform="scale(0.015625)"/>
      <path id="DejaVuSans-6d" d="M 3328 2828 
Q 3544 3216 3844 3400 
Q 4144 3584 4550 3584 
Q 5097 3584 5394 3201 
Q 5691 2819 5691 2113 
L 5691 0 
L 5113 0 
L 5113 2094 
Q 5113 2597 4934 2840 
Q 4756 3084 4391 3084 
Q 3944 3084 3684 2787 
Q 3425 2491 3425 1978 
L 3425 0 
L 2847 0 
L 2847 2094 
Q 2847 2600 2669 2842 
Q 2491 3084 2119 3084 
Q 1678 3084 1418 2786 
Q 1159 2488 1159 1978 
L 1159 0 
L 581 0 
L 581 3500 
L 1159 3500 
L 1159 2956 
Q 1356 3278 1631 3431 
Q 1906 3584 2284 3584 
Q 2666 3584 2933 3390 
Q 3200 3197 3328 2828 
z
" transform="scale(0.015625)"/>
      <path id="DejaVuSans-65" d="M 3597 1894 
L 3597 1613 
L 953 1613 
Q 991 1019 1311 708 
Q 1631 397 2203 397 
Q 2534 397 2845 478 
Q 3156 559 3463 722 
L 3463 178 
Q 3153 47 2828 -22 
Q 2503 -91 2169 -91 
Q 1331 -91 842 396 
Q 353 884 353 1716 
Q 353 2575 817 3079 
Q 1281 3584 2069 3584 
Q 2775 3584 3186 3129 
Q 3597 2675 3597 1894 
z
M 3022 2063 
Q 3016 2534 2758 2815 
Q 2500 3097 2075 3097 
Q 1594 3097 1305 2825 
Q 1016 2553 972 2059 
L 3022 2063 
z
" transform="scale(0.015625)"/>
      <path id="DejaVuSans-28" d="M 1984 4856 
Q 1566 4138 1362 3434 
Q 1159 2731 1159 2009 
Q 1159 1288 1364 580 
Q 1569 -128 1984 -844 
L 1484 -844 
Q 1016 -109 783 600 
Q 550 1309 550 2009 
Q 550 2706 781 3412 
Q 1013 4119 1484 4856 
L 1984 4856 
z
" transform="scale(0.015625)"/>
      <path id="DejaVuSans-4f" d="M 2522 4238 
Q 1834 4238 1429 3725 
Q 1025 3213 1025 2328 
Q 1025 1447 1429 934 
Q 1834 422 2522 422 
Q 3209 422 3611 934 
Q 4013 1447 4013 2328 
Q 4013 3213 3611 3725 
Q 3209 4238 2522 4238 
z
M 2522 4750 
Q 3503 4750 4090 4092 
Q 4678 3434 4678 2328 
Q 4678 1225 4090 567 
Q 3503 -91 2522 -91 
Q 1538 -91 948 565 
Q 359 1222 359 2328 
Q 359 3434 948 4092 
Q 1538 4750 2522 4750 
z
" transform="scale(0.015625)"/>
      <path id="DejaVuSans-54" d="M -19 4666 
L 3928 4666 
L 3928 4134 
L 2272 4134 
L 2272 0 
L 1638 0 
L 1638 4134 
L -19 4134 
L -19 4666 
z
" transform="scale(0.015625)"/>
      <path id="DejaVuSans-b7" d="M 684 2619 
L 1344 2619 
L 1344 1825 
L 684 1825 
L 684 2619 
z
" transform="scale(0.015625)"/>
      <path id="DejaVuSans-b2" d="M 838 2444 
L 2163 2444 
L 2163 2088 
L 294 2088 
L 294 2431 
Q 400 2528 597 2703 
Q 1672 3656 1672 3950 
Q 1672 4156 1509 4282 
Q 1347 4409 1081 4409 
Q 919 4409 728 4354 
Q 538 4300 313 4191 
L 313 4575 
Q 553 4663 761 4706 
Q 969 4750 1147 4750 
Q 1600 4750 1872 4544 
Q 2144 4338 2144 4000 
Q 2144 3566 1109 2678 
Q 934 2528 838 2444 
z
" transform="scale(0.015625)"/>
      <path id="DejaVuSans-29" d="M 513 4856 
L 1013 4856 
Q 1481 4119 1714 3412 
Q 1947 2706 1947 2009 
Q 1947 1309 1714 600 
Q 1481 -109 1013 -844 
L 513 -844 
Q 928 -128 1133 580 
Q 1338 1288 1338 2009 
Q 1338 2731 1133 3434 
Q 928 4138 513 4856 
z
" transform="scale(0.015625)"/>
     </defs>
     <use xlink:href="#DejaVuSans-74"/>
     <use xlink:href="#DejaVuSans-68" x="39.208984"/>
     <use xlink:href="#DejaVuSans-72" x="102.587891"/>
     <use xlink:href="#DejaVuSans-6f" x="141.451172"/>
     <use xlink:href="#DejaVuSans-75" x="202.632812"/>
     <use xlink:href="#DejaVuSans-67" x="266.011719"/>
     <use xlink:href="#DejaVuSans-68" x="329.488281"/>
     <use xlink:href="#DejaVuSans-20" x="392.867188"/>
     <use xlink:href="#DejaVuSans-74" x="424.654297"/>
     <use xlink:href="#DejaVuSans-69" x="463.863281"/>
     <use xlink:href="#DejaVuSans-6d" x="491.646484"/>
     <use xlink:href="#DejaVuSans-65" x="589.058594"/>
     <use xlink:href="#DejaVuSans-20" x="650.582031"/>
     <use xlink:href="#DejaVuSans-28" x="682.369141"/>
     <use xlink:href="#DejaVuSans-4f" x="721.382812"/>
     <use xlink:href="#DejaVuSans-28" x="800.09375"/>
     <use xlink:href="#DejaVuSans-54" x="839.107422"/>
     <use xlink:href="#DejaVuSans-b7" x="900.191406"/>
     <use xlink:href="#DejaVuSans-6e" x="931.978516"/>
     <use xlink:href="#DejaVuSans-b2" x="995.357422"/>
     <use xlink:href="#DejaVuSans-29" x="1035.445312"/>
     <use xlink:href="#DejaVuSans-29" x="1074.458984"/>
    </g>
   </g>
   <g id="text_2">
    <!-- BPTT -->
    <g transform="translate(138.707812 45.36) scale(0.12 -0.12)">
     <defs>
      <path id="DejaVuSans-Bold-42" d="M 2456 2859 
Q 2741 2859 2887 2984 
Q 3034 3109 3034 3353 
Q 3034 3594 2887 3720 
Q 2741 3847 2456 3847 
L 1791 3847 
L 1791 2859 
L 2456 2859 
z
M 2497 819 
Q 2859 819 3042 972 
Q 3225 1125 3225 1434 
Q 3225 1738 3044 1889 
Q 2863 2041 2497 2041 
L 1791 2041 
L 1791 819 
L 2497 819 
z
M 3616 2497 
Q 4003 2384 4215 2081 
Q 4428 1778 4428 1338 
Q 4428 663 3972 331 
Q 3516 0 2584 0 
L 588 0 
L 588 4666 
L 2394 4666 
Q 3366 4666 3802 4372 
Q 4238 4078 4238 3431 
Q 4238 3091 4078 2852 
Q 3919 2613 3616 2497 
z
" transform="scale(0.015625)"/>
      <path id="DejaVuSans-Bold-50" d="M 588 4666 
L 2584 4666 
Q 3475 4666 3951 4270 
Q 4428 3875 4428 3144 
Q 4428 2409 3951 2014 
Q 3475 1619 2584 1619 
L 1791 1619 
L 1791 0 
L 588 0 
L 588 4666 
z
M 1791 3794 
L 1791 2491 
L 2456 2491 
Q 2806 2491 2997 2661 
Q 3188 2831 3188 3144 
Q 3188 3456 2997 3625 
Q 2806 3794 2456 3794 
L 1791 3794 
z
" transform="scale(0.015625)"/>
      <path id="DejaVuSans-Bold-54" d="M 31 4666 
L 4331 4666 
L 4331 3756 
L 2784 3756 
L 2784 0 
L 1581 0 
L 1581 3756 
L 31 3756 
L 31 4666 
z
" transform="scale(0.015625)"/>
     </defs>
     <use xlink:href="#DejaVuSans-Bold-42"/>
     <use xlink:href="#DejaVuSans-Bold-50" x="76.220703"/>
     <use xlink:href="#DejaVuSans-Bold-54" x="149.511719"/>
     <use xlink:href="#DejaVuSans-Bold-54" x="219.974609"/>
    </g>
   </g>
   <g id="text_3">
    <!-- $h_0$ -->
    <g transform="translate(28.115 199.158229) scale(0.07 -0.07)">
     <defs>
      <path id="DejaVuSans-Oblique-68" d="M 3566 2113 
L 3156 0 
L 2578 0 
L 2988 2091 
Q 3016 2238 3031 2350 
Q 3047 2463 3047 2528 
Q 3047 2791 2881 2937 
Q 2716 3084 2419 3084 
Q 1956 3084 1617 2771 
Q 1278 2459 1178 1941 
L 800 0 
L 225 0 
L 1172 4863 
L 1747 4863 
L 1375 2950 
Q 1594 3244 1934 3414 
Q 2275 3584 2650 3584 
Q 3113 3584 3367 3334 
Q 3622 3084 3622 2631 
Q 3622 2519 3608 2391 
Q 3594 2263 3566 2113 
z
" transform="scale(0.015625)"/>
      <path id="DejaVuSans-30" d="M 2034 4250 
Q 1547 4250 1301 3770 
Q 1056 3291 1056 2328 
Q 1056 1369 1301 889 
Q 1547 409 2034 409 
Q 2525 409 2770 889 
Q 3016 1369 3016 2328 
Q 3016 3291 2770 3770 
Q 2525 4250 2034 4250 
z
M 2034 4750 
Q 2819 4750 3233 4129 
Q 3647 3509 3647 2328 
Q 3647 1150 3233 529 
Q 2819 -91 2034 -91 
Q 1250 -91 836 529 
Q 422 1150 422 2328 
Q 422 3509 836 4129 
Q 1250 4750 2034 4750 
z
" transform="scale(0.015625)"/>
     </defs>
     <use xlink:href="#DejaVuSans-Oblique-68" transform="translate(0 0.015625)"/>
     <use xlink:href="#DejaVuSans-30" transform="translate(63.378906 -16.390625) scale(0.7)"/>
    </g>
   </g>
   <g id="text_4">
    <!-- $h_1$ -->
    <g transform="translate(77.715 199.158229) scale(0.07 -0.07)">
     <defs>
      <path id="DejaVuSans-31" d="M 794 531 
L 1825 531 
L 1825 4091 
L 703 3866 
L 703 4441 
L 1819 4666 
L 2450 4666 
L 2450 531 
L 3481 531 
L 3481 0 
L 794 0 
L 794 531 
z
" transform="scale(0.015625)"/>
     </defs>
     <use xlink:href="#DejaVuSans-Oblique-68" transform="translate(0 0.015625)"/>
     <use xlink:href="#DejaVuSans-31" transform="translate(63.378906 -16.390625) scale(0.7)"/>
    </g>
   </g>
   <g id="text_5">
    <!-- $h_2$ -->
    <g transform="translate(127.315 199.158229) scale(0.07 -0.07)">
     <defs>
      <path id="DejaVuSans-32" d="M 1228 531 
L 3431 531 
L 3431 0 
L 469 0 
L 469 531 
Q 828 903 1448 1529 
Q 2069 2156 2228 2338 
Q 2531 2678 2651 2914 
Q 2772 3150 2772 3378 
Q 2772 3750 2511 3984 
Q 2250 4219 1831 4219 
Q 1534 4219 1204 4116 
Q 875 4013 500 3803 
L 500 4441 
Q 881 4594 1212 4672 
Q 1544 4750 1819 4750 
Q 2544 4750 2975 4387 
Q 3406 4025 3406 3419 
Q 3406 3131 3298 2873 
Q 3191 2616 2906 2266 
Q 2828 2175 2409 1742 
Q 1991 1309 1228 531 
z
" transform="scale(0.015625)"/>
     </defs>
     <use xlink:href="#DejaVuSans-Oblique-68" transform="translate(0 0.015625)"/>
     <use xlink:href="#DejaVuSans-32" transform="translate(63.378906 -16.390625) scale(0.7)"/>
    </g>
   </g>
   <g id="text_6">
    <!-- $h_3$ -->
    <g transform="translate(176.915 199.158229) scale(0.07 -0.07)">
     <defs>
      <path id="DejaVuSans-33" d="M 2597 2516 
Q 3050 2419 3304 2112 
Q 3559 1806 3559 1356 
Q 3559 666 3084 287 
Q 2609 -91 1734 -91 
Q 1441 -91 1130 -33 
Q 819 25 488 141 
L 488 750 
Q 750 597 1062 519 
Q 1375 441 1716 441 
Q 2309 441 2620 675 
Q 2931 909 2931 1356 
Q 2931 1769 2642 2001 
Q 2353 2234 1838 2234 
L 1294 2234 
L 1294 2753 
L 1863 2753 
Q 2328 2753 2575 2939 
Q 2822 3125 2822 3475 
Q 2822 3834 2567 4026 
Q 2313 4219 1838 4219 
Q 1578 4219 1281 4162 
Q 984 4106 628 3988 
L 628 4550 
Q 988 4650 1302 4700 
Q 1616 4750 1894 4750 
Q 2613 4750 3031 4423 
Q 3450 4097 3450 3541 
Q 3450 3153 3228 2886 
Q 3006 2619 2597 2516 
z
" transform="scale(0.015625)"/>
     </defs>
     <use xlink:href="#DejaVuSans-Oblique-68" transform="translate(0 0.015625)"/>
     <use xlink:href="#DejaVuSans-33" transform="translate(63.378906 -16.390625) scale(0.7)"/>
    </g>
   </g>
   <g id="text_7">
    <!-- $h_4$ -->
    <g transform="translate(226.515 199.158229) scale(0.07 -0.07)">
     <defs>
      <path id="DejaVuSans-34" d="M 2419 4116 
L 825 1625 
L 2419 1625 
L 2419 4116 
z
M 2253 4666 
L 3047 4666 
L 3047 1625 
L 3713 1625 
L 3713 1100 
L 3047 1100 
L 3047 0 
L 2419 0 
L 2419 1100 
L 313 1100 
L 313 1709 
L 2253 4666 
z
" transform="scale(0.015625)"/>
     </defs>
     <use xlink:href="#DejaVuSans-Oblique-68" transform="translate(0 0.015625)"/>
     <use xlink:href="#DejaVuSans-34" transform="translate(63.378906 -16.390625) scale(0.7)"/>
    </g>
   </g>
   <g id="text_8">
    <!-- $h_5$ -->
    <g transform="translate(276.115 199.158229) scale(0.07 -0.07)">
     <defs>
      <path id="DejaVuSans-35" d="M 691 4666 
L 3169 4666 
L 3169 4134 
L 1269 4134 
L 1269 2991 
Q 1406 3038 1543 3061 
Q 1681 3084 1819 3084 
Q 2600 3084 3056 2656 
Q 3513 2228 3513 1497 
Q 3513 744 3044 326 
Q 2575 -91 1722 -91 
Q 1428 -91 1123 -41 
Q 819 9 494 109 
L 494 744 
Q 775 591 1075 516 
Q 1375 441 1709 441 
Q 2250 441 2565 725 
Q 2881 1009 2881 1497 
Q 2881 1984 2565 2268 
Q 2250 2553 1709 2553 
Q 1456 2553 1204 2497 
Q 953 2441 691 2322 
L 691 4666 
z
" transform="scale(0.015625)"/>
     </defs>
     <use xlink:href="#DejaVuSans-Oblique-68" transform="translate(0 0.015625)"/>
     <use xlink:href="#DejaVuSans-35" transform="translate(63.378906 -16.390625) scale(0.7)"/>
    </g>
   </g>
   <g id="text_9">
    <!-- $\mathcal{L}$ -->
    <g transform="translate(276.85 102.46566) scale(0.09 -0.09)">
     <defs>
      <path id="STIXNonUnicode-Italic-e238" d="M 4070 915 
L 4179 800 
Q 3347 -45 2413 -45 
Q 2157 -45 1850 26 
Q 1395 122 1146 122 
Q 1005 122 672 61 
Q 339 0 192 0 
L 230 154 
Q 582 154 730 749 
L 1178 2566 
Q 1286 3008 1516 3353 
Q 1747 3699 2025 3894 
Q 2304 4090 2585 4189 
Q 2867 4288 3123 4288 
Q 3443 4288 3593 4083 
Q 3744 3878 3744 3584 
Q 3744 3347 3593 3200 
Q 3443 3053 3226 3053 
Q 3085 3053 2995 3149 
Q 2906 3245 2906 3379 
Q 2906 3482 2957 3552 
Q 3008 3622 3065 3644 
Q 3123 3667 3174 3705 
Q 3226 3744 3226 3789 
Q 3226 4032 2854 4032 
Q 2522 4032 2310 3785 
Q 2099 3539 1990 3132 
Q 1882 2726 1795 2284 
Q 1709 1843 1549 1363 
Q 1389 883 1158 589 
L 1158 563 
Q 1363 704 1888 704 
Q 2227 704 2460 544 
Q 2694 384 2963 384 
Q 3507 384 4070 915 
z
" transform="scale(0.015625)"/>
     </defs>
     <use xlink:href="#STIXNonUnicode-Italic-e238"/>
    </g>
   </g>
  </g>
  <g id="axes_2">
   <g id="patch_20">
    <path d="M 356.288711 197.226667 
Q 365.200964 197.226667 372.995182 197.226667 
" style="fill: none; stroke: #888888; stroke-linecap: round"/>
    <path d="M 368.995182 195.226667 
L 372.995182 197.226667 
L 368.995182 199.226667 
" style="fill: none; stroke: #888888; stroke-linecap: round"/>
   </g>
   <g id="patch_21">
    <path d="M 405.888711 197.226667 
Q 414.800964 197.226667 422.595182 197.226667 
" style="fill: none; stroke: #888888; stroke-linecap: round"/>
    <path d="M 418.595182 195.226667 
L 422.595182 197.226667 
L 418.595182 199.226667 
" style="fill: none; stroke: #888888; stroke-linecap: round"/>
   </g>
   <g id="patch_22">
    <path d="M 455.488711 197.226667 
Q 464.400964 197.226667 472.195182 197.226667 
" style="fill: none; stroke: #888888; stroke-linecap: round"/>
    <path d="M 468.195182 195.226667 
L 472.195182 197.226667 
L 468.195182 199.226667 
" style="fill: none; stroke: #888888; stroke-linecap: round"/>
   </g>
   <g id="patch_23">
    <path d="M 505.088711 197.226667 
Q 514.000964 197.226667 521.795182 197.226667 
" style="fill: none; stroke: #888888; stroke-linecap: round"/>
    <path d="M 517.795182 195.226667 
L 521.795182 197.226667 
L 517.795182 199.226667 
" style="fill: none; stroke: #888888; stroke-linecap: round"/>
   </g>
   <g id="patch_24">
    <path d="M 554.688711 197.226667 
Q 563.600964 197.226667 571.395182 197.226667 
" style="fill: none; stroke: #888888; stroke-linecap: round"/>
    <path d="M 567.395182 195.226667 
L 571.395182 197.226667 
L 567.395182 199.226667 
" style="fill: none; stroke: #888888; stroke-linecap: round"/>
   </g>
   <g id="patch_25">
    <path d="M 588.4 168.00039 
Q 588.4 148.603861 588.4 130.884383 
" style="fill: none; stroke: #aa6600; stroke-width: 1.5; stroke-linecap: round"/>
    <path d="M 586.4 134.884383 
L 588.4 130.884383 
L 590.4 134.884383 
" style="fill: none; stroke: #aa6600; stroke-width: 1.5; stroke-linecap: round"/>
   </g>
   <g id="patch_26">
    <path d="M 340.4 224.455111 
C 344.083141 224.455111 347.615925 221.58615 350.220299 216.480084 
C 352.824673 211.374018 354.288 204.447735 354.288 197.226667 
C 354.288 190.005599 352.824673 183.079315 350.220299 177.973249 
C 347.615925 172.867183 344.083141 169.998222 340.4 169.998222 
C 336.716859 169.998222 333.184075 172.867183 330.579701 177.973249 
C 327.975327 183.079315 326.512 190.005599 326.512 197.226667 
C 326.512 204.447735 327.975327 211.374018 330.579701 216.480084 
C 333.184075 221.58615 336.716859 224.455111 340.4 224.455111 
z
" clip-path="url(#p1e984a4148)" style="fill: #ddeeff; stroke: #335577; stroke-width: 1.5; stroke-linejoin: miter"/>
   </g>
   <g id="patch_27">
    <path d="M 390 224.455111 
C 393.683141 224.455111 397.215925 221.58615 399.820299 216.480084 
C 402.424673 211.374018 403.888 204.447735 403.888 197.226667 
C 403.888 190.005599 402.424673 183.079315 399.820299 177.973249 
C 397.215925 172.867183 393.683141 169.998222 390 169.998222 
C 386.316859 169.998222 382.784075 172.867183 380.179701 177.973249 
C 377.575327 183.079315 376.112 190.005599 376.112 197.226667 
C 376.112 204.447735 377.575327 211.374018 380.179701 216.480084 
C 382.784075 221.58615 386.316859 224.455111 390 224.455111 
z
" clip-path="url(#p1e984a4148)" style="fill: #ddeeff; stroke: #335577; stroke-width: 1.5; stroke-linejoin: miter"/>
   </g>
   <g id="patch_28">
    <path d="M 439.6 224.455111 
C 443.283141 224.455111 446.815925 221.58615 449.420299 216.480084 
C 452.024673 211.374018 453.488 204.447735 453.488 197.226667 
C 453.488 190.005599 452.024673 183.079315 449.420299 177.973249 
C 446.815925 172.867183 443.283141 169.998222 439.6 169.998222 
C 435.916859 169.998222 432.384075 172.867183 429.779701 177.973249 
C 427.175327 183.079315 425.712 190.005599 425.712 197.226667 
C 425.712 204.447735 427.175327 211.374018 429.779701 216.480084 
C 432.384075 221.58615 435.916859 224.455111 439.6 224.455111 
z
" clip-path="url(#p1e984a4148)" style="fill: #ddeeff; stroke: #335577; stroke-width: 1.5; stroke-linejoin: miter"/>
   </g>
   <g id="patch_29">
    <path d="M 489.2 224.455111 
C 492.883141 224.455111 496.415925 221.58615 499.020299 216.480084 
C 501.624673 211.374018 503.088 204.447735 503.088 197.226667 
C 503.088 190.005599 501.624673 183.079315 499.020299 177.973249 
C 496.415925 172.867183 492.883141 169.998222 489.2 169.998222 
C 485.516859 169.998222 481.984075 172.867183 479.379701 177.973249 
C 476.775327 183.079315 475.312 190.005599 475.312 197.226667 
C 475.312 204.447735 476.775327 211.374018 479.379701 216.480084 
C 481.984075 221.58615 485.516859 224.455111 489.2 224.455111 
z
" clip-path="url(#p1e984a4148)" style="fill: #ddeeff; stroke: #335577; stroke-width: 1.5; stroke-linejoin: miter"/>
   </g>
   <g id="patch_30">
    <path d="M 538.8 224.455111 
C 542.483141 224.455111 546.015925 221.58615 548.620299 216.480084 
C 551.224673 211.374018 552.688 204.447735 552.688 197.226667 
C 552.688 190.005599 551.224673 183.079315 548.620299 177.973249 
C 546.015925 172.867183 542.483141 169.998222 538.8 169.998222 
C 535.116859 169.998222 531.584075 172.867183 528.979701 177.973249 
C 526.375327 183.079315 524.912 190.005599 524.912 197.226667 
C 524.912 204.447735 526.375327 211.374018 528.979701 216.480084 
C 531.584075 221.58615 535.116859 224.455111 538.8 224.455111 
z
" clip-path="url(#p1e984a4148)" style="fill: #ddeeff; stroke: #335577; stroke-width: 1.5; stroke-linejoin: miter"/>
   </g>
   <g id="patch_31">
    <path d="M 588.4 224.455111 
C 592.083141 224.455111 595.615925 221.58615 598.220299 216.480084 
C 600.824673 211.374018 602.288 204.447735 602.288 197.226667 
C 602.288 190.005599 600.824673 183.079315 598.220299 177.973249 
C 595.615925 172.867183 592.083141 169.998222 588.4 169.998222 
C 584.716859 169.998222 581.184075 172.867183 578.579701 177.973249 
C 575.975327 183.079315 574.512 190.005599 574.512 197.226667 
C 574.512 204.447735 575.975327 211.374018 578.579701 216.480084 
C 581.184075 221.58615 584.716859 224.455111 588.4 224.455111 
z
" clip-path="url(#p1e984a4148)" style="fill: #aaddcc; stroke: #335577; stroke-width: 1.5; stroke-linejoin: miter"/>
   </g>
   <g id="patch_32">
    <path d="M 588.4 127.210667 
C 592.083141 127.210667 595.615925 124.341706 598.220299 119.23564 
C 600.824673 114.129574 602.288 107.20329 602.288 99.982222 
C 602.288 92.761154 600.824673 85.834871 598.220299 80.728805 
C 595.615925 75.622738 592.083141 72.753778 588.4 72.753778 
C 584.716859 72.753778 581.184075 75.622738 578.579701 80.728805 
C 575.975327 85.834871 574.512 92.761154 574.512 99.982222 
C 574.512 107.20329 575.975327 114.129574 578.579701 119.23564 
C 581.184075 124.341706 584.716859 127.210667 588.4 127.210667 
z
" clip-path="url(#p1e984a4148)" style="fill: #ffeecc; stroke: #aa6600; stroke-width: 1.5; stroke-linejoin: miter"/>
   </g>
   <g id="patch_33">
    <path d="M 356.288711 172.915556 
Q 365.200964 172.915556 372.995182 172.915556 
" style="fill: none; opacity: 0.9; stroke: #1f77b4; stroke-linecap: round"/>
    <path d="M 368.995182 170.915556 
L 372.995182 172.915556 
L 368.995182 174.915556 
" style="fill: none; opacity: 0.9; stroke: #1f77b4; stroke-linecap: round"/>
   </g>
   <g id="patch_34">
    <path d="M 405.888711 172.915556 
Q 414.800964 172.915556 422.371575 172.915556 
" style="fill: none; opacity: 0.78; stroke: #1f77b4; stroke-width: 1.2; stroke-linecap: round"/>
    <path d="M 418.371575 170.915556 
L 422.371575 172.915556 
L 418.371575 174.915556 
" style="fill: none; opacity: 0.78; stroke: #1f77b4; stroke-width: 1.2; stroke-linecap: round"/>
   </g>
   <g id="patch_35">
    <path d="M 455.488711 172.915556 
Q 464.400964 172.915556 471.747969 172.915556 
" style="fill: none; opacity: 0.66; stroke: #1f77b4; stroke-width: 1.4; stroke-linecap: round"/>
    <path d="M 467.747969 170.915556 
L 471.747969 172.915556 
L 467.747969 174.915556 
" style="fill: none; opacity: 0.66; stroke: #1f77b4; stroke-width: 1.4; stroke-linecap: round"/>
   </g>
   <g id="patch_36">
    <path d="M 505.088711 172.915556 
Q 514.000964 172.915556 521.124362 172.915556 
" style="fill: none; opacity: 0.54; stroke: #1f77b4; stroke-width: 1.6; stroke-linecap: round"/>
    <path d="M 517.124362 170.915556 
L 521.124362 172.915556 
L 517.124362 174.915556 
" style="fill: none; opacity: 0.54; stroke: #1f77b4; stroke-width: 1.6; stroke-linecap: round"/>
   </g>
   <g id="patch_37">
    <path d="M 554.688711 172.915556 
Q 563.600964 172.915556 570.500755 172.915556 
" style="fill: none; opacity: 0.42; stroke: #1f77b4; stroke-width: 1.8; stroke-linecap: round"/>
    <path d="M 566.500755 170.915556 
L 570.500755 172.915556 
L 566.500755 174.915556 
" style="fill: none; opacity: 0.42; stroke: #1f77b4; stroke-width: 1.8; stroke-linecap: round"/>
   </g>
   <g id="text_10">
    <!-- ×W[i,i] -->
    <g style="fill: #1f77b4" transform="translate(380.428711 150.549333) scale(0.055 -0.055)">
     <defs>
      <path id="DejaVuSans-d7" d="M 4488 3438 
L 3059 2003 
L 4488 575 
L 4116 197 
L 2681 1631 
L 1247 197 
L 878 575 
L 2303 2003 
L 878 3438 
L 1247 3816 
L 2681 2381 
L 4116 3816 
L 4488 3438 
z
" transform="scale(0.015625)"/>
      <path id="DejaVuSans-57" d="M 213 4666 
L 850 4666 
L 1831 722 
L 2809 4666 
L 3519 4666 
L 4500 722 
L 5478 4666 
L 6119 4666 
L 4947 0 
L 4153 0 
L 3169 4050 
L 2175 0 
L 1381 0 
L 213 4666 
z
" transform="scale(0.015625)"/>
      <path id="DejaVuSans-5b" d="M 550 4863 
L 1875 4863 
L 1875 4416 
L 1125 4416 
L 1125 -397 
L 1875 -397 
L 1875 -844 
L 550 -844 
L 550 4863 
z
" transform="scale(0.015625)"/>
      <path id="DejaVuSans-2c" d="M 750 794 
L 1409 794 
L 1409 256 
L 897 -744 
L 494 -744 
L 750 256 
L 750 794 
z
" transform="scale(0.015625)"/>
      <path id="DejaVuSans-5d" d="M 1947 4863 
L 1947 -844 
L 622 -844 
L 622 -397 
L 1369 -397 
L 1369 4416 
L 622 4416 
L 622 4863 
L 1947 4863 
z
" transform="scale(0.015625)"/>
     </defs>
     <use xlink:href="#DejaVuSans-d7"/>
     <use xlink:href="#DejaVuSans-57" x="83.789062"/>
     <use xlink:href="#DejaVuSans-5b" x="182.666016"/>
     <use xlink:href="#DejaVuSans-69" x="221.679688"/>
     <use xlink:href="#DejaVuSans-2c" x="249.462891"/>
     <use xlink:href="#DejaVuSans-69" x="281.25"/>
     <use xlink:href="#DejaVuSans-5d" x="309.033203"/>
    </g>
   </g>
   <g id="text_11">
    <!-- ×W[i,i] -->
    <g style="fill: #1f77b4" transform="translate(430.028711 150.549333) scale(0.055 -0.055)">
     <use xlink:href="#DejaVuSans-d7"/>
     <use xlink:href="#DejaVuSans-57" x="83.789062"/>
     <use xlink:href="#DejaVuSans-5b" x="182.666016"/>
     <use xlink:href="#DejaVuSans-69" x="221.679688"/>
     <use xlink:href="#DejaVuSans-2c" x="249.462891"/>
     <use xlink:href="#DejaVuSans-69" x="281.25"/>
     <use xlink:href="#DejaVuSans-5d" x="309.033203"/>
    </g>
   </g>
   <g id="text_12">
    <!-- ×W[i,i] -->
    <g style="fill: #1f77b4" transform="translate(479.628711 150.549333) scale(0.055 -0.055)">
     <use xlink:href="#DejaVuSans-d7"/>
     <use xlink:href="#DejaVuSans-57" x="83.789062"/>
     <use xlink:href="#DejaVuSans-5b" x="182.666016"/>
     <use xlink:href="#DejaVuSans-69" x="221.679688"/>
     <use xlink:href="#DejaVuSans-2c" x="249.462891"/>
     <use xlink:href="#DejaVuSans-69" x="281.25"/>
     <use xlink:href="#DejaVuSans-5d" x="309.033203"/>
    </g>
   </g>
   <g id="text_13">
    <!-- ×W[i,i] -->
    <g style="fill: #1f77b4" transform="translate(529.228711 150.549333) scale(0.055 -0.055)">
     <use xlink:href="#DejaVuSans-d7"/>
     <use xlink:href="#DejaVuSans-57" x="83.789062"/>
     <use xlink:href="#DejaVuSans-5b" x="182.666016"/>
     <use xlink:href="#DejaVuSans-69" x="221.679688"/>
     <use xlink:href="#DejaVuSans-2c" x="249.462891"/>
     <use xlink:href="#DejaVuSans-69" x="281.25"/>
     <use xlink:href="#DejaVuSans-5d" x="309.033203"/>
    </g>
   </g>
   <g id="text_14">
    <!-- Eligibility trace (forward) -->
    <g style="fill: #1f77b4" transform="translate(414.86625 266.063972) scale(0.08 -0.08)">
     <defs>
      <path id="DejaVuSans-45" d="M 628 4666 
L 3578 4666 
L 3578 4134 
L 1259 4134 
L 1259 2753 
L 3481 2753 
L 3481 2222 
L 1259 2222 
L 1259 531 
L 3634 531 
L 3634 0 
L 628 0 
L 628 4666 
z
" transform="scale(0.015625)"/>
      <path id="DejaVuSans-79" d="M 2059 -325 
Q 1816 -950 1584 -1140 
Q 1353 -1331 966 -1331 
L 506 -1331 
L 506 -850 
L 844 -850 
Q 1081 -850 1212 -737 
Q 1344 -625 1503 -206 
L 1606 56 
L 191 3500 
L 800 3500 
L 1894 763 
L 2988 3500 
L 3597 3500 
L 2059 -325 
z
" transform="scale(0.015625)"/>
      <path id="DejaVuSans-66" d="M 2375 4863 
L 2375 4384 
L 1825 4384 
Q 1516 4384 1395 4259 
Q 1275 4134 1275 3809 
L 1275 3500 
L 2222 3500 
L 2222 3053 
L 1275 3053 
L 1275 0 
L 697 0 
L 697 3053 
L 147 3053 
L 147 3500 
L 697 3500 
L 697 3744 
Q 697 4328 969 4595 
Q 1241 4863 1831 4863 
L 2375 4863 
z
" transform="scale(0.015625)"/>
      <path id="DejaVuSans-77" d="M 269 3500 
L 844 3500 
L 1563 769 
L 2278 3500 
L 2956 3500 
L 3675 769 
L 4391 3500 
L 4966 3500 
L 4050 0 
L 3372 0 
L 2619 2869 
L 1863 0 
L 1184 0 
L 269 3500 
z
" transform="scale(0.015625)"/>
      <path id="DejaVuSans-64" d="M 2906 2969 
L 2906 4863 
L 3481 4863 
L 3481 0 
L 2906 0 
L 2906 525 
Q 2725 213 2448 61 
Q 2172 -91 1784 -91 
Q 1150 -91 751 415 
Q 353 922 353 1747 
Q 353 2572 751 3078 
Q 1150 3584 1784 3584 
Q 2172 3584 2448 3432 
Q 2725 3281 2906 2969 
z
M 947 1747 
Q 947 1113 1208 752 
Q 1469 391 1925 391 
Q 2381 391 2643 752 
Q 2906 1113 2906 1747 
Q 2906 2381 2643 2742 
Q 2381 3103 1925 3103 
Q 1469 3103 1208 2742 
Q 947 2381 947 1747 
z
" transform="scale(0.015625)"/>
     </defs>
     <use xlink:href="#DejaVuSans-45"/>
     <use xlink:href="#DejaVuSans-6c" x="63.183594"/>
     <use xlink:href="#DejaVuSans-69" x="90.966797"/>
     <use xlink:href="#DejaVuSans-67" x="118.75"/>
     <use xlink:href="#DejaVuSans-69" x="182.226562"/>
     <use xlink:href="#DejaVuSans-62" x="210.009766"/>
     <use xlink:href="#DejaVuSans-69" x="273.486328"/>
     <use xlink:href="#DejaVuSans-6c" x="301.269531"/>
     <use xlink:href="#DejaVuSans-69" x="329.052734"/>
     <use xlink:href="#DejaVuSans-74" x="356.835938"/>
     <use xlink:href="#DejaVuSans-79" x="396.044922"/>
     <use xlink:href="#DejaVuSans-20" x="455.224609"/>
     <use xlink:href="#DejaVuSans-74" x="487.011719"/>
     <use xlink:href="#DejaVuSans-72" x="526.220703"/>
     <use xlink:href="#DejaVuSans-61" x="567.333984"/>
     <use xlink:href="#DejaVuSans-63" x="628.613281"/>
     <use xlink:href="#DejaVuSans-65" x="683.59375"/>
     <use xlink:href="#DejaVuSans-20" x="745.117188"/>
     <use xlink:href="#DejaVuSans-28" x="776.904297"/>
     <use xlink:href="#DejaVuSans-66" x="815.917969"/>
     <use xlink:href="#DejaVuSans-6f" x="851.123047"/>
     <use xlink:href="#DejaVuSans-72" x="912.304688"/>
     <use xlink:href="#DejaVuSans-77" x="953.417969"/>
     <use xlink:href="#DejaVuSans-61" x="1035.205078"/>
     <use xlink:href="#DejaVuSans-72" x="1096.484375"/>
     <use xlink:href="#DejaVuSans-64" x="1135.847656"/>
     <use xlink:href="#DejaVuSans-29" x="1199.324219"/>
    </g>
    <!-- × learning signal (diagonal carry) -->
    <g style="fill: #1f77b4" transform="translate(397.268125 275.022222) scale(0.08 -0.08)">
     <defs>
      <path id="DejaVuSans-73" d="M 2834 3397 
L 2834 2853 
Q 2591 2978 2328 3040 
Q 2066 3103 1784 3103 
Q 1356 3103 1142 2972 
Q 928 2841 928 2578 
Q 928 2378 1081 2264 
Q 1234 2150 1697 2047 
L 1894 2003 
Q 2506 1872 2764 1633 
Q 3022 1394 3022 966 
Q 3022 478 2636 193 
Q 2250 -91 1575 -91 
Q 1294 -91 989 -36 
Q 684 19 347 128 
L 347 722 
Q 666 556 975 473 
Q 1284 391 1588 391 
Q 1994 391 2212 530 
Q 2431 669 2431 922 
Q 2431 1156 2273 1281 
Q 2116 1406 1581 1522 
L 1381 1569 
Q 847 1681 609 1914 
Q 372 2147 372 2553 
Q 372 3047 722 3315 
Q 1072 3584 1716 3584 
Q 2034 3584 2315 3537 
Q 2597 3491 2834 3397 
z
" transform="scale(0.015625)"/>
     </defs>
     <use xlink:href="#DejaVuSans-d7"/>
     <use xlink:href="#DejaVuSans-20" x="83.789062"/>
     <use xlink:href="#DejaVuSans-6c" x="115.576172"/>
     <use xlink:href="#DejaVuSans-65" x="143.359375"/>
     <use xlink:href="#DejaVuSans-61" x="204.882812"/>
     <use xlink:href="#DejaVuSans-72" x="266.162109"/>
     <use xlink:href="#DejaVuSans-6e" x="305.525391"/>
     <use xlink:href="#DejaVuSans-69" x="368.904297"/>
     <use xlink:href="#DejaVuSans-6e" x="396.6875"/>
     <use xlink:href="#DejaVuSans-67" x="460.066406"/>
     <use xlink:href="#DejaVuSans-20" x="523.542969"/>
     <use xlink:href="#DejaVuSans-73" x="555.330078"/>
     <use xlink:href="#DejaVuSans-69" x="607.429688"/>
     <use xlink:href="#DejaVuSans-67" x="635.212891"/>
     <use xlink:href="#DejaVuSans-6e" x="698.689453"/>
     <use xlink:href="#DejaVuSans-61" x="762.068359"/>
     <use xlink:href="#DejaVuSans-6c" x="823.347656"/>
     <use xlink:href="#DejaVuSans-20" x="851.130859"/>
     <use xlink:href="#DejaVuSans-28" x="882.917969"/>
     <use xlink:href="#DejaVuSans-64" x="921.931641"/>
     <use xlink:href="#DejaVuSans-69" x="985.408203"/>
     <use xlink:href="#DejaVuSans-61" x="1013.191406"/>
     <use xlink:href="#DejaVuSans-67" x="1074.470703"/>
     <use xlink:href="#DejaVuSans-6f" x="1137.947266"/>
     <use xlink:href="#DejaVuSans-6e" x="1199.128906"/>
     <use xlink:href="#DejaVuSans-61" x="1262.507812"/>
     <use xlink:href="#DejaVuSans-6c" x="1323.787109"/>
     <use xlink:href="#DejaVuSans-20" x="1351.570312"/>
     <use xlink:href="#DejaVuSans-63" x="1383.357422"/>
     <use xlink:href="#DejaVuSans-61" x="1438.337891"/>
     <use xlink:href="#DejaVuSans-72" x="1499.617188"/>
     <use xlink:href="#DejaVuSans-72" x="1538.980469"/>
     <use xlink:href="#DejaVuSans-79" x="1580.09375"/>
     <use xlink:href="#DejaVuSans-29" x="1639.273438"/>
    </g>
   </g>
   <g id="text_15">
    <!-- E-prop -->
    <g transform="translate(442.140938 45.36) scale(0.12 -0.12)">
     <defs>
      <path id="DejaVuSans-Bold-45" d="M 588 4666 
L 3834 4666 
L 3834 3756 
L 1791 3756 
L 1791 2888 
L 3713 2888 
L 3713 1978 
L 1791 1978 
L 1791 909 
L 3903 909 
L 3903 0 
L 588 0 
L 588 4666 
z
" transform="scale(0.015625)"/>
      <path id="DejaVuSans-Bold-2d" d="M 347 2297 
L 2309 2297 
L 2309 1388 
L 347 1388 
L 347 2297 
z
" transform="scale(0.015625)"/>
      <path id="DejaVuSans-Bold-70" d="M 1656 506 
L 1656 -1331 
L 538 -1331 
L 538 3500 
L 1656 3500 
L 1656 2988 
Q 1888 3294 2169 3439 
Q 2450 3584 2816 3584 
Q 3463 3584 3878 3070 
Q 4294 2556 4294 1747 
Q 4294 938 3878 423 
Q 3463 -91 2816 -91 
Q 2450 -91 2169 54 
Q 1888 200 1656 506 
z
M 2400 2772 
Q 2041 2772 1848 2508 
Q 1656 2244 1656 1747 
Q 1656 1250 1848 986 
Q 2041 722 2400 722 
Q 2759 722 2948 984 
Q 3138 1247 3138 1747 
Q 3138 2247 2948 2509 
Q 2759 2772 2400 2772 
z
" transform="scale(0.015625)"/>
      <path id="DejaVuSans-Bold-72" d="M 3138 2547 
Q 2991 2616 2845 2648 
Q 2700 2681 2553 2681 
Q 2122 2681 1889 2404 
Q 1656 2128 1656 1613 
L 1656 0 
L 538 0 
L 538 3500 
L 1656 3500 
L 1656 2925 
Q 1872 3269 2151 3426 
Q 2431 3584 2822 3584 
Q 2878 3584 2943 3579 
Q 3009 3575 3134 3559 
L 3138 2547 
z
" transform="scale(0.015625)"/>
      <path id="DejaVuSans-Bold-6f" d="M 2203 2784 
Q 1831 2784 1636 2517 
Q 1441 2250 1441 1747 
Q 1441 1244 1636 976 
Q 1831 709 2203 709 
Q 2569 709 2762 976 
Q 2956 1244 2956 1747 
Q 2956 2250 2762 2517 
Q 2569 2784 2203 2784 
z
M 2203 3584 
Q 3106 3584 3614 3096 
Q 4122 2609 4122 1747 
Q 4122 884 3614 396 
Q 3106 -91 2203 -91 
Q 1297 -91 786 396 
Q 275 884 275 1747 
Q 275 2609 786 3096 
Q 1297 3584 2203 3584 
z
" transform="scale(0.015625)"/>
     </defs>
     <use xlink:href="#DejaVuSans-Bold-45"/>
     <use xlink:href="#DejaVuSans-Bold-2d" x="68.310547"/>
     <use xlink:href="#DejaVuSans-Bold-70" x="109.814453"/>
     <use xlink:href="#DejaVuSans-Bold-72" x="181.396484"/>
     <use xlink:href="#DejaVuSans-Bold-6f" x="230.712891"/>
     <use xlink:href="#DejaVuSans-Bold-70" x="299.414062"/>
    </g>
   </g>
   <g id="text_16">
    <!-- $h_0$ -->
    <g transform="translate(336.515 199.158229) scale(0.07 -0.07)">
     <use xlink:href="#DejaVuSans-Oblique-68" transform="translate(0 0.015625)"/>
     <use xlink:href="#DejaVuSans-30" transform="translate(63.378906 -16.390625) scale(0.7)"/>
    </g>
   </g>
   <g id="text_17">
    <!-- $h_1$ -->
    <g transform="translate(386.115 199.158229) scale(0.07 -0.07)">
     <use xlink:href="#DejaVuSans-Oblique-68" transform="translate(0 0.015625)"/>
     <use xlink:href="#DejaVuSans-31" transform="translate(63.378906 -16.390625) scale(0.7)"/>
    </g>
   </g>
   <g id="text_18">
    <!-- $h_2$ -->
    <g transform="translate(435.715 199.158229) scale(0.07 -0.07)">
     <use xlink:href="#DejaVuSans-Oblique-68" transform="translate(0 0.015625)"/>
     <use xlink:href="#DejaVuSans-32" transform="translate(63.378906 -16.390625) scale(0.7)"/>
    </g>
   </g>
   <g id="text_19">
    <!-- $h_3$ -->
    <g transform="translate(485.315 199.158229) scale(0.07 -0.07)">
     <use xlink:href="#DejaVuSans-Oblique-68" transform="translate(0 0.015625)"/>
     <use xlink:href="#DejaVuSans-33" transform="translate(63.378906 -16.390625) scale(0.7)"/>
    </g>
   </g>
   <g id="text_20">
    <!-- $h_4$ -->
    <g transform="translate(534.915 199.158229) scale(0.07 -0.07)">
     <use xlink:href="#DejaVuSans-Oblique-68" transform="translate(0 0.015625)"/>
     <use xlink:href="#DejaVuSans-34" transform="translate(63.378906 -16.390625) scale(0.7)"/>
    </g>
   </g>
   <g id="text_21">
    <!-- $h_5$ -->
    <g transform="translate(584.515 199.158229) scale(0.07 -0.07)">
     <use xlink:href="#DejaVuSans-Oblique-68" transform="translate(0 0.015625)"/>
     <use xlink:href="#DejaVuSans-35" transform="translate(63.378906 -16.390625) scale(0.7)"/>
    </g>
   </g>
   <g id="text_22">
    <!-- $\mathcal{L}$ -->
    <g transform="translate(585.25 102.46566) scale(0.09 -0.09)">
     <use xlink:href="#STIXNonUnicode-Italic-e238"/>
    </g>
   </g>
  </g>
  <g id="axes_3">
   <g id="patch_38">
    <path d="M 664.688711 197.226667 
Q 673.600964 197.226667 681.395182 197.226667 
" style="fill: none; stroke: #888888; stroke-linecap: round"/>
    <path d="M 677.395182 195.226667 
L 681.395182 197.226667 
L 677.395182 199.226667 
" style="fill: none; stroke: #888888; stroke-linecap: round"/>
   </g>
   <g id="patch_39">
    <path d="M 714.288711 197.226667 
Q 723.200964 197.226667 730.995182 197.226667 
" style="fill: none; stroke: #888888; stroke-linecap: round"/>
    <path d="M 726.995182 195.226667 
L 730.995182 197.226667 
L 726.995182 199.226667 
" style="fill: none; stroke: #888888; stroke-linecap: round"/>
   </g>
   <g id="patch_40">
    <path d="M 763.888711 197.226667 
Q 772.800964 197.226667 780.595182 197.226667 
" style="fill: none; stroke: #888888; stroke-linecap: round"/>
    <path d="M 776.595182 195.226667 
L 780.595182 197.226667 
L 776.595182 199.226667 
" style="fill: none; stroke: #888888; stroke-linecap: round"/>
   </g>
   <g id="patch_41">
    <path d="M 813.488711 197.226667 
Q 822.400964 197.226667 830.195182 197.226667 
" style="fill: none; stroke: #888888; stroke-linecap: round"/>
    <path d="M 826.195182 195.226667 
L 830.195182 197.226667 
L 826.195182 199.226667 
" style="fill: none; stroke: #888888; stroke-linecap: round"/>
   </g>
   <g id="patch_42">
    <path d="M 863.088711 197.226667 
Q 872.000964 197.226667 879.795182 197.226667 
" style="fill: none; stroke: #888888; stroke-linecap: round"/>
    <path d="M 875.795182 195.226667 
L 879.795182 197.226667 
L 875.795182 199.226667 
" style="fill: none; stroke: #888888; stroke-linecap: round"/>
   </g>
   <g id="patch_43">
    <path d="M 896.8 168.00039 
Q 896.8 148.603861 896.8 130.884383 
" style="fill: none; stroke: #aa6600; stroke-width: 1.5; stroke-linecap: round"/>
    <path d="M 894.8 134.884383 
L 896.8 130.884383 
L 898.8 134.884383 
" style="fill: none; stroke: #aa6600; stroke-width: 1.5; stroke-linecap: round"/>
   </g>
   <g id="patch_44">
    <path d="M 648.8 224.455111 
C 652.483141 224.455111 656.015925 221.58615 658.620299 216.480084 
C 661.224673 211.374018 662.688 204.447735 662.688 197.226667 
C 662.688 190.005599 661.224673 183.079315 658.620299 177.973249 
C 656.015925 172.867183 652.483141 169.998222 648.8 169.998222 
C 645.116859 169.998222 641.584075 172.867183 638.979701 177.973249 
C 636.375327 183.079315 634.912 190.005599 634.912 197.226667 
C 634.912 204.447735 636.375327 211.374018 638.979701 216.480084 
C 641.584075 221.58615 645.116859 224.455111 648.8 224.455111 
z
" clip-path="url(#p53ed546baa)" style="fill: #ddeeff; stroke: #335577; stroke-width: 1.5; stroke-linejoin: miter"/>
   </g>
   <g id="patch_45">
    <path d="M 698.4 224.455111 
C 702.083141 224.455111 705.615925 221.58615 708.220299 216.480084 
C 710.824673 211.374018 712.288 204.447735 712.288 197.226667 
C 712.288 190.005599 710.824673 183.079315 708.220299 177.973249 
C 705.615925 172.867183 702.083141 169.998222 698.4 169.998222 
C 694.716859 169.998222 691.184075 172.867183 688.579701 177.973249 
C 685.975327 183.079315 684.512 190.005599 684.512 197.226667 
C 684.512 204.447735 685.975327 211.374018 688.579701 216.480084 
C 691.184075 221.58615 694.716859 224.455111 698.4 224.455111 
z
" clip-path="url(#p53ed546baa)" style="fill: #ddeeff; stroke: #335577; stroke-width: 1.5; stroke-linejoin: miter"/>
   </g>
   <g id="patch_46">
    <path d="M 748 224.455111 
C 751.683141 224.455111 755.215925 221.58615 757.820299 216.480084 
C 760.424673 211.374018 761.888 204.447735 761.888 197.226667 
C 761.888 190.005599 760.424673 183.079315 757.820299 177.973249 
C 755.215925 172.867183 751.683141 169.998222 748 169.998222 
C 744.316859 169.998222 740.784075 172.867183 738.179701 177.973249 
C 735.575327 183.079315 734.112 190.005599 734.112 197.226667 
C 734.112 204.447735 735.575327 211.374018 738.179701 216.480084 
C 740.784075 221.58615 744.316859 224.455111 748 224.455111 
z
" clip-path="url(#p53ed546baa)" style="fill: #ddeeff; stroke: #335577; stroke-width: 1.5; stroke-linejoin: miter"/>
   </g>
   <g id="patch_47">
    <path d="M 797.6 224.455111 
C 801.283141 224.455111 804.815925 221.58615 807.420299 216.480084 
C 810.024673 211.374018 811.488 204.447735 811.488 197.226667 
C 811.488 190.005599 810.024673 183.079315 807.420299 177.973249 
C 804.815925 172.867183 801.283141 169.998222 797.6 169.998222 
C 793.916859 169.998222 790.384075 172.867183 787.779701 177.973249 
C 785.175327 183.079315 783.712 190.005599 783.712 197.226667 
C 783.712 204.447735 785.175327 211.374018 787.779701 216.480084 
C 790.384075 221.58615 793.916859 224.455111 797.6 224.455111 
z
" clip-path="url(#p53ed546baa)" style="fill: #ddeeff; stroke: #335577; stroke-width: 1.5; stroke-linejoin: miter"/>
   </g>
   <g id="patch_48">
    <path d="M 847.2 224.455111 
C 850.883141 224.455111 854.415925 221.58615 857.020299 216.480084 
C 859.624673 211.374018 861.088 204.447735 861.088 197.226667 
C 861.088 190.005599 859.624673 183.079315 857.020299 177.973249 
C 854.415925 172.867183 850.883141 169.998222 847.2 169.998222 
C 843.516859 169.998222 839.984075 172.867183 837.379701 177.973249 
C 834.775327 183.079315 833.312 190.005599 833.312 197.226667 
C 833.312 204.447735 834.775327 211.374018 837.379701 216.480084 
C 839.984075 221.58615 843.516859 224.455111 847.2 224.455111 
z
" clip-path="url(#p53ed546baa)" style="fill: #ddeeff; stroke: #335577; stroke-width: 1.5; stroke-linejoin: miter"/>
   </g>
   <g id="patch_49">
    <path d="M 896.8 224.455111 
C 900.483141 224.455111 904.015925 221.58615 906.620299 216.480084 
C 909.224673 211.374018 910.688 204.447735 910.688 197.226667 
C 910.688 190.005599 909.224673 183.079315 906.620299 177.973249 
C 904.015925 172.867183 900.483141 169.998222 896.8 169.998222 
C 893.116859 169.998222 889.584075 172.867183 886.979701 177.973249 
C 884.375327 183.079315 882.912 190.005599 882.912 197.226667 
C 882.912 204.447735 884.375327 211.374018 886.979701 216.480084 
C 889.584075 221.58615 893.116859 224.455111 896.8 224.455111 
z
" clip-path="url(#p53ed546baa)" style="fill: #aaddcc; stroke: #335577; stroke-width: 1.5; stroke-linejoin: miter"/>
   </g>
   <g id="patch_50">
    <path d="M 896.8 127.210667 
C 900.483141 127.210667 904.015925 124.341706 906.620299 119.23564 
C 909.224673 114.129574 910.688 107.20329 910.688 99.982222 
C 910.688 92.761154 909.224673 85.834871 906.620299 80.728805 
C 904.015925 75.622738 900.483141 72.753778 896.8 72.753778 
C 893.116859 72.753778 889.584075 75.622738 886.979701 80.728805 
C 884.375327 85.834871 882.912 92.761154 882.912 99.982222 
C 882.912 107.20329 884.375327 114.129574 886.979701 119.23564 
C 889.584075 124.341706 893.116859 127.210667 896.8 127.210667 
z
" clip-path="url(#p53ed546baa)" style="fill: #ffeecc; stroke: #aa6600; stroke-width: 1.5; stroke-linejoin: miter"/>
   </g>
   <g id="patch_51">
    <path d="M 673.6 150.603464 
Q 673.6 158.329376 673.6 164.378238 
" style="fill: none; stroke: #ff7f0e; stroke-width: 1.5; stroke-linecap: round"/>
    <path d="M 675.6 160.378238 
L 673.6 164.378238 
L 671.6 160.378238 
" style="fill: none; stroke: #ff7f0e; stroke-width: 1.5; stroke-linecap: round"/>
   </g>
   <g id="patch_52">
    <path d="M 723.2 150.603464 
Q 723.2 158.329376 723.2 164.378238 
" style="fill: none; stroke: #ff7f0e; stroke-width: 1.5; stroke-linecap: round"/>
    <path d="M 725.2 160.378238 
L 723.2 164.378238 
L 721.2 160.378238 
" style="fill: none; stroke: #ff7f0e; stroke-width: 1.5; stroke-linecap: round"/>
   </g>
   <g id="patch_53">
    <path d="M 772.8 150.603464 
Q 772.8 158.329376 772.8 164.378238 
" style="fill: none; stroke: #ff7f0e; stroke-width: 1.5; stroke-linecap: round"/>
    <path d="M 774.8 160.378238 
L 772.8 164.378238 
L 770.8 160.378238 
" style="fill: none; stroke: #ff7f0e; stroke-width: 1.5; stroke-linecap: round"/>
   </g>
   <g id="patch_54">
    <path d="M 822.4 150.603464 
Q 822.4 158.329376 822.4 164.378238 
" style="fill: none; stroke: #ff7f0e; stroke-width: 1.5; stroke-linecap: round"/>
    <path d="M 824.4 160.378238 
L 822.4 164.378238 
L 820.4 160.378238 
" style="fill: none; stroke: #ff7f0e; stroke-width: 1.5; stroke-linecap: round"/>
   </g>
   <g id="patch_55">
    <path d="M 872 150.603464 
Q 872 158.329376 872 164.378238 
" style="fill: none; stroke: #ff7f0e; stroke-width: 1.5; stroke-linecap: round"/>
    <path d="M 874 160.378238 
L 872 164.378238 
L 870 160.378238 
" style="fill: none; stroke: #ff7f0e; stroke-width: 1.5; stroke-linecap: round"/>
   </g>
   <g id="text_23">
    <!-- No temporal carry -->
    <g style="fill: #ff7f0e" transform="translate(736.46125 266.063972) scale(0.08 -0.08)">
     <defs>
      <path id="DejaVuSans-4e" d="M 628 4666 
L 1478 4666 
L 3547 763 
L 3547 4666 
L 4159 4666 
L 4159 0 
L 3309 0 
L 1241 3903 
L 1241 0 
L 628 0 
L 628 4666 
z
" transform="scale(0.015625)"/>
     </defs>
     <use xlink:href="#DejaVuSans-4e"/>
     <use xlink:href="#DejaVuSans-6f" x="74.804688"/>
     <use xlink:href="#DejaVuSans-20" x="135.986328"/>
     <use xlink:href="#DejaVuSans-74" x="167.773438"/>
     <use xlink:href="#DejaVuSans-65" x="206.982422"/>
     <use xlink:href="#DejaVuSans-6d" x="268.505859"/>
     <use xlink:href="#DejaVuSans-70" x="365.917969"/>
     <use xlink:href="#DejaVuSans-6f" x="429.394531"/>
     <use xlink:href="#DejaVuSans-72" x="490.576172"/>
     <use xlink:href="#DejaVuSans-61" x="531.689453"/>
     <use xlink:href="#DejaVuSans-6c" x="592.96875"/>
     <use xlink:href="#DejaVuSans-20" x="620.751953"/>
     <use xlink:href="#DejaVuSans-63" x="652.539062"/>
     <use xlink:href="#DejaVuSans-61" x="707.519531"/>
     <use xlink:href="#DejaVuSans-72" x="768.798828"/>
     <use xlink:href="#DejaVuSans-72" x="808.162109"/>
     <use xlink:href="#DejaVuSans-79" x="849.275391"/>
    </g>
    <!-- (instantaneous only) -->
    <g style="fill: #ff7f0e" transform="translate(731.58 275.022222) scale(0.08 -0.08)">
     <use xlink:href="#DejaVuSans-28"/>
     <use xlink:href="#DejaVuSans-69" x="39.013672"/>
     <use xlink:href="#DejaVuSans-6e" x="66.796875"/>
     <use xlink:href="#DejaVuSans-73" x="130.175781"/>
     <use xlink:href="#DejaVuSans-74" x="182.275391"/>
     <use xlink:href="#DejaVuSans-61" x="221.484375"/>
     <use xlink:href="#DejaVuSans-6e" x="282.763672"/>
     <use xlink:href="#DejaVuSans-74" x="346.142578"/>
     <use xlink:href="#DejaVuSans-61" x="385.351562"/>
     <use xlink:href="#DejaVuSans-6e" x="446.630859"/>
     <use xlink:href="#DejaVuSans-65" x="510.009766"/>
     <use xlink:href="#DejaVuSans-6f" x="571.533203"/>
     <use xlink:href="#DejaVuSans-75" x="632.714844"/>
     <use xlink:href="#DejaVuSans-73" x="696.09375"/>
     <use xlink:href="#DejaVuSans-20" x="748.193359"/>
     <use xlink:href="#DejaVuSans-6f" x="779.980469"/>
     <use xlink:href="#DejaVuSans-6e" x="841.162109"/>
     <use xlink:href="#DejaVuSans-6c" x="904.541016"/>
     <use xlink:href="#DejaVuSans-79" x="932.324219"/>
     <use xlink:href="#DejaVuSans-29" x="991.503906"/>
    </g>
   </g>
   <g id="text_24">
    <!-- d=0 -->
    <g transform="translate(759.302812 45.36) scale(0.12 -0.12)">
     <defs>
      <path id="DejaVuSans-Bold-64" d="M 2919 2988 
L 2919 4863 
L 4044 4863 
L 4044 0 
L 2919 0 
L 2919 506 
Q 2688 197 2409 53 
Q 2131 -91 1766 -91 
Q 1119 -91 703 423 
Q 288 938 288 1747 
Q 288 2556 703 3070 
Q 1119 3584 1766 3584 
Q 2128 3584 2408 3439 
Q 2688 3294 2919 2988 
z
M 2181 722 
Q 2541 722 2730 984 
Q 2919 1247 2919 1747 
Q 2919 2247 2730 2509 
Q 2541 2772 2181 2772 
Q 1825 2772 1636 2509 
Q 1447 2247 1447 1747 
Q 1447 1247 1636 984 
Q 1825 722 2181 722 
z
" transform="scale(0.015625)"/>
      <path id="DejaVuSans-Bold-3d" d="M 678 3084 
L 4684 3084 
L 4684 2350 
L 678 2350 
L 678 3084 
z
M 678 1663 
L 4684 1663 
L 4684 922 
L 678 922 
L 678 1663 
z
" transform="scale(0.015625)"/>
      <path id="DejaVuSans-Bold-30" d="M 2944 2338 
Q 2944 3213 2780 3570 
Q 2616 3928 2228 3928 
Q 1841 3928 1675 3570 
Q 1509 3213 1509 2338 
Q 1509 1453 1675 1090 
Q 1841 728 2228 728 
Q 2613 728 2778 1090 
Q 2944 1453 2944 2338 
z
M 4147 2328 
Q 4147 1169 3647 539 
Q 3147 -91 2228 -91 
Q 1306 -91 806 539 
Q 306 1169 306 2328 
Q 306 3491 806 4120 
Q 1306 4750 2228 4750 
Q 3147 4750 3647 4120 
Q 4147 3491 4147 2328 
z
" transform="scale(0.015625)"/>
     </defs>
     <use xlink:href="#DejaVuSans-Bold-64"/>
     <use xlink:href="#DejaVuSans-Bold-3d" x="71.582031"/>
     <use xlink:href="#DejaVuSans-Bold-30" x="155.371094"/>
    </g>
   </g>
   <g id="text_25">
    <!-- $h_0$ -->
    <g transform="translate(644.915 199.158229) scale(0.07 -0.07)">
     <use xlink:href="#DejaVuSans-Oblique-68" transform="translate(0 0.015625)"/>
     <use xlink:href="#DejaVuSans-30" transform="translate(63.378906 -16.390625) scale(0.7)"/>
    </g>
   </g>
   <g id="text_26">
    <!-- $h_1$ -->
    <g transform="translate(694.515 199.158229) scale(0.07 -0.07)">
     <use xlink:href="#DejaVuSans-Oblique-68" transform="translate(0 0.015625)"/>
     <use xlink:href="#DejaVuSans-31" transform="translate(63.378906 -16.390625) scale(0.7)"/>
    </g>
   </g>
   <g id="text_27">
    <!-- $h_2$ -->
    <g transform="translate(744.115 199.158229) scale(0.07 -0.07)">
     <use xlink:href="#DejaVuSans-Oblique-68" transform="translate(0 0.015625)"/>
     <use xlink:href="#DejaVuSans-32" transform="translate(63.378906 -16.390625) scale(0.7)"/>
    </g>
   </g>
   <g id="text_28">
    <!-- $h_3$ -->
    <g transform="translate(793.715 199.158229) scale(0.07 -0.07)">
     <use xlink:href="#DejaVuSans-Oblique-68" transform="translate(0 0.015625)"/>
     <use xlink:href="#DejaVuSans-33" transform="translate(63.378906 -16.390625) scale(0.7)"/>
    </g>
   </g>
   <g id="text_29">
    <!-- $h_4$ -->
    <g transform="translate(843.315 199.158229) scale(0.07 -0.07)">
     <use xlink:href="#DejaVuSans-Oblique-68" transform="translate(0 0.015625)"/>
     <use xlink:href="#DejaVuSans-34" transform="translate(63.378906 -16.390625) scale(0.7)"/>
    </g>
   </g>
   <g id="text_30">
    <!-- $h_5$ -->
    <g transform="translate(892.915 199.158229) scale(0.07 -0.07)">
     <use xlink:href="#DejaVuSans-Oblique-68" transform="translate(0 0.015625)"/>
     <use xlink:href="#DejaVuSans-35" transform="translate(63.378906 -16.390625) scale(0.7)"/>
    </g>
   </g>
   <g id="text_31">
    <!-- $\mathcal{L}$ -->
    <g transform="translate(893.65 102.46566) scale(0.09 -0.09)">
     <use xlink:href="#STIXNonUnicode-Italic-e238"/>
    </g>
   </g>
  </g>
  <g id="text_32">
   <!-- Credit assignment mechanisms: BPTT vs e-prop vs d=0 -->
   <g transform="translate(277.54875 16.318125) scale(0.12 -0.12)">
    <defs>
     <path id="DejaVuSans-Bold-43" d="M 4288 256 
Q 3956 84 3597 -3 
Q 3238 -91 2847 -91 
Q 1681 -91 1000 561 
Q 319 1213 319 2328 
Q 319 3447 1000 4098 
Q 1681 4750 2847 4750 
Q 3238 4750 3597 4662 
Q 3956 4575 4288 4403 
L 4288 3438 
Q 3953 3666 3628 3772 
Q 3303 3878 2944 3878 
Q 2300 3878 1931 3465 
Q 1563 3053 1563 2328 
Q 1563 1606 1931 1193 
Q 2300 781 2944 781 
Q 3303 781 3628 887 
Q 3953 994 4288 1222 
L 4288 256 
z
" transform="scale(0.015625)"/>
     <path id="DejaVuSans-Bold-65" d="M 4031 1759 
L 4031 1441 
L 1416 1441 
Q 1456 1047 1700 850 
Q 1944 653 2381 653 
Q 2734 653 3104 758 
Q 3475 863 3866 1075 
L 3866 213 
Q 3469 63 3072 -14 
Q 2675 -91 2278 -91 
Q 1328 -91 801 392 
Q 275 875 275 1747 
Q 275 2603 792 3093 
Q 1309 3584 2216 3584 
Q 3041 3584 3536 3087 
Q 4031 2591 4031 1759 
z
M 2881 2131 
Q 2881 2450 2695 2645 
Q 2509 2841 2209 2841 
Q 1884 2841 1681 2658 
Q 1478 2475 1428 2131 
L 2881 2131 
z
" transform="scale(0.015625)"/>
     <path id="DejaVuSans-Bold-69" d="M 538 3500 
L 1656 3500 
L 1656 0 
L 538 0 
L 538 3500 
z
M 538 4863 
L 1656 4863 
L 1656 3950 
L 538 3950 
L 538 4863 
z
" transform="scale(0.015625)"/>
     <path id="DejaVuSans-Bold-74" d="M 1759 4494 
L 1759 3500 
L 2913 3500 
L 2913 2700 
L 1759 2700 
L 1759 1216 
Q 1759 972 1856 886 
Q 1953 800 2241 800 
L 2816 800 
L 2816 0 
L 1856 0 
Q 1194 0 917 276 
Q 641 553 641 1216 
L 641 2700 
L 84 2700 
L 84 3500 
L 641 3500 
L 641 4494 
L 1759 4494 
z
" transform="scale(0.015625)"/>
     <path id="DejaVuSans-Bold-20" transform="scale(0.015625)"/>
     <path id="DejaVuSans-Bold-61" d="M 2106 1575 
Q 1756 1575 1579 1456 
Q 1403 1338 1403 1106 
Q 1403 894 1545 773 
Q 1688 653 1941 653 
Q 2256 653 2472 879 
Q 2688 1106 2688 1447 
L 2688 1575 
L 2106 1575 
z
M 3816 1997 
L 3816 0 
L 2688 0 
L 2688 519 
Q 2463 200 2181 54 
Q 1900 -91 1497 -91 
Q 953 -91 614 226 
Q 275 544 275 1050 
Q 275 1666 698 1953 
Q 1122 2241 2028 2241 
L 2688 2241 
L 2688 2328 
Q 2688 2594 2478 2717 
Q 2269 2841 1825 2841 
Q 1466 2841 1156 2769 
Q 847 2697 581 2553 
L 581 3406 
Q 941 3494 1303 3539 
Q 1666 3584 2028 3584 
Q 2975 3584 3395 3211 
Q 3816 2838 3816 1997 
z
" transform="scale(0.015625)"/>
     <path id="DejaVuSans-Bold-73" d="M 3272 3391 
L 3272 2541 
Q 2913 2691 2578 2766 
Q 2244 2841 1947 2841 
Q 1628 2841 1473 2761 
Q 1319 2681 1319 2516 
Q 1319 2381 1436 2309 
Q 1553 2238 1856 2203 
L 2053 2175 
Q 2913 2066 3209 1816 
Q 3506 1566 3506 1031 
Q 3506 472 3093 190 
Q 2681 -91 1863 -91 
Q 1516 -91 1145 -36 
Q 775 19 384 128 
L 384 978 
Q 719 816 1070 734 
Q 1422 653 1784 653 
Q 2113 653 2278 743 
Q 2444 834 2444 1013 
Q 2444 1163 2330 1236 
Q 2216 1309 1875 1350 
L 1678 1375 
Q 931 1469 631 1722 
Q 331 1975 331 2491 
Q 331 3047 712 3315 
Q 1094 3584 1881 3584 
Q 2191 3584 2531 3537 
Q 2872 3491 3272 3391 
z
" transform="scale(0.015625)"/>
     <path id="DejaVuSans-Bold-67" d="M 2919 594 
Q 2688 288 2409 144 
Q 2131 0 1766 0 
Q 1125 0 706 504 
Q 288 1009 288 1791 
Q 288 2575 706 3076 
Q 1125 3578 1766 3578 
Q 2131 3578 2409 3434 
Q 2688 3291 2919 2981 
L 2919 3500 
L 4044 3500 
L 4044 353 
Q 4044 -491 3511 -936 
Q 2978 -1381 1966 -1381 
Q 1638 -1381 1331 -1331 
Q 1025 -1281 716 -1178 
L 716 -306 
Q 1009 -475 1290 -558 
Q 1572 -641 1856 -641 
Q 2406 -641 2662 -400 
Q 2919 -159 2919 353 
L 2919 594 
z
M 2181 2772 
Q 1834 2772 1640 2515 
Q 1447 2259 1447 1791 
Q 1447 1309 1634 1061 
Q 1822 813 2181 813 
Q 2531 813 2725 1069 
Q 2919 1325 2919 1791 
Q 2919 2259 2725 2515 
Q 2531 2772 2181 2772 
z
" transform="scale(0.015625)"/>
     <path id="DejaVuSans-Bold-6e" d="M 4056 2131 
L 4056 0 
L 2931 0 
L 2931 347 
L 2931 1631 
Q 2931 2084 2911 2256 
Q 2891 2428 2841 2509 
Q 2775 2619 2662 2680 
Q 2550 2741 2406 2741 
Q 2056 2741 1856 2470 
Q 1656 2200 1656 1722 
L 1656 0 
L 538 0 
L 538 3500 
L 1656 3500 
L 1656 2988 
Q 1909 3294 2193 3439 
Q 2478 3584 2822 3584 
Q 3428 3584 3742 3212 
Q 4056 2841 4056 2131 
z
" transform="scale(0.015625)"/>
     <path id="DejaVuSans-Bold-6d" d="M 3781 2919 
Q 3994 3244 4286 3414 
Q 4578 3584 4928 3584 
Q 5531 3584 5847 3212 
Q 6163 2841 6163 2131 
L 6163 0 
L 5038 0 
L 5038 1825 
Q 5041 1866 5042 1909 
Q 5044 1953 5044 2034 
Q 5044 2406 4934 2573 
Q 4825 2741 4581 2741 
Q 4263 2741 4089 2478 
Q 3916 2216 3909 1719 
L 3909 0 
L 2784 0 
L 2784 1825 
Q 2784 2406 2684 2573 
Q 2584 2741 2328 2741 
Q 2006 2741 1831 2477 
Q 1656 2213 1656 1722 
L 1656 0 
L 531 0 
L 531 3500 
L 1656 3500 
L 1656 2988 
Q 1863 3284 2130 3434 
Q 2397 3584 2719 3584 
Q 3081 3584 3359 3409 
Q 3638 3234 3781 2919 
z
" transform="scale(0.015625)"/>
     <path id="DejaVuSans-Bold-63" d="M 3366 3391 
L 3366 2478 
Q 3138 2634 2908 2709 
Q 2678 2784 2431 2784 
Q 1963 2784 1702 2511 
Q 1441 2238 1441 1747 
Q 1441 1256 1702 982 
Q 1963 709 2431 709 
Q 2694 709 2930 787 
Q 3166 866 3366 1019 
L 3366 103 
Q 3103 6 2833 -42 
Q 2563 -91 2291 -91 
Q 1344 -91 809 395 
Q 275 881 275 1747 
Q 275 2613 809 3098 
Q 1344 3584 2291 3584 
Q 2566 3584 2833 3536 
Q 3100 3488 3366 3391 
z
" transform="scale(0.015625)"/>
     <path id="DejaVuSans-Bold-68" d="M 4056 2131 
L 4056 0 
L 2931 0 
L 2931 347 
L 2931 1625 
Q 2931 2084 2911 2256 
Q 2891 2428 2841 2509 
Q 2775 2619 2662 2680 
Q 2550 2741 2406 2741 
Q 2056 2741 1856 2470 
Q 1656 2200 1656 1722 
L 1656 0 
L 538 0 
L 538 4863 
L 1656 4863 
L 1656 2988 
Q 1909 3294 2193 3439 
Q 2478 3584 2822 3584 
Q 3428 3584 3742 3212 
Q 4056 2841 4056 2131 
z
" transform="scale(0.015625)"/>
     <path id="DejaVuSans-Bold-3a" d="M 716 3500 
L 1844 3500 
L 1844 2291 
L 716 2291 
L 716 3500 
z
M 716 1209 
L 1844 1209 
L 1844 0 
L 716 0 
L 716 1209 
z
" transform="scale(0.015625)"/>
     <path id="DejaVuSans-Bold-76" d="M 97 3500 
L 1216 3500 
L 2088 1081 
L 2956 3500 
L 4078 3500 
L 2700 0 
L 1472 0 
L 97 3500 
z
" transform="scale(0.015625)"/>
    </defs>
    <use xlink:href="#DejaVuSans-Bold-43"/>
    <use xlink:href="#DejaVuSans-Bold-72" x="73.388672"/>
    <use xlink:href="#DejaVuSans-Bold-65" x="122.705078"/>
    <use xlink:href="#DejaVuSans-Bold-64" x="190.527344"/>
    <use xlink:href="#DejaVuSans-Bold-69" x="262.109375"/>
    <use xlink:href="#DejaVuSans-Bold-74" x="296.386719"/>
    <use xlink:href="#DejaVuSans-Bold-20" x="344.189453"/>
    <use xlink:href="#DejaVuSans-Bold-61" x="379.003906"/>
    <use xlink:href="#DejaVuSans-Bold-73" x="446.484375"/>
    <use xlink:href="#DejaVuSans-Bold-73" x="506.005859"/>
    <use xlink:href="#DejaVuSans-Bold-69" x="565.527344"/>
    <use xlink:href="#DejaVuSans-Bold-67" x="599.804688"/>
    <use xlink:href="#DejaVuSans-Bold-6e" x="671.386719"/>
    <use xlink:href="#DejaVuSans-Bold-6d" x="742.578125"/>
    <use xlink:href="#DejaVuSans-Bold-65" x="846.777344"/>
    <use xlink:href="#DejaVuSans-Bold-6e" x="914.599609"/>
    <use xlink:href="#DejaVuSans-Bold-74" x="985.791016"/>
    <use xlink:href="#DejaVuSans-Bold-20" x="1033.59375"/>
    <use xlink:href="#DejaVuSans-Bold-6d" x="1068.408203"/>
    <use xlink:href="#DejaVuSans-Bold-65" x="1172.607422"/>
    <use xlink:href="#DejaVuSans-Bold-63" x="1240.429688"/>
    <use xlink:href="#DejaVuSans-Bold-68" x="1299.707031"/>
    <use xlink:href="#DejaVuSans-Bold-61" x="1370.898438"/>
    <use xlink:href="#DejaVuSans-Bold-6e" x="1438.378906"/>
    <use xlink:href="#DejaVuSans-Bold-69" x="1509.570312"/>
    <use xlink:href="#DejaVuSans-Bold-73" x="1543.847656"/>
    <use xlink:href="#DejaVuSans-Bold-6d" x="1603.369141"/>
    <use xlink:href="#DejaVuSans-Bold-73" x="1707.568359"/>
    <use xlink:href="#DejaVuSans-Bold-3a" x="1767.089844"/>
    <use xlink:href="#DejaVuSans-Bold-20" x="1807.080078"/>
    <use xlink:href="#DejaVuSans-Bold-42" x="1841.894531"/>
    <use xlink:href="#DejaVuSans-Bold-50" x="1918.115234"/>
    <use xlink:href="#DejaVuSans-Bold-54" x="1991.40625"/>
    <use xlink:href="#DejaVuSans-Bold-54" x="2061.869141"/>
    <use xlink:href="#DejaVuSans-Bold-20" x="2130.082031"/>
    <use xlink:href="#DejaVuSans-Bold-76" x="2164.896484"/>
    <use xlink:href="#DejaVuSans-Bold-73" x="2230.082031"/>
    <use xlink:href="#DejaVuSans-Bold-20" x="2289.603516"/>
    <use xlink:href="#DejaVuSans-Bold-65" x="2324.417969"/>
    <use xlink:href="#DejaVuSans-Bold-2d" x="2392.240234"/>
    <use xlink:href="#DejaVuSans-Bold-70" x="2433.744141"/>
    <use xlink:href="#DejaVuSans-Bold-72" x="2505.326172"/>
    <use xlink:href="#DejaVuSans-Bold-6f" x="2554.642578"/>
    <use xlink:href="#DejaVuSans-Bold-70" x="2623.34375"/>
    <use xlink:href="#DejaVuSans-Bold-20" x="2694.925781"/>
    <use xlink:href="#DejaVuSans-Bold-76" x="2729.740234"/>
    <use xlink:href="#DejaVuSans-Bold-73" x="2794.925781"/>
    <use xlink:href="#DejaVuSans-Bold-20" x="2854.447266"/>
    <use xlink:href="#DejaVuSans-Bold-64" x="2889.261719"/>
    <use xlink:href="#DejaVuSans-Bold-3d" x="2960.84375"/>
    <use xlink:href="#DejaVuSans-Bold-30" x="3044.632812"/>
   </g>
  </g>
 </g>
 <defs>
  <clipPath id="p1974fdd0a6">
   <rect x="7.2" y="51.36" width="297.6" height="262.56"/>
  </clipPath>
  <clipPath id="p1e984a4148">
   <rect x="315.6" y="51.36" width="297.6" height="262.56"/>
  </clipPath>
  <clipPath id="p53ed546baa">
   <rect x="624" y="51.36" width="297.6" height="262.56"/>
  </clipPath>
 </defs>
</svg>
