<?xml version="1.0" encoding="utf-8" standalone="no"?>
<!DOCTYPE svg PUBLIC "-//W3C//DTD SVG 1.1//EN"
  "http://www.w3.org/Graphics/SVG/1.1/DTD/svg11.dtd">
<svg xmlns:xlink="http://www.w3.org/1999/xlink" width="592.634402pt" height="305.958281pt" viewBox="0 0 592.634402 305.958281" xmlns="http://www.w3.org/2000/svg" version="1.1">
 <metadata>
  <rdf:RDF xmlns:dc="http://purl.org/dc/elements/1.1/" xmlns:cc="http://creativecommons.org/ns#" xmlns:rdf="http://www.w3.org/1999/02/22-rdf-syntax-ns#">
   <cc:Work>
    <dc:type rdf:resource="http://purl.org/dc/dcmitype/StillImage"/>
    <dc:date>2026-06-07T16:35:46.417914</dc:date>
    <dc:format>image/svg+xml</dc:format>
    <dc:creator>
     <cc:Agent>
      <dc:title>Matplotlib v3.10.9, https://matplotlib.org/</dc:title>
     </cc:Agent>
    </dc:creator>
   </cc:Work>
  </rdf:RDF>
 </metadata>
 <defs>
  <style type="text/css">*{stroke-linejoin: round; stroke-linecap: butt}</style>
 </defs>
 <g id="figure_1">
  <g id="patch_1">
   <path d="M 0 305.958281 
L 592.634402 305.958281 
L 592.634402 0 
L 0 0 
z
" style="fill: #ffffff"/>
  </g>
  <g id="axes_1">
   <g id="patch_2">
    <path d="M 117.743298 229.458281 
Q 136.606502 229.458281 153.233638 229.458281 
" style="fill: none; stroke: #886600; stroke-width: 2; stroke-linecap: round"/>
    <path d="M 149.233638 227.458281 
L 153.233638 229.458281 
L 149.233638 231.458281 
" style="fill: none; stroke: #886600; stroke-width: 2; stroke-linecap: round"/>
   </g>
   <g id="patch_3">
    <path d="M 239.047645 160.158281 
Q 257.910849 160.158281 274.537985 160.158281 
" style="fill: none; stroke: #335577; stroke-width: 2; stroke-linecap: round"/>
    <path d="M 270.537985 158.158281 
L 274.537985 160.158281 
L 270.537985 162.158281 
" style="fill: none; stroke: #335577; stroke-width: 2; stroke-linecap: round"/>
   </g>
   <g id="patch_4">
    <path d="M 360.351993 90.858281 
Q 379.215197 90.858281 395.842333 90.858281 
" style="fill: none; stroke: #553388; stroke-width: 2; stroke-linecap: round"/>
    <path d="M 391.842333 88.858281 
L 395.842333 90.858281 
L 391.842333 92.858281 
" style="fill: none; stroke: #553388; stroke-width: 2; stroke-linecap: round"/>
   </g>
   <g id="patch_5">
    <path d="M 174.898702 214.052256 
Q 233.652083 194.808186 290.811726 176.086129 
" style="fill: none; stroke: #444444; stroke-width: 1.5; stroke-linecap: round"/>
    <path d="M 286.387901 175.430558 
L 290.811726 176.086129 
L 287.632974 179.231847 
" style="fill: none; stroke: #444444; stroke-width: 1.5; stroke-linecap: round"/>
   </g>
   <g id="patch_6">
    <path d="M 296.20305 144.752256 
Q 354.956431 125.508186 412.116074 106.786129 
" style="fill: none; stroke: #444444; stroke-width: 1.5; stroke-linecap: round"/>
    <path d="M 407.692249 106.130558 
L 412.116074 106.786129 
L 408.937322 109.931847 
" style="fill: none; stroke: #444444; stroke-width: 1.5; stroke-linecap: round"/>
   </g>
   <g id="patch_7">
    <path d="M 100.217011 244.242281 
C 104.334808 244.242281 108.284505 242.684546 111.196227 239.912148 
C 114.107949 237.13975 115.743967 233.379044 115.743967 229.458281 
C 115.743967 225.537519 114.107949 221.776812 111.196227 219.004415 
C 108.284505 216.232017 104.334808 214.674281 100.217011 214.674281 
C 96.099214 214.674281 92.149517 216.232017 89.237795 219.004415 
C 86.326072 221.776812 84.690054 225.537519 84.690054 229.458281 
C 84.690054 233.379044 86.326072 237.13975 89.237795 239.912148 
C 92.149517 242.684546 96.099214 244.242281 100.217011 244.242281 
z
" clip-path="url(#pe8873b1f63)" style="fill: #ffeecc; stroke: #886600; stroke-width: 1.5; stroke-linejoin: miter"/>
   </g>
   <g id="patch_8">
    <path d="M 221.521359 174.942281 
C 225.639156 174.942281 229.588853 173.384546 232.500575 170.612148 
C 235.412297 167.83975 237.048315 164.079044 237.048315 160.158281 
C 237.048315 156.237519 235.412297 152.476812 232.500575 149.704415 
C 229.588853 146.932017 225.639156 145.374281 221.521359 145.374281 
C 217.403562 145.374281 213.453865 146.932017 210.542142 149.704415 
C 207.63042 152.476812 205.994402 156.237519 205.994402 160.158281 
C 205.994402 164.079044 207.63042 167.83975 210.542142 170.612148 
C 213.453865 173.384546 217.403562 174.942281 221.521359 174.942281 
z
" clip-path="url(#pe8873b1f63)" style="fill: #ddeeff; stroke: #335577; stroke-width: 1.5; stroke-linejoin: miter"/>
   </g>
   <g id="patch_9">
    <path d="M 342.825707 105.642281 
C 346.943504 105.642281 350.893201 104.084546 353.804923 101.312148 
C 356.716645 98.53975 358.352663 94.779044 358.352663 90.858281 
C 358.352663 86.937519 356.716645 83.176812 353.804923 80.404415 
C 350.893201 77.632017 346.943504 76.074281 342.825707 76.074281 
C 338.70791 76.074281 334.758212 77.632017 331.84649 80.404415 
C 328.934768 83.176812 327.29875 86.937519 327.29875 90.858281 
C 327.29875 94.779044 328.934768 98.53975 331.84649 101.312148 
C 334.758212 104.084546 338.70791 105.642281 342.825707 105.642281 
z
" clip-path="url(#pe8873b1f63)" style="fill: #eee0ff; stroke: #553388; stroke-width: 1.5; stroke-linejoin: miter"/>
   </g>
   <g id="patch_10">
    <path d="M 172.99962 244.242281 
C 177.117417 244.242281 181.067114 242.684546 183.978836 239.912148 
C 186.890558 237.13975 188.526576 233.379044 188.526576 229.458281 
C 188.526576 225.537519 186.890558 221.776812 183.978836 219.004415 
C 181.067114 216.232017 177.117417 214.674281 172.99962 214.674281 
C 168.881823 214.674281 164.932126 216.232017 162.020403 219.004415 
C 159.108681 221.776812 157.472663 225.537519 157.472663 229.458281 
C 157.472663 233.379044 159.108681 237.13975 162.020403 239.912148 
C 164.932126 242.684546 168.881823 244.242281 172.99962 244.242281 
z
" clip-path="url(#pe8873b1f63)" style="fill: #ffeecc; stroke: #886600; stroke-width: 1.5; stroke-linejoin: miter"/>
   </g>
   <g id="patch_11">
    <path d="M 294.303967 174.942281 
C 298.421764 174.942281 302.371461 173.384546 305.283184 170.612148 
C 308.194906 167.83975 309.830924 164.079044 309.830924 160.158281 
C 309.830924 156.237519 308.194906 152.476812 305.283184 149.704415 
C 302.371461 146.932017 298.421764 145.374281 294.303967 145.374281 
C 290.18617 145.374281 286.236473 146.932017 283.324751 149.704415 
C 280.413029 152.476812 278.777011 156.237519 278.777011 160.158281 
C 278.777011 164.079044 280.413029 167.83975 283.324751 170.612148 
C 286.236473 173.384546 290.18617 174.942281 294.303967 174.942281 
z
" clip-path="url(#pe8873b1f63)" style="fill: #ddeeff; stroke: #335577; stroke-width: 1.5; stroke-linejoin: miter"/>
   </g>
   <g id="patch_12">
    <path d="M 415.608315 105.642281 
C 419.726112 105.642281 423.675809 104.084546 426.587531 101.312148 
C 429.499254 98.53975 431.135272 94.779044 431.135272 90.858281 
C 431.135272 86.937519 429.499254 83.176812 426.587531 80.404415 
C 423.675809 77.632017 419.726112 76.074281 415.608315 76.074281 
C 411.490518 76.074281 407.540821 77.632017 404.629099 80.404415 
C 401.717377 83.176812 400.081359 86.937519 400.081359 90.858281 
C 400.081359 94.779044 401.717377 98.53975 404.629099 101.312148 
C 407.540821 104.084546 411.490518 105.642281 415.608315 105.642281 
z
" clip-path="url(#pe8873b1f63)" style="fill: #eee0ff; stroke: #553388; stroke-width: 1.5; stroke-linejoin: miter"/>
   </g>
   <g id="text_1">
    <!-- t-1 -->
    <g style="fill: #808080" transform="translate(93.96623 284.898281) scale(0.09 -0.09)">
     <defs>
      <path id="DejaVuSans-Oblique-74" d="M 2706 3500 
L 2619 3053 
L 1472 3053 
L 1100 1153 
Q 1081 1047 1072 975 
Q 1063 903 1063 863 
Q 1063 663 1183 572 
Q 1303 481 1569 481 
L 2150 481 
L 2053 0 
L 1503 0 
Q 991 0 739 200 
Q 488 400 488 806 
Q 488 878 497 964 
Q 506 1050 525 1153 
L 897 3053 
L 409 3053 
L 500 3500 
L 978 3500 
L 1172 4494 
L 1747 4494 
L 1556 3500 
L 2706 3500 
z
" transform="scale(0.015625)"/>
      <path id="DejaVuSans-Oblique-2d" d="M 391 2009 
L 2075 2009 
L 1978 1497 
L 288 1497 
L 391 2009 
z
" transform="scale(0.015625)"/>
      <path id="DejaVuSans-Oblique-31" d="M 416 531 
L 1447 531 
L 2144 4122 
L 978 3897 
L 1088 4441 
L 2247 4666 
L 2881 4666 
L 2075 531 
L 3103 531 
L 3003 0 
L 313 0 
L 416 531 
z
" transform="scale(0.015625)"/>
     </defs>
     <use xlink:href="#DejaVuSans-Oblique-74"/>
     <use xlink:href="#DejaVuSans-Oblique-2d" transform="translate(39.208984 0)"/>
     <use xlink:href="#DejaVuSans-Oblique-31" transform="translate(75.292969 0)"/>
    </g>
   </g>
   <g id="text_2">
    <!-- t -->
    <g style="fill: #808080" transform="translate(171.235479 284.898281) scale(0.09 -0.09)">
     <use xlink:href="#DejaVuSans-Oblique-74"/>
    </g>
   </g>
   <g id="text_3">
    <!-- Layer 1 -->
    <g style="fill: #808080" transform="translate(7.2 231.665781) scale(0.08 -0.08)">
     <defs>
      <path id="DejaVuSans-4c" d="M 628 4666 
L 1259 4666 
L 1259 531 
L 3531 531 
L 3531 0 
L 628 0 
L 628 4666 
z
" transform="scale(0.015625)"/>
      <path id="DejaVuSans-61" d="M 2194 1759 
Q 1497 1759 1228 1600 
Q 959 1441 959 1056 
Q 959 750 1161 570 
Q 1363 391 1709 391 
Q 2188 391 2477 730 
Q 2766 1069 2766 1631 
L 2766 1759 
L 2194 1759 
z
M 3341 1997 
L 3341 0 
L 2766 0 
L 2766 531 
Q 2569 213 2275 61 
Q 1981 -91 1556 -91 
Q 1019 -91 701 211 
Q 384 513 384 1019 
Q 384 1609 779 1909 
Q 1175 2209 1959 2209 
L 2766 2209 
L 2766 2266 
Q 2766 2663 2505 2880 
Q 2244 3097 1772 3097 
Q 1472 3097 1187 3025 
Q 903 2953 641 2809 
L 641 3341 
Q 956 3463 1253 3523 
Q 1550 3584 1831 3584 
Q 2591 3584 2966 3190 
Q 3341 2797 3341 1997 
z
" transform="scale(0.015625)"/>
      <path id="DejaVuSans-79" d="M 2059 -325 
Q 1816 -950 1584 -1140 
Q 1353 -1331 966 -1331 
L 506 -1331 
L 506 -850 
L 844 -850 
Q 1081 -850 1212 -737 
Q 1344 -625 1503 -206 
L 1606 56 
L 191 3500 
L 800 3500 
L 1894 763 
L 2988 3500 
L 3597 3500 
L 2059 -325 
z
" transform="scale(0.015625)"/>
      <path id="DejaVuSans-65" d="M 3597 1894 
L 3597 1613 
L 953 1613 
Q 991 1019 1311 708 
Q 1631 397 2203 397 
Q 2534 397 2845 478 
Q 3156 559 3463 722 
L 3463 178 
Q 3153 47 2828 -22 
Q 2503 -91 2169 -91 
Q 1331 -91 842 396 
Q 353 884 353 1716 
Q 353 2575 817 3079 
Q 1281 3584 2069 3584 
Q 2775 3584 3186 3129 
Q 3597 2675 3597 1894 
z
M 3022 2063 
Q 3016 2534 2758 2815 
Q 2500 3097 2075 3097 
Q 1594 3097 1305 2825 
Q 1016 2553 972 2059 
L 3022 2063 
z
" transform="scale(0.015625)"/>
      <path id="DejaVuSans-72" d="M 2631 2963 
Q 2534 3019 2420 3045 
Q 2306 3072 2169 3072 
Q 1681 3072 1420 2755 
Q 1159 2438 1159 1844 
L 1159 0 
L 581 0 
L 581 3500 
L 1159 3500 
L 1159 2956 
Q 1341 3275 1631 3429 
Q 1922 3584 2338 3584 
Q 2397 3584 2469 3576 
Q 2541 3569 2628 3553 
L 2631 2963 
z
" transform="scale(0.015625)"/>
      <path id="DejaVuSans-20" transform="scale(0.015625)"/>
      <path id="DejaVuSans-31" d="M 794 531 
L 1825 531 
L 1825 4091 
L 703 3866 
L 703 4441 
L 1819 4666 
L 2450 4666 
L 2450 531 
L 3481 531 
L 3481 0 
L 794 0 
L 794 531 
z
" transform="scale(0.015625)"/>
     </defs>
     <use xlink:href="#DejaVuSans-4c"/>
     <use xlink:href="#DejaVuSans-61" transform="translate(55.712891 0)"/>
     <use xlink:href="#DejaVuSans-79" transform="translate(116.992188 0)"/>
     <use xlink:href="#DejaVuSans-65" transform="translate(176.171875 0)"/>
     <use xlink:href="#DejaVuSans-72" transform="translate(237.695312 0)"/>
     <use xlink:href="#DejaVuSans-20" transform="translate(278.808594 0)"/>
     <use xlink:href="#DejaVuSans-31" transform="translate(310.595703 0)"/>
    </g>
   </g>
   <g id="text_4">
    <!-- Layer 2 -->
    <g style="fill: #808080" transform="translate(7.2 162.365781) scale(0.08 -0.08)">
     <defs>
      <path id="DejaVuSans-32" d="M 1228 531 
L 3431 531 
L 3431 0 
L 469 0 
L 469 531 
Q 828 903 1448 1529 
Q 2069 2156 2228 2338 
Q 2531 2678 2651 2914 
Q 2772 3150 2772 3378 
Q 2772 3750 2511 3984 
Q 2250 4219 1831 4219 
Q 1534 4219 1204 4116 
Q 875 4013 500 3803 
L 500 4441 
Q 881 4594 1212 4672 
Q 1544 4750 1819 4750 
Q 2544 4750 2975 4387 
Q 3406 4025 3406 3419 
Q 3406 3131 3298 2873 
Q 3191 2616 2906 2266 
Q 2828 2175 2409 1742 
Q 1991 1309 1228 531 
z
" transform="scale(0.015625)"/>
     </defs>
     <use xlink:href="#DejaVuSans-4c"/>
     <use xlink:href="#DejaVuSans-61" transform="translate(55.712891 0)"/>
     <use xlink:href="#DejaVuSans-79" transform="translate(116.992188 0)"/>
     <use xlink:href="#DejaVuSans-65" transform="translate(176.171875 0)"/>
     <use xlink:href="#DejaVuSans-72" transform="translate(237.695312 0)"/>
     <use xlink:href="#DejaVuSans-20" transform="translate(278.808594 0)"/>
     <use xlink:href="#DejaVuSans-32" transform="translate(310.595703 0)"/>
    </g>
   </g>
   <g id="text_5">
    <!-- Layer 3 -->
    <g style="fill: #808080" transform="translate(7.2 93.065781) scale(0.08 -0.08)">
     <defs>
      <path id="DejaVuSans-33" d="M 2597 2516 
Q 3050 2419 3304 2112 
Q 3559 1806 3559 1356 
Q 3559 666 3084 287 
Q 2609 -91 1734 -91 
Q 1441 -91 1130 -33 
Q 819 25 488 141 
L 488 750 
Q 750 597 1062 519 
Q 1375 441 1716 441 
Q 2309 441 2620 675 
Q 2931 909 2931 1356 
Q 2931 1769 2642 2001 
Q 2353 2234 1838 2234 
L 1294 2234 
L 1294 2753 
L 1863 2753 
Q 2328 2753 2575 2939 
Q 2822 3125 2822 3475 
Q 2822 3834 2567 4026 
Q 2313 4219 1838 4219 
Q 1578 4219 1281 4162 
Q 984 4106 628 3988 
L 628 4550 
Q 988 4650 1302 4700 
Q 1616 4750 1894 4750 
Q 2613 4750 3031 4423 
Q 3450 4097 3450 3541 
Q 3450 3153 3228 2886 
Q 3006 2619 2597 2516 
z
" transform="scale(0.015625)"/>
     </defs>
     <use xlink:href="#DejaVuSans-4c"/>
     <use xlink:href="#DejaVuSans-61" transform="translate(55.712891 0)"/>
     <use xlink:href="#DejaVuSans-79" transform="translate(116.992188 0)"/>
     <use xlink:href="#DejaVuSans-65" transform="translate(176.171875 0)"/>
     <use xlink:href="#DejaVuSans-72" transform="translate(237.695312 0)"/>
     <use xlink:href="#DejaVuSans-20" transform="translate(278.808594 0)"/>
     <use xlink:href="#DejaVuSans-33" transform="translate(310.595703 0)"/>
    </g>
   </g>
   <g id="patch_13">
    <path d="M 174.030152 212.957477 
Q 256.612168 76.287157 410.894147 104.766158 
" style="fill: none; stroke-dasharray: 9.25,4; stroke-dashoffset: 0; stroke: #d62728; stroke-width: 2.5; stroke-linecap: round"/>
    <path d="M 407.323649 102.073289 
L 410.894147 104.766158 
L 406.597553 106.006835 
" style="fill: none; stroke-dasharray: 9.25,4; stroke-dashoffset: 0; stroke: #d62728; stroke-width: 2.5; stroke-linecap: round"/>
   </g>
   <g id="text_6">
    <g id="patch_14">
     <path d="M 471.761131 164.73 
L 524.429412 164.73 
Q 527.129412 164.73 527.129412 162.03 
L 527.129412 130.515656 
Q 527.129412 127.815656 524.429412 127.815656 
L 471.761131 127.815656 
Q 469.061131 127.815656 469.061131 130.515656 
L 469.061131 162.03 
Q 469.061131 164.73 471.761131 164.73 
z
" style="fill: #ffeeee; stroke: #d62728; stroke-linejoin: miter"/>
    </g>
    <!-- $\varepsilon^{3\!\leftarrow\!1}_{t}$ -->
    <g style="fill: #d62728" transform="translate(488.465272 139.353938) scale(0.09 -0.09)">
     <defs>
      <path id="DejaVuSans-Oblique-3b5" d="M 1263 1888 
Q 925 1963 778 2166 
Q 669 2309 669 2503 
Q 669 3034 1175 3344 
Q 1575 3588 2188 3588 
Q 2425 3588 2684 3550 
Q 2944 3513 3234 3438 
L 3134 2916 
Q 2847 3006 2606 3047 
Q 2359 3088 2138 3088 
Q 1766 3088 1522 2944 
Q 1228 2772 1228 2522 
Q 1228 2356 1381 2241 
Q 1563 2103 1925 2103 
L 2409 2103 
L 2319 1628 
L 1856 1628 
Q 1425 1628 1172 1469 
Q 828 1253 828 916 
Q 828 703 1013 563 
Q 1244 388 1716 388 
Q 2006 388 2284 444 
Q 2563 503 2806 619 
L 2700 84 
Q 2403 -3 2131 -47 
Q 1859 -91 1609 -91 
Q 866 -91 516 194 
Q 250 413 250 781 
Q 250 1278 600 1584 
Q 859 1813 1263 1888 
z
" transform="scale(0.015625)"/>
      <path id="DejaVuSans-2190" d="M 313 1866 
L 313 2147 
L 1541 3375 
L 1916 3000 
L 1188 2272 
L 4997 2272 
L 4997 1741 
L 1188 1741 
L 1916 1013 
L 1541 638 
L 313 1866 
z
" transform="scale(0.015625)"/>
     </defs>
     <use xlink:href="#DejaVuSans-Oblique-3b5" transform="translate(0 0.765625)"/>
     <use xlink:href="#DejaVuSans-33" transform="translate(58.71138 39.046875) scale(0.7)"/>
     <use xlink:href="#DejaVuSans-2190" transform="translate(105.520235 39.046875) scale(0.7)"/>
     <use xlink:href="#DejaVuSans-31" transform="translate(166.445301 39.046875) scale(0.7)"/>
     <use xlink:href="#DejaVuSans-Oblique-74" transform="translate(54.052734 -26.578125) scale(0.7)"/>
    </g>
    <!-- (cross-layer -->
    <g style="fill: #d62728" transform="translate(471.761131 150.08025) scale(0.09 -0.09)">
     <defs>
      <path id="DejaVuSans-28" d="M 1984 4856 
Q 1566 4138 1362 3434 
Q 1159 2731 1159 2009 
Q 1159 1288 1364 580 
Q 1569 -128 1984 -844 
L 1484 -844 
Q 1016 -109 783 600 
Q 550 1309 550 2009 
Q 550 2706 781 3412 
Q 1013 4119 1484 4856 
L 1984 4856 
z
" transform="scale(0.015625)"/>
      <path id="DejaVuSans-63" d="M 3122 3366 
L 3122 2828 
Q 2878 2963 2633 3030 
Q 2388 3097 2138 3097 
Q 1578 3097 1268 2742 
Q 959 2388 959 1747 
Q 959 1106 1268 751 
Q 1578 397 2138 397 
Q 2388 397 2633 464 
Q 2878 531 3122 666 
L 3122 134 
Q 2881 22 2623 -34 
Q 2366 -91 2075 -91 
Q 1284 -91 818 406 
Q 353 903 353 1747 
Q 353 2603 823 3093 
Q 1294 3584 2113 3584 
Q 2378 3584 2631 3529 
Q 2884 3475 3122 3366 
z
" transform="scale(0.015625)"/>
      <path id="DejaVuSans-6f" d="M 1959 3097 
Q 1497 3097 1228 2736 
Q 959 2375 959 1747 
Q 959 1119 1226 758 
Q 1494 397 1959 397 
Q 2419 397 2687 759 
Q 2956 1122 2956 1747 
Q 2956 2369 2687 2733 
Q 2419 3097 1959 3097 
z
M 1959 3584 
Q 2709 3584 3137 3096 
Q 3566 2609 3566 1747 
Q 3566 888 3137 398 
Q 2709 -91 1959 -91 
Q 1206 -91 779 398 
Q 353 888 353 1747 
Q 353 2609 779 3096 
Q 1206 3584 1959 3584 
z
" transform="scale(0.015625)"/>
      <path id="DejaVuSans-73" d="M 2834 3397 
L 2834 2853 
Q 2591 2978 2328 3040 
Q 2066 3103 1784 3103 
Q 1356 3103 1142 2972 
Q 928 2841 928 2578 
Q 928 2378 1081 2264 
Q 1234 2150 1697 2047 
L 1894 2003 
Q 2506 1872 2764 1633 
Q 3022 1394 3022 966 
Q 3022 478 2636 193 
Q 2250 -91 1575 -91 
Q 1294 -91 989 -36 
Q 684 19 347 128 
L 347 722 
Q 666 556 975 473 
Q 1284 391 1588 391 
Q 1994 391 2212 530 
Q 2431 669 2431 922 
Q 2431 1156 2273 1281 
Q 2116 1406 1581 1522 
L 1381 1569 
Q 847 1681 609 1914 
Q 372 2147 372 2553 
Q 372 3047 722 3315 
Q 1072 3584 1716 3584 
Q 2034 3584 2315 3537 
Q 2597 3491 2834 3397 
z
" transform="scale(0.015625)"/>
      <path id="DejaVuSans-2d" d="M 313 2009 
L 1997 2009 
L 1997 1497 
L 313 1497 
L 313 2009 
z
" transform="scale(0.015625)"/>
      <path id="DejaVuSans-6c" d="M 603 4863 
L 1178 4863 
L 1178 0 
L 603 0 
L 603 4863 
z
" transform="scale(0.015625)"/>
     </defs>
     <use xlink:href="#DejaVuSans-28"/>
     <use xlink:href="#DejaVuSans-63" transform="translate(39.013672 0)"/>
     <use xlink:href="#DejaVuSans-72" transform="translate(93.994141 0)"/>
     <use xlink:href="#DejaVuSans-6f" transform="translate(132.857422 0)"/>
     <use xlink:href="#DejaVuSans-73" transform="translate(194.039062 0)"/>
     <use xlink:href="#DejaVuSans-73" transform="translate(246.138672 0)"/>
     <use xlink:href="#DejaVuSans-2d" transform="translate(298.238281 0)"/>
     <use xlink:href="#DejaVuSans-6c" transform="translate(334.322266 0)"/>
     <use xlink:href="#DejaVuSans-61" transform="translate(362.105469 0)"/>
     <use xlink:href="#DejaVuSans-79" transform="translate(423.384766 0)"/>
     <use xlink:href="#DejaVuSans-65" transform="translate(482.564453 0)"/>
     <use xlink:href="#DejaVuSans-72" transform="translate(544.087891 0)"/>
    </g>
    <!-- trace) -->
    <g style="fill: #d62728" transform="translate(484.724647 160.158281) scale(0.09 -0.09)">
     <defs>
      <path id="DejaVuSans-74" d="M 1172 4494 
L 1172 3500 
L 2356 3500 
L 2356 3053 
L 1172 3053 
L 1172 1153 
Q 1172 725 1289 603 
Q 1406 481 1766 481 
L 2356 481 
L 2356 0 
L 1766 0 
Q 1100 0 847 248 
Q 594 497 594 1153 
L 594 3053 
L 172 3053 
L 172 3500 
L 594 3500 
L 594 4494 
L 1172 4494 
z
" transform="scale(0.015625)"/>
      <path id="DejaVuSans-29" d="M 513 4856 
L 1013 4856 
Q 1481 4119 1714 3412 
Q 1947 2706 1947 2009 
Q 1947 1309 1714 600 
Q 1481 -109 1013 -844 
L 513 -844 
Q 928 -128 1133 580 
Q 1338 1288 1338 2009 
Q 1338 2731 1133 3434 
Q 928 4138 513 4856 
z
" transform="scale(0.015625)"/>
     </defs>
     <use xlink:href="#DejaVuSans-74"/>
     <use xlink:href="#DejaVuSans-72" transform="translate(39.208984 0)"/>
     <use xlink:href="#DejaVuSans-61" transform="translate(80.322266 0)"/>
     <use xlink:href="#DejaVuSans-63" transform="translate(141.601562 0)"/>
     <use xlink:href="#DejaVuSans-65" transform="translate(196.582031 0)"/>
     <use xlink:href="#DejaVuSans-29" transform="translate(258.105469 0)"/>
    </g>
   </g>
   <g id="text_7">
    <g id="patch_15">
     <path d="M 215.233098 45.258281 
L 324.853098 45.258281 
Q 327.553098 45.258281 327.553098 42.558281 
L 327.553098 31.848281 
Q 327.553098 29.148281 324.853098 29.148281 
L 215.233098 29.148281 
Q 212.533098 29.148281 212.533098 31.848281 
L 212.533098 42.558281 
Q 212.533098 45.258281 215.233098 45.258281 
z
" style="fill: #ffffe0; stroke: #daa520; stroke-linejoin: miter"/>
    </g>
    <!-- $\varepsilon^{3\leftarrow1}_t = c_3\,\varepsilon^{3\leftarrow1}_{t-1} + J^{32}_t\,\varepsilon^{2\leftarrow1}_t$ -->
    <g style="fill: #222222" transform="translate(215.233098 40.038281) scale(0.09 -0.09)">
     <defs>
      <path id="DejaVuSans-3d" d="M 678 2906 
L 4684 2906 
L 4684 2381 
L 678 2381 
L 678 2906 
z
M 678 1631 
L 4684 1631 
L 4684 1100 
L 678 1100 
L 678 1631 
z
" transform="scale(0.015625)"/>
      <path id="DejaVuSans-Oblique-63" d="M 3431 3366 
L 3316 2797 
Q 3109 2947 2876 3022 
Q 2644 3097 2394 3097 
Q 2119 3097 1870 3000 
Q 1622 2903 1453 2725 
Q 1184 2453 1037 2087 
Q 891 1722 891 1331 
Q 891 859 1127 628 
Q 1363 397 1844 397 
Q 2081 397 2348 469 
Q 2616 541 2906 684 
L 2797 116 
Q 2547 13 2283 -39 
Q 2019 -91 1741 -91 
Q 1044 -91 669 257 
Q 294 606 294 1253 
Q 294 1797 489 2255 
Q 684 2713 1069 3078 
Q 1331 3328 1684 3456 
Q 2038 3584 2456 3584 
Q 2700 3584 2940 3529 
Q 3181 3475 3431 3366 
z
" transform="scale(0.015625)"/>
      <path id="DejaVuSans-2212" d="M 678 2272 
L 4684 2272 
L 4684 1741 
L 678 1741 
L 678 2272 
z
" transform="scale(0.015625)"/>
      <path id="DejaVuSans-2b" d="M 2944 4013 
L 2944 2272 
L 4684 2272 
L 4684 1741 
L 2944 1741 
L 2944 0 
L 2419 0 
L 2419 1741 
L 678 1741 
L 678 2272 
L 2419 2272 
L 2419 4013 
L 2944 4013 
z
" transform="scale(0.015625)"/>
      <path id="DejaVuSans-Oblique-4a" d="M 1069 4666 
L 1703 4666 
L 856 325 
Q 691 -522 298 -901 
Q -94 -1281 -800 -1281 
L -1050 -1281 
L -947 -750 
L -750 -750 
Q -328 -750 -109 -509 
Q 109 -269 225 325 
L 1069 4666 
z
" transform="scale(0.015625)"/>
     </defs>
     <use xlink:href="#DejaVuSans-Oblique-3b5" transform="translate(0 0.765625)"/>
     <use xlink:href="#DejaVuSans-33" transform="translate(58.71138 39.046875) scale(0.7)"/>
     <use xlink:href="#DejaVuSans-2190" transform="translate(116.885208 39.046875) scale(0.7)"/>
     <use xlink:href="#DejaVuSans-31" transform="translate(189.175247 39.046875) scale(0.7)"/>
     <use xlink:href="#DejaVuSans-Oblique-74" transform="translate(54.052734 -26.578125) scale(0.7)"/>
     <use xlink:href="#DejaVuSans-3d" transform="translate(255.928177 0.765625)"/>
     <use xlink:href="#DejaVuSans-Oblique-63" transform="translate(359.199661 0.765625)"/>
     <use xlink:href="#DejaVuSans-33" transform="translate(414.18013 -15.640625) scale(0.7)"/>
     <use xlink:href="#DejaVuSans-Oblique-3b5" transform="translate(477.686314 0.765625)"/>
     <use xlink:href="#DejaVuSans-33" transform="translate(536.397694 39.046875) scale(0.7)"/>
     <use xlink:href="#DejaVuSans-2190" transform="translate(594.571523 39.046875) scale(0.7)"/>
     <use xlink:href="#DejaVuSans-31" transform="translate(666.861562 39.046875) scale(0.7)"/>
     <use xlink:href="#DejaVuSans-Oblique-74" transform="translate(531.739049 -26.578125) scale(0.7)"/>
     <use xlink:href="#DejaVuSans-2212" transform="translate(572.823033 -26.578125) scale(0.7)"/>
     <use xlink:href="#DejaVuSans-31" transform="translate(645.113072 -26.578125) scale(0.7)"/>
     <use xlink:href="#DejaVuSans-2b" transform="translate(733.614491 0.765625)"/>
     <use xlink:href="#DejaVuSans-Oblique-4a" transform="translate(836.885976 0.765625)"/>
     <use xlink:href="#DejaVuSans-33" transform="translate(873.394934 39.046875) scale(0.7)"/>
     <use xlink:href="#DejaVuSans-32" transform="translate(917.931067 39.046875) scale(0.7)"/>
     <use xlink:href="#DejaVuSans-Oblique-74" transform="translate(866.378163 -26.578125) scale(0.7)"/>
     <use xlink:href="#DejaVuSans-Oblique-3b5" transform="translate(981.437251 0.765625)"/>
     <use xlink:href="#DejaVuSans-32" transform="translate(1040.148631 39.046875) scale(0.7)"/>
     <use xlink:href="#DejaVuSans-2190" transform="translate(1098.322459 39.046875) scale(0.7)"/>
     <use xlink:href="#DejaVuSans-31" transform="translate(1170.612498 39.046875) scale(0.7)"/>
     <use xlink:href="#DejaVuSans-Oblique-74" transform="translate(1035.489985 -26.578125) scale(0.7)"/>
    </g>
   </g>
   <g id="text_8">
    <!-- Deep e-prop: cross-layer eligibility trace in a 3-layer network -->
    <g transform="translate(116.788387 15.558281) scale(0.11 -0.11)">
     <defs>
      <path id="DejaVuSans-Bold-44" d="M 1791 3756 
L 1791 909 
L 2222 909 
Q 2959 909 3348 1275 
Q 3738 1641 3738 2338 
Q 3738 3031 3350 3393 
Q 2963 3756 2222 3756 
L 1791 3756 
z
M 588 4666 
L 1856 4666 
Q 2919 4666 3439 4514 
Q 3959 4363 4331 4000 
Q 4659 3684 4818 3271 
Q 4978 2859 4978 2338 
Q 4978 1809 4818 1395 
Q 4659 981 4331 666 
Q 3956 303 3431 151 
Q 2906 0 1856 0 
L 588 0 
L 588 4666 
z
" transform="scale(0.015625)"/>
      <path id="DejaVuSans-Bold-65" d="M 4031 1759 
L 4031 1441 
L 1416 1441 
Q 1456 1047 1700 850 
Q 1944 653 2381 653 
Q 2734 653 3104 758 
Q 3475 863 3866 1075 
L 3866 213 
Q 3469 63 3072 -14 
Q 2675 -91 2278 -91 
Q 1328 -91 801 392 
Q 275 875 275 1747 
Q 275 2603 792 3093 
Q 1309 3584 2216 3584 
Q 3041 3584 3536 3087 
Q 4031 2591 4031 1759 
z
M 2881 2131 
Q 2881 2450 2695 2645 
Q 2509 2841 2209 2841 
Q 1884 2841 1681 2658 
Q 1478 2475 1428 2131 
L 2881 2131 
z
" transform="scale(0.015625)"/>
      <path id="DejaVuSans-Bold-70" d="M 1656 506 
L 1656 -1331 
L 538 -1331 
L 538 3500 
L 1656 3500 
L 1656 2988 
Q 1888 3294 2169 3439 
Q 2450 3584 2816 3584 
Q 3463 3584 3878 3070 
Q 4294 2556 4294 1747 
Q 4294 938 3878 423 
Q 3463 -91 2816 -91 
Q 2450 -91 2169 54 
Q 1888 200 1656 506 
z
M 2400 2772 
Q 2041 2772 1848 2508 
Q 1656 2244 1656 1747 
Q 1656 1250 1848 986 
Q 2041 722 2400 722 
Q 2759 722 2948 984 
Q 3138 1247 3138 1747 
Q 3138 2247 2948 2509 
Q 2759 2772 2400 2772 
z
" transform="scale(0.015625)"/>
      <path id="DejaVuSans-Bold-20" transform="scale(0.015625)"/>
      <path id="DejaVuSans-Bold-2d" d="M 347 2297 
L 2309 2297 
L 2309 1388 
L 347 1388 
L 347 2297 
z
" transform="scale(0.015625)"/>
      <path id="DejaVuSans-Bold-72" d="M 3138 2547 
Q 2991 2616 2845 2648 
Q 2700 2681 2553 2681 
Q 2122 2681 1889 2404 
Q 1656 2128 1656 1613 
L 1656 0 
L 538 0 
L 538 3500 
L 1656 3500 
L 1656 2925 
Q 1872 3269 2151 3426 
Q 2431 3584 2822 3584 
Q 2878 3584 2943 3579 
Q 3009 3575 3134 3559 
L 3138 2547 
z
" transform="scale(0.015625)"/>
      <path id="DejaVuSans-Bold-6f" d="M 2203 2784 
Q 1831 2784 1636 2517 
Q 1441 2250 1441 1747 
Q 1441 1244 1636 976 
Q 1831 709 2203 709 
Q 2569 709 2762 976 
Q 2956 1244 2956 1747 
Q 2956 2250 2762 2517 
Q 2569 2784 2203 2784 
z
M 2203 3584 
Q 3106 3584 3614 3096 
Q 4122 2609 4122 1747 
Q 4122 884 3614 396 
Q 3106 -91 2203 -91 
Q 1297 -91 786 396 
Q 275 884 275 1747 
Q 275 2609 786 3096 
Q 1297 3584 2203 3584 
z
" transform="scale(0.015625)"/>
      <path id="DejaVuSans-Bold-3a" d="M 716 3500 
L 1844 3500 
L 1844 2291 
L 716 2291 
L 716 3500 
z
M 716 1209 
L 1844 1209 
L 1844 0 
L 716 0 
L 716 1209 
z
" transform="scale(0.015625)"/>
      <path id="DejaVuSans-Bold-63" d="M 3366 3391 
L 3366 2478 
Q 3138 2634 2908 2709 
Q 2678 2784 2431 2784 
Q 1963 2784 1702 2511 
Q 1441 2238 1441 1747 
Q 1441 1256 1702 982 
Q 1963 709 2431 709 
Q 2694 709 2930 787 
Q 3166 866 3366 1019 
L 3366 103 
Q 3103 6 2833 -42 
Q 2563 -91 2291 -91 
Q 1344 -91 809 395 
Q 275 881 275 1747 
Q 275 2613 809 3098 
Q 1344 3584 2291 3584 
Q 2566 3584 2833 3536 
Q 3100 3488 3366 3391 
z
" transform="scale(0.015625)"/>
      <path id="DejaVuSans-Bold-73" d="M 3272 3391 
L 3272 2541 
Q 2913 2691 2578 2766 
Q 2244 2841 1947 2841 
Q 1628 2841 1473 2761 
Q 1319 2681 1319 2516 
Q 1319 2381 1436 2309 
Q 1553 2238 1856 2203 
L 2053 2175 
Q 2913 2066 3209 1816 
Q 3506 1566 3506 1031 
Q 3506 472 3093 190 
Q 2681 -91 1863 -91 
Q 1516 -91 1145 -36 
Q 775 19 384 128 
L 384 978 
Q 719 816 1070 734 
Q 1422 653 1784 653 
Q 2113 653 2278 743 
Q 2444 834 2444 1013 
Q 2444 1163 2330 1236 
Q 2216 1309 1875 1350 
L 1678 1375 
Q 931 1469 631 1722 
Q 331 1975 331 2491 
Q 331 3047 712 3315 
Q 1094 3584 1881 3584 
Q 2191 3584 2531 3537 
Q 2872 3491 3272 3391 
z
" transform="scale(0.015625)"/>
      <path id="DejaVuSans-Bold-6c" d="M 538 4863 
L 1656 4863 
L 1656 0 
L 538 0 
L 538 4863 
z
" transform="scale(0.015625)"/>
      <path id="DejaVuSans-Bold-61" d="M 2106 1575 
Q 1756 1575 1579 1456 
Q 1403 1338 1403 1106 
Q 1403 894 1545 773 
Q 1688 653 1941 653 
Q 2256 653 2472 879 
Q 2688 1106 2688 1447 
L 2688 1575 
L 2106 1575 
z
M 3816 1997 
L 3816 0 
L 2688 0 
L 2688 519 
Q 2463 200 2181 54 
Q 1900 -91 1497 -91 
Q 953 -91 614 226 
Q 275 544 275 1050 
Q 275 1666 698 1953 
Q 1122 2241 2028 2241 
L 2688 2241 
L 2688 2328 
Q 2688 2594 2478 2717 
Q 2269 2841 1825 2841 
Q 1466 2841 1156 2769 
Q 847 2697 581 2553 
L 581 3406 
Q 941 3494 1303 3539 
Q 1666 3584 2028 3584 
Q 2975 3584 3395 3211 
Q 3816 2838 3816 1997 
z
" transform="scale(0.015625)"/>
      <path id="DejaVuSans-Bold-79" d="M 78 3500 
L 1197 3500 
L 2138 1125 
L 2938 3500 
L 4056 3500 
L 2584 -331 
Q 2363 -916 2067 -1148 
Q 1772 -1381 1288 -1381 
L 641 -1381 
L 641 -647 
L 991 -647 
Q 1275 -647 1404 -556 
Q 1534 -466 1606 -231 
L 1638 -134 
L 78 3500 
z
" transform="scale(0.015625)"/>
      <path id="DejaVuSans-Bold-69" d="M 538 3500 
L 1656 3500 
L 1656 0 
L 538 0 
L 538 3500 
z
M 538 4863 
L 1656 4863 
L 1656 3950 
L 538 3950 
L 538 4863 
z
" transform="scale(0.015625)"/>
      <path id="DejaVuSans-Bold-67" d="M 2919 594 
Q 2688 288 2409 144 
Q 2131 0 1766 0 
Q 1125 0 706 504 
Q 288 1009 288 1791 
Q 288 2575 706 3076 
Q 1125 3578 1766 3578 
Q 2131 3578 2409 3434 
Q 2688 3291 2919 2981 
L 2919 3500 
L 4044 3500 
L 4044 353 
Q 4044 -491 3511 -936 
Q 2978 -1381 1966 -1381 
Q 1638 -1381 1331 -1331 
Q 1025 -1281 716 -1178 
L 716 -306 
Q 1009 -475 1290 -558 
Q 1572 -641 1856 -641 
Q 2406 -641 2662 -400 
Q 2919 -159 2919 353 
L 2919 594 
z
M 2181 2772 
Q 1834 2772 1640 2515 
Q 1447 2259 1447 1791 
Q 1447 1309 1634 1061 
Q 1822 813 2181 813 
Q 2531 813 2725 1069 
Q 2919 1325 2919 1791 
Q 2919 2259 2725 2515 
Q 2531 2772 2181 2772 
z
" transform="scale(0.015625)"/>
      <path id="DejaVuSans-Bold-62" d="M 2400 722 
Q 2759 722 2948 984 
Q 3138 1247 3138 1747 
Q 3138 2247 2948 2509 
Q 2759 2772 2400 2772 
Q 2041 2772 1848 2508 
Q 1656 2244 1656 1747 
Q 1656 1250 1848 986 
Q 2041 722 2400 722 
z
M 1656 2988 
Q 1888 3294 2169 3439 
Q 2450 3584 2816 3584 
Q 3463 3584 3878 3070 
Q 4294 2556 4294 1747 
Q 4294 938 3878 423 
Q 3463 -91 2816 -91 
Q 2450 -91 2169 54 
Q 1888 200 1656 506 
L 1656 0 
L 538 0 
L 538 4863 
L 1656 4863 
L 1656 2988 
z
" transform="scale(0.015625)"/>
      <path id="DejaVuSans-Bold-74" d="M 1759 4494 
L 1759 3500 
L 2913 3500 
L 2913 2700 
L 1759 2700 
L 1759 1216 
Q 1759 972 1856 886 
Q 1953 800 2241 800 
L 2816 800 
L 2816 0 
L 1856 0 
Q 1194 0 917 276 
Q 641 553 641 1216 
L 641 2700 
L 84 2700 
L 84 3500 
L 641 3500 
L 641 4494 
L 1759 4494 
z
" transform="scale(0.015625)"/>
      <path id="DejaVuSans-Bold-6e" d="M 4056 2131 
L 4056 0 
L 2931 0 
L 2931 347 
L 2931 1631 
Q 2931 2084 2911 2256 
Q 2891 2428 2841 2509 
Q 2775 2619 2662 2680 
Q 2550 2741 2406 2741 
Q 2056 2741 1856 2470 
Q 1656 2200 1656 1722 
L 1656 0 
L 538 0 
L 538 3500 
L 1656 3500 
L 1656 2988 
Q 1909 3294 2193 3439 
Q 2478 3584 2822 3584 
Q 3428 3584 3742 3212 
Q 4056 2841 4056 2131 
z
" transform="scale(0.015625)"/>
      <path id="DejaVuSans-Bold-33" d="M 2981 2516 
Q 3453 2394 3698 2092 
Q 3944 1791 3944 1325 
Q 3944 631 3412 270 
Q 2881 -91 1863 -91 
Q 1503 -91 1142 -33 
Q 781 25 428 141 
L 428 1069 
Q 766 900 1098 814 
Q 1431 728 1753 728 
Q 2231 728 2486 893 
Q 2741 1059 2741 1369 
Q 2741 1688 2480 1852 
Q 2219 2016 1709 2016 
L 1228 2016 
L 1228 2791 
L 1734 2791 
Q 2188 2791 2409 2933 
Q 2631 3075 2631 3366 
Q 2631 3634 2415 3781 
Q 2200 3928 1806 3928 
Q 1516 3928 1219 3862 
Q 922 3797 628 3669 
L 628 4550 
Q 984 4650 1334 4700 
Q 1684 4750 2022 4750 
Q 2931 4750 3382 4451 
Q 3834 4153 3834 3553 
Q 3834 3144 3618 2883 
Q 3403 2622 2981 2516 
z
" transform="scale(0.015625)"/>
      <path id="DejaVuSans-Bold-77" d="M 225 3500 
L 1313 3500 
L 1900 1088 
L 2491 3500 
L 3425 3500 
L 4013 1113 
L 4603 3500 
L 5691 3500 
L 4769 0 
L 3547 0 
L 2956 2406 
L 2369 0 
L 1147 0 
L 225 3500 
z
" transform="scale(0.015625)"/>
      <path id="DejaVuSans-Bold-6b" d="M 538 4863 
L 1656 4863 
L 1656 2216 
L 2944 3500 
L 4244 3500 
L 2534 1894 
L 4378 0 
L 3022 0 
L 1656 1459 
L 1656 0 
L 538 0 
L 538 4863 
z
" transform="scale(0.015625)"/>
     </defs>
     <use xlink:href="#DejaVuSans-Bold-44"/>
     <use xlink:href="#DejaVuSans-Bold-65" transform="translate(83.007812 0)"/>
     <use xlink:href="#DejaVuSans-Bold-65" transform="translate(150.830078 0)"/>
     <use xlink:href="#DejaVuSans-Bold-70" transform="translate(218.652344 0)"/>
     <use xlink:href="#DejaVuSans-Bold-20" transform="translate(290.234375 0)"/>
     <use xlink:href="#DejaVuSans-Bold-65" transform="translate(325.048828 0)"/>
     <use xlink:href="#DejaVuSans-Bold-2d" transform="translate(392.871094 0)"/>
     <use xlink:href="#DejaVuSans-Bold-70" transform="translate(434.375 0)"/>
     <use xlink:href="#DejaVuSans-Bold-72" transform="translate(505.957031 0)"/>
     <use xlink:href="#DejaVuSans-Bold-6f" transform="translate(555.273438 0)"/>
     <use xlink:href="#DejaVuSans-Bold-70" transform="translate(623.974609 0)"/>
     <use xlink:href="#DejaVuSans-Bold-3a" transform="translate(695.556641 0)"/>
     <use xlink:href="#DejaVuSans-Bold-20" transform="translate(735.546875 0)"/>
     <use xlink:href="#DejaVuSans-Bold-63" transform="translate(770.361328 0)"/>
     <use xlink:href="#DejaVuSans-Bold-72" transform="translate(829.638672 0)"/>
     <use xlink:href="#DejaVuSans-Bold-6f" transform="translate(878.955078 0)"/>
     <use xlink:href="#DejaVuSans-Bold-73" transform="translate(947.65625 0)"/>
     <use xlink:href="#DejaVuSans-Bold-73" transform="translate(1007.177734 0)"/>
     <use xlink:href="#DejaVuSans-Bold-2d" transform="translate(1066.699219 0)"/>
     <use xlink:href="#DejaVuSans-Bold-6c" transform="translate(1108.203125 0)"/>
     <use xlink:href="#DejaVuSans-Bold-61" transform="translate(1142.480469 0)"/>
     <use xlink:href="#DejaVuSans-Bold-79" transform="translate(1206.835938 0)"/>
     <use xlink:href="#DejaVuSans-Bold-65" transform="translate(1272.021484 0)"/>
     <use xlink:href="#DejaVuSans-Bold-72" transform="translate(1339.84375 0)"/>
     <use xlink:href="#DejaVuSans-Bold-20" transform="translate(1389.160156 0)"/>
     <use xlink:href="#DejaVuSans-Bold-65" transform="translate(1423.974609 0)"/>
     <use xlink:href="#DejaVuSans-Bold-6c" transform="translate(1491.796875 0)"/>
     <use xlink:href="#DejaVuSans-Bold-69" transform="translate(1526.074219 0)"/>
     <use xlink:href="#DejaVuSans-Bold-67" transform="translate(1560.351562 0)"/>
     <use xlink:href="#DejaVuSans-Bold-69" transform="translate(1631.933594 0)"/>
     <use xlink:href="#DejaVuSans-Bold-62" transform="translate(1666.210938 0)"/>
     <use xlink:href="#DejaVuSans-Bold-69" transform="translate(1737.792969 0)"/>
     <use xlink:href="#DejaVuSans-Bold-6c" transform="translate(1772.070312 0)"/>
     <use xlink:href="#DejaVuSans-Bold-69" transform="translate(1806.347656 0)"/>
     <use xlink:href="#DejaVuSans-Bold-74" transform="translate(1840.625 0)"/>
     <use xlink:href="#DejaVuSans-Bold-79" transform="translate(1888.427734 0)"/>
     <use xlink:href="#DejaVuSans-Bold-20" transform="translate(1953.613281 0)"/>
     <use xlink:href="#DejaVuSans-Bold-74" transform="translate(1988.427734 0)"/>
     <use xlink:href="#DejaVuSans-Bold-72" transform="translate(2036.230469 0)"/>
     <use xlink:href="#DejaVuSans-Bold-61" transform="translate(2085.546875 0)"/>
     <use xlink:href="#DejaVuSans-Bold-63" transform="translate(2153.027344 0)"/>
     <use xlink:href="#DejaVuSans-Bold-65" transform="translate(2212.304688 0)"/>
     <use xlink:href="#DejaVuSans-Bold-20" transform="translate(2280.126953 0)"/>
     <use xlink:href="#DejaVuSans-Bold-69" transform="translate(2314.941406 0)"/>
     <use xlink:href="#DejaVuSans-Bold-6e" transform="translate(2349.21875 0)"/>
     <use xlink:href="#DejaVuSans-Bold-20" transform="translate(2420.410156 0)"/>
     <use xlink:href="#DejaVuSans-Bold-61" transform="translate(2455.224609 0)"/>
     <use xlink:href="#DejaVuSans-Bold-20" transform="translate(2522.705078 0)"/>
     <use xlink:href="#DejaVuSans-Bold-33" transform="translate(2557.519531 0)"/>
     <use xlink:href="#DejaVuSans-Bold-2d" transform="translate(2627.099609 0)"/>
     <use xlink:href="#DejaVuSans-Bold-6c" transform="translate(2668.603516 0)"/>
     <use xlink:href="#DejaVuSans-Bold-61" transform="translate(2702.880859 0)"/>
     <use xlink:href="#DejaVuSans-Bold-79" transform="translate(2767.236328 0)"/>
     <use xlink:href="#DejaVuSans-Bold-65" transform="translate(2832.421875 0)"/>
     <use xlink:href="#DejaVuSans-Bold-72" transform="translate(2900.244141 0)"/>
     <use xlink:href="#DejaVuSans-Bold-20" transform="translate(2949.560547 0)"/>
     <use xlink:href="#DejaVuSans-Bold-6e" transform="translate(2984.375 0)"/>
     <use xlink:href="#DejaVuSans-Bold-65" transform="translate(3055.566406 0)"/>
     <use xlink:href="#DejaVuSans-Bold-74" transform="translate(3123.388672 0)"/>
     <use xlink:href="#DejaVuSans-Bold-77" transform="translate(3171.191406 0)"/>
     <use xlink:href="#DejaVuSans-Bold-6f" transform="translate(3263.574219 0)"/>
     <use xlink:href="#DejaVuSans-Bold-72" transform="translate(3332.275391 0)"/>
     <use xlink:href="#DejaVuSans-Bold-6b" transform="translate(3381.591797 0)"/>
    </g>
   </g>
   <g id="text_9">
    <!-- $h^1_{\!\!t-1}$ -->
    <g transform="translate(92.137011 231.938281) scale(0.08 -0.08)">
     <defs>
      <path id="DejaVuSans-Oblique-68" d="M 3566 2113 
L 3156 0 
L 2578 0 
L 2988 2091 
Q 3016 2238 3031 2350 
Q 3047 2463 3047 2528 
Q 3047 2791 2881 2937 
Q 2716 3084 2419 3084 
Q 1956 3084 1617 2771 
Q 1278 2459 1178 1941 
L 800 0 
L 225 0 
L 1172 4863 
L 1747 4863 
L 1375 2950 
Q 1594 3244 1934 3414 
Q 2275 3584 2650 3584 
Q 3113 3584 3367 3334 
Q 3622 3084 3622 2631 
Q 3622 2519 3608 2391 
Q 3594 2263 3566 2113 
z
" transform="scale(0.015625)"/>
     </defs>
     <use xlink:href="#DejaVuSans-Oblique-68" transform="translate(0 0.684375)"/>
     <use xlink:href="#DejaVuSans-31" transform="translate(70.826615 38.965625) scale(0.7)"/>
     <use xlink:href="#DejaVuSans-Oblique-74" transform="translate(40.648959 -26.659375) scale(0.7)"/>
     <use xlink:href="#DejaVuSans-2212" transform="translate(81.732944 -26.659375) scale(0.7)"/>
     <use xlink:href="#DejaVuSans-31" transform="translate(154.022983 -26.659375) scale(0.7)"/>
    </g>
   </g>
   <g id="text_10">
    <!-- $h^2_{\!\!t-1}$ -->
    <g transform="translate(213.441359 162.678281) scale(0.08 -0.08)">
     <use xlink:href="#DejaVuSans-Oblique-68" transform="translate(0 0.765625)"/>
     <use xlink:href="#DejaVuSans-32" transform="translate(70.826615 39.046875) scale(0.7)"/>
     <use xlink:href="#DejaVuSans-Oblique-74" transform="translate(40.648959 -26.578125) scale(0.7)"/>
     <use xlink:href="#DejaVuSans-2212" transform="translate(81.732944 -26.578125) scale(0.7)"/>
     <use xlink:href="#DejaVuSans-31" transform="translate(154.022983 -26.578125) scale(0.7)"/>
    </g>
   </g>
   <g id="text_11">
    <!-- $h^3_{\!\!t-1}$ -->
    <g transform="translate(334.745707 93.378281) scale(0.08 -0.08)">
     <use xlink:href="#DejaVuSans-Oblique-68" transform="translate(0 0.765625)"/>
     <use xlink:href="#DejaVuSans-33" transform="translate(70.826615 39.046875) scale(0.7)"/>
     <use xlink:href="#DejaVuSans-Oblique-74" transform="translate(40.648959 -26.578125) scale(0.7)"/>
     <use xlink:href="#DejaVuSans-2212" transform="translate(81.732944 -26.578125) scale(0.7)"/>
     <use xlink:href="#DejaVuSans-31" transform="translate(154.022983 -26.578125) scale(0.7)"/>
    </g>
   </g>
   <g id="text_12">
    <!-- $h^1_{\!\!t}$ -->
    <g transform="translate(168.23962 231.938281) scale(0.08 -0.08)">
     <use xlink:href="#DejaVuSans-Oblique-68" transform="translate(0 0.684375)"/>
     <use xlink:href="#DejaVuSans-31" transform="translate(70.826615 38.965625) scale(0.7)"/>
     <use xlink:href="#DejaVuSans-Oblique-74" transform="translate(40.648959 -26.659375) scale(0.7)"/>
    </g>
   </g>
   <g id="text_13">
    <!-- $h^2_{\!\!t}$ -->
    <g transform="translate(289.543967 162.678281) scale(0.08 -0.08)">
     <use xlink:href="#DejaVuSans-Oblique-68" transform="translate(0 0.765625)"/>
     <use xlink:href="#DejaVuSans-32" transform="translate(70.826615 39.046875) scale(0.7)"/>
     <use xlink:href="#DejaVuSans-Oblique-74" transform="translate(40.648959 -26.578125) scale(0.7)"/>
    </g>
   </g>
   <g id="text_14">
    <!-- $h^3_{\!\!t}$ -->
    <g transform="translate(410.848315 93.378281) scale(0.08 -0.08)">
     <use xlink:href="#DejaVuSans-Oblique-68" transform="translate(0 0.765625)"/>
     <use xlink:href="#DejaVuSans-33" transform="translate(70.826615 39.046875) scale(0.7)"/>
     <use xlink:href="#DejaVuSans-Oblique-74" transform="translate(40.648959 -26.578125) scale(0.7)"/>
    </g>
   </g>
  </g>
 </g>
 <defs>
  <clipPath id="pe8873b1f63">
   <rect x="27.434402" y="21.558281" width="558" height="277.2"/>
  </clipPath>
 </defs>
</svg>
