<svg xmlns="http://www.w3.org/2000/svg" width="780" height="610" viewBox="0 0 780 610" font-family="'Helvetica Neue', Helvetica, Arial, sans-serif">
  <defs>
    <marker id="ah" markerWidth="9" markerHeight="9" refX="7.5" refY="3" orient="auto" markerUnits="userSpaceOnUse">
      <path d="M0,0 L8,3 L0,6 Z" fill="#7c7c7c"/>
    </marker>
  </defs>
  <line x1="140" y1="534" x2="140" y2="492" stroke="#7c7c7c" stroke-width="1.6" marker-end="url(#ah)"/>
  <line x1="140" y1="444" x2="140" y2="404" stroke="#7c7c7c" stroke-width="1.6" marker-end="url(#ah)"/>
  <line x1="140" y1="356" x2="140" y2="318" stroke="#7c7c7c" stroke-width="1.6" marker-end="url(#ah)"/>
  <line x1="140" y1="282" x2="140" y2="244" stroke="#7c7c7c" stroke-width="1.6" marker-end="url(#ah)"/>
  <text x="155" y="514.0" font-size="22" fill="#3f3f3f" text-anchor="start" dominant-baseline="central">&#952;</text>
  <line x1="390" y1="534" x2="390" y2="492" stroke="#7c7c7c" stroke-width="1.6" marker-end="url(#ah)"/>
  <line x1="390" y1="444" x2="390" y2="404" stroke="#7c7c7c" stroke-width="1.6" marker-end="url(#ah)"/>
  <line x1="390" y1="356" x2="390" y2="318" stroke="#7c7c7c" stroke-width="1.6" marker-end="url(#ah)"/>
  <line x1="390" y1="282" x2="390" y2="244" stroke="#7c7c7c" stroke-width="1.6" marker-end="url(#ah)"/>
  <text x="405" y="514.0" font-size="22" fill="#3f3f3f" text-anchor="start" dominant-baseline="central">&#952;</text>
  <line x1="640" y1="534" x2="640" y2="492" stroke="#7c7c7c" stroke-width="1.6" marker-end="url(#ah)"/>
  <line x1="640" y1="444" x2="640" y2="404" stroke="#7c7c7c" stroke-width="1.6" marker-end="url(#ah)"/>
  <line x1="640" y1="356" x2="640" y2="318" stroke="#7c7c7c" stroke-width="1.6" marker-end="url(#ah)"/>
  <line x1="640" y1="282" x2="640" y2="244" stroke="#7c7c7c" stroke-width="1.6" marker-end="url(#ah)"/>
  <text x="655" y="514.0" font-size="22" fill="#3f3f3f" text-anchor="start" dominant-baseline="central">&#952;</text>
  <line x1="178" y1="468" x2="350" y2="468" stroke="#7c7c7c" stroke-width="1.6" marker-end="url(#ah)"/>
  <line x1="428" y1="468" x2="600" y2="468" stroke="#7c7c7c" stroke-width="1.6" marker-end="url(#ah)"/>
  <line x1="178" y1="380" x2="350" y2="380" stroke="#7c7c7c" stroke-width="1.6" marker-end="url(#ah)"/>
  <line x1="428" y1="380" x2="600" y2="380" stroke="#7c7c7c" stroke-width="1.6" marker-end="url(#ah)"/>
  <line x1="178" y1="220" x2="350" y2="220" stroke="#7c7c7c" stroke-width="1.6" marker-end="url(#ah)"/>
  <line x1="428" y1="220" x2="600" y2="220" stroke="#7c7c7c" stroke-width="1.6" marker-end="url(#ah)"/>
  <line x1="640" y1="196" x2="640" y2="152" stroke="#7c7c7c" stroke-width="1.6" marker-end="url(#ah)"/>
  <line x1="640" y1="106" x2="640" y2="74" stroke="#7c7c7c" stroke-width="1.6" marker-end="url(#ah)"/>
  <circle cx="140" cy="292" r="2.6" fill="#7c7c7c"/>
  <circle cx="140" cy="300" r="2.6" fill="#7c7c7c"/>
  <circle cx="140" cy="308" r="2.6" fill="#7c7c7c"/>
  <circle cx="390" cy="292" r="2.6" fill="#7c7c7c"/>
  <circle cx="390" cy="300" r="2.6" fill="#7c7c7c"/>
  <circle cx="390" cy="308" r="2.6" fill="#7c7c7c"/>
  <circle cx="640" cy="292" r="2.6" fill="#7c7c7c"/>
  <circle cx="640" cy="300" r="2.6" fill="#7c7c7c"/>
  <circle cx="640" cy="308" r="2.6" fill="#7c7c7c"/>
  <text x="140" y="560" font-size="30" fill="#3f3f3f" text-anchor="middle" dominant-baseline="central">x<tspan dy="-13" font-size="16">(1)</tspan></text>
  <text x="140" y="468" font-size="30" fill="#3f3f3f" text-anchor="middle" dominant-baseline="central">&#8467;<tspan dy="9" font-size="16">1</tspan><tspan dy="-15" font-size="16">(1)</tspan></text>
  <text x="140" y="380" font-size="30" fill="#3f3f3f" text-anchor="middle" dominant-baseline="central">&#8467;<tspan dy="9" font-size="16">2</tspan><tspan dy="-15" font-size="16">(1)</tspan></text>
  <text x="140" y="220" font-size="30" fill="#3f3f3f" text-anchor="middle" dominant-baseline="central">&#8467;<tspan dy="9" font-size="16">L</tspan><tspan dy="-15" font-size="16">(1)</tspan></text>
  <text x="390" y="560" font-size="30" fill="#3f3f3f" text-anchor="middle" dominant-baseline="central">x<tspan dy="-13" font-size="16">(2)</tspan></text>
  <text x="390" y="468" font-size="30" fill="#3f3f3f" text-anchor="middle" dominant-baseline="central">&#8467;<tspan dy="9" font-size="16">1</tspan><tspan dy="-15" font-size="16">(2)</tspan></text>
  <text x="390" y="380" font-size="30" fill="#3f3f3f" text-anchor="middle" dominant-baseline="central">&#8467;<tspan dy="9" font-size="16">2</tspan><tspan dy="-15" font-size="16">(2)</tspan></text>
  <text x="390" y="220" font-size="30" fill="#3f3f3f" text-anchor="middle" dominant-baseline="central">&#8467;<tspan dy="9" font-size="16">L</tspan><tspan dy="-15" font-size="16">(2)</tspan></text>
  <text x="640" y="560" font-size="30" fill="#3f3f3f" text-anchor="middle" dominant-baseline="central">x<tspan dy="-13" font-size="16">(3)</tspan></text>
  <text x="640" y="468" font-size="30" fill="#3f3f3f" text-anchor="middle" dominant-baseline="central">&#8467;<tspan dy="9" font-size="16">1</tspan><tspan dy="-15" font-size="16">(3)</tspan></text>
  <text x="640" y="380" font-size="30" fill="#3f3f3f" text-anchor="middle" dominant-baseline="central">&#8467;<tspan dy="9" font-size="16">2</tspan><tspan dy="-15" font-size="16">(3)</tspan></text>
  <text x="640" y="220" font-size="30" fill="#3f3f3f" text-anchor="middle" dominant-baseline="central">&#8467;<tspan dy="9" font-size="16">L</tspan><tspan dy="-15" font-size="16">(3)</tspan></text>
  <text x="640" y="130" font-size="30" fill="#3f3f3f" text-anchor="middle" dominant-baseline="central">y</text>
  <text x="640" y="50" font-size="30" fill="#3f3f3f" text-anchor="middle" dominant-baseline="central">&#8466;</text>
</svg>
