<?xml version="1.0" encoding="utf-8" standalone="no"?>
<!DOCTYPE svg PUBLIC "-//W3C//DTD SVG 1.1//EN"
  "http://www.w3.org/Graphics/SVG/1.1/DTD/svg11.dtd">
<svg xmlns:xlink="http://www.w3.org/1999/xlink" width="709.603125pt" height="351.714531pt" viewBox="0 0 709.603125 351.714531" xmlns="http://www.w3.org/2000/svg" version="1.1">
 <metadata>
  <rdf:RDF xmlns:dc="http://purl.org/dc/elements/1.1/" xmlns:cc="http://creativecommons.org/ns#" xmlns:rdf="http://www.w3.org/1999/02/22-rdf-syntax-ns#">
   <cc:Work>
    <dc:type rdf:resource="http://purl.org/dc/dcmitype/StillImage"/>
    <dc:date>2026-06-06T00:53:38.337145</dc:date>
    <dc:format>image/svg+xml</dc:format>
    <dc:creator>
     <cc:Agent>
      <dc:title>Matplotlib v3.10.9, https://matplotlib.org/</dc:title>
     </cc:Agent>
    </dc:creator>
   </cc:Work>
  </rdf:RDF>
 </metadata>
 <defs>
  <style type="text/css">*{stroke-linejoin: round; stroke-linecap: butt}</style>
 </defs>
 <g id="figure_1">
  <g id="patch_1">
   <path d="M 0 351.714531 
L 709.603125 351.714531 
L 709.603125 0 
L 0 0 
z
" style="fill: #ffffff"/>
  </g>
  <g id="axes_1">
   <g id="patch_2">
    <path d="M 43.803125 150.386281 
L 702.403125 150.386281 
L 702.403125 21.558281 
L 43.803125 21.558281 
z
" style="fill: #ffffff"/>
   </g>
   <g id="patch_3">
    <path d="M 73.739489 150.386281 
L 110.439059 150.386281 
L 110.439059 87.466623 
L 73.739489 87.466623 
z
" clip-path="url(#p331246736c)" style="fill: #1f77b4; opacity: 0.8"/>
   </g>
   <g id="patch_4">
    <path d="M 178.595403 150.386281 
L 215.294973 150.386281 
L 215.294973 27.692948 
L 178.595403 27.692948 
z
" clip-path="url(#p331246736c)" style="fill: #1f77b4; opacity: 0.8"/>
   </g>
   <g id="patch_5">
    <path d="M 283.451318 150.386281 
L 320.150888 150.386281 
L 320.150888 98.430374 
L 283.451318 98.430374 
z
" clip-path="url(#p331246736c)" style="fill: #1f77b4; opacity: 0.8"/>
   </g>
   <g id="patch_6">
    <path d="M 388.307233 150.386281 
L 425.006803 150.386281 
L 425.006803 53.668778 
L 388.307233 53.668778 
z
" clip-path="url(#p331246736c)" style="fill: #1f77b4; opacity: 0.8"/>
   </g>
   <g id="patch_7">
    <path d="M 493.163147 150.386281 
L 529.862717 150.386281 
L 529.862717 30.121542 
L 493.163147 30.121542 
z
" clip-path="url(#p331246736c)" style="fill: #1f77b4; opacity: 0.8"/>
   </g>
   <g id="patch_8">
    <path d="M 598.019062 150.386281 
L 634.718632 150.386281 
L 634.718632 68.777839 
L 598.019062 68.777839 
z
" clip-path="url(#p331246736c)" style="fill: #1f77b4; opacity: 0.8"/>
   </g>
   <g id="patch_9">
    <path d="M 111.487618 150.386281 
L 148.187188 150.386281 
L 148.187188 87.466623 
L 111.487618 87.466623 
z
" clip-path="url(#p331246736c)" style="fill: #ff7f0e; opacity: 0.8"/>
   </g>
   <g id="patch_10">
    <path d="M 216.343533 150.386281 
L 253.043103 150.386281 
L 253.043103 32.411922 
L 216.343533 32.411922 
z
" clip-path="url(#p331246736c)" style="fill: #ff7f0e; opacity: 0.8"/>
   </g>
   <g id="patch_11">
    <path d="M 321.199447 150.386281 
L 357.899017 150.386281 
L 357.899017 114.993974 
L 321.199447 114.993974 
z
" clip-path="url(#p331246736c)" style="fill: #ff7f0e; opacity: 0.8"/>
   </g>
   <g id="patch_12">
    <path d="M 426.055362 150.386281 
L 462.754932 150.386281 
L 462.754932 56.006794 
L 426.055362 56.006794 
z
" clip-path="url(#p331246736c)" style="fill: #ff7f0e; opacity: 0.8"/>
   </g>
   <g id="patch_13">
    <path d="M 530.911277 150.386281 
L 567.610847 150.386281 
L 567.610847 40.27688 
L 530.911277 40.27688 
z
" clip-path="url(#p331246736c)" style="fill: #ff7f0e; opacity: 0.8"/>
   </g>
   <g id="patch_14">
    <path d="M 635.767191 150.386281 
L 672.466761 150.386281 
L 672.466761 79.601666 
L 635.767191 79.601666 
z
" clip-path="url(#p331246736c)" style="fill: #ff7f0e; opacity: 0.8"/>
   </g>
   <g id="matplotlib.axis_1">
    <g id="xtick_1">
     <g id="line2d_1">
      <defs>
       <path id="m50d5e85cc3" d="M 0 0 
L 0 3.5 
" style="stroke: #000000; stroke-width: 0.8"/>
      </defs>
      <g>
       <use xlink:href="#m50d5e85cc3" x="110.963338" y="150.386281" style="stroke: #000000; stroke-width: 0.8"/>
      </g>
     </g>
    </g>
    <g id="xtick_2">
     <g id="line2d_2">
      <g>
       <use xlink:href="#m50d5e85cc3" x="215.819253" y="150.386281" style="stroke: #000000; stroke-width: 0.8"/>
      </g>
     </g>
    </g>
    <g id="xtick_3">
     <g id="line2d_3">
      <g>
       <use xlink:href="#m50d5e85cc3" x="320.675168" y="150.386281" style="stroke: #000000; stroke-width: 0.8"/>
      </g>
     </g>
    </g>
    <g id="xtick_4">
     <g id="line2d_4">
      <g>
       <use xlink:href="#m50d5e85cc3" x="425.531082" y="150.386281" style="stroke: #000000; stroke-width: 0.8"/>
      </g>
     </g>
    </g>
    <g id="xtick_5">
     <g id="line2d_5">
      <g>
       <use xlink:href="#m50d5e85cc3" x="530.386997" y="150.386281" style="stroke: #000000; stroke-width: 0.8"/>
      </g>
     </g>
    </g>
    <g id="xtick_6">
     <g id="line2d_6">
      <g>
       <use xlink:href="#m50d5e85cc3" x="635.242912" y="150.386281" style="stroke: #000000; stroke-width: 0.8"/>
      </g>
     </g>
    </g>
   </g>
   <g id="matplotlib.axis_2">
    <g id="ytick_1">
     <g id="line2d_7">
      <defs>
       <path id="md523f0d808" d="M 0 0 
L -3.5 0 
" style="stroke: #000000; stroke-width: 0.8"/>
      </defs>
      <g>
       <use xlink:href="#md523f0d808" x="43.803125" y="150.386281" style="stroke: #000000; stroke-width: 0.8"/>
      </g>
     </g>
     <g id="text_1">
      <!-- 0.0 -->
      <g transform="translate(20.9 154.1855) scale(0.1 -0.1)">
       <defs>
        <path id="DejaVuSans-30" d="M 2034 4250 
Q 1547 4250 1301 3770 
Q 1056 3291 1056 2328 
Q 1056 1369 1301 889 
Q 1547 409 2034 409 
Q 2525 409 2770 889 
Q 3016 1369 3016 2328 
Q 3016 3291 2770 3770 
Q 2525 4250 2034 4250 
z
M 2034 4750 
Q 2819 4750 3233 4129 
Q 3647 3509 3647 2328 
Q 3647 1150 3233 529 
Q 2819 -91 2034 -91 
Q 1250 -91 836 529 
Q 422 1150 422 2328 
Q 422 3509 836 4129 
Q 1250 4750 2034 4750 
z
" transform="scale(0.015625)"/>
        <path id="DejaVuSans-2e" d="M 684 794 
L 1344 794 
L 1344 0 
L 684 0 
L 684 794 
z
" transform="scale(0.015625)"/>
       </defs>
       <use xlink:href="#DejaVuSans-30"/>
       <use xlink:href="#DejaVuSans-2e" transform="translate(63.623047 0)"/>
       <use xlink:href="#DejaVuSans-30" transform="translate(95.410156 0)"/>
      </g>
     </g>
    </g>
    <g id="ytick_2">
     <g id="line2d_8">
      <g>
       <use xlink:href="#md523f0d808" x="43.803125" y="111.061495" style="stroke: #000000; stroke-width: 0.8"/>
      </g>
     </g>
     <g id="text_2">
      <!-- 0.1 -->
      <g transform="translate(20.9 114.860714) scale(0.1 -0.1)">
       <defs>
        <path id="DejaVuSans-31" d="M 794 531 
L 1825 531 
L 1825 4091 
L 703 3866 
L 703 4441 
L 1819 4666 
L 2450 4666 
L 2450 531 
L 3481 531 
L 3481 0 
L 794 0 
L 794 531 
z
" transform="scale(0.015625)"/>
       </defs>
       <use xlink:href="#DejaVuSans-30"/>
       <use xlink:href="#DejaVuSans-2e" transform="translate(63.623047 0)"/>
       <use xlink:href="#DejaVuSans-31" transform="translate(95.410156 0)"/>
      </g>
     </g>
    </g>
    <g id="ytick_3">
     <g id="line2d_9">
      <g>
       <use xlink:href="#md523f0d808" x="43.803125" y="71.736709" style="stroke: #000000; stroke-width: 0.8"/>
      </g>
     </g>
     <g id="text_3">
      <!-- 0.2 -->
      <g transform="translate(20.9 75.535927) scale(0.1 -0.1)">
       <defs>
        <path id="DejaVuSans-32" d="M 1228 531 
L 3431 531 
L 3431 0 
L 469 0 
L 469 531 
Q 828 903 1448 1529 
Q 2069 2156 2228 2338 
Q 2531 2678 2651 2914 
Q 2772 3150 2772 3378 
Q 2772 3750 2511 3984 
Q 2250 4219 1831 4219 
Q 1534 4219 1204 4116 
Q 875 4013 500 3803 
L 500 4441 
Q 881 4594 1212 4672 
Q 1544 4750 1819 4750 
Q 2544 4750 2975 4387 
Q 3406 4025 3406 3419 
Q 3406 3131 3298 2873 
Q 3191 2616 2906 2266 
Q 2828 2175 2409 1742 
Q 1991 1309 1228 531 
z
" transform="scale(0.015625)"/>
       </defs>
       <use xlink:href="#DejaVuSans-30"/>
       <use xlink:href="#DejaVuSans-2e" transform="translate(63.623047 0)"/>
       <use xlink:href="#DejaVuSans-32" transform="translate(95.410156 0)"/>
      </g>
     </g>
    </g>
    <g id="ytick_4">
     <g id="line2d_10">
      <g>
       <use xlink:href="#md523f0d808" x="43.803125" y="32.411922" style="stroke: #000000; stroke-width: 0.8"/>
      </g>
     </g>
     <g id="text_4">
      <!-- 0.3 -->
      <g transform="translate(20.9 36.211141) scale(0.1 -0.1)">
       <defs>
        <path id="DejaVuSans-33" d="M 2597 2516 
Q 3050 2419 3304 2112 
Q 3559 1806 3559 1356 
Q 3559 666 3084 287 
Q 2609 -91 1734 -91 
Q 1441 -91 1130 -33 
Q 819 25 488 141 
L 488 750 
Q 750 597 1062 519 
Q 1375 441 1716 441 
Q 2309 441 2620 675 
Q 2931 909 2931 1356 
Q 2931 1769 2642 2001 
Q 2353 2234 1838 2234 
L 1294 2234 
L 1294 2753 
L 1863 2753 
Q 2328 2753 2575 2939 
Q 2822 3125 2822 3475 
Q 2822 3834 2567 4026 
Q 2313 4219 1838 4219 
Q 1578 4219 1281 4162 
Q 984 4106 628 3988 
L 628 4550 
Q 988 4650 1302 4700 
Q 1616 4750 1894 4750 
Q 2613 4750 3031 4423 
Q 3450 4097 3450 3541 
Q 3450 3153 3228 2886 
Q 3006 2619 2597 2516 
z
" transform="scale(0.015625)"/>
       </defs>
       <use xlink:href="#DejaVuSans-30"/>
       <use xlink:href="#DejaVuSans-2e" transform="translate(63.623047 0)"/>
       <use xlink:href="#DejaVuSans-33" transform="translate(95.410156 0)"/>
      </g>
     </g>
    </g>
    <g id="text_5">
     <!-- $\varepsilon_t[i,j]$ -->
     <g transform="translate(14.8 99.472281) rotate(-90) scale(0.1 -0.1)">
      <defs>
       <path id="DejaVuSans-Oblique-3b5" d="M 1263 1888 
Q 925 1963 778 2166 
Q 669 2309 669 2503 
Q 669 3034 1175 3344 
Q 1575 3588 2188 3588 
Q 2425 3588 2684 3550 
Q 2944 3513 3234 3438 
L 3134 2916 
Q 2847 3006 2606 3047 
Q 2359 3088 2138 3088 
Q 1766 3088 1522 2944 
Q 1228 2772 1228 2522 
Q 1228 2356 1381 2241 
Q 1563 2103 1925 2103 
L 2409 2103 
L 2319 1628 
L 1856 1628 
Q 1425 1628 1172 1469 
Q 828 1253 828 916 
Q 828 703 1013 563 
Q 1244 388 1716 388 
Q 2006 388 2284 444 
Q 2563 503 2806 619 
L 2700 84 
Q 2403 -3 2131 -47 
Q 1859 -91 1609 -91 
Q 866 -91 516 194 
Q 250 413 250 781 
Q 250 1278 600 1584 
Q 859 1813 1263 1888 
z
" transform="scale(0.015625)"/>
       <path id="DejaVuSans-Oblique-74" d="M 2706 3500 
L 2619 3053 
L 1472 3053 
L 1100 1153 
Q 1081 1047 1072 975 
Q 1063 903 1063 863 
Q 1063 663 1183 572 
Q 1303 481 1569 481 
L 2150 481 
L 2053 0 
L 1503 0 
Q 991 0 739 200 
Q 488 400 488 806 
Q 488 878 497 964 
Q 506 1050 525 1153 
L 897 3053 
L 409 3053 
L 500 3500 
L 978 3500 
L 1172 4494 
L 1747 4494 
L 1556 3500 
L 2706 3500 
z
" transform="scale(0.015625)"/>
       <path id="DejaVuSans-5b" d="M 550 4863 
L 1875 4863 
L 1875 4416 
L 1125 4416 
L 1125 -397 
L 1875 -397 
L 1875 -844 
L 550 -844 
L 550 4863 
z
" transform="scale(0.015625)"/>
       <path id="DejaVuSans-Oblique-69" d="M 1172 4863 
L 1747 4863 
L 1606 4134 
L 1031 4134 
L 1172 4863 
z
M 909 3500 
L 1484 3500 
L 800 0 
L 225 0 
L 909 3500 
z
" transform="scale(0.015625)"/>
       <path id="DejaVuSans-2c" d="M 750 794 
L 1409 794 
L 1409 256 
L 897 -744 
L 494 -744 
L 750 256 
L 750 794 
z
" transform="scale(0.015625)"/>
       <path id="DejaVuSans-Oblique-6a" d="M 928 3500 
L 1503 3500 
L 813 -63 
L 809 -78 
Q 694 -675 544 -897 
Q 403 -1106 132 -1218 
Q -138 -1331 -506 -1331 
L -722 -1331 
L -628 -844 
L -481 -844 
Q -144 -844 -1 -703 
Q 141 -563 238 -63 
L 928 3500 
z
M 1197 4863 
L 1772 4863 
L 1631 4134 
L 1056 4134 
L 1197 4863 
z
" transform="scale(0.015625)"/>
       <path id="DejaVuSans-5d" d="M 1947 4863 
L 1947 -844 
L 622 -844 
L 622 -397 
L 1369 -397 
L 1369 4416 
L 622 4416 
L 622 4863 
L 1947 4863 
z
" transform="scale(0.015625)"/>
      </defs>
      <use xlink:href="#DejaVuSans-Oblique-3b5" transform="translate(0 0.015625)"/>
      <use xlink:href="#DejaVuSans-Oblique-74" transform="translate(54.052734 -16.390625) scale(0.7)"/>
      <use xlink:href="#DejaVuSans-5b" transform="translate(84.233398 0.015625)"/>
      <use xlink:href="#DejaVuSans-Oblique-69" transform="translate(123.24707 0.015625)"/>
      <use xlink:href="#DejaVuSans-2c" transform="translate(151.030273 0.015625)"/>
      <use xlink:href="#DejaVuSans-Oblique-6a" transform="translate(202.299805 0.015625)"/>
      <use xlink:href="#DejaVuSans-5d" transform="translate(230.083008 0.015625)"/>
     </g>
    </g>
   </g>
   <g id="line2d_11">
    <path d="M 43.803125 150.386281 
L 702.403125 150.386281 
" clip-path="url(#p331246736c)" style="fill: none; stroke: #808080; stroke-width: 0.5; stroke-linecap: square"/>
   </g>
   <g id="patch_15">
    <path d="M 43.803125 150.386281 
L 43.803125 21.558281 
" style="fill: none; stroke: #000000; stroke-width: 0.8; stroke-linejoin: miter; stroke-linecap: square"/>
   </g>
   <g id="patch_16">
    <path d="M 702.403125 150.386281 
L 702.403125 21.558281 
" style="fill: none; stroke: #000000; stroke-width: 0.8; stroke-linejoin: miter; stroke-linecap: square"/>
   </g>
   <g id="patch_17">
    <path d="M 43.803125 150.386281 
L 702.403125 150.386281 
" style="fill: none; stroke: #000000; stroke-width: 0.8; stroke-linejoin: miter; stroke-linecap: square"/>
   </g>
   <g id="patch_18">
    <path d="M 43.803125 21.558281 
L 702.403125 21.558281 
" style="fill: none; stroke: #000000; stroke-width: 0.8; stroke-linejoin: miter; stroke-linecap: square"/>
   </g>
   <g id="text_6">
    <g id="patch_19">
     <path d="M 269.089844 36.43624 
L 477.116406 36.43624 
Q 479.816406 36.43624 479.816406 33.73624 
L 479.816406 14.909927 
Q 479.816406 12.209927 477.116406 12.209927 
L 269.089844 12.209927 
Q 266.389844 12.209927 266.389844 14.909927 
L 266.389844 33.73624 
Q 266.389844 36.43624 269.089844 36.43624 
z
" style="fill: #ffffe0; stroke: #daa520; stroke-linejoin: miter"/>
    </g>
    <!-- $\varepsilon_t[i,j] = \psi_t[i]\,h_{t-1}[j] + \psi_t[i]\,W_{rec}[i,i]\,\varepsilon_{t-1}[i,j]$ -->
    <g transform="translate(278.873125 21.768209) scale(0.09 -0.09)">
     <defs>
      <path id="DejaVuSans-3d" d="M 678 2906 
L 4684 2906 
L 4684 2381 
L 678 2381 
L 678 2906 
z
M 678 1631 
L 4684 1631 
L 4684 1100 
L 678 1100 
L 678 1631 
z
" transform="scale(0.015625)"/>
      <path id="DejaVuSans-Oblique-3c8" d="M 1591 -78 
Q 891 38 616 341 
Q 278 713 425 1472 
L 819 3500 
L 1400 3500 
L 1009 1494 
Q 900 922 1119 684 
Q 1313 478 1691 434 
L 2284 3500 
L 2856 3500 
L 2263 438 
Q 2681 481 2928 688 
Q 3247 950 3353 1497 
L 3741 3500 
L 4322 3500 
L 3928 1475 
Q 3775 688 3300 344 
Q 2872 34 2163 -75 
L 1919 -1331 
L 1347 -1331 
L 1591 -78 
z
" transform="scale(0.015625)"/>
      <path id="DejaVuSans-Oblique-68" d="M 3566 2113 
L 3156 0 
L 2578 0 
L 2988 2091 
Q 3016 2238 3031 2350 
Q 3047 2463 3047 2528 
Q 3047 2791 2881 2937 
Q 2716 3084 2419 3084 
Q 1956 3084 1617 2771 
Q 1278 2459 1178 1941 
L 800 0 
L 225 0 
L 1172 4863 
L 1747 4863 
L 1375 2950 
Q 1594 3244 1934 3414 
Q 2275 3584 2650 3584 
Q 3113 3584 3367 3334 
Q 3622 3084 3622 2631 
Q 3622 2519 3608 2391 
Q 3594 2263 3566 2113 
z
" transform="scale(0.015625)"/>
      <path id="DejaVuSans-2212" d="M 678 2272 
L 4684 2272 
L 4684 1741 
L 678 1741 
L 678 2272 
z
" transform="scale(0.015625)"/>
      <path id="DejaVuSans-2b" d="M 2944 4013 
L 2944 2272 
L 4684 2272 
L 4684 1741 
L 2944 1741 
L 2944 0 
L 2419 0 
L 2419 1741 
L 678 1741 
L 678 2272 
L 2419 2272 
L 2419 4013 
L 2944 4013 
z
" transform="scale(0.015625)"/>
      <path id="DejaVuSans-Oblique-57" d="M 616 4666 
L 1228 4666 
L 1453 697 
L 3213 4666 
L 3916 4666 
L 4147 697 
L 5888 4666 
L 6528 4666 
L 4453 0 
L 3659 0 
L 3444 3891 
L 1697 0 
L 903 0 
L 616 4666 
z
" transform="scale(0.015625)"/>
      <path id="DejaVuSans-Oblique-72" d="M 2853 2969 
Q 2766 3016 2653 3041 
Q 2541 3066 2413 3066 
Q 1953 3066 1609 2717 
Q 1266 2369 1153 1784 
L 800 0 
L 225 0 
L 909 3500 
L 1484 3500 
L 1375 2956 
Q 1603 3259 1920 3421 
Q 2238 3584 2597 3584 
Q 2691 3584 2781 3573 
Q 2872 3563 2963 3538 
L 2853 2969 
z
" transform="scale(0.015625)"/>
      <path id="DejaVuSans-Oblique-65" d="M 3078 2063 
Q 3088 2113 3092 2166 
Q 3097 2219 3097 2272 
Q 3097 2653 2873 2875 
Q 2650 3097 2266 3097 
Q 1838 3097 1509 2826 
Q 1181 2556 1013 2059 
L 3078 2063 
z
M 3578 1613 
L 903 1613 
Q 884 1494 878 1425 
Q 872 1356 872 1306 
Q 872 872 1139 634 
Q 1406 397 1894 397 
Q 2269 397 2603 481 
Q 2938 566 3225 728 
L 3116 159 
Q 2806 34 2476 -28 
Q 2147 -91 1806 -91 
Q 1078 -91 686 257 
Q 294 606 294 1247 
Q 294 1794 489 2264 
Q 684 2734 1063 3103 
Q 1306 3334 1642 3459 
Q 1978 3584 2356 3584 
Q 2950 3584 3301 3228 
Q 3653 2872 3653 2272 
Q 3653 2128 3634 1964 
Q 3616 1800 3578 1613 
z
" transform="scale(0.015625)"/>
      <path id="DejaVuSans-Oblique-63" d="M 3431 3366 
L 3316 2797 
Q 3109 2947 2876 3022 
Q 2644 3097 2394 3097 
Q 2119 3097 1870 3000 
Q 1622 2903 1453 2725 
Q 1184 2453 1037 2087 
Q 891 1722 891 1331 
Q 891 859 1127 628 
Q 1363 397 1844 397 
Q 2081 397 2348 469 
Q 2616 541 2906 684 
L 2797 116 
Q 2547 13 2283 -39 
Q 2019 -91 1741 -91 
Q 1044 -91 669 257 
Q 294 606 294 1253 
Q 294 1797 489 2255 
Q 684 2713 1069 3078 
Q 1331 3328 1684 3456 
Q 2038 3584 2456 3584 
Q 2700 3584 2940 3529 
Q 3181 3475 3431 3366 
z
" transform="scale(0.015625)"/>
     </defs>
     <use xlink:href="#DejaVuSans-Oblique-3b5" transform="translate(0 0.015625)"/>
     <use xlink:href="#DejaVuSans-Oblique-74" transform="translate(54.052734 -16.390625) scale(0.7)"/>
     <use xlink:href="#DejaVuSans-5b" transform="translate(84.233398 0.015625)"/>
     <use xlink:href="#DejaVuSans-Oblique-69" transform="translate(123.24707 0.015625)"/>
     <use xlink:href="#DejaVuSans-2c" transform="translate(151.030273 0.015625)"/>
     <use xlink:href="#DejaVuSans-Oblique-6a" transform="translate(202.299805 0.015625)"/>
     <use xlink:href="#DejaVuSans-5d" transform="translate(230.083008 0.015625)"/>
     <use xlink:href="#DejaVuSans-3d" transform="translate(288.579102 0.015625)"/>
     <use xlink:href="#DejaVuSans-Oblique-3c8" transform="translate(391.850586 0.015625)"/>
     <use xlink:href="#DejaVuSans-Oblique-74" transform="translate(457.817383 -16.390625) scale(0.7)"/>
     <use xlink:href="#DejaVuSans-5b" transform="translate(487.998047 0.015625)"/>
     <use xlink:href="#DejaVuSans-Oblique-69" transform="translate(527.011719 0.015625)"/>
     <use xlink:href="#DejaVuSans-5d" transform="translate(554.794922 0.015625)"/>
     <use xlink:href="#DejaVuSans-Oblique-68" transform="translate(610.04427 0.015625)"/>
     <use xlink:href="#DejaVuSans-Oblique-74" transform="translate(673.423176 -16.390625) scale(0.7)"/>
     <use xlink:href="#DejaVuSans-2212" transform="translate(714.507161 -16.390625) scale(0.7)"/>
     <use xlink:href="#DejaVuSans-31" transform="translate(786.7972 -16.390625) scale(0.7)"/>
     <use xlink:href="#DejaVuSans-5b" transform="translate(834.067708 0.015625)"/>
     <use xlink:href="#DejaVuSans-Oblique-6a" transform="translate(873.081379 0.015625)"/>
     <use xlink:href="#DejaVuSans-5d" transform="translate(900.864583 0.015625)"/>
     <use xlink:href="#DejaVuSans-2b" transform="translate(959.360676 0.015625)"/>
     <use xlink:href="#DejaVuSans-Oblique-3c8" transform="translate(1062.632161 0.015625)"/>
     <use xlink:href="#DejaVuSans-Oblique-74" transform="translate(1128.598958 -16.390625) scale(0.7)"/>
     <use xlink:href="#DejaVuSans-5b" transform="translate(1158.779622 0.015625)"/>
     <use xlink:href="#DejaVuSans-Oblique-69" transform="translate(1197.793293 0.015625)"/>
     <use xlink:href="#DejaVuSans-5d" transform="translate(1225.576497 0.015625)"/>
     <use xlink:href="#DejaVuSans-Oblique-57" transform="translate(1280.825845 0.015625)"/>
     <use xlink:href="#DejaVuSans-Oblique-72" transform="translate(1379.702798 -16.390625) scale(0.7)"/>
     <use xlink:href="#DejaVuSans-Oblique-65" transform="translate(1408.482095 -16.390625) scale(0.7)"/>
     <use xlink:href="#DejaVuSans-Oblique-63" transform="translate(1451.548501 -16.390625) scale(0.7)"/>
     <use xlink:href="#DejaVuSans-5b" transform="translate(1492.769204 0.015625)"/>
     <use xlink:href="#DejaVuSans-Oblique-69" transform="translate(1531.782876 0.015625)"/>
     <use xlink:href="#DejaVuSans-2c" transform="translate(1559.566079 0.015625)"/>
     <use xlink:href="#DejaVuSans-Oblique-69" transform="translate(1610.83561 0.015625)"/>
     <use xlink:href="#DejaVuSans-5d" transform="translate(1638.618813 0.015625)"/>
     <use xlink:href="#DejaVuSans-Oblique-3b5" transform="translate(1693.868162 0.015625)"/>
     <use xlink:href="#DejaVuSans-Oblique-74" transform="translate(1747.920896 -16.390625) scale(0.7)"/>
     <use xlink:href="#DejaVuSans-2212" transform="translate(1789.00488 -16.390625) scale(0.7)"/>
     <use xlink:href="#DejaVuSans-31" transform="translate(1861.294919 -16.390625) scale(0.7)"/>
     <use xlink:href="#DejaVuSans-5b" transform="translate(1908.565427 0.015625)"/>
     <use xlink:href="#DejaVuSans-Oblique-69" transform="translate(1947.579099 0.015625)"/>
     <use xlink:href="#DejaVuSans-2c" transform="translate(1975.362302 0.015625)"/>
     <use xlink:href="#DejaVuSans-Oblique-6a" transform="translate(2026.631833 0.015625)"/>
     <use xlink:href="#DejaVuSans-5d" transform="translate(2054.415037 0.015625)"/>
    </g>
    <!-- (carry factor = diagonal of recurrent Jacobian) -->
    <g transform="translate(269.089844 31.864521) scale(0.09 -0.09)">
     <defs>
      <path id="DejaVuSans-28" d="M 1984 4856 
Q 1566 4138 1362 3434 
Q 1159 2731 1159 2009 
Q 1159 1288 1364 580 
Q 1569 -128 1984 -844 
L 1484 -844 
Q 1016 -109 783 600 
Q 550 1309 550 2009 
Q 550 2706 781 3412 
Q 1013 4119 1484 4856 
L 1984 4856 
z
" transform="scale(0.015625)"/>
      <path id="DejaVuSans-63" d="M 3122 3366 
L 3122 2828 
Q 2878 2963 2633 3030 
Q 2388 3097 2138 3097 
Q 1578 3097 1268 2742 
Q 959 2388 959 1747 
Q 959 1106 1268 751 
Q 1578 397 2138 397 
Q 2388 397 2633 464 
Q 2878 531 3122 666 
L 3122 134 
Q 2881 22 2623 -34 
Q 2366 -91 2075 -91 
Q 1284 -91 818 406 
Q 353 903 353 1747 
Q 353 2603 823 3093 
Q 1294 3584 2113 3584 
Q 2378 3584 2631 3529 
Q 2884 3475 3122 3366 
z
" transform="scale(0.015625)"/>
      <path id="DejaVuSans-61" d="M 2194 1759 
Q 1497 1759 1228 1600 
Q 959 1441 959 1056 
Q 959 750 1161 570 
Q 1363 391 1709 391 
Q 2188 391 2477 730 
Q 2766 1069 2766 1631 
L 2766 1759 
L 2194 1759 
z
M 3341 1997 
L 3341 0 
L 2766 0 
L 2766 531 
Q 2569 213 2275 61 
Q 1981 -91 1556 -91 
Q 1019 -91 701 211 
Q 384 513 384 1019 
Q 384 1609 779 1909 
Q 1175 2209 1959 2209 
L 2766 2209 
L 2766 2266 
Q 2766 2663 2505 2880 
Q 2244 3097 1772 3097 
Q 1472 3097 1187 3025 
Q 903 2953 641 2809 
L 641 3341 
Q 956 3463 1253 3523 
Q 1550 3584 1831 3584 
Q 2591 3584 2966 3190 
Q 3341 2797 3341 1997 
z
" transform="scale(0.015625)"/>
      <path id="DejaVuSans-72" d="M 2631 2963 
Q 2534 3019 2420 3045 
Q 2306 3072 2169 3072 
Q 1681 3072 1420 2755 
Q 1159 2438 1159 1844 
L 1159 0 
L 581 0 
L 581 3500 
L 1159 3500 
L 1159 2956 
Q 1341 3275 1631 3429 
Q 1922 3584 2338 3584 
Q 2397 3584 2469 3576 
Q 2541 3569 2628 3553 
L 2631 2963 
z
" transform="scale(0.015625)"/>
      <path id="DejaVuSans-79" d="M 2059 -325 
Q 1816 -950 1584 -1140 
Q 1353 -1331 966 -1331 
L 506 -1331 
L 506 -850 
L 844 -850 
Q 1081 -850 1212 -737 
Q 1344 -625 1503 -206 
L 1606 56 
L 191 3500 
L 800 3500 
L 1894 763 
L 2988 3500 
L 3597 3500 
L 2059 -325 
z
" transform="scale(0.015625)"/>
      <path id="DejaVuSans-20" transform="scale(0.015625)"/>
      <path id="DejaVuSans-66" d="M 2375 4863 
L 2375 4384 
L 1825 4384 
Q 1516 4384 1395 4259 
Q 1275 4134 1275 3809 
L 1275 3500 
L 2222 3500 
L 2222 3053 
L 1275 3053 
L 1275 0 
L 697 0 
L 697 3053 
L 147 3053 
L 147 3500 
L 697 3500 
L 697 3744 
Q 697 4328 969 4595 
Q 1241 4863 1831 4863 
L 2375 4863 
z
" transform="scale(0.015625)"/>
      <path id="DejaVuSans-74" d="M 1172 4494 
L 1172 3500 
L 2356 3500 
L 2356 3053 
L 1172 3053 
L 1172 1153 
Q 1172 725 1289 603 
Q 1406 481 1766 481 
L 2356 481 
L 2356 0 
L 1766 0 
Q 1100 0 847 248 
Q 594 497 594 1153 
L 594 3053 
L 172 3053 
L 172 3500 
L 594 3500 
L 594 4494 
L 1172 4494 
z
" transform="scale(0.015625)"/>
      <path id="DejaVuSans-6f" d="M 1959 3097 
Q 1497 3097 1228 2736 
Q 959 2375 959 1747 
Q 959 1119 1226 758 
Q 1494 397 1959 397 
Q 2419 397 2687 759 
Q 2956 1122 2956 1747 
Q 2956 2369 2687 2733 
Q 2419 3097 1959 3097 
z
M 1959 3584 
Q 2709 3584 3137 3096 
Q 3566 2609 3566 1747 
Q 3566 888 3137 398 
Q 2709 -91 1959 -91 
Q 1206 -91 779 398 
Q 353 888 353 1747 
Q 353 2609 779 3096 
Q 1206 3584 1959 3584 
z
" transform="scale(0.015625)"/>
      <path id="DejaVuSans-64" d="M 2906 2969 
L 2906 4863 
L 3481 4863 
L 3481 0 
L 2906 0 
L 2906 525 
Q 2725 213 2448 61 
Q 2172 -91 1784 -91 
Q 1150 -91 751 415 
Q 353 922 353 1747 
Q 353 2572 751 3078 
Q 1150 3584 1784 3584 
Q 2172 3584 2448 3432 
Q 2725 3281 2906 2969 
z
M 947 1747 
Q 947 1113 1208 752 
Q 1469 391 1925 391 
Q 2381 391 2643 752 
Q 2906 1113 2906 1747 
Q 2906 2381 2643 2742 
Q 2381 3103 1925 3103 
Q 1469 3103 1208 2742 
Q 947 2381 947 1747 
z
" transform="scale(0.015625)"/>
      <path id="DejaVuSans-69" d="M 603 3500 
L 1178 3500 
L 1178 0 
L 603 0 
L 603 3500 
z
M 603 4863 
L 1178 4863 
L 1178 4134 
L 603 4134 
L 603 4863 
z
" transform="scale(0.015625)"/>
      <path id="DejaVuSans-67" d="M 2906 1791 
Q 2906 2416 2648 2759 
Q 2391 3103 1925 3103 
Q 1463 3103 1205 2759 
Q 947 2416 947 1791 
Q 947 1169 1205 825 
Q 1463 481 1925 481 
Q 2391 481 2648 825 
Q 2906 1169 2906 1791 
z
M 3481 434 
Q 3481 -459 3084 -895 
Q 2688 -1331 1869 -1331 
Q 1566 -1331 1297 -1286 
Q 1028 -1241 775 -1147 
L 775 -588 
Q 1028 -725 1275 -790 
Q 1522 -856 1778 -856 
Q 2344 -856 2625 -561 
Q 2906 -266 2906 331 
L 2906 616 
Q 2728 306 2450 153 
Q 2172 0 1784 0 
Q 1141 0 747 490 
Q 353 981 353 1791 
Q 353 2603 747 3093 
Q 1141 3584 1784 3584 
Q 2172 3584 2450 3431 
Q 2728 3278 2906 2969 
L 2906 3500 
L 3481 3500 
L 3481 434 
z
" transform="scale(0.015625)"/>
      <path id="DejaVuSans-6e" d="M 3513 2113 
L 3513 0 
L 2938 0 
L 2938 2094 
Q 2938 2591 2744 2837 
Q 2550 3084 2163 3084 
Q 1697 3084 1428 2787 
Q 1159 2491 1159 1978 
L 1159 0 
L 581 0 
L 581 3500 
L 1159 3500 
L 1159 2956 
Q 1366 3272 1645 3428 
Q 1925 3584 2291 3584 
Q 2894 3584 3203 3211 
Q 3513 2838 3513 2113 
z
" transform="scale(0.015625)"/>
      <path id="DejaVuSans-6c" d="M 603 4863 
L 1178 4863 
L 1178 0 
L 603 0 
L 603 4863 
z
" transform="scale(0.015625)"/>
      <path id="DejaVuSans-65" d="M 3597 1894 
L 3597 1613 
L 953 1613 
Q 991 1019 1311 708 
Q 1631 397 2203 397 
Q 2534 397 2845 478 
Q 3156 559 3463 722 
L 3463 178 
Q 3153 47 2828 -22 
Q 2503 -91 2169 -91 
Q 1331 -91 842 396 
Q 353 884 353 1716 
Q 353 2575 817 3079 
Q 1281 3584 2069 3584 
Q 2775 3584 3186 3129 
Q 3597 2675 3597 1894 
z
M 3022 2063 
Q 3016 2534 2758 2815 
Q 2500 3097 2075 3097 
Q 1594 3097 1305 2825 
Q 1016 2553 972 2059 
L 3022 2063 
z
" transform="scale(0.015625)"/>
      <path id="DejaVuSans-75" d="M 544 1381 
L 544 3500 
L 1119 3500 
L 1119 1403 
Q 1119 906 1312 657 
Q 1506 409 1894 409 
Q 2359 409 2629 706 
Q 2900 1003 2900 1516 
L 2900 3500 
L 3475 3500 
L 3475 0 
L 2900 0 
L 2900 538 
Q 2691 219 2414 64 
Q 2138 -91 1772 -91 
Q 1169 -91 856 284 
Q 544 659 544 1381 
z
M 1991 3584 
L 1991 3584 
z
" transform="scale(0.015625)"/>
      <path id="DejaVuSans-4a" d="M 628 4666 
L 1259 4666 
L 1259 325 
Q 1259 -519 939 -900 
Q 619 -1281 -91 -1281 
L -331 -1281 
L -331 -750 
L -134 -750 
Q 284 -750 456 -515 
Q 628 -281 628 325 
L 628 4666 
z
" transform="scale(0.015625)"/>
      <path id="DejaVuSans-62" d="M 3116 1747 
Q 3116 2381 2855 2742 
Q 2594 3103 2138 3103 
Q 1681 3103 1420 2742 
Q 1159 2381 1159 1747 
Q 1159 1113 1420 752 
Q 1681 391 2138 391 
Q 2594 391 2855 752 
Q 3116 1113 3116 1747 
z
M 1159 2969 
Q 1341 3281 1617 3432 
Q 1894 3584 2278 3584 
Q 2916 3584 3314 3078 
Q 3713 2572 3713 1747 
Q 3713 922 3314 415 
Q 2916 -91 2278 -91 
Q 1894 -91 1617 61 
Q 1341 213 1159 525 
L 1159 0 
L 581 0 
L 581 4863 
L 1159 4863 
L 1159 2969 
z
" transform="scale(0.015625)"/>
      <path id="DejaVuSans-29" d="M 513 4856 
L 1013 4856 
Q 1481 4119 1714 3412 
Q 1947 2706 1947 2009 
Q 1947 1309 1714 600 
Q 1481 -109 1013 -844 
L 513 -844 
Q 928 -128 1133 580 
Q 1338 1288 1338 2009 
Q 1338 2731 1133 3434 
Q 928 4138 513 4856 
z
" transform="scale(0.015625)"/>
     </defs>
     <use xlink:href="#DejaVuSans-28"/>
     <use xlink:href="#DejaVuSans-63" transform="translate(39.013672 0)"/>
     <use xlink:href="#DejaVuSans-61" transform="translate(93.994141 0)"/>
     <use xlink:href="#DejaVuSans-72" transform="translate(155.273438 0)"/>
     <use xlink:href="#DejaVuSans-72" transform="translate(194.636719 0)"/>
     <use xlink:href="#DejaVuSans-79" transform="translate(235.75 0)"/>
     <use xlink:href="#DejaVuSans-20" transform="translate(294.929688 0)"/>
     <use xlink:href="#DejaVuSans-66" transform="translate(326.716797 0)"/>
     <use xlink:href="#DejaVuSans-61" transform="translate(361.921875 0)"/>
     <use xlink:href="#DejaVuSans-63" transform="translate(423.201172 0)"/>
     <use xlink:href="#DejaVuSans-74" transform="translate(478.181641 0)"/>
     <use xlink:href="#DejaVuSans-6f" transform="translate(517.390625 0)"/>
     <use xlink:href="#DejaVuSans-72" transform="translate(578.572266 0)"/>
     <use xlink:href="#DejaVuSans-20" transform="translate(619.685547 0)"/>
     <use xlink:href="#DejaVuSans-3d" transform="translate(651.472656 0)"/>
     <use xlink:href="#DejaVuSans-20" transform="translate(735.261719 0)"/>
     <use xlink:href="#DejaVuSans-64" transform="translate(767.048828 0)"/>
     <use xlink:href="#DejaVuSans-69" transform="translate(830.525391 0)"/>
     <use xlink:href="#DejaVuSans-61" transform="translate(858.308594 0)"/>
     <use xlink:href="#DejaVuSans-67" transform="translate(919.587891 0)"/>
     <use xlink:href="#DejaVuSans-6f" transform="translate(983.064453 0)"/>
     <use xlink:href="#DejaVuSans-6e" transform="translate(1044.246094 0)"/>
     <use xlink:href="#DejaVuSans-61" transform="translate(1107.625 0)"/>
     <use xlink:href="#DejaVuSans-6c" transform="translate(1168.904297 0)"/>
     <use xlink:href="#DejaVuSans-20" transform="translate(1196.6875 0)"/>
     <use xlink:href="#DejaVuSans-6f" transform="translate(1228.474609 0)"/>
     <use xlink:href="#DejaVuSans-66" transform="translate(1289.65625 0)"/>
     <use xlink:href="#DejaVuSans-20" transform="translate(1324.861328 0)"/>
     <use xlink:href="#DejaVuSans-72" transform="translate(1356.648438 0)"/>
     <use xlink:href="#DejaVuSans-65" transform="translate(1395.511719 0)"/>
     <use xlink:href="#DejaVuSans-63" transform="translate(1457.035156 0)"/>
     <use xlink:href="#DejaVuSans-75" transform="translate(1512.015625 0)"/>
     <use xlink:href="#DejaVuSans-72" transform="translate(1575.394531 0)"/>
     <use xlink:href="#DejaVuSans-72" transform="translate(1614.757812 0)"/>
     <use xlink:href="#DejaVuSans-65" transform="translate(1653.621094 0)"/>
     <use xlink:href="#DejaVuSans-6e" transform="translate(1715.144531 0)"/>
     <use xlink:href="#DejaVuSans-74" transform="translate(1778.523438 0)"/>
     <use xlink:href="#DejaVuSans-20" transform="translate(1817.732422 0)"/>
     <use xlink:href="#DejaVuSans-4a" transform="translate(1849.519531 0)"/>
     <use xlink:href="#DejaVuSans-61" transform="translate(1879.011719 0)"/>
     <use xlink:href="#DejaVuSans-63" transform="translate(1940.291016 0)"/>
     <use xlink:href="#DejaVuSans-6f" transform="translate(1995.271484 0)"/>
     <use xlink:href="#DejaVuSans-62" transform="translate(2056.453125 0)"/>
     <use xlink:href="#DejaVuSans-69" transform="translate(2119.929688 0)"/>
     <use xlink:href="#DejaVuSans-61" transform="translate(2147.712891 0)"/>
     <use xlink:href="#DejaVuSans-6e" transform="translate(2208.992188 0)"/>
     <use xlink:href="#DejaVuSans-29" transform="translate(2272.371094 0)"/>
    </g>
   </g>
   <g id="text_7">
    <!-- Eligibility trace magnitude — e-prop vs d=0 -->
    <g transform="translate(252.556016 15.558281) scale(0.11 -0.11)">
     <defs>
      <path id="DejaVuSans-45" d="M 628 4666 
L 3578 4666 
L 3578 4134 
L 1259 4134 
L 1259 2753 
L 3481 2753 
L 3481 2222 
L 1259 2222 
L 1259 531 
L 3634 531 
L 3634 0 
L 628 0 
L 628 4666 
z
" transform="scale(0.015625)"/>
      <path id="DejaVuSans-6d" d="M 3328 2828 
Q 3544 3216 3844 3400 
Q 4144 3584 4550 3584 
Q 5097 3584 5394 3201 
Q 5691 2819 5691 2113 
L 5691 0 
L 5113 0 
L 5113 2094 
Q 5113 2597 4934 2840 
Q 4756 3084 4391 3084 
Q 3944 3084 3684 2787 
Q 3425 2491 3425 1978 
L 3425 0 
L 2847 0 
L 2847 2094 
Q 2847 2600 2669 2842 
Q 2491 3084 2119 3084 
Q 1678 3084 1418 2786 
Q 1159 2488 1159 1978 
L 1159 0 
L 581 0 
L 581 3500 
L 1159 3500 
L 1159 2956 
Q 1356 3278 1631 3431 
Q 1906 3584 2284 3584 
Q 2666 3584 2933 3390 
Q 3200 3197 3328 2828 
z
" transform="scale(0.015625)"/>
      <path id="DejaVuSans-2014" d="M 313 1978 
L 6088 1978 
L 6088 1528 
L 313 1528 
L 313 1978 
z
" transform="scale(0.015625)"/>
      <path id="DejaVuSans-2d" d="M 313 2009 
L 1997 2009 
L 1997 1497 
L 313 1497 
L 313 2009 
z
" transform="scale(0.015625)"/>
      <path id="DejaVuSans-70" d="M 1159 525 
L 1159 -1331 
L 581 -1331 
L 581 3500 
L 1159 3500 
L 1159 2969 
Q 1341 3281 1617 3432 
Q 1894 3584 2278 3584 
Q 2916 3584 3314 3078 
Q 3713 2572 3713 1747 
Q 3713 922 3314 415 
Q 2916 -91 2278 -91 
Q 1894 -91 1617 61 
Q 1341 213 1159 525 
z
M 3116 1747 
Q 3116 2381 2855 2742 
Q 2594 3103 2138 3103 
Q 1681 3103 1420 2742 
Q 1159 2381 1159 1747 
Q 1159 1113 1420 752 
Q 1681 391 2138 391 
Q 2594 391 2855 752 
Q 3116 1113 3116 1747 
z
" transform="scale(0.015625)"/>
      <path id="DejaVuSans-76" d="M 191 3500 
L 800 3500 
L 1894 563 
L 2988 3500 
L 3597 3500 
L 2284 0 
L 1503 0 
L 191 3500 
z
" transform="scale(0.015625)"/>
      <path id="DejaVuSans-73" d="M 2834 3397 
L 2834 2853 
Q 2591 2978 2328 3040 
Q 2066 3103 1784 3103 
Q 1356 3103 1142 2972 
Q 928 2841 928 2578 
Q 928 2378 1081 2264 
Q 1234 2150 1697 2047 
L 1894 2003 
Q 2506 1872 2764 1633 
Q 3022 1394 3022 966 
Q 3022 478 2636 193 
Q 2250 -91 1575 -91 
Q 1294 -91 989 -36 
Q 684 19 347 128 
L 347 722 
Q 666 556 975 473 
Q 1284 391 1588 391 
Q 1994 391 2212 530 
Q 2431 669 2431 922 
Q 2431 1156 2273 1281 
Q 2116 1406 1581 1522 
L 1381 1569 
Q 847 1681 609 1914 
Q 372 2147 372 2553 
Q 372 3047 722 3315 
Q 1072 3584 1716 3584 
Q 2034 3584 2315 3537 
Q 2597 3491 2834 3397 
z
" transform="scale(0.015625)"/>
     </defs>
     <use xlink:href="#DejaVuSans-45"/>
     <use xlink:href="#DejaVuSans-6c" transform="translate(63.183594 0)"/>
     <use xlink:href="#DejaVuSans-69" transform="translate(90.966797 0)"/>
     <use xlink:href="#DejaVuSans-67" transform="translate(118.75 0)"/>
     <use xlink:href="#DejaVuSans-69" transform="translate(182.226562 0)"/>
     <use xlink:href="#DejaVuSans-62" transform="translate(210.009766 0)"/>
     <use xlink:href="#DejaVuSans-69" transform="translate(273.486328 0)"/>
     <use xlink:href="#DejaVuSans-6c" transform="translate(301.269531 0)"/>
     <use xlink:href="#DejaVuSans-69" transform="translate(329.052734 0)"/>
     <use xlink:href="#DejaVuSans-74" transform="translate(356.835938 0)"/>
     <use xlink:href="#DejaVuSans-79" transform="translate(396.044922 0)"/>
     <use xlink:href="#DejaVuSans-20" transform="translate(455.224609 0)"/>
     <use xlink:href="#DejaVuSans-74" transform="translate(487.011719 0)"/>
     <use xlink:href="#DejaVuSans-72" transform="translate(526.220703 0)"/>
     <use xlink:href="#DejaVuSans-61" transform="translate(567.333984 0)"/>
     <use xlink:href="#DejaVuSans-63" transform="translate(628.613281 0)"/>
     <use xlink:href="#DejaVuSans-65" transform="translate(683.59375 0)"/>
     <use xlink:href="#DejaVuSans-20" transform="translate(745.117188 0)"/>
     <use xlink:href="#DejaVuSans-6d" transform="translate(776.904297 0)"/>
     <use xlink:href="#DejaVuSans-61" transform="translate(874.316406 0)"/>
     <use xlink:href="#DejaVuSans-67" transform="translate(935.595703 0)"/>
     <use xlink:href="#DejaVuSans-6e" transform="translate(999.072266 0)"/>
     <use xlink:href="#DejaVuSans-69" transform="translate(1062.451172 0)"/>
     <use xlink:href="#DejaVuSans-74" transform="translate(1090.234375 0)"/>
     <use xlink:href="#DejaVuSans-75" transform="translate(1129.443359 0)"/>
     <use xlink:href="#DejaVuSans-64" transform="translate(1192.822266 0)"/>
     <use xlink:href="#DejaVuSans-65" transform="translate(1256.298828 0)"/>
     <use xlink:href="#DejaVuSans-20" transform="translate(1317.822266 0)"/>
     <use xlink:href="#DejaVuSans-2014" transform="translate(1349.609375 0)"/>
     <use xlink:href="#DejaVuSans-20" transform="translate(1449.609375 0)"/>
     <use xlink:href="#DejaVuSans-65" transform="translate(1481.396484 0)"/>
     <use xlink:href="#DejaVuSans-2d" transform="translate(1542.919922 0)"/>
     <use xlink:href="#DejaVuSans-70" transform="translate(1579.003906 0)"/>
     <use xlink:href="#DejaVuSans-72" transform="translate(1642.480469 0)"/>
     <use xlink:href="#DejaVuSans-6f" transform="translate(1681.34375 0)"/>
     <use xlink:href="#DejaVuSans-70" transform="translate(1742.525391 0)"/>
     <use xlink:href="#DejaVuSans-20" transform="translate(1806.001953 0)"/>
     <use xlink:href="#DejaVuSans-76" transform="translate(1837.789062 0)"/>
     <use xlink:href="#DejaVuSans-73" transform="translate(1896.96875 0)"/>
     <use xlink:href="#DejaVuSans-20" transform="translate(1949.068359 0)"/>
     <use xlink:href="#DejaVuSans-64" transform="translate(1980.855469 0)"/>
     <use xlink:href="#DejaVuSans-3d" transform="translate(2044.332031 0)"/>
     <use xlink:href="#DejaVuSans-30" transform="translate(2128.121094 0)"/>
    </g>
   </g>
   <g id="legend_1">
    <g id="patch_20">
     <path d="M 586.182188 55.178906 
L 696.103125 55.178906 
Q 697.903125 55.178906 697.903125 53.378906 
L 697.903125 27.858281 
Q 697.903125 26.058281 696.103125 26.058281 
L 586.182188 26.058281 
Q 584.382188 26.058281 584.382188 27.858281 
L 584.382188 53.378906 
Q 584.382188 55.178906 586.182188 55.178906 
z
" style="fill: #ffffff; opacity: 0.8; stroke: #cccccc; stroke-linejoin: miter"/>
    </g>
    <g id="patch_21">
     <path d="M 587.982188 36.496875 
L 605.982188 36.496875 
L 605.982188 30.196875 
L 587.982188 30.196875 
z
" style="fill: #1f77b4; opacity: 0.8"/>
    </g>
    <g id="text_8">
     <!-- e-prop (carry ≠ 0) -->
     <g transform="translate(613.182188 36.496875) scale(0.09 -0.09)">
      <defs>
       <path id="DejaVuSans-2260" d="M 678 2906 
L 3091 2906 
L 3891 3891 
L 4281 3572 
L 3738 2906 
L 4684 2906 
L 4684 2381 
L 3309 2381 
L 2700 1631 
L 4684 1631 
L 4684 1100 
L 2266 1100 
L 1459 122 
L 1069 441 
L 1613 1100 
L 678 1100 
L 678 1631 
L 2047 1631 
L 2656 2381 
L 678 2381 
L 678 2906 
z
" transform="scale(0.015625)"/>
      </defs>
      <use xlink:href="#DejaVuSans-65"/>
      <use xlink:href="#DejaVuSans-2d" transform="translate(61.523438 0)"/>
      <use xlink:href="#DejaVuSans-70" transform="translate(97.607422 0)"/>
      <use xlink:href="#DejaVuSans-72" transform="translate(161.083984 0)"/>
      <use xlink:href="#DejaVuSans-6f" transform="translate(199.947266 0)"/>
      <use xlink:href="#DejaVuSans-70" transform="translate(261.128906 0)"/>
      <use xlink:href="#DejaVuSans-20" transform="translate(324.605469 0)"/>
      <use xlink:href="#DejaVuSans-28" transform="translate(356.392578 0)"/>
      <use xlink:href="#DejaVuSans-63" transform="translate(395.40625 0)"/>
      <use xlink:href="#DejaVuSans-61" transform="translate(450.386719 0)"/>
      <use xlink:href="#DejaVuSans-72" transform="translate(511.666016 0)"/>
      <use xlink:href="#DejaVuSans-72" transform="translate(551.029297 0)"/>
      <use xlink:href="#DejaVuSans-79" transform="translate(592.142578 0)"/>
      <use xlink:href="#DejaVuSans-20" transform="translate(651.322266 0)"/>
      <use xlink:href="#DejaVuSans-2260" transform="translate(683.109375 0)"/>
      <use xlink:href="#DejaVuSans-20" transform="translate(766.898438 0)"/>
      <use xlink:href="#DejaVuSans-30" transform="translate(798.685547 0)"/>
      <use xlink:href="#DejaVuSans-29" transform="translate(862.308594 0)"/>
     </g>
    </g>
    <g id="patch_22">
     <path d="M 587.982188 49.707187 
L 605.982188 49.707187 
L 605.982188 43.407187 
L 587.982188 43.407187 
z
" style="fill: #ff7f0e; opacity: 0.8"/>
    </g>
    <g id="text_9">
     <!-- d=0 (no carry) -->
     <g transform="translate(613.182188 49.707187) scale(0.09 -0.09)">
      <use xlink:href="#DejaVuSans-64"/>
      <use xlink:href="#DejaVuSans-3d" transform="translate(63.476562 0)"/>
      <use xlink:href="#DejaVuSans-30" transform="translate(147.265625 0)"/>
      <use xlink:href="#DejaVuSans-20" transform="translate(210.888672 0)"/>
      <use xlink:href="#DejaVuSans-28" transform="translate(242.675781 0)"/>
      <use xlink:href="#DejaVuSans-6e" transform="translate(281.689453 0)"/>
      <use xlink:href="#DejaVuSans-6f" transform="translate(345.068359 0)"/>
      <use xlink:href="#DejaVuSans-20" transform="translate(406.25 0)"/>
      <use xlink:href="#DejaVuSans-63" transform="translate(438.037109 0)"/>
      <use xlink:href="#DejaVuSans-61" transform="translate(493.017578 0)"/>
      <use xlink:href="#DejaVuSans-72" transform="translate(554.296875 0)"/>
      <use xlink:href="#DejaVuSans-72" transform="translate(593.660156 0)"/>
      <use xlink:href="#DejaVuSans-79" transform="translate(634.773438 0)"/>
      <use xlink:href="#DejaVuSans-29" transform="translate(693.953125 0)"/>
     </g>
    </g>
   </g>
  </g>
  <g id="axes_2">
   <g id="patch_23">
    <path d="M 43.803125 314.158281 
L 702.403125 314.158281 
L 702.403125 185.330281 
L 43.803125 185.330281 
z
" style="fill: #ffffff"/>
   </g>
   <g id="matplotlib.axis_3">
    <g id="xtick_7">
     <g id="line2d_12">
      <g>
       <use xlink:href="#m50d5e85cc3" x="110.963338" y="314.158281" style="stroke: #000000; stroke-width: 0.8"/>
      </g>
     </g>
     <g id="text_10">
      <!-- 0 -->
      <g transform="translate(107.782088 328.756719) scale(0.1 -0.1)">
       <use xlink:href="#DejaVuSans-30"/>
      </g>
     </g>
    </g>
    <g id="xtick_8">
     <g id="line2d_13">
      <g>
       <use xlink:href="#m50d5e85cc3" x="215.819253" y="314.158281" style="stroke: #000000; stroke-width: 0.8"/>
      </g>
     </g>
     <g id="text_11">
      <!-- 1 -->
      <g transform="translate(212.638003 328.756719) scale(0.1 -0.1)">
       <use xlink:href="#DejaVuSans-31"/>
      </g>
     </g>
    </g>
    <g id="xtick_9">
     <g id="line2d_14">
      <g>
       <use xlink:href="#m50d5e85cc3" x="320.675168" y="314.158281" style="stroke: #000000; stroke-width: 0.8"/>
      </g>
     </g>
     <g id="text_12">
      <!-- 2 -->
      <g transform="translate(317.493918 328.756719) scale(0.1 -0.1)">
       <use xlink:href="#DejaVuSans-32"/>
      </g>
     </g>
    </g>
    <g id="xtick_10">
     <g id="line2d_15">
      <g>
       <use xlink:href="#m50d5e85cc3" x="425.531082" y="314.158281" style="stroke: #000000; stroke-width: 0.8"/>
      </g>
     </g>
     <g id="text_13">
      <!-- 3 -->
      <g transform="translate(422.349832 328.756719) scale(0.1 -0.1)">
       <use xlink:href="#DejaVuSans-33"/>
      </g>
     </g>
    </g>
    <g id="xtick_11">
     <g id="line2d_16">
      <g>
       <use xlink:href="#m50d5e85cc3" x="530.386997" y="314.158281" style="stroke: #000000; stroke-width: 0.8"/>
      </g>
     </g>
     <g id="text_14">
      <!-- 4 -->
      <g transform="translate(527.205747 328.756719) scale(0.1 -0.1)">
       <defs>
        <path id="DejaVuSans-34" d="M 2419 4116 
L 825 1625 
L 2419 1625 
L 2419 4116 
z
M 2253 4666 
L 3047 4666 
L 3047 1625 
L 3713 1625 
L 3713 1100 
L 3047 1100 
L 3047 0 
L 2419 0 
L 2419 1100 
L 313 1100 
L 313 1709 
L 2253 4666 
z
" transform="scale(0.015625)"/>
       </defs>
       <use xlink:href="#DejaVuSans-34"/>
      </g>
     </g>
    </g>
    <g id="xtick_12">
     <g id="line2d_17">
      <g>
       <use xlink:href="#m50d5e85cc3" x="635.242912" y="314.158281" style="stroke: #000000; stroke-width: 0.8"/>
      </g>
     </g>
     <g id="text_15">
      <!-- 5 -->
      <g transform="translate(632.061662 328.756719) scale(0.1 -0.1)">
       <defs>
        <path id="DejaVuSans-35" d="M 691 4666 
L 3169 4666 
L 3169 4134 
L 1269 4134 
L 1269 2991 
Q 1406 3038 1543 3061 
Q 1681 3084 1819 3084 
Q 2600 3084 3056 2656 
Q 3513 2228 3513 1497 
Q 3513 744 3044 326 
Q 2575 -91 1722 -91 
Q 1428 -91 1123 -41 
Q 819 9 494 109 
L 494 744 
Q 775 591 1075 516 
Q 1375 441 1709 441 
Q 2250 441 2565 725 
Q 2881 1009 2881 1497 
Q 2881 1984 2565 2268 
Q 2250 2553 1709 2553 
Q 1456 2553 1204 2497 
Q 953 2441 691 2322 
L 691 4666 
z
" transform="scale(0.015625)"/>
       </defs>
       <use xlink:href="#DejaVuSans-35"/>
      </g>
     </g>
    </g>
    <g id="text_16">
     <!-- Timestep t -->
     <g transform="translate(346.504688 342.434844) scale(0.1 -0.1)">
      <defs>
       <path id="DejaVuSans-54" d="M -19 4666 
L 3928 4666 
L 3928 4134 
L 2272 4134 
L 2272 0 
L 1638 0 
L 1638 4134 
L -19 4134 
L -19 4666 
z
" transform="scale(0.015625)"/>
      </defs>
      <use xlink:href="#DejaVuSans-54"/>
      <use xlink:href="#DejaVuSans-69" transform="translate(57.958984 0)"/>
      <use xlink:href="#DejaVuSans-6d" transform="translate(85.742188 0)"/>
      <use xlink:href="#DejaVuSans-65" transform="translate(183.154297 0)"/>
      <use xlink:href="#DejaVuSans-73" transform="translate(244.677734 0)"/>
      <use xlink:href="#DejaVuSans-74" transform="translate(296.777344 0)"/>
      <use xlink:href="#DejaVuSans-65" transform="translate(335.986328 0)"/>
      <use xlink:href="#DejaVuSans-70" transform="translate(397.509766 0)"/>
      <use xlink:href="#DejaVuSans-20" transform="translate(460.986328 0)"/>
      <use xlink:href="#DejaVuSans-74" transform="translate(492.773438 0)"/>
     </g>
    </g>
   </g>
   <g id="matplotlib.axis_4">
    <g id="ytick_5">
     <g id="line2d_18">
      <g>
       <use xlink:href="#md523f0d808" x="43.803125" y="308.302463" style="stroke: #000000; stroke-width: 0.8"/>
      </g>
     </g>
     <g id="text_17">
      <!-- 0.0 -->
      <g transform="translate(20.9 312.101682) scale(0.1 -0.1)">
       <use xlink:href="#DejaVuSans-30"/>
       <use xlink:href="#DejaVuSans-2e" transform="translate(63.623047 0)"/>
       <use xlink:href="#DejaVuSans-30" transform="translate(95.410156 0)"/>
      </g>
     </g>
    </g>
    <g id="ytick_6">
     <g id="line2d_19">
      <g>
       <use xlink:href="#md523f0d808" x="43.803125" y="282.276604" style="stroke: #000000; stroke-width: 0.8"/>
      </g>
     </g>
     <g id="text_18">
      <!-- 0.2 -->
      <g transform="translate(20.9 286.075823) scale(0.1 -0.1)">
       <use xlink:href="#DejaVuSans-30"/>
       <use xlink:href="#DejaVuSans-2e" transform="translate(63.623047 0)"/>
       <use xlink:href="#DejaVuSans-32" transform="translate(95.410156 0)"/>
      </g>
     </g>
    </g>
    <g id="ytick_7">
     <g id="line2d_20">
      <g>
       <use xlink:href="#md523f0d808" x="43.803125" y="256.250746" style="stroke: #000000; stroke-width: 0.8"/>
      </g>
     </g>
     <g id="text_19">
      <!-- 0.4 -->
      <g transform="translate(20.9 260.049965) scale(0.1 -0.1)">
       <use xlink:href="#DejaVuSans-30"/>
       <use xlink:href="#DejaVuSans-2e" transform="translate(63.623047 0)"/>
       <use xlink:href="#DejaVuSans-34" transform="translate(95.410156 0)"/>
      </g>
     </g>
    </g>
    <g id="ytick_8">
     <g id="line2d_21">
      <g>
       <use xlink:href="#md523f0d808" x="43.803125" y="230.224887" style="stroke: #000000; stroke-width: 0.8"/>
      </g>
     </g>
     <g id="text_20">
      <!-- 0.6 -->
      <g transform="translate(20.9 234.024106) scale(0.1 -0.1)">
       <defs>
        <path id="DejaVuSans-36" d="M 2113 2584 
Q 1688 2584 1439 2293 
Q 1191 2003 1191 1497 
Q 1191 994 1439 701 
Q 1688 409 2113 409 
Q 2538 409 2786 701 
Q 3034 994 3034 1497 
Q 3034 2003 2786 2293 
Q 2538 2584 2113 2584 
z
M 3366 4563 
L 3366 3988 
Q 3128 4100 2886 4159 
Q 2644 4219 2406 4219 
Q 1781 4219 1451 3797 
Q 1122 3375 1075 2522 
Q 1259 2794 1537 2939 
Q 1816 3084 2150 3084 
Q 2853 3084 3261 2657 
Q 3669 2231 3669 1497 
Q 3669 778 3244 343 
Q 2819 -91 2113 -91 
Q 1303 -91 875 529 
Q 447 1150 447 2328 
Q 447 3434 972 4092 
Q 1497 4750 2381 4750 
Q 2619 4750 2861 4703 
Q 3103 4656 3366 4563 
z
" transform="scale(0.015625)"/>
       </defs>
       <use xlink:href="#DejaVuSans-30"/>
       <use xlink:href="#DejaVuSans-2e" transform="translate(63.623047 0)"/>
       <use xlink:href="#DejaVuSans-36" transform="translate(95.410156 0)"/>
      </g>
     </g>
    </g>
    <g id="ytick_9">
     <g id="line2d_22">
      <g>
       <use xlink:href="#md523f0d808" x="43.803125" y="204.199029" style="stroke: #000000; stroke-width: 0.8"/>
      </g>
     </g>
     <g id="text_21">
      <!-- 0.8 -->
      <g transform="translate(20.9 207.998247) scale(0.1 -0.1)">
       <defs>
        <path id="DejaVuSans-38" d="M 2034 2216 
Q 1584 2216 1326 1975 
Q 1069 1734 1069 1313 
Q 1069 891 1326 650 
Q 1584 409 2034 409 
Q 2484 409 2743 651 
Q 3003 894 3003 1313 
Q 3003 1734 2745 1975 
Q 2488 2216 2034 2216 
z
M 1403 2484 
Q 997 2584 770 2862 
Q 544 3141 544 3541 
Q 544 4100 942 4425 
Q 1341 4750 2034 4750 
Q 2731 4750 3128 4425 
Q 3525 4100 3525 3541 
Q 3525 3141 3298 2862 
Q 3072 2584 2669 2484 
Q 3125 2378 3379 2068 
Q 3634 1759 3634 1313 
Q 3634 634 3220 271 
Q 2806 -91 2034 -91 
Q 1263 -91 848 271 
Q 434 634 434 1313 
Q 434 1759 690 2068 
Q 947 2378 1403 2484 
z
M 1172 3481 
Q 1172 3119 1398 2916 
Q 1625 2713 2034 2713 
Q 2441 2713 2670 2916 
Q 2900 3119 2900 3481 
Q 2900 3844 2670 4047 
Q 2441 4250 2034 4250 
Q 1625 4250 1398 4047 
Q 1172 3844 1172 3481 
z
" transform="scale(0.015625)"/>
       </defs>
       <use xlink:href="#DejaVuSans-30"/>
       <use xlink:href="#DejaVuSans-2e" transform="translate(63.623047 0)"/>
       <use xlink:href="#DejaVuSans-38" transform="translate(95.410156 0)"/>
      </g>
     </g>
    </g>
    <g id="text_22">
     <!-- Activation -->
     <g transform="translate(14.820313 274.776312) rotate(-90) scale(0.1 -0.1)">
      <defs>
       <path id="DejaVuSans-41" d="M 2188 4044 
L 1331 1722 
L 3047 1722 
L 2188 4044 
z
M 1831 4666 
L 2547 4666 
L 4325 0 
L 3669 0 
L 3244 1197 
L 1141 1197 
L 716 0 
L 50 0 
L 1831 4666 
z
" transform="scale(0.015625)"/>
      </defs>
      <use xlink:href="#DejaVuSans-41"/>
      <use xlink:href="#DejaVuSans-63" transform="translate(66.658203 0)"/>
      <use xlink:href="#DejaVuSans-74" transform="translate(121.638672 0)"/>
      <use xlink:href="#DejaVuSans-69" transform="translate(160.847656 0)"/>
      <use xlink:href="#DejaVuSans-76" transform="translate(188.630859 0)"/>
      <use xlink:href="#DejaVuSans-61" transform="translate(247.810547 0)"/>
      <use xlink:href="#DejaVuSans-74" transform="translate(309.089844 0)"/>
      <use xlink:href="#DejaVuSans-69" transform="translate(348.298828 0)"/>
      <use xlink:href="#DejaVuSans-6f" transform="translate(376.082031 0)"/>
      <use xlink:href="#DejaVuSans-6e" transform="translate(437.263672 0)"/>
     </g>
    </g>
   </g>
   <g id="LineCollection_1">
    <path d="M 110.963338 308.302463 
L 110.963338 204.199029 
" clip-path="url(#pdfc786e963)" style="fill: none; stroke: #2ca02c; stroke-width: 1.5"/>
    <path d="M 215.819253 308.302463 
L 215.819253 243.237817 
" clip-path="url(#pdfc786e963)" style="fill: none; stroke: #2ca02c; stroke-width: 1.5"/>
    <path d="M 320.675168 308.302463 
L 320.675168 191.186099 
" clip-path="url(#pdfc786e963)" style="fill: none; stroke: #2ca02c; stroke-width: 1.5"/>
    <path d="M 425.531082 308.302463 
L 425.531082 269.263675 
" clip-path="url(#pdfc786e963)" style="fill: none; stroke: #2ca02c; stroke-width: 1.5"/>
    <path d="M 530.386997 308.302463 
L 530.386997 217.211958 
" clip-path="url(#pdfc786e963)" style="fill: none; stroke: #2ca02c; stroke-width: 1.5"/>
    <path d="M 635.242912 308.302463 
L 635.242912 230.224887 
" clip-path="url(#pdfc786e963)" style="fill: none; stroke: #2ca02c; stroke-width: 1.5"/>
   </g>
   <g id="line2d_23">
    <defs>
     <path id="me5a13b4ecb" d="M 0 3 
C 0.795609 3 1.55874 2.683901 2.12132 2.12132 
C 2.683901 1.55874 3 0.795609 3 0 
C 3 -0.795609 2.683901 -1.55874 2.12132 -2.12132 
C 1.55874 -2.683901 0.795609 -3 0 -3 
C -0.795609 -3 -1.55874 -2.683901 -2.12132 -2.12132 
C -2.683901 -1.55874 -3 -0.795609 -3 0 
C -3 0.795609 -2.683901 1.55874 -2.12132 2.12132 
C -1.55874 2.683901 -0.795609 3 0 3 
z
" style="stroke: #2ca02c"/>
    </defs>
    <g clip-path="url(#pdfc786e963)">
     <use xlink:href="#me5a13b4ecb" x="110.963338" y="204.199029" style="fill: #2ca02c; stroke: #2ca02c"/>
     <use xlink:href="#me5a13b4ecb" x="215.819253" y="243.237817" style="fill: #2ca02c; stroke: #2ca02c"/>
     <use xlink:href="#me5a13b4ecb" x="320.675168" y="191.186099" style="fill: #2ca02c; stroke: #2ca02c"/>
     <use xlink:href="#me5a13b4ecb" x="425.531082" y="269.263675" style="fill: #2ca02c; stroke: #2ca02c"/>
     <use xlink:href="#me5a13b4ecb" x="530.386997" y="217.211958" style="fill: #2ca02c; stroke: #2ca02c"/>
     <use xlink:href="#me5a13b4ecb" x="635.242912" y="230.224887" style="fill: #2ca02c; stroke: #2ca02c"/>
    </g>
   </g>
   <g id="line2d_24"/>
   <g id="LineCollection_2">
    <path d="M 110.963338 308.302463 
L 110.963338 282.276604 
" clip-path="url(#pdfc786e963)" style="fill: none; stroke: #d62728; stroke-width: 1.5"/>
    <path d="M 215.819253 308.302463 
L 215.819253 230.224887 
" clip-path="url(#pdfc786e963)" style="fill: none; stroke: #d62728; stroke-width: 1.5"/>
    <path d="M 320.675168 308.302463 
L 320.675168 295.289534 
" clip-path="url(#pdfc786e963)" style="fill: none; stroke: #d62728; stroke-width: 1.5"/>
    <path d="M 425.531082 308.302463 
L 425.531082 204.199029 
" clip-path="url(#pdfc786e963)" style="fill: none; stroke: #d62728; stroke-width: 1.5"/>
    <path d="M 530.386997 308.302463 
L 530.386997 256.250746 
" clip-path="url(#pdfc786e963)" style="fill: none; stroke: #d62728; stroke-width: 1.5"/>
    <path d="M 635.242912 308.302463 
L 635.242912 269.263675 
" clip-path="url(#pdfc786e963)" style="fill: none; stroke: #d62728; stroke-width: 1.5"/>
   </g>
   <g id="line2d_25">
    <defs>
     <path id="mbf88f35582" d="M -3 3 
L 3 3 
L 3 -3 
L -3 -3 
z
" style="stroke: #d62728; stroke-linejoin: miter"/>
    </defs>
    <g clip-path="url(#pdfc786e963)">
     <use xlink:href="#mbf88f35582" x="110.963338" y="282.276604" style="fill: #d62728; stroke: #d62728; stroke-linejoin: miter"/>
     <use xlink:href="#mbf88f35582" x="215.819253" y="230.224887" style="fill: #d62728; stroke: #d62728; stroke-linejoin: miter"/>
     <use xlink:href="#mbf88f35582" x="320.675168" y="295.289534" style="fill: #d62728; stroke: #d62728; stroke-linejoin: miter"/>
     <use xlink:href="#mbf88f35582" x="425.531082" y="204.199029" style="fill: #d62728; stroke: #d62728; stroke-linejoin: miter"/>
     <use xlink:href="#mbf88f35582" x="530.386997" y="256.250746" style="fill: #d62728; stroke: #d62728; stroke-linejoin: miter"/>
     <use xlink:href="#mbf88f35582" x="635.242912" y="269.263675" style="fill: #d62728; stroke: #d62728; stroke-linejoin: miter"/>
    </g>
   </g>
   <g id="line2d_26"/>
   <g id="patch_24">
    <path d="M 43.803125 314.158281 
L 43.803125 185.330281 
" style="fill: none; stroke: #000000; stroke-width: 0.8; stroke-linejoin: miter; stroke-linecap: square"/>
   </g>
   <g id="patch_25">
    <path d="M 702.403125 314.158281 
L 702.403125 185.330281 
" style="fill: none; stroke: #000000; stroke-width: 0.8; stroke-linejoin: miter; stroke-linecap: square"/>
   </g>
   <g id="patch_26">
    <path d="M 43.803125 314.158281 
L 702.403125 314.158281 
" style="fill: none; stroke: #000000; stroke-width: 0.8; stroke-linejoin: miter; stroke-linecap: square"/>
   </g>
   <g id="patch_27">
    <path d="M 43.803125 185.330281 
L 702.403125 185.330281 
" style="fill: none; stroke: #000000; stroke-width: 0.8; stroke-linejoin: miter; stroke-linecap: square"/>
   </g>
   <g id="text_23">
    <!-- Inputs to trace: $\psi_t = 1 - h_t^2$ and $h_{t-1}$ -->
    <g transform="translate(274.213125 179.330281) scale(0.11 -0.11)">
     <defs>
      <path id="DejaVuSans-49" d="M 628 4666 
L 1259 4666 
L 1259 0 
L 628 0 
L 628 4666 
z
" transform="scale(0.015625)"/>
      <path id="DejaVuSans-3a" d="M 750 794 
L 1409 794 
L 1409 0 
L 750 0 
L 750 794 
z
M 750 3309 
L 1409 3309 
L 1409 2516 
L 750 2516 
L 750 3309 
z
" transform="scale(0.015625)"/>
     </defs>
     <use xlink:href="#DejaVuSans-49" transform="translate(0 0.765625)"/>
     <use xlink:href="#DejaVuSans-6e" transform="translate(29.492188 0.765625)"/>
     <use xlink:href="#DejaVuSans-70" transform="translate(92.871094 0.765625)"/>
     <use xlink:href="#DejaVuSans-75" transform="translate(156.347656 0.765625)"/>
     <use xlink:href="#DejaVuSans-74" transform="translate(219.726562 0.765625)"/>
     <use xlink:href="#DejaVuSans-73" transform="translate(258.935547 0.765625)"/>
     <use xlink:href="#DejaVuSans-20" transform="translate(311.035156 0.765625)"/>
     <use xlink:href="#DejaVuSans-74" transform="translate(342.822266 0.765625)"/>
     <use xlink:href="#DejaVuSans-6f" transform="translate(382.03125 0.765625)"/>
     <use xlink:href="#DejaVuSans-20" transform="translate(443.212891 0.765625)"/>
     <use xlink:href="#DejaVuSans-74" transform="translate(475 0.765625)"/>
     <use xlink:href="#DejaVuSans-72" transform="translate(514.208984 0.765625)"/>
     <use xlink:href="#DejaVuSans-61" transform="translate(555.322266 0.765625)"/>
     <use xlink:href="#DejaVuSans-63" transform="translate(616.601562 0.765625)"/>
     <use xlink:href="#DejaVuSans-65" transform="translate(671.582031 0.765625)"/>
     <use xlink:href="#DejaVuSans-3a" transform="translate(733.105469 0.765625)"/>
     <use xlink:href="#DejaVuSans-20" transform="translate(766.796875 0.765625)"/>
     <use xlink:href="#DejaVuSans-Oblique-3c8" transform="translate(798.583984 0.765625)"/>
     <use xlink:href="#DejaVuSans-Oblique-74" transform="translate(864.550781 -15.640625) scale(0.7)"/>
     <use xlink:href="#DejaVuSans-3d" transform="translate(914.213867 0.765625)"/>
     <use xlink:href="#DejaVuSans-31" transform="translate(1017.485352 0.765625)"/>
     <use xlink:href="#DejaVuSans-2212" transform="translate(1100.59082 0.765625)"/>
     <use xlink:href="#DejaVuSans-Oblique-68" transform="translate(1203.862305 0.765625)"/>
     <use xlink:href="#DejaVuSans-32" transform="translate(1274.688919 39.046875) scale(0.7)"/>
     <use xlink:href="#DejaVuSans-Oblique-74" transform="translate(1267.241211 -26.578125) scale(0.7)"/>
     <use xlink:href="#DejaVuSans-20" transform="translate(1321.959427 0.765625)"/>
     <use xlink:href="#DejaVuSans-61" transform="translate(1353.746536 0.765625)"/>
     <use xlink:href="#DejaVuSans-6e" transform="translate(1415.025833 0.765625)"/>
     <use xlink:href="#DejaVuSans-64" transform="translate(1478.40474 0.765625)"/>
     <use xlink:href="#DejaVuSans-20" transform="translate(1541.881302 0.765625)"/>
     <use xlink:href="#DejaVuSans-Oblique-68" transform="translate(1573.668411 0.765625)"/>
     <use xlink:href="#DejaVuSans-Oblique-74" transform="translate(1637.047318 -15.640625) scale(0.7)"/>
     <use xlink:href="#DejaVuSans-2212" transform="translate(1678.131302 -15.640625) scale(0.7)"/>
     <use xlink:href="#DejaVuSans-31" transform="translate(1750.421341 -15.640625) scale(0.7)"/>
    </g>
   </g>
   <g id="legend_2">
    <g id="patch_28">
     <path d="M 647.053125 218.969187 
L 696.103125 218.969187 
Q 697.903125 218.969187 697.903125 217.169187 
L 697.903125 191.630281 
Q 697.903125 189.830281 696.103125 189.830281 
L 647.053125 189.830281 
Q 645.253125 189.830281 645.253125 191.630281 
L 645.253125 217.169187 
Q 645.253125 218.969187 647.053125 218.969187 
z
" style="fill: #ffffff; opacity: 0.8; stroke: #cccccc; stroke-linejoin: miter"/>
    </g>
    <g id="line2d_27">
     <path d="M 657.853125 200.268875 
L 657.853125 195.937625 
" style="fill: none; stroke: #2ca02c; stroke-width: 1.5"/>
    </g>
    <g id="line2d_28"/>
    <g id="line2d_29">
     <g>
      <use xlink:href="#me5a13b4ecb" x="657.853125" y="195.937625" style="fill: #2ca02c; stroke: #2ca02c"/>
     </g>
    </g>
    <g id="text_24">
     <!-- $\psi_t$ -->
     <g transform="translate(674.053125 200.268875) scale(0.09 -0.09)">
      <use xlink:href="#DejaVuSans-Oblique-3c8" transform="translate(0 0.3125)"/>
      <use xlink:href="#DejaVuSans-Oblique-74" transform="translate(65.966797 -16.09375) scale(0.7)"/>
     </g>
    </g>
    <g id="line2d_30">
     <path d="M 657.853125 213.497469 
L 657.853125 209.166219 
" style="fill: none; stroke: #d62728; stroke-width: 1.5"/>
    </g>
    <g id="line2d_31"/>
    <g id="line2d_32">
     <g>
      <use xlink:href="#mbf88f35582" x="657.853125" y="209.166219" style="fill: #d62728; stroke: #d62728; stroke-linejoin: miter"/>
     </g>
    </g>
    <g id="text_25">
     <!-- $h_{t-1}$ -->
     <g transform="translate(674.053125 213.497469) scale(0.09 -0.09)">
      <use xlink:href="#DejaVuSans-Oblique-68" transform="translate(0 0.015625)"/>
      <use xlink:href="#DejaVuSans-Oblique-74" transform="translate(63.378906 -16.390625) scale(0.7)"/>
      <use xlink:href="#DejaVuSans-2212" transform="translate(104.462891 -16.390625) scale(0.7)"/>
      <use xlink:href="#DejaVuSans-31" transform="translate(176.75293 -16.390625) scale(0.7)"/>
     </g>
    </g>
   </g>
  </g>
 </g>
 <defs>
  <clipPath id="p331246736c">
   <rect x="43.803125" y="21.558281" width="658.6" height="128.828"/>
  </clipPath>
  <clipPath id="pdfc786e963">
   <rect x="43.803125" y="185.330281" width="658.6" height="128.828"/>
  </clipPath>
 </defs>
</svg>
