<?xml version="1.0" encoding="utf-8" standalone="no"?>
<!DOCTYPE svg PUBLIC "-//W3C//DTD SVG 1.1//EN"
  "http://www.w3.org/Graphics/SVG/1.1/DTD/svg11.dtd">
<svg xmlns:xlink="http://www.w3.org/1999/xlink" width="709.603125pt" height="366.39625pt" viewBox="0 0 709.603125 366.39625" xmlns="http://www.w3.org/2000/svg" version="1.1">
 <metadata>
  <rdf:RDF xmlns:dc="http://purl.org/dc/elements/1.1/" xmlns:cc="http://creativecommons.org/ns#" xmlns:rdf="http://www.w3.org/1999/02/22-rdf-syntax-ns#">
   <cc:Work>
    <dc:type rdf:resource="http://purl.org/dc/dcmitype/StillImage"/>
    <dc:date>2026-06-10T15:16:52.935425</dc:date>
    <dc:format>image/svg+xml</dc:format>
    <dc:creator>
     <cc:Agent>
      <dc:title>Matplotlib v3.10.0, https://matplotlib.org/</dc:title>
     </cc:Agent>
    </dc:creator>
   </cc:Work>
  </rdf:RDF>
 </metadata>
 <defs>
  <style type="text/css">*{stroke-linejoin: round; stroke-linecap: butt}</style>
 </defs>
 <g id="figure_1">
  <g id="patch_1">
   <path d="M 0 366.39625 
L 709.603125 366.39625 
L 709.603125 0 
L 0 0 
z
" style="fill: #ffffff"/>
  </g>
  <g id="axes_1">
   <g id="patch_2">
    <path d="M 43.803125 165.068 
L 702.403125 165.068 
L 702.403125 36.24 
L 43.803125 36.24 
z
" style="fill: #ffffff"/>
   </g>
   <g id="patch_3">
    <path d="M 73.739489 165.068 
L 110.439059 165.068 
L 110.439059 102.148342 
L 73.739489 102.148342 
z
" clip-path="url(#pc614b68062)" style="fill: #1f77b4; opacity: 0.8"/>
   </g>
   <g id="patch_4">
    <path d="M 178.595403 165.068 
L 215.294973 165.068 
L 215.294973 42.374667 
L 178.595403 42.374667 
z
" clip-path="url(#pc614b68062)" style="fill: #1f77b4; opacity: 0.8"/>
   </g>
   <g id="patch_5">
    <path d="M 283.451318 165.068 
L 320.150888 165.068 
L 320.150888 113.112092 
L 283.451318 113.112092 
z
" clip-path="url(#pc614b68062)" style="fill: #1f77b4; opacity: 0.8"/>
   </g>
   <g id="patch_6">
    <path d="M 388.307233 165.068 
L 425.006803 165.068 
L 425.006803 68.350497 
L 388.307233 68.350497 
z
" clip-path="url(#pc614b68062)" style="fill: #1f77b4; opacity: 0.8"/>
   </g>
   <g id="patch_7">
    <path d="M 493.163147 165.068 
L 529.862717 165.068 
L 529.862717 44.80326 
L 493.163147 44.80326 
z
" clip-path="url(#pc614b68062)" style="fill: #1f77b4; opacity: 0.8"/>
   </g>
   <g id="patch_8">
    <path d="M 598.019062 165.068 
L 634.718632 165.068 
L 634.718632 83.459558 
L 598.019062 83.459558 
z
" clip-path="url(#pc614b68062)" style="fill: #1f77b4; opacity: 0.8"/>
   </g>
   <g id="patch_9">
    <path d="M 111.487618 165.068 
L 148.187188 165.068 
L 148.187188 102.148342 
L 111.487618 102.148342 
z
" clip-path="url(#pc614b68062)" style="fill: #ff7f0e; opacity: 0.8"/>
   </g>
   <g id="patch_10">
    <path d="M 216.343533 165.068 
L 253.043103 165.068 
L 253.043103 47.093641 
L 216.343533 47.093641 
z
" clip-path="url(#pc614b68062)" style="fill: #ff7f0e; opacity: 0.8"/>
   </g>
   <g id="patch_11">
    <path d="M 321.199447 165.068 
L 357.899017 165.068 
L 357.899017 129.675692 
L 321.199447 129.675692 
z
" clip-path="url(#pc614b68062)" style="fill: #ff7f0e; opacity: 0.8"/>
   </g>
   <g id="patch_12">
    <path d="M 426.055362 165.068 
L 462.754932 165.068 
L 462.754932 70.688513 
L 426.055362 70.688513 
z
" clip-path="url(#pc614b68062)" style="fill: #ff7f0e; opacity: 0.8"/>
   </g>
   <g id="patch_13">
    <path d="M 530.911277 165.068 
L 567.610847 165.068 
L 567.610847 54.958598 
L 530.911277 54.958598 
z
" clip-path="url(#pc614b68062)" style="fill: #ff7f0e; opacity: 0.8"/>
   </g>
   <g id="patch_14">
    <path d="M 635.767191 165.068 
L 672.466761 165.068 
L 672.466761 94.283385 
L 635.767191 94.283385 
z
" clip-path="url(#pc614b68062)" style="fill: #ff7f0e; opacity: 0.8"/>
   </g>
   <g id="matplotlib.axis_1">
    <g id="xtick_1">
     <g id="line2d_1">
      <defs>
       <path id="mf1985d5894" d="M 0 0 
L 0 3.5 
" style="stroke: #000000; stroke-width: 0.8"/>
      </defs>
      <g>
       <use xlink:href="#mf1985d5894" x="110.963338" y="165.068" style="stroke: #000000; stroke-width: 0.8"/>
      </g>
     </g>
    </g>
    <g id="xtick_2">
     <g id="line2d_2">
      <g>
       <use xlink:href="#mf1985d5894" x="215.819253" y="165.068" style="stroke: #000000; stroke-width: 0.8"/>
      </g>
     </g>
    </g>
    <g id="xtick_3">
     <g id="line2d_3">
      <g>
       <use xlink:href="#mf1985d5894" x="320.675168" y="165.068" style="stroke: #000000; stroke-width: 0.8"/>
      </g>
     </g>
    </g>
    <g id="xtick_4">
     <g id="line2d_4">
      <g>
       <use xlink:href="#mf1985d5894" x="425.531082" y="165.068" style="stroke: #000000; stroke-width: 0.8"/>
      </g>
     </g>
    </g>
    <g id="xtick_5">
     <g id="line2d_5">
      <g>
       <use xlink:href="#mf1985d5894" x="530.386997" y="165.068" style="stroke: #000000; stroke-width: 0.8"/>
      </g>
     </g>
    </g>
    <g id="xtick_6">
     <g id="line2d_6">
      <g>
       <use xlink:href="#mf1985d5894" x="635.242912" y="165.068" style="stroke: #000000; stroke-width: 0.8"/>
      </g>
     </g>
    </g>
   </g>
   <g id="matplotlib.axis_2">
    <g id="ytick_1">
     <g id="line2d_7">
      <defs>
       <path id="m8758348e6d" d="M 0 0 
L -3.5 0 
" style="stroke: #000000; stroke-width: 0.8"/>
      </defs>
      <g>
       <use xlink:href="#m8758348e6d" x="43.803125" y="165.068" style="stroke: #000000; stroke-width: 0.8"/>
      </g>
     </g>
     <g id="text_1">
      <!-- 0.0 -->
      <g transform="translate(20.9 168.867219) scale(0.1 -0.1)">
       <defs>
        <path id="DejaVuSans-30" d="M 2034 4250 
Q 1547 4250 1301 3770 
Q 1056 3291 1056 2328 
Q 1056 1369 1301 889 
Q 1547 409 2034 409 
Q 2525 409 2770 889 
Q 3016 1369 3016 2328 
Q 3016 3291 2770 3770 
Q 2525 4250 2034 4250 
z
M 2034 4750 
Q 2819 4750 3233 4129 
Q 3647 3509 3647 2328 
Q 3647 1150 3233 529 
Q 2819 -91 2034 -91 
Q 1250 -91 836 529 
Q 422 1150 422 2328 
Q 422 3509 836 4129 
Q 1250 4750 2034 4750 
z
" transform="scale(0.015625)"/>
        <path id="DejaVuSans-2e" d="M 684 794 
L 1344 794 
L 1344 0 
L 684 0 
L 684 794 
z
" transform="scale(0.015625)"/>
       </defs>
       <use xlink:href="#DejaVuSans-30"/>
       <use xlink:href="#DejaVuSans-2e" transform="translate(63.623047 0)"/>
       <use xlink:href="#DejaVuSans-30" transform="translate(95.410156 0)"/>
      </g>
     </g>
    </g>
    <g id="ytick_2">
     <g id="line2d_8">
      <g>
       <use xlink:href="#m8758348e6d" x="43.803125" y="125.743214" style="stroke: #000000; stroke-width: 0.8"/>
      </g>
     </g>
     <g id="text_2">
      <!-- 0.1 -->
      <g transform="translate(20.9 129.542432) scale(0.1 -0.1)">
       <defs>
        <path id="DejaVuSans-31" d="M 794 531 
L 1825 531 
L 1825 4091 
L 703 3866 
L 703 4441 
L 1819 4666 
L 2450 4666 
L 2450 531 
L 3481 531 
L 3481 0 
L 794 0 
L 794 531 
z
" transform="scale(0.015625)"/>
       </defs>
       <use xlink:href="#DejaVuSans-30"/>
       <use xlink:href="#DejaVuSans-2e" transform="translate(63.623047 0)"/>
       <use xlink:href="#DejaVuSans-31" transform="translate(95.410156 0)"/>
      </g>
     </g>
    </g>
    <g id="ytick_3">
     <g id="line2d_9">
      <g>
       <use xlink:href="#m8758348e6d" x="43.803125" y="86.418427" style="stroke: #000000; stroke-width: 0.8"/>
      </g>
     </g>
     <g id="text_3">
      <!-- 0.2 -->
      <g transform="translate(20.9 90.217646) scale(0.1 -0.1)">
       <defs>
        <path id="DejaVuSans-32" d="M 1228 531 
L 3431 531 
L 3431 0 
L 469 0 
L 469 531 
Q 828 903 1448 1529 
Q 2069 2156 2228 2338 
Q 2531 2678 2651 2914 
Q 2772 3150 2772 3378 
Q 2772 3750 2511 3984 
Q 2250 4219 1831 4219 
Q 1534 4219 1204 4116 
Q 875 4013 500 3803 
L 500 4441 
Q 881 4594 1212 4672 
Q 1544 4750 1819 4750 
Q 2544 4750 2975 4387 
Q 3406 4025 3406 3419 
Q 3406 3131 3298 2873 
Q 3191 2616 2906 2266 
Q 2828 2175 2409 1742 
Q 1991 1309 1228 531 
z
" transform="scale(0.015625)"/>
       </defs>
       <use xlink:href="#DejaVuSans-30"/>
       <use xlink:href="#DejaVuSans-2e" transform="translate(63.623047 0)"/>
       <use xlink:href="#DejaVuSans-32" transform="translate(95.410156 0)"/>
      </g>
     </g>
    </g>
    <g id="ytick_4">
     <g id="line2d_10">
      <g>
       <use xlink:href="#m8758348e6d" x="43.803125" y="47.093641" style="stroke: #000000; stroke-width: 0.8"/>
      </g>
     </g>
     <g id="text_4">
      <!-- 0.3 -->
      <g transform="translate(20.9 50.89286) scale(0.1 -0.1)">
       <defs>
        <path id="DejaVuSans-33" d="M 2597 2516 
Q 3050 2419 3304 2112 
Q 3559 1806 3559 1356 
Q 3559 666 3084 287 
Q 2609 -91 1734 -91 
Q 1441 -91 1130 -33 
Q 819 25 488 141 
L 488 750 
Q 750 597 1062 519 
Q 1375 441 1716 441 
Q 2309 441 2620 675 
Q 2931 909 2931 1356 
Q 2931 1769 2642 2001 
Q 2353 2234 1838 2234 
L 1294 2234 
L 1294 2753 
L 1863 2753 
Q 2328 2753 2575 2939 
Q 2822 3125 2822 3475 
Q 2822 3834 2567 4026 
Q 2313 4219 1838 4219 
Q 1578 4219 1281 4162 
Q 984 4106 628 3988 
L 628 4550 
Q 988 4650 1302 4700 
Q 1616 4750 1894 4750 
Q 2613 4750 3031 4423 
Q 3450 4097 3450 3541 
Q 3450 3153 3228 2886 
Q 3006 2619 2597 2516 
z
" transform="scale(0.015625)"/>
       </defs>
       <use xlink:href="#DejaVuSans-30"/>
       <use xlink:href="#DejaVuSans-2e" transform="translate(63.623047 0)"/>
       <use xlink:href="#DejaVuSans-33" transform="translate(95.410156 0)"/>
      </g>
     </g>
    </g>
    <g id="text_5">
     <!-- $\varepsilon_t[i,j]$ -->
     <g transform="translate(14.8 114.154) rotate(-90) scale(0.1 -0.1)">
      <defs>
       <path id="DejaVuSans-Oblique-3b5" d="M 1263 1888 
Q 925 1963 778 2166 
Q 669 2309 669 2503 
Q 669 3034 1175 3344 
Q 1575 3588 2188 3588 
Q 2425 3588 2684 3550 
Q 2944 3513 3234 3438 
L 3134 2916 
Q 2847 3006 2606 3047 
Q 2359 3088 2138 3088 
Q 1766 3088 1522 2944 
Q 1228 2772 1228 2522 
Q 1228 2356 1381 2241 
Q 1563 2103 1925 2103 
L 2409 2103 
L 2319 1628 
L 1856 1628 
Q 1425 1628 1172 1469 
Q 828 1253 828 916 
Q 828 703 1013 563 
Q 1244 388 1716 388 
Q 2006 388 2284 444 
Q 2563 503 2806 619 
L 2700 84 
Q 2403 -3 2131 -47 
Q 1859 -91 1609 -91 
Q 866 -91 516 194 
Q 250 413 250 781 
Q 250 1278 600 1584 
Q 859 1813 1263 1888 
z
" transform="scale(0.015625)"/>
       <path id="DejaVuSans-Oblique-74" d="M 2706 3500 
L 2619 3053 
L 1472 3053 
L 1100 1153 
Q 1081 1047 1072 975 
Q 1063 903 1063 863 
Q 1063 663 1183 572 
Q 1303 481 1569 481 
L 2150 481 
L 2053 0 
L 1503 0 
Q 991 0 739 200 
Q 488 400 488 806 
Q 488 878 497 964 
Q 506 1050 525 1153 
L 897 3053 
L 409 3053 
L 500 3500 
L 978 3500 
L 1172 4494 
L 1747 4494 
L 1556 3500 
L 2706 3500 
z
" transform="scale(0.015625)"/>
       <path id="DejaVuSans-5b" d="M 550 4863 
L 1875 4863 
L 1875 4416 
L 1125 4416 
L 1125 -397 
L 1875 -397 
L 1875 -844 
L 550 -844 
L 550 4863 
z
" transform="scale(0.015625)"/>
       <path id="DejaVuSans-Oblique-69" d="M 1172 4863 
L 1747 4863 
L 1606 4134 
L 1031 4134 
L 1172 4863 
z
M 909 3500 
L 1484 3500 
L 800 0 
L 225 0 
L 909 3500 
z
" transform="scale(0.015625)"/>
       <path id="DejaVuSans-2c" d="M 750 794 
L 1409 794 
L 1409 256 
L 897 -744 
L 494 -744 
L 750 256 
L 750 794 
z
" transform="scale(0.015625)"/>
       <path id="DejaVuSans-Oblique-6a" d="M 928 3500 
L 1503 3500 
L 813 -63 
L 809 -78 
Q 694 -675 544 -897 
Q 403 -1106 132 -1218 
Q -138 -1331 -506 -1331 
L -722 -1331 
L -628 -844 
L -481 -844 
Q -144 -844 -1 -703 
Q 141 -563 238 -63 
L 928 3500 
z
M 1197 4863 
L 1772 4863 
L 1631 4134 
L 1056 4134 
L 1197 4863 
z
" transform="scale(0.015625)"/>
       <path id="DejaVuSans-5d" d="M 1947 4863 
L 1947 -844 
L 622 -844 
L 622 -397 
L 1369 -397 
L 1369 4416 
L 622 4416 
L 622 4863 
L 1947 4863 
z
" transform="scale(0.015625)"/>
      </defs>
      <use xlink:href="#DejaVuSans-Oblique-3b5" transform="translate(0 0.015625)"/>
      <use xlink:href="#DejaVuSans-Oblique-74" transform="translate(54.052734 -16.390625) scale(0.7)"/>
      <use xlink:href="#DejaVuSans-5b" transform="translate(84.233398 0.015625)"/>
      <use xlink:href="#DejaVuSans-Oblique-69" transform="translate(123.24707 0.015625)"/>
      <use xlink:href="#DejaVuSans-2c" transform="translate(151.030273 0.015625)"/>
      <use xlink:href="#DejaVuSans-Oblique-6a" transform="translate(202.299805 0.015625)"/>
      <use xlink:href="#DejaVuSans-5d" transform="translate(230.083008 0.015625)"/>
     </g>
    </g>
   </g>
   <g id="line2d_11">
    <path d="M 43.803125 165.068 
L 702.403125 165.068 
" clip-path="url(#pc614b68062)" style="fill: none; stroke: #808080; stroke-width: 0.5; stroke-linecap: square"/>
   </g>
   <g id="patch_15">
    <path d="M 43.803125 165.068 
L 43.803125 36.24 
" style="fill: none; stroke: #000000; stroke-width: 0.8; stroke-linejoin: miter; stroke-linecap: square"/>
   </g>
   <g id="patch_16">
    <path d="M 702.403125 165.068 
L 702.403125 36.24 
" style="fill: none; stroke: #000000; stroke-width: 0.8; stroke-linejoin: miter; stroke-linecap: square"/>
   </g>
   <g id="patch_17">
    <path d="M 43.803125 165.068 
L 702.403125 165.068 
" style="fill: none; stroke: #000000; stroke-width: 0.8; stroke-linejoin: miter; stroke-linecap: square"/>
   </g>
   <g id="patch_18">
    <path d="M 43.803125 36.24 
L 702.403125 36.24 
" style="fill: none; stroke: #000000; stroke-width: 0.8; stroke-linejoin: miter; stroke-linecap: square"/>
   </g>
   <g id="text_6">
    <g id="patch_19">
     <path d="M 269.089844 51.117959 
L 477.116406 51.117959 
Q 479.816406 51.117959 479.816406 48.417959 
L 479.816406 29.591646 
Q 479.816406 26.891646 477.116406 26.891646 
L 269.089844 26.891646 
Q 266.389844 26.891646 266.389844 29.591646 
L 266.389844 48.417959 
Q 266.389844 51.117959 269.089844 51.117959 
z
" style="fill: #ffffe0; stroke: #daa520; stroke-linejoin: miter"/>
    </g>
    <!-- $\varepsilon_t[i,j] = \psi_t[i]\,h_{t-1}[j] + \psi_t[i]\,W_{rec}[i,i]\,\varepsilon_{t-1}[i,j]$ -->
    <g transform="translate(278.873125 36.449927) scale(0.09 -0.09)">
     <defs>
      <path id="DejaVuSans-3d" d="M 678 2906 
L 4684 2906 
L 4684 2381 
L 678 2381 
L 678 2906 
z
M 678 1631 
L 4684 1631 
L 4684 1100 
L 678 1100 
L 678 1631 
z
" transform="scale(0.015625)"/>
      <path id="DejaVuSans-Oblique-3c8" d="M 1591 -78 
Q 891 38 616 341 
Q 278 713 425 1472 
L 819 3500 
L 1400 3500 
L 1009 1494 
Q 900 922 1119 684 
Q 1313 478 1691 434 
L 2284 3500 
L 2856 3500 
L 2263 438 
Q 2681 481 2928 688 
Q 3247 950 3353 1497 
L 3741 3500 
L 4322 3500 
L 3928 1475 
Q 3775 688 3300 344 
Q 2872 34 2163 -75 
L 1919 -1331 
L 1347 -1331 
L 1591 -78 
z
" transform="scale(0.015625)"/>
      <path id="DejaVuSans-Oblique-68" d="M 3566 2113 
L 3156 0 
L 2578 0 
L 2988 2091 
Q 3016 2238 3031 2350 
Q 3047 2463 3047 2528 
Q 3047 2791 2881 2937 
Q 2716 3084 2419 3084 
Q 1956 3084 1617 2771 
Q 1278 2459 1178 1941 
L 800 0 
L 225 0 
L 1172 4863 
L 1747 4863 
L 1375 2950 
Q 1594 3244 1934 3414 
Q 2275 3584 2650 3584 
Q 3113 3584 3367 3334 
Q 3622 3084 3622 2631 
Q 3622 2519 3608 2391 
Q 3594 2263 3566 2113 
z
" transform="scale(0.015625)"/>
      <path id="DejaVuSans-2212" d="M 678 2272 
L 4684 2272 
L 4684 1741 
L 678 1741 
L 678 2272 
z
" transform="scale(0.015625)"/>
      <path id="DejaVuSans-2b" d="M 2944 4013 
L 2944 2272 
L 4684 2272 
L 4684 1741 
L 2944 1741 
L 2944 0 
L 2419 0 
L 2419 1741 
L 678 1741 
L 678 2272 
L 2419 2272 
L 2419 4013 
L 2944 4013 
z
" transform="scale(0.015625)"/>
      <path id="DejaVuSans-Oblique-57" d="M 616 4666 
L 1228 4666 
L 1453 697 
L 3213 4666 
L 3916 4666 
L 4147 697 
L 5888 4666 
L 6528 4666 
L 4453 0 
L 3659 0 
L 3444 3891 
L 1697 0 
L 903 0 
L 616 4666 
z
" transform="scale(0.015625)"/>
      <path id="DejaVuSans-Oblique-72" d="M 2853 2969 
Q 2766 3016 2653 3041 
Q 2541 3066 2413 3066 
Q 1953 3066 1609 2717 
Q 1266 2369 1153 1784 
L 800 0 
L 225 0 
L 909 3500 
L 1484 3500 
L 1375 2956 
Q 1603 3259 1920 3421 
Q 2238 3584 2597 3584 
Q 2691 3584 2781 3573 
Q 2872 3563 2963 3538 
L 2853 2969 
z
" transform="scale(0.015625)"/>
      <path id="DejaVuSans-Oblique-65" d="M 3078 2063 
Q 3088 2113 3092 2166 
Q 3097 2219 3097 2272 
Q 3097 2653 2873 2875 
Q 2650 3097 2266 3097 
Q 1838 3097 1509 2826 
Q 1181 2556 1013 2059 
L 3078 2063 
z
M 3578 1613 
L 903 1613 
Q 884 1494 878 1425 
Q 872 1356 872 1306 
Q 872 872 1139 634 
Q 1406 397 1894 397 
Q 2269 397 2603 481 
Q 2938 566 3225 728 
L 3116 159 
Q 2806 34 2476 -28 
Q 2147 -91 1806 -91 
Q 1078 -91 686 257 
Q 294 606 294 1247 
Q 294 1794 489 2264 
Q 684 2734 1063 3103 
Q 1306 3334 1642 3459 
Q 1978 3584 2356 3584 
Q 2950 3584 3301 3228 
Q 3653 2872 3653 2272 
Q 3653 2128 3634 1964 
Q 3616 1800 3578 1613 
z
" transform="scale(0.015625)"/>
      <path id="DejaVuSans-Oblique-63" d="M 3431 3366 
L 3316 2797 
Q 3109 2947 2876 3022 
Q 2644 3097 2394 3097 
Q 2119 3097 1870 3000 
Q 1622 2903 1453 2725 
Q 1184 2453 1037 2087 
Q 891 1722 891 1331 
Q 891 859 1127 628 
Q 1363 397 1844 397 
Q 2081 397 2348 469 
Q 2616 541 2906 684 
L 2797 116 
Q 2547 13 2283 -39 
Q 2019 -91 1741 -91 
Q 1044 -91 669 257 
Q 294 606 294 1253 
Q 294 1797 489 2255 
Q 684 2713 1069 3078 
Q 1331 3328 1684 3456 
Q 2038 3584 2456 3584 
Q 2700 3584 2940 3529 
Q 3181 3475 3431 3366 
z
" transform="scale(0.015625)"/>
     </defs>
     <use xlink:href="#DejaVuSans-Oblique-3b5" transform="translate(0 0.015625)"/>
     <use xlink:href="#DejaVuSans-Oblique-74" transform="translate(54.052734 -16.390625) scale(0.7)"/>
     <use xlink:href="#DejaVuSans-5b" transform="translate(84.233398 0.015625)"/>
     <use xlink:href="#DejaVuSans-Oblique-69" transform="translate(123.24707 0.015625)"/>
     <use xlink:href="#DejaVuSans-2c" transform="translate(151.030273 0.015625)"/>
     <use xlink:href="#DejaVuSans-Oblique-6a" transform="translate(202.299805 0.015625)"/>
     <use xlink:href="#DejaVuSans-5d" transform="translate(230.083008 0.015625)"/>
     <use xlink:href="#DejaVuSans-3d" transform="translate(288.579102 0.015625)"/>
     <use xlink:href="#DejaVuSans-Oblique-3c8" transform="translate(391.850586 0.015625)"/>
     <use xlink:href="#DejaVuSans-Oblique-74" transform="translate(457.817383 -16.390625) scale(0.7)"/>
     <use xlink:href="#DejaVuSans-5b" transform="translate(487.998047 0.015625)"/>
     <use xlink:href="#DejaVuSans-Oblique-69" transform="translate(527.011719 0.015625)"/>
     <use xlink:href="#DejaVuSans-5d" transform="translate(554.794922 0.015625)"/>
     <use xlink:href="#DejaVuSans-Oblique-68" transform="translate(610.04427 0.015625)"/>
     <use xlink:href="#DejaVuSans-Oblique-74" transform="translate(673.423176 -16.390625) scale(0.7)"/>
     <use xlink:href="#DejaVuSans-2212" transform="translate(714.507161 -16.390625) scale(0.7)"/>
     <use xlink:href="#DejaVuSans-31" transform="translate(786.7972 -16.390625) scale(0.7)"/>
     <use xlink:href="#DejaVuSans-5b" transform="translate(834.067708 0.015625)"/>
     <use xlink:href="#DejaVuSans-Oblique-6a" transform="translate(873.081379 0.015625)"/>
     <use xlink:href="#DejaVuSans-5d" transform="translate(900.864583 0.015625)"/>
     <use xlink:href="#DejaVuSans-2b" transform="translate(959.360676 0.015625)"/>
     <use xlink:href="#DejaVuSans-Oblique-3c8" transform="translate(1062.632161 0.015625)"/>
     <use xlink:href="#DejaVuSans-Oblique-74" transform="translate(1128.598958 -16.390625) scale(0.7)"/>
     <use xlink:href="#DejaVuSans-5b" transform="translate(1158.779622 0.015625)"/>
     <use xlink:href="#DejaVuSans-Oblique-69" transform="translate(1197.793293 0.015625)"/>
     <use xlink:href="#DejaVuSans-5d" transform="translate(1225.576497 0.015625)"/>
     <use xlink:href="#DejaVuSans-Oblique-57" transform="translate(1280.825845 0.015625)"/>
     <use xlink:href="#DejaVuSans-Oblique-72" transform="translate(1379.702798 -16.390625) scale(0.7)"/>
     <use xlink:href="#DejaVuSans-Oblique-65" transform="translate(1408.482095 -16.390625) scale(0.7)"/>
     <use xlink:href="#DejaVuSans-Oblique-63" transform="translate(1451.548501 -16.390625) scale(0.7)"/>
     <use xlink:href="#DejaVuSans-5b" transform="translate(1492.769204 0.015625)"/>
     <use xlink:href="#DejaVuSans-Oblique-69" transform="translate(1531.782876 0.015625)"/>
     <use xlink:href="#DejaVuSans-2c" transform="translate(1559.566079 0.015625)"/>
     <use xlink:href="#DejaVuSans-Oblique-69" transform="translate(1610.83561 0.015625)"/>
     <use xlink:href="#DejaVuSans-5d" transform="translate(1638.618813 0.015625)"/>
     <use xlink:href="#DejaVuSans-Oblique-3b5" transform="translate(1693.868162 0.015625)"/>
     <use xlink:href="#DejaVuSans-Oblique-74" transform="translate(1747.920896 -16.390625) scale(0.7)"/>
     <use xlink:href="#DejaVuSans-2212" transform="translate(1789.00488 -16.390625) scale(0.7)"/>
     <use xlink:href="#DejaVuSans-31" transform="translate(1861.294919 -16.390625) scale(0.7)"/>
     <use xlink:href="#DejaVuSans-5b" transform="translate(1908.565427 0.015625)"/>
     <use xlink:href="#DejaVuSans-Oblique-69" transform="translate(1947.579099 0.015625)"/>
     <use xlink:href="#DejaVuSans-2c" transform="translate(1975.362302 0.015625)"/>
     <use xlink:href="#DejaVuSans-Oblique-6a" transform="translate(2026.631833 0.015625)"/>
     <use xlink:href="#DejaVuSans-5d" transform="translate(2054.415037 0.015625)"/>
    </g>
    <!-- (carry factor = diagonal of recurrent Jacobian) -->
    <g transform="translate(269.089844 46.54624) scale(0.09 -0.09)">
     <defs>
      <path id="DejaVuSans-28" d="M 1984 4856 
Q 1566 4138 1362 3434 
Q 1159 2731 1159 2009 
Q 1159 1288 1364 580 
Q 1569 -128 1984 -844 
L 1484 -844 
Q 1016 -109 783 600 
Q 550 1309 550 2009 
Q 550 2706 781 3412 
Q 1013 4119 1484 4856 
L 1984 4856 
z
" transform="scale(0.015625)"/>
      <path id="DejaVuSans-63" d="M 3122 3366 
L 3122 2828 
Q 2878 2963 2633 3030 
Q 2388 3097 2138 3097 
Q 1578 3097 1268 2742 
Q 959 2388 959 1747 
Q 959 1106 1268 751 
Q 1578 397 2138 397 
Q 2388 397 2633 464 
Q 2878 531 3122 666 
L 3122 134 
Q 2881 22 2623 -34 
Q 2366 -91 2075 -91 
Q 1284 -91 818 406 
Q 353 903 353 1747 
Q 353 2603 823 3093 
Q 1294 3584 2113 3584 
Q 2378 3584 2631 3529 
Q 2884 3475 3122 3366 
z
" transform="scale(0.015625)"/>
      <path id="DejaVuSans-61" d="M 2194 1759 
Q 1497 1759 1228 1600 
Q 959 1441 959 1056 
Q 959 750 1161 570 
Q 1363 391 1709 391 
Q 2188 391 2477 730 
Q 2766 1069 2766 1631 
L 2766 1759 
L 2194 1759 
z
M 3341 1997 
L 3341 0 
L 2766 0 
L 2766 531 
Q 2569 213 2275 61 
Q 1981 -91 1556 -91 
Q 1019 -91 701 211 
Q 384 513 384 1019 
Q 384 1609 779 1909 
Q 1175 2209 1959 2209 
L 2766 2209 
L 2766 2266 
Q 2766 2663 2505 2880 
Q 2244 3097 1772 3097 
Q 1472 3097 1187 3025 
Q 903 2953 641 2809 
L 641 3341 
Q 956 3463 1253 3523 
Q 1550 3584 1831 3584 
Q 2591 3584 2966 3190 
Q 3341 2797 3341 1997 
z
" transform="scale(0.015625)"/>
      <path id="DejaVuSans-72" d="M 2631 2963 
Q 2534 3019 2420 3045 
Q 2306 3072 2169 3072 
Q 1681 3072 1420 2755 
Q 1159 2438 1159 1844 
L 1159 0 
L 581 0 
L 581 3500 
L 1159 3500 
L 1159 2956 
Q 1341 3275 1631 3429 
Q 1922 3584 2338 3584 
Q 2397 3584 2469 3576 
Q 2541 3569 2628 3553 
L 2631 2963 
z
" transform="scale(0.015625)"/>
      <path id="DejaVuSans-79" d="M 2059 -325 
Q 1816 -950 1584 -1140 
Q 1353 -1331 966 -1331 
L 506 -1331 
L 506 -850 
L 844 -850 
Q 1081 -850 1212 -737 
Q 1344 -625 1503 -206 
L 1606 56 
L 191 3500 
L 800 3500 
L 1894 763 
L 2988 3500 
L 3597 3500 
L 2059 -325 
z
" transform="scale(0.015625)"/>
      <path id="DejaVuSans-20" transform="scale(0.015625)"/>
      <path id="DejaVuSans-66" d="M 2375 4863 
L 2375 4384 
L 1825 4384 
Q 1516 4384 1395 4259 
Q 1275 4134 1275 3809 
L 1275 3500 
L 2222 3500 
L 2222 3053 
L 1275 3053 
L 1275 0 
L 697 0 
L 697 3053 
L 147 3053 
L 147 3500 
L 697 3500 
L 697 3744 
Q 697 4328 969 4595 
Q 1241 4863 1831 4863 
L 2375 4863 
z
" transform="scale(0.015625)"/>
      <path id="DejaVuSans-74" d="M 1172 4494 
L 1172 3500 
L 2356 3500 
L 2356 3053 
L 1172 3053 
L 1172 1153 
Q 1172 725 1289 603 
Q 1406 481 1766 481 
L 2356 481 
L 2356 0 
L 1766 0 
Q 1100 0 847 248 
Q 594 497 594 1153 
L 594 3053 
L 172 3053 
L 172 3500 
L 594 3500 
L 594 4494 
L 1172 4494 
z
" transform="scale(0.015625)"/>
      <path id="DejaVuSans-6f" d="M 1959 3097 
Q 1497 3097 1228 2736 
Q 959 2375 959 1747 
Q 959 1119 1226 758 
Q 1494 397 1959 397 
Q 2419 397 2687 759 
Q 2956 1122 2956 1747 
Q 2956 2369 2687 2733 
Q 2419 3097 1959 3097 
z
M 1959 3584 
Q 2709 3584 3137 3096 
Q 3566 2609 3566 1747 
Q 3566 888 3137 398 
Q 2709 -91 1959 -91 
Q 1206 -91 779 398 
Q 353 888 353 1747 
Q 353 2609 779 3096 
Q 1206 3584 1959 3584 
z
" transform="scale(0.015625)"/>
      <path id="DejaVuSans-64" d="M 2906 2969 
L 2906 4863 
L 3481 4863 
L 3481 0 
L 2906 0 
L 2906 525 
Q 2725 213 2448 61 
Q 2172 -91 1784 -91 
Q 1150 -91 751 415 
Q 353 922 353 1747 
Q 353 2572 751 3078 
Q 1150 3584 1784 3584 
Q 2172 3584 2448 3432 
Q 2725 3281 2906 2969 
z
M 947 1747 
Q 947 1113 1208 752 
Q 1469 391 1925 391 
Q 2381 391 2643 752 
Q 2906 1113 2906 1747 
Q 2906 2381 2643 2742 
Q 2381 3103 1925 3103 
Q 1469 3103 1208 2742 
Q 947 2381 947 1747 
z
" transform="scale(0.015625)"/>
      <path id="DejaVuSans-69" d="M 603 3500 
L 1178 3500 
L 1178 0 
L 603 0 
L 603 3500 
z
M 603 4863 
L 1178 4863 
L 1178 4134 
L 603 4134 
L 603 4863 
z
" transform="scale(0.015625)"/>
      <path id="DejaVuSans-67" d="M 2906 1791 
Q 2906 2416 2648 2759 
Q 2391 3103 1925 3103 
Q 1463 3103 1205 2759 
Q 947 2416 947 1791 
Q 947 1169 1205 825 
Q 1463 481 1925 481 
Q 2391 481 2648 825 
Q 2906 1169 2906 1791 
z
M 3481 434 
Q 3481 -459 3084 -895 
Q 2688 -1331 1869 -1331 
Q 1566 -1331 1297 -1286 
Q 1028 -1241 775 -1147 
L 775 -588 
Q 1028 -725 1275 -790 
Q 1522 -856 1778 -856 
Q 2344 -856 2625 -561 
Q 2906 -266 2906 331 
L 2906 616 
Q 2728 306 2450 153 
Q 2172 0 1784 0 
Q 1141 0 747 490 
Q 353 981 353 1791 
Q 353 2603 747 3093 
Q 1141 3584 1784 3584 
Q 2172 3584 2450 3431 
Q 2728 3278 2906 2969 
L 2906 3500 
L 3481 3500 
L 3481 434 
z
" transform="scale(0.015625)"/>
      <path id="DejaVuSans-6e" d="M 3513 2113 
L 3513 0 
L 2938 0 
L 2938 2094 
Q 2938 2591 2744 2837 
Q 2550 3084 2163 3084 
Q 1697 3084 1428 2787 
Q 1159 2491 1159 1978 
L 1159 0 
L 581 0 
L 581 3500 
L 1159 3500 
L 1159 2956 
Q 1366 3272 1645 3428 
Q 1925 3584 2291 3584 
Q 2894 3584 3203 3211 
Q 3513 2838 3513 2113 
z
" transform="scale(0.015625)"/>
      <path id="DejaVuSans-6c" d="M 603 4863 
L 1178 4863 
L 1178 0 
L 603 0 
L 603 4863 
z
" transform="scale(0.015625)"/>
      <path id="DejaVuSans-65" d="M 3597 1894 
L 3597 1613 
L 953 1613 
Q 991 1019 1311 708 
Q 1631 397 2203 397 
Q 2534 397 2845 478 
Q 3156 559 3463 722 
L 3463 178 
Q 3153 47 2828 -22 
Q 2503 -91 2169 -91 
Q 1331 -91 842 396 
Q 353 884 353 1716 
Q 353 2575 817 3079 
Q 1281 3584 2069 3584 
Q 2775 3584 3186 3129 
Q 3597 2675 3597 1894 
z
M 3022 2063 
Q 3016 2534 2758 2815 
Q 2500 3097 2075 3097 
Q 1594 3097 1305 2825 
Q 1016 2553 972 2059 
L 3022 2063 
z
" transform="scale(0.015625)"/>
      <path id="DejaVuSans-75" d="M 544 1381 
L 544 3500 
L 1119 3500 
L 1119 1403 
Q 1119 906 1312 657 
Q 1506 409 1894 409 
Q 2359 409 2629 706 
Q 2900 1003 2900 1516 
L 2900 3500 
L 3475 3500 
L 3475 0 
L 2900 0 
L 2900 538 
Q 2691 219 2414 64 
Q 2138 -91 1772 -91 
Q 1169 -91 856 284 
Q 544 659 544 1381 
z
M 1991 3584 
L 1991 3584 
z
" transform="scale(0.015625)"/>
      <path id="DejaVuSans-4a" d="M 628 4666 
L 1259 4666 
L 1259 325 
Q 1259 -519 939 -900 
Q 619 -1281 -91 -1281 
L -331 -1281 
L -331 -750 
L -134 -750 
Q 284 -750 456 -515 
Q 628 -281 628 325 
L 628 4666 
z
" transform="scale(0.015625)"/>
      <path id="DejaVuSans-62" d="M 3116 1747 
Q 3116 2381 2855 2742 
Q 2594 3103 2138 3103 
Q 1681 3103 1420 2742 
Q 1159 2381 1159 1747 
Q 1159 1113 1420 752 
Q 1681 391 2138 391 
Q 2594 391 2855 752 
Q 3116 1113 3116 1747 
z
M 1159 2969 
Q 1341 3281 1617 3432 
Q 1894 3584 2278 3584 
Q 2916 3584 3314 3078 
Q 3713 2572 3713 1747 
Q 3713 922 3314 415 
Q 2916 -91 2278 -91 
Q 1894 -91 1617 61 
Q 1341 213 1159 525 
L 1159 0 
L 581 0 
L 581 4863 
L 1159 4863 
L 1159 2969 
z
" transform="scale(0.015625)"/>
      <path id="DejaVuSans-29" d="M 513 4856 
L 1013 4856 
Q 1481 4119 1714 3412 
Q 1947 2706 1947 2009 
Q 1947 1309 1714 600 
Q 1481 -109 1013 -844 
L 513 -844 
Q 928 -128 1133 580 
Q 1338 1288 1338 2009 
Q 1338 2731 1133 3434 
Q 928 4138 513 4856 
z
" transform="scale(0.015625)"/>
     </defs>
     <use xlink:href="#DejaVuSans-28"/>
     <use xlink:href="#DejaVuSans-63" transform="translate(39.013672 0)"/>
     <use xlink:href="#DejaVuSans-61" transform="translate(93.994141 0)"/>
     <use xlink:href="#DejaVuSans-72" transform="translate(155.273438 0)"/>
     <use xlink:href="#DejaVuSans-72" transform="translate(194.636719 0)"/>
     <use xlink:href="#DejaVuSans-79" transform="translate(235.75 0)"/>
     <use xlink:href="#DejaVuSans-20" transform="translate(294.929688 0)"/>
     <use xlink:href="#DejaVuSans-66" transform="translate(326.716797 0)"/>
     <use xlink:href="#DejaVuSans-61" transform="translate(361.921875 0)"/>
     <use xlink:href="#DejaVuSans-63" transform="translate(423.201172 0)"/>
     <use xlink:href="#DejaVuSans-74" transform="translate(478.181641 0)"/>
     <use xlink:href="#DejaVuSans-6f" transform="translate(517.390625 0)"/>
     <use xlink:href="#DejaVuSans-72" transform="translate(578.572266 0)"/>
     <use xlink:href="#DejaVuSans-20" transform="translate(619.685547 0)"/>
     <use xlink:href="#DejaVuSans-3d" transform="translate(651.472656 0)"/>
     <use xlink:href="#DejaVuSans-20" transform="translate(735.261719 0)"/>
     <use xlink:href="#DejaVuSans-64" transform="translate(767.048828 0)"/>
     <use xlink:href="#DejaVuSans-69" transform="translate(830.525391 0)"/>
     <use xlink:href="#DejaVuSans-61" transform="translate(858.308594 0)"/>
     <use xlink:href="#DejaVuSans-67" transform="translate(919.587891 0)"/>
     <use xlink:href="#DejaVuSans-6f" transform="translate(983.064453 0)"/>
     <use xlink:href="#DejaVuSans-6e" transform="translate(1044.246094 0)"/>
     <use xlink:href="#DejaVuSans-61" transform="translate(1107.625 0)"/>
     <use xlink:href="#DejaVuSans-6c" transform="translate(1168.904297 0)"/>
     <use xlink:href="#DejaVuSans-20" transform="translate(1196.6875 0)"/>
     <use xlink:href="#DejaVuSans-6f" transform="translate(1228.474609 0)"/>
     <use xlink:href="#DejaVuSans-66" transform="translate(1289.65625 0)"/>
     <use xlink:href="#DejaVuSans-20" transform="translate(1324.861328 0)"/>
     <use xlink:href="#DejaVuSans-72" transform="translate(1356.648438 0)"/>
     <use xlink:href="#DejaVuSans-65" transform="translate(1395.511719 0)"/>
     <use xlink:href="#DejaVuSans-63" transform="translate(1457.035156 0)"/>
     <use xlink:href="#DejaVuSans-75" transform="translate(1512.015625 0)"/>
     <use xlink:href="#DejaVuSans-72" transform="translate(1575.394531 0)"/>
     <use xlink:href="#DejaVuSans-72" transform="translate(1614.757812 0)"/>
     <use xlink:href="#DejaVuSans-65" transform="translate(1653.621094 0)"/>
     <use xlink:href="#DejaVuSans-6e" transform="translate(1715.144531 0)"/>
     <use xlink:href="#DejaVuSans-74" transform="translate(1778.523438 0)"/>
     <use xlink:href="#DejaVuSans-20" transform="translate(1817.732422 0)"/>
     <use xlink:href="#DejaVuSans-4a" transform="translate(1849.519531 0)"/>
     <use xlink:href="#DejaVuSans-61" transform="translate(1879.011719 0)"/>
     <use xlink:href="#DejaVuSans-63" transform="translate(1940.291016 0)"/>
     <use xlink:href="#DejaVuSans-6f" transform="translate(1995.271484 0)"/>
     <use xlink:href="#DejaVuSans-62" transform="translate(2056.453125 0)"/>
     <use xlink:href="#DejaVuSans-69" transform="translate(2119.929688 0)"/>
     <use xlink:href="#DejaVuSans-61" transform="translate(2147.712891 0)"/>
     <use xlink:href="#DejaVuSans-6e" transform="translate(2208.992188 0)"/>
     <use xlink:href="#DejaVuSans-29" transform="translate(2272.371094 0)"/>
    </g>
   </g>
   <g id="text_7">
    <!-- Eligibility trace magnitude — e-prop vs d=0 -->
    <g transform="translate(252.556016 30.24) scale(0.11 -0.11)">
     <defs>
      <path id="DejaVuSans-45" d="M 628 4666 
L 3578 4666 
L 3578 4134 
L 1259 4134 
L 1259 2753 
L 3481 2753 
L 3481 2222 
L 1259 2222 
L 1259 531 
L 3634 531 
L 3634 0 
L 628 0 
L 628 4666 
z
" transform="scale(0.015625)"/>
      <path id="DejaVuSans-6d" d="M 3328 2828 
Q 3544 3216 3844 3400 
Q 4144 3584 4550 3584 
Q 5097 3584 5394 3201 
Q 5691 2819 5691 2113 
L 5691 0 
L 5113 0 
L 5113 2094 
Q 5113 2597 4934 2840 
Q 4756 3084 4391 3084 
Q 3944 3084 3684 2787 
Q 3425 2491 3425 1978 
L 3425 0 
L 2847 0 
L 2847 2094 
Q 2847 2600 2669 2842 
Q 2491 3084 2119 3084 
Q 1678 3084 1418 2786 
Q 1159 2488 1159 1978 
L 1159 0 
L 581 0 
L 581 3500 
L 1159 3500 
L 1159 2956 
Q 1356 3278 1631 3431 
Q 1906 3584 2284 3584 
Q 2666 3584 2933 3390 
Q 3200 3197 3328 2828 
z
" transform="scale(0.015625)"/>
      <path id="DejaVuSans-2014" d="M 313 1978 
L 6088 1978 
L 6088 1528 
L 313 1528 
L 313 1978 
z
" transform="scale(0.015625)"/>
      <path id="DejaVuSans-2d" d="M 313 2009 
L 1997 2009 
L 1997 1497 
L 313 1497 
L 313 2009 
z
" transform="scale(0.015625)"/>
      <path id="DejaVuSans-70" d="M 1159 525 
L 1159 -1331 
L 581 -1331 
L 581 3500 
L 1159 3500 
L 1159 2969 
Q 1341 3281 1617 3432 
Q 1894 3584 2278 3584 
Q 2916 3584 3314 3078 
Q 3713 2572 3713 1747 
Q 3713 922 3314 415 
Q 2916 -91 2278 -91 
Q 1894 -91 1617 61 
Q 1341 213 1159 525 
z
M 3116 1747 
Q 3116 2381 2855 2742 
Q 2594 3103 2138 3103 
Q 1681 3103 1420 2742 
Q 1159 2381 1159 1747 
Q 1159 1113 1420 752 
Q 1681 391 2138 391 
Q 2594 391 2855 752 
Q 3116 1113 3116 1747 
z
" transform="scale(0.015625)"/>
      <path id="DejaVuSans-76" d="M 191 3500 
L 800 3500 
L 1894 563 
L 2988 3500 
L 3597 3500 
L 2284 0 
L 1503 0 
L 191 3500 
z
" transform="scale(0.015625)"/>
      <path id="DejaVuSans-73" d="M 2834 3397 
L 2834 2853 
Q 2591 2978 2328 3040 
Q 2066 3103 1784 3103 
Q 1356 3103 1142 2972 
Q 928 2841 928 2578 
Q 928 2378 1081 2264 
Q 1234 2150 1697 2047 
L 1894 2003 
Q 2506 1872 2764 1633 
Q 3022 1394 3022 966 
Q 3022 478 2636 193 
Q 2250 -91 1575 -91 
Q 1294 -91 989 -36 
Q 684 19 347 128 
L 347 722 
Q 666 556 975 473 
Q 1284 391 1588 391 
Q 1994 391 2212 530 
Q 2431 669 2431 922 
Q 2431 1156 2273 1281 
Q 2116 1406 1581 1522 
L 1381 1569 
Q 847 1681 609 1914 
Q 372 2147 372 2553 
Q 372 3047 722 3315 
Q 1072 3584 1716 3584 
Q 2034 3584 2315 3537 
Q 2597 3491 2834 3397 
z
" transform="scale(0.015625)"/>
     </defs>
     <use xlink:href="#DejaVuSans-45"/>
     <use xlink:href="#DejaVuSans-6c" transform="translate(63.183594 0)"/>
     <use xlink:href="#DejaVuSans-69" transform="translate(90.966797 0)"/>
     <use xlink:href="#DejaVuSans-67" transform="translate(118.75 0)"/>
     <use xlink:href="#DejaVuSans-69" transform="translate(182.226562 0)"/>
     <use xlink:href="#DejaVuSans-62" transform="translate(210.009766 0)"/>
     <use xlink:href="#DejaVuSans-69" transform="translate(273.486328 0)"/>
     <use xlink:href="#DejaVuSans-6c" transform="translate(301.269531 0)"/>
     <use xlink:href="#DejaVuSans-69" transform="translate(329.052734 0)"/>
     <use xlink:href="#DejaVuSans-74" transform="translate(356.835938 0)"/>
     <use xlink:href="#DejaVuSans-79" transform="translate(396.044922 0)"/>
     <use xlink:href="#DejaVuSans-20" transform="translate(455.224609 0)"/>
     <use xlink:href="#DejaVuSans-74" transform="translate(487.011719 0)"/>
     <use xlink:href="#DejaVuSans-72" transform="translate(526.220703 0)"/>
     <use xlink:href="#DejaVuSans-61" transform="translate(567.333984 0)"/>
     <use xlink:href="#DejaVuSans-63" transform="translate(628.613281 0)"/>
     <use xlink:href="#DejaVuSans-65" transform="translate(683.59375 0)"/>
     <use xlink:href="#DejaVuSans-20" transform="translate(745.117188 0)"/>
     <use xlink:href="#DejaVuSans-6d" transform="translate(776.904297 0)"/>
     <use xlink:href="#DejaVuSans-61" transform="translate(874.316406 0)"/>
     <use xlink:href="#DejaVuSans-67" transform="translate(935.595703 0)"/>
     <use xlink:href="#DejaVuSans-6e" transform="translate(999.072266 0)"/>
     <use xlink:href="#DejaVuSans-69" transform="translate(1062.451172 0)"/>
     <use xlink:href="#DejaVuSans-74" transform="translate(1090.234375 0)"/>
     <use xlink:href="#DejaVuSans-75" transform="translate(1129.443359 0)"/>
     <use xlink:href="#DejaVuSans-64" transform="translate(1192.822266 0)"/>
     <use xlink:href="#DejaVuSans-65" transform="translate(1256.298828 0)"/>
     <use xlink:href="#DejaVuSans-20" transform="translate(1317.822266 0)"/>
     <use xlink:href="#DejaVuSans-2014" transform="translate(1349.609375 0)"/>
     <use xlink:href="#DejaVuSans-20" transform="translate(1449.609375 0)"/>
     <use xlink:href="#DejaVuSans-65" transform="translate(1481.396484 0)"/>
     <use xlink:href="#DejaVuSans-2d" transform="translate(1542.919922 0)"/>
     <use xlink:href="#DejaVuSans-70" transform="translate(1579.003906 0)"/>
     <use xlink:href="#DejaVuSans-72" transform="translate(1642.480469 0)"/>
     <use xlink:href="#DejaVuSans-6f" transform="translate(1681.34375 0)"/>
     <use xlink:href="#DejaVuSans-70" transform="translate(1742.525391 0)"/>
     <use xlink:href="#DejaVuSans-20" transform="translate(1806.001953 0)"/>
     <use xlink:href="#DejaVuSans-76" transform="translate(1837.789062 0)"/>
     <use xlink:href="#DejaVuSans-73" transform="translate(1896.96875 0)"/>
     <use xlink:href="#DejaVuSans-20" transform="translate(1949.068359 0)"/>
     <use xlink:href="#DejaVuSans-64" transform="translate(1980.855469 0)"/>
     <use xlink:href="#DejaVuSans-3d" transform="translate(2044.332031 0)"/>
     <use xlink:href="#DejaVuSans-30" transform="translate(2128.121094 0)"/>
    </g>
   </g>
   <g id="legend_1">
    <g id="patch_20">
     <path d="M 586.182188 69.860625 
L 696.103125 69.860625 
Q 697.903125 69.860625 697.903125 68.060625 
L 697.903125 42.54 
Q 697.903125 40.74 696.103125 40.74 
L 586.182188 40.74 
Q 584.382188 40.74 584.382188 42.54 
L 584.382188 68.060625 
Q 584.382188 69.860625 586.182188 69.860625 
z
" style="fill: #ffffff; opacity: 0.8; stroke: #cccccc; stroke-linejoin: miter"/>
    </g>
    <g id="patch_21">
     <path d="M 587.982188 51.178594 
L 605.982188 51.178594 
L 605.982188 44.878594 
L 587.982188 44.878594 
z
" style="fill: #1f77b4; opacity: 0.8"/>
    </g>
    <g id="text_8">
     <!-- e-prop (carry ≠ 0) -->
     <g transform="translate(613.182188 51.178594) scale(0.09 -0.09)">
      <defs>
       <path id="DejaVuSans-2260" d="M 678 2906 
L 3091 2906 
L 3891 3891 
L 4281 3572 
L 3738 2906 
L 4684 2906 
L 4684 2381 
L 3309 2381 
L 2700 1631 
L 4684 1631 
L 4684 1100 
L 2266 1100 
L 1459 122 
L 1069 441 
L 1613 1100 
L 678 1100 
L 678 1631 
L 2047 1631 
L 2656 2381 
L 678 2381 
L 678 2906 
z
" transform="scale(0.015625)"/>
      </defs>
      <use xlink:href="#DejaVuSans-65"/>
      <use xlink:href="#DejaVuSans-2d" transform="translate(61.523438 0)"/>
      <use xlink:href="#DejaVuSans-70" transform="translate(97.607422 0)"/>
      <use xlink:href="#DejaVuSans-72" transform="translate(161.083984 0)"/>
      <use xlink:href="#DejaVuSans-6f" transform="translate(199.947266 0)"/>
      <use xlink:href="#DejaVuSans-70" transform="translate(261.128906 0)"/>
      <use xlink:href="#DejaVuSans-20" transform="translate(324.605469 0)"/>
      <use xlink:href="#DejaVuSans-28" transform="translate(356.392578 0)"/>
      <use xlink:href="#DejaVuSans-63" transform="translate(395.40625 0)"/>
      <use xlink:href="#DejaVuSans-61" transform="translate(450.386719 0)"/>
      <use xlink:href="#DejaVuSans-72" transform="translate(511.666016 0)"/>
      <use xlink:href="#DejaVuSans-72" transform="translate(551.029297 0)"/>
      <use xlink:href="#DejaVuSans-79" transform="translate(592.142578 0)"/>
      <use xlink:href="#DejaVuSans-20" transform="translate(651.322266 0)"/>
      <use xlink:href="#DejaVuSans-2260" transform="translate(683.109375 0)"/>
      <use xlink:href="#DejaVuSans-20" transform="translate(766.898438 0)"/>
      <use xlink:href="#DejaVuSans-30" transform="translate(798.685547 0)"/>
      <use xlink:href="#DejaVuSans-29" transform="translate(862.308594 0)"/>
     </g>
    </g>
    <g id="patch_22">
     <path d="M 587.982188 64.388906 
L 605.982188 64.388906 
L 605.982188 58.088906 
L 587.982188 58.088906 
z
" style="fill: #ff7f0e; opacity: 0.8"/>
    </g>
    <g id="text_9">
     <!-- d=0 (no carry) -->
     <g transform="translate(613.182188 64.388906) scale(0.09 -0.09)">
      <use xlink:href="#DejaVuSans-64"/>
      <use xlink:href="#DejaVuSans-3d" transform="translate(63.476562 0)"/>
      <use xlink:href="#DejaVuSans-30" transform="translate(147.265625 0)"/>
      <use xlink:href="#DejaVuSans-20" transform="translate(210.888672 0)"/>
      <use xlink:href="#DejaVuSans-28" transform="translate(242.675781 0)"/>
      <use xlink:href="#DejaVuSans-6e" transform="translate(281.689453 0)"/>
      <use xlink:href="#DejaVuSans-6f" transform="translate(345.068359 0)"/>
      <use xlink:href="#DejaVuSans-20" transform="translate(406.25 0)"/>
      <use xlink:href="#DejaVuSans-63" transform="translate(438.037109 0)"/>
      <use xlink:href="#DejaVuSans-61" transform="translate(493.017578 0)"/>
      <use xlink:href="#DejaVuSans-72" transform="translate(554.296875 0)"/>
      <use xlink:href="#DejaVuSans-72" transform="translate(593.660156 0)"/>
      <use xlink:href="#DejaVuSans-79" transform="translate(634.773438 0)"/>
      <use xlink:href="#DejaVuSans-29" transform="translate(693.953125 0)"/>
     </g>
    </g>
   </g>
  </g>
  <g id="axes_2">
   <g id="patch_23">
    <path d="M 43.803125 328.84 
L 702.403125 328.84 
L 702.403125 200.012 
L 43.803125 200.012 
z
" style="fill: #ffffff"/>
   </g>
   <g id="matplotlib.axis_3">
    <g id="xtick_7">
     <g id="line2d_12">
      <g>
       <use xlink:href="#mf1985d5894" x="110.963338" y="328.84" style="stroke: #000000; stroke-width: 0.8"/>
      </g>
     </g>
     <g id="text_10">
      <!-- 0 -->
      <g transform="translate(107.782088 343.438437) scale(0.1 -0.1)">
       <use xlink:href="#DejaVuSans-30"/>
      </g>
     </g>
    </g>
    <g id="xtick_8">
     <g id="line2d_13">
      <g>
       <use xlink:href="#mf1985d5894" x="215.819253" y="328.84" style="stroke: #000000; stroke-width: 0.8"/>
      </g>
     </g>
     <g id="text_11">
      <!-- 1 -->
      <g transform="translate(212.638003 343.438437) scale(0.1 -0.1)">
       <use xlink:href="#DejaVuSans-31"/>
      </g>
     </g>
    </g>
    <g id="xtick_9">
     <g id="line2d_14">
      <g>
       <use xlink:href="#mf1985d5894" x="320.675168" y="328.84" style="stroke: #000000; stroke-width: 0.8"/>
      </g>
     </g>
     <g id="text_12">
      <!-- 2 -->
      <g transform="translate(317.493918 343.438437) scale(0.1 -0.1)">
       <use xlink:href="#DejaVuSans-32"/>
      </g>
     </g>
    </g>
    <g id="xtick_10">
     <g id="line2d_15">
      <g>
       <use xlink:href="#mf1985d5894" x="425.531082" y="328.84" style="stroke: #000000; stroke-width: 0.8"/>
      </g>
     </g>
     <g id="text_13">
      <!-- 3 -->
      <g transform="translate(422.349832 343.438437) scale(0.1 -0.1)">
       <use xlink:href="#DejaVuSans-33"/>
      </g>
     </g>
    </g>
    <g id="xtick_11">
     <g id="line2d_16">
      <g>
       <use xlink:href="#mf1985d5894" x="530.386997" y="328.84" style="stroke: #000000; stroke-width: 0.8"/>
      </g>
     </g>
     <g id="text_14">
      <!-- 4 -->
      <g transform="translate(527.205747 343.438437) scale(0.1 -0.1)">
       <defs>
        <path id="DejaVuSans-34" d="M 2419 4116 
L 825 1625 
L 2419 1625 
L 2419 4116 
z
M 2253 4666 
L 3047 4666 
L 3047 1625 
L 3713 1625 
L 3713 1100 
L 3047 1100 
L 3047 0 
L 2419 0 
L 2419 1100 
L 313 1100 
L 313 1709 
L 2253 4666 
z
" transform="scale(0.015625)"/>
       </defs>
       <use xlink:href="#DejaVuSans-34"/>
      </g>
     </g>
    </g>
    <g id="xtick_12">
     <g id="line2d_17">
      <g>
       <use xlink:href="#mf1985d5894" x="635.242912" y="328.84" style="stroke: #000000; stroke-width: 0.8"/>
      </g>
     </g>
     <g id="text_15">
      <!-- 5 -->
      <g transform="translate(632.061662 343.438437) scale(0.1 -0.1)">
       <defs>
        <path id="DejaVuSans-35" d="M 691 4666 
L 3169 4666 
L 3169 4134 
L 1269 4134 
L 1269 2991 
Q 1406 3038 1543 3061 
Q 1681 3084 1819 3084 
Q 2600 3084 3056 2656 
Q 3513 2228 3513 1497 
Q 3513 744 3044 326 
Q 2575 -91 1722 -91 
Q 1428 -91 1123 -41 
Q 819 9 494 109 
L 494 744 
Q 775 591 1075 516 
Q 1375 441 1709 441 
Q 2250 441 2565 725 
Q 2881 1009 2881 1497 
Q 2881 1984 2565 2268 
Q 2250 2553 1709 2553 
Q 1456 2553 1204 2497 
Q 953 2441 691 2322 
L 691 4666 
z
" transform="scale(0.015625)"/>
       </defs>
       <use xlink:href="#DejaVuSans-35"/>
      </g>
     </g>
    </g>
    <g id="text_16">
     <!-- Timestep t -->
     <g transform="translate(346.504688 357.116562) scale(0.1 -0.1)">
      <defs>
       <path id="DejaVuSans-54" d="M -19 4666 
L 3928 4666 
L 3928 4134 
L 2272 4134 
L 2272 0 
L 1638 0 
L 1638 4134 
L -19 4134 
L -19 4666 
z
" transform="scale(0.015625)"/>
      </defs>
      <use xlink:href="#DejaVuSans-54"/>
      <use xlink:href="#DejaVuSans-69" transform="translate(57.958984 0)"/>
      <use xlink:href="#DejaVuSans-6d" transform="translate(85.742188 0)"/>
      <use xlink:href="#DejaVuSans-65" transform="translate(183.154297 0)"/>
      <use xlink:href="#DejaVuSans-73" transform="translate(244.677734 0)"/>
      <use xlink:href="#DejaVuSans-74" transform="translate(296.777344 0)"/>
      <use xlink:href="#DejaVuSans-65" transform="translate(335.986328 0)"/>
      <use xlink:href="#DejaVuSans-70" transform="translate(397.509766 0)"/>
      <use xlink:href="#DejaVuSans-20" transform="translate(460.986328 0)"/>
      <use xlink:href="#DejaVuSans-74" transform="translate(492.773438 0)"/>
     </g>
    </g>
   </g>
   <g id="matplotlib.axis_4">
    <g id="ytick_5">
     <g id="line2d_18">
      <g>
       <use xlink:href="#m8758348e6d" x="43.803125" y="322.984182" style="stroke: #000000; stroke-width: 0.8"/>
      </g>
     </g>
     <g id="text_17">
      <!-- 0.0 -->
      <g transform="translate(20.9 326.783401) scale(0.1 -0.1)">
       <use xlink:href="#DejaVuSans-30"/>
       <use xlink:href="#DejaVuSans-2e" transform="translate(63.623047 0)"/>
       <use xlink:href="#DejaVuSans-30" transform="translate(95.410156 0)"/>
      </g>
     </g>
    </g>
    <g id="ytick_6">
     <g id="line2d_19">
      <g>
       <use xlink:href="#m8758348e6d" x="43.803125" y="296.958323" style="stroke: #000000; stroke-width: 0.8"/>
      </g>
     </g>
     <g id="text_18">
      <!-- 0.2 -->
      <g transform="translate(20.9 300.757542) scale(0.1 -0.1)">
       <use xlink:href="#DejaVuSans-30"/>
       <use xlink:href="#DejaVuSans-2e" transform="translate(63.623047 0)"/>
       <use xlink:href="#DejaVuSans-32" transform="translate(95.410156 0)"/>
      </g>
     </g>
    </g>
    <g id="ytick_7">
     <g id="line2d_20">
      <g>
       <use xlink:href="#m8758348e6d" x="43.803125" y="270.932465" style="stroke: #000000; stroke-width: 0.8"/>
      </g>
     </g>
     <g id="text_19">
      <!-- 0.4 -->
      <g transform="translate(20.9 274.731683) scale(0.1 -0.1)">
       <use xlink:href="#DejaVuSans-30"/>
       <use xlink:href="#DejaVuSans-2e" transform="translate(63.623047 0)"/>
       <use xlink:href="#DejaVuSans-34" transform="translate(95.410156 0)"/>
      </g>
     </g>
    </g>
    <g id="ytick_8">
     <g id="line2d_21">
      <g>
       <use xlink:href="#m8758348e6d" x="43.803125" y="244.906606" style="stroke: #000000; stroke-width: 0.8"/>
      </g>
     </g>
     <g id="text_20">
      <!-- 0.6 -->
      <g transform="translate(20.9 248.705825) scale(0.1 -0.1)">
       <defs>
        <path id="DejaVuSans-36" d="M 2113 2584 
Q 1688 2584 1439 2293 
Q 1191 2003 1191 1497 
Q 1191 994 1439 701 
Q 1688 409 2113 409 
Q 2538 409 2786 701 
Q 3034 994 3034 1497 
Q 3034 2003 2786 2293 
Q 2538 2584 2113 2584 
z
M 3366 4563 
L 3366 3988 
Q 3128 4100 2886 4159 
Q 2644 4219 2406 4219 
Q 1781 4219 1451 3797 
Q 1122 3375 1075 2522 
Q 1259 2794 1537 2939 
Q 1816 3084 2150 3084 
Q 2853 3084 3261 2657 
Q 3669 2231 3669 1497 
Q 3669 778 3244 343 
Q 2819 -91 2113 -91 
Q 1303 -91 875 529 
Q 447 1150 447 2328 
Q 447 3434 972 4092 
Q 1497 4750 2381 4750 
Q 2619 4750 2861 4703 
Q 3103 4656 3366 4563 
z
" transform="scale(0.015625)"/>
       </defs>
       <use xlink:href="#DejaVuSans-30"/>
       <use xlink:href="#DejaVuSans-2e" transform="translate(63.623047 0)"/>
       <use xlink:href="#DejaVuSans-36" transform="translate(95.410156 0)"/>
      </g>
     </g>
    </g>
    <g id="ytick_9">
     <g id="line2d_22">
      <g>
       <use xlink:href="#m8758348e6d" x="43.803125" y="218.880747" style="stroke: #000000; stroke-width: 0.8"/>
      </g>
     </g>
     <g id="text_21">
      <!-- 0.8 -->
      <g transform="translate(20.9 222.679966) scale(0.1 -0.1)">
       <defs>
        <path id="DejaVuSans-38" d="M 2034 2216 
Q 1584 2216 1326 1975 
Q 1069 1734 1069 1313 
Q 1069 891 1326 650 
Q 1584 409 2034 409 
Q 2484 409 2743 651 
Q 3003 894 3003 1313 
Q 3003 1734 2745 1975 
Q 2488 2216 2034 2216 
z
M 1403 2484 
Q 997 2584 770 2862 
Q 544 3141 544 3541 
Q 544 4100 942 4425 
Q 1341 4750 2034 4750 
Q 2731 4750 3128 4425 
Q 3525 4100 3525 3541 
Q 3525 3141 3298 2862 
Q 3072 2584 2669 2484 
Q 3125 2378 3379 2068 
Q 3634 1759 3634 1313 
Q 3634 634 3220 271 
Q 2806 -91 2034 -91 
Q 1263 -91 848 271 
Q 434 634 434 1313 
Q 434 1759 690 2068 
Q 947 2378 1403 2484 
z
M 1172 3481 
Q 1172 3119 1398 2916 
Q 1625 2713 2034 2713 
Q 2441 2713 2670 2916 
Q 2900 3119 2900 3481 
Q 2900 3844 2670 4047 
Q 2441 4250 2034 4250 
Q 1625 4250 1398 4047 
Q 1172 3844 1172 3481 
z
" transform="scale(0.015625)"/>
       </defs>
       <use xlink:href="#DejaVuSans-30"/>
       <use xlink:href="#DejaVuSans-2e" transform="translate(63.623047 0)"/>
       <use xlink:href="#DejaVuSans-38" transform="translate(95.410156 0)"/>
      </g>
     </g>
    </g>
    <g id="text_22">
     <!-- Activation -->
     <g transform="translate(14.820313 289.458031) rotate(-90) scale(0.1 -0.1)">
      <defs>
       <path id="DejaVuSans-41" d="M 2188 4044 
L 1331 1722 
L 3047 1722 
L 2188 4044 
z
M 1831 4666 
L 2547 4666 
L 4325 0 
L 3669 0 
L 3244 1197 
L 1141 1197 
L 716 0 
L 50 0 
L 1831 4666 
z
" transform="scale(0.015625)"/>
      </defs>
      <use xlink:href="#DejaVuSans-41"/>
      <use xlink:href="#DejaVuSans-63" transform="translate(66.658203 0)"/>
      <use xlink:href="#DejaVuSans-74" transform="translate(121.638672 0)"/>
      <use xlink:href="#DejaVuSans-69" transform="translate(160.847656 0)"/>
      <use xlink:href="#DejaVuSans-76" transform="translate(188.630859 0)"/>
      <use xlink:href="#DejaVuSans-61" transform="translate(247.810547 0)"/>
      <use xlink:href="#DejaVuSans-74" transform="translate(309.089844 0)"/>
      <use xlink:href="#DejaVuSans-69" transform="translate(348.298828 0)"/>
      <use xlink:href="#DejaVuSans-6f" transform="translate(376.082031 0)"/>
      <use xlink:href="#DejaVuSans-6e" transform="translate(437.263672 0)"/>
     </g>
    </g>
   </g>
   <g id="LineCollection_1">
    <path d="M 110.963338 322.984182 
L 110.963338 218.880747 
" clip-path="url(#p705fcc7593)" style="fill: none; stroke: #2ca02c; stroke-width: 1.5"/>
    <path d="M 215.819253 322.984182 
L 215.819253 257.919535 
" clip-path="url(#p705fcc7593)" style="fill: none; stroke: #2ca02c; stroke-width: 1.5"/>
    <path d="M 320.675168 322.984182 
L 320.675168 205.867818 
" clip-path="url(#p705fcc7593)" style="fill: none; stroke: #2ca02c; stroke-width: 1.5"/>
    <path d="M 425.531082 322.984182 
L 425.531082 283.945394 
" clip-path="url(#p705fcc7593)" style="fill: none; stroke: #2ca02c; stroke-width: 1.5"/>
    <path d="M 530.386997 322.984182 
L 530.386997 231.893677 
" clip-path="url(#p705fcc7593)" style="fill: none; stroke: #2ca02c; stroke-width: 1.5"/>
    <path d="M 635.242912 322.984182 
L 635.242912 244.906606 
" clip-path="url(#p705fcc7593)" style="fill: none; stroke: #2ca02c; stroke-width: 1.5"/>
   </g>
   <g id="line2d_23">
    <defs>
     <path id="m814e540434" d="M 0 3 
C 0.795609 3 1.55874 2.683901 2.12132 2.12132 
C 2.683901 1.55874 3 0.795609 3 0 
C 3 -0.795609 2.683901 -1.55874 2.12132 -2.12132 
C 1.55874 -2.683901 0.795609 -3 0 -3 
C -0.795609 -3 -1.55874 -2.683901 -2.12132 -2.12132 
C -2.683901 -1.55874 -3 -0.795609 -3 0 
C -3 0.795609 -2.683901 1.55874 -2.12132 2.12132 
C -1.55874 2.683901 -0.795609 3 0 3 
z
" style="stroke: #2ca02c"/>
    </defs>
    <g clip-path="url(#p705fcc7593)">
     <use xlink:href="#m814e540434" x="110.963338" y="218.880747" style="fill: #2ca02c; stroke: #2ca02c"/>
     <use xlink:href="#m814e540434" x="215.819253" y="257.919535" style="fill: #2ca02c; stroke: #2ca02c"/>
     <use xlink:href="#m814e540434" x="320.675168" y="205.867818" style="fill: #2ca02c; stroke: #2ca02c"/>
     <use xlink:href="#m814e540434" x="425.531082" y="283.945394" style="fill: #2ca02c; stroke: #2ca02c"/>
     <use xlink:href="#m814e540434" x="530.386997" y="231.893677" style="fill: #2ca02c; stroke: #2ca02c"/>
     <use xlink:href="#m814e540434" x="635.242912" y="244.906606" style="fill: #2ca02c; stroke: #2ca02c"/>
    </g>
   </g>
   <g id="line2d_24"/>
   <g id="LineCollection_2">
    <path d="M 110.963338 322.984182 
L 110.963338 296.958323 
" clip-path="url(#p705fcc7593)" style="fill: none; stroke: #d62728; stroke-width: 1.5"/>
    <path d="M 215.819253 322.984182 
L 215.819253 244.906606 
" clip-path="url(#p705fcc7593)" style="fill: none; stroke: #d62728; stroke-width: 1.5"/>
    <path d="M 320.675168 322.984182 
L 320.675168 309.971253 
" clip-path="url(#p705fcc7593)" style="fill: none; stroke: #d62728; stroke-width: 1.5"/>
    <path d="M 425.531082 322.984182 
L 425.531082 218.880747 
" clip-path="url(#p705fcc7593)" style="fill: none; stroke: #d62728; stroke-width: 1.5"/>
    <path d="M 530.386997 322.984182 
L 530.386997 270.932465 
" clip-path="url(#p705fcc7593)" style="fill: none; stroke: #d62728; stroke-width: 1.5"/>
    <path d="M 635.242912 322.984182 
L 635.242912 283.945394 
" clip-path="url(#p705fcc7593)" style="fill: none; stroke: #d62728; stroke-width: 1.5"/>
   </g>
   <g id="line2d_25">
    <defs>
     <path id="m35464014d9" d="M -3 3 
L 3 3 
L 3 -3 
L -3 -3 
z
" style="stroke: #d62728; stroke-linejoin: miter"/>
    </defs>
    <g clip-path="url(#p705fcc7593)">
     <use xlink:href="#m35464014d9" x="110.963338" y="296.958323" style="fill: #d62728; stroke: #d62728; stroke-linejoin: miter"/>
     <use xlink:href="#m35464014d9" x="215.819253" y="244.906606" style="fill: #d62728; stroke: #d62728; stroke-linejoin: miter"/>
     <use xlink:href="#m35464014d9" x="320.675168" y="309.971253" style="fill: #d62728; stroke: #d62728; stroke-linejoin: miter"/>
     <use xlink:href="#m35464014d9" x="425.531082" y="218.880747" style="fill: #d62728; stroke: #d62728; stroke-linejoin: miter"/>
     <use xlink:href="#m35464014d9" x="530.386997" y="270.932465" style="fill: #d62728; stroke: #d62728; stroke-linejoin: miter"/>
     <use xlink:href="#m35464014d9" x="635.242912" y="283.945394" style="fill: #d62728; stroke: #d62728; stroke-linejoin: miter"/>
    </g>
   </g>
   <g id="line2d_26"/>
   <g id="patch_24">
    <path d="M 43.803125 328.84 
L 43.803125 200.012 
" style="fill: none; stroke: #000000; stroke-width: 0.8; stroke-linejoin: miter; stroke-linecap: square"/>
   </g>
   <g id="patch_25">
    <path d="M 702.403125 328.84 
L 702.403125 200.012 
" style="fill: none; stroke: #000000; stroke-width: 0.8; stroke-linejoin: miter; stroke-linecap: square"/>
   </g>
   <g id="patch_26">
    <path d="M 43.803125 328.84 
L 702.403125 328.84 
" style="fill: none; stroke: #000000; stroke-width: 0.8; stroke-linejoin: miter; stroke-linecap: square"/>
   </g>
   <g id="patch_27">
    <path d="M 43.803125 200.012 
L 702.403125 200.012 
" style="fill: none; stroke: #000000; stroke-width: 0.8; stroke-linejoin: miter; stroke-linecap: square"/>
   </g>
   <g id="text_23">
    <!-- Inputs to trace: $\psi_t = 1 - h_t^2$ and $h_{t-1}$ -->
    <g transform="translate(274.213125 194.012) scale(0.11 -0.11)">
     <defs>
      <path id="DejaVuSans-49" d="M 628 4666 
L 1259 4666 
L 1259 0 
L 628 0 
L 628 4666 
z
" transform="scale(0.015625)"/>
      <path id="DejaVuSans-3a" d="M 750 794 
L 1409 794 
L 1409 0 
L 750 0 
L 750 794 
z
M 750 3309 
L 1409 3309 
L 1409 2516 
L 750 2516 
L 750 3309 
z
" transform="scale(0.015625)"/>
     </defs>
     <use xlink:href="#DejaVuSans-49" transform="translate(0 0.765625)"/>
     <use xlink:href="#DejaVuSans-6e" transform="translate(29.492188 0.765625)"/>
     <use xlink:href="#DejaVuSans-70" transform="translate(92.871094 0.765625)"/>
     <use xlink:href="#DejaVuSans-75" transform="translate(156.347656 0.765625)"/>
     <use xlink:href="#DejaVuSans-74" transform="translate(219.726562 0.765625)"/>
     <use xlink:href="#DejaVuSans-73" transform="translate(258.935547 0.765625)"/>
     <use xlink:href="#DejaVuSans-20" transform="translate(311.035156 0.765625)"/>
     <use xlink:href="#DejaVuSans-74" transform="translate(342.822266 0.765625)"/>
     <use xlink:href="#DejaVuSans-6f" transform="translate(382.03125 0.765625)"/>
     <use xlink:href="#DejaVuSans-20" transform="translate(443.212891 0.765625)"/>
     <use xlink:href="#DejaVuSans-74" transform="translate(475 0.765625)"/>
     <use xlink:href="#DejaVuSans-72" transform="translate(514.208984 0.765625)"/>
     <use xlink:href="#DejaVuSans-61" transform="translate(555.322266 0.765625)"/>
     <use xlink:href="#DejaVuSans-63" transform="translate(616.601562 0.765625)"/>
     <use xlink:href="#DejaVuSans-65" transform="translate(671.582031 0.765625)"/>
     <use xlink:href="#DejaVuSans-3a" transform="translate(733.105469 0.765625)"/>
     <use xlink:href="#DejaVuSans-20" transform="translate(766.796875 0.765625)"/>
     <use xlink:href="#DejaVuSans-Oblique-3c8" transform="translate(798.583984 0.765625)"/>
     <use xlink:href="#DejaVuSans-Oblique-74" transform="translate(864.550781 -15.640625) scale(0.7)"/>
     <use xlink:href="#DejaVuSans-3d" transform="translate(914.213867 0.765625)"/>
     <use xlink:href="#DejaVuSans-31" transform="translate(1017.485352 0.765625)"/>
     <use xlink:href="#DejaVuSans-2212" transform="translate(1100.59082 0.765625)"/>
     <use xlink:href="#DejaVuSans-Oblique-68" transform="translate(1203.862305 0.765625)"/>
     <use xlink:href="#DejaVuSans-32" transform="translate(1274.688919 39.046875) scale(0.7)"/>
     <use xlink:href="#DejaVuSans-Oblique-74" transform="translate(1267.241211 -26.578125) scale(0.7)"/>
     <use xlink:href="#DejaVuSans-20" transform="translate(1321.959427 0.765625)"/>
     <use xlink:href="#DejaVuSans-61" transform="translate(1353.746536 0.765625)"/>
     <use xlink:href="#DejaVuSans-6e" transform="translate(1415.025833 0.765625)"/>
     <use xlink:href="#DejaVuSans-64" transform="translate(1478.40474 0.765625)"/>
     <use xlink:href="#DejaVuSans-20" transform="translate(1541.881302 0.765625)"/>
     <use xlink:href="#DejaVuSans-Oblique-68" transform="translate(1573.668411 0.765625)"/>
     <use xlink:href="#DejaVuSans-Oblique-74" transform="translate(1637.047318 -15.640625) scale(0.7)"/>
     <use xlink:href="#DejaVuSans-2212" transform="translate(1678.131302 -15.640625) scale(0.7)"/>
     <use xlink:href="#DejaVuSans-31" transform="translate(1750.421341 -15.640625) scale(0.7)"/>
    </g>
   </g>
   <g id="legend_2">
    <g id="patch_28">
     <path d="M 647.053125 233.650906 
L 696.103125 233.650906 
Q 697.903125 233.650906 697.903125 231.850906 
L 697.903125 206.312 
Q 697.903125 204.512 696.103125 204.512 
L 647.053125 204.512 
Q 645.253125 204.512 645.253125 206.312 
L 645.253125 231.850906 
Q 645.253125 233.650906 647.053125 233.650906 
z
" style="fill: #ffffff; opacity: 0.8; stroke: #cccccc; stroke-linejoin: miter"/>
    </g>
    <g id="line2d_27">
     <path d="M 657.853125 214.950594 
L 657.853125 210.619344 
" style="fill: none; stroke: #2ca02c; stroke-width: 1.5"/>
    </g>
    <g id="line2d_28"/>
    <g id="line2d_29">
     <g>
      <use xlink:href="#m814e540434" x="657.853125" y="210.619344" style="fill: #2ca02c; stroke: #2ca02c"/>
     </g>
    </g>
    <g id="text_24">
     <!-- $\psi_t$ -->
     <g transform="translate(674.053125 214.950594) scale(0.09 -0.09)">
      <use xlink:href="#DejaVuSans-Oblique-3c8" transform="translate(0 0.3125)"/>
      <use xlink:href="#DejaVuSans-Oblique-74" transform="translate(65.966797 -16.09375) scale(0.7)"/>
     </g>
    </g>
    <g id="line2d_30">
     <path d="M 657.853125 228.179187 
L 657.853125 223.847937 
" style="fill: none; stroke: #d62728; stroke-width: 1.5"/>
    </g>
    <g id="line2d_31"/>
    <g id="line2d_32">
     <g>
      <use xlink:href="#m35464014d9" x="657.853125" y="223.847937" style="fill: #d62728; stroke: #d62728; stroke-linejoin: miter"/>
     </g>
    </g>
    <g id="text_25">
     <!-- $h_{t-1}$ -->
     <g transform="translate(674.053125 228.179187) scale(0.09 -0.09)">
      <use xlink:href="#DejaVuSans-Oblique-68" transform="translate(0 0.015625)"/>
      <use xlink:href="#DejaVuSans-Oblique-74" transform="translate(63.378906 -16.390625) scale(0.7)"/>
      <use xlink:href="#DejaVuSans-2212" transform="translate(104.462891 -16.390625) scale(0.7)"/>
      <use xlink:href="#DejaVuSans-31" transform="translate(176.75293 -16.390625) scale(0.7)"/>
     </g>
    </g>
   </g>
  </g>
  <g id="text_26">
   <!-- Fig 3 — Eligibility trace: e-prop vs d=0 over time -->
   <g transform="translate(202.272812 15.558281) scale(0.11 -0.11)">
    <defs>
     <path id="DejaVuSans-Bold-46" d="M 588 4666 
L 3834 4666 
L 3834 3756 
L 1791 3756 
L 1791 2888 
L 3713 2888 
L 3713 1978 
L 1791 1978 
L 1791 0 
L 588 0 
L 588 4666 
z
" transform="scale(0.015625)"/>
     <path id="DejaVuSans-Bold-69" d="M 538 3500 
L 1656 3500 
L 1656 0 
L 538 0 
L 538 3500 
z
M 538 4863 
L 1656 4863 
L 1656 3950 
L 538 3950 
L 538 4863 
z
" transform="scale(0.015625)"/>
     <path id="DejaVuSans-Bold-67" d="M 2919 594 
Q 2688 288 2409 144 
Q 2131 0 1766 0 
Q 1125 0 706 504 
Q 288 1009 288 1791 
Q 288 2575 706 3076 
Q 1125 3578 1766 3578 
Q 2131 3578 2409 3434 
Q 2688 3291 2919 2981 
L 2919 3500 
L 4044 3500 
L 4044 353 
Q 4044 -491 3511 -936 
Q 2978 -1381 1966 -1381 
Q 1638 -1381 1331 -1331 
Q 1025 -1281 716 -1178 
L 716 -306 
Q 1009 -475 1290 -558 
Q 1572 -641 1856 -641 
Q 2406 -641 2662 -400 
Q 2919 -159 2919 353 
L 2919 594 
z
M 2181 2772 
Q 1834 2772 1640 2515 
Q 1447 2259 1447 1791 
Q 1447 1309 1634 1061 
Q 1822 813 2181 813 
Q 2531 813 2725 1069 
Q 2919 1325 2919 1791 
Q 2919 2259 2725 2515 
Q 2531 2772 2181 2772 
z
" transform="scale(0.015625)"/>
     <path id="DejaVuSans-Bold-20" transform="scale(0.015625)"/>
     <path id="DejaVuSans-Bold-33" d="M 2981 2516 
Q 3453 2394 3698 2092 
Q 3944 1791 3944 1325 
Q 3944 631 3412 270 
Q 2881 -91 1863 -91 
Q 1503 -91 1142 -33 
Q 781 25 428 141 
L 428 1069 
Q 766 900 1098 814 
Q 1431 728 1753 728 
Q 2231 728 2486 893 
Q 2741 1059 2741 1369 
Q 2741 1688 2480 1852 
Q 2219 2016 1709 2016 
L 1228 2016 
L 1228 2791 
L 1734 2791 
Q 2188 2791 2409 2933 
Q 2631 3075 2631 3366 
Q 2631 3634 2415 3781 
Q 2200 3928 1806 3928 
Q 1516 3928 1219 3862 
Q 922 3797 628 3669 
L 628 4550 
Q 984 4650 1334 4700 
Q 1684 4750 2022 4750 
Q 2931 4750 3382 4451 
Q 3834 4153 3834 3553 
Q 3834 3144 3618 2883 
Q 3403 2622 2981 2516 
z
" transform="scale(0.015625)"/>
     <path id="DejaVuSans-Bold-2014" d="M 344 2156 
L 6056 2156 
L 6056 1350 
L 344 1350 
L 344 2156 
z
" transform="scale(0.015625)"/>
     <path id="DejaVuSans-Bold-45" d="M 588 4666 
L 3834 4666 
L 3834 3756 
L 1791 3756 
L 1791 2888 
L 3713 2888 
L 3713 1978 
L 1791 1978 
L 1791 909 
L 3903 909 
L 3903 0 
L 588 0 
L 588 4666 
z
" transform="scale(0.015625)"/>
     <path id="DejaVuSans-Bold-6c" d="M 538 4863 
L 1656 4863 
L 1656 0 
L 538 0 
L 538 4863 
z
" transform="scale(0.015625)"/>
     <path id="DejaVuSans-Bold-62" d="M 2400 722 
Q 2759 722 2948 984 
Q 3138 1247 3138 1747 
Q 3138 2247 2948 2509 
Q 2759 2772 2400 2772 
Q 2041 2772 1848 2508 
Q 1656 2244 1656 1747 
Q 1656 1250 1848 986 
Q 2041 722 2400 722 
z
M 1656 2988 
Q 1888 3294 2169 3439 
Q 2450 3584 2816 3584 
Q 3463 3584 3878 3070 
Q 4294 2556 4294 1747 
Q 4294 938 3878 423 
Q 3463 -91 2816 -91 
Q 2450 -91 2169 54 
Q 1888 200 1656 506 
L 1656 0 
L 538 0 
L 538 4863 
L 1656 4863 
L 1656 2988 
z
" transform="scale(0.015625)"/>
     <path id="DejaVuSans-Bold-74" d="M 1759 4494 
L 1759 3500 
L 2913 3500 
L 2913 2700 
L 1759 2700 
L 1759 1216 
Q 1759 972 1856 886 
Q 1953 800 2241 800 
L 2816 800 
L 2816 0 
L 1856 0 
Q 1194 0 917 276 
Q 641 553 641 1216 
L 641 2700 
L 84 2700 
L 84 3500 
L 641 3500 
L 641 4494 
L 1759 4494 
z
" transform="scale(0.015625)"/>
     <path id="DejaVuSans-Bold-79" d="M 78 3500 
L 1197 3500 
L 2138 1125 
L 2938 3500 
L 4056 3500 
L 2584 -331 
Q 2363 -916 2067 -1148 
Q 1772 -1381 1288 -1381 
L 641 -1381 
L 641 -647 
L 991 -647 
Q 1275 -647 1404 -556 
Q 1534 -466 1606 -231 
L 1638 -134 
L 78 3500 
z
" transform="scale(0.015625)"/>
     <path id="DejaVuSans-Bold-72" d="M 3138 2547 
Q 2991 2616 2845 2648 
Q 2700 2681 2553 2681 
Q 2122 2681 1889 2404 
Q 1656 2128 1656 1613 
L 1656 0 
L 538 0 
L 538 3500 
L 1656 3500 
L 1656 2925 
Q 1872 3269 2151 3426 
Q 2431 3584 2822 3584 
Q 2878 3584 2943 3579 
Q 3009 3575 3134 3559 
L 3138 2547 
z
" transform="scale(0.015625)"/>
     <path id="DejaVuSans-Bold-61" d="M 2106 1575 
Q 1756 1575 1579 1456 
Q 1403 1338 1403 1106 
Q 1403 894 1545 773 
Q 1688 653 1941 653 
Q 2256 653 2472 879 
Q 2688 1106 2688 1447 
L 2688 1575 
L 2106 1575 
z
M 3816 1997 
L 3816 0 
L 2688 0 
L 2688 519 
Q 2463 200 2181 54 
Q 1900 -91 1497 -91 
Q 953 -91 614 226 
Q 275 544 275 1050 
Q 275 1666 698 1953 
Q 1122 2241 2028 2241 
L 2688 2241 
L 2688 2328 
Q 2688 2594 2478 2717 
Q 2269 2841 1825 2841 
Q 1466 2841 1156 2769 
Q 847 2697 581 2553 
L 581 3406 
Q 941 3494 1303 3539 
Q 1666 3584 2028 3584 
Q 2975 3584 3395 3211 
Q 3816 2838 3816 1997 
z
" transform="scale(0.015625)"/>
     <path id="DejaVuSans-Bold-63" d="M 3366 3391 
L 3366 2478 
Q 3138 2634 2908 2709 
Q 2678 2784 2431 2784 
Q 1963 2784 1702 2511 
Q 1441 2238 1441 1747 
Q 1441 1256 1702 982 
Q 1963 709 2431 709 
Q 2694 709 2930 787 
Q 3166 866 3366 1019 
L 3366 103 
Q 3103 6 2833 -42 
Q 2563 -91 2291 -91 
Q 1344 -91 809 395 
Q 275 881 275 1747 
Q 275 2613 809 3098 
Q 1344 3584 2291 3584 
Q 2566 3584 2833 3536 
Q 3100 3488 3366 3391 
z
" transform="scale(0.015625)"/>
     <path id="DejaVuSans-Bold-65" d="M 4031 1759 
L 4031 1441 
L 1416 1441 
Q 1456 1047 1700 850 
Q 1944 653 2381 653 
Q 2734 653 3104 758 
Q 3475 863 3866 1075 
L 3866 213 
Q 3469 63 3072 -14 
Q 2675 -91 2278 -91 
Q 1328 -91 801 392 
Q 275 875 275 1747 
Q 275 2603 792 3093 
Q 1309 3584 2216 3584 
Q 3041 3584 3536 3087 
Q 4031 2591 4031 1759 
z
M 2881 2131 
Q 2881 2450 2695 2645 
Q 2509 2841 2209 2841 
Q 1884 2841 1681 2658 
Q 1478 2475 1428 2131 
L 2881 2131 
z
" transform="scale(0.015625)"/>
     <path id="DejaVuSans-Bold-3a" d="M 716 3500 
L 1844 3500 
L 1844 2291 
L 716 2291 
L 716 3500 
z
M 716 1209 
L 1844 1209 
L 1844 0 
L 716 0 
L 716 1209 
z
" transform="scale(0.015625)"/>
     <path id="DejaVuSans-Bold-2d" d="M 347 2297 
L 2309 2297 
L 2309 1388 
L 347 1388 
L 347 2297 
z
" transform="scale(0.015625)"/>
     <path id="DejaVuSans-Bold-70" d="M 1656 506 
L 1656 -1331 
L 538 -1331 
L 538 3500 
L 1656 3500 
L 1656 2988 
Q 1888 3294 2169 3439 
Q 2450 3584 2816 3584 
Q 3463 3584 3878 3070 
Q 4294 2556 4294 1747 
Q 4294 938 3878 423 
Q 3463 -91 2816 -91 
Q 2450 -91 2169 54 
Q 1888 200 1656 506 
z
M 2400 2772 
Q 2041 2772 1848 2508 
Q 1656 2244 1656 1747 
Q 1656 1250 1848 986 
Q 2041 722 2400 722 
Q 2759 722 2948 984 
Q 3138 1247 3138 1747 
Q 3138 2247 2948 2509 
Q 2759 2772 2400 2772 
z
" transform="scale(0.015625)"/>
     <path id="DejaVuSans-Bold-6f" d="M 2203 2784 
Q 1831 2784 1636 2517 
Q 1441 2250 1441 1747 
Q 1441 1244 1636 976 
Q 1831 709 2203 709 
Q 2569 709 2762 976 
Q 2956 1244 2956 1747 
Q 2956 2250 2762 2517 
Q 2569 2784 2203 2784 
z
M 2203 3584 
Q 3106 3584 3614 3096 
Q 4122 2609 4122 1747 
Q 4122 884 3614 396 
Q 3106 -91 2203 -91 
Q 1297 -91 786 396 
Q 275 884 275 1747 
Q 275 2609 786 3096 
Q 1297 3584 2203 3584 
z
" transform="scale(0.015625)"/>
     <path id="DejaVuSans-Bold-76" d="M 97 3500 
L 1216 3500 
L 2088 1081 
L 2956 3500 
L 4078 3500 
L 2700 0 
L 1472 0 
L 97 3500 
z
" transform="scale(0.015625)"/>
     <path id="DejaVuSans-Bold-73" d="M 3272 3391 
L 3272 2541 
Q 2913 2691 2578 2766 
Q 2244 2841 1947 2841 
Q 1628 2841 1473 2761 
Q 1319 2681 1319 2516 
Q 1319 2381 1436 2309 
Q 1553 2238 1856 2203 
L 2053 2175 
Q 2913 2066 3209 1816 
Q 3506 1566 3506 1031 
Q 3506 472 3093 190 
Q 2681 -91 1863 -91 
Q 1516 -91 1145 -36 
Q 775 19 384 128 
L 384 978 
Q 719 816 1070 734 
Q 1422 653 1784 653 
Q 2113 653 2278 743 
Q 2444 834 2444 1013 
Q 2444 1163 2330 1236 
Q 2216 1309 1875 1350 
L 1678 1375 
Q 931 1469 631 1722 
Q 331 1975 331 2491 
Q 331 3047 712 3315 
Q 1094 3584 1881 3584 
Q 2191 3584 2531 3537 
Q 2872 3491 3272 3391 
z
" transform="scale(0.015625)"/>
     <path id="DejaVuSans-Bold-64" d="M 2919 2988 
L 2919 4863 
L 4044 4863 
L 4044 0 
L 2919 0 
L 2919 506 
Q 2688 197 2409 53 
Q 2131 -91 1766 -91 
Q 1119 -91 703 423 
Q 288 938 288 1747 
Q 288 2556 703 3070 
Q 1119 3584 1766 3584 
Q 2128 3584 2408 3439 
Q 2688 3294 2919 2988 
z
M 2181 722 
Q 2541 722 2730 984 
Q 2919 1247 2919 1747 
Q 2919 2247 2730 2509 
Q 2541 2772 2181 2772 
Q 1825 2772 1636 2509 
Q 1447 2247 1447 1747 
Q 1447 1247 1636 984 
Q 1825 722 2181 722 
z
" transform="scale(0.015625)"/>
     <path id="DejaVuSans-Bold-3d" d="M 678 3084 
L 4684 3084 
L 4684 2350 
L 678 2350 
L 678 3084 
z
M 678 1663 
L 4684 1663 
L 4684 922 
L 678 922 
L 678 1663 
z
" transform="scale(0.015625)"/>
     <path id="DejaVuSans-Bold-30" d="M 2944 2338 
Q 2944 3213 2780 3570 
Q 2616 3928 2228 3928 
Q 1841 3928 1675 3570 
Q 1509 3213 1509 2338 
Q 1509 1453 1675 1090 
Q 1841 728 2228 728 
Q 2613 728 2778 1090 
Q 2944 1453 2944 2338 
z
M 4147 2328 
Q 4147 1169 3647 539 
Q 3147 -91 2228 -91 
Q 1306 -91 806 539 
Q 306 1169 306 2328 
Q 306 3491 806 4120 
Q 1306 4750 2228 4750 
Q 3147 4750 3647 4120 
Q 4147 3491 4147 2328 
z
" transform="scale(0.015625)"/>
     <path id="DejaVuSans-Bold-6d" d="M 3781 2919 
Q 3994 3244 4286 3414 
Q 4578 3584 4928 3584 
Q 5531 3584 5847 3212 
Q 6163 2841 6163 2131 
L 6163 0 
L 5038 0 
L 5038 1825 
Q 5041 1866 5042 1909 
Q 5044 1953 5044 2034 
Q 5044 2406 4934 2573 
Q 4825 2741 4581 2741 
Q 4263 2741 4089 2478 
Q 3916 2216 3909 1719 
L 3909 0 
L 2784 0 
L 2784 1825 
Q 2784 2406 2684 2573 
Q 2584 2741 2328 2741 
Q 2006 2741 1831 2477 
Q 1656 2213 1656 1722 
L 1656 0 
L 531 0 
L 531 3500 
L 1656 3500 
L 1656 2988 
Q 1863 3284 2130 3434 
Q 2397 3584 2719 3584 
Q 3081 3584 3359 3409 
Q 3638 3234 3781 2919 
z
" transform="scale(0.015625)"/>
    </defs>
    <use xlink:href="#DejaVuSans-Bold-46"/>
    <use xlink:href="#DejaVuSans-Bold-69" transform="translate(68.310547 0)"/>
    <use xlink:href="#DejaVuSans-Bold-67" transform="translate(102.587891 0)"/>
    <use xlink:href="#DejaVuSans-Bold-20" transform="translate(174.169922 0)"/>
    <use xlink:href="#DejaVuSans-Bold-33" transform="translate(208.984375 0)"/>
    <use xlink:href="#DejaVuSans-Bold-20" transform="translate(278.564453 0)"/>
    <use xlink:href="#DejaVuSans-Bold-2014" transform="translate(313.378906 0)"/>
    <use xlink:href="#DejaVuSans-Bold-20" transform="translate(413.378906 0)"/>
    <use xlink:href="#DejaVuSans-Bold-45" transform="translate(448.193359 0)"/>
    <use xlink:href="#DejaVuSans-Bold-6c" transform="translate(516.503906 0)"/>
    <use xlink:href="#DejaVuSans-Bold-69" transform="translate(550.78125 0)"/>
    <use xlink:href="#DejaVuSans-Bold-67" transform="translate(585.058594 0)"/>
    <use xlink:href="#DejaVuSans-Bold-69" transform="translate(656.640625 0)"/>
    <use xlink:href="#DejaVuSans-Bold-62" transform="translate(690.917969 0)"/>
    <use xlink:href="#DejaVuSans-Bold-69" transform="translate(762.5 0)"/>
    <use xlink:href="#DejaVuSans-Bold-6c" transform="translate(796.777344 0)"/>
    <use xlink:href="#DejaVuSans-Bold-69" transform="translate(831.054688 0)"/>
    <use xlink:href="#DejaVuSans-Bold-74" transform="translate(865.332031 0)"/>
    <use xlink:href="#DejaVuSans-Bold-79" transform="translate(913.134766 0)"/>
    <use xlink:href="#DejaVuSans-Bold-20" transform="translate(978.320312 0)"/>
    <use xlink:href="#DejaVuSans-Bold-74" transform="translate(1013.134766 0)"/>
    <use xlink:href="#DejaVuSans-Bold-72" transform="translate(1060.9375 0)"/>
    <use xlink:href="#DejaVuSans-Bold-61" transform="translate(1110.253906 0)"/>
    <use xlink:href="#DejaVuSans-Bold-63" transform="translate(1177.734375 0)"/>
    <use xlink:href="#DejaVuSans-Bold-65" transform="translate(1237.011719 0)"/>
    <use xlink:href="#DejaVuSans-Bold-3a" transform="translate(1304.833984 0)"/>
    <use xlink:href="#DejaVuSans-Bold-20" transform="translate(1344.824219 0)"/>
    <use xlink:href="#DejaVuSans-Bold-65" transform="translate(1379.638672 0)"/>
    <use xlink:href="#DejaVuSans-Bold-2d" transform="translate(1447.460938 0)"/>
    <use xlink:href="#DejaVuSans-Bold-70" transform="translate(1488.964844 0)"/>
    <use xlink:href="#DejaVuSans-Bold-72" transform="translate(1560.546875 0)"/>
    <use xlink:href="#DejaVuSans-Bold-6f" transform="translate(1609.863281 0)"/>
    <use xlink:href="#DejaVuSans-Bold-70" transform="translate(1678.564453 0)"/>
    <use xlink:href="#DejaVuSans-Bold-20" transform="translate(1750.146484 0)"/>
    <use xlink:href="#DejaVuSans-Bold-76" transform="translate(1784.960938 0)"/>
    <use xlink:href="#DejaVuSans-Bold-73" transform="translate(1850.146484 0)"/>
    <use xlink:href="#DejaVuSans-Bold-20" transform="translate(1909.667969 0)"/>
    <use xlink:href="#DejaVuSans-Bold-64" transform="translate(1944.482422 0)"/>
    <use xlink:href="#DejaVuSans-Bold-3d" transform="translate(2016.064453 0)"/>
    <use xlink:href="#DejaVuSans-Bold-30" transform="translate(2099.853516 0)"/>
    <use xlink:href="#DejaVuSans-Bold-20" transform="translate(2169.433594 0)"/>
    <use xlink:href="#DejaVuSans-Bold-6f" transform="translate(2204.248047 0)"/>
    <use xlink:href="#DejaVuSans-Bold-76" transform="translate(2272.949219 0)"/>
    <use xlink:href="#DejaVuSans-Bold-65" transform="translate(2338.134766 0)"/>
    <use xlink:href="#DejaVuSans-Bold-72" transform="translate(2405.957031 0)"/>
    <use xlink:href="#DejaVuSans-Bold-20" transform="translate(2455.273438 0)"/>
    <use xlink:href="#DejaVuSans-Bold-74" transform="translate(2490.087891 0)"/>
    <use xlink:href="#DejaVuSans-Bold-69" transform="translate(2537.890625 0)"/>
    <use xlink:href="#DejaVuSans-Bold-6d" transform="translate(2572.167969 0)"/>
    <use xlink:href="#DejaVuSans-Bold-65" transform="translate(2676.367188 0)"/>
   </g>
  </g>
 </g>
 <defs>
  <clipPath id="pc614b68062">
   <rect x="43.803125" y="36.24" width="658.6" height="128.828"/>
  </clipPath>
  <clipPath id="p705fcc7593">
   <rect x="43.803125" y="200.012" width="658.6" height="128.828"/>
  </clipPath>
 </defs>
</svg>
