<?xml version="1.0" encoding="utf-8" standalone="no"?>
<!DOCTYPE svg PUBLIC "-//W3C//DTD SVG 1.1//EN"
  "http://www.w3.org/Graphics/SVG/1.1/DTD/svg11.dtd">
<svg xmlns:xlink="http://www.w3.org/1999/xlink" width="402.48pt" height="241.2pt" viewBox="0 0 402.48 241.2" xmlns="http://www.w3.org/2000/svg" version="1.1">
 <metadata>
  <rdf:RDF xmlns:dc="http://purl.org/dc/elements/1.1/" xmlns:cc="http://creativecommons.org/ns#" xmlns:rdf="http://www.w3.org/1999/02/22-rdf-syntax-ns#">
   <cc:Work>
    <dc:type rdf:resource="http://purl.org/dc/dcmitype/StillImage"/>
    <dc:date>2026-06-27T12:52:21.307424</dc:date>
    <dc:format>image/svg+xml</dc:format>
    <dc:creator>
     <cc:Agent>
      <dc:title>Matplotlib v3.10.0, https://matplotlib.org/</dc:title>
     </cc:Agent>
    </dc:creator>
   </cc:Work>
  </rdf:RDF>
 </metadata>
 <defs>
  <style type="text/css">*{stroke-linejoin: round; stroke-linecap: butt}</style>
 </defs>
 <g id="figure_1">
  <g id="patch_1">
   <path d="M 0 241.2 
L 402.48 241.2 
L 402.48 0 
L 0 0 
z
" style="fill: #ffffff"/>
  </g>
  <g id="axes_1">
   <g id="patch_2">
    <path d="M 218.768108 100.179642 
C 216.737409 98.051909 214.094188 96.323188 211.05066 95.132274 
C 208.007132 93.94136 204.646987 93.321 201.24 93.321 
C 197.833013 93.321 194.472868 93.94136 191.42934 95.132274 
C 188.385812 96.323188 185.742591 98.051909 183.711892 100.179642 
" clip-path="url(#pae299d7f60)" style="fill: none; stroke: #1f77b4; stroke-width: 2; stroke-linejoin: miter"/>
   </g>
   <g id="patch_3">
    <path d="M 74.687198 136.98 
Q 128.472839 136.98 180.581428 136.98 
" style="fill: none; stroke: #333333; stroke-width: 1.5; stroke-linecap: round"/>
    <path d="M 176.581428 134.98 
L 180.581428 136.98 
L 176.581428 138.98 
" style="fill: none; stroke: #333333; stroke-width: 1.5; stroke-linecap: round"/>
   </g>
   <g id="patch_4">
    <path d="M 220.217198 136.98 
Q 274.002839 136.98 326.111428 136.98 
" style="fill: none; stroke: #336633; stroke-width: 1.5; stroke-linecap: round"/>
    <path d="M 322.111428 134.98 
L 326.111428 136.98 
L 322.111428 138.98 
" style="fill: none; stroke: #336633; stroke-width: 1.5; stroke-linecap: round"/>
   </g>
   <g id="patch_5">
    <path d="M 181.099349 105.008168 
Q 181.835887 111.268739 182.376476 115.863746 
" style="fill: none; stroke: #1f77b4; stroke-width: 1.5; stroke-linecap: round"/>
    <path d="M 183.895412 111.657461 
L 182.376476 115.863746 
L 179.92281 112.124826 
" style="fill: none; stroke: #1f77b4; stroke-width: 1.5; stroke-linecap: round"/>
   </g>
   <g id="patch_6">
    <path d="M 55.71 153.9585 
C 60.212751 153.9585 64.531687 152.169538 67.715612 148.985612 
C 70.899538 145.801687 72.6885 141.482751 72.6885 136.98 
C 72.6885 132.477249 70.899538 128.158313 67.715612 124.974388 
C 64.531687 121.790462 60.212751 120.0015 55.71 120.0015 
C 51.207249 120.0015 46.888313 121.790462 43.704388 124.974388 
C 40.520462 128.158313 38.7315 132.477249 38.7315 136.98 
C 38.7315 141.482751 40.520462 145.801687 43.704388 148.985612 
C 46.888313 152.169538 51.207249 153.9585 55.71 153.9585 
z
" clip-path="url(#pae299d7f60)" style="fill: #ffeecc; stroke: #886600; stroke-width: 1.5; stroke-linejoin: miter"/>
   </g>
   <g id="patch_7">
    <path d="M 201.24 153.9585 
C 205.742751 153.9585 210.061687 152.169538 213.245612 148.985612 
C 216.429538 145.801687 218.2185 141.482751 218.2185 136.98 
C 218.2185 132.477249 216.429538 128.158313 213.245612 124.974388 
C 210.061687 121.790462 205.742751 120.0015 201.24 120.0015 
C 196.737249 120.0015 192.418313 121.790462 189.234388 124.974388 
C 186.050462 128.158313 184.2615 132.477249 184.2615 136.98 
C 184.2615 141.482751 186.050462 145.801687 189.234388 148.985612 
C 192.418313 152.169538 196.737249 153.9585 201.24 153.9585 
z
" clip-path="url(#pae299d7f60)" style="fill: #ddeeff; stroke: #335577; stroke-width: 1.5; stroke-linejoin: miter"/>
   </g>
   <g id="patch_8">
    <path d="M 346.77 153.9585 
C 351.272751 153.9585 355.591687 152.169538 358.775612 148.985612 
C 361.959538 145.801687 363.7485 141.482751 363.7485 136.98 
C 363.7485 132.477249 361.959538 128.158313 358.775612 124.974388 
C 355.591687 121.790462 351.272751 120.0015 346.77 120.0015 
C 342.267249 120.0015 337.948313 121.790462 334.764388 124.974388 
C 331.580462 128.158313 329.7915 132.477249 329.7915 136.98 
C 329.7915 141.482751 331.580462 145.801687 334.764388 148.985612 
C 337.948313 152.169538 342.267249 153.9585 346.77 153.9585 
z
" clip-path="url(#pae299d7f60)" style="fill: #eeffee; stroke: #336633; stroke-width: 1.5; stroke-linejoin: miter"/>
   </g>
   <g id="text_1">
    <!-- $W_{in}$ -->
    <g style="fill: #333333" transform="translate(121.005 124.8525) scale(0.09 -0.09)">
     <defs>
      <path id="DejaVuSans-Oblique-57" d="M 616 4666 
L 1228 4666 
L 1453 697 
L 3213 4666 
L 3916 4666 
L 4147 697 
L 5888 4666 
L 6528 4666 
L 4453 0 
L 3659 0 
L 3444 3891 
L 1697 0 
L 903 0 
L 616 4666 
z
" transform="scale(0.015625)"/>
      <path id="DejaVuSans-Oblique-69" d="M 1172 4863 
L 1747 4863 
L 1606 4134 
L 1031 4134 
L 1172 4863 
z
M 909 3500 
L 1484 3500 
L 800 0 
L 225 0 
L 909 3500 
z
" transform="scale(0.015625)"/>
      <path id="DejaVuSans-Oblique-6e" d="M 3566 2113 
L 3156 0 
L 2578 0 
L 2988 2091 
Q 3016 2238 3031 2350 
Q 3047 2463 3047 2528 
Q 3047 2791 2881 2937 
Q 2716 3084 2419 3084 
Q 1956 3084 1622 2776 
Q 1288 2469 1184 1941 
L 800 0 
L 225 0 
L 903 3500 
L 1478 3500 
L 1363 2950 
Q 1603 3253 1940 3418 
Q 2278 3584 2650 3584 
Q 3113 3584 3367 3334 
Q 3622 3084 3622 2631 
Q 3622 2519 3608 2391 
Q 3594 2263 3566 2113 
z
" transform="scale(0.015625)"/>
     </defs>
     <use xlink:href="#DejaVuSans-Oblique-57" transform="translate(0 0.09375)"/>
     <use xlink:href="#DejaVuSans-Oblique-69" transform="translate(98.876953 -16.3125) scale(0.7)"/>
     <use xlink:href="#DejaVuSans-Oblique-6e" transform="translate(118.325195 -16.3125) scale(0.7)"/>
    </g>
   </g>
   <g id="text_2">
    <!-- $W_{out}$ -->
    <g style="fill: #336633" transform="translate(264.24 124.8525) scale(0.09 -0.09)">
     <defs>
      <path id="DejaVuSans-Oblique-6f" d="M 1625 -91 
Q 1009 -91 651 289 
Q 294 669 294 1325 
Q 294 1706 417 2101 
Q 541 2497 738 2766 
Q 1047 3184 1428 3384 
Q 1809 3584 2291 3584 
Q 2888 3584 3255 3212 
Q 3622 2841 3622 2241 
Q 3622 1825 3500 1412 
Q 3378 1000 3181 728 
Q 2875 309 2494 109 
Q 2113 -91 1625 -91 
z
M 891 1344 
Q 891 869 1089 633 
Q 1288 397 1691 397 
Q 2269 397 2648 901 
Q 3028 1406 3028 2181 
Q 3028 2634 2825 2865 
Q 2622 3097 2228 3097 
Q 1903 3097 1650 2945 
Q 1397 2794 1197 2484 
Q 1050 2253 970 1956 
Q 891 1659 891 1344 
z
" transform="scale(0.015625)"/>
      <path id="DejaVuSans-Oblique-75" d="M 428 1388 
L 838 3500 
L 1416 3500 
L 1006 1409 
Q 975 1256 961 1147 
Q 947 1038 947 966 
Q 947 700 1109 554 
Q 1272 409 1569 409 
Q 2031 409 2368 721 
Q 2706 1034 2809 1563 
L 3194 3500 
L 3769 3500 
L 3091 0 
L 2516 0 
L 2631 550 
Q 2388 244 2052 76 
Q 1716 -91 1338 -91 
Q 878 -91 622 161 
Q 366 413 366 863 
Q 366 956 381 1097 
Q 397 1238 428 1388 
z
" transform="scale(0.015625)"/>
      <path id="DejaVuSans-Oblique-74" d="M 2706 3500 
L 2619 3053 
L 1472 3053 
L 1100 1153 
Q 1081 1047 1072 975 
Q 1063 903 1063 863 
Q 1063 663 1183 572 
Q 1303 481 1569 481 
L 2150 481 
L 2053 0 
L 1503 0 
Q 991 0 739 200 
Q 488 400 488 806 
Q 488 878 497 964 
Q 506 1050 525 1153 
L 897 3053 
L 409 3053 
L 500 3500 
L 978 3500 
L 1172 4494 
L 1747 4494 
L 1556 3500 
L 2706 3500 
z
" transform="scale(0.015625)"/>
     </defs>
     <use xlink:href="#DejaVuSans-Oblique-57" transform="translate(0 0.09375)"/>
     <use xlink:href="#DejaVuSans-Oblique-6f" transform="translate(98.876953 -16.3125) scale(0.7)"/>
     <use xlink:href="#DejaVuSans-Oblique-75" transform="translate(141.704102 -16.3125) scale(0.7)"/>
     <use xlink:href="#DejaVuSans-Oblique-74" transform="translate(186.069336 -16.3125) scale(0.7)"/>
    </g>
   </g>
   <g id="text_3">
    <!-- $W_{rec}$ -->
    <g style="fill: #1f77b4" transform="translate(191.7 81.1935) scale(0.09 -0.09)">
     <defs>
      <path id="DejaVuSans-Oblique-72" d="M 2853 2969 
Q 2766 3016 2653 3041 
Q 2541 3066 2413 3066 
Q 1953 3066 1609 2717 
Q 1266 2369 1153 1784 
L 800 0 
L 225 0 
L 909 3500 
L 1484 3500 
L 1375 2956 
Q 1603 3259 1920 3421 
Q 2238 3584 2597 3584 
Q 2691 3584 2781 3573 
Q 2872 3563 2963 3538 
L 2853 2969 
z
" transform="scale(0.015625)"/>
      <path id="DejaVuSans-Oblique-65" d="M 3078 2063 
Q 3088 2113 3092 2166 
Q 3097 2219 3097 2272 
Q 3097 2653 2873 2875 
Q 2650 3097 2266 3097 
Q 1838 3097 1509 2826 
Q 1181 2556 1013 2059 
L 3078 2063 
z
M 3578 1613 
L 903 1613 
Q 884 1494 878 1425 
Q 872 1356 872 1306 
Q 872 872 1139 634 
Q 1406 397 1894 397 
Q 2269 397 2603 481 
Q 2938 566 3225 728 
L 3116 159 
Q 2806 34 2476 -28 
Q 2147 -91 1806 -91 
Q 1078 -91 686 257 
Q 294 606 294 1247 
Q 294 1794 489 2264 
Q 684 2734 1063 3103 
Q 1306 3334 1642 3459 
Q 1978 3584 2356 3584 
Q 2950 3584 3301 3228 
Q 3653 2872 3653 2272 
Q 3653 2128 3634 1964 
Q 3616 1800 3578 1613 
z
" transform="scale(0.015625)"/>
      <path id="DejaVuSans-Oblique-63" d="M 3431 3366 
L 3316 2797 
Q 3109 2947 2876 3022 
Q 2644 3097 2394 3097 
Q 2119 3097 1870 3000 
Q 1622 2903 1453 2725 
Q 1184 2453 1037 2087 
Q 891 1722 891 1331 
Q 891 859 1127 628 
Q 1363 397 1844 397 
Q 2081 397 2348 469 
Q 2616 541 2906 684 
L 2797 116 
Q 2547 13 2283 -39 
Q 2019 -91 1741 -91 
Q 1044 -91 669 257 
Q 294 606 294 1253 
Q 294 1797 489 2255 
Q 684 2713 1069 3078 
Q 1331 3328 1684 3456 
Q 2038 3584 2456 3584 
Q 2700 3584 2940 3529 
Q 3181 3475 3431 3366 
z
" transform="scale(0.015625)"/>
     </defs>
     <use xlink:href="#DejaVuSans-Oblique-57" transform="translate(0 0.09375)"/>
     <use xlink:href="#DejaVuSans-Oblique-72" transform="translate(98.876953 -16.3125) scale(0.7)"/>
     <use xlink:href="#DejaVuSans-Oblique-65" transform="translate(127.65625 -16.3125) scale(0.7)"/>
     <use xlink:href="#DejaVuSans-Oblique-63" transform="translate(170.722656 -16.3125) scale(0.7)"/>
    </g>
   </g>
   <g id="patch_9">
    <path d="M 186.263603 161.235 
Q 201.240511 161.235 214.540367 161.235 
" style="fill: none; stroke: #1f77b4; stroke-width: 1.5; stroke-linecap: round"/>
    <path d="M 210.540367 159.235 
L 214.540367 161.235 
L 210.540367 163.235 
" style="fill: none; stroke: #1f77b4; stroke-width: 1.5; stroke-linecap: round"/>
   </g>
   <g id="text_4">
    <!-- $h_{t-1} \to h_t$ -->
    <g style="fill: #1f77b4" transform="translate(183.6 173.3625) scale(0.08 -0.08)">
     <defs>
      <path id="DejaVuSans-Oblique-68" d="M 3566 2113 
L 3156 0 
L 2578 0 
L 2988 2091 
Q 3016 2238 3031 2350 
Q 3047 2463 3047 2528 
Q 3047 2791 2881 2937 
Q 2716 3084 2419 3084 
Q 1956 3084 1617 2771 
Q 1278 2459 1178 1941 
L 800 0 
L 225 0 
L 1172 4863 
L 1747 4863 
L 1375 2950 
Q 1594 3244 1934 3414 
Q 2275 3584 2650 3584 
Q 3113 3584 3367 3334 
Q 3622 3084 3622 2631 
Q 3622 2519 3608 2391 
Q 3594 2263 3566 2113 
z
" transform="scale(0.015625)"/>
      <path id="DejaVuSans-2212" d="M 678 2272 
L 4684 2272 
L 4684 1741 
L 678 1741 
L 678 2272 
z
" transform="scale(0.015625)"/>
      <path id="DejaVuSans-31" d="M 794 531 
L 1825 531 
L 1825 4091 
L 703 3866 
L 703 4441 
L 1819 4666 
L 2450 4666 
L 2450 531 
L 3481 531 
L 3481 0 
L 794 0 
L 794 531 
z
" transform="scale(0.015625)"/>
      <path id="DejaVuSans-2192" d="M 5050 2147 
L 5050 1866 
L 3822 638 
L 3447 1013 
L 4175 1741 
L 366 1741 
L 366 2272 
L 4175 2272 
L 3447 3000 
L 3822 3375 
L 5050 2147 
z
" transform="scale(0.015625)"/>
     </defs>
     <use xlink:href="#DejaVuSans-Oblique-68" transform="translate(0 0.015625)"/>
     <use xlink:href="#DejaVuSans-Oblique-74" transform="translate(63.378906 -16.390625) scale(0.7)"/>
     <use xlink:href="#DejaVuSans-2212" transform="translate(104.462891 -16.390625) scale(0.7)"/>
     <use xlink:href="#DejaVuSans-31" transform="translate(176.75293 -16.390625) scale(0.7)"/>
     <use xlink:href="#DejaVuSans-2192" transform="translate(243.505859 0.015625)"/>
     <use xlink:href="#DejaVuSans-Oblique-68" transform="translate(346.777344 0.015625)"/>
     <use xlink:href="#DejaVuSans-Oblique-74" transform="translate(410.15625 -16.390625) scale(0.7)"/>
    </g>
   </g>
   <g id="text_5">
    <!-- $h_t = \tanh(W_{rec}\,h_{t-1} + W_{in}\,x_t + b)$ -->
    <g transform="translate(131.31 187.9155) scale(0.09 -0.09)">
     <defs>
      <path id="DejaVuSans-3d" d="M 678 2906 
L 4684 2906 
L 4684 2381 
L 678 2381 
L 678 2906 
z
M 678 1631 
L 4684 1631 
L 4684 1100 
L 678 1100 
L 678 1631 
z
" transform="scale(0.015625)"/>
      <path id="DejaVuSans-74" d="M 1172 4494 
L 1172 3500 
L 2356 3500 
L 2356 3053 
L 1172 3053 
L 1172 1153 
Q 1172 725 1289 603 
Q 1406 481 1766 481 
L 2356 481 
L 2356 0 
L 1766 0 
Q 1100 0 847 248 
Q 594 497 594 1153 
L 594 3053 
L 172 3053 
L 172 3500 
L 594 3500 
L 594 4494 
L 1172 4494 
z
" transform="scale(0.015625)"/>
      <path id="DejaVuSans-61" d="M 2194 1759 
Q 1497 1759 1228 1600 
Q 959 1441 959 1056 
Q 959 750 1161 570 
Q 1363 391 1709 391 
Q 2188 391 2477 730 
Q 2766 1069 2766 1631 
L 2766 1759 
L 2194 1759 
z
M 3341 1997 
L 3341 0 
L 2766 0 
L 2766 531 
Q 2569 213 2275 61 
Q 1981 -91 1556 -91 
Q 1019 -91 701 211 
Q 384 513 384 1019 
Q 384 1609 779 1909 
Q 1175 2209 1959 2209 
L 2766 2209 
L 2766 2266 
Q 2766 2663 2505 2880 
Q 2244 3097 1772 3097 
Q 1472 3097 1187 3025 
Q 903 2953 641 2809 
L 641 3341 
Q 956 3463 1253 3523 
Q 1550 3584 1831 3584 
Q 2591 3584 2966 3190 
Q 3341 2797 3341 1997 
z
" transform="scale(0.015625)"/>
      <path id="DejaVuSans-6e" d="M 3513 2113 
L 3513 0 
L 2938 0 
L 2938 2094 
Q 2938 2591 2744 2837 
Q 2550 3084 2163 3084 
Q 1697 3084 1428 2787 
Q 1159 2491 1159 1978 
L 1159 0 
L 581 0 
L 581 3500 
L 1159 3500 
L 1159 2956 
Q 1366 3272 1645 3428 
Q 1925 3584 2291 3584 
Q 2894 3584 3203 3211 
Q 3513 2838 3513 2113 
z
" transform="scale(0.015625)"/>
      <path id="DejaVuSans-68" d="M 3513 2113 
L 3513 0 
L 2938 0 
L 2938 2094 
Q 2938 2591 2744 2837 
Q 2550 3084 2163 3084 
Q 1697 3084 1428 2787 
Q 1159 2491 1159 1978 
L 1159 0 
L 581 0 
L 581 4863 
L 1159 4863 
L 1159 2956 
Q 1366 3272 1645 3428 
Q 1925 3584 2291 3584 
Q 2894 3584 3203 3211 
Q 3513 2838 3513 2113 
z
" transform="scale(0.015625)"/>
      <path id="DejaVuSans-28" d="M 1984 4856 
Q 1566 4138 1362 3434 
Q 1159 2731 1159 2009 
Q 1159 1288 1364 580 
Q 1569 -128 1984 -844 
L 1484 -844 
Q 1016 -109 783 600 
Q 550 1309 550 2009 
Q 550 2706 781 3412 
Q 1013 4119 1484 4856 
L 1984 4856 
z
" transform="scale(0.015625)"/>
      <path id="DejaVuSans-2b" d="M 2944 4013 
L 2944 2272 
L 4684 2272 
L 4684 1741 
L 2944 1741 
L 2944 0 
L 2419 0 
L 2419 1741 
L 678 1741 
L 678 2272 
L 2419 2272 
L 2419 4013 
L 2944 4013 
z
" transform="scale(0.015625)"/>
      <path id="DejaVuSans-Oblique-78" d="M 3841 3500 
L 2234 1784 
L 3219 0 
L 2559 0 
L 1819 1388 
L 531 0 
L -166 0 
L 1556 1844 
L 641 3500 
L 1300 3500 
L 1972 2234 
L 3144 3500 
L 3841 3500 
z
" transform="scale(0.015625)"/>
      <path id="DejaVuSans-Oblique-62" d="M 3169 2138 
Q 3169 2591 2961 2847 
Q 2753 3103 2388 3103 
Q 2122 3103 1889 2973 
Q 1656 2844 1484 2597 
Q 1303 2338 1198 1995 
Q 1094 1653 1094 1313 
Q 1094 881 1298 636 
Q 1503 391 1863 391 
Q 2134 391 2365 517 
Q 2597 644 2772 891 
Q 2950 1147 3059 1487 
Q 3169 1828 3169 2138 
z
M 1381 2969 
Q 1594 3256 1914 3420 
Q 2234 3584 2584 3584 
Q 3122 3584 3439 3221 
Q 3756 2859 3756 2241 
Q 3756 1734 3570 1259 
Q 3384 784 3041 416 
Q 2816 172 2522 40 
Q 2228 -91 1906 -91 
Q 1566 -91 1316 65 
Q 1066 222 909 531 
L 806 0 
L 231 0 
L 1178 4863 
L 1753 4863 
L 1381 2969 
z
" transform="scale(0.015625)"/>
      <path id="DejaVuSans-29" d="M 513 4856 
L 1013 4856 
Q 1481 4119 1714 3412 
Q 1947 2706 1947 2009 
Q 1947 1309 1714 600 
Q 1481 -109 1013 -844 
L 513 -844 
Q 928 -128 1133 580 
Q 1338 1288 1338 2009 
Q 1338 2731 1133 3434 
Q 928 4138 513 4856 
z
" transform="scale(0.015625)"/>
     </defs>
     <use xlink:href="#DejaVuSans-Oblique-68" transform="translate(0 0.015625)"/>
     <use xlink:href="#DejaVuSans-Oblique-74" transform="translate(63.378906 -16.390625) scale(0.7)"/>
     <use xlink:href="#DejaVuSans-3d" transform="translate(113.041992 0.015625)"/>
     <use xlink:href="#DejaVuSans-74" transform="translate(216.313477 0.015625)"/>
     <use xlink:href="#DejaVuSans-61" transform="translate(255.522461 0.015625)"/>
     <use xlink:href="#DejaVuSans-6e" transform="translate(316.801758 0.015625)"/>
     <use xlink:href="#DejaVuSans-68" transform="translate(380.180664 0.015625)"/>
     <use xlink:href="#DejaVuSans-28" transform="translate(443.55957 0.015625)"/>
     <use xlink:href="#DejaVuSans-Oblique-57" transform="translate(482.573242 0.015625)"/>
     <use xlink:href="#DejaVuSans-Oblique-72" transform="translate(581.450195 -16.390625) scale(0.7)"/>
     <use xlink:href="#DejaVuSans-Oblique-65" transform="translate(610.229492 -16.390625) scale(0.7)"/>
     <use xlink:href="#DejaVuSans-Oblique-63" transform="translate(653.295898 -16.390625) scale(0.7)"/>
     <use xlink:href="#DejaVuSans-Oblique-68" transform="translate(710.752278 0.015625)"/>
     <use xlink:href="#DejaVuSans-Oblique-74" transform="translate(774.131184 -16.390625) scale(0.7)"/>
     <use xlink:href="#DejaVuSans-2212" transform="translate(815.215168 -16.390625) scale(0.7)"/>
     <use xlink:href="#DejaVuSans-31" transform="translate(887.505208 -16.390625) scale(0.7)"/>
     <use xlink:href="#DejaVuSans-2b" transform="translate(954.258137 0.015625)"/>
     <use xlink:href="#DejaVuSans-Oblique-57" transform="translate(1057.529622 0.015625)"/>
     <use xlink:href="#DejaVuSans-Oblique-69" transform="translate(1156.406575 -16.390625) scale(0.7)"/>
     <use xlink:href="#DejaVuSans-Oblique-6e" transform="translate(1175.854817 -16.390625) scale(0.7)"/>
     <use xlink:href="#DejaVuSans-Oblique-78" transform="translate(1239.190103 0.015625)"/>
     <use xlink:href="#DejaVuSans-Oblique-74" transform="translate(1298.36979 -16.390625) scale(0.7)"/>
     <use xlink:href="#DejaVuSans-2b" transform="translate(1348.032876 0.015625)"/>
     <use xlink:href="#DejaVuSans-Oblique-62" transform="translate(1451.30436 0.015625)"/>
     <use xlink:href="#DejaVuSans-29" transform="translate(1514.780923 0.015625)"/>
    </g>
   </g>
   <g id="text_6">
    <!-- Single-layer vanilla RNN -->
    <g transform="translate(119.530312 31.96) scale(0.12 -0.12)">
     <defs>
      <path id="DejaVuSans-Bold-53" d="M 3834 4519 
L 3834 3531 
Q 3450 3703 3084 3790 
Q 2719 3878 2394 3878 
Q 1963 3878 1756 3759 
Q 1550 3641 1550 3391 
Q 1550 3203 1689 3098 
Q 1828 2994 2194 2919 
L 2706 2816 
Q 3484 2659 3812 2340 
Q 4141 2022 4141 1434 
Q 4141 663 3683 286 
Q 3225 -91 2284 -91 
Q 1841 -91 1394 -6 
Q 947 78 500 244 
L 500 1259 
Q 947 1022 1364 901 
Q 1781 781 2169 781 
Q 2563 781 2772 912 
Q 2981 1044 2981 1288 
Q 2981 1506 2839 1625 
Q 2697 1744 2272 1838 
L 1806 1941 
Q 1106 2091 782 2419 
Q 459 2747 459 3303 
Q 459 4000 909 4375 
Q 1359 4750 2203 4750 
Q 2588 4750 2994 4692 
Q 3400 4634 3834 4519 
z
" transform="scale(0.015625)"/>
      <path id="DejaVuSans-Bold-69" d="M 538 3500 
L 1656 3500 
L 1656 0 
L 538 0 
L 538 3500 
z
M 538 4863 
L 1656 4863 
L 1656 3950 
L 538 3950 
L 538 4863 
z
" transform="scale(0.015625)"/>
      <path id="DejaVuSans-Bold-6e" d="M 4056 2131 
L 4056 0 
L 2931 0 
L 2931 347 
L 2931 1631 
Q 2931 2084 2911 2256 
Q 2891 2428 2841 2509 
Q 2775 2619 2662 2680 
Q 2550 2741 2406 2741 
Q 2056 2741 1856 2470 
Q 1656 2200 1656 1722 
L 1656 0 
L 538 0 
L 538 3500 
L 1656 3500 
L 1656 2988 
Q 1909 3294 2193 3439 
Q 2478 3584 2822 3584 
Q 3428 3584 3742 3212 
Q 4056 2841 4056 2131 
z
" transform="scale(0.015625)"/>
      <path id="DejaVuSans-Bold-67" d="M 2919 594 
Q 2688 288 2409 144 
Q 2131 0 1766 0 
Q 1125 0 706 504 
Q 288 1009 288 1791 
Q 288 2575 706 3076 
Q 1125 3578 1766 3578 
Q 2131 3578 2409 3434 
Q 2688 3291 2919 2981 
L 2919 3500 
L 4044 3500 
L 4044 353 
Q 4044 -491 3511 -936 
Q 2978 -1381 1966 -1381 
Q 1638 -1381 1331 -1331 
Q 1025 -1281 716 -1178 
L 716 -306 
Q 1009 -475 1290 -558 
Q 1572 -641 1856 -641 
Q 2406 -641 2662 -400 
Q 2919 -159 2919 353 
L 2919 594 
z
M 2181 2772 
Q 1834 2772 1640 2515 
Q 1447 2259 1447 1791 
Q 1447 1309 1634 1061 
Q 1822 813 2181 813 
Q 2531 813 2725 1069 
Q 2919 1325 2919 1791 
Q 2919 2259 2725 2515 
Q 2531 2772 2181 2772 
z
" transform="scale(0.015625)"/>
      <path id="DejaVuSans-Bold-6c" d="M 538 4863 
L 1656 4863 
L 1656 0 
L 538 0 
L 538 4863 
z
" transform="scale(0.015625)"/>
      <path id="DejaVuSans-Bold-65" d="M 4031 1759 
L 4031 1441 
L 1416 1441 
Q 1456 1047 1700 850 
Q 1944 653 2381 653 
Q 2734 653 3104 758 
Q 3475 863 3866 1075 
L 3866 213 
Q 3469 63 3072 -14 
Q 2675 -91 2278 -91 
Q 1328 -91 801 392 
Q 275 875 275 1747 
Q 275 2603 792 3093 
Q 1309 3584 2216 3584 
Q 3041 3584 3536 3087 
Q 4031 2591 4031 1759 
z
M 2881 2131 
Q 2881 2450 2695 2645 
Q 2509 2841 2209 2841 
Q 1884 2841 1681 2658 
Q 1478 2475 1428 2131 
L 2881 2131 
z
" transform="scale(0.015625)"/>
      <path id="DejaVuSans-Bold-2d" d="M 347 2297 
L 2309 2297 
L 2309 1388 
L 347 1388 
L 347 2297 
z
" transform="scale(0.015625)"/>
      <path id="DejaVuSans-Bold-61" d="M 2106 1575 
Q 1756 1575 1579 1456 
Q 1403 1338 1403 1106 
Q 1403 894 1545 773 
Q 1688 653 1941 653 
Q 2256 653 2472 879 
Q 2688 1106 2688 1447 
L 2688 1575 
L 2106 1575 
z
M 3816 1997 
L 3816 0 
L 2688 0 
L 2688 519 
Q 2463 200 2181 54 
Q 1900 -91 1497 -91 
Q 953 -91 614 226 
Q 275 544 275 1050 
Q 275 1666 698 1953 
Q 1122 2241 2028 2241 
L 2688 2241 
L 2688 2328 
Q 2688 2594 2478 2717 
Q 2269 2841 1825 2841 
Q 1466 2841 1156 2769 
Q 847 2697 581 2553 
L 581 3406 
Q 941 3494 1303 3539 
Q 1666 3584 2028 3584 
Q 2975 3584 3395 3211 
Q 3816 2838 3816 1997 
z
" transform="scale(0.015625)"/>
      <path id="DejaVuSans-Bold-79" d="M 78 3500 
L 1197 3500 
L 2138 1125 
L 2938 3500 
L 4056 3500 
L 2584 -331 
Q 2363 -916 2067 -1148 
Q 1772 -1381 1288 -1381 
L 641 -1381 
L 641 -647 
L 991 -647 
Q 1275 -647 1404 -556 
Q 1534 -466 1606 -231 
L 1638 -134 
L 78 3500 
z
" transform="scale(0.015625)"/>
      <path id="DejaVuSans-Bold-72" d="M 3138 2547 
Q 2991 2616 2845 2648 
Q 2700 2681 2553 2681 
Q 2122 2681 1889 2404 
Q 1656 2128 1656 1613 
L 1656 0 
L 538 0 
L 538 3500 
L 1656 3500 
L 1656 2925 
Q 1872 3269 2151 3426 
Q 2431 3584 2822 3584 
Q 2878 3584 2943 3579 
Q 3009 3575 3134 3559 
L 3138 2547 
z
" transform="scale(0.015625)"/>
      <path id="DejaVuSans-Bold-20" transform="scale(0.015625)"/>
      <path id="DejaVuSans-Bold-76" d="M 97 3500 
L 1216 3500 
L 2088 1081 
L 2956 3500 
L 4078 3500 
L 2700 0 
L 1472 0 
L 97 3500 
z
" transform="scale(0.015625)"/>
      <path id="DejaVuSans-Bold-52" d="M 2297 2597 
Q 2675 2597 2839 2737 
Q 3003 2878 3003 3200 
Q 3003 3519 2839 3656 
Q 2675 3794 2297 3794 
L 1791 3794 
L 1791 2597 
L 2297 2597 
z
M 1791 1766 
L 1791 0 
L 588 0 
L 588 4666 
L 2425 4666 
Q 3347 4666 3776 4356 
Q 4206 4047 4206 3378 
Q 4206 2916 3982 2619 
Q 3759 2322 3309 2181 
Q 3556 2125 3751 1926 
Q 3947 1728 4147 1325 
L 4800 0 
L 3519 0 
L 2950 1159 
Q 2778 1509 2601 1637 
Q 2425 1766 2131 1766 
L 1791 1766 
z
" transform="scale(0.015625)"/>
      <path id="DejaVuSans-Bold-4e" d="M 588 4666 
L 1931 4666 
L 3628 1466 
L 3628 4666 
L 4769 4666 
L 4769 0 
L 3425 0 
L 1728 3200 
L 1728 0 
L 588 0 
L 588 4666 
z
" transform="scale(0.015625)"/>
     </defs>
     <use xlink:href="#DejaVuSans-Bold-53"/>
     <use xlink:href="#DejaVuSans-Bold-69" transform="translate(72.021484 0)"/>
     <use xlink:href="#DejaVuSans-Bold-6e" transform="translate(106.298828 0)"/>
     <use xlink:href="#DejaVuSans-Bold-67" transform="translate(177.490234 0)"/>
     <use xlink:href="#DejaVuSans-Bold-6c" transform="translate(249.072266 0)"/>
     <use xlink:href="#DejaVuSans-Bold-65" transform="translate(283.349609 0)"/>
     <use xlink:href="#DejaVuSans-Bold-2d" transform="translate(351.171875 0)"/>
     <use xlink:href="#DejaVuSans-Bold-6c" transform="translate(392.675781 0)"/>
     <use xlink:href="#DejaVuSans-Bold-61" transform="translate(426.953125 0)"/>
     <use xlink:href="#DejaVuSans-Bold-79" transform="translate(491.308594 0)"/>
     <use xlink:href="#DejaVuSans-Bold-65" transform="translate(556.494141 0)"/>
     <use xlink:href="#DejaVuSans-Bold-72" transform="translate(624.316406 0)"/>
     <use xlink:href="#DejaVuSans-Bold-20" transform="translate(673.632812 0)"/>
     <use xlink:href="#DejaVuSans-Bold-76" transform="translate(708.447266 0)"/>
     <use xlink:href="#DejaVuSans-Bold-61" transform="translate(773.632812 0)"/>
     <use xlink:href="#DejaVuSans-Bold-6e" transform="translate(841.113281 0)"/>
     <use xlink:href="#DejaVuSans-Bold-69" transform="translate(912.304688 0)"/>
     <use xlink:href="#DejaVuSans-Bold-6c" transform="translate(946.582031 0)"/>
     <use xlink:href="#DejaVuSans-Bold-6c" transform="translate(980.859375 0)"/>
     <use xlink:href="#DejaVuSans-Bold-61" transform="translate(1015.136719 0)"/>
     <use xlink:href="#DejaVuSans-Bold-20" transform="translate(1082.617188 0)"/>
     <use xlink:href="#DejaVuSans-Bold-52" transform="translate(1117.431641 0)"/>
     <use xlink:href="#DejaVuSans-Bold-4e" transform="translate(1194.433594 0)"/>
     <use xlink:href="#DejaVuSans-Bold-4e" transform="translate(1278.125 0)"/>
    </g>
   </g>
   <g id="text_7">
    <!-- $x_t$ -->
    <g transform="translate(51.21 139.739375) scale(0.1 -0.1)">
     <use xlink:href="#DejaVuSans-Oblique-78" transform="translate(0 0.3125)"/>
     <use xlink:href="#DejaVuSans-Oblique-74" transform="translate(59.179688 -16.09375) scale(0.7)"/>
    </g>
   </g>
   <g id="text_8">
    <!-- $h_t$ -->
    <g transform="translate(196.54 139.739375) scale(0.1 -0.1)">
     <use xlink:href="#DejaVuSans-Oblique-68" transform="translate(0 0.015625)"/>
     <use xlink:href="#DejaVuSans-Oblique-74" transform="translate(63.378906 -16.390625) scale(0.7)"/>
    </g>
   </g>
   <g id="text_9">
    <!-- $o_t$ -->
    <g transform="translate(342.17 139.739375) scale(0.1 -0.1)">
     <use xlink:href="#DejaVuSans-Oblique-6f"/>
     <use xlink:href="#DejaVuSans-Oblique-74" transform="translate(61.181641 -16.40625) scale(0.7)"/>
    </g>
   </g>
  </g>
  <g id="text_10">
   <!-- Fig 2 — Single-layer tanh RNN architecture -->
   <g transform="translate(61.791875 15.558281) scale(0.11 -0.11)">
    <defs>
     <path id="DejaVuSans-Bold-46" d="M 588 4666 
L 3834 4666 
L 3834 3756 
L 1791 3756 
L 1791 2888 
L 3713 2888 
L 3713 1978 
L 1791 1978 
L 1791 0 
L 588 0 
L 588 4666 
z
" transform="scale(0.015625)"/>
     <path id="DejaVuSans-Bold-32" d="M 1844 884 
L 3897 884 
L 3897 0 
L 506 0 
L 506 884 
L 2209 2388 
Q 2438 2594 2547 2791 
Q 2656 2988 2656 3200 
Q 2656 3528 2436 3728 
Q 2216 3928 1850 3928 
Q 1569 3928 1234 3808 
Q 900 3688 519 3450 
L 519 4475 
Q 925 4609 1322 4679 
Q 1719 4750 2100 4750 
Q 2938 4750 3402 4381 
Q 3866 4013 3866 3353 
Q 3866 2972 3669 2642 
Q 3472 2313 2841 1759 
L 1844 884 
z
" transform="scale(0.015625)"/>
     <path id="DejaVuSans-Bold-2014" d="M 344 2156 
L 6056 2156 
L 6056 1350 
L 344 1350 
L 344 2156 
z
" transform="scale(0.015625)"/>
     <path id="DejaVuSans-Bold-74" d="M 1759 4494 
L 1759 3500 
L 2913 3500 
L 2913 2700 
L 1759 2700 
L 1759 1216 
Q 1759 972 1856 886 
Q 1953 800 2241 800 
L 2816 800 
L 2816 0 
L 1856 0 
Q 1194 0 917 276 
Q 641 553 641 1216 
L 641 2700 
L 84 2700 
L 84 3500 
L 641 3500 
L 641 4494 
L 1759 4494 
z
" transform="scale(0.015625)"/>
     <path id="DejaVuSans-Bold-68" d="M 4056 2131 
L 4056 0 
L 2931 0 
L 2931 347 
L 2931 1625 
Q 2931 2084 2911 2256 
Q 2891 2428 2841 2509 
Q 2775 2619 2662 2680 
Q 2550 2741 2406 2741 
Q 2056 2741 1856 2470 
Q 1656 2200 1656 1722 
L 1656 0 
L 538 0 
L 538 4863 
L 1656 4863 
L 1656 2988 
Q 1909 3294 2193 3439 
Q 2478 3584 2822 3584 
Q 3428 3584 3742 3212 
Q 4056 2841 4056 2131 
z
" transform="scale(0.015625)"/>
     <path id="DejaVuSans-Bold-63" d="M 3366 3391 
L 3366 2478 
Q 3138 2634 2908 2709 
Q 2678 2784 2431 2784 
Q 1963 2784 1702 2511 
Q 1441 2238 1441 1747 
Q 1441 1256 1702 982 
Q 1963 709 2431 709 
Q 2694 709 2930 787 
Q 3166 866 3366 1019 
L 3366 103 
Q 3103 6 2833 -42 
Q 2563 -91 2291 -91 
Q 1344 -91 809 395 
Q 275 881 275 1747 
Q 275 2613 809 3098 
Q 1344 3584 2291 3584 
Q 2566 3584 2833 3536 
Q 3100 3488 3366 3391 
z
" transform="scale(0.015625)"/>
     <path id="DejaVuSans-Bold-75" d="M 500 1363 
L 500 3500 
L 1625 3500 
L 1625 3150 
Q 1625 2866 1622 2436 
Q 1619 2006 1619 1863 
Q 1619 1441 1641 1255 
Q 1663 1069 1716 984 
Q 1784 875 1895 815 
Q 2006 756 2150 756 
Q 2500 756 2700 1025 
Q 2900 1294 2900 1772 
L 2900 3500 
L 4019 3500 
L 4019 0 
L 2900 0 
L 2900 506 
Q 2647 200 2364 54 
Q 2081 -91 1741 -91 
Q 1134 -91 817 281 
Q 500 653 500 1363 
z
" transform="scale(0.015625)"/>
    </defs>
    <use xlink:href="#DejaVuSans-Bold-46"/>
    <use xlink:href="#DejaVuSans-Bold-69" transform="translate(68.310547 0)"/>
    <use xlink:href="#DejaVuSans-Bold-67" transform="translate(102.587891 0)"/>
    <use xlink:href="#DejaVuSans-Bold-20" transform="translate(174.169922 0)"/>
    <use xlink:href="#DejaVuSans-Bold-32" transform="translate(208.984375 0)"/>
    <use xlink:href="#DejaVuSans-Bold-20" transform="translate(278.564453 0)"/>
    <use xlink:href="#DejaVuSans-Bold-2014" transform="translate(313.378906 0)"/>
    <use xlink:href="#DejaVuSans-Bold-20" transform="translate(413.378906 0)"/>
    <use xlink:href="#DejaVuSans-Bold-53" transform="translate(448.193359 0)"/>
    <use xlink:href="#DejaVuSans-Bold-69" transform="translate(520.214844 0)"/>
    <use xlink:href="#DejaVuSans-Bold-6e" transform="translate(554.492188 0)"/>
    <use xlink:href="#DejaVuSans-Bold-67" transform="translate(625.683594 0)"/>
    <use xlink:href="#DejaVuSans-Bold-6c" transform="translate(697.265625 0)"/>
    <use xlink:href="#DejaVuSans-Bold-65" transform="translate(731.542969 0)"/>
    <use xlink:href="#DejaVuSans-Bold-2d" transform="translate(799.365234 0)"/>
    <use xlink:href="#DejaVuSans-Bold-6c" transform="translate(840.869141 0)"/>
    <use xlink:href="#DejaVuSans-Bold-61" transform="translate(875.146484 0)"/>
    <use xlink:href="#DejaVuSans-Bold-79" transform="translate(939.501953 0)"/>
    <use xlink:href="#DejaVuSans-Bold-65" transform="translate(1004.6875 0)"/>
    <use xlink:href="#DejaVuSans-Bold-72" transform="translate(1072.509766 0)"/>
    <use xlink:href="#DejaVuSans-Bold-20" transform="translate(1121.826172 0)"/>
    <use xlink:href="#DejaVuSans-Bold-74" transform="translate(1156.640625 0)"/>
    <use xlink:href="#DejaVuSans-Bold-61" transform="translate(1204.443359 0)"/>
    <use xlink:href="#DejaVuSans-Bold-6e" transform="translate(1271.923828 0)"/>
    <use xlink:href="#DejaVuSans-Bold-68" transform="translate(1343.115234 0)"/>
    <use xlink:href="#DejaVuSans-Bold-20" transform="translate(1414.306641 0)"/>
    <use xlink:href="#DejaVuSans-Bold-52" transform="translate(1449.121094 0)"/>
    <use xlink:href="#DejaVuSans-Bold-4e" transform="translate(1526.123047 0)"/>
    <use xlink:href="#DejaVuSans-Bold-4e" transform="translate(1609.814453 0)"/>
    <use xlink:href="#DejaVuSans-Bold-20" transform="translate(1693.505859 0)"/>
    <use xlink:href="#DejaVuSans-Bold-61" transform="translate(1728.320312 0)"/>
    <use xlink:href="#DejaVuSans-Bold-72" transform="translate(1795.800781 0)"/>
    <use xlink:href="#DejaVuSans-Bold-63" transform="translate(1845.117188 0)"/>
    <use xlink:href="#DejaVuSans-Bold-68" transform="translate(1904.394531 0)"/>
    <use xlink:href="#DejaVuSans-Bold-69" transform="translate(1975.585938 0)"/>
    <use xlink:href="#DejaVuSans-Bold-74" transform="translate(2009.863281 0)"/>
    <use xlink:href="#DejaVuSans-Bold-65" transform="translate(2057.666016 0)"/>
    <use xlink:href="#DejaVuSans-Bold-63" transform="translate(2125.488281 0)"/>
    <use xlink:href="#DejaVuSans-Bold-74" transform="translate(2184.765625 0)"/>
    <use xlink:href="#DejaVuSans-Bold-75" transform="translate(2232.568359 0)"/>
    <use xlink:href="#DejaVuSans-Bold-72" transform="translate(2303.759766 0)"/>
    <use xlink:href="#DejaVuSans-Bold-65" transform="translate(2353.076172 0)"/>
   </g>
  </g>
 </g>
 <defs>
  <clipPath id="pae299d7f60">
   <rect x="7.2" y="39.96" width="388.08" height="194.04"/>
  </clipPath>
 </defs>
</svg>
