<?xml version="1.0" encoding="utf-8" standalone="no"?>
<!DOCTYPE svg PUBLIC "-//W3C//DTD SVG 1.1//EN"
  "http://www.w3.org/Graphics/SVG/1.1/DTD/svg11.dtd">
<svg xmlns:xlink="http://www.w3.org/1999/xlink" width="678.354545pt" height="306pt" viewBox="0 0 678.354545 306" xmlns="http://www.w3.org/2000/svg" version="1.1">
 <metadata>
  <rdf:RDF xmlns:dc="http://purl.org/dc/elements/1.1/" xmlns:cc="http://creativecommons.org/ns#" xmlns:rdf="http://www.w3.org/1999/02/22-rdf-syntax-ns#">
   <cc:Work>
    <dc:type rdf:resource="http://purl.org/dc/dcmitype/StillImage"/>
    <dc:date>2026-06-11T08:50:17.919056</dc:date>
    <dc:format>image/svg+xml</dc:format>
    <dc:creator>
     <cc:Agent>
      <dc:title>Matplotlib v3.10.0, https://matplotlib.org/</dc:title>
     </cc:Agent>
    </dc:creator>
   </cc:Work>
  </rdf:RDF>
 </metadata>
 <defs>
  <style type="text/css">*{stroke-linejoin: round; stroke-linecap: butt}</style>
 </defs>
 <g id="figure_1">
  <g id="patch_1">
   <path d="M 0 306 
L 678.354545 306 
L 678.354545 0 
L 0 0 
z
" style="fill: #ffffff"/>
  </g>
  <g id="axes_1">
   <g id="patch_2">
    <path d="M 182.211093 150.989276 
C 180.087575 148.999707 177.323539 147.383241 174.140899 146.269659 
C 170.958259 145.156077 167.44453 144.576 163.881818 144.576 
C 160.319106 144.576 156.805378 145.156077 153.622737 146.269659 
C 150.440097 147.383241 147.676061 148.999707 145.552544 150.989276 
" clip-path="url(#p3c957aa4a1)" style="fill: none; stroke: #886600; stroke-width: 2; stroke-linejoin: miter"/>
   </g>
   <g id="patch_3">
    <path d="M 334.392911 150.989276 
C 332.269393 148.999707 329.505357 147.383241 326.322717 146.269659 
C 323.140077 145.156077 319.626348 144.576 316.063636 144.576 
C 312.500924 144.576 308.987196 145.156077 305.804556 146.269659 
C 302.621915 147.383241 299.857879 148.999707 297.734362 150.989276 
" clip-path="url(#p3c957aa4a1)" style="fill: none; stroke: #335577; stroke-width: 2; stroke-linejoin: miter"/>
   </g>
   <g id="patch_4">
    <path d="M 486.574729 150.989276 
C 484.451212 148.999707 481.687176 147.383241 478.504535 146.269659 
C 475.321895 145.156077 471.808167 144.576 468.245455 144.576 
C 464.682742 144.576 461.169014 145.156077 457.986374 146.269659 
C 454.803734 147.383241 452.039698 148.999707 449.91618 150.989276 
" clip-path="url(#p3c957aa4a1)" style="fill: none; stroke: #553388; stroke-width: 2; stroke-linejoin: miter"/>
   </g>
   <g id="patch_5">
    <path d="M 31.452025 185.4 
Q 87.79051 185.4 142.451944 185.4 
" style="fill: none; stroke: #333333; stroke-width: 1.5; stroke-linecap: round"/>
    <path d="M 138.451944 183.4 
L 142.451944 185.4 
L 138.451944 187.4 
" style="fill: none; stroke: #333333; stroke-width: 1.5; stroke-linecap: round"/>
   </g>
   <g id="patch_6">
    <path d="M 183.633843 185.4 
Q 239.972328 185.4 294.633762 185.4 
" style="fill: none; stroke: #333333; stroke-width: 1.5; stroke-linecap: round"/>
    <path d="M 290.633762 183.4 
L 294.633762 185.4 
L 290.633762 187.4 
" style="fill: none; stroke: #333333; stroke-width: 1.5; stroke-linecap: round"/>
   </g>
   <g id="patch_7">
    <path d="M 335.815661 185.4 
Q 392.154146 185.4 446.81558 185.4 
" style="fill: none; stroke: #333333; stroke-width: 1.5; stroke-linecap: round"/>
    <path d="M 442.81558 183.4 
L 446.81558 185.4 
L 442.81558 187.4 
" style="fill: none; stroke: #333333; stroke-width: 1.5; stroke-linecap: round"/>
   </g>
   <g id="patch_8">
    <path d="M 487.997479 185.4 
Q 544.335964 185.4 598.997398 185.4 
" style="fill: none; stroke: #336633; stroke-width: 1.5; stroke-linecap: round"/>
    <path d="M 594.997398 183.4 
L 598.997398 185.4 
L 594.997398 187.4 
" style="fill: none; stroke: #336633; stroke-width: 1.5; stroke-linecap: round"/>
   </g>
   <g id="patch_9">
    <path d="M 142.837431 155.632279 
Q 143.59087 161.3589 144.125548 165.422799 
" style="fill: none; stroke: #886600; stroke-width: 1.5; stroke-linecap: round"/>
    <path d="M 145.586685 161.196089 
L 144.125548 165.422799 
L 141.620862 161.717864 
" style="fill: none; stroke: #886600; stroke-width: 1.5; stroke-linecap: round"/>
   </g>
   <g id="patch_10">
    <path d="M 295.019249 155.632279 
Q 295.772688 161.3589 296.307366 165.422799 
" style="fill: none; stroke: #335577; stroke-width: 1.5; stroke-linecap: round"/>
    <path d="M 297.768503 161.196089 
L 296.307366 165.422799 
L 293.80268 161.717864 
" style="fill: none; stroke: #335577; stroke-width: 1.5; stroke-linecap: round"/>
   </g>
   <g id="patch_11">
    <path d="M 447.201067 155.632279 
Q 447.954506 161.3589 448.489184 165.422799 
" style="fill: none; stroke: #553388; stroke-width: 1.5; stroke-linecap: round"/>
    <path d="M 449.950321 161.196089 
L 448.489184 165.422799 
L 445.984498 161.717864 
" style="fill: none; stroke: #553388; stroke-width: 1.5; stroke-linecap: round"/>
   </g>
   <g id="patch_12">
    <path d="M 11.7 201.276 
C 16.40856 201.276 20.924904 199.603204 24.254359 196.626027 
C 27.583815 193.64885 29.454545 189.610364 29.454545 185.4 
C 29.454545 181.189636 27.583815 177.15115 24.254359 174.173973 
C 20.924904 171.196796 16.40856 169.524 11.7 169.524 
C 6.99144 169.524 2.475096 171.196796 -0.854359 174.173973 
C -4.183815 177.15115 -6.054545 181.189636 -6.054545 185.4 
C -6.054545 189.610364 -4.183815 193.64885 -0.854359 196.626027 
C 2.475096 199.603204 6.99144 201.276 11.7 201.276 
z
" clip-path="url(#p3c957aa4a1)" style="fill: #ffeecc; stroke: #886600; stroke-width: 1.5; stroke-linejoin: miter"/>
   </g>
   <g id="patch_13">
    <path d="M 163.881818 201.276 
C 168.590379 201.276 173.106723 199.603204 176.436178 196.626027 
C 179.765633 193.64885 181.636364 189.610364 181.636364 185.4 
C 181.636364 181.189636 179.765633 177.15115 176.436178 174.173973 
C 173.106723 171.196796 168.590379 169.524 163.881818 169.524 
C 159.173258 169.524 154.656914 171.196796 151.327459 174.173973 
C 147.998004 177.15115 146.127273 181.189636 146.127273 185.4 
C 146.127273 189.610364 147.998004 193.64885 151.327459 196.626027 
C 154.656914 199.603204 159.173258 201.276 163.881818 201.276 
z
" clip-path="url(#p3c957aa4a1)" style="fill: #ffeecc; stroke: #886600; stroke-width: 1.5; stroke-linejoin: miter"/>
   </g>
   <g id="patch_14">
    <path d="M 316.063636 201.276 
C 320.772197 201.276 325.288541 199.603204 328.617996 196.626027 
C 331.947451 193.64885 333.818182 189.610364 333.818182 185.4 
C 333.818182 181.189636 331.947451 177.15115 328.617996 174.173973 
C 325.288541 171.196796 320.772197 169.524 316.063636 169.524 
C 311.355076 169.524 306.838732 171.196796 303.509277 174.173973 
C 300.179822 177.15115 298.309091 181.189636 298.309091 185.4 
C 298.309091 189.610364 300.179822 193.64885 303.509277 196.626027 
C 306.838732 199.603204 311.355076 201.276 316.063636 201.276 
z
" clip-path="url(#p3c957aa4a1)" style="fill: #ddeeff; stroke: #335577; stroke-width: 1.5; stroke-linejoin: miter"/>
   </g>
   <g id="patch_15">
    <path d="M 468.245455 201.276 
C 472.954015 201.276 477.470359 199.603204 480.799814 196.626027 
C 484.129269 193.64885 486 189.610364 486 185.4 
C 486 181.189636 484.129269 177.15115 480.799814 174.173973 
C 477.470359 171.196796 472.954015 169.524 468.245455 169.524 
C 463.536894 169.524 459.02055 171.196796 455.691095 174.173973 
C 452.36164 177.15115 450.490909 181.189636 450.490909 185.4 
C 450.490909 189.610364 452.36164 193.64885 455.691095 196.626027 
C 459.02055 199.603204 463.536894 201.276 468.245455 201.276 
z
" clip-path="url(#p3c957aa4a1)" style="fill: #eee0ff; stroke: #553388; stroke-width: 1.5; stroke-linejoin: miter"/>
   </g>
   <g id="patch_16">
    <path d="M 620.427273 201.276 
C 625.135833 201.276 629.652177 199.603204 632.981632 196.626027 
C 636.311087 193.64885 638.181818 189.610364 638.181818 185.4 
C 638.181818 181.189636 636.311087 177.15115 632.981632 174.173973 
C 629.652177 171.196796 625.135833 169.524 620.427273 169.524 
C 615.718712 169.524 611.202368 171.196796 607.872913 174.173973 
C 604.543458 177.15115 602.672727 181.189636 602.672727 185.4 
C 602.672727 189.610364 604.543458 193.64885 607.872913 196.626027 
C 611.202368 199.603204 615.718712 201.276 620.427273 201.276 
z
" clip-path="url(#p3c957aa4a1)" style="fill: #eeffee; stroke: #336633; stroke-width: 1.5; stroke-linejoin: miter"/>
   </g>
   <g id="text_1">
    <!-- $W_{in}$ -->
    <g transform="translate(81.150909 172.6992) scale(0.08 -0.08)">
     <defs>
      <path id="DejaVuSans-Oblique-57" d="M 616 4666 
L 1228 4666 
L 1453 697 
L 3213 4666 
L 3916 4666 
L 4147 697 
L 5888 4666 
L 6528 4666 
L 4453 0 
L 3659 0 
L 3444 3891 
L 1697 0 
L 903 0 
L 616 4666 
z
" transform="scale(0.015625)"/>
      <path id="DejaVuSans-Oblique-69" d="M 1172 4863 
L 1747 4863 
L 1606 4134 
L 1031 4134 
L 1172 4863 
z
M 909 3500 
L 1484 3500 
L 800 0 
L 225 0 
L 909 3500 
z
" transform="scale(0.015625)"/>
      <path id="DejaVuSans-Oblique-6e" d="M 3566 2113 
L 3156 0 
L 2578 0 
L 2988 2091 
Q 3016 2238 3031 2350 
Q 3047 2463 3047 2528 
Q 3047 2791 2881 2937 
Q 2716 3084 2419 3084 
Q 1956 3084 1622 2776 
Q 1288 2469 1184 1941 
L 800 0 
L 225 0 
L 903 3500 
L 1478 3500 
L 1363 2950 
Q 1603 3253 1940 3418 
Q 2278 3584 2650 3584 
Q 3113 3584 3367 3334 
Q 3622 3084 3622 2631 
Q 3622 2519 3608 2391 
Q 3594 2263 3566 2113 
z
" transform="scale(0.015625)"/>
     </defs>
     <use xlink:href="#DejaVuSans-Oblique-57" transform="translate(0 0.09375)"/>
     <use xlink:href="#DejaVuSans-Oblique-69" transform="translate(98.876953 -16.3125) scale(0.7)"/>
     <use xlink:href="#DejaVuSans-Oblique-6e" transform="translate(118.325195 -16.3125) scale(0.7)"/>
    </g>
   </g>
   <g id="text_2">
    <!-- $W^{2}_{\!ff}$ -->
    <g transform="translate(233.812727 172.6992) scale(0.08 -0.08)">
     <defs>
      <path id="DejaVuSans-32" d="M 1228 531 
L 3431 531 
L 3431 0 
L 469 0 
L 469 531 
Q 828 903 1448 1529 
Q 2069 2156 2228 2338 
Q 2531 2678 2651 2914 
Q 2772 3150 2772 3378 
Q 2772 3750 2511 3984 
Q 2250 4219 1831 4219 
Q 1534 4219 1204 4116 
Q 875 4013 500 3803 
L 500 4441 
Q 881 4594 1212 4672 
Q 1544 4750 1819 4750 
Q 2544 4750 2975 4387 
Q 3406 4025 3406 3419 
Q 3406 3131 3298 2873 
Q 3191 2616 2906 2266 
Q 2828 2175 2409 1742 
Q 1991 1309 1228 531 
z
" transform="scale(0.015625)"/>
      <path id="DejaVuSans-Oblique-66" d="M 3059 4863 
L 2969 4384 
L 2419 4384 
Q 2106 4384 1964 4261 
Q 1822 4138 1753 3809 
L 1691 3500 
L 2638 3500 
L 2553 3053 
L 1606 3053 
L 1013 0 
L 434 0 
L 1031 3053 
L 481 3053 
L 563 3500 
L 1113 3500 
L 1159 3744 
Q 1278 4363 1576 4613 
Q 1875 4863 2516 4863 
L 3059 4863 
z
" transform="scale(0.015625)"/>
     </defs>
     <use xlink:href="#DejaVuSans-Oblique-57" transform="translate(0 0.701562)"/>
     <use xlink:href="#DejaVuSans-32" transform="translate(105.893724 39.046875) scale(0.7)"/>
     <use xlink:href="#DejaVuSans-Oblique-66" transform="translate(87.51198 -26.642188) scale(0.7)"/>
     <use xlink:href="#DejaVuSans-Oblique-66" transform="translate(112.155534 -26.642188) scale(0.7)"/>
    </g>
   </g>
   <g id="text_3">
    <!-- $W^{3}_{\!ff}$ -->
    <g transform="translate(385.994545 172.6992) scale(0.08 -0.08)">
     <defs>
      <path id="DejaVuSans-33" d="M 2597 2516 
Q 3050 2419 3304 2112 
Q 3559 1806 3559 1356 
Q 3559 666 3084 287 
Q 2609 -91 1734 -91 
Q 1441 -91 1130 -33 
Q 819 25 488 141 
L 488 750 
Q 750 597 1062 519 
Q 1375 441 1716 441 
Q 2309 441 2620 675 
Q 2931 909 2931 1356 
Q 2931 1769 2642 2001 
Q 2353 2234 1838 2234 
L 1294 2234 
L 1294 2753 
L 1863 2753 
Q 2328 2753 2575 2939 
Q 2822 3125 2822 3475 
Q 2822 3834 2567 4026 
Q 2313 4219 1838 4219 
Q 1578 4219 1281 4162 
Q 984 4106 628 3988 
L 628 4550 
Q 988 4650 1302 4700 
Q 1616 4750 1894 4750 
Q 2613 4750 3031 4423 
Q 3450 4097 3450 3541 
Q 3450 3153 3228 2886 
Q 3006 2619 2597 2516 
z
" transform="scale(0.015625)"/>
     </defs>
     <use xlink:href="#DejaVuSans-Oblique-57" transform="translate(0 0.70625)"/>
     <use xlink:href="#DejaVuSans-33" transform="translate(105.893724 40.046875) scale(0.7)"/>
     <use xlink:href="#DejaVuSans-Oblique-66" transform="translate(87.51198 -26.6375) scale(0.7)"/>
     <use xlink:href="#DejaVuSans-Oblique-66" transform="translate(112.155534 -26.6375) scale(0.7)"/>
    </g>
   </g>
   <g id="text_4">
    <!-- $W_{out}$ -->
    <g style="fill: #336633" transform="translate(535.656364 172.6992) scale(0.08 -0.08)">
     <defs>
      <path id="DejaVuSans-Oblique-6f" d="M 1625 -91 
Q 1009 -91 651 289 
Q 294 669 294 1325 
Q 294 1706 417 2101 
Q 541 2497 738 2766 
Q 1047 3184 1428 3384 
Q 1809 3584 2291 3584 
Q 2888 3584 3255 3212 
Q 3622 2841 3622 2241 
Q 3622 1825 3500 1412 
Q 3378 1000 3181 728 
Q 2875 309 2494 109 
Q 2113 -91 1625 -91 
z
M 891 1344 
Q 891 869 1089 633 
Q 1288 397 1691 397 
Q 2269 397 2648 901 
Q 3028 1406 3028 2181 
Q 3028 2634 2825 2865 
Q 2622 3097 2228 3097 
Q 1903 3097 1650 2945 
Q 1397 2794 1197 2484 
Q 1050 2253 970 1956 
Q 891 1659 891 1344 
z
" transform="scale(0.015625)"/>
      <path id="DejaVuSans-Oblique-75" d="M 428 1388 
L 838 3500 
L 1416 3500 
L 1006 1409 
Q 975 1256 961 1147 
Q 947 1038 947 966 
Q 947 700 1109 554 
Q 1272 409 1569 409 
Q 2031 409 2368 721 
Q 2706 1034 2809 1563 
L 3194 3500 
L 3769 3500 
L 3091 0 
L 2516 0 
L 2631 550 
Q 2388 244 2052 76 
Q 1716 -91 1338 -91 
Q 878 -91 622 161 
Q 366 413 366 863 
Q 366 956 381 1097 
Q 397 1238 428 1388 
z
" transform="scale(0.015625)"/>
      <path id="DejaVuSans-Oblique-74" d="M 2706 3500 
L 2619 3053 
L 1472 3053 
L 1100 1153 
Q 1081 1047 1072 975 
Q 1063 903 1063 863 
Q 1063 663 1183 572 
Q 1303 481 1569 481 
L 2150 481 
L 2053 0 
L 1503 0 
Q 991 0 739 200 
Q 488 400 488 806 
Q 488 878 497 964 
Q 506 1050 525 1153 
L 897 3053 
L 409 3053 
L 500 3500 
L 978 3500 
L 1172 4494 
L 1747 4494 
L 1556 3500 
L 2706 3500 
z
" transform="scale(0.015625)"/>
     </defs>
     <use xlink:href="#DejaVuSans-Oblique-57" transform="translate(0 0.09375)"/>
     <use xlink:href="#DejaVuSans-Oblique-6f" transform="translate(98.876953 -16.3125) scale(0.7)"/>
     <use xlink:href="#DejaVuSans-Oblique-75" transform="translate(141.704102 -16.3125) scale(0.7)"/>
     <use xlink:href="#DejaVuSans-Oblique-74" transform="translate(186.069336 -16.3125) scale(0.7)"/>
    </g>
   </g>
   <g id="text_5">
    <!-- $W^{1}_{\!rec}$ -->
    <g style="fill: #886600" transform="translate(155.841818 128.7) scale(0.08 -0.08)">
     <defs>
      <path id="DejaVuSans-31" d="M 794 531 
L 1825 531 
L 1825 4091 
L 703 3866 
L 703 4441 
L 1819 4666 
L 2450 4666 
L 2450 531 
L 3481 531 
L 3481 0 
L 794 0 
L 794 531 
z
" transform="scale(0.015625)"/>
      <path id="DejaVuSans-Oblique-72" d="M 2853 2969 
Q 2766 3016 2653 3041 
Q 2541 3066 2413 3066 
Q 1953 3066 1609 2717 
Q 1266 2369 1153 1784 
L 800 0 
L 225 0 
L 909 3500 
L 1484 3500 
L 1375 2956 
Q 1603 3259 1920 3421 
Q 2238 3584 2597 3584 
Q 2691 3584 2781 3573 
Q 2872 3563 2963 3538 
L 2853 2969 
z
" transform="scale(0.015625)"/>
      <path id="DejaVuSans-Oblique-65" d="M 3078 2063 
Q 3088 2113 3092 2166 
Q 3097 2219 3097 2272 
Q 3097 2653 2873 2875 
Q 2650 3097 2266 3097 
Q 1838 3097 1509 2826 
Q 1181 2556 1013 2059 
L 3078 2063 
z
M 3578 1613 
L 903 1613 
Q 884 1494 878 1425 
Q 872 1356 872 1306 
Q 872 872 1139 634 
Q 1406 397 1894 397 
Q 2269 397 2603 481 
Q 2938 566 3225 728 
L 3116 159 
Q 2806 34 2476 -28 
Q 2147 -91 1806 -91 
Q 1078 -91 686 257 
Q 294 606 294 1247 
Q 294 1794 489 2264 
Q 684 2734 1063 3103 
Q 1306 3334 1642 3459 
Q 1978 3584 2356 3584 
Q 2950 3584 3301 3228 
Q 3653 2872 3653 2272 
Q 3653 2128 3634 1964 
Q 3616 1800 3578 1613 
z
" transform="scale(0.015625)"/>
      <path id="DejaVuSans-Oblique-63" d="M 3431 3366 
L 3316 2797 
Q 3109 2947 2876 3022 
Q 2644 3097 2394 3097 
Q 2119 3097 1870 3000 
Q 1622 2903 1453 2725 
Q 1184 2453 1037 2087 
Q 891 1722 891 1331 
Q 891 859 1127 628 
Q 1363 397 1844 397 
Q 2081 397 2348 469 
Q 2616 541 2906 684 
L 2797 116 
Q 2547 13 2283 -39 
Q 2019 -91 1741 -91 
Q 1044 -91 669 257 
Q 294 606 294 1253 
Q 294 1797 489 2255 
Q 684 2713 1069 3078 
Q 1331 3328 1684 3456 
Q 2038 3584 2456 3584 
Q 2700 3584 2940 3529 
Q 3181 3475 3431 3366 
z
" transform="scale(0.015625)"/>
     </defs>
     <use xlink:href="#DejaVuSans-Oblique-57" transform="translate(0 0.684375)"/>
     <use xlink:href="#DejaVuSans-31" transform="translate(105.893724 38.965625) scale(0.7)"/>
     <use xlink:href="#DejaVuSans-Oblique-72" transform="translate(87.51198 -26.659375) scale(0.7)"/>
     <use xlink:href="#DejaVuSans-Oblique-65" transform="translate(116.291277 -26.659375) scale(0.7)"/>
     <use xlink:href="#DejaVuSans-Oblique-63" transform="translate(159.357683 -26.659375) scale(0.7)"/>
    </g>
   </g>
   <g id="text_6">
    <!-- $W^{2}_{\!rec}$ -->
    <g style="fill: #335577" transform="translate(308.023636 128.7) scale(0.08 -0.08)">
     <use xlink:href="#DejaVuSans-Oblique-57" transform="translate(0 0.765625)"/>
     <use xlink:href="#DejaVuSans-32" transform="translate(105.893724 39.046875) scale(0.7)"/>
     <use xlink:href="#DejaVuSans-Oblique-72" transform="translate(87.51198 -26.578125) scale(0.7)"/>
     <use xlink:href="#DejaVuSans-Oblique-65" transform="translate(116.291277 -26.578125) scale(0.7)"/>
     <use xlink:href="#DejaVuSans-Oblique-63" transform="translate(159.357683 -26.578125) scale(0.7)"/>
    </g>
   </g>
   <g id="text_7">
    <!-- $W^{3}_{\!rec}$ -->
    <g style="fill: #553388" transform="translate(460.205455 128.7) scale(0.08 -0.08)">
     <use xlink:href="#DejaVuSans-Oblique-57" transform="translate(0 0.765625)"/>
     <use xlink:href="#DejaVuSans-33" transform="translate(105.893724 39.046875) scale(0.7)"/>
     <use xlink:href="#DejaVuSans-Oblique-72" transform="translate(87.51198 -26.578125) scale(0.7)"/>
     <use xlink:href="#DejaVuSans-Oblique-65" transform="translate(116.291277 -26.578125) scale(0.7)"/>
     <use xlink:href="#DejaVuSans-Oblique-63" transform="translate(159.357683 -26.578125) scale(0.7)"/>
    </g>
   </g>
   <g id="text_8">
    <!-- Layer 1 -->
    <g style="fill: #808080" transform="translate(148.912443 276.12) scale(0.08 -0.08)">
     <defs>
      <path id="DejaVuSans-4c" d="M 628 4666 
L 1259 4666 
L 1259 531 
L 3531 531 
L 3531 0 
L 628 0 
L 628 4666 
z
" transform="scale(0.015625)"/>
      <path id="DejaVuSans-61" d="M 2194 1759 
Q 1497 1759 1228 1600 
Q 959 1441 959 1056 
Q 959 750 1161 570 
Q 1363 391 1709 391 
Q 2188 391 2477 730 
Q 2766 1069 2766 1631 
L 2766 1759 
L 2194 1759 
z
M 3341 1997 
L 3341 0 
L 2766 0 
L 2766 531 
Q 2569 213 2275 61 
Q 1981 -91 1556 -91 
Q 1019 -91 701 211 
Q 384 513 384 1019 
Q 384 1609 779 1909 
Q 1175 2209 1959 2209 
L 2766 2209 
L 2766 2266 
Q 2766 2663 2505 2880 
Q 2244 3097 1772 3097 
Q 1472 3097 1187 3025 
Q 903 2953 641 2809 
L 641 3341 
Q 956 3463 1253 3523 
Q 1550 3584 1831 3584 
Q 2591 3584 2966 3190 
Q 3341 2797 3341 1997 
z
" transform="scale(0.015625)"/>
      <path id="DejaVuSans-79" d="M 2059 -325 
Q 1816 -950 1584 -1140 
Q 1353 -1331 966 -1331 
L 506 -1331 
L 506 -850 
L 844 -850 
Q 1081 -850 1212 -737 
Q 1344 -625 1503 -206 
L 1606 56 
L 191 3500 
L 800 3500 
L 1894 763 
L 2988 3500 
L 3597 3500 
L 2059 -325 
z
" transform="scale(0.015625)"/>
      <path id="DejaVuSans-65" d="M 3597 1894 
L 3597 1613 
L 953 1613 
Q 991 1019 1311 708 
Q 1631 397 2203 397 
Q 2534 397 2845 478 
Q 3156 559 3463 722 
L 3463 178 
Q 3153 47 2828 -22 
Q 2503 -91 2169 -91 
Q 1331 -91 842 396 
Q 353 884 353 1716 
Q 353 2575 817 3079 
Q 1281 3584 2069 3584 
Q 2775 3584 3186 3129 
Q 3597 2675 3597 1894 
z
M 3022 2063 
Q 3016 2534 2758 2815 
Q 2500 3097 2075 3097 
Q 1594 3097 1305 2825 
Q 1016 2553 972 2059 
L 3022 2063 
z
" transform="scale(0.015625)"/>
      <path id="DejaVuSans-72" d="M 2631 2963 
Q 2534 3019 2420 3045 
Q 2306 3072 2169 3072 
Q 1681 3072 1420 2755 
Q 1159 2438 1159 1844 
L 1159 0 
L 581 0 
L 581 3500 
L 1159 3500 
L 1159 2956 
Q 1341 3275 1631 3429 
Q 1922 3584 2338 3584 
Q 2397 3584 2469 3576 
Q 2541 3569 2628 3553 
L 2631 2963 
z
" transform="scale(0.015625)"/>
      <path id="DejaVuSans-20" transform="scale(0.015625)"/>
     </defs>
     <use xlink:href="#DejaVuSans-4c"/>
     <use xlink:href="#DejaVuSans-61" transform="translate(55.712891 0)"/>
     <use xlink:href="#DejaVuSans-79" transform="translate(116.992188 0)"/>
     <use xlink:href="#DejaVuSans-65" transform="translate(176.171875 0)"/>
     <use xlink:href="#DejaVuSans-72" transform="translate(237.695312 0)"/>
     <use xlink:href="#DejaVuSans-20" transform="translate(278.808594 0)"/>
     <use xlink:href="#DejaVuSans-31" transform="translate(310.595703 0)"/>
    </g>
   </g>
   <g id="text_9">
    <!-- Layer 2 -->
    <g style="fill: #808080" transform="translate(301.094261 276.12) scale(0.08 -0.08)">
     <use xlink:href="#DejaVuSans-4c"/>
     <use xlink:href="#DejaVuSans-61" transform="translate(55.712891 0)"/>
     <use xlink:href="#DejaVuSans-79" transform="translate(116.992188 0)"/>
     <use xlink:href="#DejaVuSans-65" transform="translate(176.171875 0)"/>
     <use xlink:href="#DejaVuSans-72" transform="translate(237.695312 0)"/>
     <use xlink:href="#DejaVuSans-20" transform="translate(278.808594 0)"/>
     <use xlink:href="#DejaVuSans-32" transform="translate(310.595703 0)"/>
    </g>
   </g>
   <g id="text_10">
    <!-- Layer 3 -->
    <g style="fill: #808080" transform="translate(453.27608 276.12) scale(0.08 -0.08)">
     <use xlink:href="#DejaVuSans-4c"/>
     <use xlink:href="#DejaVuSans-61" transform="translate(55.712891 0)"/>
     <use xlink:href="#DejaVuSans-79" transform="translate(116.992188 0)"/>
     <use xlink:href="#DejaVuSans-65" transform="translate(176.171875 0)"/>
     <use xlink:href="#DejaVuSans-72" transform="translate(237.695312 0)"/>
     <use xlink:href="#DejaVuSans-20" transform="translate(278.808594 0)"/>
     <use xlink:href="#DejaVuSans-33" transform="translate(310.595703 0)"/>
    </g>
   </g>
   <g id="text_11">
    <!-- $h^l_t = \tanh(W^l_{rec}\,h^l_{t-1} + W^l_{ff}\,h^{l-1}_t + b^l)$ -->
    <g transform="translate(315.474545 294.264) scale(0.09 -0.09)">
     <defs>
      <path id="DejaVuSans-Oblique-68" d="M 3566 2113 
L 3156 0 
L 2578 0 
L 2988 2091 
Q 3016 2238 3031 2350 
Q 3047 2463 3047 2528 
Q 3047 2791 2881 2937 
Q 2716 3084 2419 3084 
Q 1956 3084 1617 2771 
Q 1278 2459 1178 1941 
L 800 0 
L 225 0 
L 1172 4863 
L 1747 4863 
L 1375 2950 
Q 1594 3244 1934 3414 
Q 2275 3584 2650 3584 
Q 3113 3584 3367 3334 
Q 3622 3084 3622 2631 
Q 3622 2519 3608 2391 
Q 3594 2263 3566 2113 
z
" transform="scale(0.015625)"/>
      <path id="DejaVuSans-Oblique-6c" d="M 1172 4863 
L 1747 4863 
L 800 0 
L 225 0 
L 1172 4863 
z
" transform="scale(0.015625)"/>
      <path id="DejaVuSans-3d" d="M 678 2906 
L 4684 2906 
L 4684 2381 
L 678 2381 
L 678 2906 
z
M 678 1631 
L 4684 1631 
L 4684 1100 
L 678 1100 
L 678 1631 
z
" transform="scale(0.015625)"/>
      <path id="DejaVuSans-74" d="M 1172 4494 
L 1172 3500 
L 2356 3500 
L 2356 3053 
L 1172 3053 
L 1172 1153 
Q 1172 725 1289 603 
Q 1406 481 1766 481 
L 2356 481 
L 2356 0 
L 1766 0 
Q 1100 0 847 248 
Q 594 497 594 1153 
L 594 3053 
L 172 3053 
L 172 3500 
L 594 3500 
L 594 4494 
L 1172 4494 
z
" transform="scale(0.015625)"/>
      <path id="DejaVuSans-6e" d="M 3513 2113 
L 3513 0 
L 2938 0 
L 2938 2094 
Q 2938 2591 2744 2837 
Q 2550 3084 2163 3084 
Q 1697 3084 1428 2787 
Q 1159 2491 1159 1978 
L 1159 0 
L 581 0 
L 581 3500 
L 1159 3500 
L 1159 2956 
Q 1366 3272 1645 3428 
Q 1925 3584 2291 3584 
Q 2894 3584 3203 3211 
Q 3513 2838 3513 2113 
z
" transform="scale(0.015625)"/>
      <path id="DejaVuSans-68" d="M 3513 2113 
L 3513 0 
L 2938 0 
L 2938 2094 
Q 2938 2591 2744 2837 
Q 2550 3084 2163 3084 
Q 1697 3084 1428 2787 
Q 1159 2491 1159 1978 
L 1159 0 
L 581 0 
L 581 4863 
L 1159 4863 
L 1159 2956 
Q 1366 3272 1645 3428 
Q 1925 3584 2291 3584 
Q 2894 3584 3203 3211 
Q 3513 2838 3513 2113 
z
" transform="scale(0.015625)"/>
      <path id="DejaVuSans-28" d="M 1984 4856 
Q 1566 4138 1362 3434 
Q 1159 2731 1159 2009 
Q 1159 1288 1364 580 
Q 1569 -128 1984 -844 
L 1484 -844 
Q 1016 -109 783 600 
Q 550 1309 550 2009 
Q 550 2706 781 3412 
Q 1013 4119 1484 4856 
L 1984 4856 
z
" transform="scale(0.015625)"/>
      <path id="DejaVuSans-2212" d="M 678 2272 
L 4684 2272 
L 4684 1741 
L 678 1741 
L 678 2272 
z
" transform="scale(0.015625)"/>
      <path id="DejaVuSans-2b" d="M 2944 4013 
L 2944 2272 
L 4684 2272 
L 4684 1741 
L 2944 1741 
L 2944 0 
L 2419 0 
L 2419 1741 
L 678 1741 
L 678 2272 
L 2419 2272 
L 2419 4013 
L 2944 4013 
z
" transform="scale(0.015625)"/>
      <path id="DejaVuSans-Oblique-62" d="M 3169 2138 
Q 3169 2591 2961 2847 
Q 2753 3103 2388 3103 
Q 2122 3103 1889 2973 
Q 1656 2844 1484 2597 
Q 1303 2338 1198 1995 
Q 1094 1653 1094 1313 
Q 1094 881 1298 636 
Q 1503 391 1863 391 
Q 2134 391 2365 517 
Q 2597 644 2772 891 
Q 2950 1147 3059 1487 
Q 3169 1828 3169 2138 
z
M 1381 2969 
Q 1594 3256 1914 3420 
Q 2234 3584 2584 3584 
Q 3122 3584 3439 3221 
Q 3756 2859 3756 2241 
Q 3756 1734 3570 1259 
Q 3384 784 3041 416 
Q 2816 172 2522 40 
Q 2228 -91 1906 -91 
Q 1566 -91 1316 65 
Q 1066 222 909 531 
L 806 0 
L 231 0 
L 1178 4863 
L 1753 4863 
L 1381 2969 
z
" transform="scale(0.015625)"/>
      <path id="DejaVuSans-29" d="M 513 4856 
L 1013 4856 
Q 1481 4119 1714 3412 
Q 1947 2706 1947 2009 
Q 1947 1309 1714 600 
Q 1481 -109 1013 -844 
L 513 -844 
Q 928 -128 1133 580 
Q 1338 1288 1338 2009 
Q 1338 2731 1133 3434 
Q 928 4138 513 4856 
z
" transform="scale(0.015625)"/>
     </defs>
     <use xlink:href="#DejaVuSans-Oblique-68" transform="translate(0 0.465625)"/>
     <use xlink:href="#DejaVuSans-Oblique-6c" transform="translate(70.826615 38.746875) scale(0.7)"/>
     <use xlink:href="#DejaVuSans-Oblique-74" transform="translate(63.378906 -26.878125) scale(0.7)"/>
     <use xlink:href="#DejaVuSans-3d" transform="translate(113.041992 0.465625)"/>
     <use xlink:href="#DejaVuSans-74" transform="translate(216.313477 0.465625)"/>
     <use xlink:href="#DejaVuSans-61" transform="translate(255.522461 0.465625)"/>
     <use xlink:href="#DejaVuSans-6e" transform="translate(316.801758 0.465625)"/>
     <use xlink:href="#DejaVuSans-68" transform="translate(380.180664 0.465625)"/>
     <use xlink:href="#DejaVuSans-28" transform="translate(443.55957 0.465625)"/>
     <use xlink:href="#DejaVuSans-Oblique-57" transform="translate(482.573242 0.465625)"/>
     <use xlink:href="#DejaVuSans-Oblique-6c" transform="translate(588.466966 38.746875) scale(0.7)"/>
     <use xlink:href="#DejaVuSans-Oblique-72" transform="translate(581.450195 -26.878125) scale(0.7)"/>
     <use xlink:href="#DejaVuSans-Oblique-65" transform="translate(610.229492 -26.878125) scale(0.7)"/>
     <use xlink:href="#DejaVuSans-Oblique-63" transform="translate(653.295898 -26.878125) scale(0.7)"/>
     <use xlink:href="#DejaVuSans-Oblique-68" transform="translate(710.752278 0.465625)"/>
     <use xlink:href="#DejaVuSans-Oblique-6c" transform="translate(781.578892 38.746875) scale(0.7)"/>
     <use xlink:href="#DejaVuSans-Oblique-74" transform="translate(774.131184 -26.878125) scale(0.7)"/>
     <use xlink:href="#DejaVuSans-2212" transform="translate(815.215168 -26.878125) scale(0.7)"/>
     <use xlink:href="#DejaVuSans-31" transform="translate(887.505208 -26.878125) scale(0.7)"/>
     <use xlink:href="#DejaVuSans-2b" transform="translate(954.258137 0.465625)"/>
     <use xlink:href="#DejaVuSans-Oblique-57" transform="translate(1057.529622 0.465625)"/>
     <use xlink:href="#DejaVuSans-Oblique-6c" transform="translate(1163.423346 38.810938) scale(0.7)"/>
     <use xlink:href="#DejaVuSans-Oblique-66" transform="translate(1156.406575 -26.878125) scale(0.7)"/>
     <use xlink:href="#DejaVuSans-Oblique-66" transform="translate(1181.050129 -26.878125) scale(0.7)"/>
     <use xlink:href="#DejaVuSans-Oblique-68" transform="translate(1224.663735 0.465625)"/>
     <use xlink:href="#DejaVuSans-Oblique-6c" transform="translate(1295.49035 38.746875) scale(0.7)"/>
     <use xlink:href="#DejaVuSans-2212" transform="translate(1328.576287 38.746875) scale(0.7)"/>
     <use xlink:href="#DejaVuSans-31" transform="translate(1400.866326 38.746875) scale(0.7)"/>
     <use xlink:href="#DejaVuSans-Oblique-74" transform="translate(1288.042642 -26.878125) scale(0.7)"/>
     <use xlink:href="#DejaVuSans-2b" transform="translate(1467.619256 0.465625)"/>
     <use xlink:href="#DejaVuSans-Oblique-62" transform="translate(1570.890741 0.465625)"/>
     <use xlink:href="#DejaVuSans-Oblique-6c" transform="translate(1641.815011 38.746875) scale(0.7)"/>
     <use xlink:href="#DejaVuSans-29" transform="translate(1663.997629 0.465625)"/>
    </g>
   </g>
   <g id="text_12">
    <!-- 3-layer deep RNN -->
    <g transform="translate(333.062983 41.32) scale(0.12 -0.12)">
     <defs>
      <path id="DejaVuSans-Bold-33" d="M 2981 2516 
Q 3453 2394 3698 2092 
Q 3944 1791 3944 1325 
Q 3944 631 3412 270 
Q 2881 -91 1863 -91 
Q 1503 -91 1142 -33 
Q 781 25 428 141 
L 428 1069 
Q 766 900 1098 814 
Q 1431 728 1753 728 
Q 2231 728 2486 893 
Q 2741 1059 2741 1369 
Q 2741 1688 2480 1852 
Q 2219 2016 1709 2016 
L 1228 2016 
L 1228 2791 
L 1734 2791 
Q 2188 2791 2409 2933 
Q 2631 3075 2631 3366 
Q 2631 3634 2415 3781 
Q 2200 3928 1806 3928 
Q 1516 3928 1219 3862 
Q 922 3797 628 3669 
L 628 4550 
Q 984 4650 1334 4700 
Q 1684 4750 2022 4750 
Q 2931 4750 3382 4451 
Q 3834 4153 3834 3553 
Q 3834 3144 3618 2883 
Q 3403 2622 2981 2516 
z
" transform="scale(0.015625)"/>
      <path id="DejaVuSans-Bold-2d" d="M 347 2297 
L 2309 2297 
L 2309 1388 
L 347 1388 
L 347 2297 
z
" transform="scale(0.015625)"/>
      <path id="DejaVuSans-Bold-6c" d="M 538 4863 
L 1656 4863 
L 1656 0 
L 538 0 
L 538 4863 
z
" transform="scale(0.015625)"/>
      <path id="DejaVuSans-Bold-61" d="M 2106 1575 
Q 1756 1575 1579 1456 
Q 1403 1338 1403 1106 
Q 1403 894 1545 773 
Q 1688 653 1941 653 
Q 2256 653 2472 879 
Q 2688 1106 2688 1447 
L 2688 1575 
L 2106 1575 
z
M 3816 1997 
L 3816 0 
L 2688 0 
L 2688 519 
Q 2463 200 2181 54 
Q 1900 -91 1497 -91 
Q 953 -91 614 226 
Q 275 544 275 1050 
Q 275 1666 698 1953 
Q 1122 2241 2028 2241 
L 2688 2241 
L 2688 2328 
Q 2688 2594 2478 2717 
Q 2269 2841 1825 2841 
Q 1466 2841 1156 2769 
Q 847 2697 581 2553 
L 581 3406 
Q 941 3494 1303 3539 
Q 1666 3584 2028 3584 
Q 2975 3584 3395 3211 
Q 3816 2838 3816 1997 
z
" transform="scale(0.015625)"/>
      <path id="DejaVuSans-Bold-79" d="M 78 3500 
L 1197 3500 
L 2138 1125 
L 2938 3500 
L 4056 3500 
L 2584 -331 
Q 2363 -916 2067 -1148 
Q 1772 -1381 1288 -1381 
L 641 -1381 
L 641 -647 
L 991 -647 
Q 1275 -647 1404 -556 
Q 1534 -466 1606 -231 
L 1638 -134 
L 78 3500 
z
" transform="scale(0.015625)"/>
      <path id="DejaVuSans-Bold-65" d="M 4031 1759 
L 4031 1441 
L 1416 1441 
Q 1456 1047 1700 850 
Q 1944 653 2381 653 
Q 2734 653 3104 758 
Q 3475 863 3866 1075 
L 3866 213 
Q 3469 63 3072 -14 
Q 2675 -91 2278 -91 
Q 1328 -91 801 392 
Q 275 875 275 1747 
Q 275 2603 792 3093 
Q 1309 3584 2216 3584 
Q 3041 3584 3536 3087 
Q 4031 2591 4031 1759 
z
M 2881 2131 
Q 2881 2450 2695 2645 
Q 2509 2841 2209 2841 
Q 1884 2841 1681 2658 
Q 1478 2475 1428 2131 
L 2881 2131 
z
" transform="scale(0.015625)"/>
      <path id="DejaVuSans-Bold-72" d="M 3138 2547 
Q 2991 2616 2845 2648 
Q 2700 2681 2553 2681 
Q 2122 2681 1889 2404 
Q 1656 2128 1656 1613 
L 1656 0 
L 538 0 
L 538 3500 
L 1656 3500 
L 1656 2925 
Q 1872 3269 2151 3426 
Q 2431 3584 2822 3584 
Q 2878 3584 2943 3579 
Q 3009 3575 3134 3559 
L 3138 2547 
z
" transform="scale(0.015625)"/>
      <path id="DejaVuSans-Bold-20" transform="scale(0.015625)"/>
      <path id="DejaVuSans-Bold-64" d="M 2919 2988 
L 2919 4863 
L 4044 4863 
L 4044 0 
L 2919 0 
L 2919 506 
Q 2688 197 2409 53 
Q 2131 -91 1766 -91 
Q 1119 -91 703 423 
Q 288 938 288 1747 
Q 288 2556 703 3070 
Q 1119 3584 1766 3584 
Q 2128 3584 2408 3439 
Q 2688 3294 2919 2988 
z
M 2181 722 
Q 2541 722 2730 984 
Q 2919 1247 2919 1747 
Q 2919 2247 2730 2509 
Q 2541 2772 2181 2772 
Q 1825 2772 1636 2509 
Q 1447 2247 1447 1747 
Q 1447 1247 1636 984 
Q 1825 722 2181 722 
z
" transform="scale(0.015625)"/>
      <path id="DejaVuSans-Bold-70" d="M 1656 506 
L 1656 -1331 
L 538 -1331 
L 538 3500 
L 1656 3500 
L 1656 2988 
Q 1888 3294 2169 3439 
Q 2450 3584 2816 3584 
Q 3463 3584 3878 3070 
Q 4294 2556 4294 1747 
Q 4294 938 3878 423 
Q 3463 -91 2816 -91 
Q 2450 -91 2169 54 
Q 1888 200 1656 506 
z
M 2400 2772 
Q 2041 2772 1848 2508 
Q 1656 2244 1656 1747 
Q 1656 1250 1848 986 
Q 2041 722 2400 722 
Q 2759 722 2948 984 
Q 3138 1247 3138 1747 
Q 3138 2247 2948 2509 
Q 2759 2772 2400 2772 
z
" transform="scale(0.015625)"/>
      <path id="DejaVuSans-Bold-52" d="M 2297 2597 
Q 2675 2597 2839 2737 
Q 3003 2878 3003 3200 
Q 3003 3519 2839 3656 
Q 2675 3794 2297 3794 
L 1791 3794 
L 1791 2597 
L 2297 2597 
z
M 1791 1766 
L 1791 0 
L 588 0 
L 588 4666 
L 2425 4666 
Q 3347 4666 3776 4356 
Q 4206 4047 4206 3378 
Q 4206 2916 3982 2619 
Q 3759 2322 3309 2181 
Q 3556 2125 3751 1926 
Q 3947 1728 4147 1325 
L 4800 0 
L 3519 0 
L 2950 1159 
Q 2778 1509 2601 1637 
Q 2425 1766 2131 1766 
L 1791 1766 
z
" transform="scale(0.015625)"/>
      <path id="DejaVuSans-Bold-4e" d="M 588 4666 
L 1931 4666 
L 3628 1466 
L 3628 4666 
L 4769 4666 
L 4769 0 
L 3425 0 
L 1728 3200 
L 1728 0 
L 588 0 
L 588 4666 
z
" transform="scale(0.015625)"/>
     </defs>
     <use xlink:href="#DejaVuSans-Bold-33"/>
     <use xlink:href="#DejaVuSans-Bold-2d" transform="translate(69.580078 0)"/>
     <use xlink:href="#DejaVuSans-Bold-6c" transform="translate(111.083984 0)"/>
     <use xlink:href="#DejaVuSans-Bold-61" transform="translate(145.361328 0)"/>
     <use xlink:href="#DejaVuSans-Bold-79" transform="translate(209.716797 0)"/>
     <use xlink:href="#DejaVuSans-Bold-65" transform="translate(274.902344 0)"/>
     <use xlink:href="#DejaVuSans-Bold-72" transform="translate(342.724609 0)"/>
     <use xlink:href="#DejaVuSans-Bold-20" transform="translate(392.041016 0)"/>
     <use xlink:href="#DejaVuSans-Bold-64" transform="translate(426.855469 0)"/>
     <use xlink:href="#DejaVuSans-Bold-65" transform="translate(498.4375 0)"/>
     <use xlink:href="#DejaVuSans-Bold-65" transform="translate(566.259766 0)"/>
     <use xlink:href="#DejaVuSans-Bold-70" transform="translate(634.082031 0)"/>
     <use xlink:href="#DejaVuSans-Bold-20" transform="translate(705.664062 0)"/>
     <use xlink:href="#DejaVuSans-Bold-52" transform="translate(740.478516 0)"/>
     <use xlink:href="#DejaVuSans-Bold-4e" transform="translate(817.480469 0)"/>
     <use xlink:href="#DejaVuSans-Bold-4e" transform="translate(901.171875 0)"/>
    </g>
   </g>
   <g id="text_13">
    <!-- $x_t$ -->
    <g transform="translate(7.2 188.159375) scale(0.1 -0.1)">
     <defs>
      <path id="DejaVuSans-Oblique-78" d="M 3841 3500 
L 2234 1784 
L 3219 0 
L 2559 0 
L 1819 1388 
L 531 0 
L -166 0 
L 1556 1844 
L 641 3500 
L 1300 3500 
L 1972 2234 
L 3144 3500 
L 3841 3500 
z
" transform="scale(0.015625)"/>
     </defs>
     <use xlink:href="#DejaVuSans-Oblique-78" transform="translate(0 0.3125)"/>
     <use xlink:href="#DejaVuSans-Oblique-74" transform="translate(59.179688 -16.09375) scale(0.7)"/>
    </g>
   </g>
   <g id="text_14">
    <!-- $h^{1}_t$ -->
    <g transform="translate(157.931818 188.5) scale(0.1 -0.1)">
     <use xlink:href="#DejaVuSans-Oblique-68" transform="translate(0 0.684375)"/>
     <use xlink:href="#DejaVuSans-31" transform="translate(70.826615 38.965625) scale(0.7)"/>
     <use xlink:href="#DejaVuSans-Oblique-74" transform="translate(63.378906 -26.659375) scale(0.7)"/>
    </g>
   </g>
   <g id="text_15">
    <!-- $h^{2}_t$ -->
    <g transform="translate(310.113636 188.55) scale(0.1 -0.1)">
     <use xlink:href="#DejaVuSans-Oblique-68" transform="translate(0 0.765625)"/>
     <use xlink:href="#DejaVuSans-32" transform="translate(70.826615 39.046875) scale(0.7)"/>
     <use xlink:href="#DejaVuSans-Oblique-74" transform="translate(63.378906 -26.578125) scale(0.7)"/>
    </g>
   </g>
   <g id="text_16">
    <!-- $h^{3}_t$ -->
    <g transform="translate(462.295455 188.55) scale(0.1 -0.1)">
     <use xlink:href="#DejaVuSans-Oblique-68" transform="translate(0 0.765625)"/>
     <use xlink:href="#DejaVuSans-33" transform="translate(70.826615 39.046875) scale(0.7)"/>
     <use xlink:href="#DejaVuSans-Oblique-74" transform="translate(63.378906 -26.578125) scale(0.7)"/>
    </g>
   </g>
   <g id="text_17">
    <!-- $o_t$ -->
    <g transform="translate(615.827273 188.159375) scale(0.1 -0.1)">
     <use xlink:href="#DejaVuSans-Oblique-6f"/>
     <use xlink:href="#DejaVuSans-Oblique-74" transform="translate(61.181641 -16.40625) scale(0.7)"/>
    </g>
   </g>
  </g>
  <g id="text_18">
   <!-- Fig 5 — 3-layer deep RNN architecture -->
   <g transform="translate(264.330483 15.558281) scale(0.11 -0.11)">
    <defs>
     <path id="DejaVuSans-Bold-46" d="M 588 4666 
L 3834 4666 
L 3834 3756 
L 1791 3756 
L 1791 2888 
L 3713 2888 
L 3713 1978 
L 1791 1978 
L 1791 0 
L 588 0 
L 588 4666 
z
" transform="scale(0.015625)"/>
     <path id="DejaVuSans-Bold-69" d="M 538 3500 
L 1656 3500 
L 1656 0 
L 538 0 
L 538 3500 
z
M 538 4863 
L 1656 4863 
L 1656 3950 
L 538 3950 
L 538 4863 
z
" transform="scale(0.015625)"/>
     <path id="DejaVuSans-Bold-67" d="M 2919 594 
Q 2688 288 2409 144 
Q 2131 0 1766 0 
Q 1125 0 706 504 
Q 288 1009 288 1791 
Q 288 2575 706 3076 
Q 1125 3578 1766 3578 
Q 2131 3578 2409 3434 
Q 2688 3291 2919 2981 
L 2919 3500 
L 4044 3500 
L 4044 353 
Q 4044 -491 3511 -936 
Q 2978 -1381 1966 -1381 
Q 1638 -1381 1331 -1331 
Q 1025 -1281 716 -1178 
L 716 -306 
Q 1009 -475 1290 -558 
Q 1572 -641 1856 -641 
Q 2406 -641 2662 -400 
Q 2919 -159 2919 353 
L 2919 594 
z
M 2181 2772 
Q 1834 2772 1640 2515 
Q 1447 2259 1447 1791 
Q 1447 1309 1634 1061 
Q 1822 813 2181 813 
Q 2531 813 2725 1069 
Q 2919 1325 2919 1791 
Q 2919 2259 2725 2515 
Q 2531 2772 2181 2772 
z
" transform="scale(0.015625)"/>
     <path id="DejaVuSans-Bold-35" d="M 678 4666 
L 3669 4666 
L 3669 3781 
L 1638 3781 
L 1638 3059 
Q 1775 3097 1914 3117 
Q 2053 3138 2203 3138 
Q 3056 3138 3531 2711 
Q 4006 2284 4006 1522 
Q 4006 766 3489 337 
Q 2972 -91 2053 -91 
Q 1656 -91 1267 -14 
Q 878 63 494 219 
L 494 1166 
Q 875 947 1217 837 
Q 1559 728 1863 728 
Q 2300 728 2551 942 
Q 2803 1156 2803 1522 
Q 2803 1891 2551 2103 
Q 2300 2316 1863 2316 
Q 1603 2316 1309 2248 
Q 1016 2181 678 2041 
L 678 4666 
z
" transform="scale(0.015625)"/>
     <path id="DejaVuSans-Bold-2014" d="M 344 2156 
L 6056 2156 
L 6056 1350 
L 344 1350 
L 344 2156 
z
" transform="scale(0.015625)"/>
     <path id="DejaVuSans-Bold-63" d="M 3366 3391 
L 3366 2478 
Q 3138 2634 2908 2709 
Q 2678 2784 2431 2784 
Q 1963 2784 1702 2511 
Q 1441 2238 1441 1747 
Q 1441 1256 1702 982 
Q 1963 709 2431 709 
Q 2694 709 2930 787 
Q 3166 866 3366 1019 
L 3366 103 
Q 3103 6 2833 -42 
Q 2563 -91 2291 -91 
Q 1344 -91 809 395 
Q 275 881 275 1747 
Q 275 2613 809 3098 
Q 1344 3584 2291 3584 
Q 2566 3584 2833 3536 
Q 3100 3488 3366 3391 
z
" transform="scale(0.015625)"/>
     <path id="DejaVuSans-Bold-68" d="M 4056 2131 
L 4056 0 
L 2931 0 
L 2931 347 
L 2931 1625 
Q 2931 2084 2911 2256 
Q 2891 2428 2841 2509 
Q 2775 2619 2662 2680 
Q 2550 2741 2406 2741 
Q 2056 2741 1856 2470 
Q 1656 2200 1656 1722 
L 1656 0 
L 538 0 
L 538 4863 
L 1656 4863 
L 1656 2988 
Q 1909 3294 2193 3439 
Q 2478 3584 2822 3584 
Q 3428 3584 3742 3212 
Q 4056 2841 4056 2131 
z
" transform="scale(0.015625)"/>
     <path id="DejaVuSans-Bold-74" d="M 1759 4494 
L 1759 3500 
L 2913 3500 
L 2913 2700 
L 1759 2700 
L 1759 1216 
Q 1759 972 1856 886 
Q 1953 800 2241 800 
L 2816 800 
L 2816 0 
L 1856 0 
Q 1194 0 917 276 
Q 641 553 641 1216 
L 641 2700 
L 84 2700 
L 84 3500 
L 641 3500 
L 641 4494 
L 1759 4494 
z
" transform="scale(0.015625)"/>
     <path id="DejaVuSans-Bold-75" d="M 500 1363 
L 500 3500 
L 1625 3500 
L 1625 3150 
Q 1625 2866 1622 2436 
Q 1619 2006 1619 1863 
Q 1619 1441 1641 1255 
Q 1663 1069 1716 984 
Q 1784 875 1895 815 
Q 2006 756 2150 756 
Q 2500 756 2700 1025 
Q 2900 1294 2900 1772 
L 2900 3500 
L 4019 3500 
L 4019 0 
L 2900 0 
L 2900 506 
Q 2647 200 2364 54 
Q 2081 -91 1741 -91 
Q 1134 -91 817 281 
Q 500 653 500 1363 
z
" transform="scale(0.015625)"/>
    </defs>
    <use xlink:href="#DejaVuSans-Bold-46"/>
    <use xlink:href="#DejaVuSans-Bold-69" transform="translate(68.310547 0)"/>
    <use xlink:href="#DejaVuSans-Bold-67" transform="translate(102.587891 0)"/>
    <use xlink:href="#DejaVuSans-Bold-20" transform="translate(174.169922 0)"/>
    <use xlink:href="#DejaVuSans-Bold-35" transform="translate(208.984375 0)"/>
    <use xlink:href="#DejaVuSans-Bold-20" transform="translate(278.564453 0)"/>
    <use xlink:href="#DejaVuSans-Bold-2014" transform="translate(313.378906 0)"/>
    <use xlink:href="#DejaVuSans-Bold-20" transform="translate(413.378906 0)"/>
    <use xlink:href="#DejaVuSans-Bold-33" transform="translate(448.193359 0)"/>
    <use xlink:href="#DejaVuSans-Bold-2d" transform="translate(517.773438 0)"/>
    <use xlink:href="#DejaVuSans-Bold-6c" transform="translate(559.277344 0)"/>
    <use xlink:href="#DejaVuSans-Bold-61" transform="translate(593.554688 0)"/>
    <use xlink:href="#DejaVuSans-Bold-79" transform="translate(657.910156 0)"/>
    <use xlink:href="#DejaVuSans-Bold-65" transform="translate(723.095703 0)"/>
    <use xlink:href="#DejaVuSans-Bold-72" transform="translate(790.917969 0)"/>
    <use xlink:href="#DejaVuSans-Bold-20" transform="translate(840.234375 0)"/>
    <use xlink:href="#DejaVuSans-Bold-64" transform="translate(875.048828 0)"/>
    <use xlink:href="#DejaVuSans-Bold-65" transform="translate(946.630859 0)"/>
    <use xlink:href="#DejaVuSans-Bold-65" transform="translate(1014.453125 0)"/>
    <use xlink:href="#DejaVuSans-Bold-70" transform="translate(1082.275391 0)"/>
    <use xlink:href="#DejaVuSans-Bold-20" transform="translate(1153.857422 0)"/>
    <use xlink:href="#DejaVuSans-Bold-52" transform="translate(1188.671875 0)"/>
    <use xlink:href="#DejaVuSans-Bold-4e" transform="translate(1265.673828 0)"/>
    <use xlink:href="#DejaVuSans-Bold-4e" transform="translate(1349.365234 0)"/>
    <use xlink:href="#DejaVuSans-Bold-20" transform="translate(1433.056641 0)"/>
    <use xlink:href="#DejaVuSans-Bold-61" transform="translate(1467.871094 0)"/>
    <use xlink:href="#DejaVuSans-Bold-72" transform="translate(1535.351562 0)"/>
    <use xlink:href="#DejaVuSans-Bold-63" transform="translate(1584.667969 0)"/>
    <use xlink:href="#DejaVuSans-Bold-68" transform="translate(1643.945312 0)"/>
    <use xlink:href="#DejaVuSans-Bold-69" transform="translate(1715.136719 0)"/>
    <use xlink:href="#DejaVuSans-Bold-74" transform="translate(1749.414062 0)"/>
    <use xlink:href="#DejaVuSans-Bold-65" transform="translate(1797.216797 0)"/>
    <use xlink:href="#DejaVuSans-Bold-63" transform="translate(1865.039062 0)"/>
    <use xlink:href="#DejaVuSans-Bold-74" transform="translate(1924.316406 0)"/>
    <use xlink:href="#DejaVuSans-Bold-75" transform="translate(1972.119141 0)"/>
    <use xlink:href="#DejaVuSans-Bold-72" transform="translate(2043.310547 0)"/>
    <use xlink:href="#DejaVuSans-Bold-65" transform="translate(2092.626953 0)"/>
   </g>
  </g>
 </g>
 <defs>
  <clipPath id="p3c957aa4a1">
   <rect x="113.154545" y="49.32" width="558" height="249.48"/>
  </clipPath>
 </defs>
</svg>
