<?xml version="1.0" encoding="utf-8" standalone="no"?>
<!DOCTYPE svg PUBLIC "-//W3C//DTD SVG 1.1//EN"
  "http://www.w3.org/Graphics/SVG/1.1/DTD/svg11.dtd">
<svg xmlns:xlink="http://www.w3.org/1999/xlink" width="928.46125pt" height="329.96425pt" viewBox="0 0 928.46125 329.96425" xmlns="http://www.w3.org/2000/svg" version="1.1">
 <metadata>
  <rdf:RDF xmlns:dc="http://purl.org/dc/elements/1.1/" xmlns:cc="http://creativecommons.org/ns#" xmlns:rdf="http://www.w3.org/1999/02/22-rdf-syntax-ns#">
   <cc:Work>
    <dc:type rdf:resource="http://purl.org/dc/dcmitype/StillImage"/>
    <dc:date>2026-06-08T09:54:39.500113</dc:date>
    <dc:format>image/svg+xml</dc:format>
    <dc:creator>
     <cc:Agent>
      <dc:title>Matplotlib v3.10.0, https://matplotlib.org/</dc:title>
     </cc:Agent>
    </dc:creator>
   </cc:Work>
  </rdf:RDF>
 </metadata>
 <defs>
  <style type="text/css">*{stroke-linejoin: round; stroke-linecap: butt}</style>
 </defs>
 <g id="figure_1">
  <g id="patch_1">
   <path d="M 0 329.96425 
L 928.46125 329.96425 
L 928.46125 0 
L 0 0 
z
" style="fill: #ffffff"/>
  </g>
  <g id="axes_1">
   <g id="patch_2">
    <path d="M 43.78125 292.408 
L 458.66125 292.408 
L 458.66125 67.2 
L 43.78125 67.2 
z
" style="fill: #ffffff"/>
   </g>
   <g id="matplotlib.axis_1">
    <g id="xtick_1">
     <g id="line2d_1">
      <defs>
       <path id="maeabc33222" d="M 0 0 
L 0 3.5 
" style="stroke: #000000; stroke-width: 0.8"/>
      </defs>
      <g>
       <use xlink:href="#maeabc33222" x="217.807603" y="292.408" style="stroke: #000000; stroke-width: 0.8"/>
      </g>
     </g>
     <g id="text_1">
      <!-- $\mathdefault{10^{1}}$ -->
      <g transform="translate(209.007603 307.006438) scale(0.1 -0.1)">
       <defs>
        <path id="DejaVuSans-31" d="M 794 531 
L 1825 531 
L 1825 4091 
L 703 3866 
L 703 4441 
L 1819 4666 
L 2450 4666 
L 2450 531 
L 3481 531 
L 3481 0 
L 794 0 
L 794 531 
z
" transform="scale(0.015625)"/>
        <path id="DejaVuSans-30" d="M 2034 4250 
Q 1547 4250 1301 3770 
Q 1056 3291 1056 2328 
Q 1056 1369 1301 889 
Q 1547 409 2034 409 
Q 2525 409 2770 889 
Q 3016 1369 3016 2328 
Q 3016 3291 2770 3770 
Q 2525 4250 2034 4250 
z
M 2034 4750 
Q 2819 4750 3233 4129 
Q 3647 3509 3647 2328 
Q 3647 1150 3233 529 
Q 2819 -91 2034 -91 
Q 1250 -91 836 529 
Q 422 1150 422 2328 
Q 422 3509 836 4129 
Q 1250 4750 2034 4750 
z
" transform="scale(0.015625)"/>
       </defs>
       <use xlink:href="#DejaVuSans-31" transform="translate(0 0.684375)"/>
       <use xlink:href="#DejaVuSans-30" transform="translate(63.623047 0.684375)"/>
       <use xlink:href="#DejaVuSans-31" transform="translate(128.203125 38.965625) scale(0.7)"/>
      </g>
     </g>
    </g>
    <g id="xtick_2">
     <g id="line2d_2">
      <g>
       <use xlink:href="#maeabc33222" x="439.803068" y="292.408" style="stroke: #000000; stroke-width: 0.8"/>
      </g>
     </g>
     <g id="text_2">
      <!-- $\mathdefault{10^{2}}$ -->
      <g transform="translate(431.003068 307.006438) scale(0.1 -0.1)">
       <defs>
        <path id="DejaVuSans-32" d="M 1228 531 
L 3431 531 
L 3431 0 
L 469 0 
L 469 531 
Q 828 903 1448 1529 
Q 2069 2156 2228 2338 
Q 2531 2678 2651 2914 
Q 2772 3150 2772 3378 
Q 2772 3750 2511 3984 
Q 2250 4219 1831 4219 
Q 1534 4219 1204 4116 
Q 875 4013 500 3803 
L 500 4441 
Q 881 4594 1212 4672 
Q 1544 4750 1819 4750 
Q 2544 4750 2975 4387 
Q 3406 4025 3406 3419 
Q 3406 3131 3298 2873 
Q 3191 2616 2906 2266 
Q 2828 2175 2409 1742 
Q 1991 1309 1228 531 
z
" transform="scale(0.015625)"/>
       </defs>
       <use xlink:href="#DejaVuSans-31" transform="translate(0 0.765625)"/>
       <use xlink:href="#DejaVuSans-30" transform="translate(63.623047 0.765625)"/>
       <use xlink:href="#DejaVuSans-32" transform="translate(128.203125 39.046875) scale(0.7)"/>
      </g>
     </g>
    </g>
    <g id="xtick_3">
     <g id="line2d_3">
      <defs>
       <path id="m4e07a26b0c" d="M 0 0 
L 0 2 
" style="stroke: #000000; stroke-width: 0.6"/>
      </defs>
      <g>
       <use xlink:href="#m4e07a26b0c" x="62.639432" y="292.408" style="stroke: #000000; stroke-width: 0.6"/>
      </g>
     </g>
    </g>
    <g id="xtick_4">
     <g id="line2d_4">
      <g>
       <use xlink:href="#m4e07a26b0c" x="101.730893" y="292.408" style="stroke: #000000; stroke-width: 0.6"/>
      </g>
     </g>
    </g>
    <g id="xtick_5">
     <g id="line2d_5">
      <g>
       <use xlink:href="#m4e07a26b0c" x="129.466726" y="292.408" style="stroke: #000000; stroke-width: 0.6"/>
      </g>
     </g>
    </g>
    <g id="xtick_6">
     <g id="line2d_6">
      <g>
       <use xlink:href="#m4e07a26b0c" x="150.980309" y="292.408" style="stroke: #000000; stroke-width: 0.6"/>
      </g>
     </g>
    </g>
    <g id="xtick_7">
     <g id="line2d_7">
      <g>
       <use xlink:href="#m4e07a26b0c" x="168.558187" y="292.408" style="stroke: #000000; stroke-width: 0.6"/>
      </g>
     </g>
    </g>
    <g id="xtick_8">
     <g id="line2d_8">
      <g>
       <use xlink:href="#m4e07a26b0c" x="183.42007" y="292.408" style="stroke: #000000; stroke-width: 0.6"/>
      </g>
     </g>
    </g>
    <g id="xtick_9">
     <g id="line2d_9">
      <g>
       <use xlink:href="#m4e07a26b0c" x="196.29402" y="292.408" style="stroke: #000000; stroke-width: 0.6"/>
      </g>
     </g>
    </g>
    <g id="xtick_10">
     <g id="line2d_10">
      <g>
       <use xlink:href="#m4e07a26b0c" x="207.649648" y="292.408" style="stroke: #000000; stroke-width: 0.6"/>
      </g>
     </g>
    </g>
    <g id="xtick_11">
     <g id="line2d_11">
      <g>
       <use xlink:href="#m4e07a26b0c" x="284.634897" y="292.408" style="stroke: #000000; stroke-width: 0.6"/>
      </g>
     </g>
    </g>
    <g id="xtick_12">
     <g id="line2d_12">
      <g>
       <use xlink:href="#m4e07a26b0c" x="323.726358" y="292.408" style="stroke: #000000; stroke-width: 0.6"/>
      </g>
     </g>
    </g>
    <g id="xtick_13">
     <g id="line2d_13">
      <g>
       <use xlink:href="#m4e07a26b0c" x="351.462191" y="292.408" style="stroke: #000000; stroke-width: 0.6"/>
      </g>
     </g>
    </g>
    <g id="xtick_14">
     <g id="line2d_14">
      <g>
       <use xlink:href="#m4e07a26b0c" x="372.975774" y="292.408" style="stroke: #000000; stroke-width: 0.6"/>
      </g>
     </g>
    </g>
    <g id="xtick_15">
     <g id="line2d_15">
      <g>
       <use xlink:href="#m4e07a26b0c" x="390.553652" y="292.408" style="stroke: #000000; stroke-width: 0.6"/>
      </g>
     </g>
    </g>
    <g id="xtick_16">
     <g id="line2d_16">
      <g>
       <use xlink:href="#m4e07a26b0c" x="405.415536" y="292.408" style="stroke: #000000; stroke-width: 0.6"/>
      </g>
     </g>
    </g>
    <g id="xtick_17">
     <g id="line2d_17">
      <g>
       <use xlink:href="#m4e07a26b0c" x="418.289485" y="292.408" style="stroke: #000000; stroke-width: 0.6"/>
      </g>
     </g>
    </g>
    <g id="xtick_18">
     <g id="line2d_18">
      <g>
       <use xlink:href="#m4e07a26b0c" x="429.645113" y="292.408" style="stroke: #000000; stroke-width: 0.6"/>
      </g>
     </g>
    </g>
    <g id="text_3">
     <!-- Delay D (log scale) -->
     <g transform="translate(203.857188 320.684562) scale(0.1 -0.1)">
      <defs>
       <path id="DejaVuSans-44" d="M 1259 4147 
L 1259 519 
L 2022 519 
Q 2988 519 3436 956 
Q 3884 1394 3884 2338 
Q 3884 3275 3436 3711 
Q 2988 4147 2022 4147 
L 1259 4147 
z
M 628 4666 
L 1925 4666 
Q 3281 4666 3915 4102 
Q 4550 3538 4550 2338 
Q 4550 1131 3912 565 
Q 3275 0 1925 0 
L 628 0 
L 628 4666 
z
" transform="scale(0.015625)"/>
       <path id="DejaVuSans-65" d="M 3597 1894 
L 3597 1613 
L 953 1613 
Q 991 1019 1311 708 
Q 1631 397 2203 397 
Q 2534 397 2845 478 
Q 3156 559 3463 722 
L 3463 178 
Q 3153 47 2828 -22 
Q 2503 -91 2169 -91 
Q 1331 -91 842 396 
Q 353 884 353 1716 
Q 353 2575 817 3079 
Q 1281 3584 2069 3584 
Q 2775 3584 3186 3129 
Q 3597 2675 3597 1894 
z
M 3022 2063 
Q 3016 2534 2758 2815 
Q 2500 3097 2075 3097 
Q 1594 3097 1305 2825 
Q 1016 2553 972 2059 
L 3022 2063 
z
" transform="scale(0.015625)"/>
       <path id="DejaVuSans-6c" d="M 603 4863 
L 1178 4863 
L 1178 0 
L 603 0 
L 603 4863 
z
" transform="scale(0.015625)"/>
       <path id="DejaVuSans-61" d="M 2194 1759 
Q 1497 1759 1228 1600 
Q 959 1441 959 1056 
Q 959 750 1161 570 
Q 1363 391 1709 391 
Q 2188 391 2477 730 
Q 2766 1069 2766 1631 
L 2766 1759 
L 2194 1759 
z
M 3341 1997 
L 3341 0 
L 2766 0 
L 2766 531 
Q 2569 213 2275 61 
Q 1981 -91 1556 -91 
Q 1019 -91 701 211 
Q 384 513 384 1019 
Q 384 1609 779 1909 
Q 1175 2209 1959 2209 
L 2766 2209 
L 2766 2266 
Q 2766 2663 2505 2880 
Q 2244 3097 1772 3097 
Q 1472 3097 1187 3025 
Q 903 2953 641 2809 
L 641 3341 
Q 956 3463 1253 3523 
Q 1550 3584 1831 3584 
Q 2591 3584 2966 3190 
Q 3341 2797 3341 1997 
z
" transform="scale(0.015625)"/>
       <path id="DejaVuSans-79" d="M 2059 -325 
Q 1816 -950 1584 -1140 
Q 1353 -1331 966 -1331 
L 506 -1331 
L 506 -850 
L 844 -850 
Q 1081 -850 1212 -737 
Q 1344 -625 1503 -206 
L 1606 56 
L 191 3500 
L 800 3500 
L 1894 763 
L 2988 3500 
L 3597 3500 
L 2059 -325 
z
" transform="scale(0.015625)"/>
       <path id="DejaVuSans-20" transform="scale(0.015625)"/>
       <path id="DejaVuSans-28" d="M 1984 4856 
Q 1566 4138 1362 3434 
Q 1159 2731 1159 2009 
Q 1159 1288 1364 580 
Q 1569 -128 1984 -844 
L 1484 -844 
Q 1016 -109 783 600 
Q 550 1309 550 2009 
Q 550 2706 781 3412 
Q 1013 4119 1484 4856 
L 1984 4856 
z
" transform="scale(0.015625)"/>
       <path id="DejaVuSans-6f" d="M 1959 3097 
Q 1497 3097 1228 2736 
Q 959 2375 959 1747 
Q 959 1119 1226 758 
Q 1494 397 1959 397 
Q 2419 397 2687 759 
Q 2956 1122 2956 1747 
Q 2956 2369 2687 2733 
Q 2419 3097 1959 3097 
z
M 1959 3584 
Q 2709 3584 3137 3096 
Q 3566 2609 3566 1747 
Q 3566 888 3137 398 
Q 2709 -91 1959 -91 
Q 1206 -91 779 398 
Q 353 888 353 1747 
Q 353 2609 779 3096 
Q 1206 3584 1959 3584 
z
" transform="scale(0.015625)"/>
       <path id="DejaVuSans-67" d="M 2906 1791 
Q 2906 2416 2648 2759 
Q 2391 3103 1925 3103 
Q 1463 3103 1205 2759 
Q 947 2416 947 1791 
Q 947 1169 1205 825 
Q 1463 481 1925 481 
Q 2391 481 2648 825 
Q 2906 1169 2906 1791 
z
M 3481 434 
Q 3481 -459 3084 -895 
Q 2688 -1331 1869 -1331 
Q 1566 -1331 1297 -1286 
Q 1028 -1241 775 -1147 
L 775 -588 
Q 1028 -725 1275 -790 
Q 1522 -856 1778 -856 
Q 2344 -856 2625 -561 
Q 2906 -266 2906 331 
L 2906 616 
Q 2728 306 2450 153 
Q 2172 0 1784 0 
Q 1141 0 747 490 
Q 353 981 353 1791 
Q 353 2603 747 3093 
Q 1141 3584 1784 3584 
Q 2172 3584 2450 3431 
Q 2728 3278 2906 2969 
L 2906 3500 
L 3481 3500 
L 3481 434 
z
" transform="scale(0.015625)"/>
       <path id="DejaVuSans-73" d="M 2834 3397 
L 2834 2853 
Q 2591 2978 2328 3040 
Q 2066 3103 1784 3103 
Q 1356 3103 1142 2972 
Q 928 2841 928 2578 
Q 928 2378 1081 2264 
Q 1234 2150 1697 2047 
L 1894 2003 
Q 2506 1872 2764 1633 
Q 3022 1394 3022 966 
Q 3022 478 2636 193 
Q 2250 -91 1575 -91 
Q 1294 -91 989 -36 
Q 684 19 347 128 
L 347 722 
Q 666 556 975 473 
Q 1284 391 1588 391 
Q 1994 391 2212 530 
Q 2431 669 2431 922 
Q 2431 1156 2273 1281 
Q 2116 1406 1581 1522 
L 1381 1569 
Q 847 1681 609 1914 
Q 372 2147 372 2553 
Q 372 3047 722 3315 
Q 1072 3584 1716 3584 
Q 2034 3584 2315 3537 
Q 2597 3491 2834 3397 
z
" transform="scale(0.015625)"/>
       <path id="DejaVuSans-63" d="M 3122 3366 
L 3122 2828 
Q 2878 2963 2633 3030 
Q 2388 3097 2138 3097 
Q 1578 3097 1268 2742 
Q 959 2388 959 1747 
Q 959 1106 1268 751 
Q 1578 397 2138 397 
Q 2388 397 2633 464 
Q 2878 531 3122 666 
L 3122 134 
Q 2881 22 2623 -34 
Q 2366 -91 2075 -91 
Q 1284 -91 818 406 
Q 353 903 353 1747 
Q 353 2603 823 3093 
Q 1294 3584 2113 3584 
Q 2378 3584 2631 3529 
Q 2884 3475 3122 3366 
z
" transform="scale(0.015625)"/>
       <path id="DejaVuSans-29" d="M 513 4856 
L 1013 4856 
Q 1481 4119 1714 3412 
Q 1947 2706 1947 2009 
Q 1947 1309 1714 600 
Q 1481 -109 1013 -844 
L 513 -844 
Q 928 -128 1133 580 
Q 1338 1288 1338 2009 
Q 1338 2731 1133 3434 
Q 928 4138 513 4856 
z
" transform="scale(0.015625)"/>
      </defs>
      <use xlink:href="#DejaVuSans-44"/>
      <use xlink:href="#DejaVuSans-65" transform="translate(77.001953 0)"/>
      <use xlink:href="#DejaVuSans-6c" transform="translate(138.525391 0)"/>
      <use xlink:href="#DejaVuSans-61" transform="translate(166.308594 0)"/>
      <use xlink:href="#DejaVuSans-79" transform="translate(227.587891 0)"/>
      <use xlink:href="#DejaVuSans-20" transform="translate(286.767578 0)"/>
      <use xlink:href="#DejaVuSans-44" transform="translate(318.554688 0)"/>
      <use xlink:href="#DejaVuSans-20" transform="translate(395.556641 0)"/>
      <use xlink:href="#DejaVuSans-28" transform="translate(427.34375 0)"/>
      <use xlink:href="#DejaVuSans-6c" transform="translate(466.357422 0)"/>
      <use xlink:href="#DejaVuSans-6f" transform="translate(494.140625 0)"/>
      <use xlink:href="#DejaVuSans-67" transform="translate(555.322266 0)"/>
      <use xlink:href="#DejaVuSans-20" transform="translate(618.798828 0)"/>
      <use xlink:href="#DejaVuSans-73" transform="translate(650.585938 0)"/>
      <use xlink:href="#DejaVuSans-63" transform="translate(702.685547 0)"/>
      <use xlink:href="#DejaVuSans-61" transform="translate(757.666016 0)"/>
      <use xlink:href="#DejaVuSans-6c" transform="translate(818.945312 0)"/>
      <use xlink:href="#DejaVuSans-65" transform="translate(846.728516 0)"/>
      <use xlink:href="#DejaVuSans-29" transform="translate(908.251953 0)"/>
     </g>
    </g>
   </g>
   <g id="matplotlib.axis_2">
    <g id="ytick_1">
     <g id="line2d_19">
      <defs>
       <path id="m9ef8d32e54" d="M 0 0 
L -3.5 0 
" style="stroke: #000000; stroke-width: 0.8"/>
      </defs>
      <g>
       <use xlink:href="#m9ef8d32e54" x="43.78125" y="292.408" style="stroke: #000000; stroke-width: 0.8"/>
      </g>
     </g>
     <g id="text_4">
      <!-- 0.0 -->
      <g transform="translate(20.878125 296.207219) scale(0.1 -0.1)">
       <defs>
        <path id="DejaVuSans-2e" d="M 684 794 
L 1344 794 
L 1344 0 
L 684 0 
L 684 794 
z
" transform="scale(0.015625)"/>
       </defs>
       <use xlink:href="#DejaVuSans-30"/>
       <use xlink:href="#DejaVuSans-2e" transform="translate(63.623047 0)"/>
       <use xlink:href="#DejaVuSans-30" transform="translate(95.410156 0)"/>
      </g>
     </g>
    </g>
    <g id="ytick_2">
     <g id="line2d_20">
      <g>
       <use xlink:href="#m9ef8d32e54" x="43.78125" y="249.511238" style="stroke: #000000; stroke-width: 0.8"/>
      </g>
     </g>
     <g id="text_5">
      <!-- 0.2 -->
      <g transform="translate(20.878125 253.310457) scale(0.1 -0.1)">
       <use xlink:href="#DejaVuSans-30"/>
       <use xlink:href="#DejaVuSans-2e" transform="translate(63.623047 0)"/>
       <use xlink:href="#DejaVuSans-32" transform="translate(95.410156 0)"/>
      </g>
     </g>
    </g>
    <g id="ytick_3">
     <g id="line2d_21">
      <g>
       <use xlink:href="#m9ef8d32e54" x="43.78125" y="206.614476" style="stroke: #000000; stroke-width: 0.8"/>
      </g>
     </g>
     <g id="text_6">
      <!-- 0.4 -->
      <g transform="translate(20.878125 210.413695) scale(0.1 -0.1)">
       <defs>
        <path id="DejaVuSans-34" d="M 2419 4116 
L 825 1625 
L 2419 1625 
L 2419 4116 
z
M 2253 4666 
L 3047 4666 
L 3047 1625 
L 3713 1625 
L 3713 1100 
L 3047 1100 
L 3047 0 
L 2419 0 
L 2419 1100 
L 313 1100 
L 313 1709 
L 2253 4666 
z
" transform="scale(0.015625)"/>
       </defs>
       <use xlink:href="#DejaVuSans-30"/>
       <use xlink:href="#DejaVuSans-2e" transform="translate(63.623047 0)"/>
       <use xlink:href="#DejaVuSans-34" transform="translate(95.410156 0)"/>
      </g>
     </g>
    </g>
    <g id="ytick_4">
     <g id="line2d_22">
      <g>
       <use xlink:href="#m9ef8d32e54" x="43.78125" y="163.717714" style="stroke: #000000; stroke-width: 0.8"/>
      </g>
     </g>
     <g id="text_7">
      <!-- 0.6 -->
      <g transform="translate(20.878125 167.516933) scale(0.1 -0.1)">
       <defs>
        <path id="DejaVuSans-36" d="M 2113 2584 
Q 1688 2584 1439 2293 
Q 1191 2003 1191 1497 
Q 1191 994 1439 701 
Q 1688 409 2113 409 
Q 2538 409 2786 701 
Q 3034 994 3034 1497 
Q 3034 2003 2786 2293 
Q 2538 2584 2113 2584 
z
M 3366 4563 
L 3366 3988 
Q 3128 4100 2886 4159 
Q 2644 4219 2406 4219 
Q 1781 4219 1451 3797 
Q 1122 3375 1075 2522 
Q 1259 2794 1537 2939 
Q 1816 3084 2150 3084 
Q 2853 3084 3261 2657 
Q 3669 2231 3669 1497 
Q 3669 778 3244 343 
Q 2819 -91 2113 -91 
Q 1303 -91 875 529 
Q 447 1150 447 2328 
Q 447 3434 972 4092 
Q 1497 4750 2381 4750 
Q 2619 4750 2861 4703 
Q 3103 4656 3366 4563 
z
" transform="scale(0.015625)"/>
       </defs>
       <use xlink:href="#DejaVuSans-30"/>
       <use xlink:href="#DejaVuSans-2e" transform="translate(63.623047 0)"/>
       <use xlink:href="#DejaVuSans-36" transform="translate(95.410156 0)"/>
      </g>
     </g>
    </g>
    <g id="ytick_5">
     <g id="line2d_23">
      <g>
       <use xlink:href="#m9ef8d32e54" x="43.78125" y="120.820952" style="stroke: #000000; stroke-width: 0.8"/>
      </g>
     </g>
     <g id="text_8">
      <!-- 0.8 -->
      <g transform="translate(20.878125 124.620171) scale(0.1 -0.1)">
       <defs>
        <path id="DejaVuSans-38" d="M 2034 2216 
Q 1584 2216 1326 1975 
Q 1069 1734 1069 1313 
Q 1069 891 1326 650 
Q 1584 409 2034 409 
Q 2484 409 2743 651 
Q 3003 894 3003 1313 
Q 3003 1734 2745 1975 
Q 2488 2216 2034 2216 
z
M 1403 2484 
Q 997 2584 770 2862 
Q 544 3141 544 3541 
Q 544 4100 942 4425 
Q 1341 4750 2034 4750 
Q 2731 4750 3128 4425 
Q 3525 4100 3525 3541 
Q 3525 3141 3298 2862 
Q 3072 2584 2669 2484 
Q 3125 2378 3379 2068 
Q 3634 1759 3634 1313 
Q 3634 634 3220 271 
Q 2806 -91 2034 -91 
Q 1263 -91 848 271 
Q 434 634 434 1313 
Q 434 1759 690 2068 
Q 947 2378 1403 2484 
z
M 1172 3481 
Q 1172 3119 1398 2916 
Q 1625 2713 2034 2713 
Q 2441 2713 2670 2916 
Q 2900 3119 2900 3481 
Q 2900 3844 2670 4047 
Q 2441 4250 2034 4250 
Q 1625 4250 1398 4047 
Q 1172 3844 1172 3481 
z
" transform="scale(0.015625)"/>
       </defs>
       <use xlink:href="#DejaVuSans-30"/>
       <use xlink:href="#DejaVuSans-2e" transform="translate(63.623047 0)"/>
       <use xlink:href="#DejaVuSans-38" transform="translate(95.410156 0)"/>
      </g>
     </g>
    </g>
    <g id="ytick_6">
     <g id="line2d_24">
      <g>
       <use xlink:href="#m9ef8d32e54" x="43.78125" y="77.92419" style="stroke: #000000; stroke-width: 0.8"/>
      </g>
     </g>
     <g id="text_9">
      <!-- 1.0 -->
      <g transform="translate(20.878125 81.723409) scale(0.1 -0.1)">
       <use xlink:href="#DejaVuSans-31"/>
       <use xlink:href="#DejaVuSans-2e" transform="translate(63.623047 0)"/>
       <use xlink:href="#DejaVuSans-30" transform="translate(95.410156 0)"/>
      </g>
     </g>
    </g>
    <g id="text_10">
     <!-- Cosine similarity  cos(e-prop, BPTT) -->
     <g transform="translate(14.798437 268.621187) rotate(-90) scale(0.1 -0.1)">
      <defs>
       <path id="DejaVuSans-43" d="M 4122 4306 
L 4122 3641 
Q 3803 3938 3442 4084 
Q 3081 4231 2675 4231 
Q 1875 4231 1450 3742 
Q 1025 3253 1025 2328 
Q 1025 1406 1450 917 
Q 1875 428 2675 428 
Q 3081 428 3442 575 
Q 3803 722 4122 1019 
L 4122 359 
Q 3791 134 3420 21 
Q 3050 -91 2638 -91 
Q 1578 -91 968 557 
Q 359 1206 359 2328 
Q 359 3453 968 4101 
Q 1578 4750 2638 4750 
Q 3056 4750 3426 4639 
Q 3797 4528 4122 4306 
z
" transform="scale(0.015625)"/>
       <path id="DejaVuSans-69" d="M 603 3500 
L 1178 3500 
L 1178 0 
L 603 0 
L 603 3500 
z
M 603 4863 
L 1178 4863 
L 1178 4134 
L 603 4134 
L 603 4863 
z
" transform="scale(0.015625)"/>
       <path id="DejaVuSans-6e" d="M 3513 2113 
L 3513 0 
L 2938 0 
L 2938 2094 
Q 2938 2591 2744 2837 
Q 2550 3084 2163 3084 
Q 1697 3084 1428 2787 
Q 1159 2491 1159 1978 
L 1159 0 
L 581 0 
L 581 3500 
L 1159 3500 
L 1159 2956 
Q 1366 3272 1645 3428 
Q 1925 3584 2291 3584 
Q 2894 3584 3203 3211 
Q 3513 2838 3513 2113 
z
" transform="scale(0.015625)"/>
       <path id="DejaVuSans-6d" d="M 3328 2828 
Q 3544 3216 3844 3400 
Q 4144 3584 4550 3584 
Q 5097 3584 5394 3201 
Q 5691 2819 5691 2113 
L 5691 0 
L 5113 0 
L 5113 2094 
Q 5113 2597 4934 2840 
Q 4756 3084 4391 3084 
Q 3944 3084 3684 2787 
Q 3425 2491 3425 1978 
L 3425 0 
L 2847 0 
L 2847 2094 
Q 2847 2600 2669 2842 
Q 2491 3084 2119 3084 
Q 1678 3084 1418 2786 
Q 1159 2488 1159 1978 
L 1159 0 
L 581 0 
L 581 3500 
L 1159 3500 
L 1159 2956 
Q 1356 3278 1631 3431 
Q 1906 3584 2284 3584 
Q 2666 3584 2933 3390 
Q 3200 3197 3328 2828 
z
" transform="scale(0.015625)"/>
       <path id="DejaVuSans-72" d="M 2631 2963 
Q 2534 3019 2420 3045 
Q 2306 3072 2169 3072 
Q 1681 3072 1420 2755 
Q 1159 2438 1159 1844 
L 1159 0 
L 581 0 
L 581 3500 
L 1159 3500 
L 1159 2956 
Q 1341 3275 1631 3429 
Q 1922 3584 2338 3584 
Q 2397 3584 2469 3576 
Q 2541 3569 2628 3553 
L 2631 2963 
z
" transform="scale(0.015625)"/>
       <path id="DejaVuSans-74" d="M 1172 4494 
L 1172 3500 
L 2356 3500 
L 2356 3053 
L 1172 3053 
L 1172 1153 
Q 1172 725 1289 603 
Q 1406 481 1766 481 
L 2356 481 
L 2356 0 
L 1766 0 
Q 1100 0 847 248 
Q 594 497 594 1153 
L 594 3053 
L 172 3053 
L 172 3500 
L 594 3500 
L 594 4494 
L 1172 4494 
z
" transform="scale(0.015625)"/>
       <path id="DejaVuSans-2d" d="M 313 2009 
L 1997 2009 
L 1997 1497 
L 313 1497 
L 313 2009 
z
" transform="scale(0.015625)"/>
       <path id="DejaVuSans-70" d="M 1159 525 
L 1159 -1331 
L 581 -1331 
L 581 3500 
L 1159 3500 
L 1159 2969 
Q 1341 3281 1617 3432 
Q 1894 3584 2278 3584 
Q 2916 3584 3314 3078 
Q 3713 2572 3713 1747 
Q 3713 922 3314 415 
Q 2916 -91 2278 -91 
Q 1894 -91 1617 61 
Q 1341 213 1159 525 
z
M 3116 1747 
Q 3116 2381 2855 2742 
Q 2594 3103 2138 3103 
Q 1681 3103 1420 2742 
Q 1159 2381 1159 1747 
Q 1159 1113 1420 752 
Q 1681 391 2138 391 
Q 2594 391 2855 752 
Q 3116 1113 3116 1747 
z
" transform="scale(0.015625)"/>
       <path id="DejaVuSans-2c" d="M 750 794 
L 1409 794 
L 1409 256 
L 897 -744 
L 494 -744 
L 750 256 
L 750 794 
z
" transform="scale(0.015625)"/>
       <path id="DejaVuSans-42" d="M 1259 2228 
L 1259 519 
L 2272 519 
Q 2781 519 3026 730 
Q 3272 941 3272 1375 
Q 3272 1813 3026 2020 
Q 2781 2228 2272 2228 
L 1259 2228 
z
M 1259 4147 
L 1259 2741 
L 2194 2741 
Q 2656 2741 2882 2914 
Q 3109 3088 3109 3444 
Q 3109 3797 2882 3972 
Q 2656 4147 2194 4147 
L 1259 4147 
z
M 628 4666 
L 2241 4666 
Q 2963 4666 3353 4366 
Q 3744 4066 3744 3513 
Q 3744 3084 3544 2831 
Q 3344 2578 2956 2516 
Q 3422 2416 3680 2098 
Q 3938 1781 3938 1306 
Q 3938 681 3513 340 
Q 3088 0 2303 0 
L 628 0 
L 628 4666 
z
" transform="scale(0.015625)"/>
       <path id="DejaVuSans-50" d="M 1259 4147 
L 1259 2394 
L 2053 2394 
Q 2494 2394 2734 2622 
Q 2975 2850 2975 3272 
Q 2975 3691 2734 3919 
Q 2494 4147 2053 4147 
L 1259 4147 
z
M 628 4666 
L 2053 4666 
Q 2838 4666 3239 4311 
Q 3641 3956 3641 3272 
Q 3641 2581 3239 2228 
Q 2838 1875 2053 1875 
L 1259 1875 
L 1259 0 
L 628 0 
L 628 4666 
z
" transform="scale(0.015625)"/>
       <path id="DejaVuSans-54" d="M -19 4666 
L 3928 4666 
L 3928 4134 
L 2272 4134 
L 2272 0 
L 1638 0 
L 1638 4134 
L -19 4134 
L -19 4666 
z
" transform="scale(0.015625)"/>
      </defs>
      <use xlink:href="#DejaVuSans-43"/>
      <use xlink:href="#DejaVuSans-6f" transform="translate(69.824219 0)"/>
      <use xlink:href="#DejaVuSans-73" transform="translate(131.005859 0)"/>
      <use xlink:href="#DejaVuSans-69" transform="translate(183.105469 0)"/>
      <use xlink:href="#DejaVuSans-6e" transform="translate(210.888672 0)"/>
      <use xlink:href="#DejaVuSans-65" transform="translate(274.267578 0)"/>
      <use xlink:href="#DejaVuSans-20" transform="translate(335.791016 0)"/>
      <use xlink:href="#DejaVuSans-73" transform="translate(367.578125 0)"/>
      <use xlink:href="#DejaVuSans-69" transform="translate(419.677734 0)"/>
      <use xlink:href="#DejaVuSans-6d" transform="translate(447.460938 0)"/>
      <use xlink:href="#DejaVuSans-69" transform="translate(544.873047 0)"/>
      <use xlink:href="#DejaVuSans-6c" transform="translate(572.65625 0)"/>
      <use xlink:href="#DejaVuSans-61" transform="translate(600.439453 0)"/>
      <use xlink:href="#DejaVuSans-72" transform="translate(661.71875 0)"/>
      <use xlink:href="#DejaVuSans-69" transform="translate(702.832031 0)"/>
      <use xlink:href="#DejaVuSans-74" transform="translate(730.615234 0)"/>
      <use xlink:href="#DejaVuSans-79" transform="translate(769.824219 0)"/>
      <use xlink:href="#DejaVuSans-20" transform="translate(829.003906 0)"/>
      <use xlink:href="#DejaVuSans-20" transform="translate(860.791016 0)"/>
      <use xlink:href="#DejaVuSans-63" transform="translate(892.578125 0)"/>
      <use xlink:href="#DejaVuSans-6f" transform="translate(947.558594 0)"/>
      <use xlink:href="#DejaVuSans-73" transform="translate(1008.740234 0)"/>
      <use xlink:href="#DejaVuSans-28" transform="translate(1060.839844 0)"/>
      <use xlink:href="#DejaVuSans-65" transform="translate(1099.853516 0)"/>
      <use xlink:href="#DejaVuSans-2d" transform="translate(1161.376953 0)"/>
      <use xlink:href="#DejaVuSans-70" transform="translate(1197.460938 0)"/>
      <use xlink:href="#DejaVuSans-72" transform="translate(1260.9375 0)"/>
      <use xlink:href="#DejaVuSans-6f" transform="translate(1299.800781 0)"/>
      <use xlink:href="#DejaVuSans-70" transform="translate(1360.982422 0)"/>
      <use xlink:href="#DejaVuSans-2c" transform="translate(1424.458984 0)"/>
      <use xlink:href="#DejaVuSans-20" transform="translate(1456.246094 0)"/>
      <use xlink:href="#DejaVuSans-42" transform="translate(1488.033203 0)"/>
      <use xlink:href="#DejaVuSans-50" transform="translate(1556.636719 0)"/>
      <use xlink:href="#DejaVuSans-54" transform="translate(1616.939453 0)"/>
      <use xlink:href="#DejaVuSans-54" transform="translate(1676.273438 0)"/>
      <use xlink:href="#DejaVuSans-29" transform="translate(1737.357422 0)"/>
     </g>
    </g>
   </g>
   <g id="LineCollection_1">
    <path d="M 62.639432 128.62326 
L 62.639432 126.045275 
" clip-path="url(#p5848a6e41f)" style="fill: none; stroke: #ff9800; stroke-width: 2"/>
    <path d="M 150.980309 156.177854 
L 150.980309 153.440928 
" clip-path="url(#p5848a6e41f)" style="fill: none; stroke: #ff9800; stroke-width: 2"/>
    <path d="M 217.807603 125.485867 
L 217.807603 120.581358 
" clip-path="url(#p5848a6e41f)" style="fill: none; stroke: #ff9800; stroke-width: 2"/>
    <path d="M 284.634897 134.091755 
L 284.634897 133.278385 
" clip-path="url(#p5848a6e41f)" style="fill: none; stroke: #ff9800; stroke-width: 2"/>
    <path d="M 372.975774 144.782317 
L 372.975774 138.17864 
" clip-path="url(#p5848a6e41f)" style="fill: none; stroke: #ff9800; stroke-width: 2"/>
    <path d="M 439.803068 135.891407 
L 439.803068 133.423937 
" clip-path="url(#p5848a6e41f)" style="fill: none; stroke: #ff9800; stroke-width: 2"/>
   </g>
   <g id="line2d_25">
    <defs>
     <path id="mfed357588e" d="M 5 0 
L -5 -0 
" style="stroke: #ff9800"/>
    </defs>
    <g clip-path="url(#p5848a6e41f)">
     <use xlink:href="#mfed357588e" x="62.639432" y="128.62326" style="fill: #ff9800; stroke: #ff9800"/>
     <use xlink:href="#mfed357588e" x="150.980309" y="156.177854" style="fill: #ff9800; stroke: #ff9800"/>
     <use xlink:href="#mfed357588e" x="217.807603" y="125.485867" style="fill: #ff9800; stroke: #ff9800"/>
     <use xlink:href="#mfed357588e" x="284.634897" y="134.091755" style="fill: #ff9800; stroke: #ff9800"/>
     <use xlink:href="#mfed357588e" x="372.975774" y="144.782317" style="fill: #ff9800; stroke: #ff9800"/>
     <use xlink:href="#mfed357588e" x="439.803068" y="135.891407" style="fill: #ff9800; stroke: #ff9800"/>
    </g>
   </g>
   <g id="line2d_26">
    <g clip-path="url(#p5848a6e41f)">
     <use xlink:href="#mfed357588e" x="62.639432" y="126.045275" style="fill: #ff9800; stroke: #ff9800"/>
     <use xlink:href="#mfed357588e" x="150.980309" y="153.440928" style="fill: #ff9800; stroke: #ff9800"/>
     <use xlink:href="#mfed357588e" x="217.807603" y="120.581358" style="fill: #ff9800; stroke: #ff9800"/>
     <use xlink:href="#mfed357588e" x="284.634897" y="133.278385" style="fill: #ff9800; stroke: #ff9800"/>
     <use xlink:href="#mfed357588e" x="372.975774" y="138.17864" style="fill: #ff9800; stroke: #ff9800"/>
     <use xlink:href="#mfed357588e" x="439.803068" y="133.423937" style="fill: #ff9800; stroke: #ff9800"/>
    </g>
   </g>
   <g id="LineCollection_2">
    <path d="M 62.639432 145.471312 
L 62.639432 135.09331 
" clip-path="url(#p5848a6e41f)" style="fill: none; stroke: #9c27b0; stroke-width: 2"/>
    <path d="M 150.980309 175.215142 
L 150.980309 159.335415 
" clip-path="url(#p5848a6e41f)" style="fill: none; stroke: #9c27b0; stroke-width: 2"/>
    <path d="M 217.807603 135.755932 
L 217.807603 131.902231 
" clip-path="url(#p5848a6e41f)" style="fill: none; stroke: #9c27b0; stroke-width: 2"/>
    <path d="M 284.634897 136.199409 
L 284.634897 131.177447 
" clip-path="url(#p5848a6e41f)" style="fill: none; stroke: #9c27b0; stroke-width: 2"/>
    <path d="M 372.975774 129.94376 
L 372.975774 126.232696 
" clip-path="url(#p5848a6e41f)" style="fill: none; stroke: #9c27b0; stroke-width: 2"/>
    <path d="M 439.803068 135.677118 
L 439.803068 129.317103 
" clip-path="url(#p5848a6e41f)" style="fill: none; stroke: #9c27b0; stroke-width: 2"/>
   </g>
   <g id="line2d_27">
    <defs>
     <path id="m9d53fc9123" d="M 5 0 
L -5 -0 
" style="stroke: #9c27b0"/>
    </defs>
    <g clip-path="url(#p5848a6e41f)">
     <use xlink:href="#m9d53fc9123" x="62.639432" y="145.471312" style="fill: #9c27b0; stroke: #9c27b0"/>
     <use xlink:href="#m9d53fc9123" x="150.980309" y="175.215142" style="fill: #9c27b0; stroke: #9c27b0"/>
     <use xlink:href="#m9d53fc9123" x="217.807603" y="135.755932" style="fill: #9c27b0; stroke: #9c27b0"/>
     <use xlink:href="#m9d53fc9123" x="284.634897" y="136.199409" style="fill: #9c27b0; stroke: #9c27b0"/>
     <use xlink:href="#m9d53fc9123" x="372.975774" y="129.94376" style="fill: #9c27b0; stroke: #9c27b0"/>
     <use xlink:href="#m9d53fc9123" x="439.803068" y="135.677118" style="fill: #9c27b0; stroke: #9c27b0"/>
    </g>
   </g>
   <g id="line2d_28">
    <g clip-path="url(#p5848a6e41f)">
     <use xlink:href="#m9d53fc9123" x="62.639432" y="135.09331" style="fill: #9c27b0; stroke: #9c27b0"/>
     <use xlink:href="#m9d53fc9123" x="150.980309" y="159.335415" style="fill: #9c27b0; stroke: #9c27b0"/>
     <use xlink:href="#m9d53fc9123" x="217.807603" y="131.902231" style="fill: #9c27b0; stroke: #9c27b0"/>
     <use xlink:href="#m9d53fc9123" x="284.634897" y="131.177447" style="fill: #9c27b0; stroke: #9c27b0"/>
     <use xlink:href="#m9d53fc9123" x="372.975774" y="126.232696" style="fill: #9c27b0; stroke: #9c27b0"/>
     <use xlink:href="#m9d53fc9123" x="439.803068" y="129.317103" style="fill: #9c27b0; stroke: #9c27b0"/>
    </g>
   </g>
   <g id="line2d_29">
    <path d="M 217.807603 292.408 
L 217.807603 67.2 
" clip-path="url(#p5848a6e41f)" style="fill: none; stroke-dasharray: 1.2,1.98; stroke-dashoffset: 0; stroke: #808080; stroke-opacity: 0.7; stroke-width: 1.2"/>
   </g>
   <g id="line2d_30">
    <path d="M 62.639432 127.334268 
L 150.980309 154.809391 
L 217.807603 123.033613 
L 284.634897 133.68507 
L 372.975774 141.480479 
L 439.803068 134.657672 
" clip-path="url(#p5848a6e41f)" style="fill: none; stroke: #ff9800; stroke-width: 2; stroke-linecap: square"/>
    <defs>
     <path id="m9859010b5f" d="M 0 3 
C 0.795609 3 1.55874 2.683901 2.12132 2.12132 
C 2.683901 1.55874 3 0.795609 3 0 
C 3 -0.795609 2.683901 -1.55874 2.12132 -2.12132 
C 1.55874 -2.683901 0.795609 -3 0 -3 
C -0.795609 -3 -1.55874 -2.683901 -2.12132 -2.12132 
C -2.683901 -1.55874 -3 -0.795609 -3 0 
C -3 0.795609 -2.683901 1.55874 -2.12132 2.12132 
C -1.55874 2.683901 -0.795609 3 0 3 
z
" style="stroke: #ff9800"/>
    </defs>
    <g clip-path="url(#p5848a6e41f)">
     <use xlink:href="#m9859010b5f" x="62.639432" y="127.334268" style="fill: #ff9800; stroke: #ff9800"/>
     <use xlink:href="#m9859010b5f" x="150.980309" y="154.809391" style="fill: #ff9800; stroke: #ff9800"/>
     <use xlink:href="#m9859010b5f" x="217.807603" y="123.033613" style="fill: #ff9800; stroke: #ff9800"/>
     <use xlink:href="#m9859010b5f" x="284.634897" y="133.68507" style="fill: #ff9800; stroke: #ff9800"/>
     <use xlink:href="#m9859010b5f" x="372.975774" y="141.480479" style="fill: #ff9800; stroke: #ff9800"/>
     <use xlink:href="#m9859010b5f" x="439.803068" y="134.657672" style="fill: #ff9800; stroke: #ff9800"/>
    </g>
   </g>
   <g id="line2d_31">
    <path d="M 62.639432 140.282311 
L 150.980309 167.275278 
L 217.807603 133.829082 
L 284.634897 133.688428 
L 372.975774 128.088228 
L 439.803068 132.49711 
" clip-path="url(#p5848a6e41f)" style="fill: none; stroke-dasharray: 7.4,3.2; stroke-dashoffset: 0; stroke: #9c27b0; stroke-width: 2"/>
    <defs>
     <path id="m3a3a0dbd8f" d="M -3 3 
L 3 3 
L 3 -3 
L -3 -3 
z
" style="stroke: #9c27b0; stroke-linejoin: miter"/>
    </defs>
    <g clip-path="url(#p5848a6e41f)">
     <use xlink:href="#m3a3a0dbd8f" x="62.639432" y="140.282311" style="fill: #9c27b0; stroke: #9c27b0; stroke-linejoin: miter"/>
     <use xlink:href="#m3a3a0dbd8f" x="150.980309" y="167.275278" style="fill: #9c27b0; stroke: #9c27b0; stroke-linejoin: miter"/>
     <use xlink:href="#m3a3a0dbd8f" x="217.807603" y="133.829082" style="fill: #9c27b0; stroke: #9c27b0; stroke-linejoin: miter"/>
     <use xlink:href="#m3a3a0dbd8f" x="284.634897" y="133.688428" style="fill: #9c27b0; stroke: #9c27b0; stroke-linejoin: miter"/>
     <use xlink:href="#m3a3a0dbd8f" x="372.975774" y="128.088228" style="fill: #9c27b0; stroke: #9c27b0; stroke-linejoin: miter"/>
     <use xlink:href="#m3a3a0dbd8f" x="439.803068" y="132.49711" style="fill: #9c27b0; stroke: #9c27b0; stroke-linejoin: miter"/>
    </g>
   </g>
   <g id="patch_3">
    <path d="M 43.78125 292.408 
L 43.78125 67.2 
" style="fill: none; stroke: #000000; stroke-width: 0.8; stroke-linejoin: miter; stroke-linecap: square"/>
   </g>
   <g id="patch_4">
    <path d="M 458.66125 292.408 
L 458.66125 67.2 
" style="fill: none; stroke: #000000; stroke-width: 0.8; stroke-linejoin: miter; stroke-linecap: square"/>
   </g>
   <g id="patch_5">
    <path d="M 43.78125 292.408 
L 458.66125 292.408 
" style="fill: none; stroke: #000000; stroke-width: 0.8; stroke-linejoin: miter; stroke-linecap: square"/>
   </g>
   <g id="patch_6">
    <path d="M 43.78125 67.2 
L 458.66125 67.2 
" style="fill: none; stroke: #000000; stroke-width: 0.8; stroke-linejoin: miter; stroke-linecap: square"/>
   </g>
   <g id="text_11">
    <!-- Gradient alignment vs delay -->
    <g transform="translate(165.999688 61.2) scale(0.12 -0.12)">
     <defs>
      <path id="DejaVuSans-47" d="M 3809 666 
L 3809 1919 
L 2778 1919 
L 2778 2438 
L 4434 2438 
L 4434 434 
Q 4069 175 3628 42 
Q 3188 -91 2688 -91 
Q 1594 -91 976 548 
Q 359 1188 359 2328 
Q 359 3472 976 4111 
Q 1594 4750 2688 4750 
Q 3144 4750 3555 4637 
Q 3966 4525 4313 4306 
L 4313 3634 
Q 3963 3931 3569 4081 
Q 3175 4231 2741 4231 
Q 1884 4231 1454 3753 
Q 1025 3275 1025 2328 
Q 1025 1384 1454 906 
Q 1884 428 2741 428 
Q 3075 428 3337 486 
Q 3600 544 3809 666 
z
" transform="scale(0.015625)"/>
      <path id="DejaVuSans-64" d="M 2906 2969 
L 2906 4863 
L 3481 4863 
L 3481 0 
L 2906 0 
L 2906 525 
Q 2725 213 2448 61 
Q 2172 -91 1784 -91 
Q 1150 -91 751 415 
Q 353 922 353 1747 
Q 353 2572 751 3078 
Q 1150 3584 1784 3584 
Q 2172 3584 2448 3432 
Q 2725 3281 2906 2969 
z
M 947 1747 
Q 947 1113 1208 752 
Q 1469 391 1925 391 
Q 2381 391 2643 752 
Q 2906 1113 2906 1747 
Q 2906 2381 2643 2742 
Q 2381 3103 1925 3103 
Q 1469 3103 1208 2742 
Q 947 2381 947 1747 
z
" transform="scale(0.015625)"/>
      <path id="DejaVuSans-76" d="M 191 3500 
L 800 3500 
L 1894 563 
L 2988 3500 
L 3597 3500 
L 2284 0 
L 1503 0 
L 191 3500 
z
" transform="scale(0.015625)"/>
     </defs>
     <use xlink:href="#DejaVuSans-47"/>
     <use xlink:href="#DejaVuSans-72" transform="translate(77.490234 0)"/>
     <use xlink:href="#DejaVuSans-61" transform="translate(118.603516 0)"/>
     <use xlink:href="#DejaVuSans-64" transform="translate(179.882812 0)"/>
     <use xlink:href="#DejaVuSans-69" transform="translate(243.359375 0)"/>
     <use xlink:href="#DejaVuSans-65" transform="translate(271.142578 0)"/>
     <use xlink:href="#DejaVuSans-6e" transform="translate(332.666016 0)"/>
     <use xlink:href="#DejaVuSans-74" transform="translate(396.044922 0)"/>
     <use xlink:href="#DejaVuSans-20" transform="translate(435.253906 0)"/>
     <use xlink:href="#DejaVuSans-61" transform="translate(467.041016 0)"/>
     <use xlink:href="#DejaVuSans-6c" transform="translate(528.320312 0)"/>
     <use xlink:href="#DejaVuSans-69" transform="translate(556.103516 0)"/>
     <use xlink:href="#DejaVuSans-67" transform="translate(583.886719 0)"/>
     <use xlink:href="#DejaVuSans-6e" transform="translate(647.363281 0)"/>
     <use xlink:href="#DejaVuSans-6d" transform="translate(710.742188 0)"/>
     <use xlink:href="#DejaVuSans-65" transform="translate(808.154297 0)"/>
     <use xlink:href="#DejaVuSans-6e" transform="translate(869.677734 0)"/>
     <use xlink:href="#DejaVuSans-74" transform="translate(933.056641 0)"/>
     <use xlink:href="#DejaVuSans-20" transform="translate(972.265625 0)"/>
     <use xlink:href="#DejaVuSans-76" transform="translate(1004.052734 0)"/>
     <use xlink:href="#DejaVuSans-73" transform="translate(1063.232422 0)"/>
     <use xlink:href="#DejaVuSans-20" transform="translate(1115.332031 0)"/>
     <use xlink:href="#DejaVuSans-64" transform="translate(1147.119141 0)"/>
     <use xlink:href="#DejaVuSans-65" transform="translate(1210.595703 0)"/>
     <use xlink:href="#DejaVuSans-6c" transform="translate(1272.119141 0)"/>
     <use xlink:href="#DejaVuSans-61" transform="translate(1299.902344 0)"/>
     <use xlink:href="#DejaVuSans-79" transform="translate(1361.181641 0)"/>
    </g>
   </g>
   <g id="legend_1">
    <g id="patch_7">
     <path d="M 299.45125 114.030937 
L 452.36125 114.030937 
Q 454.16125 114.030937 454.16125 112.230937 
L 454.16125 73.5 
Q 454.16125 71.7 452.36125 71.7 
L 299.45125 71.7 
Q 297.65125 71.7 297.65125 73.5 
L 297.65125 112.230937 
Q 297.65125 114.030937 299.45125 114.030937 
z
" style="fill: #ffffff; opacity: 0.8; stroke: #cccccc; stroke-linejoin: miter"/>
    </g>
    <g id="line2d_32">
     <path d="M 301.25125 78.988594 
L 310.25125 78.988594 
L 319.25125 78.988594 
" style="fill: none; stroke-dasharray: 1.2,1.98; stroke-dashoffset: 0; stroke: #808080; stroke-opacity: 0.7; stroke-width: 1.2"/>
    </g>
    <g id="text_12">
     <!-- uniform horizon (~10) -->
     <g transform="translate(326.45125 82.138594) scale(0.09 -0.09)">
      <defs>
       <path id="DejaVuSans-75" d="M 544 1381 
L 544 3500 
L 1119 3500 
L 1119 1403 
Q 1119 906 1312 657 
Q 1506 409 1894 409 
Q 2359 409 2629 706 
Q 2900 1003 2900 1516 
L 2900 3500 
L 3475 3500 
L 3475 0 
L 2900 0 
L 2900 538 
Q 2691 219 2414 64 
Q 2138 -91 1772 -91 
Q 1169 -91 856 284 
Q 544 659 544 1381 
z
M 1991 3584 
L 1991 3584 
z
" transform="scale(0.015625)"/>
       <path id="DejaVuSans-66" d="M 2375 4863 
L 2375 4384 
L 1825 4384 
Q 1516 4384 1395 4259 
Q 1275 4134 1275 3809 
L 1275 3500 
L 2222 3500 
L 2222 3053 
L 1275 3053 
L 1275 0 
L 697 0 
L 697 3053 
L 147 3053 
L 147 3500 
L 697 3500 
L 697 3744 
Q 697 4328 969 4595 
Q 1241 4863 1831 4863 
L 2375 4863 
z
" transform="scale(0.015625)"/>
       <path id="DejaVuSans-68" d="M 3513 2113 
L 3513 0 
L 2938 0 
L 2938 2094 
Q 2938 2591 2744 2837 
Q 2550 3084 2163 3084 
Q 1697 3084 1428 2787 
Q 1159 2491 1159 1978 
L 1159 0 
L 581 0 
L 581 4863 
L 1159 4863 
L 1159 2956 
Q 1366 3272 1645 3428 
Q 1925 3584 2291 3584 
Q 2894 3584 3203 3211 
Q 3513 2838 3513 2113 
z
" transform="scale(0.015625)"/>
       <path id="DejaVuSans-7a" d="M 353 3500 
L 3084 3500 
L 3084 2975 
L 922 459 
L 3084 459 
L 3084 0 
L 275 0 
L 275 525 
L 2438 3041 
L 353 3041 
L 353 3500 
z
" transform="scale(0.015625)"/>
       <path id="DejaVuSans-7e" d="M 4684 2553 
L 4684 1997 
Q 4356 1750 4076 1644 
Q 3797 1538 3494 1538 
Q 3150 1538 2694 1722 
Q 2659 1734 2644 1741 
Q 2622 1750 2575 1766 
Q 2091 1959 1797 1959 
Q 1522 1959 1253 1839 
Q 984 1719 678 1459 
L 678 2016 
Q 1006 2263 1286 2370 
Q 1566 2478 1869 2478 
Q 2213 2478 2672 2291 
Q 2703 2278 2719 2272 
Q 2744 2263 2788 2247 
Q 3272 2053 3566 2053 
Q 3834 2053 4098 2172 
Q 4363 2291 4684 2553 
z
" transform="scale(0.015625)"/>
      </defs>
      <use xlink:href="#DejaVuSans-75"/>
      <use xlink:href="#DejaVuSans-6e" transform="translate(63.378906 0)"/>
      <use xlink:href="#DejaVuSans-69" transform="translate(126.757812 0)"/>
      <use xlink:href="#DejaVuSans-66" transform="translate(154.541016 0)"/>
      <use xlink:href="#DejaVuSans-6f" transform="translate(189.746094 0)"/>
      <use xlink:href="#DejaVuSans-72" transform="translate(250.927734 0)"/>
      <use xlink:href="#DejaVuSans-6d" transform="translate(290.291016 0)"/>
      <use xlink:href="#DejaVuSans-20" transform="translate(387.703125 0)"/>
      <use xlink:href="#DejaVuSans-68" transform="translate(419.490234 0)"/>
      <use xlink:href="#DejaVuSans-6f" transform="translate(482.869141 0)"/>
      <use xlink:href="#DejaVuSans-72" transform="translate(544.050781 0)"/>
      <use xlink:href="#DejaVuSans-69" transform="translate(585.164062 0)"/>
      <use xlink:href="#DejaVuSans-7a" transform="translate(612.947266 0)"/>
      <use xlink:href="#DejaVuSans-6f" transform="translate(665.4375 0)"/>
      <use xlink:href="#DejaVuSans-6e" transform="translate(726.619141 0)"/>
      <use xlink:href="#DejaVuSans-20" transform="translate(789.998047 0)"/>
      <use xlink:href="#DejaVuSans-28" transform="translate(821.785156 0)"/>
      <use xlink:href="#DejaVuSans-7e" transform="translate(860.798828 0)"/>
      <use xlink:href="#DejaVuSans-31" transform="translate(944.587891 0)"/>
      <use xlink:href="#DejaVuSans-30" transform="translate(1008.210938 0)"/>
      <use xlink:href="#DejaVuSans-29" transform="translate(1071.833984 0)"/>
     </g>
    </g>
    <g id="LineCollection_3">
     <path d="M 310.25125 96.698906 
L 310.25125 87.698906 
" style="fill: none; stroke: #ff9800; stroke-width: 2"/>
    </g>
    <g id="line2d_33">
     <g>
      <use xlink:href="#mfed357588e" x="310.25125" y="96.698906" style="fill: #ff9800; stroke: #ff9800"/>
     </g>
    </g>
    <g id="line2d_34">
     <g>
      <use xlink:href="#mfed357588e" x="310.25125" y="87.698906" style="fill: #ff9800; stroke: #ff9800"/>
     </g>
    </g>
    <g id="line2d_35">
     <path d="M 301.25125 92.198906 
L 319.25125 92.198906 
" style="fill: none; stroke: #ff9800; stroke-width: 2; stroke-linecap: square"/>
    </g>
    <g id="line2d_36">
     <g>
      <use xlink:href="#m9859010b5f" x="310.25125" y="92.198906" style="fill: #ff9800; stroke: #ff9800"/>
     </g>
    </g>
    <g id="text_13">
     <!-- uniform LIF ($\alpha=0.9$) -->
     <g transform="translate(326.45125 95.348906) scale(0.09 -0.09)">
      <defs>
       <path id="DejaVuSans-4c" d="M 628 4666 
L 1259 4666 
L 1259 531 
L 3531 531 
L 3531 0 
L 628 0 
L 628 4666 
z
" transform="scale(0.015625)"/>
       <path id="DejaVuSans-49" d="M 628 4666 
L 1259 4666 
L 1259 0 
L 628 0 
L 628 4666 
z
" transform="scale(0.015625)"/>
       <path id="DejaVuSans-46" d="M 628 4666 
L 3309 4666 
L 3309 4134 
L 1259 4134 
L 1259 2759 
L 3109 2759 
L 3109 2228 
L 1259 2228 
L 1259 0 
L 628 0 
L 628 4666 
z
" transform="scale(0.015625)"/>
       <path id="DejaVuSans-Oblique-3b1" d="M 2619 1628 
L 2622 2350 
Q 2625 3088 2069 3091 
Q 1653 3094 1394 2747 
Q 1069 2319 959 1747 
Q 825 1059 994 731 
Q 1169 397 1547 397 
Q 1966 397 2319 1063 
L 2619 1628 
z
M 2166 3578 
Q 3141 3594 3128 2584 
Q 3128 2584 3616 3500 
L 4128 3500 
L 3119 1603 
L 3109 919 
Q 3109 766 3194 638 
Q 3291 488 3391 488 
L 3669 488 
L 3575 0 
L 3228 0 
Q 2934 0 2722 263 
Q 2622 394 2619 669 
Q 2416 334 2066 50 
Q 1900 -81 1453 -78 
Q 722 -72 456 397 
Q 184 884 353 1747 
Q 534 2675 1009 3097 
Q 1544 3569 2166 3578 
z
" transform="scale(0.015625)"/>
       <path id="DejaVuSans-3d" d="M 678 2906 
L 4684 2906 
L 4684 2381 
L 678 2381 
L 678 2906 
z
M 678 1631 
L 4684 1631 
L 4684 1100 
L 678 1100 
L 678 1631 
z
" transform="scale(0.015625)"/>
       <path id="DejaVuSans-39" d="M 703 97 
L 703 672 
Q 941 559 1184 500 
Q 1428 441 1663 441 
Q 2288 441 2617 861 
Q 2947 1281 2994 2138 
Q 2813 1869 2534 1725 
Q 2256 1581 1919 1581 
Q 1219 1581 811 2004 
Q 403 2428 403 3163 
Q 403 3881 828 4315 
Q 1253 4750 1959 4750 
Q 2769 4750 3195 4129 
Q 3622 3509 3622 2328 
Q 3622 1225 3098 567 
Q 2575 -91 1691 -91 
Q 1453 -91 1209 -44 
Q 966 3 703 97 
z
M 1959 2075 
Q 2384 2075 2632 2365 
Q 2881 2656 2881 3163 
Q 2881 3666 2632 3958 
Q 2384 4250 1959 4250 
Q 1534 4250 1286 3958 
Q 1038 3666 1038 3163 
Q 1038 2656 1286 2365 
Q 1534 2075 1959 2075 
z
" transform="scale(0.015625)"/>
      </defs>
      <use xlink:href="#DejaVuSans-75" transform="translate(0 0.015625)"/>
      <use xlink:href="#DejaVuSans-6e" transform="translate(63.378906 0.015625)"/>
      <use xlink:href="#DejaVuSans-69" transform="translate(126.757812 0.015625)"/>
      <use xlink:href="#DejaVuSans-66" transform="translate(154.541016 0.015625)"/>
      <use xlink:href="#DejaVuSans-6f" transform="translate(189.746094 0.015625)"/>
      <use xlink:href="#DejaVuSans-72" transform="translate(250.927734 0.015625)"/>
      <use xlink:href="#DejaVuSans-6d" transform="translate(292.041016 0.015625)"/>
      <use xlink:href="#DejaVuSans-20" transform="translate(389.453125 0.015625)"/>
      <use xlink:href="#DejaVuSans-4c" transform="translate(421.240234 0.015625)"/>
      <use xlink:href="#DejaVuSans-49" transform="translate(476.953125 0.015625)"/>
      <use xlink:href="#DejaVuSans-46" transform="translate(506.445312 0.015625)"/>
      <use xlink:href="#DejaVuSans-20" transform="translate(563.964844 0.015625)"/>
      <use xlink:href="#DejaVuSans-28" transform="translate(595.751953 0.015625)"/>
      <use xlink:href="#DejaVuSans-Oblique-3b1" transform="translate(634.765625 0.015625)"/>
      <use xlink:href="#DejaVuSans-3d" transform="translate(720.166016 0.015625)"/>
      <use xlink:href="#DejaVuSans-30" transform="translate(823.4375 0.015625)"/>
      <use xlink:href="#DejaVuSans-2e" transform="translate(887.060547 0.015625)"/>
      <use xlink:href="#DejaVuSans-39" transform="translate(918.847656 0.015625)"/>
      <use xlink:href="#DejaVuSans-29" transform="translate(982.470703 0.015625)"/>
     </g>
    </g>
    <g id="LineCollection_4">
     <path d="M 310.25125 109.909219 
L 310.25125 100.909219 
" style="fill: none; stroke: #9c27b0; stroke-width: 2"/>
    </g>
    <g id="line2d_37">
     <g>
      <use xlink:href="#m9d53fc9123" x="310.25125" y="109.909219" style="fill: #9c27b0; stroke: #9c27b0"/>
     </g>
    </g>
    <g id="line2d_38">
     <g>
      <use xlink:href="#m9d53fc9123" x="310.25125" y="100.909219" style="fill: #9c27b0; stroke: #9c27b0"/>
     </g>
    </g>
    <g id="line2d_39">
     <path d="M 301.25125 105.409219 
L 319.25125 105.409219 
" style="fill: none; stroke-dasharray: 7.4,3.2; stroke-dashoffset: 0; stroke: #9c27b0; stroke-width: 2"/>
    </g>
    <g id="line2d_40">
     <g>
      <use xlink:href="#m3a3a0dbd8f" x="310.25125" y="105.409219" style="fill: #9c27b0; stroke: #9c27b0; stroke-linejoin: miter"/>
     </g>
    </g>
    <g id="text_14">
     <!-- hetero LIF ($\alpha\in[0.9,0.999]$) -->
     <g transform="translate(326.45125 108.559219) scale(0.09 -0.09)">
      <defs>
       <path id="DejaVuSans-2208" d="M 1072 1959 
Q 1094 1728 1291 1353 
Q 1522 919 1959 675 
Q 2388 438 2850 434 
L 5028 434 
L 5028 -63 
L 2850 -63 
Q 2250 -63 1695 246 
Q 1141 556 844 1106 
Q 547 1656 547 2241 
Q 547 2819 844 3369 
Q 1141 3919 1695 4231 
Q 2250 4544 2850 4544 
L 5028 4544 
L 5028 4047 
L 2850 4047 
Q 2388 4044 1959 3803 
Q 1525 3556 1291 3125 
Q 1091 2750 1063 2459 
L 5028 2459 
L 5028 1959 
L 1072 1959 
z
" transform="scale(0.015625)"/>
       <path id="DejaVuSans-5b" d="M 550 4863 
L 1875 4863 
L 1875 4416 
L 1125 4416 
L 1125 -397 
L 1875 -397 
L 1875 -844 
L 550 -844 
L 550 4863 
z
" transform="scale(0.015625)"/>
       <path id="DejaVuSans-5d" d="M 1947 4863 
L 1947 -844 
L 622 -844 
L 622 -397 
L 1369 -397 
L 1369 4416 
L 622 4416 
L 622 4863 
L 1947 4863 
z
" transform="scale(0.015625)"/>
      </defs>
      <use xlink:href="#DejaVuSans-68" transform="translate(0 0.015625)"/>
      <use xlink:href="#DejaVuSans-65" transform="translate(63.378906 0.015625)"/>
      <use xlink:href="#DejaVuSans-74" transform="translate(124.902344 0.015625)"/>
      <use xlink:href="#DejaVuSans-65" transform="translate(164.111328 0.015625)"/>
      <use xlink:href="#DejaVuSans-72" transform="translate(225.634766 0.015625)"/>
      <use xlink:href="#DejaVuSans-6f" transform="translate(266.748047 0.015625)"/>
      <use xlink:href="#DejaVuSans-20" transform="translate(327.929688 0.015625)"/>
      <use xlink:href="#DejaVuSans-4c" transform="translate(359.716797 0.015625)"/>
      <use xlink:href="#DejaVuSans-49" transform="translate(415.429688 0.015625)"/>
      <use xlink:href="#DejaVuSans-46" transform="translate(444.921875 0.015625)"/>
      <use xlink:href="#DejaVuSans-20" transform="translate(502.441406 0.015625)"/>
      <use xlink:href="#DejaVuSans-28" transform="translate(534.228516 0.015625)"/>
      <use xlink:href="#DejaVuSans-Oblique-3b1" transform="translate(573.242188 0.015625)"/>
      <use xlink:href="#DejaVuSans-2208" transform="translate(658.642578 0.015625)"/>
      <use xlink:href="#DejaVuSans-5b" transform="translate(765.234375 0.015625)"/>
      <use xlink:href="#DejaVuSans-30" transform="translate(804.248047 0.015625)"/>
      <use xlink:href="#DejaVuSans-2e" transform="translate(867.871094 0.015625)"/>
      <use xlink:href="#DejaVuSans-39" transform="translate(899.658203 0.015625)"/>
      <use xlink:href="#DejaVuSans-2c" transform="translate(963.28125 0.015625)"/>
      <use xlink:href="#DejaVuSans-30" transform="translate(1014.550781 0.015625)"/>
      <use xlink:href="#DejaVuSans-2e" transform="translate(1078.173828 0.015625)"/>
      <use xlink:href="#DejaVuSans-39" transform="translate(1109.960938 0.015625)"/>
      <use xlink:href="#DejaVuSans-39" transform="translate(1173.583984 0.015625)"/>
      <use xlink:href="#DejaVuSans-39" transform="translate(1237.207031 0.015625)"/>
      <use xlink:href="#DejaVuSans-5d" transform="translate(1300.830078 0.015625)"/>
      <use xlink:href="#DejaVuSans-29" transform="translate(1339.84375 0.015625)"/>
     </g>
    </g>
   </g>
  </g>
  <g id="axes_2">
   <g id="patch_8">
    <path d="M 506.38125 292.408 
L 921.26125 292.408 
L 921.26125 67.2 
L 506.38125 67.2 
z
" style="fill: #ffffff"/>
   </g>
   <g id="matplotlib.axis_3">
    <g id="xtick_19">
     <g id="line2d_41">
      <g>
       <use xlink:href="#maeabc33222" x="525.239432" y="292.408" style="stroke: #000000; stroke-width: 0.8"/>
      </g>
     </g>
     <g id="text_15">
      <!-- 0 -->
      <g transform="translate(522.058182 307.006438) scale(0.1 -0.1)">
       <use xlink:href="#DejaVuSans-30"/>
      </g>
     </g>
    </g>
    <g id="xtick_20">
     <g id="line2d_42">
      <g>
       <use xlink:href="#maeabc33222" x="604.642303" y="292.408" style="stroke: #000000; stroke-width: 0.8"/>
      </g>
     </g>
     <g id="text_16">
      <!-- 200 -->
      <g transform="translate(595.098553 307.006438) scale(0.1 -0.1)">
       <use xlink:href="#DejaVuSans-32"/>
       <use xlink:href="#DejaVuSans-30" transform="translate(63.623047 0)"/>
       <use xlink:href="#DejaVuSans-30" transform="translate(127.246094 0)"/>
      </g>
     </g>
    </g>
    <g id="xtick_21">
     <g id="line2d_43">
      <g>
       <use xlink:href="#maeabc33222" x="684.045173" y="292.408" style="stroke: #000000; stroke-width: 0.8"/>
      </g>
     </g>
     <g id="text_17">
      <!-- 400 -->
      <g transform="translate(674.501423 307.006438) scale(0.1 -0.1)">
       <use xlink:href="#DejaVuSans-34"/>
       <use xlink:href="#DejaVuSans-30" transform="translate(63.623047 0)"/>
       <use xlink:href="#DejaVuSans-30" transform="translate(127.246094 0)"/>
      </g>
     </g>
    </g>
    <g id="xtick_22">
     <g id="line2d_44">
      <g>
       <use xlink:href="#maeabc33222" x="763.448044" y="292.408" style="stroke: #000000; stroke-width: 0.8"/>
      </g>
     </g>
     <g id="text_18">
      <!-- 600 -->
      <g transform="translate(753.904294 307.006438) scale(0.1 -0.1)">
       <use xlink:href="#DejaVuSans-36"/>
       <use xlink:href="#DejaVuSans-30" transform="translate(63.623047 0)"/>
       <use xlink:href="#DejaVuSans-30" transform="translate(127.246094 0)"/>
      </g>
     </g>
    </g>
    <g id="xtick_23">
     <g id="line2d_45">
      <g>
       <use xlink:href="#maeabc33222" x="842.850915" y="292.408" style="stroke: #000000; stroke-width: 0.8"/>
      </g>
     </g>
     <g id="text_19">
      <!-- 800 -->
      <g transform="translate(833.307165 307.006438) scale(0.1 -0.1)">
       <use xlink:href="#DejaVuSans-38"/>
       <use xlink:href="#DejaVuSans-30" transform="translate(63.623047 0)"/>
       <use xlink:href="#DejaVuSans-30" transform="translate(127.246094 0)"/>
      </g>
     </g>
    </g>
    <g id="text_20">
     <!-- Training step -->
     <g transform="translate(681.690781 320.684562) scale(0.1 -0.1)">
      <use xlink:href="#DejaVuSans-54"/>
      <use xlink:href="#DejaVuSans-72" transform="translate(46.333984 0)"/>
      <use xlink:href="#DejaVuSans-61" transform="translate(87.447266 0)"/>
      <use xlink:href="#DejaVuSans-69" transform="translate(148.726562 0)"/>
      <use xlink:href="#DejaVuSans-6e" transform="translate(176.509766 0)"/>
      <use xlink:href="#DejaVuSans-69" transform="translate(239.888672 0)"/>
      <use xlink:href="#DejaVuSans-6e" transform="translate(267.671875 0)"/>
      <use xlink:href="#DejaVuSans-67" transform="translate(331.050781 0)"/>
      <use xlink:href="#DejaVuSans-20" transform="translate(394.527344 0)"/>
      <use xlink:href="#DejaVuSans-73" transform="translate(426.314453 0)"/>
      <use xlink:href="#DejaVuSans-74" transform="translate(478.414062 0)"/>
      <use xlink:href="#DejaVuSans-65" transform="translate(517.623047 0)"/>
      <use xlink:href="#DejaVuSans-70" transform="translate(579.146484 0)"/>
     </g>
    </g>
   </g>
   <g id="matplotlib.axis_4">
    <g id="ytick_7">
     <g id="line2d_46">
      <g>
       <use xlink:href="#m9ef8d32e54" x="506.38125" y="292.408" style="stroke: #000000; stroke-width: 0.8"/>
      </g>
     </g>
     <g id="text_21">
      <!-- 0.0 -->
      <g transform="translate(483.478125 296.207219) scale(0.1 -0.1)">
       <use xlink:href="#DejaVuSans-30"/>
       <use xlink:href="#DejaVuSans-2e" transform="translate(63.623047 0)"/>
       <use xlink:href="#DejaVuSans-30" transform="translate(95.410156 0)"/>
      </g>
     </g>
    </g>
    <g id="ytick_8">
     <g id="line2d_47">
      <g>
       <use xlink:href="#m9ef8d32e54" x="506.38125" y="249.511238" style="stroke: #000000; stroke-width: 0.8"/>
      </g>
     </g>
     <g id="text_22">
      <!-- 0.2 -->
      <g transform="translate(483.478125 253.310457) scale(0.1 -0.1)">
       <use xlink:href="#DejaVuSans-30"/>
       <use xlink:href="#DejaVuSans-2e" transform="translate(63.623047 0)"/>
       <use xlink:href="#DejaVuSans-32" transform="translate(95.410156 0)"/>
      </g>
     </g>
    </g>
    <g id="ytick_9">
     <g id="line2d_48">
      <g>
       <use xlink:href="#m9ef8d32e54" x="506.38125" y="206.614476" style="stroke: #000000; stroke-width: 0.8"/>
      </g>
     </g>
     <g id="text_23">
      <!-- 0.4 -->
      <g transform="translate(483.478125 210.413695) scale(0.1 -0.1)">
       <use xlink:href="#DejaVuSans-30"/>
       <use xlink:href="#DejaVuSans-2e" transform="translate(63.623047 0)"/>
       <use xlink:href="#DejaVuSans-34" transform="translate(95.410156 0)"/>
      </g>
     </g>
    </g>
    <g id="ytick_10">
     <g id="line2d_49">
      <g>
       <use xlink:href="#m9ef8d32e54" x="506.38125" y="163.717714" style="stroke: #000000; stroke-width: 0.8"/>
      </g>
     </g>
     <g id="text_24">
      <!-- 0.6 -->
      <g transform="translate(483.478125 167.516933) scale(0.1 -0.1)">
       <use xlink:href="#DejaVuSans-30"/>
       <use xlink:href="#DejaVuSans-2e" transform="translate(63.623047 0)"/>
       <use xlink:href="#DejaVuSans-36" transform="translate(95.410156 0)"/>
      </g>
     </g>
    </g>
    <g id="ytick_11">
     <g id="line2d_50">
      <g>
       <use xlink:href="#m9ef8d32e54" x="506.38125" y="120.820952" style="stroke: #000000; stroke-width: 0.8"/>
      </g>
     </g>
     <g id="text_25">
      <!-- 0.8 -->
      <g transform="translate(483.478125 124.620171) scale(0.1 -0.1)">
       <use xlink:href="#DejaVuSans-30"/>
       <use xlink:href="#DejaVuSans-2e" transform="translate(63.623047 0)"/>
       <use xlink:href="#DejaVuSans-38" transform="translate(95.410156 0)"/>
      </g>
     </g>
    </g>
    <g id="ytick_12">
     <g id="line2d_51">
      <g>
       <use xlink:href="#m9ef8d32e54" x="506.38125" y="77.92419" style="stroke: #000000; stroke-width: 0.8"/>
      </g>
     </g>
     <g id="text_26">
      <!-- 1.0 -->
      <g transform="translate(483.478125 81.723409) scale(0.1 -0.1)">
       <use xlink:href="#DejaVuSans-31"/>
       <use xlink:href="#DejaVuSans-2e" transform="translate(63.623047 0)"/>
       <use xlink:href="#DejaVuSans-30" transform="translate(95.410156 0)"/>
      </g>
     </g>
    </g>
    <g id="text_27">
     <!-- Test accuracy -->
     <g transform="translate(477.398438 213.79775) rotate(-90) scale(0.1 -0.1)">
      <use xlink:href="#DejaVuSans-54"/>
      <use xlink:href="#DejaVuSans-65" transform="translate(44.083984 0)"/>
      <use xlink:href="#DejaVuSans-73" transform="translate(105.607422 0)"/>
      <use xlink:href="#DejaVuSans-74" transform="translate(157.707031 0)"/>
      <use xlink:href="#DejaVuSans-20" transform="translate(196.916016 0)"/>
      <use xlink:href="#DejaVuSans-61" transform="translate(228.703125 0)"/>
      <use xlink:href="#DejaVuSans-63" transform="translate(289.982422 0)"/>
      <use xlink:href="#DejaVuSans-63" transform="translate(344.962891 0)"/>
      <use xlink:href="#DejaVuSans-75" transform="translate(399.943359 0)"/>
      <use xlink:href="#DejaVuSans-72" transform="translate(463.322266 0)"/>
      <use xlink:href="#DejaVuSans-61" transform="translate(504.435547 0)"/>
      <use xlink:href="#DejaVuSans-63" transform="translate(565.714844 0)"/>
      <use xlink:href="#DejaVuSans-79" transform="translate(620.695312 0)"/>
     </g>
    </g>
   </g>
   <g id="line2d_52">
    <path d="M 525.239432 237.94922 
L 545.09015 242.976185 
L 564.940867 179.301304 
L 584.791585 190.19306 
L 604.642303 292.408 
L 624.49302 234.597911 
L 644.343738 292.408 
L 664.194456 184.328268 
L 684.045173 126.518179 
L 703.895891 227.057464 
L 723.746609 129.869488 
L 743.597327 188.517405 
L 763.448044 188.517405 
L 783.298762 189.355232 
L 803.14948 191.868714 
L 823.000197 193.544369 
L 842.850915 182.652613 
L 862.701633 240.462702 
L 882.55235 241.30053 
L 902.403068 234.597911 
" clip-path="url(#pa64fdbfcba)" style="fill: none; stroke: #ff9800; stroke-width: 2; stroke-linecap: square"/>
   </g>
   <g id="line2d_53">
    <path d="M 525.239432 235.435738 
L 545.09015 292.408 
L 564.940867 237.94922 
L 584.791585 237.94922 
L 604.642303 130.707315 
L 624.49302 133.220798 
L 644.343738 177.625649 
L 664.194456 132.38297 
L 684.045173 142.436899 
L 703.895891 180.139131 
L 723.746609 134.058625 
L 743.597327 77.92419 
L 763.448044 77.92419 
L 783.298762 77.92419 
L 803.14948 77.92419 
L 823.000197 77.92419 
L 842.850915 77.92419 
L 862.701633 135.73428 
L 882.55235 131.545143 
L 902.403068 77.92419 
" clip-path="url(#pa64fdbfcba)" style="fill: none; stroke: #9c27b0; stroke-width: 2; stroke-linecap: square"/>
   </g>
   <g id="line2d_54">
    <path d="M 525.239432 182.652613 
L 545.09015 233.760083 
L 564.940867 181.814786 
L 584.791585 186.003923 
L 604.642303 184.328268 
L 624.49302 187.679577 
L 644.343738 186.84175 
L 664.194456 146.626036 
L 684.045173 135.73428 
L 703.895891 77.92419 
L 723.746609 77.92419 
L 743.597327 77.92419 
L 763.448044 77.92419 
L 783.298762 77.92419 
L 803.14948 77.92419 
L 823.000197 77.92419 
L 842.850915 77.92419 
L 862.701633 77.92419 
L 882.55235 77.92419 
L 902.403068 77.92419 
" clip-path="url(#pa64fdbfcba)" style="fill: none; stroke-dasharray: 5.55,2.4; stroke-dashoffset: 0; stroke: #ff9800; stroke-opacity: 0.6; stroke-width: 1.5"/>
   </g>
   <g id="line2d_55">
    <path d="M 525.239432 238.787048 
L 545.09015 237.94922 
L 564.940867 292.408 
L 584.791585 292.408 
L 604.642303 292.408 
L 624.49302 292.408 
L 644.343738 132.38297 
L 664.194456 189.355232 
L 684.045173 233.760083 
L 703.895891 121.491214 
L 723.746609 139.923417 
L 743.597327 123.166869 
L 763.448044 233.760083 
L 783.298762 138.247762 
L 803.14948 175.112167 
L 823.000197 175.112167 
L 842.850915 186.003923 
L 862.701633 178.463476 
L 882.55235 237.111393 
L 902.403068 192.706542 
" clip-path="url(#pa64fdbfcba)" style="fill: none; stroke-dasharray: 5.55,2.4; stroke-dashoffset: 0; stroke: #9c27b0; stroke-opacity: 0.6; stroke-width: 1.5"/>
   </g>
   <g id="line2d_56">
    <path d="M 506.38125 220.913397 
L 921.26125 220.913397 
" clip-path="url(#pa64fdbfcba)" style="fill: none; stroke-dasharray: 1.2,1.98; stroke-dashoffset: 0; stroke: #808080; stroke-width: 1.2"/>
   </g>
   <g id="patch_9">
    <path d="M 506.38125 292.408 
L 506.38125 67.2 
" style="fill: none; stroke: #000000; stroke-width: 0.8; stroke-linejoin: miter; stroke-linecap: square"/>
   </g>
   <g id="patch_10">
    <path d="M 921.26125 292.408 
L 921.26125 67.2 
" style="fill: none; stroke: #000000; stroke-width: 0.8; stroke-linejoin: miter; stroke-linecap: square"/>
   </g>
   <g id="patch_11">
    <path d="M 506.38125 292.408 
L 921.26125 292.408 
" style="fill: none; stroke: #000000; stroke-width: 0.8; stroke-linejoin: miter; stroke-linecap: square"/>
   </g>
   <g id="patch_12">
    <path d="M 506.38125 67.2 
L 921.26125 67.2 
" style="fill: none; stroke: #000000; stroke-width: 0.8; stroke-linejoin: miter; stroke-linecap: square"/>
   </g>
   <g id="text_28">
    <!-- Store-and-recall, D=50 -->
    <g transform="translate(644.917813 61.2) scale(0.12 -0.12)">
     <defs>
      <path id="DejaVuSans-53" d="M 3425 4513 
L 3425 3897 
Q 3066 4069 2747 4153 
Q 2428 4238 2131 4238 
Q 1616 4238 1336 4038 
Q 1056 3838 1056 3469 
Q 1056 3159 1242 3001 
Q 1428 2844 1947 2747 
L 2328 2669 
Q 3034 2534 3370 2195 
Q 3706 1856 3706 1288 
Q 3706 609 3251 259 
Q 2797 -91 1919 -91 
Q 1588 -91 1214 -16 
Q 841 59 441 206 
L 441 856 
Q 825 641 1194 531 
Q 1563 422 1919 422 
Q 2459 422 2753 634 
Q 3047 847 3047 1241 
Q 3047 1584 2836 1778 
Q 2625 1972 2144 2069 
L 1759 2144 
Q 1053 2284 737 2584 
Q 422 2884 422 3419 
Q 422 4038 858 4394 
Q 1294 4750 2059 4750 
Q 2388 4750 2728 4690 
Q 3069 4631 3425 4513 
z
" transform="scale(0.015625)"/>
      <path id="DejaVuSans-35" d="M 691 4666 
L 3169 4666 
L 3169 4134 
L 1269 4134 
L 1269 2991 
Q 1406 3038 1543 3061 
Q 1681 3084 1819 3084 
Q 2600 3084 3056 2656 
Q 3513 2228 3513 1497 
Q 3513 744 3044 326 
Q 2575 -91 1722 -91 
Q 1428 -91 1123 -41 
Q 819 9 494 109 
L 494 744 
Q 775 591 1075 516 
Q 1375 441 1709 441 
Q 2250 441 2565 725 
Q 2881 1009 2881 1497 
Q 2881 1984 2565 2268 
Q 2250 2553 1709 2553 
Q 1456 2553 1204 2497 
Q 953 2441 691 2322 
L 691 4666 
z
" transform="scale(0.015625)"/>
     </defs>
     <use xlink:href="#DejaVuSans-53"/>
     <use xlink:href="#DejaVuSans-74" transform="translate(63.476562 0)"/>
     <use xlink:href="#DejaVuSans-6f" transform="translate(102.685547 0)"/>
     <use xlink:href="#DejaVuSans-72" transform="translate(163.867188 0)"/>
     <use xlink:href="#DejaVuSans-65" transform="translate(202.730469 0)"/>
     <use xlink:href="#DejaVuSans-2d" transform="translate(264.253906 0)"/>
     <use xlink:href="#DejaVuSans-61" transform="translate(300.337891 0)"/>
     <use xlink:href="#DejaVuSans-6e" transform="translate(361.617188 0)"/>
     <use xlink:href="#DejaVuSans-64" transform="translate(424.996094 0)"/>
     <use xlink:href="#DejaVuSans-2d" transform="translate(488.472656 0)"/>
     <use xlink:href="#DejaVuSans-72" transform="translate(524.556641 0)"/>
     <use xlink:href="#DejaVuSans-65" transform="translate(563.419922 0)"/>
     <use xlink:href="#DejaVuSans-63" transform="translate(624.943359 0)"/>
     <use xlink:href="#DejaVuSans-61" transform="translate(679.923828 0)"/>
     <use xlink:href="#DejaVuSans-6c" transform="translate(741.203125 0)"/>
     <use xlink:href="#DejaVuSans-6c" transform="translate(768.986328 0)"/>
     <use xlink:href="#DejaVuSans-2c" transform="translate(796.769531 0)"/>
     <use xlink:href="#DejaVuSans-20" transform="translate(828.556641 0)"/>
     <use xlink:href="#DejaVuSans-44" transform="translate(860.34375 0)"/>
     <use xlink:href="#DejaVuSans-3d" transform="translate(937.345703 0)"/>
     <use xlink:href="#DejaVuSans-35" transform="translate(1021.134766 0)"/>
     <use xlink:href="#DejaVuSans-30" transform="translate(1084.757812 0)"/>
    </g>
   </g>
   <g id="legend_2">
    <g id="patch_13">
     <path d="M 512.33125 136.382031 
L 602.779219 136.382031 
Q 604.479219 136.382031 604.479219 134.682031 
L 604.479219 73.15 
Q 604.479219 71.45 602.779219 71.45 
L 512.33125 71.45 
Q 510.63125 71.45 510.63125 73.15 
L 510.63125 134.682031 
Q 510.63125 136.382031 512.33125 136.382031 
z
" style="fill: #ffffff; opacity: 0.8; stroke: #cccccc; stroke-linejoin: miter"/>
    </g>
    <g id="line2d_57">
     <path d="M 514.03125 78.333672 
L 522.53125 78.333672 
L 531.03125 78.333672 
" style="fill: none; stroke: #ff9800; stroke-width: 2; stroke-linecap: square"/>
    </g>
    <g id="text_29">
     <!-- uniform e-prop -->
     <g transform="translate(537.83125 81.308672) scale(0.085 -0.085)">
      <use xlink:href="#DejaVuSans-75"/>
      <use xlink:href="#DejaVuSans-6e" transform="translate(63.378906 0)"/>
      <use xlink:href="#DejaVuSans-69" transform="translate(126.757812 0)"/>
      <use xlink:href="#DejaVuSans-66" transform="translate(154.541016 0)"/>
      <use xlink:href="#DejaVuSans-6f" transform="translate(189.746094 0)"/>
      <use xlink:href="#DejaVuSans-72" transform="translate(250.927734 0)"/>
      <use xlink:href="#DejaVuSans-6d" transform="translate(290.291016 0)"/>
      <use xlink:href="#DejaVuSans-20" transform="translate(387.703125 0)"/>
      <use xlink:href="#DejaVuSans-65" transform="translate(419.490234 0)"/>
      <use xlink:href="#DejaVuSans-2d" transform="translate(481.013672 0)"/>
      <use xlink:href="#DejaVuSans-70" transform="translate(517.097656 0)"/>
      <use xlink:href="#DejaVuSans-72" transform="translate(580.574219 0)"/>
      <use xlink:href="#DejaVuSans-6f" transform="translate(619.4375 0)"/>
      <use xlink:href="#DejaVuSans-70" transform="translate(680.619141 0)"/>
     </g>
    </g>
    <g id="line2d_58">
     <path d="M 514.03125 90.810078 
L 522.53125 90.810078 
L 531.03125 90.810078 
" style="fill: none; stroke: #9c27b0; stroke-width: 2; stroke-linecap: square"/>
    </g>
    <g id="text_30">
     <!-- hetero e-prop -->
     <g transform="translate(537.83125 93.785078) scale(0.085 -0.085)">
      <use xlink:href="#DejaVuSans-68"/>
      <use xlink:href="#DejaVuSans-65" transform="translate(63.378906 0)"/>
      <use xlink:href="#DejaVuSans-74" transform="translate(124.902344 0)"/>
      <use xlink:href="#DejaVuSans-65" transform="translate(164.111328 0)"/>
      <use xlink:href="#DejaVuSans-72" transform="translate(225.634766 0)"/>
      <use xlink:href="#DejaVuSans-6f" transform="translate(264.498047 0)"/>
      <use xlink:href="#DejaVuSans-20" transform="translate(325.679688 0)"/>
      <use xlink:href="#DejaVuSans-65" transform="translate(357.466797 0)"/>
      <use xlink:href="#DejaVuSans-2d" transform="translate(418.990234 0)"/>
      <use xlink:href="#DejaVuSans-70" transform="translate(455.074219 0)"/>
      <use xlink:href="#DejaVuSans-72" transform="translate(518.550781 0)"/>
      <use xlink:href="#DejaVuSans-6f" transform="translate(557.414062 0)"/>
      <use xlink:href="#DejaVuSans-70" transform="translate(618.595703 0)"/>
     </g>
    </g>
    <g id="line2d_59">
     <path d="M 514.03125 103.286484 
L 522.53125 103.286484 
L 531.03125 103.286484 
" style="fill: none; stroke-dasharray: 5.55,2.4; stroke-dashoffset: 0; stroke: #ff9800; stroke-opacity: 0.6; stroke-width: 1.5"/>
    </g>
    <g id="text_31">
     <!-- uniform BPTT -->
     <g transform="translate(537.83125 106.261484) scale(0.085 -0.085)">
      <use xlink:href="#DejaVuSans-75"/>
      <use xlink:href="#DejaVuSans-6e" transform="translate(63.378906 0)"/>
      <use xlink:href="#DejaVuSans-69" transform="translate(126.757812 0)"/>
      <use xlink:href="#DejaVuSans-66" transform="translate(154.541016 0)"/>
      <use xlink:href="#DejaVuSans-6f" transform="translate(189.746094 0)"/>
      <use xlink:href="#DejaVuSans-72" transform="translate(250.927734 0)"/>
      <use xlink:href="#DejaVuSans-6d" transform="translate(290.291016 0)"/>
      <use xlink:href="#DejaVuSans-20" transform="translate(387.703125 0)"/>
      <use xlink:href="#DejaVuSans-42" transform="translate(419.490234 0)"/>
      <use xlink:href="#DejaVuSans-50" transform="translate(488.09375 0)"/>
      <use xlink:href="#DejaVuSans-54" transform="translate(548.396484 0)"/>
      <use xlink:href="#DejaVuSans-54" transform="translate(607.730469 0)"/>
     </g>
    </g>
    <g id="line2d_60">
     <path d="M 514.03125 115.762891 
L 522.53125 115.762891 
L 531.03125 115.762891 
" style="fill: none; stroke-dasharray: 5.55,2.4; stroke-dashoffset: 0; stroke: #9c27b0; stroke-opacity: 0.6; stroke-width: 1.5"/>
    </g>
    <g id="text_32">
     <!-- hetero BPTT -->
     <g transform="translate(537.83125 118.737891) scale(0.085 -0.085)">
      <use xlink:href="#DejaVuSans-68"/>
      <use xlink:href="#DejaVuSans-65" transform="translate(63.378906 0)"/>
      <use xlink:href="#DejaVuSans-74" transform="translate(124.902344 0)"/>
      <use xlink:href="#DejaVuSans-65" transform="translate(164.111328 0)"/>
      <use xlink:href="#DejaVuSans-72" transform="translate(225.634766 0)"/>
      <use xlink:href="#DejaVuSans-6f" transform="translate(264.498047 0)"/>
      <use xlink:href="#DejaVuSans-20" transform="translate(325.679688 0)"/>
      <use xlink:href="#DejaVuSans-42" transform="translate(357.466797 0)"/>
      <use xlink:href="#DejaVuSans-50" transform="translate(426.070312 0)"/>
      <use xlink:href="#DejaVuSans-54" transform="translate(486.373047 0)"/>
      <use xlink:href="#DejaVuSans-54" transform="translate(545.707031 0)"/>
     </g>
    </g>
    <g id="line2d_61">
     <path d="M 514.03125 128.239297 
L 522.53125 128.239297 
L 531.03125 128.239297 
" style="fill: none; stroke-dasharray: 1.2,1.98; stroke-dashoffset: 0; stroke: #808080; stroke-width: 1.2"/>
    </g>
    <g id="text_33">
     <!-- chance (33 %) -->
     <g transform="translate(537.83125 131.214297) scale(0.085 -0.085)">
      <defs>
       <path id="DejaVuSans-33" d="M 2597 2516 
Q 3050 2419 3304 2112 
Q 3559 1806 3559 1356 
Q 3559 666 3084 287 
Q 2609 -91 1734 -91 
Q 1441 -91 1130 -33 
Q 819 25 488 141 
L 488 750 
Q 750 597 1062 519 
Q 1375 441 1716 441 
Q 2309 441 2620 675 
Q 2931 909 2931 1356 
Q 2931 1769 2642 2001 
Q 2353 2234 1838 2234 
L 1294 2234 
L 1294 2753 
L 1863 2753 
Q 2328 2753 2575 2939 
Q 2822 3125 2822 3475 
Q 2822 3834 2567 4026 
Q 2313 4219 1838 4219 
Q 1578 4219 1281 4162 
Q 984 4106 628 3988 
L 628 4550 
Q 988 4650 1302 4700 
Q 1616 4750 1894 4750 
Q 2613 4750 3031 4423 
Q 3450 4097 3450 3541 
Q 3450 3153 3228 2886 
Q 3006 2619 2597 2516 
z
" transform="scale(0.015625)"/>
       <path id="DejaVuSans-25" d="M 4653 2053 
Q 4381 2053 4226 1822 
Q 4072 1591 4072 1178 
Q 4072 772 4226 539 
Q 4381 306 4653 306 
Q 4919 306 5073 539 
Q 5228 772 5228 1178 
Q 5228 1588 5073 1820 
Q 4919 2053 4653 2053 
z
M 4653 2450 
Q 5147 2450 5437 2106 
Q 5728 1763 5728 1178 
Q 5728 594 5436 251 
Q 5144 -91 4653 -91 
Q 4153 -91 3862 251 
Q 3572 594 3572 1178 
Q 3572 1766 3864 2108 
Q 4156 2450 4653 2450 
z
M 1428 4353 
Q 1159 4353 1004 4120 
Q 850 3888 850 3481 
Q 850 3069 1003 2837 
Q 1156 2606 1428 2606 
Q 1700 2606 1854 2837 
Q 2009 3069 2009 3481 
Q 2009 3884 1853 4118 
Q 1697 4353 1428 4353 
z
M 4250 4750 
L 4750 4750 
L 1831 -91 
L 1331 -91 
L 4250 4750 
z
M 1428 4750 
Q 1922 4750 2215 4408 
Q 2509 4066 2509 3481 
Q 2509 2891 2217 2550 
Q 1925 2209 1428 2209 
Q 931 2209 642 2551 
Q 353 2894 353 3481 
Q 353 4063 643 4406 
Q 934 4750 1428 4750 
z
" transform="scale(0.015625)"/>
      </defs>
      <use xlink:href="#DejaVuSans-63"/>
      <use xlink:href="#DejaVuSans-68" transform="translate(54.980469 0)"/>
      <use xlink:href="#DejaVuSans-61" transform="translate(118.359375 0)"/>
      <use xlink:href="#DejaVuSans-6e" transform="translate(179.638672 0)"/>
      <use xlink:href="#DejaVuSans-63" transform="translate(243.017578 0)"/>
      <use xlink:href="#DejaVuSans-65" transform="translate(297.998047 0)"/>
      <use xlink:href="#DejaVuSans-20" transform="translate(359.521484 0)"/>
      <use xlink:href="#DejaVuSans-28" transform="translate(391.308594 0)"/>
      <use xlink:href="#DejaVuSans-33" transform="translate(430.322266 0)"/>
      <use xlink:href="#DejaVuSans-33" transform="translate(493.945312 0)"/>
      <use xlink:href="#DejaVuSans-20" transform="translate(557.568359 0)"/>
      <use xlink:href="#DejaVuSans-25" transform="translate(589.355469 0)"/>
      <use xlink:href="#DejaVuSans-29" transform="translate(684.375 0)"/>
     </g>
    </g>
   </g>
  </g>
  <g id="text_34">
   <!-- Exp 10 — Heterogeneous LIF: extending temporal horizon  ($D\in\{2..100\}$, store-and-recall) -->
   <g transform="translate(188.78125 16.32) scale(0.12 -0.12)">
    <defs>
     <path id="DejaVuSans-45" d="M 628 4666 
L 3578 4666 
L 3578 4134 
L 1259 4134 
L 1259 2753 
L 3481 2753 
L 3481 2222 
L 1259 2222 
L 1259 531 
L 3634 531 
L 3634 0 
L 628 0 
L 628 4666 
z
" transform="scale(0.015625)"/>
     <path id="DejaVuSans-78" d="M 3513 3500 
L 2247 1797 
L 3578 0 
L 2900 0 
L 1881 1375 
L 863 0 
L 184 0 
L 1544 1831 
L 300 3500 
L 978 3500 
L 1906 2253 
L 2834 3500 
L 3513 3500 
z
" transform="scale(0.015625)"/>
     <path id="DejaVuSansDisplay-2014" d="M 313 1978 
L 6088 1978 
L 6088 1528 
L 313 1528 
L 313 1978 
z
" transform="scale(0.015625)"/>
     <path id="DejaVuSans-48" d="M 628 4666 
L 1259 4666 
L 1259 2753 
L 3553 2753 
L 3553 4666 
L 4184 4666 
L 4184 0 
L 3553 0 
L 3553 2222 
L 1259 2222 
L 1259 0 
L 628 0 
L 628 4666 
z
" transform="scale(0.015625)"/>
     <path id="DejaVuSans-3a" d="M 750 794 
L 1409 794 
L 1409 0 
L 750 0 
L 750 794 
z
M 750 3309 
L 1409 3309 
L 1409 2516 
L 750 2516 
L 750 3309 
z
" transform="scale(0.015625)"/>
     <path id="DejaVuSans-Oblique-44" d="M 1081 4666 
L 2438 4666 
Q 3519 4666 4070 4208 
Q 4622 3750 4622 2847 
Q 4622 2250 4412 1698 
Q 4203 1147 3834 769 
Q 3463 381 2891 190 
Q 2319 0 1538 0 
L 172 0 
L 1081 4666 
z
M 1613 4147 
L 909 519 
L 1734 519 
Q 2794 519 3375 1128 
Q 3956 1738 3956 2847 
Q 3956 3519 3581 3833 
Q 3206 4147 2406 4147 
L 1613 4147 
z
" transform="scale(0.015625)"/>
     <path id="DejaVuSans-7b" d="M 3272 -594 
L 3272 -1044 
L 3078 -1044 
Q 2300 -1044 2036 -812 
Q 1772 -581 1772 109 
L 1772 856 
Q 1772 1328 1603 1509 
Q 1434 1691 991 1691 
L 800 1691 
L 800 2138 
L 991 2138 
Q 1438 2138 1605 2317 
Q 1772 2497 1772 2963 
L 1772 3713 
Q 1772 4403 2036 4633 
Q 2300 4863 3078 4863 
L 3272 4863 
L 3272 4416 
L 3059 4416 
Q 2619 4416 2484 4278 
Q 2350 4141 2350 3700 
L 2350 2925 
Q 2350 2434 2208 2212 
Q 2066 1991 1722 1913 
Q 2069 1828 2209 1606 
Q 2350 1384 2350 897 
L 2350 122 
Q 2350 -319 2484 -456 
Q 2619 -594 3059 -594 
L 3272 -594 
z
" transform="scale(0.015625)"/>
     <path id="DejaVuSans-7d" d="M 800 -594 
L 1019 -594 
Q 1456 -594 1589 -459 
Q 1722 -325 1722 122 
L 1722 897 
Q 1722 1384 1862 1606 
Q 2003 1828 2350 1913 
Q 2003 1991 1862 2212 
Q 1722 2434 1722 2925 
L 1722 3700 
Q 1722 4144 1589 4280 
Q 1456 4416 1019 4416 
L 800 4416 
L 800 4863 
L 997 4863 
Q 1775 4863 2036 4633 
Q 2297 4403 2297 3713 
L 2297 2963 
Q 2297 2497 2465 2317 
Q 2634 2138 3078 2138 
L 3272 2138 
L 3272 1691 
L 3078 1691 
Q 2634 1691 2465 1509 
Q 2297 1328 2297 856 
L 2297 109 
Q 2297 -581 2036 -812 
Q 1775 -1044 997 -1044 
L 800 -1044 
L 800 -594 
z
" transform="scale(0.015625)"/>
    </defs>
    <use xlink:href="#DejaVuSans-45" transform="translate(0 0.015625)"/>
    <use xlink:href="#DejaVuSans-78" transform="translate(63.183594 0.015625)"/>
    <use xlink:href="#DejaVuSans-70" transform="translate(122.363281 0.015625)"/>
    <use xlink:href="#DejaVuSans-20" transform="translate(185.839844 0.015625)"/>
    <use xlink:href="#DejaVuSans-31" transform="translate(217.626953 0.015625)"/>
    <use xlink:href="#DejaVuSans-30" transform="translate(281.25 0.015625)"/>
    <use xlink:href="#DejaVuSans-20" transform="translate(344.873047 0.015625)"/>
    <use xlink:href="#DejaVuSansDisplay-2014" transform="translate(376.660156 0.015625)"/>
    <use xlink:href="#DejaVuSans-20" transform="translate(476.660156 0.015625)"/>
    <use xlink:href="#DejaVuSans-48" transform="translate(508.447266 0.015625)"/>
    <use xlink:href="#DejaVuSans-65" transform="translate(583.642578 0.015625)"/>
    <use xlink:href="#DejaVuSans-74" transform="translate(645.166016 0.015625)"/>
    <use xlink:href="#DejaVuSans-65" transform="translate(684.375 0.015625)"/>
    <use xlink:href="#DejaVuSans-72" transform="translate(745.898438 0.015625)"/>
    <use xlink:href="#DejaVuSans-6f" transform="translate(787.011719 0.015625)"/>
    <use xlink:href="#DejaVuSans-67" transform="translate(848.193359 0.015625)"/>
    <use xlink:href="#DejaVuSans-65" transform="translate(911.669922 0.015625)"/>
    <use xlink:href="#DejaVuSans-6e" transform="translate(973.193359 0.015625)"/>
    <use xlink:href="#DejaVuSans-65" transform="translate(1036.572266 0.015625)"/>
    <use xlink:href="#DejaVuSans-6f" transform="translate(1098.095703 0.015625)"/>
    <use xlink:href="#DejaVuSans-75" transform="translate(1159.277344 0.015625)"/>
    <use xlink:href="#DejaVuSans-73" transform="translate(1222.65625 0.015625)"/>
    <use xlink:href="#DejaVuSans-20" transform="translate(1274.755859 0.015625)"/>
    <use xlink:href="#DejaVuSans-4c" transform="translate(1306.542969 0.015625)"/>
    <use xlink:href="#DejaVuSans-49" transform="translate(1362.255859 0.015625)"/>
    <use xlink:href="#DejaVuSans-46" transform="translate(1391.748047 0.015625)"/>
    <use xlink:href="#DejaVuSans-3a" transform="translate(1449.267578 0.015625)"/>
    <use xlink:href="#DejaVuSans-20" transform="translate(1482.958984 0.015625)"/>
    <use xlink:href="#DejaVuSans-65" transform="translate(1514.746094 0.015625)"/>
    <use xlink:href="#DejaVuSans-78" transform="translate(1576.269531 0.015625)"/>
    <use xlink:href="#DejaVuSans-74" transform="translate(1635.449219 0.015625)"/>
    <use xlink:href="#DejaVuSans-65" transform="translate(1674.658203 0.015625)"/>
    <use xlink:href="#DejaVuSans-6e" transform="translate(1736.181641 0.015625)"/>
    <use xlink:href="#DejaVuSans-64" transform="translate(1799.560547 0.015625)"/>
    <use xlink:href="#DejaVuSans-69" transform="translate(1863.037109 0.015625)"/>
    <use xlink:href="#DejaVuSans-6e" transform="translate(1890.820312 0.015625)"/>
    <use xlink:href="#DejaVuSans-67" transform="translate(1954.199219 0.015625)"/>
    <use xlink:href="#DejaVuSans-20" transform="translate(2017.675781 0.015625)"/>
    <use xlink:href="#DejaVuSans-74" transform="translate(2049.462891 0.015625)"/>
    <use xlink:href="#DejaVuSans-65" transform="translate(2088.671875 0.015625)"/>
    <use xlink:href="#DejaVuSans-6d" transform="translate(2150.195312 0.015625)"/>
    <use xlink:href="#DejaVuSans-70" transform="translate(2247.607422 0.015625)"/>
    <use xlink:href="#DejaVuSans-6f" transform="translate(2311.083984 0.015625)"/>
    <use xlink:href="#DejaVuSans-72" transform="translate(2372.265625 0.015625)"/>
    <use xlink:href="#DejaVuSans-61" transform="translate(2413.378906 0.015625)"/>
    <use xlink:href="#DejaVuSans-6c" transform="translate(2474.658203 0.015625)"/>
    <use xlink:href="#DejaVuSans-20" transform="translate(2502.441406 0.015625)"/>
    <use xlink:href="#DejaVuSans-68" transform="translate(2534.228516 0.015625)"/>
    <use xlink:href="#DejaVuSans-6f" transform="translate(2597.607422 0.015625)"/>
    <use xlink:href="#DejaVuSans-72" transform="translate(2658.789062 0.015625)"/>
    <use xlink:href="#DejaVuSans-69" transform="translate(2699.902344 0.015625)"/>
    <use xlink:href="#DejaVuSans-7a" transform="translate(2727.685547 0.015625)"/>
    <use xlink:href="#DejaVuSans-6f" transform="translate(2780.175781 0.015625)"/>
    <use xlink:href="#DejaVuSans-6e" transform="translate(2841.357422 0.015625)"/>
    <use xlink:href="#DejaVuSans-20" transform="translate(2904.736328 0.015625)"/>
    <use xlink:href="#DejaVuSans-20" transform="translate(2936.523438 0.015625)"/>
    <use xlink:href="#DejaVuSans-28" transform="translate(2968.310547 0.015625)"/>
    <use xlink:href="#DejaVuSans-Oblique-44" transform="translate(3007.324219 0.015625)"/>
    <use xlink:href="#DejaVuSans-2208" transform="translate(3103.808594 0.015625)"/>
    <use xlink:href="#DejaVuSans-7b" transform="translate(3210.400391 0.015625)"/>
    <use xlink:href="#DejaVuSans-32" transform="translate(3274.023438 0.015625)"/>
    <use xlink:href="#DejaVuSans-2e" transform="translate(3337.646484 0.015625)"/>
    <use xlink:href="#DejaVuSans-2e" transform="translate(3388.916016 0.015625)"/>
    <use xlink:href="#DejaVuSans-31" transform="translate(3440.185547 0.015625)"/>
    <use xlink:href="#DejaVuSans-30" transform="translate(3503.808594 0.015625)"/>
    <use xlink:href="#DejaVuSans-30" transform="translate(3567.431641 0.015625)"/>
    <use xlink:href="#DejaVuSans-7d" transform="translate(3631.054688 0.015625)"/>
    <use xlink:href="#DejaVuSans-2c" transform="translate(3694.677734 0.015625)"/>
    <use xlink:href="#DejaVuSans-20" transform="translate(3726.464844 0.015625)"/>
    <use xlink:href="#DejaVuSans-73" transform="translate(3758.251953 0.015625)"/>
    <use xlink:href="#DejaVuSans-74" transform="translate(3810.351562 0.015625)"/>
    <use xlink:href="#DejaVuSans-6f" transform="translate(3849.560547 0.015625)"/>
    <use xlink:href="#DejaVuSans-72" transform="translate(3910.742188 0.015625)"/>
    <use xlink:href="#DejaVuSans-65" transform="translate(3951.855469 0.015625)"/>
    <use xlink:href="#DejaVuSans-2d" transform="translate(4013.378906 0.015625)"/>
    <use xlink:href="#DejaVuSans-61" transform="translate(4049.462891 0.015625)"/>
    <use xlink:href="#DejaVuSans-6e" transform="translate(4110.742188 0.015625)"/>
    <use xlink:href="#DejaVuSans-64" transform="translate(4174.121094 0.015625)"/>
    <use xlink:href="#DejaVuSans-2d" transform="translate(4237.597656 0.015625)"/>
    <use xlink:href="#DejaVuSans-72" transform="translate(4273.681641 0.015625)"/>
    <use xlink:href="#DejaVuSans-65" transform="translate(4314.794922 0.015625)"/>
    <use xlink:href="#DejaVuSans-63" transform="translate(4376.318359 0.015625)"/>
    <use xlink:href="#DejaVuSans-61" transform="translate(4431.298828 0.015625)"/>
    <use xlink:href="#DejaVuSans-6c" transform="translate(4492.578125 0.015625)"/>
    <use xlink:href="#DejaVuSans-6c" transform="translate(4520.361328 0.015625)"/>
    <use xlink:href="#DejaVuSans-29" transform="translate(4548.144531 0.015625)"/>
   </g>
  </g>
 </g>
 <defs>
  <clipPath id="p5848a6e41f">
   <rect x="43.78125" y="67.2" width="414.88" height="225.208"/>
  </clipPath>
  <clipPath id="pa64fdbfcba">
   <rect x="506.38125" y="67.2" width="414.88" height="225.208"/>
  </clipPath>
 </defs>
</svg>
