<?xml version="1.0" encoding="utf-8" standalone="no"?>
<!DOCTYPE svg PUBLIC "-//W3C//DTD SVG 1.1//EN"
  "http://www.w3.org/Graphics/SVG/1.1/DTD/svg11.dtd">
<svg xmlns:xlink="http://www.w3.org/1999/xlink" width="496.46125pt" height="315.034375pt" viewBox="0 0 496.46125 315.034375" xmlns="http://www.w3.org/2000/svg" version="1.1">
 <metadata>
  <rdf:RDF xmlns:dc="http://purl.org/dc/elements/1.1/" xmlns:cc="http://creativecommons.org/ns#" xmlns:rdf="http://www.w3.org/1999/02/22-rdf-syntax-ns#">
   <cc:Work>
    <dc:type rdf:resource="http://purl.org/dc/dcmitype/StillImage"/>
    <dc:date>2026-06-28T08:11:32.264268</dc:date>
    <dc:format>image/svg+xml</dc:format>
    <dc:creator>
     <cc:Agent>
      <dc:title>Matplotlib v3.10.0, https://matplotlib.org/</dc:title>
     </cc:Agent>
    </dc:creator>
   </cc:Work>
  </rdf:RDF>
 </metadata>
 <defs>
  <style type="text/css">*{stroke-linejoin: round; stroke-linecap: butt}</style>
 </defs>
 <g id="figure_1">
  <g id="patch_1">
   <path d="M 0 315.034375 
L 496.46125 315.034375 
L 496.46125 0 
L 0 0 
z
" style="fill: #ffffff"/>
  </g>
  <g id="axes_1">
   <g id="patch_2">
    <path d="M 43.78125 277.478125 
L 489.26125 277.478125 
L 489.26125 22.318125 
L 43.78125 22.318125 
z
" style="fill: #ffffff"/>
   </g>
   <g id="FillBetweenPolyCollection_1">
    <defs>
     <path id="m85efd6715d" d="M 64.030341 -64.454029 
L 64.030341 -59.740312 
L 74.975795 -249.222389 
L 85.92125 -281.910572 
L 96.866705 -282.954576 
L 107.812159 -282.871508 
L 118.757614 -283.623803 
L 129.703068 -283.67285 
L 140.648523 -283.623803 
L 151.593977 -283.67285 
L 162.539432 -283.708623 
L 173.484886 -283.459358 
L 184.430341 -283.763268 
L 195.375795 -283.653978 
L 206.32125 -283.582432 
L 217.266705 -283.67285 
L 228.212159 -283.708623 
L 239.157614 -283.763268 
L 250.103068 -283.708623 
L 261.048523 -283.763268 
L 271.993977 -283.763268 
L 282.939432 -283.763268 
L 293.884886 -283.380755 
L 304.830341 -283.763268 
L 315.775795 -283.708623 
L 326.72125 -283.763268 
L 326.72125 -283.763268 
L 326.72125 -283.763268 
L 315.775795 -283.763268 
L 304.830341 -283.763268 
L 293.884886 -283.763268 
L 282.939432 -283.763268 
L 271.993977 -283.763268 
L 261.048523 -283.763268 
L 250.103068 -283.763268 
L 239.157614 -283.763268 
L 228.212159 -283.763268 
L 217.266705 -283.744396 
L 206.32125 -283.725525 
L 195.375795 -283.763268 
L 184.430341 -283.763268 
L 173.484886 -283.684664 
L 162.539432 -283.763268 
L 151.593977 -283.744396 
L 140.648523 -283.738798 
L 129.703068 -283.744396 
L 118.757614 -283.738798 
L 107.812159 -283.671424 
L 96.866705 -283.643 
L 85.92125 -283.375532 
L 74.975795 -264.260569 
L 64.030341 -64.454029 
z
" style="stroke: #000000; stroke-opacity: 0.15"/>
    </defs>
    <g clip-path="url(#p34bf75c437)">
     <use xlink:href="#m85efd6715d" x="0" y="315.034375" style="fill-opacity: 0.15; stroke: #000000; stroke-opacity: 0.15"/>
    </g>
   </g>
   <g id="FillBetweenPolyCollection_2">
    <defs>
     <path id="m1068ac4f8c" d="M 64.030341 -64.454029 
L 64.030341 -59.740312 
L 74.975795 -162.836129 
L 85.92125 -223.293506 
L 96.866705 -239.899104 
L 107.812159 -261.615058 
L 118.757614 -273.194896 
L 129.703068 -279.645602 
L 140.648523 -282.075339 
L 151.593977 -282.454408 
L 162.539432 -276.079437 
L 173.484886 -282.433073 
L 184.430341 -283.07882 
L 195.375795 -282.893467 
L 206.32125 -283.503381 
L 217.266705 -283.544689 
L 228.212159 -283.50752 
L 239.157614 -283.484995 
L 250.103068 -283.569158 
L 261.048523 -282.992067 
L 271.993977 -282.670374 
L 282.939432 -283.459358 
L 293.884886 -283.438559 
L 304.830341 -283.463898 
L 315.775795 -283.660505 
L 326.72125 -283.690408 
L 337.666705 -283.289053 
L 348.612159 -283.763268 
L 359.557614 -283.763268 
L 370.503068 -282.888953 
L 370.503068 -283.763268 
L 370.503068 -283.763268 
L 359.557614 -283.763268 
L 348.612159 -283.763268 
L 337.666705 -283.712893 
L 326.72125 -283.763268 
L 315.775795 -283.741128 
L 304.830341 -283.734769 
L 293.884886 -283.705464 
L 282.939432 -283.684664 
L 271.993977 -283.490044 
L 261.048523 -283.550864 
L 250.103068 -283.684153 
L 239.157614 -283.659027 
L 228.212159 -283.636502 
L 217.266705 -283.653978 
L 206.32125 -283.585996 
L 195.375795 -283.266951 
L 184.430341 -283.464111 
L 173.484886 -283.180898 
L 162.539432 -282.92253 
L 151.593977 -283.104919 
L 140.648523 -282.773607 
L 129.703068 -281.542151 
L 118.757614 -279.085777 
L 107.812159 -271.64927 
L 96.866705 -249.485556 
L 85.92125 -237.129479 
L 74.975795 -185.401352 
L 64.030341 -64.454029 
z
" style="stroke: #1f77b4; stroke-opacity: 0.15"/>
    </defs>
    <g clip-path="url(#p34bf75c437)">
     <use xlink:href="#m1068ac4f8c" x="0" y="315.034375" style="fill: #1f77b4; fill-opacity: 0.15; stroke: #1f77b4; stroke-opacity: 0.15"/>
    </g>
   </g>
   <g id="FillBetweenPolyCollection_3">
    <defs>
     <path id="m83d5cf9a87" d="M 64.030341 -64.454029 
L 64.030341 -59.740312 
L 74.975795 -103.278243 
L 85.92125 -134.444156 
L 96.866705 -164.438765 
L 107.812159 -202.064809 
L 118.757614 -236.047458 
L 129.703068 -258.707919 
L 140.648523 -269.636717 
L 151.593977 -274.607429 
L 162.539432 -275.829128 
L 173.484886 -279.195956 
L 184.430341 -278.719554 
L 195.375795 -280.624639 
L 206.32125 -280.377382 
L 217.266705 -281.916143 
L 228.212159 -280.953549 
L 239.157614 -282.697519 
L 250.103068 -282.278245 
L 261.048523 -282.341467 
L 271.993977 -282.784924 
L 282.939432 -282.32718 
L 293.884886 -283.042404 
L 304.830341 -283.005055 
L 315.775795 -271.480357 
L 326.72125 -282.782804 
L 337.666705 -283.136538 
L 348.612159 -283.262622 
L 359.557614 -283.113855 
L 370.503068 -282.877027 
L 381.448523 -283.32611 
L 381.448523 -283.32611 
L 381.448523 -283.32611 
L 370.503068 -283.556615 
L 359.557614 -283.611225 
L 348.612159 -283.576952 
L 337.666705 -283.578134 
L 326.72125 -283.32297 
L 315.775795 -283.204681 
L 304.830341 -283.373942 
L 293.884886 -283.500527 
L 282.939432 -283.177502 
L 271.993977 -283.266205 
L 261.048523 -283.163216 
L 250.103068 -282.953214 
L 239.157614 -283.298965 
L 228.212159 -282.63857 
L 217.266705 -282.932803 
L 206.32125 -282.012554 
L 195.375795 -282.202455 
L 184.430341 -281.648529 
L 173.484886 -281.937152 
L 162.539432 -280.440605 
L 151.593977 -280.022965 
L 140.648523 -277.0702 
L 129.703068 -267.452602 
L 118.757614 -249.730653 
L 107.812159 -228.412898 
L 96.866705 -202.487193 
L 85.92125 -171.880865 
L 74.975795 -142.992287 
L 64.030341 -64.454029 
z
" style="stroke: #d62728; stroke-opacity: 0.15"/>
    </defs>
    <g clip-path="url(#p34bf75c437)">
     <use xlink:href="#m83d5cf9a87" x="0" y="315.034375" style="fill: #d62728; fill-opacity: 0.15; stroke: #d62728; stroke-opacity: 0.15"/>
    </g>
   </g>
   <g id="FillBetweenPolyCollection_4">
    <defs>
     <path id="m70831eaf1b" d="M 64.030341 -64.454029 
L 64.030341 -59.740312 
L 74.975795 -96.058832 
L 85.92125 -127.836503 
L 96.866705 -173.757846 
L 107.812159 -201.301484 
L 118.757614 -243.08904 
L 129.703068 -255.558301 
L 140.648523 -269.154648 
L 151.593977 -275.5859 
L 162.539432 -277.958101 
L 173.484886 -278.764688 
L 184.430341 -279.324593 
L 195.375795 -279.984329 
L 206.32125 -280.139431 
L 217.266705 -280.82937 
L 228.212159 -280.783379 
L 239.157614 -281.174787 
L 250.103068 -281.398433 
L 261.048523 -281.704051 
L 271.993977 -281.723841 
L 282.939432 -282.066006 
L 293.884886 -282.17448 
L 304.830341 -282.174684 
L 315.775795 -282.256759 
L 326.72125 -281.83894 
L 337.666705 -275.722647 
L 348.612159 -275.835282 
L 359.557614 -282.53737 
L 370.503068 -282.119743 
L 381.448523 -282.451796 
L 392.393977 -281.577481 
L 403.339432 -282.670374 
L 414.284886 -282.670374 
L 425.230341 -282.670374 
L 436.175795 -170.102357 
L 447.12125 -282.888953 
L 458.066705 -283.32611 
L 469.012159 -283.32611 
L 469.012159 -283.32611 
L 469.012159 -283.32611 
L 458.066705 -283.32611 
L 447.12125 -282.888953 
L 436.175795 -283.107532 
L 425.230341 -282.888953 
L 414.284886 -282.670374 
L 403.339432 -282.670374 
L 392.393977 -283.107532 
L 381.448523 -283.471829 
L 370.503068 -283.075287 
L 359.557614 -283.568404 
L 348.612159 -282.948106 
L 337.666705 -283.333965 
L 326.72125 -283.228585 
L 315.775795 -283.247923 
L 304.830341 -283.166064 
L 293.884886 -283.220913 
L 282.939432 -283.110808 
L 271.993977 -282.906527 
L 261.048523 -282.871672 
L 250.103068 -282.740132 
L 239.157614 -282.526621 
L 228.212159 -282.426228 
L 217.266705 -282.325591 
L 206.32125 -282.031927 
L 195.375795 -281.859161 
L 184.430341 -281.426003 
L 173.484886 -281.111593 
L 162.539432 -280.497419 
L 151.593977 -279.317717 
L 140.648523 -277.661558 
L 129.703068 -274.645925 
L 118.757614 -262.470441 
L 107.812159 -231.088786 
L 96.866705 -195.900345 
L 85.92125 -160.182553 
L 74.975795 -118.299212 
L 64.030341 -64.454029 
z
" style="stroke: #ff7f0e; stroke-opacity: 0.15"/>
    </defs>
    <g clip-path="url(#p34bf75c437)">
     <use xlink:href="#m70831eaf1b" x="0" y="315.034375" style="fill: #ff7f0e; fill-opacity: 0.15; stroke: #ff7f0e; stroke-opacity: 0.15"/>
    </g>
   </g>
   <g id="matplotlib.axis_1">
    <g id="xtick_1">
     <g id="line2d_1">
      <defs>
       <path id="m695352287a" d="M 0 0 
L 0 3.5 
" style="stroke: #000000; stroke-width: 0.8"/>
      </defs>
      <g>
       <use xlink:href="#m695352287a" x="64.030341" y="277.478125" style="stroke: #000000; stroke-width: 0.8"/>
      </g>
     </g>
     <g id="text_1">
      <!-- 0 -->
      <g transform="translate(60.849091 292.076563) scale(0.1 -0.1)">
       <defs>
        <path id="DejaVuSans-30" d="M 2034 4250 
Q 1547 4250 1301 3770 
Q 1056 3291 1056 2328 
Q 1056 1369 1301 889 
Q 1547 409 2034 409 
Q 2525 409 2770 889 
Q 3016 1369 3016 2328 
Q 3016 3291 2770 3770 
Q 2525 4250 2034 4250 
z
M 2034 4750 
Q 2819 4750 3233 4129 
Q 3647 3509 3647 2328 
Q 3647 1150 3233 529 
Q 2819 -91 2034 -91 
Q 1250 -91 836 529 
Q 422 1150 422 2328 
Q 422 3509 836 4129 
Q 1250 4750 2034 4750 
z
" transform="scale(0.015625)"/>
       </defs>
       <use xlink:href="#DejaVuSans-30"/>
      </g>
     </g>
    </g>
    <g id="xtick_2">
     <g id="line2d_2">
      <g>
       <use xlink:href="#m695352287a" x="118.757614" y="277.478125" style="stroke: #000000; stroke-width: 0.8"/>
      </g>
     </g>
     <g id="text_2">
      <!-- 500 -->
      <g transform="translate(109.213864 292.076563) scale(0.1 -0.1)">
       <defs>
        <path id="DejaVuSans-35" d="M 691 4666 
L 3169 4666 
L 3169 4134 
L 1269 4134 
L 1269 2991 
Q 1406 3038 1543 3061 
Q 1681 3084 1819 3084 
Q 2600 3084 3056 2656 
Q 3513 2228 3513 1497 
Q 3513 744 3044 326 
Q 2575 -91 1722 -91 
Q 1428 -91 1123 -41 
Q 819 9 494 109 
L 494 744 
Q 775 591 1075 516 
Q 1375 441 1709 441 
Q 2250 441 2565 725 
Q 2881 1009 2881 1497 
Q 2881 1984 2565 2268 
Q 2250 2553 1709 2553 
Q 1456 2553 1204 2497 
Q 953 2441 691 2322 
L 691 4666 
z
" transform="scale(0.015625)"/>
       </defs>
       <use xlink:href="#DejaVuSans-35"/>
       <use xlink:href="#DejaVuSans-30" transform="translate(63.623047 0)"/>
       <use xlink:href="#DejaVuSans-30" transform="translate(127.246094 0)"/>
      </g>
     </g>
    </g>
    <g id="xtick_3">
     <g id="line2d_3">
      <g>
       <use xlink:href="#m695352287a" x="173.484886" y="277.478125" style="stroke: #000000; stroke-width: 0.8"/>
      </g>
     </g>
     <g id="text_3">
      <!-- 1000 -->
      <g transform="translate(160.759886 292.076563) scale(0.1 -0.1)">
       <defs>
        <path id="DejaVuSans-31" d="M 794 531 
L 1825 531 
L 1825 4091 
L 703 3866 
L 703 4441 
L 1819 4666 
L 2450 4666 
L 2450 531 
L 3481 531 
L 3481 0 
L 794 0 
L 794 531 
z
" transform="scale(0.015625)"/>
       </defs>
       <use xlink:href="#DejaVuSans-31"/>
       <use xlink:href="#DejaVuSans-30" transform="translate(63.623047 0)"/>
       <use xlink:href="#DejaVuSans-30" transform="translate(127.246094 0)"/>
       <use xlink:href="#DejaVuSans-30" transform="translate(190.869141 0)"/>
      </g>
     </g>
    </g>
    <g id="xtick_4">
     <g id="line2d_4">
      <g>
       <use xlink:href="#m695352287a" x="228.212159" y="277.478125" style="stroke: #000000; stroke-width: 0.8"/>
      </g>
     </g>
     <g id="text_4">
      <!-- 1500 -->
      <g transform="translate(215.487159 292.076563) scale(0.1 -0.1)">
       <use xlink:href="#DejaVuSans-31"/>
       <use xlink:href="#DejaVuSans-35" transform="translate(63.623047 0)"/>
       <use xlink:href="#DejaVuSans-30" transform="translate(127.246094 0)"/>
       <use xlink:href="#DejaVuSans-30" transform="translate(190.869141 0)"/>
      </g>
     </g>
    </g>
    <g id="xtick_5">
     <g id="line2d_5">
      <g>
       <use xlink:href="#m695352287a" x="282.939432" y="277.478125" style="stroke: #000000; stroke-width: 0.8"/>
      </g>
     </g>
     <g id="text_5">
      <!-- 2000 -->
      <g transform="translate(270.214432 292.076563) scale(0.1 -0.1)">
       <defs>
        <path id="DejaVuSans-32" d="M 1228 531 
L 3431 531 
L 3431 0 
L 469 0 
L 469 531 
Q 828 903 1448 1529 
Q 2069 2156 2228 2338 
Q 2531 2678 2651 2914 
Q 2772 3150 2772 3378 
Q 2772 3750 2511 3984 
Q 2250 4219 1831 4219 
Q 1534 4219 1204 4116 
Q 875 4013 500 3803 
L 500 4441 
Q 881 4594 1212 4672 
Q 1544 4750 1819 4750 
Q 2544 4750 2975 4387 
Q 3406 4025 3406 3419 
Q 3406 3131 3298 2873 
Q 3191 2616 2906 2266 
Q 2828 2175 2409 1742 
Q 1991 1309 1228 531 
z
" transform="scale(0.015625)"/>
       </defs>
       <use xlink:href="#DejaVuSans-32"/>
       <use xlink:href="#DejaVuSans-30" transform="translate(63.623047 0)"/>
       <use xlink:href="#DejaVuSans-30" transform="translate(127.246094 0)"/>
       <use xlink:href="#DejaVuSans-30" transform="translate(190.869141 0)"/>
      </g>
     </g>
    </g>
    <g id="xtick_6">
     <g id="line2d_6">
      <g>
       <use xlink:href="#m695352287a" x="337.666705" y="277.478125" style="stroke: #000000; stroke-width: 0.8"/>
      </g>
     </g>
     <g id="text_6">
      <!-- 2500 -->
      <g transform="translate(324.941705 292.076563) scale(0.1 -0.1)">
       <use xlink:href="#DejaVuSans-32"/>
       <use xlink:href="#DejaVuSans-35" transform="translate(63.623047 0)"/>
       <use xlink:href="#DejaVuSans-30" transform="translate(127.246094 0)"/>
       <use xlink:href="#DejaVuSans-30" transform="translate(190.869141 0)"/>
      </g>
     </g>
    </g>
    <g id="xtick_7">
     <g id="line2d_7">
      <g>
       <use xlink:href="#m695352287a" x="392.393977" y="277.478125" style="stroke: #000000; stroke-width: 0.8"/>
      </g>
     </g>
     <g id="text_7">
      <!-- 3000 -->
      <g transform="translate(379.668977 292.076563) scale(0.1 -0.1)">
       <defs>
        <path id="DejaVuSans-33" d="M 2597 2516 
Q 3050 2419 3304 2112 
Q 3559 1806 3559 1356 
Q 3559 666 3084 287 
Q 2609 -91 1734 -91 
Q 1441 -91 1130 -33 
Q 819 25 488 141 
L 488 750 
Q 750 597 1062 519 
Q 1375 441 1716 441 
Q 2309 441 2620 675 
Q 2931 909 2931 1356 
Q 2931 1769 2642 2001 
Q 2353 2234 1838 2234 
L 1294 2234 
L 1294 2753 
L 1863 2753 
Q 2328 2753 2575 2939 
Q 2822 3125 2822 3475 
Q 2822 3834 2567 4026 
Q 2313 4219 1838 4219 
Q 1578 4219 1281 4162 
Q 984 4106 628 3988 
L 628 4550 
Q 988 4650 1302 4700 
Q 1616 4750 1894 4750 
Q 2613 4750 3031 4423 
Q 3450 4097 3450 3541 
Q 3450 3153 3228 2886 
Q 3006 2619 2597 2516 
z
" transform="scale(0.015625)"/>
       </defs>
       <use xlink:href="#DejaVuSans-33"/>
       <use xlink:href="#DejaVuSans-30" transform="translate(63.623047 0)"/>
       <use xlink:href="#DejaVuSans-30" transform="translate(127.246094 0)"/>
       <use xlink:href="#DejaVuSans-30" transform="translate(190.869141 0)"/>
      </g>
     </g>
    </g>
    <g id="xtick_8">
     <g id="line2d_8">
      <g>
       <use xlink:href="#m695352287a" x="447.12125" y="277.478125" style="stroke: #000000; stroke-width: 0.8"/>
      </g>
     </g>
     <g id="text_8">
      <!-- 3500 -->
      <g transform="translate(434.39625 292.076563) scale(0.1 -0.1)">
       <use xlink:href="#DejaVuSans-33"/>
       <use xlink:href="#DejaVuSans-35" transform="translate(63.623047 0)"/>
       <use xlink:href="#DejaVuSans-30" transform="translate(127.246094 0)"/>
       <use xlink:href="#DejaVuSans-30" transform="translate(190.869141 0)"/>
      </g>
     </g>
    </g>
    <g id="text_9">
     <!-- training step -->
     <g transform="translate(234.747031 305.754687) scale(0.1 -0.1)">
      <defs>
       <path id="DejaVuSans-74" d="M 1172 4494 
L 1172 3500 
L 2356 3500 
L 2356 3053 
L 1172 3053 
L 1172 1153 
Q 1172 725 1289 603 
Q 1406 481 1766 481 
L 2356 481 
L 2356 0 
L 1766 0 
Q 1100 0 847 248 
Q 594 497 594 1153 
L 594 3053 
L 172 3053 
L 172 3500 
L 594 3500 
L 594 4494 
L 1172 4494 
z
" transform="scale(0.015625)"/>
       <path id="DejaVuSans-72" d="M 2631 2963 
Q 2534 3019 2420 3045 
Q 2306 3072 2169 3072 
Q 1681 3072 1420 2755 
Q 1159 2438 1159 1844 
L 1159 0 
L 581 0 
L 581 3500 
L 1159 3500 
L 1159 2956 
Q 1341 3275 1631 3429 
Q 1922 3584 2338 3584 
Q 2397 3584 2469 3576 
Q 2541 3569 2628 3553 
L 2631 2963 
z
" transform="scale(0.015625)"/>
       <path id="DejaVuSans-61" d="M 2194 1759 
Q 1497 1759 1228 1600 
Q 959 1441 959 1056 
Q 959 750 1161 570 
Q 1363 391 1709 391 
Q 2188 391 2477 730 
Q 2766 1069 2766 1631 
L 2766 1759 
L 2194 1759 
z
M 3341 1997 
L 3341 0 
L 2766 0 
L 2766 531 
Q 2569 213 2275 61 
Q 1981 -91 1556 -91 
Q 1019 -91 701 211 
Q 384 513 384 1019 
Q 384 1609 779 1909 
Q 1175 2209 1959 2209 
L 2766 2209 
L 2766 2266 
Q 2766 2663 2505 2880 
Q 2244 3097 1772 3097 
Q 1472 3097 1187 3025 
Q 903 2953 641 2809 
L 641 3341 
Q 956 3463 1253 3523 
Q 1550 3584 1831 3584 
Q 2591 3584 2966 3190 
Q 3341 2797 3341 1997 
z
" transform="scale(0.015625)"/>
       <path id="DejaVuSans-69" d="M 603 3500 
L 1178 3500 
L 1178 0 
L 603 0 
L 603 3500 
z
M 603 4863 
L 1178 4863 
L 1178 4134 
L 603 4134 
L 603 4863 
z
" transform="scale(0.015625)"/>
       <path id="DejaVuSans-6e" d="M 3513 2113 
L 3513 0 
L 2938 0 
L 2938 2094 
Q 2938 2591 2744 2837 
Q 2550 3084 2163 3084 
Q 1697 3084 1428 2787 
Q 1159 2491 1159 1978 
L 1159 0 
L 581 0 
L 581 3500 
L 1159 3500 
L 1159 2956 
Q 1366 3272 1645 3428 
Q 1925 3584 2291 3584 
Q 2894 3584 3203 3211 
Q 3513 2838 3513 2113 
z
" transform="scale(0.015625)"/>
       <path id="DejaVuSans-67" d="M 2906 1791 
Q 2906 2416 2648 2759 
Q 2391 3103 1925 3103 
Q 1463 3103 1205 2759 
Q 947 2416 947 1791 
Q 947 1169 1205 825 
Q 1463 481 1925 481 
Q 2391 481 2648 825 
Q 2906 1169 2906 1791 
z
M 3481 434 
Q 3481 -459 3084 -895 
Q 2688 -1331 1869 -1331 
Q 1566 -1331 1297 -1286 
Q 1028 -1241 775 -1147 
L 775 -588 
Q 1028 -725 1275 -790 
Q 1522 -856 1778 -856 
Q 2344 -856 2625 -561 
Q 2906 -266 2906 331 
L 2906 616 
Q 2728 306 2450 153 
Q 2172 0 1784 0 
Q 1141 0 747 490 
Q 353 981 353 1791 
Q 353 2603 747 3093 
Q 1141 3584 1784 3584 
Q 2172 3584 2450 3431 
Q 2728 3278 2906 2969 
L 2906 3500 
L 3481 3500 
L 3481 434 
z
" transform="scale(0.015625)"/>
       <path id="DejaVuSans-20" transform="scale(0.015625)"/>
       <path id="DejaVuSans-73" d="M 2834 3397 
L 2834 2853 
Q 2591 2978 2328 3040 
Q 2066 3103 1784 3103 
Q 1356 3103 1142 2972 
Q 928 2841 928 2578 
Q 928 2378 1081 2264 
Q 1234 2150 1697 2047 
L 1894 2003 
Q 2506 1872 2764 1633 
Q 3022 1394 3022 966 
Q 3022 478 2636 193 
Q 2250 -91 1575 -91 
Q 1294 -91 989 -36 
Q 684 19 347 128 
L 347 722 
Q 666 556 975 473 
Q 1284 391 1588 391 
Q 1994 391 2212 530 
Q 2431 669 2431 922 
Q 2431 1156 2273 1281 
Q 2116 1406 1581 1522 
L 1381 1569 
Q 847 1681 609 1914 
Q 372 2147 372 2553 
Q 372 3047 722 3315 
Q 1072 3584 1716 3584 
Q 2034 3584 2315 3537 
Q 2597 3491 2834 3397 
z
" transform="scale(0.015625)"/>
       <path id="DejaVuSans-65" d="M 3597 1894 
L 3597 1613 
L 953 1613 
Q 991 1019 1311 708 
Q 1631 397 2203 397 
Q 2534 397 2845 478 
Q 3156 559 3463 722 
L 3463 178 
Q 3153 47 2828 -22 
Q 2503 -91 2169 -91 
Q 1331 -91 842 396 
Q 353 884 353 1716 
Q 353 2575 817 3079 
Q 1281 3584 2069 3584 
Q 2775 3584 3186 3129 
Q 3597 2675 3597 1894 
z
M 3022 2063 
Q 3016 2534 2758 2815 
Q 2500 3097 2075 3097 
Q 1594 3097 1305 2825 
Q 1016 2553 972 2059 
L 3022 2063 
z
" transform="scale(0.015625)"/>
       <path id="DejaVuSans-70" d="M 1159 525 
L 1159 -1331 
L 581 -1331 
L 581 3500 
L 1159 3500 
L 1159 2969 
Q 1341 3281 1617 3432 
Q 1894 3584 2278 3584 
Q 2916 3584 3314 3078 
Q 3713 2572 3713 1747 
Q 3713 922 3314 415 
Q 2916 -91 2278 -91 
Q 1894 -91 1617 61 
Q 1341 213 1159 525 
z
M 3116 1747 
Q 3116 2381 2855 2742 
Q 2594 3103 2138 3103 
Q 1681 3103 1420 2742 
Q 1159 2381 1159 1747 
Q 1159 1113 1420 752 
Q 1681 391 2138 391 
Q 2594 391 2855 752 
Q 3116 1113 3116 1747 
z
" transform="scale(0.015625)"/>
      </defs>
      <use xlink:href="#DejaVuSans-74"/>
      <use xlink:href="#DejaVuSans-72" transform="translate(39.208984 0)"/>
      <use xlink:href="#DejaVuSans-61" transform="translate(80.322266 0)"/>
      <use xlink:href="#DejaVuSans-69" transform="translate(141.601562 0)"/>
      <use xlink:href="#DejaVuSans-6e" transform="translate(169.384766 0)"/>
      <use xlink:href="#DejaVuSans-69" transform="translate(232.763672 0)"/>
      <use xlink:href="#DejaVuSans-6e" transform="translate(260.546875 0)"/>
      <use xlink:href="#DejaVuSans-67" transform="translate(323.925781 0)"/>
      <use xlink:href="#DejaVuSans-20" transform="translate(387.402344 0)"/>
      <use xlink:href="#DejaVuSans-73" transform="translate(419.189453 0)"/>
      <use xlink:href="#DejaVuSans-74" transform="translate(471.289062 0)"/>
      <use xlink:href="#DejaVuSans-65" transform="translate(510.498047 0)"/>
      <use xlink:href="#DejaVuSans-70" transform="translate(572.021484 0)"/>
     </g>
    </g>
   </g>
   <g id="matplotlib.axis_2">
    <g id="ytick_1">
     <g id="line2d_9">
      <defs>
       <path id="m6dc6c6d54c" d="M 0 0 
L -3.5 0 
" style="stroke: #000000; stroke-width: 0.8"/>
      </defs>
      <g>
       <use xlink:href="#m6dc6c6d54c" x="43.78125" y="255.095669" style="stroke: #000000; stroke-width: 0.8"/>
      </g>
     </g>
     <g id="text_10">
      <!-- 0.5 -->
      <g transform="translate(20.878125 258.894888) scale(0.1 -0.1)">
       <defs>
        <path id="DejaVuSans-2e" d="M 684 794 
L 1344 794 
L 1344 0 
L 684 0 
L 684 794 
z
" transform="scale(0.015625)"/>
       </defs>
       <use xlink:href="#DejaVuSans-30"/>
       <use xlink:href="#DejaVuSans-2e" transform="translate(63.623047 0)"/>
       <use xlink:href="#DejaVuSans-35" transform="translate(95.410156 0)"/>
      </g>
     </g>
    </g>
    <g id="ytick_2">
     <g id="line2d_10">
      <g>
       <use xlink:href="#m6dc6c6d54c" x="43.78125" y="210.330757" style="stroke: #000000; stroke-width: 0.8"/>
      </g>
     </g>
     <g id="text_11">
      <!-- 0.6 -->
      <g transform="translate(20.878125 214.129975) scale(0.1 -0.1)">
       <defs>
        <path id="DejaVuSans-36" d="M 2113 2584 
Q 1688 2584 1439 2293 
Q 1191 2003 1191 1497 
Q 1191 994 1439 701 
Q 1688 409 2113 409 
Q 2538 409 2786 701 
Q 3034 994 3034 1497 
Q 3034 2003 2786 2293 
Q 2538 2584 2113 2584 
z
M 3366 4563 
L 3366 3988 
Q 3128 4100 2886 4159 
Q 2644 4219 2406 4219 
Q 1781 4219 1451 3797 
Q 1122 3375 1075 2522 
Q 1259 2794 1537 2939 
Q 1816 3084 2150 3084 
Q 2853 3084 3261 2657 
Q 3669 2231 3669 1497 
Q 3669 778 3244 343 
Q 2819 -91 2113 -91 
Q 1303 -91 875 529 
Q 447 1150 447 2328 
Q 447 3434 972 4092 
Q 1497 4750 2381 4750 
Q 2619 4750 2861 4703 
Q 3103 4656 3366 4563 
z
" transform="scale(0.015625)"/>
       </defs>
       <use xlink:href="#DejaVuSans-30"/>
       <use xlink:href="#DejaVuSans-2e" transform="translate(63.623047 0)"/>
       <use xlink:href="#DejaVuSans-36" transform="translate(95.410156 0)"/>
      </g>
     </g>
    </g>
    <g id="ytick_3">
     <g id="line2d_11">
      <g>
       <use xlink:href="#m6dc6c6d54c" x="43.78125" y="165.565844" style="stroke: #000000; stroke-width: 0.8"/>
      </g>
     </g>
     <g id="text_12">
      <!-- 0.7 -->
      <g transform="translate(20.878125 169.365063) scale(0.1 -0.1)">
       <defs>
        <path id="DejaVuSans-37" d="M 525 4666 
L 3525 4666 
L 3525 4397 
L 1831 0 
L 1172 0 
L 2766 4134 
L 525 4134 
L 525 4666 
z
" transform="scale(0.015625)"/>
       </defs>
       <use xlink:href="#DejaVuSans-30"/>
       <use xlink:href="#DejaVuSans-2e" transform="translate(63.623047 0)"/>
       <use xlink:href="#DejaVuSans-37" transform="translate(95.410156 0)"/>
      </g>
     </g>
    </g>
    <g id="ytick_4">
     <g id="line2d_12">
      <g>
       <use xlink:href="#m6dc6c6d54c" x="43.78125" y="120.800932" style="stroke: #000000; stroke-width: 0.8"/>
      </g>
     </g>
     <g id="text_13">
      <!-- 0.8 -->
      <g transform="translate(20.878125 124.600151) scale(0.1 -0.1)">
       <defs>
        <path id="DejaVuSans-38" d="M 2034 2216 
Q 1584 2216 1326 1975 
Q 1069 1734 1069 1313 
Q 1069 891 1326 650 
Q 1584 409 2034 409 
Q 2484 409 2743 651 
Q 3003 894 3003 1313 
Q 3003 1734 2745 1975 
Q 2488 2216 2034 2216 
z
M 1403 2484 
Q 997 2584 770 2862 
Q 544 3141 544 3541 
Q 544 4100 942 4425 
Q 1341 4750 2034 4750 
Q 2731 4750 3128 4425 
Q 3525 4100 3525 3541 
Q 3525 3141 3298 2862 
Q 3072 2584 2669 2484 
Q 3125 2378 3379 2068 
Q 3634 1759 3634 1313 
Q 3634 634 3220 271 
Q 2806 -91 2034 -91 
Q 1263 -91 848 271 
Q 434 634 434 1313 
Q 434 1759 690 2068 
Q 947 2378 1403 2484 
z
M 1172 3481 
Q 1172 3119 1398 2916 
Q 1625 2713 2034 2713 
Q 2441 2713 2670 2916 
Q 2900 3119 2900 3481 
Q 2900 3844 2670 4047 
Q 2441 4250 2034 4250 
Q 1625 4250 1398 4047 
Q 1172 3844 1172 3481 
z
" transform="scale(0.015625)"/>
       </defs>
       <use xlink:href="#DejaVuSans-30"/>
       <use xlink:href="#DejaVuSans-2e" transform="translate(63.623047 0)"/>
       <use xlink:href="#DejaVuSans-38" transform="translate(95.410156 0)"/>
      </g>
     </g>
    </g>
    <g id="ytick_5">
     <g id="line2d_13">
      <g>
       <use xlink:href="#m6dc6c6d54c" x="43.78125" y="76.03602" style="stroke: #000000; stroke-width: 0.8"/>
      </g>
     </g>
     <g id="text_14">
      <!-- 0.9 -->
      <g transform="translate(20.878125 79.835238) scale(0.1 -0.1)">
       <defs>
        <path id="DejaVuSans-39" d="M 703 97 
L 703 672 
Q 941 559 1184 500 
Q 1428 441 1663 441 
Q 2288 441 2617 861 
Q 2947 1281 2994 2138 
Q 2813 1869 2534 1725 
Q 2256 1581 1919 1581 
Q 1219 1581 811 2004 
Q 403 2428 403 3163 
Q 403 3881 828 4315 
Q 1253 4750 1959 4750 
Q 2769 4750 3195 4129 
Q 3622 3509 3622 2328 
Q 3622 1225 3098 567 
Q 2575 -91 1691 -91 
Q 1453 -91 1209 -44 
Q 966 3 703 97 
z
M 1959 2075 
Q 2384 2075 2632 2365 
Q 2881 2656 2881 3163 
Q 2881 3666 2632 3958 
Q 2384 4250 1959 4250 
Q 1534 4250 1286 3958 
Q 1038 3666 1038 3163 
Q 1038 2656 1286 2365 
Q 1534 2075 1959 2075 
z
" transform="scale(0.015625)"/>
       </defs>
       <use xlink:href="#DejaVuSans-30"/>
       <use xlink:href="#DejaVuSans-2e" transform="translate(63.623047 0)"/>
       <use xlink:href="#DejaVuSans-39" transform="translate(95.410156 0)"/>
      </g>
     </g>
    </g>
    <g id="ytick_6">
     <g id="line2d_14">
      <g>
       <use xlink:href="#m6dc6c6d54c" x="43.78125" y="31.271107" style="stroke: #000000; stroke-width: 0.8"/>
      </g>
     </g>
     <g id="text_15">
      <!-- 1.0 -->
      <g transform="translate(20.878125 35.070326) scale(0.1 -0.1)">
       <use xlink:href="#DejaVuSans-31"/>
       <use xlink:href="#DejaVuSans-2e" transform="translate(63.623047 0)"/>
       <use xlink:href="#DejaVuSans-30" transform="translate(95.410156 0)"/>
      </g>
     </g>
    </g>
    <g id="text_16">
     <!-- accuracy (held-out) -->
     <g transform="translate(14.798438 198.842656) rotate(-90) scale(0.1 -0.1)">
      <defs>
       <path id="DejaVuSans-63" d="M 3122 3366 
L 3122 2828 
Q 2878 2963 2633 3030 
Q 2388 3097 2138 3097 
Q 1578 3097 1268 2742 
Q 959 2388 959 1747 
Q 959 1106 1268 751 
Q 1578 397 2138 397 
Q 2388 397 2633 464 
Q 2878 531 3122 666 
L 3122 134 
Q 2881 22 2623 -34 
Q 2366 -91 2075 -91 
Q 1284 -91 818 406 
Q 353 903 353 1747 
Q 353 2603 823 3093 
Q 1294 3584 2113 3584 
Q 2378 3584 2631 3529 
Q 2884 3475 3122 3366 
z
" transform="scale(0.015625)"/>
       <path id="DejaVuSans-75" d="M 544 1381 
L 544 3500 
L 1119 3500 
L 1119 1403 
Q 1119 906 1312 657 
Q 1506 409 1894 409 
Q 2359 409 2629 706 
Q 2900 1003 2900 1516 
L 2900 3500 
L 3475 3500 
L 3475 0 
L 2900 0 
L 2900 538 
Q 2691 219 2414 64 
Q 2138 -91 1772 -91 
Q 1169 -91 856 284 
Q 544 659 544 1381 
z
M 1991 3584 
L 1991 3584 
z
" transform="scale(0.015625)"/>
       <path id="DejaVuSans-79" d="M 2059 -325 
Q 1816 -950 1584 -1140 
Q 1353 -1331 966 -1331 
L 506 -1331 
L 506 -850 
L 844 -850 
Q 1081 -850 1212 -737 
Q 1344 -625 1503 -206 
L 1606 56 
L 191 3500 
L 800 3500 
L 1894 763 
L 2988 3500 
L 3597 3500 
L 2059 -325 
z
" transform="scale(0.015625)"/>
       <path id="DejaVuSans-28" d="M 1984 4856 
Q 1566 4138 1362 3434 
Q 1159 2731 1159 2009 
Q 1159 1288 1364 580 
Q 1569 -128 1984 -844 
L 1484 -844 
Q 1016 -109 783 600 
Q 550 1309 550 2009 
Q 550 2706 781 3412 
Q 1013 4119 1484 4856 
L 1984 4856 
z
" transform="scale(0.015625)"/>
       <path id="DejaVuSans-68" d="M 3513 2113 
L 3513 0 
L 2938 0 
L 2938 2094 
Q 2938 2591 2744 2837 
Q 2550 3084 2163 3084 
Q 1697 3084 1428 2787 
Q 1159 2491 1159 1978 
L 1159 0 
L 581 0 
L 581 4863 
L 1159 4863 
L 1159 2956 
Q 1366 3272 1645 3428 
Q 1925 3584 2291 3584 
Q 2894 3584 3203 3211 
Q 3513 2838 3513 2113 
z
" transform="scale(0.015625)"/>
       <path id="DejaVuSans-6c" d="M 603 4863 
L 1178 4863 
L 1178 0 
L 603 0 
L 603 4863 
z
" transform="scale(0.015625)"/>
       <path id="DejaVuSans-64" d="M 2906 2969 
L 2906 4863 
L 3481 4863 
L 3481 0 
L 2906 0 
L 2906 525 
Q 2725 213 2448 61 
Q 2172 -91 1784 -91 
Q 1150 -91 751 415 
Q 353 922 353 1747 
Q 353 2572 751 3078 
Q 1150 3584 1784 3584 
Q 2172 3584 2448 3432 
Q 2725 3281 2906 2969 
z
M 947 1747 
Q 947 1113 1208 752 
Q 1469 391 1925 391 
Q 2381 391 2643 752 
Q 2906 1113 2906 1747 
Q 2906 2381 2643 2742 
Q 2381 3103 1925 3103 
Q 1469 3103 1208 2742 
Q 947 2381 947 1747 
z
" transform="scale(0.015625)"/>
       <path id="DejaVuSans-2d" d="M 313 2009 
L 1997 2009 
L 1997 1497 
L 313 1497 
L 313 2009 
z
" transform="scale(0.015625)"/>
       <path id="DejaVuSans-6f" d="M 1959 3097 
Q 1497 3097 1228 2736 
Q 959 2375 959 1747 
Q 959 1119 1226 758 
Q 1494 397 1959 397 
Q 2419 397 2687 759 
Q 2956 1122 2956 1747 
Q 2956 2369 2687 2733 
Q 2419 3097 1959 3097 
z
M 1959 3584 
Q 2709 3584 3137 3096 
Q 3566 2609 3566 1747 
Q 3566 888 3137 398 
Q 2709 -91 1959 -91 
Q 1206 -91 779 398 
Q 353 888 353 1747 
Q 353 2609 779 3096 
Q 1206 3584 1959 3584 
z
" transform="scale(0.015625)"/>
       <path id="DejaVuSans-29" d="M 513 4856 
L 1013 4856 
Q 1481 4119 1714 3412 
Q 1947 2706 1947 2009 
Q 1947 1309 1714 600 
Q 1481 -109 1013 -844 
L 513 -844 
Q 928 -128 1133 580 
Q 1338 1288 1338 2009 
Q 1338 2731 1133 3434 
Q 928 4138 513 4856 
z
" transform="scale(0.015625)"/>
      </defs>
      <use xlink:href="#DejaVuSans-61"/>
      <use xlink:href="#DejaVuSans-63" transform="translate(61.279297 0)"/>
      <use xlink:href="#DejaVuSans-63" transform="translate(116.259766 0)"/>
      <use xlink:href="#DejaVuSans-75" transform="translate(171.240234 0)"/>
      <use xlink:href="#DejaVuSans-72" transform="translate(234.619141 0)"/>
      <use xlink:href="#DejaVuSans-61" transform="translate(275.732422 0)"/>
      <use xlink:href="#DejaVuSans-63" transform="translate(337.011719 0)"/>
      <use xlink:href="#DejaVuSans-79" transform="translate(391.992188 0)"/>
      <use xlink:href="#DejaVuSans-20" transform="translate(451.171875 0)"/>
      <use xlink:href="#DejaVuSans-28" transform="translate(482.958984 0)"/>
      <use xlink:href="#DejaVuSans-68" transform="translate(521.972656 0)"/>
      <use xlink:href="#DejaVuSans-65" transform="translate(585.351562 0)"/>
      <use xlink:href="#DejaVuSans-6c" transform="translate(646.875 0)"/>
      <use xlink:href="#DejaVuSans-64" transform="translate(674.658203 0)"/>
      <use xlink:href="#DejaVuSans-2d" transform="translate(738.134766 0)"/>
      <use xlink:href="#DejaVuSans-6f" transform="translate(776.09375 0)"/>
      <use xlink:href="#DejaVuSans-75" transform="translate(837.275391 0)"/>
      <use xlink:href="#DejaVuSans-74" transform="translate(900.654297 0)"/>
      <use xlink:href="#DejaVuSans-29" transform="translate(939.863281 0)"/>
     </g>
    </g>
   </g>
   <g id="line2d_15">
    <path d="M 64.030341 252.937204 
L 74.975795 58.292896 
L 85.92125 32.391323 
L 96.866705 31.735587 
L 107.812159 31.762909 
L 118.757614 31.353074 
L 129.703068 31.325752 
L 140.648523 31.353074 
L 151.593977 31.325752 
L 162.539432 31.29843 
L 173.484886 31.462364 
L 184.430341 31.271107 
L 195.375795 31.325752 
L 206.32125 31.380397 
L 217.266705 31.325752 
L 228.212159 31.29843 
L 239.157614 31.271107 
L 250.103068 31.29843 
L 261.048523 31.271107 
L 271.993977 31.271107 
L 282.939432 31.271107 
L 293.884886 31.462364 
L 304.830341 31.271107 
L 315.775795 31.29843 
L 326.72125 31.271107 
" clip-path="url(#p34bf75c437)" style="fill: none; stroke: #000000; stroke-width: 1.5; stroke-linecap: square"/>
    <defs>
     <path id="me3faf8f15e" d="M 0 1.5 
C 0.397805 1.5 0.77937 1.341951 1.06066 1.06066 
C 1.341951 0.77937 1.5 0.397805 1.5 0 
C 1.5 -0.397805 1.341951 -0.77937 1.06066 -1.06066 
C 0.77937 -1.341951 0.397805 -1.5 0 -1.5 
C -0.397805 -1.5 -0.77937 -1.341951 -1.06066 -1.06066 
C -1.341951 -0.77937 -1.5 -0.397805 -1.5 0 
C -1.5 0.397805 -1.341951 0.77937 -1.06066 1.06066 
C -0.77937 1.341951 -0.397805 1.5 0 1.5 
z
" style="stroke: #000000"/>
    </defs>
    <g clip-path="url(#p34bf75c437)">
     <use xlink:href="#me3faf8f15e" x="64.030341" y="252.937204" style="stroke: #000000"/>
     <use xlink:href="#me3faf8f15e" x="74.975795" y="58.292896" style="stroke: #000000"/>
     <use xlink:href="#me3faf8f15e" x="85.92125" y="32.391323" style="stroke: #000000"/>
     <use xlink:href="#me3faf8f15e" x="96.866705" y="31.735587" style="stroke: #000000"/>
     <use xlink:href="#me3faf8f15e" x="107.812159" y="31.762909" style="stroke: #000000"/>
     <use xlink:href="#me3faf8f15e" x="118.757614" y="31.353074" style="stroke: #000000"/>
     <use xlink:href="#me3faf8f15e" x="129.703068" y="31.325752" style="stroke: #000000"/>
     <use xlink:href="#me3faf8f15e" x="140.648523" y="31.353074" style="stroke: #000000"/>
     <use xlink:href="#me3faf8f15e" x="151.593977" y="31.325752" style="stroke: #000000"/>
     <use xlink:href="#me3faf8f15e" x="162.539432" y="31.29843" style="stroke: #000000"/>
     <use xlink:href="#me3faf8f15e" x="173.484886" y="31.462364" style="stroke: #000000"/>
     <use xlink:href="#me3faf8f15e" x="184.430341" y="31.271107" style="stroke: #000000"/>
     <use xlink:href="#me3faf8f15e" x="195.375795" y="31.325752" style="stroke: #000000"/>
     <use xlink:href="#me3faf8f15e" x="206.32125" y="31.380397" style="stroke: #000000"/>
     <use xlink:href="#me3faf8f15e" x="217.266705" y="31.325752" style="stroke: #000000"/>
     <use xlink:href="#me3faf8f15e" x="228.212159" y="31.29843" style="stroke: #000000"/>
     <use xlink:href="#me3faf8f15e" x="239.157614" y="31.271107" style="stroke: #000000"/>
     <use xlink:href="#me3faf8f15e" x="250.103068" y="31.29843" style="stroke: #000000"/>
     <use xlink:href="#me3faf8f15e" x="261.048523" y="31.271107" style="stroke: #000000"/>
     <use xlink:href="#me3faf8f15e" x="271.993977" y="31.271107" style="stroke: #000000"/>
     <use xlink:href="#me3faf8f15e" x="282.939432" y="31.271107" style="stroke: #000000"/>
     <use xlink:href="#me3faf8f15e" x="293.884886" y="31.462364" style="stroke: #000000"/>
     <use xlink:href="#me3faf8f15e" x="304.830341" y="31.271107" style="stroke: #000000"/>
     <use xlink:href="#me3faf8f15e" x="315.775795" y="31.29843" style="stroke: #000000"/>
     <use xlink:href="#me3faf8f15e" x="326.72125" y="31.271107" style="stroke: #000000"/>
    </g>
   </g>
   <g id="line2d_16">
    <path d="M 64.030341 252.937204 
L 74.975795 140.915634 
L 85.92125 84.822882 
L 96.866705 70.342045 
L 107.812159 48.402211 
L 118.757614 38.894039 
L 129.703068 34.440498 
L 140.648523 32.609902 
L 151.593977 32.254711 
L 162.539432 35.533392 
L 173.484886 32.227389 
L 184.430341 31.762909 
L 195.375795 31.954166 
L 206.32125 31.489686 
L 217.266705 31.435041 
L 228.212159 31.462364 
L 239.157614 31.462364 
L 250.103068 31.407719 
L 261.048523 31.762909 
L 271.993977 31.954166 
L 282.939432 31.462364 
L 293.884886 31.462364 
L 304.830341 31.435041 
L 315.775795 31.333559 
L 326.72125 31.307537 
L 337.666705 31.533402 
L 348.612159 31.271107 
L 359.557614 31.271107 
L 370.503068 31.708265 
" clip-path="url(#p34bf75c437)" style="fill: none; stroke: #1f77b4; stroke-width: 1.5; stroke-linecap: square"/>
    <defs>
     <path id="mb6672ae97a" d="M 0 1.5 
C 0.397805 1.5 0.77937 1.341951 1.06066 1.06066 
C 1.341951 0.77937 1.5 0.397805 1.5 0 
C 1.5 -0.397805 1.341951 -0.77937 1.06066 -1.06066 
C 0.77937 -1.341951 0.397805 -1.5 0 -1.5 
C -0.397805 -1.5 -0.77937 -1.341951 -1.06066 -1.06066 
C -1.341951 -0.77937 -1.5 -0.397805 -1.5 0 
C -1.5 0.397805 -1.341951 0.77937 -1.06066 1.06066 
C -0.77937 1.341951 -0.397805 1.5 0 1.5 
z
" style="stroke: #1f77b4"/>
    </defs>
    <g clip-path="url(#p34bf75c437)">
     <use xlink:href="#mb6672ae97a" x="64.030341" y="252.937204" style="fill: #1f77b4; stroke: #1f77b4"/>
     <use xlink:href="#mb6672ae97a" x="74.975795" y="140.915634" style="fill: #1f77b4; stroke: #1f77b4"/>
     <use xlink:href="#mb6672ae97a" x="85.92125" y="84.822882" style="fill: #1f77b4; stroke: #1f77b4"/>
     <use xlink:href="#mb6672ae97a" x="96.866705" y="70.342045" style="fill: #1f77b4; stroke: #1f77b4"/>
     <use xlink:href="#mb6672ae97a" x="107.812159" y="48.402211" style="fill: #1f77b4; stroke: #1f77b4"/>
     <use xlink:href="#mb6672ae97a" x="118.757614" y="38.894039" style="fill: #1f77b4; stroke: #1f77b4"/>
     <use xlink:href="#mb6672ae97a" x="129.703068" y="34.440498" style="fill: #1f77b4; stroke: #1f77b4"/>
     <use xlink:href="#mb6672ae97a" x="140.648523" y="32.609902" style="fill: #1f77b4; stroke: #1f77b4"/>
     <use xlink:href="#mb6672ae97a" x="151.593977" y="32.254711" style="fill: #1f77b4; stroke: #1f77b4"/>
     <use xlink:href="#mb6672ae97a" x="162.539432" y="35.533392" style="fill: #1f77b4; stroke: #1f77b4"/>
     <use xlink:href="#mb6672ae97a" x="173.484886" y="32.227389" style="fill: #1f77b4; stroke: #1f77b4"/>
     <use xlink:href="#mb6672ae97a" x="184.430341" y="31.762909" style="fill: #1f77b4; stroke: #1f77b4"/>
     <use xlink:href="#mb6672ae97a" x="195.375795" y="31.954166" style="fill: #1f77b4; stroke: #1f77b4"/>
     <use xlink:href="#mb6672ae97a" x="206.32125" y="31.489686" style="fill: #1f77b4; stroke: #1f77b4"/>
     <use xlink:href="#mb6672ae97a" x="217.266705" y="31.435041" style="fill: #1f77b4; stroke: #1f77b4"/>
     <use xlink:href="#mb6672ae97a" x="228.212159" y="31.462364" style="fill: #1f77b4; stroke: #1f77b4"/>
     <use xlink:href="#mb6672ae97a" x="239.157614" y="31.462364" style="fill: #1f77b4; stroke: #1f77b4"/>
     <use xlink:href="#mb6672ae97a" x="250.103068" y="31.407719" style="fill: #1f77b4; stroke: #1f77b4"/>
     <use xlink:href="#mb6672ae97a" x="261.048523" y="31.762909" style="fill: #1f77b4; stroke: #1f77b4"/>
     <use xlink:href="#mb6672ae97a" x="271.993977" y="31.954166" style="fill: #1f77b4; stroke: #1f77b4"/>
     <use xlink:href="#mb6672ae97a" x="282.939432" y="31.462364" style="fill: #1f77b4; stroke: #1f77b4"/>
     <use xlink:href="#mb6672ae97a" x="293.884886" y="31.462364" style="fill: #1f77b4; stroke: #1f77b4"/>
     <use xlink:href="#mb6672ae97a" x="304.830341" y="31.435041" style="fill: #1f77b4; stroke: #1f77b4"/>
     <use xlink:href="#mb6672ae97a" x="315.775795" y="31.333559" style="fill: #1f77b4; stroke: #1f77b4"/>
     <use xlink:href="#mb6672ae97a" x="326.72125" y="31.307537" style="fill: #1f77b4; stroke: #1f77b4"/>
     <use xlink:href="#mb6672ae97a" x="337.666705" y="31.533402" style="fill: #1f77b4; stroke: #1f77b4"/>
     <use xlink:href="#mb6672ae97a" x="348.612159" y="31.271107" style="fill: #1f77b4; stroke: #1f77b4"/>
     <use xlink:href="#mb6672ae97a" x="359.557614" y="31.271107" style="fill: #1f77b4; stroke: #1f77b4"/>
     <use xlink:href="#mb6672ae97a" x="370.503068" y="31.708265" style="fill: #1f77b4; stroke: #1f77b4"/>
    </g>
   </g>
   <g id="line2d_17">
    <path d="M 64.030341 252.937204 
L 74.975795 191.89911 
L 85.92125 161.871865 
L 96.866705 131.571396 
L 107.812159 99.795522 
L 118.757614 72.145319 
L 129.703068 51.954114 
L 140.648523 41.680917 
L 151.593977 37.719178 
L 162.539432 36.899508 
L 173.484886 34.467821 
L 184.430341 34.850333 
L 195.375795 33.620828 
L 206.32125 33.839407 
L 217.266705 32.609902 
L 228.212159 33.238316 
L 239.157614 32.036133 
L 250.103068 32.418645 
L 261.048523 32.282034 
L 271.993977 32.00881 
L 282.939432 32.282034 
L 293.884886 31.762909 
L 304.830341 31.844876 
L 315.775795 37.691856 
L 326.72125 31.981488 
L 337.666705 31.677039 
L 348.612159 31.614588 
L 359.557614 31.671835 
L 370.503068 31.817554 
L 381.448523 31.708265 
" clip-path="url(#p34bf75c437)" style="fill: none; stroke: #d62728; stroke-width: 1.5; stroke-linecap: square"/>
    <defs>
     <path id="mbff4ddf26a" d="M 0 1.5 
C 0.397805 1.5 0.77937 1.341951 1.06066 1.06066 
C 1.341951 0.77937 1.5 0.397805 1.5 0 
C 1.5 -0.397805 1.341951 -0.77937 1.06066 -1.06066 
C 0.77937 -1.341951 0.397805 -1.5 0 -1.5 
C -0.397805 -1.5 -0.77937 -1.341951 -1.06066 -1.06066 
C -1.341951 -0.77937 -1.5 -0.397805 -1.5 0 
C -1.5 0.397805 -1.341951 0.77937 -1.06066 1.06066 
C -0.77937 1.341951 -0.397805 1.5 0 1.5 
z
" style="stroke: #d62728"/>
    </defs>
    <g clip-path="url(#p34bf75c437)">
     <use xlink:href="#mbff4ddf26a" x="64.030341" y="252.937204" style="fill: #d62728; stroke: #d62728"/>
     <use xlink:href="#mbff4ddf26a" x="74.975795" y="191.89911" style="fill: #d62728; stroke: #d62728"/>
     <use xlink:href="#mbff4ddf26a" x="85.92125" y="161.871865" style="fill: #d62728; stroke: #d62728"/>
     <use xlink:href="#mbff4ddf26a" x="96.866705" y="131.571396" style="fill: #d62728; stroke: #d62728"/>
     <use xlink:href="#mbff4ddf26a" x="107.812159" y="99.795522" style="fill: #d62728; stroke: #d62728"/>
     <use xlink:href="#mbff4ddf26a" x="118.757614" y="72.145319" style="fill: #d62728; stroke: #d62728"/>
     <use xlink:href="#mbff4ddf26a" x="129.703068" y="51.954114" style="fill: #d62728; stroke: #d62728"/>
     <use xlink:href="#mbff4ddf26a" x="140.648523" y="41.680917" style="fill: #d62728; stroke: #d62728"/>
     <use xlink:href="#mbff4ddf26a" x="151.593977" y="37.719178" style="fill: #d62728; stroke: #d62728"/>
     <use xlink:href="#mbff4ddf26a" x="162.539432" y="36.899508" style="fill: #d62728; stroke: #d62728"/>
     <use xlink:href="#mbff4ddf26a" x="173.484886" y="34.467821" style="fill: #d62728; stroke: #d62728"/>
     <use xlink:href="#mbff4ddf26a" x="184.430341" y="34.850333" style="fill: #d62728; stroke: #d62728"/>
     <use xlink:href="#mbff4ddf26a" x="195.375795" y="33.620828" style="fill: #d62728; stroke: #d62728"/>
     <use xlink:href="#mbff4ddf26a" x="206.32125" y="33.839407" style="fill: #d62728; stroke: #d62728"/>
     <use xlink:href="#mbff4ddf26a" x="217.266705" y="32.609902" style="fill: #d62728; stroke: #d62728"/>
     <use xlink:href="#mbff4ddf26a" x="228.212159" y="33.238316" style="fill: #d62728; stroke: #d62728"/>
     <use xlink:href="#mbff4ddf26a" x="239.157614" y="32.036133" style="fill: #d62728; stroke: #d62728"/>
     <use xlink:href="#mbff4ddf26a" x="250.103068" y="32.418645" style="fill: #d62728; stroke: #d62728"/>
     <use xlink:href="#mbff4ddf26a" x="261.048523" y="32.282034" style="fill: #d62728; stroke: #d62728"/>
     <use xlink:href="#mbff4ddf26a" x="271.993977" y="32.00881" style="fill: #d62728; stroke: #d62728"/>
     <use xlink:href="#mbff4ddf26a" x="282.939432" y="32.282034" style="fill: #d62728; stroke: #d62728"/>
     <use xlink:href="#mbff4ddf26a" x="293.884886" y="31.762909" style="fill: #d62728; stroke: #d62728"/>
     <use xlink:href="#mbff4ddf26a" x="304.830341" y="31.844876" style="fill: #d62728; stroke: #d62728"/>
     <use xlink:href="#mbff4ddf26a" x="315.775795" y="37.691856" style="fill: #d62728; stroke: #d62728"/>
     <use xlink:href="#mbff4ddf26a" x="326.72125" y="31.981488" style="fill: #d62728; stroke: #d62728"/>
     <use xlink:href="#mbff4ddf26a" x="337.666705" y="31.677039" style="fill: #d62728; stroke: #d62728"/>
     <use xlink:href="#mbff4ddf26a" x="348.612159" y="31.614588" style="fill: #d62728; stroke: #d62728"/>
     <use xlink:href="#mbff4ddf26a" x="359.557614" y="31.671835" style="fill: #d62728; stroke: #d62728"/>
     <use xlink:href="#mbff4ddf26a" x="370.503068" y="31.817554" style="fill: #d62728; stroke: #d62728"/>
     <use xlink:href="#mbff4ddf26a" x="381.448523" y="31.708265" style="fill: #d62728; stroke: #d62728"/>
    </g>
   </g>
   <g id="line2d_18">
    <path d="M 64.030341 252.937204 
L 74.975795 207.855353 
L 85.92125 171.024847 
L 96.866705 130.205279 
L 107.812159 98.83924 
L 118.757614 62.254634 
L 129.703068 49.932262 
L 140.648523 41.626272 
L 151.593977 37.582567 
L 162.539432 35.806615 
L 173.484886 35.096234 
L 184.430341 34.659077 
L 195.375795 34.11263 
L 206.32125 33.948696 
L 217.266705 33.456894 
L 228.212159 33.429572 
L 239.157614 33.183671 
L 250.103068 32.965092 
L 261.048523 32.746514 
L 271.993977 32.719191 
L 282.939432 32.445968 
L 293.884886 32.336678 
L 304.830341 32.364001 
L 315.775795 32.282034 
L 326.72125 32.500612 
L 337.666705 35.506069 
L 348.612159 35.642681 
L 359.557614 31.981488 
L 370.503068 32.43686 
L 381.448523 32.072563 
L 392.393977 32.691869 
L 403.339432 32.364001 
L 414.284886 32.364001 
L 425.230341 32.254711 
L 436.175795 88.429431 
L 447.12125 32.145422 
L 458.066705 31.708265 
L 469.012159 31.708265 
" clip-path="url(#p34bf75c437)" style="fill: none; stroke: #ff7f0e; stroke-width: 1.5; stroke-linecap: square"/>
    <defs>
     <path id="m10d2b6db31" d="M 0 1.5 
C 0.397805 1.5 0.77937 1.341951 1.06066 1.06066 
C 1.341951 0.77937 1.5 0.397805 1.5 0 
C 1.5 -0.397805 1.341951 -0.77937 1.06066 -1.06066 
C 0.77937 -1.341951 0.397805 -1.5 0 -1.5 
C -0.397805 -1.5 -0.77937 -1.341951 -1.06066 -1.06066 
C -1.341951 -0.77937 -1.5 -0.397805 -1.5 0 
C -1.5 0.397805 -1.341951 0.77937 -1.06066 1.06066 
C -0.77937 1.341951 -0.397805 1.5 0 1.5 
z
" style="stroke: #ff7f0e"/>
    </defs>
    <g clip-path="url(#p34bf75c437)">
     <use xlink:href="#m10d2b6db31" x="64.030341" y="252.937204" style="fill: #ff7f0e; stroke: #ff7f0e"/>
     <use xlink:href="#m10d2b6db31" x="74.975795" y="207.855353" style="fill: #ff7f0e; stroke: #ff7f0e"/>
     <use xlink:href="#m10d2b6db31" x="85.92125" y="171.024847" style="fill: #ff7f0e; stroke: #ff7f0e"/>
     <use xlink:href="#m10d2b6db31" x="96.866705" y="130.205279" style="fill: #ff7f0e; stroke: #ff7f0e"/>
     <use xlink:href="#m10d2b6db31" x="107.812159" y="98.83924" style="fill: #ff7f0e; stroke: #ff7f0e"/>
     <use xlink:href="#m10d2b6db31" x="118.757614" y="62.254634" style="fill: #ff7f0e; stroke: #ff7f0e"/>
     <use xlink:href="#m10d2b6db31" x="129.703068" y="49.932262" style="fill: #ff7f0e; stroke: #ff7f0e"/>
     <use xlink:href="#m10d2b6db31" x="140.648523" y="41.626272" style="fill: #ff7f0e; stroke: #ff7f0e"/>
     <use xlink:href="#m10d2b6db31" x="151.593977" y="37.582567" style="fill: #ff7f0e; stroke: #ff7f0e"/>
     <use xlink:href="#m10d2b6db31" x="162.539432" y="35.806615" style="fill: #ff7f0e; stroke: #ff7f0e"/>
     <use xlink:href="#m10d2b6db31" x="173.484886" y="35.096234" style="fill: #ff7f0e; stroke: #ff7f0e"/>
     <use xlink:href="#m10d2b6db31" x="184.430341" y="34.659077" style="fill: #ff7f0e; stroke: #ff7f0e"/>
     <use xlink:href="#m10d2b6db31" x="195.375795" y="34.11263" style="fill: #ff7f0e; stroke: #ff7f0e"/>
     <use xlink:href="#m10d2b6db31" x="206.32125" y="33.948696" style="fill: #ff7f0e; stroke: #ff7f0e"/>
     <use xlink:href="#m10d2b6db31" x="217.266705" y="33.456894" style="fill: #ff7f0e; stroke: #ff7f0e"/>
     <use xlink:href="#m10d2b6db31" x="228.212159" y="33.429572" style="fill: #ff7f0e; stroke: #ff7f0e"/>
     <use xlink:href="#m10d2b6db31" x="239.157614" y="33.183671" style="fill: #ff7f0e; stroke: #ff7f0e"/>
     <use xlink:href="#m10d2b6db31" x="250.103068" y="32.965092" style="fill: #ff7f0e; stroke: #ff7f0e"/>
     <use xlink:href="#m10d2b6db31" x="261.048523" y="32.746514" style="fill: #ff7f0e; stroke: #ff7f0e"/>
     <use xlink:href="#m10d2b6db31" x="271.993977" y="32.719191" style="fill: #ff7f0e; stroke: #ff7f0e"/>
     <use xlink:href="#m10d2b6db31" x="282.939432" y="32.445968" style="fill: #ff7f0e; stroke: #ff7f0e"/>
     <use xlink:href="#m10d2b6db31" x="293.884886" y="32.336678" style="fill: #ff7f0e; stroke: #ff7f0e"/>
     <use xlink:href="#m10d2b6db31" x="304.830341" y="32.364001" style="fill: #ff7f0e; stroke: #ff7f0e"/>
     <use xlink:href="#m10d2b6db31" x="315.775795" y="32.282034" style="fill: #ff7f0e; stroke: #ff7f0e"/>
     <use xlink:href="#m10d2b6db31" x="326.72125" y="32.500612" style="fill: #ff7f0e; stroke: #ff7f0e"/>
     <use xlink:href="#m10d2b6db31" x="337.666705" y="35.506069" style="fill: #ff7f0e; stroke: #ff7f0e"/>
     <use xlink:href="#m10d2b6db31" x="348.612159" y="35.642681" style="fill: #ff7f0e; stroke: #ff7f0e"/>
     <use xlink:href="#m10d2b6db31" x="359.557614" y="31.981488" style="fill: #ff7f0e; stroke: #ff7f0e"/>
     <use xlink:href="#m10d2b6db31" x="370.503068" y="32.43686" style="fill: #ff7f0e; stroke: #ff7f0e"/>
     <use xlink:href="#m10d2b6db31" x="381.448523" y="32.072563" style="fill: #ff7f0e; stroke: #ff7f0e"/>
     <use xlink:href="#m10d2b6db31" x="392.393977" y="32.691869" style="fill: #ff7f0e; stroke: #ff7f0e"/>
     <use xlink:href="#m10d2b6db31" x="403.339432" y="32.364001" style="fill: #ff7f0e; stroke: #ff7f0e"/>
     <use xlink:href="#m10d2b6db31" x="414.284886" y="32.364001" style="fill: #ff7f0e; stroke: #ff7f0e"/>
     <use xlink:href="#m10d2b6db31" x="425.230341" y="32.254711" style="fill: #ff7f0e; stroke: #ff7f0e"/>
     <use xlink:href="#m10d2b6db31" x="436.175795" y="88.429431" style="fill: #ff7f0e; stroke: #ff7f0e"/>
     <use xlink:href="#m10d2b6db31" x="447.12125" y="32.145422" style="fill: #ff7f0e; stroke: #ff7f0e"/>
     <use xlink:href="#m10d2b6db31" x="458.066705" y="31.708265" style="fill: #ff7f0e; stroke: #ff7f0e"/>
     <use xlink:href="#m10d2b6db31" x="469.012159" y="31.708265" style="fill: #ff7f0e; stroke: #ff7f0e"/>
    </g>
   </g>
   <g id="line2d_19">
    <path d="M 43.78125 255.095669 
L 489.26125 255.095669 
" clip-path="url(#p34bf75c437)" style="fill: none; stroke-dasharray: 5.55,2.4; stroke-dashoffset: 0; stroke: #808080; stroke-width: 1.5"/>
   </g>
   <g id="patch_3">
    <path d="M 43.78125 277.478125 
L 43.78125 22.318125 
" style="fill: none; stroke: #000000; stroke-width: 0.8; stroke-linejoin: miter; stroke-linecap: square"/>
   </g>
   <g id="patch_4">
    <path d="M 489.26125 277.478125 
L 489.26125 22.318125 
" style="fill: none; stroke: #000000; stroke-width: 0.8; stroke-linejoin: miter; stroke-linecap: square"/>
   </g>
   <g id="patch_5">
    <path d="M 43.78125 277.478125 
L 489.26125 277.478125 
" style="fill: none; stroke: #000000; stroke-width: 0.8; stroke-linejoin: miter; stroke-linecap: square"/>
   </g>
   <g id="patch_6">
    <path d="M 43.78125 22.318125 
L 489.26125 22.318125 
" style="fill: none; stroke: #000000; stroke-width: 0.8; stroke-linejoin: miter; stroke-linecap: square"/>
   </g>
   <g id="text_17">
    <!-- Adam (lr=1e-03): equal final accuracy, credit quality sets speed -->
    <g transform="translate(74.113438 16.318125) scale(0.12 -0.12)">
     <defs>
      <path id="DejaVuSans-41" d="M 2188 4044 
L 1331 1722 
L 3047 1722 
L 2188 4044 
z
M 1831 4666 
L 2547 4666 
L 4325 0 
L 3669 0 
L 3244 1197 
L 1141 1197 
L 716 0 
L 50 0 
L 1831 4666 
z
" transform="scale(0.015625)"/>
      <path id="DejaVuSans-6d" d="M 3328 2828 
Q 3544 3216 3844 3400 
Q 4144 3584 4550 3584 
Q 5097 3584 5394 3201 
Q 5691 2819 5691 2113 
L 5691 0 
L 5113 0 
L 5113 2094 
Q 5113 2597 4934 2840 
Q 4756 3084 4391 3084 
Q 3944 3084 3684 2787 
Q 3425 2491 3425 1978 
L 3425 0 
L 2847 0 
L 2847 2094 
Q 2847 2600 2669 2842 
Q 2491 3084 2119 3084 
Q 1678 3084 1418 2786 
Q 1159 2488 1159 1978 
L 1159 0 
L 581 0 
L 581 3500 
L 1159 3500 
L 1159 2956 
Q 1356 3278 1631 3431 
Q 1906 3584 2284 3584 
Q 2666 3584 2933 3390 
Q 3200 3197 3328 2828 
z
" transform="scale(0.015625)"/>
      <path id="DejaVuSans-3d" d="M 678 2906 
L 4684 2906 
L 4684 2381 
L 678 2381 
L 678 2906 
z
M 678 1631 
L 4684 1631 
L 4684 1100 
L 678 1100 
L 678 1631 
z
" transform="scale(0.015625)"/>
      <path id="DejaVuSans-3a" d="M 750 794 
L 1409 794 
L 1409 0 
L 750 0 
L 750 794 
z
M 750 3309 
L 1409 3309 
L 1409 2516 
L 750 2516 
L 750 3309 
z
" transform="scale(0.015625)"/>
      <path id="DejaVuSans-71" d="M 947 1747 
Q 947 1113 1208 752 
Q 1469 391 1925 391 
Q 2381 391 2643 752 
Q 2906 1113 2906 1747 
Q 2906 2381 2643 2742 
Q 2381 3103 1925 3103 
Q 1469 3103 1208 2742 
Q 947 2381 947 1747 
z
M 2906 525 
Q 2725 213 2448 61 
Q 2172 -91 1784 -91 
Q 1150 -91 751 415 
Q 353 922 353 1747 
Q 353 2572 751 3078 
Q 1150 3584 1784 3584 
Q 2172 3584 2448 3432 
Q 2725 3281 2906 2969 
L 2906 3500 
L 3481 3500 
L 3481 -1331 
L 2906 -1331 
L 2906 525 
z
" transform="scale(0.015625)"/>
      <path id="DejaVuSans-66" d="M 2375 4863 
L 2375 4384 
L 1825 4384 
Q 1516 4384 1395 4259 
Q 1275 4134 1275 3809 
L 1275 3500 
L 2222 3500 
L 2222 3053 
L 1275 3053 
L 1275 0 
L 697 0 
L 697 3053 
L 147 3053 
L 147 3500 
L 697 3500 
L 697 3744 
Q 697 4328 969 4595 
Q 1241 4863 1831 4863 
L 2375 4863 
z
" transform="scale(0.015625)"/>
      <path id="DejaVuSans-2c" d="M 750 794 
L 1409 794 
L 1409 256 
L 897 -744 
L 494 -744 
L 750 256 
L 750 794 
z
" transform="scale(0.015625)"/>
     </defs>
     <use xlink:href="#DejaVuSans-41"/>
     <use xlink:href="#DejaVuSans-64" transform="translate(66.658203 0)"/>
     <use xlink:href="#DejaVuSans-61" transform="translate(130.134766 0)"/>
     <use xlink:href="#DejaVuSans-6d" transform="translate(191.414062 0)"/>
     <use xlink:href="#DejaVuSans-20" transform="translate(288.826172 0)"/>
     <use xlink:href="#DejaVuSans-28" transform="translate(320.613281 0)"/>
     <use xlink:href="#DejaVuSans-6c" transform="translate(359.626953 0)"/>
     <use xlink:href="#DejaVuSans-72" transform="translate(387.410156 0)"/>
     <use xlink:href="#DejaVuSans-3d" transform="translate(428.523438 0)"/>
     <use xlink:href="#DejaVuSans-31" transform="translate(512.3125 0)"/>
     <use xlink:href="#DejaVuSans-65" transform="translate(575.935547 0)"/>
     <use xlink:href="#DejaVuSans-2d" transform="translate(637.458984 0)"/>
     <use xlink:href="#DejaVuSans-30" transform="translate(673.542969 0)"/>
     <use xlink:href="#DejaVuSans-33" transform="translate(737.166016 0)"/>
     <use xlink:href="#DejaVuSans-29" transform="translate(800.789062 0)"/>
     <use xlink:href="#DejaVuSans-3a" transform="translate(839.802734 0)"/>
     <use xlink:href="#DejaVuSans-20" transform="translate(873.494141 0)"/>
     <use xlink:href="#DejaVuSans-65" transform="translate(905.28125 0)"/>
     <use xlink:href="#DejaVuSans-71" transform="translate(966.804688 0)"/>
     <use xlink:href="#DejaVuSans-75" transform="translate(1030.28125 0)"/>
     <use xlink:href="#DejaVuSans-61" transform="translate(1093.660156 0)"/>
     <use xlink:href="#DejaVuSans-6c" transform="translate(1154.939453 0)"/>
     <use xlink:href="#DejaVuSans-20" transform="translate(1182.722656 0)"/>
     <use xlink:href="#DejaVuSans-66" transform="translate(1214.509766 0)"/>
     <use xlink:href="#DejaVuSans-69" transform="translate(1249.714844 0)"/>
     <use xlink:href="#DejaVuSans-6e" transform="translate(1277.498047 0)"/>
     <use xlink:href="#DejaVuSans-61" transform="translate(1340.876953 0)"/>
     <use xlink:href="#DejaVuSans-6c" transform="translate(1402.15625 0)"/>
     <use xlink:href="#DejaVuSans-20" transform="translate(1429.939453 0)"/>
     <use xlink:href="#DejaVuSans-61" transform="translate(1461.726562 0)"/>
     <use xlink:href="#DejaVuSans-63" transform="translate(1523.005859 0)"/>
     <use xlink:href="#DejaVuSans-63" transform="translate(1577.986328 0)"/>
     <use xlink:href="#DejaVuSans-75" transform="translate(1632.966797 0)"/>
     <use xlink:href="#DejaVuSans-72" transform="translate(1696.345703 0)"/>
     <use xlink:href="#DejaVuSans-61" transform="translate(1737.458984 0)"/>
     <use xlink:href="#DejaVuSans-63" transform="translate(1798.738281 0)"/>
     <use xlink:href="#DejaVuSans-79" transform="translate(1853.71875 0)"/>
     <use xlink:href="#DejaVuSans-2c" transform="translate(1912.898438 0)"/>
     <use xlink:href="#DejaVuSans-20" transform="translate(1944.685547 0)"/>
     <use xlink:href="#DejaVuSans-63" transform="translate(1976.472656 0)"/>
     <use xlink:href="#DejaVuSans-72" transform="translate(2031.453125 0)"/>
     <use xlink:href="#DejaVuSans-65" transform="translate(2070.316406 0)"/>
     <use xlink:href="#DejaVuSans-64" transform="translate(2131.839844 0)"/>
     <use xlink:href="#DejaVuSans-69" transform="translate(2195.316406 0)"/>
     <use xlink:href="#DejaVuSans-74" transform="translate(2223.099609 0)"/>
     <use xlink:href="#DejaVuSans-20" transform="translate(2262.308594 0)"/>
     <use xlink:href="#DejaVuSans-71" transform="translate(2294.095703 0)"/>
     <use xlink:href="#DejaVuSans-75" transform="translate(2357.572266 0)"/>
     <use xlink:href="#DejaVuSans-61" transform="translate(2420.951172 0)"/>
     <use xlink:href="#DejaVuSans-6c" transform="translate(2482.230469 0)"/>
     <use xlink:href="#DejaVuSans-69" transform="translate(2510.013672 0)"/>
     <use xlink:href="#DejaVuSans-74" transform="translate(2537.796875 0)"/>
     <use xlink:href="#DejaVuSans-79" transform="translate(2577.005859 0)"/>
     <use xlink:href="#DejaVuSans-20" transform="translate(2636.185547 0)"/>
     <use xlink:href="#DejaVuSans-73" transform="translate(2667.972656 0)"/>
     <use xlink:href="#DejaVuSans-65" transform="translate(2720.072266 0)"/>
     <use xlink:href="#DejaVuSans-74" transform="translate(2781.595703 0)"/>
     <use xlink:href="#DejaVuSans-73" transform="translate(2820.804688 0)"/>
     <use xlink:href="#DejaVuSans-20" transform="translate(2872.904297 0)"/>
     <use xlink:href="#DejaVuSans-73" transform="translate(2904.691406 0)"/>
     <use xlink:href="#DejaVuSans-70" transform="translate(2956.791016 0)"/>
     <use xlink:href="#DejaVuSans-65" transform="translate(3020.267578 0)"/>
     <use xlink:href="#DejaVuSans-65" transform="translate(3081.791016 0)"/>
     <use xlink:href="#DejaVuSans-64" transform="translate(3143.314453 0)"/>
    </g>
   </g>
   <g id="legend_1">
    <g id="patch_7">
     <path d="M 218.905625 180.454375 
L 314.136875 180.454375 
Q 315.736875 180.454375 315.736875 178.854375 
L 315.736875 120.941875 
Q 315.736875 119.341875 314.136875 119.341875 
L 218.905625 119.341875 
Q 217.305625 119.341875 217.305625 120.941875 
L 217.305625 178.854375 
Q 217.305625 180.454375 218.905625 180.454375 
z
" style="fill: #ffffff; opacity: 0.8; stroke: #cccccc; stroke-linejoin: miter"/>
    </g>
    <g id="line2d_20">
     <path d="M 220.505625 125.820625 
L 228.505625 125.820625 
L 236.505625 125.820625 
" style="fill: none; stroke: #000000; stroke-width: 1.5; stroke-linecap: square"/>
     <g>
      <use xlink:href="#me3faf8f15e" x="228.505625" y="125.820625" style="stroke: #000000"/>
     </g>
    </g>
    <g id="text_18">
     <!-- BPTT -->
     <g transform="translate(242.905625 128.620625) scale(0.08 -0.08)">
      <defs>
       <path id="DejaVuSans-42" d="M 1259 2228 
L 1259 519 
L 2272 519 
Q 2781 519 3026 730 
Q 3272 941 3272 1375 
Q 3272 1813 3026 2020 
Q 2781 2228 2272 2228 
L 1259 2228 
z
M 1259 4147 
L 1259 2741 
L 2194 2741 
Q 2656 2741 2882 2914 
Q 3109 3088 3109 3444 
Q 3109 3797 2882 3972 
Q 2656 4147 2194 4147 
L 1259 4147 
z
M 628 4666 
L 2241 4666 
Q 2963 4666 3353 4366 
Q 3744 4066 3744 3513 
Q 3744 3084 3544 2831 
Q 3344 2578 2956 2516 
Q 3422 2416 3680 2098 
Q 3938 1781 3938 1306 
Q 3938 681 3513 340 
Q 3088 0 2303 0 
L 628 0 
L 628 4666 
z
" transform="scale(0.015625)"/>
       <path id="DejaVuSans-50" d="M 1259 4147 
L 1259 2394 
L 2053 2394 
Q 2494 2394 2734 2622 
Q 2975 2850 2975 3272 
Q 2975 3691 2734 3919 
Q 2494 4147 2053 4147 
L 1259 4147 
z
M 628 4666 
L 2053 4666 
Q 2838 4666 3239 4311 
Q 3641 3956 3641 3272 
Q 3641 2581 3239 2228 
Q 2838 1875 2053 1875 
L 1259 1875 
L 1259 0 
L 628 0 
L 628 4666 
z
" transform="scale(0.015625)"/>
       <path id="DejaVuSans-54" d="M -19 4666 
L 3928 4666 
L 3928 4134 
L 2272 4134 
L 2272 0 
L 1638 0 
L 1638 4134 
L -19 4134 
L -19 4666 
z
" transform="scale(0.015625)"/>
      </defs>
      <use xlink:href="#DejaVuSans-42"/>
      <use xlink:href="#DejaVuSans-50" transform="translate(68.603516 0)"/>
      <use xlink:href="#DejaVuSans-54" transform="translate(128.90625 0)"/>
      <use xlink:href="#DejaVuSans-54" transform="translate(188.240234 0)"/>
     </g>
    </g>
    <g id="line2d_21">
     <path d="M 220.505625 137.563125 
L 228.505625 137.563125 
L 236.505625 137.563125 
" style="fill: none; stroke: #1f77b4; stroke-width: 1.5; stroke-linecap: square"/>
     <g>
      <use xlink:href="#mb6672ae97a" x="228.505625" y="137.563125" style="fill: #1f77b4; stroke: #1f77b4"/>
     </g>
    </g>
    <g id="text_19">
     <!-- deep e-prop (full) -->
     <g transform="translate(242.905625 140.363125) scale(0.08 -0.08)">
      <use xlink:href="#DejaVuSans-64"/>
      <use xlink:href="#DejaVuSans-65" transform="translate(63.476562 0)"/>
      <use xlink:href="#DejaVuSans-65" transform="translate(125 0)"/>
      <use xlink:href="#DejaVuSans-70" transform="translate(186.523438 0)"/>
      <use xlink:href="#DejaVuSans-20" transform="translate(250 0)"/>
      <use xlink:href="#DejaVuSans-65" transform="translate(281.787109 0)"/>
      <use xlink:href="#DejaVuSans-2d" transform="translate(343.310547 0)"/>
      <use xlink:href="#DejaVuSans-70" transform="translate(379.394531 0)"/>
      <use xlink:href="#DejaVuSans-72" transform="translate(442.871094 0)"/>
      <use xlink:href="#DejaVuSans-6f" transform="translate(481.734375 0)"/>
      <use xlink:href="#DejaVuSans-70" transform="translate(542.916016 0)"/>
      <use xlink:href="#DejaVuSans-20" transform="translate(606.392578 0)"/>
      <use xlink:href="#DejaVuSans-28" transform="translate(638.179688 0)"/>
      <use xlink:href="#DejaVuSans-66" transform="translate(677.193359 0)"/>
      <use xlink:href="#DejaVuSans-75" transform="translate(712.398438 0)"/>
      <use xlink:href="#DejaVuSans-6c" transform="translate(775.777344 0)"/>
      <use xlink:href="#DejaVuSans-6c" transform="translate(803.560547 0)"/>
      <use xlink:href="#DejaVuSans-29" transform="translate(831.34375 0)"/>
     </g>
    </g>
    <g id="line2d_22">
     <path d="M 220.505625 149.305625 
L 228.505625 149.305625 
L 236.505625 149.305625 
" style="fill: none; stroke: #d62728; stroke-width: 1.5; stroke-linecap: square"/>
     <g>
      <use xlink:href="#mbff4ddf26a" x="228.505625" y="149.305625" style="fill: #d62728; stroke: #d62728"/>
     </g>
    </g>
    <g id="text_20">
     <!-- ablate temporal -->
     <g transform="translate(242.905625 152.105625) scale(0.08 -0.08)">
      <defs>
       <path id="DejaVuSans-62" d="M 3116 1747 
Q 3116 2381 2855 2742 
Q 2594 3103 2138 3103 
Q 1681 3103 1420 2742 
Q 1159 2381 1159 1747 
Q 1159 1113 1420 752 
Q 1681 391 2138 391 
Q 2594 391 2855 752 
Q 3116 1113 3116 1747 
z
M 1159 2969 
Q 1341 3281 1617 3432 
Q 1894 3584 2278 3584 
Q 2916 3584 3314 3078 
Q 3713 2572 3713 1747 
Q 3713 922 3314 415 
Q 2916 -91 2278 -91 
Q 1894 -91 1617 61 
Q 1341 213 1159 525 
L 1159 0 
L 581 0 
L 581 4863 
L 1159 4863 
L 1159 2969 
z
" transform="scale(0.015625)"/>
      </defs>
      <use xlink:href="#DejaVuSans-61"/>
      <use xlink:href="#DejaVuSans-62" transform="translate(61.279297 0)"/>
      <use xlink:href="#DejaVuSans-6c" transform="translate(124.755859 0)"/>
      <use xlink:href="#DejaVuSans-61" transform="translate(152.539062 0)"/>
      <use xlink:href="#DejaVuSans-74" transform="translate(213.818359 0)"/>
      <use xlink:href="#DejaVuSans-65" transform="translate(253.027344 0)"/>
      <use xlink:href="#DejaVuSans-20" transform="translate(314.550781 0)"/>
      <use xlink:href="#DejaVuSans-74" transform="translate(346.337891 0)"/>
      <use xlink:href="#DejaVuSans-65" transform="translate(385.546875 0)"/>
      <use xlink:href="#DejaVuSans-6d" transform="translate(447.070312 0)"/>
      <use xlink:href="#DejaVuSans-70" transform="translate(544.482422 0)"/>
      <use xlink:href="#DejaVuSans-6f" transform="translate(607.958984 0)"/>
      <use xlink:href="#DejaVuSans-72" transform="translate(669.140625 0)"/>
      <use xlink:href="#DejaVuSans-61" transform="translate(710.253906 0)"/>
      <use xlink:href="#DejaVuSans-6c" transform="translate(771.533203 0)"/>
     </g>
    </g>
    <g id="line2d_23">
     <path d="M 220.505625 161.048125 
L 228.505625 161.048125 
L 236.505625 161.048125 
" style="fill: none; stroke: #ff7f0e; stroke-width: 1.5; stroke-linecap: square"/>
     <g>
      <use xlink:href="#m10d2b6db31" x="228.505625" y="161.048125" style="fill: #ff7f0e; stroke: #ff7f0e"/>
     </g>
    </g>
    <g id="text_21">
     <!-- ablate spatial -->
     <g transform="translate(242.905625 163.848125) scale(0.08 -0.08)">
      <use xlink:href="#DejaVuSans-61"/>
      <use xlink:href="#DejaVuSans-62" transform="translate(61.279297 0)"/>
      <use xlink:href="#DejaVuSans-6c" transform="translate(124.755859 0)"/>
      <use xlink:href="#DejaVuSans-61" transform="translate(152.539062 0)"/>
      <use xlink:href="#DejaVuSans-74" transform="translate(213.818359 0)"/>
      <use xlink:href="#DejaVuSans-65" transform="translate(253.027344 0)"/>
      <use xlink:href="#DejaVuSans-20" transform="translate(314.550781 0)"/>
      <use xlink:href="#DejaVuSans-73" transform="translate(346.337891 0)"/>
      <use xlink:href="#DejaVuSans-70" transform="translate(398.4375 0)"/>
      <use xlink:href="#DejaVuSans-61" transform="translate(461.914062 0)"/>
      <use xlink:href="#DejaVuSans-74" transform="translate(523.193359 0)"/>
      <use xlink:href="#DejaVuSans-69" transform="translate(562.402344 0)"/>
      <use xlink:href="#DejaVuSans-61" transform="translate(590.185547 0)"/>
      <use xlink:href="#DejaVuSans-6c" transform="translate(651.464844 0)"/>
     </g>
    </g>
    <g id="line2d_24">
     <path d="M 220.505625 172.790625 
L 228.505625 172.790625 
L 236.505625 172.790625 
" style="fill: none; stroke-dasharray: 5.55,2.4; stroke-dashoffset: 0; stroke: #808080; stroke-width: 1.5"/>
    </g>
    <g id="text_22">
     <!-- chance -->
     <g transform="translate(242.905625 175.590625) scale(0.08 -0.08)">
      <use xlink:href="#DejaVuSans-63"/>
      <use xlink:href="#DejaVuSans-68" transform="translate(54.980469 0)"/>
      <use xlink:href="#DejaVuSans-61" transform="translate(118.359375 0)"/>
      <use xlink:href="#DejaVuSans-6e" transform="translate(179.638672 0)"/>
      <use xlink:href="#DejaVuSans-63" transform="translate(243.017578 0)"/>
      <use xlink:href="#DejaVuSans-65" transform="translate(297.998047 0)"/>
     </g>
    </g>
   </g>
  </g>
 </g>
 <defs>
  <clipPath id="p34bf75c437">
   <rect x="43.78125" y="22.318125" width="445.48" height="255.16"/>
  </clipPath>
 </defs>
</svg>
