<?xml version="1.0" encoding="utf-8" standalone="no"?>
<!DOCTYPE svg PUBLIC "-//W3C//DTD SVG 1.1//EN"
  "http://www.w3.org/Graphics/SVG/1.1/DTD/svg11.dtd">
<svg xmlns:xlink="http://www.w3.org/1999/xlink" width="496.46125pt" height="315.034375pt" viewBox="0 0 496.46125 315.034375" xmlns="http://www.w3.org/2000/svg" version="1.1">
 <metadata>
  <rdf:RDF xmlns:dc="http://purl.org/dc/elements/1.1/" xmlns:cc="http://creativecommons.org/ns#" xmlns:rdf="http://www.w3.org/1999/02/22-rdf-syntax-ns#">
   <cc:Work>
    <dc:type rdf:resource="http://purl.org/dc/dcmitype/StillImage"/>
    <dc:date>2026-06-27T14:08:08.677704</dc:date>
    <dc:format>image/svg+xml</dc:format>
    <dc:creator>
     <cc:Agent>
      <dc:title>Matplotlib v3.10.0, https://matplotlib.org/</dc:title>
     </cc:Agent>
    </dc:creator>
   </cc:Work>
  </rdf:RDF>
 </metadata>
 <defs>
  <style type="text/css">*{stroke-linejoin: round; stroke-linecap: butt}</style>
 </defs>
 <g id="figure_1">
  <g id="patch_1">
   <path d="M 0 315.034375 
L 496.46125 315.034375 
L 496.46125 0 
L 0 0 
z
" style="fill: #ffffff"/>
  </g>
  <g id="axes_1">
   <g id="patch_2">
    <path d="M 43.78125 277.478125 
L 489.26125 277.478125 
L 489.26125 22.318125 
L 43.78125 22.318125 
z
" style="fill: #ffffff"/>
   </g>
   <g id="FillBetweenPolyCollection_1">
    <defs>
     <path id="mf8598681a6" d="M 64.030341 -64.454029 
L 64.030341 -59.740312 
L 74.154886 -76.844885 
L 84.279432 -109.380836 
L 94.403977 -97.849972 
L 104.528523 -144.79926 
L 114.653068 -143.63949 
L 124.777614 -164.682796 
L 134.902159 -207.516586 
L 145.026705 -189.786589 
L 155.15125 -233.432657 
L 165.275795 -225.315973 
L 175.400341 -238.053315 
L 185.524886 -259.014438 
L 195.649432 -258.890276 
L 205.773977 -259.243154 
L 215.898523 -240.915172 
L 226.023068 -241.495201 
L 236.147614 -281.084652 
L 246.272159 -281.956101 
L 256.396705 -282.930634 
L 266.52125 -283.490044 
L 276.645795 -254.684278 
L 286.770341 -254.223547 
L 296.894886 -243.56523 
L 307.019432 -271.460411 
L 317.143977 -283.573364 
L 327.268523 -283.513463 
L 337.393068 -267.088837 
L 347.517614 -283.700816 
L 357.642159 -283.690408 
L 367.766705 -171.085961 
L 377.89125 -283.653978 
L 388.015795 -283.763268 
L 398.140341 -283.763268 
L 408.264886 -283.763268 
L 408.264886 -283.763268 
L 408.264886 -283.763268 
L 398.140341 -283.763268 
L 388.015795 -283.763268 
L 377.89125 -283.763268 
L 367.766705 -283.763268 
L 357.642159 -283.763268 
L 347.517614 -283.763268 
L 337.393068 -283.763268 
L 327.268523 -283.763268 
L 317.143977 -283.703367 
L 307.019432 -283.763268 
L 296.894886 -283.617927 
L 286.770341 -283.576288 
L 276.645795 -283.607359 
L 266.52125 -283.763268 
L 256.396705 -283.503008 
L 246.272159 -283.384647 
L 236.147614 -283.163203 
L 226.023068 -275.64895 
L 215.898523 -274.917507 
L 205.773977 -283.638635 
L 195.649432 -283.390422 
L 185.524886 -282.774458 
L 175.400341 -282.806674 
L 165.275795 -282.320005 
L 155.15125 -267.755251 
L 145.026705 -255.773046 
L 134.902159 -256.18508 
L 124.777614 -227.106486 
L 114.653068 -198.587077 
L 104.528523 -196.17048 
L 94.403977 -133.721142 
L 84.279432 -150.824084 
L 74.154886 -111.720875 
L 64.030341 -64.454029 
z
" style="stroke: #000000; stroke-opacity: 0.15"/>
    </defs>
    <g clip-path="url(#p517de61bed)">
     <use xlink:href="#mf8598681a6" x="0" y="315.034375" style="fill-opacity: 0.15; stroke: #000000; stroke-opacity: 0.15"/>
    </g>
   </g>
   <g id="FillBetweenPolyCollection_2">
    <defs>
     <path id="m2d00e7f194" d="M 64.030341 -64.454029 
L 64.030341 -59.740312 
L 74.154886 -68.74753 
L 84.279432 -89.932242 
L 94.403977 -92.59368 
L 104.528523 -96.249241 
L 114.653068 -100.172129 
L 124.777614 -128.003281 
L 134.902159 -141.934198 
L 145.026705 -131.44967 
L 155.15125 -168.698419 
L 165.275795 -151.844015 
L 175.400341 -174.421679 
L 185.524886 -176.996183 
L 195.649432 -161.825225 
L 205.773977 -200.361785 
L 215.898523 -184.168671 
L 226.023068 -173.727153 
L 236.147614 -207.499623 
L 246.272159 -199.681995 
L 256.396705 -210.440392 
L 266.52125 -215.015205 
L 276.645795 -207.510589 
L 286.770341 -195.209699 
L 296.894886 -193.544064 
L 307.019432 -208.589542 
L 317.143977 -212.617255 
L 327.268523 -226.353998 
L 337.393068 -231.268975 
L 347.517614 -220.399137 
L 357.642159 -228.929108 
L 367.766705 -223.228767 
L 377.89125 -210.257344 
L 388.015795 -219.646745 
L 398.140341 -230.835816 
L 408.264886 -225.538113 
L 418.389432 -225.580235 
L 428.513977 -242.573076 
L 438.638523 -216.512531 
L 448.763068 -236.29675 
L 458.887614 -250.957985 
L 469.012159 -246.85653 
L 469.012159 -262.528078 
L 469.012159 -262.528078 
L 458.887614 -266.659753 
L 448.763068 -257.93307 
L 438.638523 -254.62081 
L 428.513977 -253.134753 
L 418.389432 -249.14404 
L 408.264886 -252.246264 
L 398.140341 -244.700324 
L 388.015795 -233.219663 
L 377.89125 -236.551312 
L 367.766705 -235.757844 
L 357.642159 -238.051238 
L 347.517614 -240.835712 
L 337.393068 -239.27108 
L 327.268523 -233.257123 
L 317.143977 -231.630908 
L 307.019432 -222.48145 
L 296.894886 -219.291221 
L 286.770341 -225.619321 
L 276.645795 -225.972575 
L 266.52125 -232.183771 
L 256.396705 -221.895234 
L 246.272159 -228.336702 
L 236.147614 -222.431637 
L 226.023068 -213.963778 
L 215.898523 -210.079621 
L 205.773977 -224.815389 
L 195.649432 -201.767408 
L 185.524886 -208.345028 
L 175.400341 -204.908619 
L 165.275795 -192.786918 
L 155.15125 -198.500762 
L 145.026705 -170.613067 
L 134.902159 -170.893538 
L 124.777614 -160.562222 
L 114.653068 -134.404442 
L 104.528523 -134.119691 
L 94.403977 -115.480227 
L 84.279432 -131.748187 
L 74.154886 -92.168028 
L 64.030341 -64.454029 
z
" style="stroke: #1f77b4; stroke-opacity: 0.15"/>
    </defs>
    <g clip-path="url(#p517de61bed)">
     <use xlink:href="#m2d00e7f194" x="0" y="315.034375" style="fill: #1f77b4; fill-opacity: 0.15; stroke: #1f77b4; stroke-opacity: 0.15"/>
    </g>
   </g>
   <g id="FillBetweenPolyCollection_3">
    <defs>
     <path id="m980da6db3b" d="M 64.030341 -64.454029 
L 64.030341 -59.740312 
L 74.154886 -63.976019 
L 84.279432 -82.224307 
L 94.403977 -75.376337 
L 104.528523 -80.651815 
L 114.653068 -94.608355 
L 124.777614 -105.198533 
L 134.902159 -111.888695 
L 145.026705 -117.925251 
L 155.15125 -110.895656 
L 165.275795 -105.282238 
L 175.400341 -131.553499 
L 185.524886 -132.559985 
L 195.649432 -135.917593 
L 205.773977 -113.783086 
L 215.898523 -138.350009 
L 226.023068 -141.692498 
L 236.147614 -150.536161 
L 246.272159 -150.108583 
L 256.396705 -136.000129 
L 266.52125 -143.968645 
L 276.645795 -138.774143 
L 286.770341 -155.197725 
L 296.894886 -152.45014 
L 307.019432 -151.761564 
L 317.143977 -150.413554 
L 327.268523 -154.964163 
L 337.393068 -174.365966 
L 347.517614 -163.440564 
L 357.642159 -182.402243 
L 367.766705 -172.739405 
L 377.89125 -163.769298 
L 388.015795 -148.561709 
L 398.140341 -161.641544 
L 408.264886 -178.123539 
L 418.389432 -193.134734 
L 428.513977 -184.73665 
L 438.638523 -136.443512 
L 448.763068 -194.565629 
L 458.887614 -144.662374 
L 469.012159 -175.344724 
L 469.012159 -222.827055 
L 469.012159 -222.827055 
L 458.887614 -194.405732 
L 448.763068 -213.923063 
L 438.638523 -197.466137 
L 428.513977 -212.560814 
L 418.389432 -214.829369 
L 408.264886 -207.982698 
L 398.140341 -198.672409 
L 388.015795 -179.752326 
L 377.89125 -187.976371 
L 367.766705 -194.743928 
L 357.642159 -204.753171 
L 347.517614 -198.359723 
L 337.393068 -201.423357 
L 327.268523 -181.181234 
L 317.143977 -176.551538 
L 307.019432 -178.263629 
L 296.894886 -181.259665 
L 286.770341 -176.318488 
L 276.645795 -165.802248 
L 266.52125 -172.35635 
L 256.396705 -164.040755 
L 246.272159 -168.894 
L 236.147614 -169.832539 
L 226.023068 -162.665314 
L 215.898523 -164.423108 
L 205.773977 -142.705997 
L 195.649432 -167.292682 
L 185.524886 -163.000036 
L 175.400341 -164.716903 
L 165.275795 -134.266998 
L 155.15125 -138.598909 
L 145.026705 -148.345228 
L 134.902159 -134.818992 
L 124.777614 -143.585652 
L 114.653068 -115.869917 
L 104.528523 -108.733615 
L 94.403977 -87.670364 
L 84.279432 -123.335945 
L 74.154886 -84.535199 
L 64.030341 -64.454029 
z
" style="stroke: #d62728; stroke-opacity: 0.15"/>
    </defs>
    <g clip-path="url(#p517de61bed)">
     <use xlink:href="#m980da6db3b" x="0" y="315.034375" style="fill: #d62728; fill-opacity: 0.15; stroke: #d62728; stroke-opacity: 0.15"/>
    </g>
   </g>
   <g id="FillBetweenPolyCollection_4">
    <defs>
     <path id="m61b321a8d9" d="M 64.030341 -64.454029 
L 64.030341 -59.740312 
L 74.154886 -63.720863 
L 84.279432 -82.417185 
L 94.403977 -74.981382 
L 104.528523 -81.00547 
L 114.653068 -94.848144 
L 124.777614 -105.355399 
L 134.902159 -111.904708 
L 145.026705 -117.184544 
L 155.15125 -112.029001 
L 165.275795 -106.288946 
L 175.400341 -133.165006 
L 185.524886 -132.529723 
L 195.649432 -136.902979 
L 205.773977 -116.57348 
L 215.898523 -140.696836 
L 226.023068 -143.852322 
L 236.147614 -151.639506 
L 246.272159 -148.597363 
L 256.396705 -147.538723 
L 266.52125 -142.830253 
L 276.645795 -144.479943 
L 286.770341 -159.307461 
L 296.894886 -153.156238 
L 307.019432 -160.500333 
L 317.143977 -161.97973 
L 327.268523 -164.331487 
L 337.393068 -164.448977 
L 347.517614 -166.547085 
L 357.642159 -172.019975 
L 367.766705 -173.335959 
L 377.89125 -162.833962 
L 388.015795 -171.427652 
L 398.140341 -163.951534 
L 408.264886 -173.179235 
L 418.389432 -180.914501 
L 428.513977 -175.965608 
L 438.638523 -175.006399 
L 448.763068 -168.020239 
L 458.887614 -187.966613 
L 469.012159 -188.508597 
L 469.012159 -216.582758 
L 469.012159 -216.582758 
L 458.887614 -216.812487 
L 448.763068 -205.15863 
L 438.638523 -206.228655 
L 428.513977 -202.209345 
L 418.389432 -203.443106 
L 408.264886 -200.522662 
L 398.140341 -196.580997 
L 388.015795 -198.940919 
L 377.89125 -191.523722 
L 367.766705 -193.972511 
L 357.642159 -191.681948 
L 347.517614 -189.723162 
L 337.393068 -190.072641 
L 327.268523 -185.654624 
L 317.143977 -184.399832 
L 307.019432 -183.365575 
L 296.894886 -177.103147 
L 286.770341 -181.55299 
L 276.645795 -171.571829 
L 266.52125 -171.145021 
L 256.396705 -175.179698 
L 246.272159 -166.962606 
L 236.147614 -172.335742 
L 226.023068 -163.674881 
L 215.898523 -167.868616 
L 205.773977 -145.762583 
L 195.649432 -168.602371 
L 185.524886 -163.358166 
L 175.400341 -167.36768 
L 165.275795 -135.500721 
L 155.15125 -139.705996 
L 145.026705 -147.610529 
L 134.902159 -133.272929 
L 124.777614 -143.702009 
L 114.653068 -116.121931 
L 104.528523 -109.035697 
L 94.403977 -87.409582 
L 84.279432 -123.307001 
L 74.154886 -84.13462 
L 64.030341 -64.454029 
z
" style="stroke: #ff7f0e; stroke-opacity: 0.15"/>
    </defs>
    <g clip-path="url(#p517de61bed)">
     <use xlink:href="#m61b321a8d9" x="0" y="315.034375" style="fill: #ff7f0e; fill-opacity: 0.15; stroke: #ff7f0e; stroke-opacity: 0.15"/>
    </g>
   </g>
   <g id="matplotlib.axis_1">
    <g id="xtick_1">
     <g id="line2d_1">
      <defs>
       <path id="m22fceeba6b" d="M 0 0 
L 0 3.5 
" style="stroke: #000000; stroke-width: 0.8"/>
      </defs>
      <g>
       <use xlink:href="#m22fceeba6b" x="64.030341" y="277.478125" style="stroke: #000000; stroke-width: 0.8"/>
      </g>
     </g>
     <g id="text_1">
      <!-- 0 -->
      <g transform="translate(60.849091 292.076563) scale(0.1 -0.1)">
       <defs>
        <path id="DejaVuSans-30" d="M 2034 4250 
Q 1547 4250 1301 3770 
Q 1056 3291 1056 2328 
Q 1056 1369 1301 889 
Q 1547 409 2034 409 
Q 2525 409 2770 889 
Q 3016 1369 3016 2328 
Q 3016 3291 2770 3770 
Q 2525 4250 2034 4250 
z
M 2034 4750 
Q 2819 4750 3233 4129 
Q 3647 3509 3647 2328 
Q 3647 1150 3233 529 
Q 2819 -91 2034 -91 
Q 1250 -91 836 529 
Q 422 1150 422 2328 
Q 422 3509 836 4129 
Q 1250 4750 2034 4750 
z
" transform="scale(0.015625)"/>
       </defs>
       <use xlink:href="#DejaVuSans-30"/>
      </g>
     </g>
    </g>
    <g id="xtick_2">
     <g id="line2d_2">
      <g>
       <use xlink:href="#m22fceeba6b" x="114.653068" y="277.478125" style="stroke: #000000; stroke-width: 0.8"/>
      </g>
     </g>
     <g id="text_2">
      <!-- 500 -->
      <g transform="translate(105.109318 292.076563) scale(0.1 -0.1)">
       <defs>
        <path id="DejaVuSans-35" d="M 691 4666 
L 3169 4666 
L 3169 4134 
L 1269 4134 
L 1269 2991 
Q 1406 3038 1543 3061 
Q 1681 3084 1819 3084 
Q 2600 3084 3056 2656 
Q 3513 2228 3513 1497 
Q 3513 744 3044 326 
Q 2575 -91 1722 -91 
Q 1428 -91 1123 -41 
Q 819 9 494 109 
L 494 744 
Q 775 591 1075 516 
Q 1375 441 1709 441 
Q 2250 441 2565 725 
Q 2881 1009 2881 1497 
Q 2881 1984 2565 2268 
Q 2250 2553 1709 2553 
Q 1456 2553 1204 2497 
Q 953 2441 691 2322 
L 691 4666 
z
" transform="scale(0.015625)"/>
       </defs>
       <use xlink:href="#DejaVuSans-35"/>
       <use xlink:href="#DejaVuSans-30" transform="translate(63.623047 0)"/>
       <use xlink:href="#DejaVuSans-30" transform="translate(127.246094 0)"/>
      </g>
     </g>
    </g>
    <g id="xtick_3">
     <g id="line2d_3">
      <g>
       <use xlink:href="#m22fceeba6b" x="165.275795" y="277.478125" style="stroke: #000000; stroke-width: 0.8"/>
      </g>
     </g>
     <g id="text_3">
      <!-- 1000 -->
      <g transform="translate(152.550795 292.076563) scale(0.1 -0.1)">
       <defs>
        <path id="DejaVuSans-31" d="M 794 531 
L 1825 531 
L 1825 4091 
L 703 3866 
L 703 4441 
L 1819 4666 
L 2450 4666 
L 2450 531 
L 3481 531 
L 3481 0 
L 794 0 
L 794 531 
z
" transform="scale(0.015625)"/>
       </defs>
       <use xlink:href="#DejaVuSans-31"/>
       <use xlink:href="#DejaVuSans-30" transform="translate(63.623047 0)"/>
       <use xlink:href="#DejaVuSans-30" transform="translate(127.246094 0)"/>
       <use xlink:href="#DejaVuSans-30" transform="translate(190.869141 0)"/>
      </g>
     </g>
    </g>
    <g id="xtick_4">
     <g id="line2d_4">
      <g>
       <use xlink:href="#m22fceeba6b" x="215.898523" y="277.478125" style="stroke: #000000; stroke-width: 0.8"/>
      </g>
     </g>
     <g id="text_4">
      <!-- 1500 -->
      <g transform="translate(203.173523 292.076563) scale(0.1 -0.1)">
       <use xlink:href="#DejaVuSans-31"/>
       <use xlink:href="#DejaVuSans-35" transform="translate(63.623047 0)"/>
       <use xlink:href="#DejaVuSans-30" transform="translate(127.246094 0)"/>
       <use xlink:href="#DejaVuSans-30" transform="translate(190.869141 0)"/>
      </g>
     </g>
    </g>
    <g id="xtick_5">
     <g id="line2d_5">
      <g>
       <use xlink:href="#m22fceeba6b" x="266.52125" y="277.478125" style="stroke: #000000; stroke-width: 0.8"/>
      </g>
     </g>
     <g id="text_5">
      <!-- 2000 -->
      <g transform="translate(253.79625 292.076563) scale(0.1 -0.1)">
       <defs>
        <path id="DejaVuSans-32" d="M 1228 531 
L 3431 531 
L 3431 0 
L 469 0 
L 469 531 
Q 828 903 1448 1529 
Q 2069 2156 2228 2338 
Q 2531 2678 2651 2914 
Q 2772 3150 2772 3378 
Q 2772 3750 2511 3984 
Q 2250 4219 1831 4219 
Q 1534 4219 1204 4116 
Q 875 4013 500 3803 
L 500 4441 
Q 881 4594 1212 4672 
Q 1544 4750 1819 4750 
Q 2544 4750 2975 4387 
Q 3406 4025 3406 3419 
Q 3406 3131 3298 2873 
Q 3191 2616 2906 2266 
Q 2828 2175 2409 1742 
Q 1991 1309 1228 531 
z
" transform="scale(0.015625)"/>
       </defs>
       <use xlink:href="#DejaVuSans-32"/>
       <use xlink:href="#DejaVuSans-30" transform="translate(63.623047 0)"/>
       <use xlink:href="#DejaVuSans-30" transform="translate(127.246094 0)"/>
       <use xlink:href="#DejaVuSans-30" transform="translate(190.869141 0)"/>
      </g>
     </g>
    </g>
    <g id="xtick_6">
     <g id="line2d_6">
      <g>
       <use xlink:href="#m22fceeba6b" x="317.143977" y="277.478125" style="stroke: #000000; stroke-width: 0.8"/>
      </g>
     </g>
     <g id="text_6">
      <!-- 2500 -->
      <g transform="translate(304.418977 292.076563) scale(0.1 -0.1)">
       <use xlink:href="#DejaVuSans-32"/>
       <use xlink:href="#DejaVuSans-35" transform="translate(63.623047 0)"/>
       <use xlink:href="#DejaVuSans-30" transform="translate(127.246094 0)"/>
       <use xlink:href="#DejaVuSans-30" transform="translate(190.869141 0)"/>
      </g>
     </g>
    </g>
    <g id="xtick_7">
     <g id="line2d_7">
      <g>
       <use xlink:href="#m22fceeba6b" x="367.766705" y="277.478125" style="stroke: #000000; stroke-width: 0.8"/>
      </g>
     </g>
     <g id="text_7">
      <!-- 3000 -->
      <g transform="translate(355.041705 292.076563) scale(0.1 -0.1)">
       <defs>
        <path id="DejaVuSans-33" d="M 2597 2516 
Q 3050 2419 3304 2112 
Q 3559 1806 3559 1356 
Q 3559 666 3084 287 
Q 2609 -91 1734 -91 
Q 1441 -91 1130 -33 
Q 819 25 488 141 
L 488 750 
Q 750 597 1062 519 
Q 1375 441 1716 441 
Q 2309 441 2620 675 
Q 2931 909 2931 1356 
Q 2931 1769 2642 2001 
Q 2353 2234 1838 2234 
L 1294 2234 
L 1294 2753 
L 1863 2753 
Q 2328 2753 2575 2939 
Q 2822 3125 2822 3475 
Q 2822 3834 2567 4026 
Q 2313 4219 1838 4219 
Q 1578 4219 1281 4162 
Q 984 4106 628 3988 
L 628 4550 
Q 988 4650 1302 4700 
Q 1616 4750 1894 4750 
Q 2613 4750 3031 4423 
Q 3450 4097 3450 3541 
Q 3450 3153 3228 2886 
Q 3006 2619 2597 2516 
z
" transform="scale(0.015625)"/>
       </defs>
       <use xlink:href="#DejaVuSans-33"/>
       <use xlink:href="#DejaVuSans-30" transform="translate(63.623047 0)"/>
       <use xlink:href="#DejaVuSans-30" transform="translate(127.246094 0)"/>
       <use xlink:href="#DejaVuSans-30" transform="translate(190.869141 0)"/>
      </g>
     </g>
    </g>
    <g id="xtick_8">
     <g id="line2d_8">
      <g>
       <use xlink:href="#m22fceeba6b" x="418.389432" y="277.478125" style="stroke: #000000; stroke-width: 0.8"/>
      </g>
     </g>
     <g id="text_8">
      <!-- 3500 -->
      <g transform="translate(405.664432 292.076563) scale(0.1 -0.1)">
       <use xlink:href="#DejaVuSans-33"/>
       <use xlink:href="#DejaVuSans-35" transform="translate(63.623047 0)"/>
       <use xlink:href="#DejaVuSans-30" transform="translate(127.246094 0)"/>
       <use xlink:href="#DejaVuSans-30" transform="translate(190.869141 0)"/>
      </g>
     </g>
    </g>
    <g id="xtick_9">
     <g id="line2d_9">
      <g>
       <use xlink:href="#m22fceeba6b" x="469.012159" y="277.478125" style="stroke: #000000; stroke-width: 0.8"/>
      </g>
     </g>
     <g id="text_9">
      <!-- 4000 -->
      <g transform="translate(456.287159 292.076563) scale(0.1 -0.1)">
       <defs>
        <path id="DejaVuSans-34" d="M 2419 4116 
L 825 1625 
L 2419 1625 
L 2419 4116 
z
M 2253 4666 
L 3047 4666 
L 3047 1625 
L 3713 1625 
L 3713 1100 
L 3047 1100 
L 3047 0 
L 2419 0 
L 2419 1100 
L 313 1100 
L 313 1709 
L 2253 4666 
z
" transform="scale(0.015625)"/>
       </defs>
       <use xlink:href="#DejaVuSans-34"/>
       <use xlink:href="#DejaVuSans-30" transform="translate(63.623047 0)"/>
       <use xlink:href="#DejaVuSans-30" transform="translate(127.246094 0)"/>
       <use xlink:href="#DejaVuSans-30" transform="translate(190.869141 0)"/>
      </g>
     </g>
    </g>
    <g id="text_10">
     <!-- training step -->
     <g transform="translate(234.747031 305.754687) scale(0.1 -0.1)">
      <defs>
       <path id="DejaVuSans-74" d="M 1172 4494 
L 1172 3500 
L 2356 3500 
L 2356 3053 
L 1172 3053 
L 1172 1153 
Q 1172 725 1289 603 
Q 1406 481 1766 481 
L 2356 481 
L 2356 0 
L 1766 0 
Q 1100 0 847 248 
Q 594 497 594 1153 
L 594 3053 
L 172 3053 
L 172 3500 
L 594 3500 
L 594 4494 
L 1172 4494 
z
" transform="scale(0.015625)"/>
       <path id="DejaVuSans-72" d="M 2631 2963 
Q 2534 3019 2420 3045 
Q 2306 3072 2169 3072 
Q 1681 3072 1420 2755 
Q 1159 2438 1159 1844 
L 1159 0 
L 581 0 
L 581 3500 
L 1159 3500 
L 1159 2956 
Q 1341 3275 1631 3429 
Q 1922 3584 2338 3584 
Q 2397 3584 2469 3576 
Q 2541 3569 2628 3553 
L 2631 2963 
z
" transform="scale(0.015625)"/>
       <path id="DejaVuSans-61" d="M 2194 1759 
Q 1497 1759 1228 1600 
Q 959 1441 959 1056 
Q 959 750 1161 570 
Q 1363 391 1709 391 
Q 2188 391 2477 730 
Q 2766 1069 2766 1631 
L 2766 1759 
L 2194 1759 
z
M 3341 1997 
L 3341 0 
L 2766 0 
L 2766 531 
Q 2569 213 2275 61 
Q 1981 -91 1556 -91 
Q 1019 -91 701 211 
Q 384 513 384 1019 
Q 384 1609 779 1909 
Q 1175 2209 1959 2209 
L 2766 2209 
L 2766 2266 
Q 2766 2663 2505 2880 
Q 2244 3097 1772 3097 
Q 1472 3097 1187 3025 
Q 903 2953 641 2809 
L 641 3341 
Q 956 3463 1253 3523 
Q 1550 3584 1831 3584 
Q 2591 3584 2966 3190 
Q 3341 2797 3341 1997 
z
" transform="scale(0.015625)"/>
       <path id="DejaVuSans-69" d="M 603 3500 
L 1178 3500 
L 1178 0 
L 603 0 
L 603 3500 
z
M 603 4863 
L 1178 4863 
L 1178 4134 
L 603 4134 
L 603 4863 
z
" transform="scale(0.015625)"/>
       <path id="DejaVuSans-6e" d="M 3513 2113 
L 3513 0 
L 2938 0 
L 2938 2094 
Q 2938 2591 2744 2837 
Q 2550 3084 2163 3084 
Q 1697 3084 1428 2787 
Q 1159 2491 1159 1978 
L 1159 0 
L 581 0 
L 581 3500 
L 1159 3500 
L 1159 2956 
Q 1366 3272 1645 3428 
Q 1925 3584 2291 3584 
Q 2894 3584 3203 3211 
Q 3513 2838 3513 2113 
z
" transform="scale(0.015625)"/>
       <path id="DejaVuSans-67" d="M 2906 1791 
Q 2906 2416 2648 2759 
Q 2391 3103 1925 3103 
Q 1463 3103 1205 2759 
Q 947 2416 947 1791 
Q 947 1169 1205 825 
Q 1463 481 1925 481 
Q 2391 481 2648 825 
Q 2906 1169 2906 1791 
z
M 3481 434 
Q 3481 -459 3084 -895 
Q 2688 -1331 1869 -1331 
Q 1566 -1331 1297 -1286 
Q 1028 -1241 775 -1147 
L 775 -588 
Q 1028 -725 1275 -790 
Q 1522 -856 1778 -856 
Q 2344 -856 2625 -561 
Q 2906 -266 2906 331 
L 2906 616 
Q 2728 306 2450 153 
Q 2172 0 1784 0 
Q 1141 0 747 490 
Q 353 981 353 1791 
Q 353 2603 747 3093 
Q 1141 3584 1784 3584 
Q 2172 3584 2450 3431 
Q 2728 3278 2906 2969 
L 2906 3500 
L 3481 3500 
L 3481 434 
z
" transform="scale(0.015625)"/>
       <path id="DejaVuSans-20" transform="scale(0.015625)"/>
       <path id="DejaVuSans-73" d="M 2834 3397 
L 2834 2853 
Q 2591 2978 2328 3040 
Q 2066 3103 1784 3103 
Q 1356 3103 1142 2972 
Q 928 2841 928 2578 
Q 928 2378 1081 2264 
Q 1234 2150 1697 2047 
L 1894 2003 
Q 2506 1872 2764 1633 
Q 3022 1394 3022 966 
Q 3022 478 2636 193 
Q 2250 -91 1575 -91 
Q 1294 -91 989 -36 
Q 684 19 347 128 
L 347 722 
Q 666 556 975 473 
Q 1284 391 1588 391 
Q 1994 391 2212 530 
Q 2431 669 2431 922 
Q 2431 1156 2273 1281 
Q 2116 1406 1581 1522 
L 1381 1569 
Q 847 1681 609 1914 
Q 372 2147 372 2553 
Q 372 3047 722 3315 
Q 1072 3584 1716 3584 
Q 2034 3584 2315 3537 
Q 2597 3491 2834 3397 
z
" transform="scale(0.015625)"/>
       <path id="DejaVuSans-65" d="M 3597 1894 
L 3597 1613 
L 953 1613 
Q 991 1019 1311 708 
Q 1631 397 2203 397 
Q 2534 397 2845 478 
Q 3156 559 3463 722 
L 3463 178 
Q 3153 47 2828 -22 
Q 2503 -91 2169 -91 
Q 1331 -91 842 396 
Q 353 884 353 1716 
Q 353 2575 817 3079 
Q 1281 3584 2069 3584 
Q 2775 3584 3186 3129 
Q 3597 2675 3597 1894 
z
M 3022 2063 
Q 3016 2534 2758 2815 
Q 2500 3097 2075 3097 
Q 1594 3097 1305 2825 
Q 1016 2553 972 2059 
L 3022 2063 
z
" transform="scale(0.015625)"/>
       <path id="DejaVuSans-70" d="M 1159 525 
L 1159 -1331 
L 581 -1331 
L 581 3500 
L 1159 3500 
L 1159 2969 
Q 1341 3281 1617 3432 
Q 1894 3584 2278 3584 
Q 2916 3584 3314 3078 
Q 3713 2572 3713 1747 
Q 3713 922 3314 415 
Q 2916 -91 2278 -91 
Q 1894 -91 1617 61 
Q 1341 213 1159 525 
z
M 3116 1747 
Q 3116 2381 2855 2742 
Q 2594 3103 2138 3103 
Q 1681 3103 1420 2742 
Q 1159 2381 1159 1747 
Q 1159 1113 1420 752 
Q 1681 391 2138 391 
Q 2594 391 2855 752 
Q 3116 1113 3116 1747 
z
" transform="scale(0.015625)"/>
      </defs>
      <use xlink:href="#DejaVuSans-74"/>
      <use xlink:href="#DejaVuSans-72" transform="translate(39.208984 0)"/>
      <use xlink:href="#DejaVuSans-61" transform="translate(80.322266 0)"/>
      <use xlink:href="#DejaVuSans-69" transform="translate(141.601562 0)"/>
      <use xlink:href="#DejaVuSans-6e" transform="translate(169.384766 0)"/>
      <use xlink:href="#DejaVuSans-69" transform="translate(232.763672 0)"/>
      <use xlink:href="#DejaVuSans-6e" transform="translate(260.546875 0)"/>
      <use xlink:href="#DejaVuSans-67" transform="translate(323.925781 0)"/>
      <use xlink:href="#DejaVuSans-20" transform="translate(387.402344 0)"/>
      <use xlink:href="#DejaVuSans-73" transform="translate(419.189453 0)"/>
      <use xlink:href="#DejaVuSans-74" transform="translate(471.289062 0)"/>
      <use xlink:href="#DejaVuSans-65" transform="translate(510.498047 0)"/>
      <use xlink:href="#DejaVuSans-70" transform="translate(572.021484 0)"/>
     </g>
    </g>
   </g>
   <g id="matplotlib.axis_2">
    <g id="ytick_1">
     <g id="line2d_10">
      <defs>
       <path id="m41159ad3d6" d="M 0 0 
L -3.5 0 
" style="stroke: #000000; stroke-width: 0.8"/>
      </defs>
      <g>
       <use xlink:href="#m41159ad3d6" x="43.78125" y="255.095669" style="stroke: #000000; stroke-width: 0.8"/>
      </g>
     </g>
     <g id="text_11">
      <!-- 0.5 -->
      <g transform="translate(20.878125 258.894888) scale(0.1 -0.1)">
       <defs>
        <path id="DejaVuSans-2e" d="M 684 794 
L 1344 794 
L 1344 0 
L 684 0 
L 684 794 
z
" transform="scale(0.015625)"/>
       </defs>
       <use xlink:href="#DejaVuSans-30"/>
       <use xlink:href="#DejaVuSans-2e" transform="translate(63.623047 0)"/>
       <use xlink:href="#DejaVuSans-35" transform="translate(95.410156 0)"/>
      </g>
     </g>
    </g>
    <g id="ytick_2">
     <g id="line2d_11">
      <g>
       <use xlink:href="#m41159ad3d6" x="43.78125" y="210.330757" style="stroke: #000000; stroke-width: 0.8"/>
      </g>
     </g>
     <g id="text_12">
      <!-- 0.6 -->
      <g transform="translate(20.878125 214.129975) scale(0.1 -0.1)">
       <defs>
        <path id="DejaVuSans-36" d="M 2113 2584 
Q 1688 2584 1439 2293 
Q 1191 2003 1191 1497 
Q 1191 994 1439 701 
Q 1688 409 2113 409 
Q 2538 409 2786 701 
Q 3034 994 3034 1497 
Q 3034 2003 2786 2293 
Q 2538 2584 2113 2584 
z
M 3366 4563 
L 3366 3988 
Q 3128 4100 2886 4159 
Q 2644 4219 2406 4219 
Q 1781 4219 1451 3797 
Q 1122 3375 1075 2522 
Q 1259 2794 1537 2939 
Q 1816 3084 2150 3084 
Q 2853 3084 3261 2657 
Q 3669 2231 3669 1497 
Q 3669 778 3244 343 
Q 2819 -91 2113 -91 
Q 1303 -91 875 529 
Q 447 1150 447 2328 
Q 447 3434 972 4092 
Q 1497 4750 2381 4750 
Q 2619 4750 2861 4703 
Q 3103 4656 3366 4563 
z
" transform="scale(0.015625)"/>
       </defs>
       <use xlink:href="#DejaVuSans-30"/>
       <use xlink:href="#DejaVuSans-2e" transform="translate(63.623047 0)"/>
       <use xlink:href="#DejaVuSans-36" transform="translate(95.410156 0)"/>
      </g>
     </g>
    </g>
    <g id="ytick_3">
     <g id="line2d_12">
      <g>
       <use xlink:href="#m41159ad3d6" x="43.78125" y="165.565844" style="stroke: #000000; stroke-width: 0.8"/>
      </g>
     </g>
     <g id="text_13">
      <!-- 0.7 -->
      <g transform="translate(20.878125 169.365063) scale(0.1 -0.1)">
       <defs>
        <path id="DejaVuSans-37" d="M 525 4666 
L 3525 4666 
L 3525 4397 
L 1831 0 
L 1172 0 
L 2766 4134 
L 525 4134 
L 525 4666 
z
" transform="scale(0.015625)"/>
       </defs>
       <use xlink:href="#DejaVuSans-30"/>
       <use xlink:href="#DejaVuSans-2e" transform="translate(63.623047 0)"/>
       <use xlink:href="#DejaVuSans-37" transform="translate(95.410156 0)"/>
      </g>
     </g>
    </g>
    <g id="ytick_4">
     <g id="line2d_13">
      <g>
       <use xlink:href="#m41159ad3d6" x="43.78125" y="120.800932" style="stroke: #000000; stroke-width: 0.8"/>
      </g>
     </g>
     <g id="text_14">
      <!-- 0.8 -->
      <g transform="translate(20.878125 124.600151) scale(0.1 -0.1)">
       <defs>
        <path id="DejaVuSans-38" d="M 2034 2216 
Q 1584 2216 1326 1975 
Q 1069 1734 1069 1313 
Q 1069 891 1326 650 
Q 1584 409 2034 409 
Q 2484 409 2743 651 
Q 3003 894 3003 1313 
Q 3003 1734 2745 1975 
Q 2488 2216 2034 2216 
z
M 1403 2484 
Q 997 2584 770 2862 
Q 544 3141 544 3541 
Q 544 4100 942 4425 
Q 1341 4750 2034 4750 
Q 2731 4750 3128 4425 
Q 3525 4100 3525 3541 
Q 3525 3141 3298 2862 
Q 3072 2584 2669 2484 
Q 3125 2378 3379 2068 
Q 3634 1759 3634 1313 
Q 3634 634 3220 271 
Q 2806 -91 2034 -91 
Q 1263 -91 848 271 
Q 434 634 434 1313 
Q 434 1759 690 2068 
Q 947 2378 1403 2484 
z
M 1172 3481 
Q 1172 3119 1398 2916 
Q 1625 2713 2034 2713 
Q 2441 2713 2670 2916 
Q 2900 3119 2900 3481 
Q 2900 3844 2670 4047 
Q 2441 4250 2034 4250 
Q 1625 4250 1398 4047 
Q 1172 3844 1172 3481 
z
" transform="scale(0.015625)"/>
       </defs>
       <use xlink:href="#DejaVuSans-30"/>
       <use xlink:href="#DejaVuSans-2e" transform="translate(63.623047 0)"/>
       <use xlink:href="#DejaVuSans-38" transform="translate(95.410156 0)"/>
      </g>
     </g>
    </g>
    <g id="ytick_5">
     <g id="line2d_14">
      <g>
       <use xlink:href="#m41159ad3d6" x="43.78125" y="76.03602" style="stroke: #000000; stroke-width: 0.8"/>
      </g>
     </g>
     <g id="text_15">
      <!-- 0.9 -->
      <g transform="translate(20.878125 79.835238) scale(0.1 -0.1)">
       <defs>
        <path id="DejaVuSans-39" d="M 703 97 
L 703 672 
Q 941 559 1184 500 
Q 1428 441 1663 441 
Q 2288 441 2617 861 
Q 2947 1281 2994 2138 
Q 2813 1869 2534 1725 
Q 2256 1581 1919 1581 
Q 1219 1581 811 2004 
Q 403 2428 403 3163 
Q 403 3881 828 4315 
Q 1253 4750 1959 4750 
Q 2769 4750 3195 4129 
Q 3622 3509 3622 2328 
Q 3622 1225 3098 567 
Q 2575 -91 1691 -91 
Q 1453 -91 1209 -44 
Q 966 3 703 97 
z
M 1959 2075 
Q 2384 2075 2632 2365 
Q 2881 2656 2881 3163 
Q 2881 3666 2632 3958 
Q 2384 4250 1959 4250 
Q 1534 4250 1286 3958 
Q 1038 3666 1038 3163 
Q 1038 2656 1286 2365 
Q 1534 2075 1959 2075 
z
" transform="scale(0.015625)"/>
       </defs>
       <use xlink:href="#DejaVuSans-30"/>
       <use xlink:href="#DejaVuSans-2e" transform="translate(63.623047 0)"/>
       <use xlink:href="#DejaVuSans-39" transform="translate(95.410156 0)"/>
      </g>
     </g>
    </g>
    <g id="ytick_6">
     <g id="line2d_15">
      <g>
       <use xlink:href="#m41159ad3d6" x="43.78125" y="31.271107" style="stroke: #000000; stroke-width: 0.8"/>
      </g>
     </g>
     <g id="text_16">
      <!-- 1.0 -->
      <g transform="translate(20.878125 35.070326) scale(0.1 -0.1)">
       <use xlink:href="#DejaVuSans-31"/>
       <use xlink:href="#DejaVuSans-2e" transform="translate(63.623047 0)"/>
       <use xlink:href="#DejaVuSans-30" transform="translate(95.410156 0)"/>
      </g>
     </g>
    </g>
    <g id="text_17">
     <!-- accuracy (held-out) -->
     <g transform="translate(14.798438 198.842656) rotate(-90) scale(0.1 -0.1)">
      <defs>
       <path id="DejaVuSans-63" d="M 3122 3366 
L 3122 2828 
Q 2878 2963 2633 3030 
Q 2388 3097 2138 3097 
Q 1578 3097 1268 2742 
Q 959 2388 959 1747 
Q 959 1106 1268 751 
Q 1578 397 2138 397 
Q 2388 397 2633 464 
Q 2878 531 3122 666 
L 3122 134 
Q 2881 22 2623 -34 
Q 2366 -91 2075 -91 
Q 1284 -91 818 406 
Q 353 903 353 1747 
Q 353 2603 823 3093 
Q 1294 3584 2113 3584 
Q 2378 3584 2631 3529 
Q 2884 3475 3122 3366 
z
" transform="scale(0.015625)"/>
       <path id="DejaVuSans-75" d="M 544 1381 
L 544 3500 
L 1119 3500 
L 1119 1403 
Q 1119 906 1312 657 
Q 1506 409 1894 409 
Q 2359 409 2629 706 
Q 2900 1003 2900 1516 
L 2900 3500 
L 3475 3500 
L 3475 0 
L 2900 0 
L 2900 538 
Q 2691 219 2414 64 
Q 2138 -91 1772 -91 
Q 1169 -91 856 284 
Q 544 659 544 1381 
z
M 1991 3584 
L 1991 3584 
z
" transform="scale(0.015625)"/>
       <path id="DejaVuSans-79" d="M 2059 -325 
Q 1816 -950 1584 -1140 
Q 1353 -1331 966 -1331 
L 506 -1331 
L 506 -850 
L 844 -850 
Q 1081 -850 1212 -737 
Q 1344 -625 1503 -206 
L 1606 56 
L 191 3500 
L 800 3500 
L 1894 763 
L 2988 3500 
L 3597 3500 
L 2059 -325 
z
" transform="scale(0.015625)"/>
       <path id="DejaVuSans-28" d="M 1984 4856 
Q 1566 4138 1362 3434 
Q 1159 2731 1159 2009 
Q 1159 1288 1364 580 
Q 1569 -128 1984 -844 
L 1484 -844 
Q 1016 -109 783 600 
Q 550 1309 550 2009 
Q 550 2706 781 3412 
Q 1013 4119 1484 4856 
L 1984 4856 
z
" transform="scale(0.015625)"/>
       <path id="DejaVuSans-68" d="M 3513 2113 
L 3513 0 
L 2938 0 
L 2938 2094 
Q 2938 2591 2744 2837 
Q 2550 3084 2163 3084 
Q 1697 3084 1428 2787 
Q 1159 2491 1159 1978 
L 1159 0 
L 581 0 
L 581 4863 
L 1159 4863 
L 1159 2956 
Q 1366 3272 1645 3428 
Q 1925 3584 2291 3584 
Q 2894 3584 3203 3211 
Q 3513 2838 3513 2113 
z
" transform="scale(0.015625)"/>
       <path id="DejaVuSans-6c" d="M 603 4863 
L 1178 4863 
L 1178 0 
L 603 0 
L 603 4863 
z
" transform="scale(0.015625)"/>
       <path id="DejaVuSans-64" d="M 2906 2969 
L 2906 4863 
L 3481 4863 
L 3481 0 
L 2906 0 
L 2906 525 
Q 2725 213 2448 61 
Q 2172 -91 1784 -91 
Q 1150 -91 751 415 
Q 353 922 353 1747 
Q 353 2572 751 3078 
Q 1150 3584 1784 3584 
Q 2172 3584 2448 3432 
Q 2725 3281 2906 2969 
z
M 947 1747 
Q 947 1113 1208 752 
Q 1469 391 1925 391 
Q 2381 391 2643 752 
Q 2906 1113 2906 1747 
Q 2906 2381 2643 2742 
Q 2381 3103 1925 3103 
Q 1469 3103 1208 2742 
Q 947 2381 947 1747 
z
" transform="scale(0.015625)"/>
       <path id="DejaVuSans-2d" d="M 313 2009 
L 1997 2009 
L 1997 1497 
L 313 1497 
L 313 2009 
z
" transform="scale(0.015625)"/>
       <path id="DejaVuSans-6f" d="M 1959 3097 
Q 1497 3097 1228 2736 
Q 959 2375 959 1747 
Q 959 1119 1226 758 
Q 1494 397 1959 397 
Q 2419 397 2687 759 
Q 2956 1122 2956 1747 
Q 2956 2369 2687 2733 
Q 2419 3097 1959 3097 
z
M 1959 3584 
Q 2709 3584 3137 3096 
Q 3566 2609 3566 1747 
Q 3566 888 3137 398 
Q 2709 -91 1959 -91 
Q 1206 -91 779 398 
Q 353 888 353 1747 
Q 353 2609 779 3096 
Q 1206 3584 1959 3584 
z
" transform="scale(0.015625)"/>
       <path id="DejaVuSans-29" d="M 513 4856 
L 1013 4856 
Q 1481 4119 1714 3412 
Q 1947 2706 1947 2009 
Q 1947 1309 1714 600 
Q 1481 -109 1013 -844 
L 513 -844 
Q 928 -128 1133 580 
Q 1338 1288 1338 2009 
Q 1338 2731 1133 3434 
Q 928 4138 513 4856 
z
" transform="scale(0.015625)"/>
      </defs>
      <use xlink:href="#DejaVuSans-61"/>
      <use xlink:href="#DejaVuSans-63" transform="translate(61.279297 0)"/>
      <use xlink:href="#DejaVuSans-63" transform="translate(116.259766 0)"/>
      <use xlink:href="#DejaVuSans-75" transform="translate(171.240234 0)"/>
      <use xlink:href="#DejaVuSans-72" transform="translate(234.619141 0)"/>
      <use xlink:href="#DejaVuSans-61" transform="translate(275.732422 0)"/>
      <use xlink:href="#DejaVuSans-63" transform="translate(337.011719 0)"/>
      <use xlink:href="#DejaVuSans-79" transform="translate(391.992188 0)"/>
      <use xlink:href="#DejaVuSans-20" transform="translate(451.171875 0)"/>
      <use xlink:href="#DejaVuSans-28" transform="translate(482.958984 0)"/>
      <use xlink:href="#DejaVuSans-68" transform="translate(521.972656 0)"/>
      <use xlink:href="#DejaVuSans-65" transform="translate(585.351562 0)"/>
      <use xlink:href="#DejaVuSans-6c" transform="translate(646.875 0)"/>
      <use xlink:href="#DejaVuSans-64" transform="translate(674.658203 0)"/>
      <use xlink:href="#DejaVuSans-2d" transform="translate(738.134766 0)"/>
      <use xlink:href="#DejaVuSans-6f" transform="translate(776.09375 0)"/>
      <use xlink:href="#DejaVuSans-75" transform="translate(837.275391 0)"/>
      <use xlink:href="#DejaVuSans-74" transform="translate(900.654297 0)"/>
      <use xlink:href="#DejaVuSans-29" transform="translate(939.863281 0)"/>
     </g>
    </g>
   </g>
   <g id="line2d_16">
    <path d="M 64.030341 252.937204 
L 74.154886 220.751495 
L 84.279432 184.931915 
L 94.403977 199.248818 
L 104.528523 144.549505 
L 114.653068 143.921091 
L 124.777614 119.139734 
L 134.902159 83.183542 
L 145.026705 92.254557 
L 155.15125 64.440421 
L 165.275795 61.216386 
L 175.400341 54.604381 
L 185.524886 44.139927 
L 195.649432 43.894026 
L 205.773977 43.59348 
L 215.898523 57.118036 
L 226.023068 56.4623 
L 236.147614 32.910448 
L 246.272159 32.364001 
L 256.396705 31.817554 
L 266.52125 31.407719 
L 276.645795 45.888556 
L 286.770341 46.134457 
L 296.894886 51.442796 
L 307.019432 37.422536 
L 317.143977 31.39601 
L 327.268523 31.39601 
L 337.393068 39.608323 
L 347.517614 31.302333 
L 357.642159 31.307537 
L 367.766705 87.60976 
L 377.89125 31.325752 
L 388.015795 31.271107 
L 398.140341 31.271107 
L 408.264886 31.271107 
" clip-path="url(#p517de61bed)" style="fill: none; stroke: #000000; stroke-width: 1.5; stroke-linecap: square"/>
    <defs>
     <path id="mc90aea493a" d="M 0 1.5 
C 0.397805 1.5 0.77937 1.341951 1.06066 1.06066 
C 1.341951 0.77937 1.5 0.397805 1.5 0 
C 1.5 -0.397805 1.341951 -0.77937 1.06066 -1.06066 
C 0.77937 -1.341951 0.397805 -1.5 0 -1.5 
C -0.397805 -1.5 -0.77937 -1.341951 -1.06066 -1.06066 
C -1.341951 -0.77937 -1.5 -0.397805 -1.5 0 
C -1.5 0.397805 -1.341951 0.77937 -1.06066 1.06066 
C -0.77937 1.341951 -0.397805 1.5 0 1.5 
z
" style="stroke: #000000"/>
    </defs>
    <g clip-path="url(#p517de61bed)">
     <use xlink:href="#mc90aea493a" x="64.030341" y="252.937204" style="stroke: #000000"/>
     <use xlink:href="#mc90aea493a" x="74.154886" y="220.751495" style="stroke: #000000"/>
     <use xlink:href="#mc90aea493a" x="84.279432" y="184.931915" style="stroke: #000000"/>
     <use xlink:href="#mc90aea493a" x="94.403977" y="199.248818" style="stroke: #000000"/>
     <use xlink:href="#mc90aea493a" x="104.528523" y="144.549505" style="stroke: #000000"/>
     <use xlink:href="#mc90aea493a" x="114.653068" y="143.921091" style="stroke: #000000"/>
     <use xlink:href="#mc90aea493a" x="124.777614" y="119.139734" style="stroke: #000000"/>
     <use xlink:href="#mc90aea493a" x="134.902159" y="83.183542" style="stroke: #000000"/>
     <use xlink:href="#mc90aea493a" x="145.026705" y="92.254557" style="stroke: #000000"/>
     <use xlink:href="#mc90aea493a" x="155.15125" y="64.440421" style="stroke: #000000"/>
     <use xlink:href="#mc90aea493a" x="165.275795" y="61.216386" style="stroke: #000000"/>
     <use xlink:href="#mc90aea493a" x="175.400341" y="54.604381" style="stroke: #000000"/>
     <use xlink:href="#mc90aea493a" x="185.524886" y="44.139927" style="stroke: #000000"/>
     <use xlink:href="#mc90aea493a" x="195.649432" y="43.894026" style="stroke: #000000"/>
     <use xlink:href="#mc90aea493a" x="205.773977" y="43.59348" style="stroke: #000000"/>
     <use xlink:href="#mc90aea493a" x="215.898523" y="57.118036" style="stroke: #000000"/>
     <use xlink:href="#mc90aea493a" x="226.023068" y="56.4623" style="stroke: #000000"/>
     <use xlink:href="#mc90aea493a" x="236.147614" y="32.910448" style="stroke: #000000"/>
     <use xlink:href="#mc90aea493a" x="246.272159" y="32.364001" style="stroke: #000000"/>
     <use xlink:href="#mc90aea493a" x="256.396705" y="31.817554" style="stroke: #000000"/>
     <use xlink:href="#mc90aea493a" x="266.52125" y="31.407719" style="stroke: #000000"/>
     <use xlink:href="#mc90aea493a" x="276.645795" y="45.888556" style="stroke: #000000"/>
     <use xlink:href="#mc90aea493a" x="286.770341" y="46.134457" style="stroke: #000000"/>
     <use xlink:href="#mc90aea493a" x="296.894886" y="51.442796" style="stroke: #000000"/>
     <use xlink:href="#mc90aea493a" x="307.019432" y="37.422536" style="stroke: #000000"/>
     <use xlink:href="#mc90aea493a" x="317.143977" y="31.39601" style="stroke: #000000"/>
     <use xlink:href="#mc90aea493a" x="327.268523" y="31.39601" style="stroke: #000000"/>
     <use xlink:href="#mc90aea493a" x="337.393068" y="39.608323" style="stroke: #000000"/>
     <use xlink:href="#mc90aea493a" x="347.517614" y="31.302333" style="stroke: #000000"/>
     <use xlink:href="#mc90aea493a" x="357.642159" y="31.307537" style="stroke: #000000"/>
     <use xlink:href="#mc90aea493a" x="367.766705" y="87.60976" style="stroke: #000000"/>
     <use xlink:href="#mc90aea493a" x="377.89125" y="31.325752" style="stroke: #000000"/>
     <use xlink:href="#mc90aea493a" x="388.015795" y="31.271107" style="stroke: #000000"/>
     <use xlink:href="#mc90aea493a" x="398.140341" y="31.271107" style="stroke: #000000"/>
     <use xlink:href="#mc90aea493a" x="408.264886" y="31.271107" style="stroke: #000000"/>
    </g>
   </g>
   <g id="line2d_17">
    <path d="M 64.030341 252.937204 
L 74.154886 234.576596 
L 84.279432 204.19416 
L 94.403977 210.997422 
L 104.528523 199.849909 
L 114.653068 197.746089 
L 124.777614 170.751623 
L 134.902159 158.620507 
L 145.026705 164.003007 
L 155.15125 131.434784 
L 165.275795 142.718908 
L 175.400341 125.369226 
L 185.524886 122.36377 
L 195.649432 133.238059 
L 205.773977 102.445788 
L 215.898523 117.910229 
L 226.023068 121.188909 
L 236.147614 100.068745 
L 246.272159 101.025027 
L 256.396705 98.866562 
L 266.52125 91.434887 
L 276.645795 98.292793 
L 286.770341 104.619865 
L 296.894886 108.616732 
L 307.019432 99.498879 
L 317.143977 92.910293 
L 327.268523 85.228814 
L 337.393068 79.764347 
L 347.517614 84.416951 
L 357.642159 81.544202 
L 367.766705 85.541069 
L 377.89125 91.630047 
L 388.015795 88.601171 
L 398.140341 77.266305 
L 408.264886 76.142187 
L 418.389432 77.672237 
L 428.513977 67.180461 
L 438.638523 79.467705 
L 448.763068 67.919465 
L 458.887614 56.225506 
L 469.012159 60.342071 
" clip-path="url(#p517de61bed)" style="fill: none; stroke: #1f77b4; stroke-width: 1.5; stroke-linecap: square"/>
    <defs>
     <path id="m5ea1f8bd89" d="M 0 1.5 
C 0.397805 1.5 0.77937 1.341951 1.06066 1.06066 
C 1.341951 0.77937 1.5 0.397805 1.5 0 
C 1.5 -0.397805 1.341951 -0.77937 1.06066 -1.06066 
C 0.77937 -1.341951 0.397805 -1.5 0 -1.5 
C -0.397805 -1.5 -0.77937 -1.341951 -1.06066 -1.06066 
C -1.341951 -0.77937 -1.5 -0.397805 -1.5 0 
C -1.5 0.397805 -1.341951 0.77937 -1.06066 1.06066 
C -0.77937 1.341951 -0.397805 1.5 0 1.5 
z
" style="stroke: #1f77b4"/>
    </defs>
    <g clip-path="url(#p517de61bed)">
     <use xlink:href="#m5ea1f8bd89" x="64.030341" y="252.937204" style="fill: #1f77b4; stroke: #1f77b4"/>
     <use xlink:href="#m5ea1f8bd89" x="74.154886" y="234.576596" style="fill: #1f77b4; stroke: #1f77b4"/>
     <use xlink:href="#m5ea1f8bd89" x="84.279432" y="204.19416" style="fill: #1f77b4; stroke: #1f77b4"/>
     <use xlink:href="#m5ea1f8bd89" x="94.403977" y="210.997422" style="fill: #1f77b4; stroke: #1f77b4"/>
     <use xlink:href="#m5ea1f8bd89" x="104.528523" y="199.849909" style="fill: #1f77b4; stroke: #1f77b4"/>
     <use xlink:href="#m5ea1f8bd89" x="114.653068" y="197.746089" style="fill: #1f77b4; stroke: #1f77b4"/>
     <use xlink:href="#m5ea1f8bd89" x="124.777614" y="170.751623" style="fill: #1f77b4; stroke: #1f77b4"/>
     <use xlink:href="#m5ea1f8bd89" x="134.902159" y="158.620507" style="fill: #1f77b4; stroke: #1f77b4"/>
     <use xlink:href="#m5ea1f8bd89" x="145.026705" y="164.003007" style="fill: #1f77b4; stroke: #1f77b4"/>
     <use xlink:href="#m5ea1f8bd89" x="155.15125" y="131.434784" style="fill: #1f77b4; stroke: #1f77b4"/>
     <use xlink:href="#m5ea1f8bd89" x="165.275795" y="142.718908" style="fill: #1f77b4; stroke: #1f77b4"/>
     <use xlink:href="#m5ea1f8bd89" x="175.400341" y="125.369226" style="fill: #1f77b4; stroke: #1f77b4"/>
     <use xlink:href="#m5ea1f8bd89" x="185.524886" y="122.36377" style="fill: #1f77b4; stroke: #1f77b4"/>
     <use xlink:href="#m5ea1f8bd89" x="195.649432" y="133.238059" style="fill: #1f77b4; stroke: #1f77b4"/>
     <use xlink:href="#m5ea1f8bd89" x="205.773977" y="102.445788" style="fill: #1f77b4; stroke: #1f77b4"/>
     <use xlink:href="#m5ea1f8bd89" x="215.898523" y="117.910229" style="fill: #1f77b4; stroke: #1f77b4"/>
     <use xlink:href="#m5ea1f8bd89" x="226.023068" y="121.188909" style="fill: #1f77b4; stroke: #1f77b4"/>
     <use xlink:href="#m5ea1f8bd89" x="236.147614" y="100.068745" style="fill: #1f77b4; stroke: #1f77b4"/>
     <use xlink:href="#m5ea1f8bd89" x="246.272159" y="101.025027" style="fill: #1f77b4; stroke: #1f77b4"/>
     <use xlink:href="#m5ea1f8bd89" x="256.396705" y="98.866562" style="fill: #1f77b4; stroke: #1f77b4"/>
     <use xlink:href="#m5ea1f8bd89" x="266.52125" y="91.434887" style="fill: #1f77b4; stroke: #1f77b4"/>
     <use xlink:href="#m5ea1f8bd89" x="276.645795" y="98.292793" style="fill: #1f77b4; stroke: #1f77b4"/>
     <use xlink:href="#m5ea1f8bd89" x="286.770341" y="104.619865" style="fill: #1f77b4; stroke: #1f77b4"/>
     <use xlink:href="#m5ea1f8bd89" x="296.894886" y="108.616732" style="fill: #1f77b4; stroke: #1f77b4"/>
     <use xlink:href="#m5ea1f8bd89" x="307.019432" y="99.498879" style="fill: #1f77b4; stroke: #1f77b4"/>
     <use xlink:href="#m5ea1f8bd89" x="317.143977" y="92.910293" style="fill: #1f77b4; stroke: #1f77b4"/>
     <use xlink:href="#m5ea1f8bd89" x="327.268523" y="85.228814" style="fill: #1f77b4; stroke: #1f77b4"/>
     <use xlink:href="#m5ea1f8bd89" x="337.393068" y="79.764347" style="fill: #1f77b4; stroke: #1f77b4"/>
     <use xlink:href="#m5ea1f8bd89" x="347.517614" y="84.416951" style="fill: #1f77b4; stroke: #1f77b4"/>
     <use xlink:href="#m5ea1f8bd89" x="357.642159" y="81.544202" style="fill: #1f77b4; stroke: #1f77b4"/>
     <use xlink:href="#m5ea1f8bd89" x="367.766705" y="85.541069" style="fill: #1f77b4; stroke: #1f77b4"/>
     <use xlink:href="#m5ea1f8bd89" x="377.89125" y="91.630047" style="fill: #1f77b4; stroke: #1f77b4"/>
     <use xlink:href="#m5ea1f8bd89" x="388.015795" y="88.601171" style="fill: #1f77b4; stroke: #1f77b4"/>
     <use xlink:href="#m5ea1f8bd89" x="398.140341" y="77.266305" style="fill: #1f77b4; stroke: #1f77b4"/>
     <use xlink:href="#m5ea1f8bd89" x="408.264886" y="76.142187" style="fill: #1f77b4; stroke: #1f77b4"/>
     <use xlink:href="#m5ea1f8bd89" x="418.389432" y="77.672237" style="fill: #1f77b4; stroke: #1f77b4"/>
     <use xlink:href="#m5ea1f8bd89" x="428.513977" y="67.180461" style="fill: #1f77b4; stroke: #1f77b4"/>
     <use xlink:href="#m5ea1f8bd89" x="438.638523" y="79.467705" style="fill: #1f77b4; stroke: #1f77b4"/>
     <use xlink:href="#m5ea1f8bd89" x="448.763068" y="67.919465" style="fill: #1f77b4; stroke: #1f77b4"/>
     <use xlink:href="#m5ea1f8bd89" x="458.887614" y="56.225506" style="fill: #1f77b4; stroke: #1f77b4"/>
     <use xlink:href="#m5ea1f8bd89" x="469.012159" y="60.342071" style="fill: #1f77b4; stroke: #1f77b4"/>
    </g>
   </g>
   <g id="line2d_18">
    <path d="M 64.030341 252.937204 
L 74.154886 240.778766 
L 84.279432 212.254249 
L 94.403977 233.511025 
L 104.528523 220.34166 
L 114.653068 209.795239 
L 124.777614 190.642283 
L 134.902159 191.680531 
L 145.026705 181.899136 
L 155.15125 190.287092 
L 165.275795 195.259757 
L 175.400341 166.899174 
L 185.524886 167.254365 
L 195.649432 163.429238 
L 205.773977 186.789833 
L 215.898523 163.647816 
L 226.023068 162.855469 
L 236.147614 154.850025 
L 246.272159 155.533083 
L 256.396705 165.013933 
L 266.52125 156.871878 
L 276.645795 162.746179 
L 286.770341 149.276269 
L 296.894886 148.179472 
L 307.019432 150.021778 
L 317.143977 151.551829 
L 327.268523 146.961677 
L 337.393068 127.139714 
L 347.517614 134.134231 
L 357.642159 121.456668 
L 367.766705 131.292708 
L 377.89125 139.161541 
L 388.015795 150.877357 
L 398.140341 134.877399 
L 408.264886 121.981257 
L 418.389432 111.052323 
L 428.513977 116.385643 
L 438.638523 148.07955 
L 448.763068 110.790029 
L 458.887614 145.500322 
L 469.012159 115.948485 
" clip-path="url(#p517de61bed)" style="fill: none; stroke: #d62728; stroke-width: 1.5; stroke-linecap: square"/>
    <defs>
     <path id="md03a5ba812" d="M 0 1.5 
C 0.397805 1.5 0.77937 1.341951 1.06066 1.06066 
C 1.341951 0.77937 1.5 0.397805 1.5 0 
C 1.5 -0.397805 1.341951 -0.77937 1.06066 -1.06066 
C 0.77937 -1.341951 0.397805 -1.5 0 -1.5 
C -0.397805 -1.5 -0.77937 -1.341951 -1.06066 -1.06066 
C -1.341951 -0.77937 -1.5 -0.397805 -1.5 0 
C -1.5 0.397805 -1.341951 0.77937 -1.06066 1.06066 
C -0.77937 1.341951 -0.397805 1.5 0 1.5 
z
" style="stroke: #d62728"/>
    </defs>
    <g clip-path="url(#p517de61bed)">
     <use xlink:href="#md03a5ba812" x="64.030341" y="252.937204" style="fill: #d62728; stroke: #d62728"/>
     <use xlink:href="#md03a5ba812" x="74.154886" y="240.778766" style="fill: #d62728; stroke: #d62728"/>
     <use xlink:href="#md03a5ba812" x="84.279432" y="212.254249" style="fill: #d62728; stroke: #d62728"/>
     <use xlink:href="#md03a5ba812" x="94.403977" y="233.511025" style="fill: #d62728; stroke: #d62728"/>
     <use xlink:href="#md03a5ba812" x="104.528523" y="220.34166" style="fill: #d62728; stroke: #d62728"/>
     <use xlink:href="#md03a5ba812" x="114.653068" y="209.795239" style="fill: #d62728; stroke: #d62728"/>
     <use xlink:href="#md03a5ba812" x="124.777614" y="190.642283" style="fill: #d62728; stroke: #d62728"/>
     <use xlink:href="#md03a5ba812" x="134.902159" y="191.680531" style="fill: #d62728; stroke: #d62728"/>
     <use xlink:href="#md03a5ba812" x="145.026705" y="181.899136" style="fill: #d62728; stroke: #d62728"/>
     <use xlink:href="#md03a5ba812" x="155.15125" y="190.287092" style="fill: #d62728; stroke: #d62728"/>
     <use xlink:href="#md03a5ba812" x="165.275795" y="195.259757" style="fill: #d62728; stroke: #d62728"/>
     <use xlink:href="#md03a5ba812" x="175.400341" y="166.899174" style="fill: #d62728; stroke: #d62728"/>
     <use xlink:href="#md03a5ba812" x="185.524886" y="167.254365" style="fill: #d62728; stroke: #d62728"/>
     <use xlink:href="#md03a5ba812" x="195.649432" y="163.429238" style="fill: #d62728; stroke: #d62728"/>
     <use xlink:href="#md03a5ba812" x="205.773977" y="186.789833" style="fill: #d62728; stroke: #d62728"/>
     <use xlink:href="#md03a5ba812" x="215.898523" y="163.647816" style="fill: #d62728; stroke: #d62728"/>
     <use xlink:href="#md03a5ba812" x="226.023068" y="162.855469" style="fill: #d62728; stroke: #d62728"/>
     <use xlink:href="#md03a5ba812" x="236.147614" y="154.850025" style="fill: #d62728; stroke: #d62728"/>
     <use xlink:href="#md03a5ba812" x="246.272159" y="155.533083" style="fill: #d62728; stroke: #d62728"/>
     <use xlink:href="#md03a5ba812" x="256.396705" y="165.013933" style="fill: #d62728; stroke: #d62728"/>
     <use xlink:href="#md03a5ba812" x="266.52125" y="156.871878" style="fill: #d62728; stroke: #d62728"/>
     <use xlink:href="#md03a5ba812" x="276.645795" y="162.746179" style="fill: #d62728; stroke: #d62728"/>
     <use xlink:href="#md03a5ba812" x="286.770341" y="149.276269" style="fill: #d62728; stroke: #d62728"/>
     <use xlink:href="#md03a5ba812" x="296.894886" y="148.179472" style="fill: #d62728; stroke: #d62728"/>
     <use xlink:href="#md03a5ba812" x="307.019432" y="150.021778" style="fill: #d62728; stroke: #d62728"/>
     <use xlink:href="#md03a5ba812" x="317.143977" y="151.551829" style="fill: #d62728; stroke: #d62728"/>
     <use xlink:href="#md03a5ba812" x="327.268523" y="146.961677" style="fill: #d62728; stroke: #d62728"/>
     <use xlink:href="#md03a5ba812" x="337.393068" y="127.139714" style="fill: #d62728; stroke: #d62728"/>
     <use xlink:href="#md03a5ba812" x="347.517614" y="134.134231" style="fill: #d62728; stroke: #d62728"/>
     <use xlink:href="#md03a5ba812" x="357.642159" y="121.456668" style="fill: #d62728; stroke: #d62728"/>
     <use xlink:href="#md03a5ba812" x="367.766705" y="131.292708" style="fill: #d62728; stroke: #d62728"/>
     <use xlink:href="#md03a5ba812" x="377.89125" y="139.161541" style="fill: #d62728; stroke: #d62728"/>
     <use xlink:href="#md03a5ba812" x="388.015795" y="150.877357" style="fill: #d62728; stroke: #d62728"/>
     <use xlink:href="#md03a5ba812" x="398.140341" y="134.877399" style="fill: #d62728; stroke: #d62728"/>
     <use xlink:href="#md03a5ba812" x="408.264886" y="121.981257" style="fill: #d62728; stroke: #d62728"/>
     <use xlink:href="#md03a5ba812" x="418.389432" y="111.052323" style="fill: #d62728; stroke: #d62728"/>
     <use xlink:href="#md03a5ba812" x="428.513977" y="116.385643" style="fill: #d62728; stroke: #d62728"/>
     <use xlink:href="#md03a5ba812" x="438.638523" y="148.07955" style="fill: #d62728; stroke: #d62728"/>
     <use xlink:href="#md03a5ba812" x="448.763068" y="110.790029" style="fill: #d62728; stroke: #d62728"/>
     <use xlink:href="#md03a5ba812" x="458.887614" y="145.500322" style="fill: #d62728; stroke: #d62728"/>
     <use xlink:href="#md03a5ba812" x="469.012159" y="115.948485" style="fill: #d62728; stroke: #d62728"/>
    </g>
   </g>
   <g id="line2d_19">
    <path d="M 64.030341 252.937204 
L 74.154886 241.106634 
L 84.279432 212.172282 
L 94.403977 233.838893 
L 104.528523 220.013792 
L 114.653068 209.549338 
L 124.777614 190.505671 
L 134.902159 192.445557 
L 145.026705 182.636839 
L 155.15125 189.166877 
L 165.275795 194.139541 
L 175.400341 164.768032 
L 185.524886 167.090431 
L 195.649432 162.2817 
L 205.773977 183.866344 
L 215.898523 160.751649 
L 226.023068 161.270773 
L 236.147614 153.046751 
L 246.272159 157.25439 
L 256.396705 153.675164 
L 266.52125 158.046738 
L 276.645795 157.008489 
L 286.770341 144.60415 
L 296.894886 149.904682 
L 307.019432 143.101421 
L 317.143977 141.844594 
L 327.268523 140.04132 
L 337.393068 137.773566 
L 347.517614 136.899251 
L 357.642159 133.183414 
L 367.766705 131.38014 
L 377.89125 137.855533 
L 388.015795 129.850089 
L 398.140341 134.768109 
L 408.264886 128.183427 
L 418.389432 122.855572 
L 428.513977 125.946898 
L 438.638523 124.416848 
L 448.763068 128.44494 
L 458.887614 112.644825 
L 469.012159 112.488697 
" clip-path="url(#p517de61bed)" style="fill: none; stroke: #ff7f0e; stroke-width: 1.5; stroke-linecap: square"/>
    <defs>
     <path id="mbfba4e3c2c" d="M 0 1.5 
C 0.397805 1.5 0.77937 1.341951 1.06066 1.06066 
C 1.341951 0.77937 1.5 0.397805 1.5 0 
C 1.5 -0.397805 1.341951 -0.77937 1.06066 -1.06066 
C 0.77937 -1.341951 0.397805 -1.5 0 -1.5 
C -0.397805 -1.5 -0.77937 -1.341951 -1.06066 -1.06066 
C -1.341951 -0.77937 -1.5 -0.397805 -1.5 0 
C -1.5 0.397805 -1.341951 0.77937 -1.06066 1.06066 
C -0.77937 1.341951 -0.397805 1.5 0 1.5 
z
" style="stroke: #ff7f0e"/>
    </defs>
    <g clip-path="url(#p517de61bed)">
     <use xlink:href="#mbfba4e3c2c" x="64.030341" y="252.937204" style="fill: #ff7f0e; stroke: #ff7f0e"/>
     <use xlink:href="#mbfba4e3c2c" x="74.154886" y="241.106634" style="fill: #ff7f0e; stroke: #ff7f0e"/>
     <use xlink:href="#mbfba4e3c2c" x="84.279432" y="212.172282" style="fill: #ff7f0e; stroke: #ff7f0e"/>
     <use xlink:href="#mbfba4e3c2c" x="94.403977" y="233.838893" style="fill: #ff7f0e; stroke: #ff7f0e"/>
     <use xlink:href="#mbfba4e3c2c" x="104.528523" y="220.013792" style="fill: #ff7f0e; stroke: #ff7f0e"/>
     <use xlink:href="#mbfba4e3c2c" x="114.653068" y="209.549338" style="fill: #ff7f0e; stroke: #ff7f0e"/>
     <use xlink:href="#mbfba4e3c2c" x="124.777614" y="190.505671" style="fill: #ff7f0e; stroke: #ff7f0e"/>
     <use xlink:href="#mbfba4e3c2c" x="134.902159" y="192.445557" style="fill: #ff7f0e; stroke: #ff7f0e"/>
     <use xlink:href="#mbfba4e3c2c" x="145.026705" y="182.636839" style="fill: #ff7f0e; stroke: #ff7f0e"/>
     <use xlink:href="#mbfba4e3c2c" x="155.15125" y="189.166877" style="fill: #ff7f0e; stroke: #ff7f0e"/>
     <use xlink:href="#mbfba4e3c2c" x="165.275795" y="194.139541" style="fill: #ff7f0e; stroke: #ff7f0e"/>
     <use xlink:href="#mbfba4e3c2c" x="175.400341" y="164.768032" style="fill: #ff7f0e; stroke: #ff7f0e"/>
     <use xlink:href="#mbfba4e3c2c" x="185.524886" y="167.090431" style="fill: #ff7f0e; stroke: #ff7f0e"/>
     <use xlink:href="#mbfba4e3c2c" x="195.649432" y="162.2817" style="fill: #ff7f0e; stroke: #ff7f0e"/>
     <use xlink:href="#mbfba4e3c2c" x="205.773977" y="183.866344" style="fill: #ff7f0e; stroke: #ff7f0e"/>
     <use xlink:href="#mbfba4e3c2c" x="215.898523" y="160.751649" style="fill: #ff7f0e; stroke: #ff7f0e"/>
     <use xlink:href="#mbfba4e3c2c" x="226.023068" y="161.270773" style="fill: #ff7f0e; stroke: #ff7f0e"/>
     <use xlink:href="#mbfba4e3c2c" x="236.147614" y="153.046751" style="fill: #ff7f0e; stroke: #ff7f0e"/>
     <use xlink:href="#mbfba4e3c2c" x="246.272159" y="157.25439" style="fill: #ff7f0e; stroke: #ff7f0e"/>
     <use xlink:href="#mbfba4e3c2c" x="256.396705" y="153.675164" style="fill: #ff7f0e; stroke: #ff7f0e"/>
     <use xlink:href="#mbfba4e3c2c" x="266.52125" y="158.046738" style="fill: #ff7f0e; stroke: #ff7f0e"/>
     <use xlink:href="#mbfba4e3c2c" x="276.645795" y="157.008489" style="fill: #ff7f0e; stroke: #ff7f0e"/>
     <use xlink:href="#mbfba4e3c2c" x="286.770341" y="144.60415" style="fill: #ff7f0e; stroke: #ff7f0e"/>
     <use xlink:href="#mbfba4e3c2c" x="296.894886" y="149.904682" style="fill: #ff7f0e; stroke: #ff7f0e"/>
     <use xlink:href="#mbfba4e3c2c" x="307.019432" y="143.101421" style="fill: #ff7f0e; stroke: #ff7f0e"/>
     <use xlink:href="#mbfba4e3c2c" x="317.143977" y="141.844594" style="fill: #ff7f0e; stroke: #ff7f0e"/>
     <use xlink:href="#mbfba4e3c2c" x="327.268523" y="140.04132" style="fill: #ff7f0e; stroke: #ff7f0e"/>
     <use xlink:href="#mbfba4e3c2c" x="337.393068" y="137.773566" style="fill: #ff7f0e; stroke: #ff7f0e"/>
     <use xlink:href="#mbfba4e3c2c" x="347.517614" y="136.899251" style="fill: #ff7f0e; stroke: #ff7f0e"/>
     <use xlink:href="#mbfba4e3c2c" x="357.642159" y="133.183414" style="fill: #ff7f0e; stroke: #ff7f0e"/>
     <use xlink:href="#mbfba4e3c2c" x="367.766705" y="131.38014" style="fill: #ff7f0e; stroke: #ff7f0e"/>
     <use xlink:href="#mbfba4e3c2c" x="377.89125" y="137.855533" style="fill: #ff7f0e; stroke: #ff7f0e"/>
     <use xlink:href="#mbfba4e3c2c" x="388.015795" y="129.850089" style="fill: #ff7f0e; stroke: #ff7f0e"/>
     <use xlink:href="#mbfba4e3c2c" x="398.140341" y="134.768109" style="fill: #ff7f0e; stroke: #ff7f0e"/>
     <use xlink:href="#mbfba4e3c2c" x="408.264886" y="128.183427" style="fill: #ff7f0e; stroke: #ff7f0e"/>
     <use xlink:href="#mbfba4e3c2c" x="418.389432" y="122.855572" style="fill: #ff7f0e; stroke: #ff7f0e"/>
     <use xlink:href="#mbfba4e3c2c" x="428.513977" y="125.946898" style="fill: #ff7f0e; stroke: #ff7f0e"/>
     <use xlink:href="#mbfba4e3c2c" x="438.638523" y="124.416848" style="fill: #ff7f0e; stroke: #ff7f0e"/>
     <use xlink:href="#mbfba4e3c2c" x="448.763068" y="128.44494" style="fill: #ff7f0e; stroke: #ff7f0e"/>
     <use xlink:href="#mbfba4e3c2c" x="458.887614" y="112.644825" style="fill: #ff7f0e; stroke: #ff7f0e"/>
     <use xlink:href="#mbfba4e3c2c" x="469.012159" y="112.488697" style="fill: #ff7f0e; stroke: #ff7f0e"/>
    </g>
   </g>
   <g id="line2d_20">
    <path d="M 43.78125 255.095669 
L 489.26125 255.095669 
" clip-path="url(#p517de61bed)" style="fill: none; stroke-dasharray: 5.55,2.4; stroke-dashoffset: 0; stroke: #808080; stroke-width: 1.5"/>
   </g>
   <g id="patch_3">
    <path d="M 43.78125 277.478125 
L 43.78125 22.318125 
" style="fill: none; stroke: #000000; stroke-width: 0.8; stroke-linejoin: miter; stroke-linecap: square"/>
   </g>
   <g id="patch_4">
    <path d="M 489.26125 277.478125 
L 489.26125 22.318125 
" style="fill: none; stroke: #000000; stroke-width: 0.8; stroke-linejoin: miter; stroke-linecap: square"/>
   </g>
   <g id="patch_5">
    <path d="M 43.78125 277.478125 
L 489.26125 277.478125 
" style="fill: none; stroke: #000000; stroke-width: 0.8; stroke-linejoin: miter; stroke-linecap: square"/>
   </g>
   <g id="patch_6">
    <path d="M 43.78125 22.318125 
L 489.26125 22.318125 
" style="fill: none; stroke: #000000; stroke-width: 0.8; stroke-linejoin: miter; stroke-linecap: square"/>
   </g>
   <g id="text_18">
    <!-- Fair-LR learning curves (each method to its own plateau) -->
    <g transform="translate(96.294688 16.318125) scale(0.12 -0.12)">
     <defs>
      <path id="DejaVuSans-46" d="M 628 4666 
L 3309 4666 
L 3309 4134 
L 1259 4134 
L 1259 2759 
L 3109 2759 
L 3109 2228 
L 1259 2228 
L 1259 0 
L 628 0 
L 628 4666 
z
" transform="scale(0.015625)"/>
      <path id="DejaVuSans-4c" d="M 628 4666 
L 1259 4666 
L 1259 531 
L 3531 531 
L 3531 0 
L 628 0 
L 628 4666 
z
" transform="scale(0.015625)"/>
      <path id="DejaVuSans-52" d="M 2841 2188 
Q 3044 2119 3236 1894 
Q 3428 1669 3622 1275 
L 4263 0 
L 3584 0 
L 2988 1197 
Q 2756 1666 2539 1819 
Q 2322 1972 1947 1972 
L 1259 1972 
L 1259 0 
L 628 0 
L 628 4666 
L 2053 4666 
Q 2853 4666 3247 4331 
Q 3641 3997 3641 3322 
Q 3641 2881 3436 2590 
Q 3231 2300 2841 2188 
z
M 1259 4147 
L 1259 2491 
L 2053 2491 
Q 2509 2491 2742 2702 
Q 2975 2913 2975 3322 
Q 2975 3731 2742 3939 
Q 2509 4147 2053 4147 
L 1259 4147 
z
" transform="scale(0.015625)"/>
      <path id="DejaVuSans-76" d="M 191 3500 
L 800 3500 
L 1894 563 
L 2988 3500 
L 3597 3500 
L 2284 0 
L 1503 0 
L 191 3500 
z
" transform="scale(0.015625)"/>
      <path id="DejaVuSans-6d" d="M 3328 2828 
Q 3544 3216 3844 3400 
Q 4144 3584 4550 3584 
Q 5097 3584 5394 3201 
Q 5691 2819 5691 2113 
L 5691 0 
L 5113 0 
L 5113 2094 
Q 5113 2597 4934 2840 
Q 4756 3084 4391 3084 
Q 3944 3084 3684 2787 
Q 3425 2491 3425 1978 
L 3425 0 
L 2847 0 
L 2847 2094 
Q 2847 2600 2669 2842 
Q 2491 3084 2119 3084 
Q 1678 3084 1418 2786 
Q 1159 2488 1159 1978 
L 1159 0 
L 581 0 
L 581 3500 
L 1159 3500 
L 1159 2956 
Q 1356 3278 1631 3431 
Q 1906 3584 2284 3584 
Q 2666 3584 2933 3390 
Q 3200 3197 3328 2828 
z
" transform="scale(0.015625)"/>
      <path id="DejaVuSans-77" d="M 269 3500 
L 844 3500 
L 1563 769 
L 2278 3500 
L 2956 3500 
L 3675 769 
L 4391 3500 
L 4966 3500 
L 4050 0 
L 3372 0 
L 2619 2869 
L 1863 0 
L 1184 0 
L 269 3500 
z
" transform="scale(0.015625)"/>
     </defs>
     <use xlink:href="#DejaVuSans-46"/>
     <use xlink:href="#DejaVuSans-61" transform="translate(48.394531 0)"/>
     <use xlink:href="#DejaVuSans-69" transform="translate(109.673828 0)"/>
     <use xlink:href="#DejaVuSans-72" transform="translate(137.457031 0)"/>
     <use xlink:href="#DejaVuSans-2d" transform="translate(172.195312 0)"/>
     <use xlink:href="#DejaVuSans-4c" transform="translate(208.279297 0)"/>
     <use xlink:href="#DejaVuSans-52" transform="translate(263.992188 0)"/>
     <use xlink:href="#DejaVuSans-20" transform="translate(333.474609 0)"/>
     <use xlink:href="#DejaVuSans-6c" transform="translate(365.261719 0)"/>
     <use xlink:href="#DejaVuSans-65" transform="translate(393.044922 0)"/>
     <use xlink:href="#DejaVuSans-61" transform="translate(454.568359 0)"/>
     <use xlink:href="#DejaVuSans-72" transform="translate(515.847656 0)"/>
     <use xlink:href="#DejaVuSans-6e" transform="translate(555.210938 0)"/>
     <use xlink:href="#DejaVuSans-69" transform="translate(618.589844 0)"/>
     <use xlink:href="#DejaVuSans-6e" transform="translate(646.373047 0)"/>
     <use xlink:href="#DejaVuSans-67" transform="translate(709.751953 0)"/>
     <use xlink:href="#DejaVuSans-20" transform="translate(773.228516 0)"/>
     <use xlink:href="#DejaVuSans-63" transform="translate(805.015625 0)"/>
     <use xlink:href="#DejaVuSans-75" transform="translate(859.996094 0)"/>
     <use xlink:href="#DejaVuSans-72" transform="translate(923.375 0)"/>
     <use xlink:href="#DejaVuSans-76" transform="translate(964.488281 0)"/>
     <use xlink:href="#DejaVuSans-65" transform="translate(1023.667969 0)"/>
     <use xlink:href="#DejaVuSans-73" transform="translate(1085.191406 0)"/>
     <use xlink:href="#DejaVuSans-20" transform="translate(1137.291016 0)"/>
     <use xlink:href="#DejaVuSans-28" transform="translate(1169.078125 0)"/>
     <use xlink:href="#DejaVuSans-65" transform="translate(1208.091797 0)"/>
     <use xlink:href="#DejaVuSans-61" transform="translate(1269.615234 0)"/>
     <use xlink:href="#DejaVuSans-63" transform="translate(1330.894531 0)"/>
     <use xlink:href="#DejaVuSans-68" transform="translate(1385.875 0)"/>
     <use xlink:href="#DejaVuSans-20" transform="translate(1449.253906 0)"/>
     <use xlink:href="#DejaVuSans-6d" transform="translate(1481.041016 0)"/>
     <use xlink:href="#DejaVuSans-65" transform="translate(1578.453125 0)"/>
     <use xlink:href="#DejaVuSans-74" transform="translate(1639.976562 0)"/>
     <use xlink:href="#DejaVuSans-68" transform="translate(1679.185547 0)"/>
     <use xlink:href="#DejaVuSans-6f" transform="translate(1742.564453 0)"/>
     <use xlink:href="#DejaVuSans-64" transform="translate(1803.746094 0)"/>
     <use xlink:href="#DejaVuSans-20" transform="translate(1867.222656 0)"/>
     <use xlink:href="#DejaVuSans-74" transform="translate(1899.009766 0)"/>
     <use xlink:href="#DejaVuSans-6f" transform="translate(1938.21875 0)"/>
     <use xlink:href="#DejaVuSans-20" transform="translate(1999.400391 0)"/>
     <use xlink:href="#DejaVuSans-69" transform="translate(2031.1875 0)"/>
     <use xlink:href="#DejaVuSans-74" transform="translate(2058.970703 0)"/>
     <use xlink:href="#DejaVuSans-73" transform="translate(2098.179688 0)"/>
     <use xlink:href="#DejaVuSans-20" transform="translate(2150.279297 0)"/>
     <use xlink:href="#DejaVuSans-6f" transform="translate(2182.066406 0)"/>
     <use xlink:href="#DejaVuSans-77" transform="translate(2243.248047 0)"/>
     <use xlink:href="#DejaVuSans-6e" transform="translate(2325.035156 0)"/>
     <use xlink:href="#DejaVuSans-20" transform="translate(2388.414062 0)"/>
     <use xlink:href="#DejaVuSans-70" transform="translate(2420.201172 0)"/>
     <use xlink:href="#DejaVuSans-6c" transform="translate(2483.677734 0)"/>
     <use xlink:href="#DejaVuSans-61" transform="translate(2511.460938 0)"/>
     <use xlink:href="#DejaVuSans-74" transform="translate(2572.740234 0)"/>
     <use xlink:href="#DejaVuSans-65" transform="translate(2611.949219 0)"/>
     <use xlink:href="#DejaVuSans-61" transform="translate(2673.472656 0)"/>
     <use xlink:href="#DejaVuSans-75" transform="translate(2734.751953 0)"/>
     <use xlink:href="#DejaVuSans-29" transform="translate(2798.130859 0)"/>
    </g>
   </g>
   <g id="legend_1">
    <g id="patch_7">
     <path d="M 327.12375 273.478125 
L 483.66125 273.478125 
Q 485.26125 273.478125 485.26125 271.878125 
L 485.26125 213.965625 
Q 485.26125 212.365625 483.66125 212.365625 
L 327.12375 212.365625 
Q 325.52375 212.365625 325.52375 213.965625 
L 325.52375 271.878125 
Q 325.52375 273.478125 327.12375 273.478125 
z
" style="fill: #ffffff; opacity: 0.8; stroke: #cccccc; stroke-linejoin: miter"/>
    </g>
    <g id="line2d_21">
     <path d="M 328.72375 218.844375 
L 336.72375 218.844375 
L 344.72375 218.844375 
" style="fill: none; stroke: #000000; stroke-width: 1.5; stroke-linecap: square"/>
     <g>
      <use xlink:href="#mc90aea493a" x="336.72375" y="218.844375" style="stroke: #000000"/>
     </g>
    </g>
    <g id="text_19">
     <!-- BPTT (LR=3.02e-02) -->
     <g transform="translate(351.12375 221.644375) scale(0.08 -0.08)">
      <defs>
       <path id="DejaVuSans-42" d="M 1259 2228 
L 1259 519 
L 2272 519 
Q 2781 519 3026 730 
Q 3272 941 3272 1375 
Q 3272 1813 3026 2020 
Q 2781 2228 2272 2228 
L 1259 2228 
z
M 1259 4147 
L 1259 2741 
L 2194 2741 
Q 2656 2741 2882 2914 
Q 3109 3088 3109 3444 
Q 3109 3797 2882 3972 
Q 2656 4147 2194 4147 
L 1259 4147 
z
M 628 4666 
L 2241 4666 
Q 2963 4666 3353 4366 
Q 3744 4066 3744 3513 
Q 3744 3084 3544 2831 
Q 3344 2578 2956 2516 
Q 3422 2416 3680 2098 
Q 3938 1781 3938 1306 
Q 3938 681 3513 340 
Q 3088 0 2303 0 
L 628 0 
L 628 4666 
z
" transform="scale(0.015625)"/>
       <path id="DejaVuSans-50" d="M 1259 4147 
L 1259 2394 
L 2053 2394 
Q 2494 2394 2734 2622 
Q 2975 2850 2975 3272 
Q 2975 3691 2734 3919 
Q 2494 4147 2053 4147 
L 1259 4147 
z
M 628 4666 
L 2053 4666 
Q 2838 4666 3239 4311 
Q 3641 3956 3641 3272 
Q 3641 2581 3239 2228 
Q 2838 1875 2053 1875 
L 1259 1875 
L 1259 0 
L 628 0 
L 628 4666 
z
" transform="scale(0.015625)"/>
       <path id="DejaVuSans-54" d="M -19 4666 
L 3928 4666 
L 3928 4134 
L 2272 4134 
L 2272 0 
L 1638 0 
L 1638 4134 
L -19 4134 
L -19 4666 
z
" transform="scale(0.015625)"/>
       <path id="DejaVuSans-3d" d="M 678 2906 
L 4684 2906 
L 4684 2381 
L 678 2381 
L 678 2906 
z
M 678 1631 
L 4684 1631 
L 4684 1100 
L 678 1100 
L 678 1631 
z
" transform="scale(0.015625)"/>
      </defs>
      <use xlink:href="#DejaVuSans-42"/>
      <use xlink:href="#DejaVuSans-50" transform="translate(68.603516 0)"/>
      <use xlink:href="#DejaVuSans-54" transform="translate(128.90625 0)"/>
      <use xlink:href="#DejaVuSans-54" transform="translate(188.240234 0)"/>
      <use xlink:href="#DejaVuSans-20" transform="translate(249.324219 0)"/>
      <use xlink:href="#DejaVuSans-28" transform="translate(281.111328 0)"/>
      <use xlink:href="#DejaVuSans-4c" transform="translate(320.125 0)"/>
      <use xlink:href="#DejaVuSans-52" transform="translate(375.837891 0)"/>
      <use xlink:href="#DejaVuSans-3d" transform="translate(445.320312 0)"/>
      <use xlink:href="#DejaVuSans-33" transform="translate(529.109375 0)"/>
      <use xlink:href="#DejaVuSans-2e" transform="translate(592.732422 0)"/>
      <use xlink:href="#DejaVuSans-30" transform="translate(624.519531 0)"/>
      <use xlink:href="#DejaVuSans-32" transform="translate(688.142578 0)"/>
      <use xlink:href="#DejaVuSans-65" transform="translate(751.765625 0)"/>
      <use xlink:href="#DejaVuSans-2d" transform="translate(813.289062 0)"/>
      <use xlink:href="#DejaVuSans-30" transform="translate(849.373047 0)"/>
      <use xlink:href="#DejaVuSans-32" transform="translate(912.996094 0)"/>
      <use xlink:href="#DejaVuSans-29" transform="translate(976.619141 0)"/>
     </g>
    </g>
    <g id="line2d_22">
     <path d="M 328.72375 230.586875 
L 336.72375 230.586875 
L 344.72375 230.586875 
" style="fill: none; stroke: #1f77b4; stroke-width: 1.5; stroke-linecap: square"/>
     <g>
      <use xlink:href="#m5ea1f8bd89" x="336.72375" y="230.586875" style="fill: #1f77b4; stroke: #1f77b4"/>
     </g>
    </g>
    <g id="text_20">
     <!-- deep e-prop (full) (LR=3.50e-02) -->
     <g transform="translate(351.12375 233.386875) scale(0.08 -0.08)">
      <defs>
       <path id="DejaVuSans-66" d="M 2375 4863 
L 2375 4384 
L 1825 4384 
Q 1516 4384 1395 4259 
Q 1275 4134 1275 3809 
L 1275 3500 
L 2222 3500 
L 2222 3053 
L 1275 3053 
L 1275 0 
L 697 0 
L 697 3053 
L 147 3053 
L 147 3500 
L 697 3500 
L 697 3744 
Q 697 4328 969 4595 
Q 1241 4863 1831 4863 
L 2375 4863 
z
" transform="scale(0.015625)"/>
      </defs>
      <use xlink:href="#DejaVuSans-64"/>
      <use xlink:href="#DejaVuSans-65" transform="translate(63.476562 0)"/>
      <use xlink:href="#DejaVuSans-65" transform="translate(125 0)"/>
      <use xlink:href="#DejaVuSans-70" transform="translate(186.523438 0)"/>
      <use xlink:href="#DejaVuSans-20" transform="translate(250 0)"/>
      <use xlink:href="#DejaVuSans-65" transform="translate(281.787109 0)"/>
      <use xlink:href="#DejaVuSans-2d" transform="translate(343.310547 0)"/>
      <use xlink:href="#DejaVuSans-70" transform="translate(379.394531 0)"/>
      <use xlink:href="#DejaVuSans-72" transform="translate(442.871094 0)"/>
      <use xlink:href="#DejaVuSans-6f" transform="translate(481.734375 0)"/>
      <use xlink:href="#DejaVuSans-70" transform="translate(542.916016 0)"/>
      <use xlink:href="#DejaVuSans-20" transform="translate(606.392578 0)"/>
      <use xlink:href="#DejaVuSans-28" transform="translate(638.179688 0)"/>
      <use xlink:href="#DejaVuSans-66" transform="translate(677.193359 0)"/>
      <use xlink:href="#DejaVuSans-75" transform="translate(712.398438 0)"/>
      <use xlink:href="#DejaVuSans-6c" transform="translate(775.777344 0)"/>
      <use xlink:href="#DejaVuSans-6c" transform="translate(803.560547 0)"/>
      <use xlink:href="#DejaVuSans-29" transform="translate(831.34375 0)"/>
      <use xlink:href="#DejaVuSans-20" transform="translate(870.357422 0)"/>
      <use xlink:href="#DejaVuSans-28" transform="translate(902.144531 0)"/>
      <use xlink:href="#DejaVuSans-4c" transform="translate(941.158203 0)"/>
      <use xlink:href="#DejaVuSans-52" transform="translate(996.871094 0)"/>
      <use xlink:href="#DejaVuSans-3d" transform="translate(1066.353516 0)"/>
      <use xlink:href="#DejaVuSans-33" transform="translate(1150.142578 0)"/>
      <use xlink:href="#DejaVuSans-2e" transform="translate(1213.765625 0)"/>
      <use xlink:href="#DejaVuSans-35" transform="translate(1245.552734 0)"/>
      <use xlink:href="#DejaVuSans-30" transform="translate(1309.175781 0)"/>
      <use xlink:href="#DejaVuSans-65" transform="translate(1372.798828 0)"/>
      <use xlink:href="#DejaVuSans-2d" transform="translate(1434.322266 0)"/>
      <use xlink:href="#DejaVuSans-30" transform="translate(1470.40625 0)"/>
      <use xlink:href="#DejaVuSans-32" transform="translate(1534.029297 0)"/>
      <use xlink:href="#DejaVuSans-29" transform="translate(1597.652344 0)"/>
     </g>
    </g>
    <g id="line2d_23">
     <path d="M 328.72375 242.329375 
L 336.72375 242.329375 
L 344.72375 242.329375 
" style="fill: none; stroke: #d62728; stroke-width: 1.5; stroke-linecap: square"/>
     <g>
      <use xlink:href="#md03a5ba812" x="336.72375" y="242.329375" style="fill: #d62728; stroke: #d62728"/>
     </g>
    </g>
    <g id="text_21">
     <!-- ablate temporal (LR=4.00e-02) -->
     <g transform="translate(351.12375 245.129375) scale(0.08 -0.08)">
      <defs>
       <path id="DejaVuSans-62" d="M 3116 1747 
Q 3116 2381 2855 2742 
Q 2594 3103 2138 3103 
Q 1681 3103 1420 2742 
Q 1159 2381 1159 1747 
Q 1159 1113 1420 752 
Q 1681 391 2138 391 
Q 2594 391 2855 752 
Q 3116 1113 3116 1747 
z
M 1159 2969 
Q 1341 3281 1617 3432 
Q 1894 3584 2278 3584 
Q 2916 3584 3314 3078 
Q 3713 2572 3713 1747 
Q 3713 922 3314 415 
Q 2916 -91 2278 -91 
Q 1894 -91 1617 61 
Q 1341 213 1159 525 
L 1159 0 
L 581 0 
L 581 4863 
L 1159 4863 
L 1159 2969 
z
" transform="scale(0.015625)"/>
      </defs>
      <use xlink:href="#DejaVuSans-61"/>
      <use xlink:href="#DejaVuSans-62" transform="translate(61.279297 0)"/>
      <use xlink:href="#DejaVuSans-6c" transform="translate(124.755859 0)"/>
      <use xlink:href="#DejaVuSans-61" transform="translate(152.539062 0)"/>
      <use xlink:href="#DejaVuSans-74" transform="translate(213.818359 0)"/>
      <use xlink:href="#DejaVuSans-65" transform="translate(253.027344 0)"/>
      <use xlink:href="#DejaVuSans-20" transform="translate(314.550781 0)"/>
      <use xlink:href="#DejaVuSans-74" transform="translate(346.337891 0)"/>
      <use xlink:href="#DejaVuSans-65" transform="translate(385.546875 0)"/>
      <use xlink:href="#DejaVuSans-6d" transform="translate(447.070312 0)"/>
      <use xlink:href="#DejaVuSans-70" transform="translate(544.482422 0)"/>
      <use xlink:href="#DejaVuSans-6f" transform="translate(607.958984 0)"/>
      <use xlink:href="#DejaVuSans-72" transform="translate(669.140625 0)"/>
      <use xlink:href="#DejaVuSans-61" transform="translate(710.253906 0)"/>
      <use xlink:href="#DejaVuSans-6c" transform="translate(771.533203 0)"/>
      <use xlink:href="#DejaVuSans-20" transform="translate(799.316406 0)"/>
      <use xlink:href="#DejaVuSans-28" transform="translate(831.103516 0)"/>
      <use xlink:href="#DejaVuSans-4c" transform="translate(870.117188 0)"/>
      <use xlink:href="#DejaVuSans-52" transform="translate(925.830078 0)"/>
      <use xlink:href="#DejaVuSans-3d" transform="translate(995.3125 0)"/>
      <use xlink:href="#DejaVuSans-34" transform="translate(1079.101562 0)"/>
      <use xlink:href="#DejaVuSans-2e" transform="translate(1142.724609 0)"/>
      <use xlink:href="#DejaVuSans-30" transform="translate(1174.511719 0)"/>
      <use xlink:href="#DejaVuSans-30" transform="translate(1238.134766 0)"/>
      <use xlink:href="#DejaVuSans-65" transform="translate(1301.757812 0)"/>
      <use xlink:href="#DejaVuSans-2d" transform="translate(1363.28125 0)"/>
      <use xlink:href="#DejaVuSans-30" transform="translate(1399.365234 0)"/>
      <use xlink:href="#DejaVuSans-32" transform="translate(1462.988281 0)"/>
      <use xlink:href="#DejaVuSans-29" transform="translate(1526.611328 0)"/>
     </g>
    </g>
    <g id="line2d_24">
     <path d="M 328.72375 254.071875 
L 336.72375 254.071875 
L 344.72375 254.071875 
" style="fill: none; stroke: #ff7f0e; stroke-width: 1.5; stroke-linecap: square"/>
     <g>
      <use xlink:href="#mbfba4e3c2c" x="336.72375" y="254.071875" style="fill: #ff7f0e; stroke: #ff7f0e"/>
     </g>
    </g>
    <g id="text_22">
     <!-- ablate spatial (LR=4.01e-02) -->
     <g transform="translate(351.12375 256.871875) scale(0.08 -0.08)">
      <use xlink:href="#DejaVuSans-61"/>
      <use xlink:href="#DejaVuSans-62" transform="translate(61.279297 0)"/>
      <use xlink:href="#DejaVuSans-6c" transform="translate(124.755859 0)"/>
      <use xlink:href="#DejaVuSans-61" transform="translate(152.539062 0)"/>
      <use xlink:href="#DejaVuSans-74" transform="translate(213.818359 0)"/>
      <use xlink:href="#DejaVuSans-65" transform="translate(253.027344 0)"/>
      <use xlink:href="#DejaVuSans-20" transform="translate(314.550781 0)"/>
      <use xlink:href="#DejaVuSans-73" transform="translate(346.337891 0)"/>
      <use xlink:href="#DejaVuSans-70" transform="translate(398.4375 0)"/>
      <use xlink:href="#DejaVuSans-61" transform="translate(461.914062 0)"/>
      <use xlink:href="#DejaVuSans-74" transform="translate(523.193359 0)"/>
      <use xlink:href="#DejaVuSans-69" transform="translate(562.402344 0)"/>
      <use xlink:href="#DejaVuSans-61" transform="translate(590.185547 0)"/>
      <use xlink:href="#DejaVuSans-6c" transform="translate(651.464844 0)"/>
      <use xlink:href="#DejaVuSans-20" transform="translate(679.248047 0)"/>
      <use xlink:href="#DejaVuSans-28" transform="translate(711.035156 0)"/>
      <use xlink:href="#DejaVuSans-4c" transform="translate(750.048828 0)"/>
      <use xlink:href="#DejaVuSans-52" transform="translate(805.761719 0)"/>
      <use xlink:href="#DejaVuSans-3d" transform="translate(875.244141 0)"/>
      <use xlink:href="#DejaVuSans-34" transform="translate(959.033203 0)"/>
      <use xlink:href="#DejaVuSans-2e" transform="translate(1022.65625 0)"/>
      <use xlink:href="#DejaVuSans-30" transform="translate(1054.443359 0)"/>
      <use xlink:href="#DejaVuSans-31" transform="translate(1118.066406 0)"/>
      <use xlink:href="#DejaVuSans-65" transform="translate(1181.689453 0)"/>
      <use xlink:href="#DejaVuSans-2d" transform="translate(1243.212891 0)"/>
      <use xlink:href="#DejaVuSans-30" transform="translate(1279.296875 0)"/>
      <use xlink:href="#DejaVuSans-32" transform="translate(1342.919922 0)"/>
      <use xlink:href="#DejaVuSans-29" transform="translate(1406.542969 0)"/>
     </g>
    </g>
    <g id="line2d_25">
     <path d="M 328.72375 265.814375 
L 336.72375 265.814375 
L 344.72375 265.814375 
" style="fill: none; stroke-dasharray: 5.55,2.4; stroke-dashoffset: 0; stroke: #808080; stroke-width: 1.5"/>
    </g>
    <g id="text_23">
     <!-- chance -->
     <g transform="translate(351.12375 268.614375) scale(0.08 -0.08)">
      <use xlink:href="#DejaVuSans-63"/>
      <use xlink:href="#DejaVuSans-68" transform="translate(54.980469 0)"/>
      <use xlink:href="#DejaVuSans-61" transform="translate(118.359375 0)"/>
      <use xlink:href="#DejaVuSans-6e" transform="translate(179.638672 0)"/>
      <use xlink:href="#DejaVuSans-63" transform="translate(243.017578 0)"/>
      <use xlink:href="#DejaVuSans-65" transform="translate(297.998047 0)"/>
     </g>
    </g>
   </g>
  </g>
 </g>
 <defs>
  <clipPath id="p517de61bed">
   <rect x="43.78125" y="22.318125" width="445.48" height="255.16"/>
  </clipPath>
 </defs>
</svg>
