<?xml version="1.0" encoding="utf-8" standalone="no"?>
<!DOCTYPE svg PUBLIC "-//W3C//DTD SVG 1.1//EN"
  "http://www.w3.org/Graphics/SVG/1.1/DTD/svg11.dtd">
<svg xmlns:xlink="http://www.w3.org/1999/xlink" width="496.46125pt" height="336.634375pt" viewBox="0 0 496.46125 336.634375" xmlns="http://www.w3.org/2000/svg" version="1.1">
 <metadata>
  <rdf:RDF xmlns:dc="http://purl.org/dc/elements/1.1/" xmlns:cc="http://creativecommons.org/ns#" xmlns:rdf="http://www.w3.org/1999/02/22-rdf-syntax-ns#">
   <cc:Work>
    <dc:type rdf:resource="http://purl.org/dc/dcmitype/StillImage"/>
    <dc:date>2026-07-06T23:12:50.691697</dc:date>
    <dc:format>image/svg+xml</dc:format>
    <dc:creator>
     <cc:Agent>
      <dc:title>Matplotlib v3.10.0, https://matplotlib.org/</dc:title>
     </cc:Agent>
    </dc:creator>
   </cc:Work>
  </rdf:RDF>
 </metadata>
 <defs>
  <style type="text/css">*{stroke-linejoin: round; stroke-linecap: butt}</style>
 </defs>
 <g id="figure_1">
  <g id="patch_1">
   <path d="M 0 336.634375 
L 496.46125 336.634375 
L 496.46125 0 
L 0 0 
z
" style="fill: #ffffff"/>
  </g>
  <g id="axes_1">
   <g id="patch_2">
    <path d="M 43.78125 299.078125 
L 489.26125 299.078125 
L 489.26125 22.318125 
L 43.78125 22.318125 
z
" style="fill: #ffffff"/>
   </g>
   <g id="matplotlib.axis_1">
    <g id="xtick_1">
     <g id="line2d_1">
      <defs>
       <path id="m91cccda21d" d="M 0 0 
L 0 3.5 
" style="stroke: #000000; stroke-width: 0.8"/>
      </defs>
      <g>
       <use xlink:href="#m91cccda21d" x="64.030341" y="299.078125" style="stroke: #000000; stroke-width: 0.8"/>
      </g>
     </g>
     <g id="text_1">
      <!-- 0 -->
      <g transform="translate(60.849091 313.676562) scale(0.1 -0.1)">
       <defs>
        <path id="DejaVuSans-30" d="M 2034 4250 
Q 1547 4250 1301 3770 
Q 1056 3291 1056 2328 
Q 1056 1369 1301 889 
Q 1547 409 2034 409 
Q 2525 409 2770 889 
Q 3016 1369 3016 2328 
Q 3016 3291 2770 3770 
Q 2525 4250 2034 4250 
z
M 2034 4750 
Q 2819 4750 3233 4129 
Q 3647 3509 3647 2328 
Q 3647 1150 3233 529 
Q 2819 -91 2034 -91 
Q 1250 -91 836 529 
Q 422 1150 422 2328 
Q 422 3509 836 4129 
Q 1250 4750 2034 4750 
z
" transform="scale(0.015625)"/>
       </defs>
       <use xlink:href="#DejaVuSans-30"/>
      </g>
     </g>
    </g>
    <g id="xtick_2">
     <g id="line2d_2">
      <g>
       <use xlink:href="#m91cccda21d" x="156.071663" y="299.078125" style="stroke: #000000; stroke-width: 0.8"/>
      </g>
     </g>
     <g id="text_2">
      <!-- 500 -->
      <g transform="translate(146.527913 313.676562) scale(0.1 -0.1)">
       <defs>
        <path id="DejaVuSans-35" d="M 691 4666 
L 3169 4666 
L 3169 4134 
L 1269 4134 
L 1269 2991 
Q 1406 3038 1543 3061 
Q 1681 3084 1819 3084 
Q 2600 3084 3056 2656 
Q 3513 2228 3513 1497 
Q 3513 744 3044 326 
Q 2575 -91 1722 -91 
Q 1428 -91 1123 -41 
Q 819 9 494 109 
L 494 744 
Q 775 591 1075 516 
Q 1375 441 1709 441 
Q 2250 441 2565 725 
Q 2881 1009 2881 1497 
Q 2881 1984 2565 2268 
Q 2250 2553 1709 2553 
Q 1456 2553 1204 2497 
Q 953 2441 691 2322 
L 691 4666 
z
" transform="scale(0.015625)"/>
       </defs>
       <use xlink:href="#DejaVuSans-35"/>
       <use xlink:href="#DejaVuSans-30" transform="translate(63.623047 0)"/>
       <use xlink:href="#DejaVuSans-30" transform="translate(127.246094 0)"/>
      </g>
     </g>
    </g>
    <g id="xtick_3">
     <g id="line2d_3">
      <g>
       <use xlink:href="#m91cccda21d" x="248.112986" y="299.078125" style="stroke: #000000; stroke-width: 0.8"/>
      </g>
     </g>
     <g id="text_3">
      <!-- 1000 -->
      <g transform="translate(235.387986 313.676562) scale(0.1 -0.1)">
       <defs>
        <path id="DejaVuSans-31" d="M 794 531 
L 1825 531 
L 1825 4091 
L 703 3866 
L 703 4441 
L 1819 4666 
L 2450 4666 
L 2450 531 
L 3481 531 
L 3481 0 
L 794 0 
L 794 531 
z
" transform="scale(0.015625)"/>
       </defs>
       <use xlink:href="#DejaVuSans-31"/>
       <use xlink:href="#DejaVuSans-30" transform="translate(63.623047 0)"/>
       <use xlink:href="#DejaVuSans-30" transform="translate(127.246094 0)"/>
       <use xlink:href="#DejaVuSans-30" transform="translate(190.869141 0)"/>
      </g>
     </g>
    </g>
    <g id="xtick_4">
     <g id="line2d_4">
      <g>
       <use xlink:href="#m91cccda21d" x="340.154308" y="299.078125" style="stroke: #000000; stroke-width: 0.8"/>
      </g>
     </g>
     <g id="text_4">
      <!-- 1500 -->
      <g transform="translate(327.429308 313.676562) scale(0.1 -0.1)">
       <use xlink:href="#DejaVuSans-31"/>
       <use xlink:href="#DejaVuSans-35" transform="translate(63.623047 0)"/>
       <use xlink:href="#DejaVuSans-30" transform="translate(127.246094 0)"/>
       <use xlink:href="#DejaVuSans-30" transform="translate(190.869141 0)"/>
      </g>
     </g>
    </g>
    <g id="xtick_5">
     <g id="line2d_5">
      <g>
       <use xlink:href="#m91cccda21d" x="432.19563" y="299.078125" style="stroke: #000000; stroke-width: 0.8"/>
      </g>
     </g>
     <g id="text_5">
      <!-- 2000 -->
      <g transform="translate(419.47063 313.676562) scale(0.1 -0.1)">
       <defs>
        <path id="DejaVuSans-32" d="M 1228 531 
L 3431 531 
L 3431 0 
L 469 0 
L 469 531 
Q 828 903 1448 1529 
Q 2069 2156 2228 2338 
Q 2531 2678 2651 2914 
Q 2772 3150 2772 3378 
Q 2772 3750 2511 3984 
Q 2250 4219 1831 4219 
Q 1534 4219 1204 4116 
Q 875 4013 500 3803 
L 500 4441 
Q 881 4594 1212 4672 
Q 1544 4750 1819 4750 
Q 2544 4750 2975 4387 
Q 3406 4025 3406 3419 
Q 3406 3131 3298 2873 
Q 3191 2616 2906 2266 
Q 2828 2175 2409 1742 
Q 1991 1309 1228 531 
z
" transform="scale(0.015625)"/>
       </defs>
       <use xlink:href="#DejaVuSans-32"/>
       <use xlink:href="#DejaVuSans-30" transform="translate(63.623047 0)"/>
       <use xlink:href="#DejaVuSans-30" transform="translate(127.246094 0)"/>
       <use xlink:href="#DejaVuSans-30" transform="translate(190.869141 0)"/>
      </g>
     </g>
    </g>
    <g id="text_6">
     <!-- training step -->
     <g transform="translate(234.747031 327.354687) scale(0.1 -0.1)">
      <defs>
       <path id="DejaVuSans-74" d="M 1172 4494 
L 1172 3500 
L 2356 3500 
L 2356 3053 
L 1172 3053 
L 1172 1153 
Q 1172 725 1289 603 
Q 1406 481 1766 481 
L 2356 481 
L 2356 0 
L 1766 0 
Q 1100 0 847 248 
Q 594 497 594 1153 
L 594 3053 
L 172 3053 
L 172 3500 
L 594 3500 
L 594 4494 
L 1172 4494 
z
" transform="scale(0.015625)"/>
       <path id="DejaVuSans-72" d="M 2631 2963 
Q 2534 3019 2420 3045 
Q 2306 3072 2169 3072 
Q 1681 3072 1420 2755 
Q 1159 2438 1159 1844 
L 1159 0 
L 581 0 
L 581 3500 
L 1159 3500 
L 1159 2956 
Q 1341 3275 1631 3429 
Q 1922 3584 2338 3584 
Q 2397 3584 2469 3576 
Q 2541 3569 2628 3553 
L 2631 2963 
z
" transform="scale(0.015625)"/>
       <path id="DejaVuSans-61" d="M 2194 1759 
Q 1497 1759 1228 1600 
Q 959 1441 959 1056 
Q 959 750 1161 570 
Q 1363 391 1709 391 
Q 2188 391 2477 730 
Q 2766 1069 2766 1631 
L 2766 1759 
L 2194 1759 
z
M 3341 1997 
L 3341 0 
L 2766 0 
L 2766 531 
Q 2569 213 2275 61 
Q 1981 -91 1556 -91 
Q 1019 -91 701 211 
Q 384 513 384 1019 
Q 384 1609 779 1909 
Q 1175 2209 1959 2209 
L 2766 2209 
L 2766 2266 
Q 2766 2663 2505 2880 
Q 2244 3097 1772 3097 
Q 1472 3097 1187 3025 
Q 903 2953 641 2809 
L 641 3341 
Q 956 3463 1253 3523 
Q 1550 3584 1831 3584 
Q 2591 3584 2966 3190 
Q 3341 2797 3341 1997 
z
" transform="scale(0.015625)"/>
       <path id="DejaVuSans-69" d="M 603 3500 
L 1178 3500 
L 1178 0 
L 603 0 
L 603 3500 
z
M 603 4863 
L 1178 4863 
L 1178 4134 
L 603 4134 
L 603 4863 
z
" transform="scale(0.015625)"/>
       <path id="DejaVuSans-6e" d="M 3513 2113 
L 3513 0 
L 2938 0 
L 2938 2094 
Q 2938 2591 2744 2837 
Q 2550 3084 2163 3084 
Q 1697 3084 1428 2787 
Q 1159 2491 1159 1978 
L 1159 0 
L 581 0 
L 581 3500 
L 1159 3500 
L 1159 2956 
Q 1366 3272 1645 3428 
Q 1925 3584 2291 3584 
Q 2894 3584 3203 3211 
Q 3513 2838 3513 2113 
z
" transform="scale(0.015625)"/>
       <path id="DejaVuSans-67" d="M 2906 1791 
Q 2906 2416 2648 2759 
Q 2391 3103 1925 3103 
Q 1463 3103 1205 2759 
Q 947 2416 947 1791 
Q 947 1169 1205 825 
Q 1463 481 1925 481 
Q 2391 481 2648 825 
Q 2906 1169 2906 1791 
z
M 3481 434 
Q 3481 -459 3084 -895 
Q 2688 -1331 1869 -1331 
Q 1566 -1331 1297 -1286 
Q 1028 -1241 775 -1147 
L 775 -588 
Q 1028 -725 1275 -790 
Q 1522 -856 1778 -856 
Q 2344 -856 2625 -561 
Q 2906 -266 2906 331 
L 2906 616 
Q 2728 306 2450 153 
Q 2172 0 1784 0 
Q 1141 0 747 490 
Q 353 981 353 1791 
Q 353 2603 747 3093 
Q 1141 3584 1784 3584 
Q 2172 3584 2450 3431 
Q 2728 3278 2906 2969 
L 2906 3500 
L 3481 3500 
L 3481 434 
z
" transform="scale(0.015625)"/>
       <path id="DejaVuSans-20" transform="scale(0.015625)"/>
       <path id="DejaVuSans-73" d="M 2834 3397 
L 2834 2853 
Q 2591 2978 2328 3040 
Q 2066 3103 1784 3103 
Q 1356 3103 1142 2972 
Q 928 2841 928 2578 
Q 928 2378 1081 2264 
Q 1234 2150 1697 2047 
L 1894 2003 
Q 2506 1872 2764 1633 
Q 3022 1394 3022 966 
Q 3022 478 2636 193 
Q 2250 -91 1575 -91 
Q 1294 -91 989 -36 
Q 684 19 347 128 
L 347 722 
Q 666 556 975 473 
Q 1284 391 1588 391 
Q 1994 391 2212 530 
Q 2431 669 2431 922 
Q 2431 1156 2273 1281 
Q 2116 1406 1581 1522 
L 1381 1569 
Q 847 1681 609 1914 
Q 372 2147 372 2553 
Q 372 3047 722 3315 
Q 1072 3584 1716 3584 
Q 2034 3584 2315 3537 
Q 2597 3491 2834 3397 
z
" transform="scale(0.015625)"/>
       <path id="DejaVuSans-65" d="M 3597 1894 
L 3597 1613 
L 953 1613 
Q 991 1019 1311 708 
Q 1631 397 2203 397 
Q 2534 397 2845 478 
Q 3156 559 3463 722 
L 3463 178 
Q 3153 47 2828 -22 
Q 2503 -91 2169 -91 
Q 1331 -91 842 396 
Q 353 884 353 1716 
Q 353 2575 817 3079 
Q 1281 3584 2069 3584 
Q 2775 3584 3186 3129 
Q 3597 2675 3597 1894 
z
M 3022 2063 
Q 3016 2534 2758 2815 
Q 2500 3097 2075 3097 
Q 1594 3097 1305 2825 
Q 1016 2553 972 2059 
L 3022 2063 
z
" transform="scale(0.015625)"/>
       <path id="DejaVuSans-70" d="M 1159 525 
L 1159 -1331 
L 581 -1331 
L 581 3500 
L 1159 3500 
L 1159 2969 
Q 1341 3281 1617 3432 
Q 1894 3584 2278 3584 
Q 2916 3584 3314 3078 
Q 3713 2572 3713 1747 
Q 3713 922 3314 415 
Q 2916 -91 2278 -91 
Q 1894 -91 1617 61 
Q 1341 213 1159 525 
z
M 3116 1747 
Q 3116 2381 2855 2742 
Q 2594 3103 2138 3103 
Q 1681 3103 1420 2742 
Q 1159 2381 1159 1747 
Q 1159 1113 1420 752 
Q 1681 391 2138 391 
Q 2594 391 2855 752 
Q 3116 1113 3116 1747 
z
" transform="scale(0.015625)"/>
      </defs>
      <use xlink:href="#DejaVuSans-74"/>
      <use xlink:href="#DejaVuSans-72" transform="translate(39.208984 0)"/>
      <use xlink:href="#DejaVuSans-61" transform="translate(80.322266 0)"/>
      <use xlink:href="#DejaVuSans-69" transform="translate(141.601562 0)"/>
      <use xlink:href="#DejaVuSans-6e" transform="translate(169.384766 0)"/>
      <use xlink:href="#DejaVuSans-69" transform="translate(232.763672 0)"/>
      <use xlink:href="#DejaVuSans-6e" transform="translate(260.546875 0)"/>
      <use xlink:href="#DejaVuSans-67" transform="translate(323.925781 0)"/>
      <use xlink:href="#DejaVuSans-20" transform="translate(387.402344 0)"/>
      <use xlink:href="#DejaVuSans-73" transform="translate(419.189453 0)"/>
      <use xlink:href="#DejaVuSans-74" transform="translate(471.289062 0)"/>
      <use xlink:href="#DejaVuSans-65" transform="translate(510.498047 0)"/>
      <use xlink:href="#DejaVuSans-70" transform="translate(572.021484 0)"/>
     </g>
    </g>
   </g>
   <g id="matplotlib.axis_2">
    <g id="ytick_1">
     <g id="line2d_6">
      <defs>
       <path id="m67f8530c8d" d="M 0 0 
L -3.5 0 
" style="stroke: #000000; stroke-width: 0.8"/>
      </defs>
      <g>
       <use xlink:href="#m67f8530c8d" x="43.78125" y="299.078125" style="stroke: #000000; stroke-width: 0.8"/>
      </g>
     </g>
     <g id="text_7">
      <!-- 0.4 -->
      <g transform="translate(20.878125 302.877344) scale(0.1 -0.1)">
       <defs>
        <path id="DejaVuSans-2e" d="M 684 794 
L 1344 794 
L 1344 0 
L 684 0 
L 684 794 
z
" transform="scale(0.015625)"/>
        <path id="DejaVuSans-34" d="M 2419 4116 
L 825 1625 
L 2419 1625 
L 2419 4116 
z
M 2253 4666 
L 3047 4666 
L 3047 1625 
L 3713 1625 
L 3713 1100 
L 3047 1100 
L 3047 0 
L 2419 0 
L 2419 1100 
L 313 1100 
L 313 1709 
L 2253 4666 
z
" transform="scale(0.015625)"/>
       </defs>
       <use xlink:href="#DejaVuSans-30"/>
       <use xlink:href="#DejaVuSans-2e" transform="translate(63.623047 0)"/>
       <use xlink:href="#DejaVuSans-34" transform="translate(95.410156 0)"/>
      </g>
     </g>
    </g>
    <g id="ytick_2">
     <g id="line2d_7">
      <g>
       <use xlink:href="#m67f8530c8d" x="43.78125" y="254.439415" style="stroke: #000000; stroke-width: 0.8"/>
      </g>
     </g>
     <g id="text_8">
      <!-- 0.5 -->
      <g transform="translate(20.878125 258.238634) scale(0.1 -0.1)">
       <use xlink:href="#DejaVuSans-30"/>
       <use xlink:href="#DejaVuSans-2e" transform="translate(63.623047 0)"/>
       <use xlink:href="#DejaVuSans-35" transform="translate(95.410156 0)"/>
      </g>
     </g>
    </g>
    <g id="ytick_3">
     <g id="line2d_8">
      <g>
       <use xlink:href="#m67f8530c8d" x="43.78125" y="209.800706" style="stroke: #000000; stroke-width: 0.8"/>
      </g>
     </g>
     <g id="text_9">
      <!-- 0.6 -->
      <g transform="translate(20.878125 213.599924) scale(0.1 -0.1)">
       <defs>
        <path id="DejaVuSans-36" d="M 2113 2584 
Q 1688 2584 1439 2293 
Q 1191 2003 1191 1497 
Q 1191 994 1439 701 
Q 1688 409 2113 409 
Q 2538 409 2786 701 
Q 3034 994 3034 1497 
Q 3034 2003 2786 2293 
Q 2538 2584 2113 2584 
z
M 3366 4563 
L 3366 3988 
Q 3128 4100 2886 4159 
Q 2644 4219 2406 4219 
Q 1781 4219 1451 3797 
Q 1122 3375 1075 2522 
Q 1259 2794 1537 2939 
Q 1816 3084 2150 3084 
Q 2853 3084 3261 2657 
Q 3669 2231 3669 1497 
Q 3669 778 3244 343 
Q 2819 -91 2113 -91 
Q 1303 -91 875 529 
Q 447 1150 447 2328 
Q 447 3434 972 4092 
Q 1497 4750 2381 4750 
Q 2619 4750 2861 4703 
Q 3103 4656 3366 4563 
z
" transform="scale(0.015625)"/>
       </defs>
       <use xlink:href="#DejaVuSans-30"/>
       <use xlink:href="#DejaVuSans-2e" transform="translate(63.623047 0)"/>
       <use xlink:href="#DejaVuSans-36" transform="translate(95.410156 0)"/>
      </g>
     </g>
    </g>
    <g id="ytick_4">
     <g id="line2d_9">
      <g>
       <use xlink:href="#m67f8530c8d" x="43.78125" y="165.161996" style="stroke: #000000; stroke-width: 0.8"/>
      </g>
     </g>
     <g id="text_10">
      <!-- 0.7 -->
      <g transform="translate(20.878125 168.961215) scale(0.1 -0.1)">
       <defs>
        <path id="DejaVuSans-37" d="M 525 4666 
L 3525 4666 
L 3525 4397 
L 1831 0 
L 1172 0 
L 2766 4134 
L 525 4134 
L 525 4666 
z
" transform="scale(0.015625)"/>
       </defs>
       <use xlink:href="#DejaVuSans-30"/>
       <use xlink:href="#DejaVuSans-2e" transform="translate(63.623047 0)"/>
       <use xlink:href="#DejaVuSans-37" transform="translate(95.410156 0)"/>
      </g>
     </g>
    </g>
    <g id="ytick_5">
     <g id="line2d_10">
      <g>
       <use xlink:href="#m67f8530c8d" x="43.78125" y="120.523286" style="stroke: #000000; stroke-width: 0.8"/>
      </g>
     </g>
     <g id="text_11">
      <!-- 0.8 -->
      <g transform="translate(20.878125 124.322505) scale(0.1 -0.1)">
       <defs>
        <path id="DejaVuSans-38" d="M 2034 2216 
Q 1584 2216 1326 1975 
Q 1069 1734 1069 1313 
Q 1069 891 1326 650 
Q 1584 409 2034 409 
Q 2484 409 2743 651 
Q 3003 894 3003 1313 
Q 3003 1734 2745 1975 
Q 2488 2216 2034 2216 
z
M 1403 2484 
Q 997 2584 770 2862 
Q 544 3141 544 3541 
Q 544 4100 942 4425 
Q 1341 4750 2034 4750 
Q 2731 4750 3128 4425 
Q 3525 4100 3525 3541 
Q 3525 3141 3298 2862 
Q 3072 2584 2669 2484 
Q 3125 2378 3379 2068 
Q 3634 1759 3634 1313 
Q 3634 634 3220 271 
Q 2806 -91 2034 -91 
Q 1263 -91 848 271 
Q 434 634 434 1313 
Q 434 1759 690 2068 
Q 947 2378 1403 2484 
z
M 1172 3481 
Q 1172 3119 1398 2916 
Q 1625 2713 2034 2713 
Q 2441 2713 2670 2916 
Q 2900 3119 2900 3481 
Q 2900 3844 2670 4047 
Q 2441 4250 2034 4250 
Q 1625 4250 1398 4047 
Q 1172 3844 1172 3481 
z
" transform="scale(0.015625)"/>
       </defs>
       <use xlink:href="#DejaVuSans-30"/>
       <use xlink:href="#DejaVuSans-2e" transform="translate(63.623047 0)"/>
       <use xlink:href="#DejaVuSans-38" transform="translate(95.410156 0)"/>
      </g>
     </g>
    </g>
    <g id="ytick_6">
     <g id="line2d_11">
      <g>
       <use xlink:href="#m67f8530c8d" x="43.78125" y="75.884577" style="stroke: #000000; stroke-width: 0.8"/>
      </g>
     </g>
     <g id="text_12">
      <!-- 0.9 -->
      <g transform="translate(20.878125 79.683795) scale(0.1 -0.1)">
       <defs>
        <path id="DejaVuSans-39" d="M 703 97 
L 703 672 
Q 941 559 1184 500 
Q 1428 441 1663 441 
Q 2288 441 2617 861 
Q 2947 1281 2994 2138 
Q 2813 1869 2534 1725 
Q 2256 1581 1919 1581 
Q 1219 1581 811 2004 
Q 403 2428 403 3163 
Q 403 3881 828 4315 
Q 1253 4750 1959 4750 
Q 2769 4750 3195 4129 
Q 3622 3509 3622 2328 
Q 3622 1225 3098 567 
Q 2575 -91 1691 -91 
Q 1453 -91 1209 -44 
Q 966 3 703 97 
z
M 1959 2075 
Q 2384 2075 2632 2365 
Q 2881 2656 2881 3163 
Q 2881 3666 2632 3958 
Q 2384 4250 1959 4250 
Q 1534 4250 1286 3958 
Q 1038 3666 1038 3163 
Q 1038 2656 1286 2365 
Q 1534 2075 1959 2075 
z
" transform="scale(0.015625)"/>
       </defs>
       <use xlink:href="#DejaVuSans-30"/>
       <use xlink:href="#DejaVuSans-2e" transform="translate(63.623047 0)"/>
       <use xlink:href="#DejaVuSans-39" transform="translate(95.410156 0)"/>
      </g>
     </g>
    </g>
    <g id="ytick_7">
     <g id="line2d_12">
      <g>
       <use xlink:href="#m67f8530c8d" x="43.78125" y="31.245867" style="stroke: #000000; stroke-width: 0.8"/>
      </g>
     </g>
     <g id="text_13">
      <!-- 1.0 -->
      <g transform="translate(20.878125 35.045086) scale(0.1 -0.1)">
       <use xlink:href="#DejaVuSans-31"/>
       <use xlink:href="#DejaVuSans-2e" transform="translate(63.623047 0)"/>
       <use xlink:href="#DejaVuSans-30" transform="translate(95.410156 0)"/>
      </g>
     </g>
    </g>
    <g id="text_14">
     <!-- accuracy (held-out) -->
     <g transform="translate(14.798438 209.642656) rotate(-90) scale(0.1 -0.1)">
      <defs>
       <path id="DejaVuSans-63" d="M 3122 3366 
L 3122 2828 
Q 2878 2963 2633 3030 
Q 2388 3097 2138 3097 
Q 1578 3097 1268 2742 
Q 959 2388 959 1747 
Q 959 1106 1268 751 
Q 1578 397 2138 397 
Q 2388 397 2633 464 
Q 2878 531 3122 666 
L 3122 134 
Q 2881 22 2623 -34 
Q 2366 -91 2075 -91 
Q 1284 -91 818 406 
Q 353 903 353 1747 
Q 353 2603 823 3093 
Q 1294 3584 2113 3584 
Q 2378 3584 2631 3529 
Q 2884 3475 3122 3366 
z
" transform="scale(0.015625)"/>
       <path id="DejaVuSans-75" d="M 544 1381 
L 544 3500 
L 1119 3500 
L 1119 1403 
Q 1119 906 1312 657 
Q 1506 409 1894 409 
Q 2359 409 2629 706 
Q 2900 1003 2900 1516 
L 2900 3500 
L 3475 3500 
L 3475 0 
L 2900 0 
L 2900 538 
Q 2691 219 2414 64 
Q 2138 -91 1772 -91 
Q 1169 -91 856 284 
Q 544 659 544 1381 
z
M 1991 3584 
L 1991 3584 
z
" transform="scale(0.015625)"/>
       <path id="DejaVuSans-79" d="M 2059 -325 
Q 1816 -950 1584 -1140 
Q 1353 -1331 966 -1331 
L 506 -1331 
L 506 -850 
L 844 -850 
Q 1081 -850 1212 -737 
Q 1344 -625 1503 -206 
L 1606 56 
L 191 3500 
L 800 3500 
L 1894 763 
L 2988 3500 
L 3597 3500 
L 2059 -325 
z
" transform="scale(0.015625)"/>
       <path id="DejaVuSans-28" d="M 1984 4856 
Q 1566 4138 1362 3434 
Q 1159 2731 1159 2009 
Q 1159 1288 1364 580 
Q 1569 -128 1984 -844 
L 1484 -844 
Q 1016 -109 783 600 
Q 550 1309 550 2009 
Q 550 2706 781 3412 
Q 1013 4119 1484 4856 
L 1984 4856 
z
" transform="scale(0.015625)"/>
       <path id="DejaVuSans-68" d="M 3513 2113 
L 3513 0 
L 2938 0 
L 2938 2094 
Q 2938 2591 2744 2837 
Q 2550 3084 2163 3084 
Q 1697 3084 1428 2787 
Q 1159 2491 1159 1978 
L 1159 0 
L 581 0 
L 581 4863 
L 1159 4863 
L 1159 2956 
Q 1366 3272 1645 3428 
Q 1925 3584 2291 3584 
Q 2894 3584 3203 3211 
Q 3513 2838 3513 2113 
z
" transform="scale(0.015625)"/>
       <path id="DejaVuSans-6c" d="M 603 4863 
L 1178 4863 
L 1178 0 
L 603 0 
L 603 4863 
z
" transform="scale(0.015625)"/>
       <path id="DejaVuSans-64" d="M 2906 2969 
L 2906 4863 
L 3481 4863 
L 3481 0 
L 2906 0 
L 2906 525 
Q 2725 213 2448 61 
Q 2172 -91 1784 -91 
Q 1150 -91 751 415 
Q 353 922 353 1747 
Q 353 2572 751 3078 
Q 1150 3584 1784 3584 
Q 2172 3584 2448 3432 
Q 2725 3281 2906 2969 
z
M 947 1747 
Q 947 1113 1208 752 
Q 1469 391 1925 391 
Q 2381 391 2643 752 
Q 2906 1113 2906 1747 
Q 2906 2381 2643 2742 
Q 2381 3103 1925 3103 
Q 1469 3103 1208 2742 
Q 947 2381 947 1747 
z
" transform="scale(0.015625)"/>
       <path id="DejaVuSans-2d" d="M 313 2009 
L 1997 2009 
L 1997 1497 
L 313 1497 
L 313 2009 
z
" transform="scale(0.015625)"/>
       <path id="DejaVuSans-6f" d="M 1959 3097 
Q 1497 3097 1228 2736 
Q 959 2375 959 1747 
Q 959 1119 1226 758 
Q 1494 397 1959 397 
Q 2419 397 2687 759 
Q 2956 1122 2956 1747 
Q 2956 2369 2687 2733 
Q 2419 3097 1959 3097 
z
M 1959 3584 
Q 2709 3584 3137 3096 
Q 3566 2609 3566 1747 
Q 3566 888 3137 398 
Q 2709 -91 1959 -91 
Q 1206 -91 779 398 
Q 353 888 353 1747 
Q 353 2609 779 3096 
Q 1206 3584 1959 3584 
z
" transform="scale(0.015625)"/>
       <path id="DejaVuSans-29" d="M 513 4856 
L 1013 4856 
Q 1481 4119 1714 3412 
Q 1947 2706 1947 2009 
Q 1947 1309 1714 600 
Q 1481 -109 1013 -844 
L 513 -844 
Q 928 -128 1133 580 
Q 1338 1288 1338 2009 
Q 1338 2731 1133 3434 
Q 928 4138 513 4856 
z
" transform="scale(0.015625)"/>
      </defs>
      <use xlink:href="#DejaVuSans-61"/>
      <use xlink:href="#DejaVuSans-63" transform="translate(61.279297 0)"/>
      <use xlink:href="#DejaVuSans-63" transform="translate(116.259766 0)"/>
      <use xlink:href="#DejaVuSans-75" transform="translate(171.240234 0)"/>
      <use xlink:href="#DejaVuSans-72" transform="translate(234.619141 0)"/>
      <use xlink:href="#DejaVuSans-61" transform="translate(275.732422 0)"/>
      <use xlink:href="#DejaVuSans-63" transform="translate(337.011719 0)"/>
      <use xlink:href="#DejaVuSans-79" transform="translate(391.992188 0)"/>
      <use xlink:href="#DejaVuSans-20" transform="translate(451.171875 0)"/>
      <use xlink:href="#DejaVuSans-28" transform="translate(482.958984 0)"/>
      <use xlink:href="#DejaVuSans-68" transform="translate(521.972656 0)"/>
      <use xlink:href="#DejaVuSans-65" transform="translate(585.351562 0)"/>
      <use xlink:href="#DejaVuSans-6c" transform="translate(646.875 0)"/>
      <use xlink:href="#DejaVuSans-64" transform="translate(674.658203 0)"/>
      <use xlink:href="#DejaVuSans-2d" transform="translate(738.134766 0)"/>
      <use xlink:href="#DejaVuSans-6f" transform="translate(776.09375 0)"/>
      <use xlink:href="#DejaVuSans-75" transform="translate(837.275391 0)"/>
      <use xlink:href="#DejaVuSans-74" transform="translate(900.654297 0)"/>
      <use xlink:href="#DejaVuSans-29" transform="translate(939.863281 0)"/>
     </g>
    </g>
   </g>
   <g id="line2d_13">
    <path d="M 64.030341 252.287036 
L 82.438605 58.191475 
L 100.84687 32.362924 
L 119.255134 31.709037 
L 137.663399 31.736282 
L 156.071663 31.327603 
L 174.479928 31.300358 
L 192.888192 31.327603 
L 211.296457 31.300358 
L 229.704721 31.273112 
L 248.112986 31.436584 
L 266.52125 31.245867 
L 284.929514 31.300358 
L 303.337779 31.354848 
L 321.746043 31.300358 
L 340.154308 31.273112 
L 358.562572 31.245867 
L 376.970837 31.273112 
L 395.379101 31.245867 
L 413.787366 31.245867 
L 432.19563 31.245867 
L 450.603895 31.436584 
L 469.012159 31.245867 
" clip-path="url(#p3bb9b2c30f)" style="fill: none; stroke: #000000; stroke-width: 1.5; stroke-linecap: square"/>
    <defs>
     <path id="mf0d7cc1330" d="M 0 1.5 
C 0.397805 1.5 0.77937 1.341951 1.06066 1.06066 
C 1.341951 0.77937 1.5 0.397805 1.5 0 
C 1.5 -0.397805 1.341951 -0.77937 1.06066 -1.06066 
C 0.77937 -1.341951 0.397805 -1.5 0 -1.5 
C -0.397805 -1.5 -0.77937 -1.341951 -1.06066 -1.06066 
C -1.341951 -0.77937 -1.5 -0.397805 -1.5 0 
C -1.5 0.397805 -1.341951 0.77937 -1.06066 1.06066 
C -0.77937 1.341951 -0.397805 1.5 0 1.5 
z
" style="stroke: #000000"/>
    </defs>
    <g clip-path="url(#p3bb9b2c30f)">
     <use xlink:href="#mf0d7cc1330" x="64.030341" y="252.287036" style="stroke: #000000"/>
     <use xlink:href="#mf0d7cc1330" x="82.438605" y="58.191475" style="stroke: #000000"/>
     <use xlink:href="#mf0d7cc1330" x="100.84687" y="32.362924" style="stroke: #000000"/>
     <use xlink:href="#mf0d7cc1330" x="119.255134" y="31.709037" style="stroke: #000000"/>
     <use xlink:href="#mf0d7cc1330" x="137.663399" y="31.736282" style="stroke: #000000"/>
     <use xlink:href="#mf0d7cc1330" x="156.071663" y="31.327603" style="stroke: #000000"/>
     <use xlink:href="#mf0d7cc1330" x="174.479928" y="31.300358" style="stroke: #000000"/>
     <use xlink:href="#mf0d7cc1330" x="192.888192" y="31.327603" style="stroke: #000000"/>
     <use xlink:href="#mf0d7cc1330" x="211.296457" y="31.300358" style="stroke: #000000"/>
     <use xlink:href="#mf0d7cc1330" x="229.704721" y="31.273112" style="stroke: #000000"/>
     <use xlink:href="#mf0d7cc1330" x="248.112986" y="31.436584" style="stroke: #000000"/>
     <use xlink:href="#mf0d7cc1330" x="266.52125" y="31.245867" style="stroke: #000000"/>
     <use xlink:href="#mf0d7cc1330" x="284.929514" y="31.300358" style="stroke: #000000"/>
     <use xlink:href="#mf0d7cc1330" x="303.337779" y="31.354848" style="stroke: #000000"/>
     <use xlink:href="#mf0d7cc1330" x="321.746043" y="31.300358" style="stroke: #000000"/>
     <use xlink:href="#mf0d7cc1330" x="340.154308" y="31.273112" style="stroke: #000000"/>
     <use xlink:href="#mf0d7cc1330" x="358.562572" y="31.245867" style="stroke: #000000"/>
     <use xlink:href="#mf0d7cc1330" x="376.970837" y="31.273112" style="stroke: #000000"/>
     <use xlink:href="#mf0d7cc1330" x="395.379101" y="31.245867" style="stroke: #000000"/>
     <use xlink:href="#mf0d7cc1330" x="413.787366" y="31.245867" style="stroke: #000000"/>
     <use xlink:href="#mf0d7cc1330" x="432.19563" y="31.245867" style="stroke: #000000"/>
     <use xlink:href="#mf0d7cc1330" x="450.603895" y="31.436584" style="stroke: #000000"/>
     <use xlink:href="#mf0d7cc1330" x="469.012159" y="31.245867" style="stroke: #000000"/>
    </g>
   </g>
   <g id="line2d_14">
    <path d="M 64.030341 252.287036 
L 82.438605 140.581281 
L 100.84687 84.646667 
L 119.255134 70.206655 
L 137.663399 48.328674 
L 156.071663 38.847307 
L 174.479928 34.406322 
L 192.888192 32.580887 
L 211.296457 32.226698 
L 229.704721 35.496135 
L 248.112986 32.199453 
L 266.52125 31.736282 
L 284.929514 31.927 
L 303.337779 31.463829 
L 321.746043 31.409339 
L 340.154308 31.436584 
L 358.562572 31.436584 
L 376.970837 31.382093 
L 395.379101 31.736282 
L 413.787366 31.927 
L 432.19563 31.436584 
L 450.603895 31.436584 
L 469.012159 31.409339 
" clip-path="url(#p3bb9b2c30f)" style="fill: none; stroke: #1f77b4; stroke-width: 1.5; stroke-linecap: square"/>
    <defs>
     <path id="m404b4c279d" d="M 0 1.5 
C 0.397805 1.5 0.77937 1.341951 1.06066 1.06066 
C 1.341951 0.77937 1.5 0.397805 1.5 0 
C 1.5 -0.397805 1.341951 -0.77937 1.06066 -1.06066 
C 0.77937 -1.341951 0.397805 -1.5 0 -1.5 
C -0.397805 -1.5 -0.77937 -1.341951 -1.06066 -1.06066 
C -1.341951 -0.77937 -1.5 -0.397805 -1.5 0 
C -1.5 0.397805 -1.341951 0.77937 -1.06066 1.06066 
C -0.77937 1.341951 -0.397805 1.5 0 1.5 
z
" style="stroke: #1f77b4"/>
    </defs>
    <g clip-path="url(#p3bb9b2c30f)">
     <use xlink:href="#m404b4c279d" x="64.030341" y="252.287036" style="fill: #1f77b4; stroke: #1f77b4"/>
     <use xlink:href="#m404b4c279d" x="82.438605" y="140.581281" style="fill: #1f77b4; stroke: #1f77b4"/>
     <use xlink:href="#m404b4c279d" x="100.84687" y="84.646667" style="fill: #1f77b4; stroke: #1f77b4"/>
     <use xlink:href="#m404b4c279d" x="119.255134" y="70.206655" style="fill: #1f77b4; stroke: #1f77b4"/>
     <use xlink:href="#m404b4c279d" x="137.663399" y="48.328674" style="fill: #1f77b4; stroke: #1f77b4"/>
     <use xlink:href="#m404b4c279d" x="156.071663" y="38.847307" style="fill: #1f77b4; stroke: #1f77b4"/>
     <use xlink:href="#m404b4c279d" x="174.479928" y="34.406322" style="fill: #1f77b4; stroke: #1f77b4"/>
     <use xlink:href="#m404b4c279d" x="192.888192" y="32.580887" style="fill: #1f77b4; stroke: #1f77b4"/>
     <use xlink:href="#m404b4c279d" x="211.296457" y="32.226698" style="fill: #1f77b4; stroke: #1f77b4"/>
     <use xlink:href="#m404b4c279d" x="229.704721" y="35.496135" style="fill: #1f77b4; stroke: #1f77b4"/>
     <use xlink:href="#m404b4c279d" x="248.112986" y="32.199453" style="fill: #1f77b4; stroke: #1f77b4"/>
     <use xlink:href="#m404b4c279d" x="266.52125" y="31.736282" style="fill: #1f77b4; stroke: #1f77b4"/>
     <use xlink:href="#m404b4c279d" x="284.929514" y="31.927" style="fill: #1f77b4; stroke: #1f77b4"/>
     <use xlink:href="#m404b4c279d" x="303.337779" y="31.463829" style="fill: #1f77b4; stroke: #1f77b4"/>
     <use xlink:href="#m404b4c279d" x="321.746043" y="31.409339" style="fill: #1f77b4; stroke: #1f77b4"/>
     <use xlink:href="#m404b4c279d" x="340.154308" y="31.436584" style="fill: #1f77b4; stroke: #1f77b4"/>
     <use xlink:href="#m404b4c279d" x="358.562572" y="31.436584" style="fill: #1f77b4; stroke: #1f77b4"/>
     <use xlink:href="#m404b4c279d" x="376.970837" y="31.382093" style="fill: #1f77b4; stroke: #1f77b4"/>
     <use xlink:href="#m404b4c279d" x="395.379101" y="31.736282" style="fill: #1f77b4; stroke: #1f77b4"/>
     <use xlink:href="#m404b4c279d" x="413.787366" y="31.927" style="fill: #1f77b4; stroke: #1f77b4"/>
     <use xlink:href="#m404b4c279d" x="432.19563" y="31.436584" style="fill: #1f77b4; stroke: #1f77b4"/>
     <use xlink:href="#m404b4c279d" x="450.603895" y="31.436584" style="fill: #1f77b4; stroke: #1f77b4"/>
     <use xlink:href="#m404b4c279d" x="469.012159" y="31.409339" style="fill: #1f77b4; stroke: #1f77b4"/>
    </g>
   </g>
   <g id="line2d_15">
    <path d="M 64.030341 252.287036 
L 82.438605 191.421022 
L 100.84687 161.478431 
L 119.255134 131.263386 
L 137.663399 99.577095 
L 156.071663 72.004845 
L 174.479928 51.870564 
L 192.888192 41.626329 
L 211.296457 37.675759 
L 229.704721 36.8584 
L 248.112986 34.433568 
L 266.52125 34.815002 
L 284.929514 33.588963 
L 303.337779 33.806926 
L 321.746043 32.580887 
L 340.154308 33.207529 
L 358.562572 32.008736 
L 376.970837 32.39017 
L 395.379101 32.253943 
L 413.787366 31.98149 
L 432.19563 32.253943 
L 450.603895 31.736282 
L 469.012159 31.818018 
" clip-path="url(#p3bb9b2c30f)" style="fill: none; stroke: #d62728; stroke-width: 1.5; stroke-linecap: square"/>
    <defs>
     <path id="m0a1b37bdf1" d="M 0 1.5 
C 0.397805 1.5 0.77937 1.341951 1.06066 1.06066 
C 1.341951 0.77937 1.5 0.397805 1.5 0 
C 1.5 -0.397805 1.341951 -0.77937 1.06066 -1.06066 
C 0.77937 -1.341951 0.397805 -1.5 0 -1.5 
C -0.397805 -1.5 -0.77937 -1.341951 -1.06066 -1.06066 
C -1.341951 -0.77937 -1.5 -0.397805 -1.5 0 
C -1.5 0.397805 -1.341951 0.77937 -1.06066 1.06066 
C -0.77937 1.341951 -0.397805 1.5 0 1.5 
z
" style="stroke: #d62728"/>
    </defs>
    <g clip-path="url(#p3bb9b2c30f)">
     <use xlink:href="#m0a1b37bdf1" x="64.030341" y="252.287036" style="fill: #d62728; stroke: #d62728"/>
     <use xlink:href="#m0a1b37bdf1" x="82.438605" y="191.421022" style="fill: #d62728; stroke: #d62728"/>
     <use xlink:href="#m0a1b37bdf1" x="100.84687" y="161.478431" style="fill: #d62728; stroke: #d62728"/>
     <use xlink:href="#m0a1b37bdf1" x="119.255134" y="131.263386" style="fill: #d62728; stroke: #d62728"/>
     <use xlink:href="#m0a1b37bdf1" x="137.663399" y="99.577095" style="fill: #d62728; stroke: #d62728"/>
     <use xlink:href="#m0a1b37bdf1" x="156.071663" y="72.004845" style="fill: #d62728; stroke: #d62728"/>
     <use xlink:href="#m0a1b37bdf1" x="174.479928" y="51.870564" style="fill: #d62728; stroke: #d62728"/>
     <use xlink:href="#m0a1b37bdf1" x="192.888192" y="41.626329" style="fill: #d62728; stroke: #d62728"/>
     <use xlink:href="#m0a1b37bdf1" x="211.296457" y="37.675759" style="fill: #d62728; stroke: #d62728"/>
     <use xlink:href="#m0a1b37bdf1" x="229.704721" y="36.8584" style="fill: #d62728; stroke: #d62728"/>
     <use xlink:href="#m0a1b37bdf1" x="248.112986" y="34.433568" style="fill: #d62728; stroke: #d62728"/>
     <use xlink:href="#m0a1b37bdf1" x="266.52125" y="34.815002" style="fill: #d62728; stroke: #d62728"/>
     <use xlink:href="#m0a1b37bdf1" x="284.929514" y="33.588963" style="fill: #d62728; stroke: #d62728"/>
     <use xlink:href="#m0a1b37bdf1" x="303.337779" y="33.806926" style="fill: #d62728; stroke: #d62728"/>
     <use xlink:href="#m0a1b37bdf1" x="321.746043" y="32.580887" style="fill: #d62728; stroke: #d62728"/>
     <use xlink:href="#m0a1b37bdf1" x="340.154308" y="33.207529" style="fill: #d62728; stroke: #d62728"/>
     <use xlink:href="#m0a1b37bdf1" x="358.562572" y="32.008736" style="fill: #d62728; stroke: #d62728"/>
     <use xlink:href="#m0a1b37bdf1" x="376.970837" y="32.39017" style="fill: #d62728; stroke: #d62728"/>
     <use xlink:href="#m0a1b37bdf1" x="395.379101" y="32.253943" style="fill: #d62728; stroke: #d62728"/>
     <use xlink:href="#m0a1b37bdf1" x="413.787366" y="31.98149" style="fill: #d62728; stroke: #d62728"/>
     <use xlink:href="#m0a1b37bdf1" x="432.19563" y="32.253943" style="fill: #d62728; stroke: #d62728"/>
     <use xlink:href="#m0a1b37bdf1" x="450.603895" y="31.736282" style="fill: #d62728; stroke: #d62728"/>
     <use xlink:href="#m0a1b37bdf1" x="469.012159" y="31.818018" style="fill: #d62728; stroke: #d62728"/>
    </g>
   </g>
   <g id="line2d_16">
    <path d="M 64.030341 252.287036 
L 82.438605 207.332281 
L 100.84687 170.605608 
L 119.255134 129.901121 
L 137.663399 98.623509 
L 156.071663 62.142044 
L 174.479928 49.854411 
L 192.888192 41.571838 
L 211.296457 37.539533 
L 229.704721 35.768588 
L 248.112986 35.06021 
L 266.52125 34.624285 
L 284.929514 34.079379 
L 303.337779 33.915907 
L 321.746043 33.425491 
L 340.154308 33.398246 
L 358.562572 33.153038 
L 376.970837 32.935076 
L 395.379101 32.717113 
L 413.787366 32.689868 
L 432.19563 32.417415 
L 450.603895 32.308434 
L 469.012159 32.335679 
" clip-path="url(#p3bb9b2c30f)" style="fill: none; stroke: #ff7f0e; stroke-width: 1.5; stroke-linecap: square"/>
    <defs>
     <path id="m0708c1d631" d="M 0 1.5 
C 0.397805 1.5 0.77937 1.341951 1.06066 1.06066 
C 1.341951 0.77937 1.5 0.397805 1.5 0 
C 1.5 -0.397805 1.341951 -0.77937 1.06066 -1.06066 
C 0.77937 -1.341951 0.397805 -1.5 0 -1.5 
C -0.397805 -1.5 -0.77937 -1.341951 -1.06066 -1.06066 
C -1.341951 -0.77937 -1.5 -0.397805 -1.5 0 
C -1.5 0.397805 -1.341951 0.77937 -1.06066 1.06066 
C -0.77937 1.341951 -0.397805 1.5 0 1.5 
z
" style="stroke: #ff7f0e"/>
    </defs>
    <g clip-path="url(#p3bb9b2c30f)">
     <use xlink:href="#m0708c1d631" x="64.030341" y="252.287036" style="fill: #ff7f0e; stroke: #ff7f0e"/>
     <use xlink:href="#m0708c1d631" x="82.438605" y="207.332281" style="fill: #ff7f0e; stroke: #ff7f0e"/>
     <use xlink:href="#m0708c1d631" x="100.84687" y="170.605608" style="fill: #ff7f0e; stroke: #ff7f0e"/>
     <use xlink:href="#m0708c1d631" x="119.255134" y="129.901121" style="fill: #ff7f0e; stroke: #ff7f0e"/>
     <use xlink:href="#m0708c1d631" x="137.663399" y="98.623509" style="fill: #ff7f0e; stroke: #ff7f0e"/>
     <use xlink:href="#m0708c1d631" x="156.071663" y="62.142044" style="fill: #ff7f0e; stroke: #ff7f0e"/>
     <use xlink:href="#m0708c1d631" x="174.479928" y="49.854411" style="fill: #ff7f0e; stroke: #ff7f0e"/>
     <use xlink:href="#m0708c1d631" x="192.888192" y="41.571838" style="fill: #ff7f0e; stroke: #ff7f0e"/>
     <use xlink:href="#m0708c1d631" x="211.296457" y="37.539533" style="fill: #ff7f0e; stroke: #ff7f0e"/>
     <use xlink:href="#m0708c1d631" x="229.704721" y="35.768588" style="fill: #ff7f0e; stroke: #ff7f0e"/>
     <use xlink:href="#m0708c1d631" x="248.112986" y="35.06021" style="fill: #ff7f0e; stroke: #ff7f0e"/>
     <use xlink:href="#m0708c1d631" x="266.52125" y="34.624285" style="fill: #ff7f0e; stroke: #ff7f0e"/>
     <use xlink:href="#m0708c1d631" x="284.929514" y="34.079379" style="fill: #ff7f0e; stroke: #ff7f0e"/>
     <use xlink:href="#m0708c1d631" x="303.337779" y="33.915907" style="fill: #ff7f0e; stroke: #ff7f0e"/>
     <use xlink:href="#m0708c1d631" x="321.746043" y="33.425491" style="fill: #ff7f0e; stroke: #ff7f0e"/>
     <use xlink:href="#m0708c1d631" x="340.154308" y="33.398246" style="fill: #ff7f0e; stroke: #ff7f0e"/>
     <use xlink:href="#m0708c1d631" x="358.562572" y="33.153038" style="fill: #ff7f0e; stroke: #ff7f0e"/>
     <use xlink:href="#m0708c1d631" x="376.970837" y="32.935076" style="fill: #ff7f0e; stroke: #ff7f0e"/>
     <use xlink:href="#m0708c1d631" x="395.379101" y="32.717113" style="fill: #ff7f0e; stroke: #ff7f0e"/>
     <use xlink:href="#m0708c1d631" x="413.787366" y="32.689868" style="fill: #ff7f0e; stroke: #ff7f0e"/>
     <use xlink:href="#m0708c1d631" x="432.19563" y="32.417415" style="fill: #ff7f0e; stroke: #ff7f0e"/>
     <use xlink:href="#m0708c1d631" x="450.603895" y="32.308434" style="fill: #ff7f0e; stroke: #ff7f0e"/>
     <use xlink:href="#m0708c1d631" x="469.012159" y="32.335679" style="fill: #ff7f0e; stroke: #ff7f0e"/>
    </g>
   </g>
   <g id="line2d_17">
    <path d="M 43.78125 254.439415 
L 489.26125 254.439415 
" clip-path="url(#p3bb9b2c30f)" style="fill: none; stroke-dasharray: 2.96,1.28; stroke-dashoffset: 0; stroke: #808080; stroke-width: 0.8"/>
   </g>
   <g id="line2d_18">
    <path d="M 100.84687 272.294899 
L 192.888192 272.294899 
" clip-path="url(#p3bb9b2c30f)" style="fill: none; stroke: #9467bd; stroke-width: 4"/>
   </g>
   <g id="line2d_19"/>
   <g id="line2d_20">
    <path d="M 82.438605 280.329867 
L 137.663399 280.329867 
" clip-path="url(#p3bb9b2c30f)" style="fill: none; stroke: #8c564b; stroke-width: 4"/>
   </g>
   <g id="line2d_21">
    <path d="M 303.337779 280.329867 
L 358.562572 280.329867 
" clip-path="url(#p3bb9b2c30f)" style="fill: none; stroke: #8c564b; stroke-width: 4"/>
   </g>
   <g id="line2d_22"/>
   <g id="line2d_23"/>
   <g id="patch_3">
    <path d="M 43.78125 299.078125 
L 43.78125 22.318125 
" style="fill: none; stroke: #000000; stroke-width: 0.8; stroke-linejoin: miter; stroke-linecap: square"/>
   </g>
   <g id="patch_4">
    <path d="M 489.26125 299.078125 
L 489.26125 22.318125 
" style="fill: none; stroke: #000000; stroke-width: 0.8; stroke-linejoin: miter; stroke-linecap: square"/>
   </g>
   <g id="patch_5">
    <path d="M 43.78125 299.078125 
L 489.26125 299.078125 
" style="fill: none; stroke: #000000; stroke-width: 0.8; stroke-linejoin: miter; stroke-linecap: square"/>
   </g>
   <g id="patch_6">
    <path d="M 43.78125 22.318125 
L 489.26125 22.318125 
" style="fill: none; stroke: #000000; stroke-width: 0.8; stroke-linejoin: miter; stroke-linecap: square"/>
   </g>
   <g id="text_15">
    <!-- Where convergence-speed gaps are significant (cluster permutation) -->
    <g transform="translate(59.44625 16.318125) scale(0.12 -0.12)">
     <defs>
      <path id="DejaVuSans-57" d="M 213 4666 
L 850 4666 
L 1831 722 
L 2809 4666 
L 3519 4666 
L 4500 722 
L 5478 4666 
L 6119 4666 
L 4947 0 
L 4153 0 
L 3169 4050 
L 2175 0 
L 1381 0 
L 213 4666 
z
" transform="scale(0.015625)"/>
      <path id="DejaVuSans-76" d="M 191 3500 
L 800 3500 
L 1894 563 
L 2988 3500 
L 3597 3500 
L 2284 0 
L 1503 0 
L 191 3500 
z
" transform="scale(0.015625)"/>
      <path id="DejaVuSans-66" d="M 2375 4863 
L 2375 4384 
L 1825 4384 
Q 1516 4384 1395 4259 
Q 1275 4134 1275 3809 
L 1275 3500 
L 2222 3500 
L 2222 3053 
L 1275 3053 
L 1275 0 
L 697 0 
L 697 3053 
L 147 3053 
L 147 3500 
L 697 3500 
L 697 3744 
Q 697 4328 969 4595 
Q 1241 4863 1831 4863 
L 2375 4863 
z
" transform="scale(0.015625)"/>
      <path id="DejaVuSans-6d" d="M 3328 2828 
Q 3544 3216 3844 3400 
Q 4144 3584 4550 3584 
Q 5097 3584 5394 3201 
Q 5691 2819 5691 2113 
L 5691 0 
L 5113 0 
L 5113 2094 
Q 5113 2597 4934 2840 
Q 4756 3084 4391 3084 
Q 3944 3084 3684 2787 
Q 3425 2491 3425 1978 
L 3425 0 
L 2847 0 
L 2847 2094 
Q 2847 2600 2669 2842 
Q 2491 3084 2119 3084 
Q 1678 3084 1418 2786 
Q 1159 2488 1159 1978 
L 1159 0 
L 581 0 
L 581 3500 
L 1159 3500 
L 1159 2956 
Q 1356 3278 1631 3431 
Q 1906 3584 2284 3584 
Q 2666 3584 2933 3390 
Q 3200 3197 3328 2828 
z
" transform="scale(0.015625)"/>
     </defs>
     <use xlink:href="#DejaVuSans-57"/>
     <use xlink:href="#DejaVuSans-68" transform="translate(98.876953 0)"/>
     <use xlink:href="#DejaVuSans-65" transform="translate(162.255859 0)"/>
     <use xlink:href="#DejaVuSans-72" transform="translate(223.779297 0)"/>
     <use xlink:href="#DejaVuSans-65" transform="translate(262.642578 0)"/>
     <use xlink:href="#DejaVuSans-20" transform="translate(324.166016 0)"/>
     <use xlink:href="#DejaVuSans-63" transform="translate(355.953125 0)"/>
     <use xlink:href="#DejaVuSans-6f" transform="translate(410.933594 0)"/>
     <use xlink:href="#DejaVuSans-6e" transform="translate(472.115234 0)"/>
     <use xlink:href="#DejaVuSans-76" transform="translate(535.494141 0)"/>
     <use xlink:href="#DejaVuSans-65" transform="translate(594.673828 0)"/>
     <use xlink:href="#DejaVuSans-72" transform="translate(656.197266 0)"/>
     <use xlink:href="#DejaVuSans-67" transform="translate(695.560547 0)"/>
     <use xlink:href="#DejaVuSans-65" transform="translate(759.037109 0)"/>
     <use xlink:href="#DejaVuSans-6e" transform="translate(820.560547 0)"/>
     <use xlink:href="#DejaVuSans-63" transform="translate(883.939453 0)"/>
     <use xlink:href="#DejaVuSans-65" transform="translate(938.919922 0)"/>
     <use xlink:href="#DejaVuSans-2d" transform="translate(1000.443359 0)"/>
     <use xlink:href="#DejaVuSans-73" transform="translate(1036.527344 0)"/>
     <use xlink:href="#DejaVuSans-70" transform="translate(1088.626953 0)"/>
     <use xlink:href="#DejaVuSans-65" transform="translate(1152.103516 0)"/>
     <use xlink:href="#DejaVuSans-65" transform="translate(1213.626953 0)"/>
     <use xlink:href="#DejaVuSans-64" transform="translate(1275.150391 0)"/>
     <use xlink:href="#DejaVuSans-20" transform="translate(1338.626953 0)"/>
     <use xlink:href="#DejaVuSans-67" transform="translate(1370.414062 0)"/>
     <use xlink:href="#DejaVuSans-61" transform="translate(1433.890625 0)"/>
     <use xlink:href="#DejaVuSans-70" transform="translate(1495.169922 0)"/>
     <use xlink:href="#DejaVuSans-73" transform="translate(1558.646484 0)"/>
     <use xlink:href="#DejaVuSans-20" transform="translate(1610.746094 0)"/>
     <use xlink:href="#DejaVuSans-61" transform="translate(1642.533203 0)"/>
     <use xlink:href="#DejaVuSans-72" transform="translate(1703.8125 0)"/>
     <use xlink:href="#DejaVuSans-65" transform="translate(1742.675781 0)"/>
     <use xlink:href="#DejaVuSans-20" transform="translate(1804.199219 0)"/>
     <use xlink:href="#DejaVuSans-73" transform="translate(1835.986328 0)"/>
     <use xlink:href="#DejaVuSans-69" transform="translate(1888.085938 0)"/>
     <use xlink:href="#DejaVuSans-67" transform="translate(1915.869141 0)"/>
     <use xlink:href="#DejaVuSans-6e" transform="translate(1979.345703 0)"/>
     <use xlink:href="#DejaVuSans-69" transform="translate(2042.724609 0)"/>
     <use xlink:href="#DejaVuSans-66" transform="translate(2070.507812 0)"/>
     <use xlink:href="#DejaVuSans-69" transform="translate(2105.712891 0)"/>
     <use xlink:href="#DejaVuSans-63" transform="translate(2133.496094 0)"/>
     <use xlink:href="#DejaVuSans-61" transform="translate(2188.476562 0)"/>
     <use xlink:href="#DejaVuSans-6e" transform="translate(2249.755859 0)"/>
     <use xlink:href="#DejaVuSans-74" transform="translate(2313.134766 0)"/>
     <use xlink:href="#DejaVuSans-20" transform="translate(2352.34375 0)"/>
     <use xlink:href="#DejaVuSans-28" transform="translate(2384.130859 0)"/>
     <use xlink:href="#DejaVuSans-63" transform="translate(2423.144531 0)"/>
     <use xlink:href="#DejaVuSans-6c" transform="translate(2478.125 0)"/>
     <use xlink:href="#DejaVuSans-75" transform="translate(2505.908203 0)"/>
     <use xlink:href="#DejaVuSans-73" transform="translate(2569.287109 0)"/>
     <use xlink:href="#DejaVuSans-74" transform="translate(2621.386719 0)"/>
     <use xlink:href="#DejaVuSans-65" transform="translate(2660.595703 0)"/>
     <use xlink:href="#DejaVuSans-72" transform="translate(2722.119141 0)"/>
     <use xlink:href="#DejaVuSans-20" transform="translate(2763.232422 0)"/>
     <use xlink:href="#DejaVuSans-70" transform="translate(2795.019531 0)"/>
     <use xlink:href="#DejaVuSans-65" transform="translate(2858.496094 0)"/>
     <use xlink:href="#DejaVuSans-72" transform="translate(2920.019531 0)"/>
     <use xlink:href="#DejaVuSans-6d" transform="translate(2959.382812 0)"/>
     <use xlink:href="#DejaVuSans-75" transform="translate(3056.794922 0)"/>
     <use xlink:href="#DejaVuSans-74" transform="translate(3120.173828 0)"/>
     <use xlink:href="#DejaVuSans-61" transform="translate(3159.382812 0)"/>
     <use xlink:href="#DejaVuSans-74" transform="translate(3220.662109 0)"/>
     <use xlink:href="#DejaVuSans-69" transform="translate(3259.871094 0)"/>
     <use xlink:href="#DejaVuSans-6f" transform="translate(3287.654297 0)"/>
     <use xlink:href="#DejaVuSans-6e" transform="translate(3348.835938 0)"/>
     <use xlink:href="#DejaVuSans-29" transform="translate(3412.214844 0)"/>
    </g>
   </g>
   <g id="legend_1">
    <g id="patch_7">
     <path d="M 272.55875 295.578125 
L 484.36125 295.578125 
Q 485.76125 295.578125 485.76125 294.178125 
L 485.76125 253.779375 
Q 485.76125 252.379375 484.36125 252.379375 
L 272.55875 252.379375 
Q 271.15875 252.379375 271.15875 253.779375 
L 271.15875 294.178125 
Q 271.15875 295.578125 272.55875 295.578125 
z
" style="fill: #ffffff; opacity: 0.8; stroke: #cccccc; stroke-linejoin: miter"/>
    </g>
    <g id="line2d_24">
     <path d="M 273.95875 258.048281 
L 280.95875 258.048281 
L 287.95875 258.048281 
" style="fill: none; stroke: #000000; stroke-width: 1.5; stroke-linecap: square"/>
     <g>
      <use xlink:href="#mf0d7cc1330" x="280.95875" y="258.048281" style="stroke: #000000"/>
     </g>
    </g>
    <g id="text_16">
     <!-- BPTT -->
     <g transform="translate(293.55875 260.498281) scale(0.07 -0.07)">
      <defs>
       <path id="DejaVuSans-42" d="M 1259 2228 
L 1259 519 
L 2272 519 
Q 2781 519 3026 730 
Q 3272 941 3272 1375 
Q 3272 1813 3026 2020 
Q 2781 2228 2272 2228 
L 1259 2228 
z
M 1259 4147 
L 1259 2741 
L 2194 2741 
Q 2656 2741 2882 2914 
Q 3109 3088 3109 3444 
Q 3109 3797 2882 3972 
Q 2656 4147 2194 4147 
L 1259 4147 
z
M 628 4666 
L 2241 4666 
Q 2963 4666 3353 4366 
Q 3744 4066 3744 3513 
Q 3744 3084 3544 2831 
Q 3344 2578 2956 2516 
Q 3422 2416 3680 2098 
Q 3938 1781 3938 1306 
Q 3938 681 3513 340 
Q 3088 0 2303 0 
L 628 0 
L 628 4666 
z
" transform="scale(0.015625)"/>
       <path id="DejaVuSans-50" d="M 1259 4147 
L 1259 2394 
L 2053 2394 
Q 2494 2394 2734 2622 
Q 2975 2850 2975 3272 
Q 2975 3691 2734 3919 
Q 2494 4147 2053 4147 
L 1259 4147 
z
M 628 4666 
L 2053 4666 
Q 2838 4666 3239 4311 
Q 3641 3956 3641 3272 
Q 3641 2581 3239 2228 
Q 2838 1875 2053 1875 
L 1259 1875 
L 1259 0 
L 628 0 
L 628 4666 
z
" transform="scale(0.015625)"/>
       <path id="DejaVuSans-54" d="M -19 4666 
L 3928 4666 
L 3928 4134 
L 2272 4134 
L 2272 0 
L 1638 0 
L 1638 4134 
L -19 4134 
L -19 4666 
z
" transform="scale(0.015625)"/>
      </defs>
      <use xlink:href="#DejaVuSans-42"/>
      <use xlink:href="#DejaVuSans-50" transform="translate(68.603516 0)"/>
      <use xlink:href="#DejaVuSans-54" transform="translate(128.90625 0)"/>
      <use xlink:href="#DejaVuSans-54" transform="translate(188.240234 0)"/>
     </g>
    </g>
    <g id="line2d_25">
     <path d="M 273.95875 268.322969 
L 280.95875 268.322969 
L 287.95875 268.322969 
" style="fill: none; stroke: #1f77b4; stroke-width: 1.5; stroke-linecap: square"/>
     <g>
      <use xlink:href="#m404b4c279d" x="280.95875" y="268.322969" style="fill: #1f77b4; stroke: #1f77b4"/>
     </g>
    </g>
    <g id="text_17">
     <!-- deep e-prop (full) -->
     <g transform="translate(293.55875 270.772969) scale(0.07 -0.07)">
      <use xlink:href="#DejaVuSans-64"/>
      <use xlink:href="#DejaVuSans-65" transform="translate(63.476562 0)"/>
      <use xlink:href="#DejaVuSans-65" transform="translate(125 0)"/>
      <use xlink:href="#DejaVuSans-70" transform="translate(186.523438 0)"/>
      <use xlink:href="#DejaVuSans-20" transform="translate(250 0)"/>
      <use xlink:href="#DejaVuSans-65" transform="translate(281.787109 0)"/>
      <use xlink:href="#DejaVuSans-2d" transform="translate(343.310547 0)"/>
      <use xlink:href="#DejaVuSans-70" transform="translate(379.394531 0)"/>
      <use xlink:href="#DejaVuSans-72" transform="translate(442.871094 0)"/>
      <use xlink:href="#DejaVuSans-6f" transform="translate(481.734375 0)"/>
      <use xlink:href="#DejaVuSans-70" transform="translate(542.916016 0)"/>
      <use xlink:href="#DejaVuSans-20" transform="translate(606.392578 0)"/>
      <use xlink:href="#DejaVuSans-28" transform="translate(638.179688 0)"/>
      <use xlink:href="#DejaVuSans-66" transform="translate(677.193359 0)"/>
      <use xlink:href="#DejaVuSans-75" transform="translate(712.398438 0)"/>
      <use xlink:href="#DejaVuSans-6c" transform="translate(775.777344 0)"/>
      <use xlink:href="#DejaVuSans-6c" transform="translate(803.560547 0)"/>
      <use xlink:href="#DejaVuSans-29" transform="translate(831.34375 0)"/>
     </g>
    </g>
    <g id="line2d_26">
     <path d="M 273.95875 278.597656 
L 280.95875 278.597656 
L 287.95875 278.597656 
" style="fill: none; stroke: #d62728; stroke-width: 1.5; stroke-linecap: square"/>
     <g>
      <use xlink:href="#m0a1b37bdf1" x="280.95875" y="278.597656" style="fill: #d62728; stroke: #d62728"/>
     </g>
    </g>
    <g id="text_18">
     <!-- ablate temporal -->
     <g transform="translate(293.55875 281.047656) scale(0.07 -0.07)">
      <defs>
       <path id="DejaVuSans-62" d="M 3116 1747 
Q 3116 2381 2855 2742 
Q 2594 3103 2138 3103 
Q 1681 3103 1420 2742 
Q 1159 2381 1159 1747 
Q 1159 1113 1420 752 
Q 1681 391 2138 391 
Q 2594 391 2855 752 
Q 3116 1113 3116 1747 
z
M 1159 2969 
Q 1341 3281 1617 3432 
Q 1894 3584 2278 3584 
Q 2916 3584 3314 3078 
Q 3713 2572 3713 1747 
Q 3713 922 3314 415 
Q 2916 -91 2278 -91 
Q 1894 -91 1617 61 
Q 1341 213 1159 525 
L 1159 0 
L 581 0 
L 581 4863 
L 1159 4863 
L 1159 2969 
z
" transform="scale(0.015625)"/>
      </defs>
      <use xlink:href="#DejaVuSans-61"/>
      <use xlink:href="#DejaVuSans-62" transform="translate(61.279297 0)"/>
      <use xlink:href="#DejaVuSans-6c" transform="translate(124.755859 0)"/>
      <use xlink:href="#DejaVuSans-61" transform="translate(152.539062 0)"/>
      <use xlink:href="#DejaVuSans-74" transform="translate(213.818359 0)"/>
      <use xlink:href="#DejaVuSans-65" transform="translate(253.027344 0)"/>
      <use xlink:href="#DejaVuSans-20" transform="translate(314.550781 0)"/>
      <use xlink:href="#DejaVuSans-74" transform="translate(346.337891 0)"/>
      <use xlink:href="#DejaVuSans-65" transform="translate(385.546875 0)"/>
      <use xlink:href="#DejaVuSans-6d" transform="translate(447.070312 0)"/>
      <use xlink:href="#DejaVuSans-70" transform="translate(544.482422 0)"/>
      <use xlink:href="#DejaVuSans-6f" transform="translate(607.958984 0)"/>
      <use xlink:href="#DejaVuSans-72" transform="translate(669.140625 0)"/>
      <use xlink:href="#DejaVuSans-61" transform="translate(710.253906 0)"/>
      <use xlink:href="#DejaVuSans-6c" transform="translate(771.533203 0)"/>
     </g>
    </g>
    <g id="line2d_27">
     <path d="M 273.95875 288.872344 
L 280.95875 288.872344 
L 287.95875 288.872344 
" style="fill: none; stroke: #ff7f0e; stroke-width: 1.5; stroke-linecap: square"/>
     <g>
      <use xlink:href="#m0708c1d631" x="280.95875" y="288.872344" style="fill: #ff7f0e; stroke: #ff7f0e"/>
     </g>
    </g>
    <g id="text_19">
     <!-- ablate spatial -->
     <g transform="translate(293.55875 291.322344) scale(0.07 -0.07)">
      <use xlink:href="#DejaVuSans-61"/>
      <use xlink:href="#DejaVuSans-62" transform="translate(61.279297 0)"/>
      <use xlink:href="#DejaVuSans-6c" transform="translate(124.755859 0)"/>
      <use xlink:href="#DejaVuSans-61" transform="translate(152.539062 0)"/>
      <use xlink:href="#DejaVuSans-74" transform="translate(213.818359 0)"/>
      <use xlink:href="#DejaVuSans-65" transform="translate(253.027344 0)"/>
      <use xlink:href="#DejaVuSans-20" transform="translate(314.550781 0)"/>
      <use xlink:href="#DejaVuSans-73" transform="translate(346.337891 0)"/>
      <use xlink:href="#DejaVuSans-70" transform="translate(398.4375 0)"/>
      <use xlink:href="#DejaVuSans-61" transform="translate(461.914062 0)"/>
      <use xlink:href="#DejaVuSans-74" transform="translate(523.193359 0)"/>
      <use xlink:href="#DejaVuSans-69" transform="translate(562.402344 0)"/>
      <use xlink:href="#DejaVuSans-61" transform="translate(590.185547 0)"/>
      <use xlink:href="#DejaVuSans-6c" transform="translate(651.464844 0)"/>
     </g>
    </g>
    <g id="line2d_28">
     <path d="M 368.486094 258.048281 
L 375.486094 258.048281 
L 382.486094 258.048281 
" style="fill: none; stroke: #9467bd; stroke-width: 4; stroke-linecap: square"/>
    </g>
    <g id="text_20">
     <!-- sig: full vs ablate_temporal -->
     <g transform="translate(388.086094 260.498281) scale(0.07 -0.07)">
      <defs>
       <path id="DejaVuSans-3a" d="M 750 794 
L 1409 794 
L 1409 0 
L 750 0 
L 750 794 
z
M 750 3309 
L 1409 3309 
L 1409 2516 
L 750 2516 
L 750 3309 
z
" transform="scale(0.015625)"/>
       <path id="DejaVuSans-5f" d="M 3263 -1063 
L 3263 -1509 
L -63 -1509 
L -63 -1063 
L 3263 -1063 
z
" transform="scale(0.015625)"/>
      </defs>
      <use xlink:href="#DejaVuSans-73"/>
      <use xlink:href="#DejaVuSans-69" transform="translate(52.099609 0)"/>
      <use xlink:href="#DejaVuSans-67" transform="translate(79.882812 0)"/>
      <use xlink:href="#DejaVuSans-3a" transform="translate(143.359375 0)"/>
      <use xlink:href="#DejaVuSans-20" transform="translate(177.050781 0)"/>
      <use xlink:href="#DejaVuSans-66" transform="translate(208.837891 0)"/>
      <use xlink:href="#DejaVuSans-75" transform="translate(244.042969 0)"/>
      <use xlink:href="#DejaVuSans-6c" transform="translate(307.421875 0)"/>
      <use xlink:href="#DejaVuSans-6c" transform="translate(335.205078 0)"/>
      <use xlink:href="#DejaVuSans-20" transform="translate(362.988281 0)"/>
      <use xlink:href="#DejaVuSans-76" transform="translate(394.775391 0)"/>
      <use xlink:href="#DejaVuSans-73" transform="translate(453.955078 0)"/>
      <use xlink:href="#DejaVuSans-20" transform="translate(506.054688 0)"/>
      <use xlink:href="#DejaVuSans-61" transform="translate(537.841797 0)"/>
      <use xlink:href="#DejaVuSans-62" transform="translate(599.121094 0)"/>
      <use xlink:href="#DejaVuSans-6c" transform="translate(662.597656 0)"/>
      <use xlink:href="#DejaVuSans-61" transform="translate(690.380859 0)"/>
      <use xlink:href="#DejaVuSans-74" transform="translate(751.660156 0)"/>
      <use xlink:href="#DejaVuSans-65" transform="translate(790.869141 0)"/>
      <use xlink:href="#DejaVuSans-5f" transform="translate(852.392578 0)"/>
      <use xlink:href="#DejaVuSans-74" transform="translate(902.392578 0)"/>
      <use xlink:href="#DejaVuSans-65" transform="translate(941.601562 0)"/>
      <use xlink:href="#DejaVuSans-6d" transform="translate(1003.125 0)"/>
      <use xlink:href="#DejaVuSans-70" transform="translate(1100.537109 0)"/>
      <use xlink:href="#DejaVuSans-6f" transform="translate(1164.013672 0)"/>
      <use xlink:href="#DejaVuSans-72" transform="translate(1225.195312 0)"/>
      <use xlink:href="#DejaVuSans-61" transform="translate(1266.308594 0)"/>
      <use xlink:href="#DejaVuSans-6c" transform="translate(1327.587891 0)"/>
     </g>
    </g>
    <g id="line2d_29">
     <path d="M 368.486094 268.517656 
L 375.486094 268.517656 
L 382.486094 268.517656 
" style="fill: none; stroke: #8c564b; stroke-width: 4; stroke-linecap: square"/>
    </g>
    <g id="text_21">
     <!-- sig: full vs ablate_spatial -->
     <g transform="translate(388.086094 270.967656) scale(0.07 -0.07)">
      <use xlink:href="#DejaVuSans-73"/>
      <use xlink:href="#DejaVuSans-69" transform="translate(52.099609 0)"/>
      <use xlink:href="#DejaVuSans-67" transform="translate(79.882812 0)"/>
      <use xlink:href="#DejaVuSans-3a" transform="translate(143.359375 0)"/>
      <use xlink:href="#DejaVuSans-20" transform="translate(177.050781 0)"/>
      <use xlink:href="#DejaVuSans-66" transform="translate(208.837891 0)"/>
      <use xlink:href="#DejaVuSans-75" transform="translate(244.042969 0)"/>
      <use xlink:href="#DejaVuSans-6c" transform="translate(307.421875 0)"/>
      <use xlink:href="#DejaVuSans-6c" transform="translate(335.205078 0)"/>
      <use xlink:href="#DejaVuSans-20" transform="translate(362.988281 0)"/>
      <use xlink:href="#DejaVuSans-76" transform="translate(394.775391 0)"/>
      <use xlink:href="#DejaVuSans-73" transform="translate(453.955078 0)"/>
      <use xlink:href="#DejaVuSans-20" transform="translate(506.054688 0)"/>
      <use xlink:href="#DejaVuSans-61" transform="translate(537.841797 0)"/>
      <use xlink:href="#DejaVuSans-62" transform="translate(599.121094 0)"/>
      <use xlink:href="#DejaVuSans-6c" transform="translate(662.597656 0)"/>
      <use xlink:href="#DejaVuSans-61" transform="translate(690.380859 0)"/>
      <use xlink:href="#DejaVuSans-74" transform="translate(751.660156 0)"/>
      <use xlink:href="#DejaVuSans-65" transform="translate(790.869141 0)"/>
      <use xlink:href="#DejaVuSans-5f" transform="translate(852.392578 0)"/>
      <use xlink:href="#DejaVuSans-73" transform="translate(902.392578 0)"/>
      <use xlink:href="#DejaVuSans-70" transform="translate(954.492188 0)"/>
      <use xlink:href="#DejaVuSans-61" transform="translate(1017.96875 0)"/>
      <use xlink:href="#DejaVuSans-74" transform="translate(1079.248047 0)"/>
      <use xlink:href="#DejaVuSans-69" transform="translate(1118.457031 0)"/>
      <use xlink:href="#DejaVuSans-61" transform="translate(1146.240234 0)"/>
      <use xlink:href="#DejaVuSans-6c" transform="translate(1207.519531 0)"/>
     </g>
    </g>
    <g id="line2d_30">
     <path d="M 368.486094 278.987031 
L 375.486094 278.987031 
L 382.486094 278.987031 
" style="fill: none; stroke: #e377c2; stroke-width: 4; stroke-linecap: square"/>
    </g>
    <g id="text_22">
     <!-- sig: temporal vs spatial -->
     <g transform="translate(388.086094 281.437031) scale(0.07 -0.07)">
      <use xlink:href="#DejaVuSans-73"/>
      <use xlink:href="#DejaVuSans-69" transform="translate(52.099609 0)"/>
      <use xlink:href="#DejaVuSans-67" transform="translate(79.882812 0)"/>
      <use xlink:href="#DejaVuSans-3a" transform="translate(143.359375 0)"/>
      <use xlink:href="#DejaVuSans-20" transform="translate(177.050781 0)"/>
      <use xlink:href="#DejaVuSans-74" transform="translate(208.837891 0)"/>
      <use xlink:href="#DejaVuSans-65" transform="translate(248.046875 0)"/>
      <use xlink:href="#DejaVuSans-6d" transform="translate(309.570312 0)"/>
      <use xlink:href="#DejaVuSans-70" transform="translate(406.982422 0)"/>
      <use xlink:href="#DejaVuSans-6f" transform="translate(470.458984 0)"/>
      <use xlink:href="#DejaVuSans-72" transform="translate(531.640625 0)"/>
      <use xlink:href="#DejaVuSans-61" transform="translate(572.753906 0)"/>
      <use xlink:href="#DejaVuSans-6c" transform="translate(634.033203 0)"/>
      <use xlink:href="#DejaVuSans-20" transform="translate(661.816406 0)"/>
      <use xlink:href="#DejaVuSans-76" transform="translate(693.603516 0)"/>
      <use xlink:href="#DejaVuSans-73" transform="translate(752.783203 0)"/>
      <use xlink:href="#DejaVuSans-20" transform="translate(804.882812 0)"/>
      <use xlink:href="#DejaVuSans-73" transform="translate(836.669922 0)"/>
      <use xlink:href="#DejaVuSans-70" transform="translate(888.769531 0)"/>
      <use xlink:href="#DejaVuSans-61" transform="translate(952.246094 0)"/>
      <use xlink:href="#DejaVuSans-74" transform="translate(1013.525391 0)"/>
      <use xlink:href="#DejaVuSans-69" transform="translate(1052.734375 0)"/>
      <use xlink:href="#DejaVuSans-61" transform="translate(1080.517578 0)"/>
      <use xlink:href="#DejaVuSans-6c" transform="translate(1141.796875 0)"/>
     </g>
    </g>
   </g>
  </g>
 </g>
 <defs>
  <clipPath id="p3bb9b2c30f">
   <rect x="43.78125" y="22.318125" width="445.48" height="276.76"/>
  </clipPath>
 </defs>
</svg>
