<?xml version="1.0" encoding="utf-8" standalone="no"?>
<!DOCTYPE svg PUBLIC "-//W3C//DTD SVG 1.1//EN"
  "http://www.w3.org/Graphics/SVG/1.1/DTD/svg11.dtd">
<svg xmlns:xlink="http://www.w3.org/1999/xlink" width="496.46125pt" height="315.99625pt" viewBox="0 0 496.46125 315.99625" xmlns="http://www.w3.org/2000/svg" version="1.1">
 <metadata>
  <rdf:RDF xmlns:dc="http://purl.org/dc/elements/1.1/" xmlns:cc="http://creativecommons.org/ns#" xmlns:rdf="http://www.w3.org/1999/02/22-rdf-syntax-ns#">
   <cc:Work>
    <dc:type rdf:resource="http://purl.org/dc/dcmitype/StillImage"/>
    <dc:date>2026-06-27T12:21:43.993417</dc:date>
    <dc:format>image/svg+xml</dc:format>
    <dc:creator>
     <cc:Agent>
      <dc:title>Matplotlib v3.10.0, https://matplotlib.org/</dc:title>
     </cc:Agent>
    </dc:creator>
   </cc:Work>
  </rdf:RDF>
 </metadata>
 <defs>
  <style type="text/css">*{stroke-linejoin: round; stroke-linecap: butt}</style>
 </defs>
 <g id="figure_1">
  <g id="patch_1">
   <path d="M 0 315.99625 
L 496.46125 315.99625 
L 496.46125 0 
L 0 0 
z
" style="fill: #ffffff"/>
  </g>
  <g id="axes_1">
   <g id="patch_2">
    <path d="M 43.78125 278.44 
L 489.26125 278.44 
L 489.26125 7.2 
L 43.78125 7.2 
z
" style="fill: #ffffff"/>
   </g>
   <g id="FillBetweenPolyCollection_1">
    <defs>
     <path id="m755bbdd416" d="M 64.030341 -66.149107 
L 64.030341 -61.138336 
L 84.279432 -81.017573 
L 104.528523 -75.822153 
L 124.777614 -127.676515 
L 145.026705 -173.050569 
L 165.275795 -169.101048 
L 185.524886 -208.60087 
L 205.773977 -206.323189 
L 226.023068 -231.966136 
L 246.272159 -269.828037 
L 266.52125 -237.969115 
L 286.770341 -241.099192 
L 307.019432 -257.024158 
L 327.268523 -279.17556 
L 347.517614 -228.689737 
L 367.766705 -274.365915 
L 388.015795 -298.81435 
L 408.264886 -298.960821 
L 428.513977 -299.100781 
L 448.763068 -298.988615 
L 469.012159 -299.046704 
L 469.012159 -299.279057 
L 469.012159 -299.279057 
L 448.763068 -299.279057 
L 428.513977 -299.224979 
L 408.264886 -299.248763 
L 388.015795 -299.220969 
L 367.766705 -298.981861 
L 347.517614 -289.880739 
L 327.268523 -298.528842 
L 307.019432 -288.847835 
L 286.770341 -299.080144 
L 266.52125 -298.78301 
L 246.272159 -294.632223 
L 226.023068 -288.230812 
L 205.773977 -268.042063 
L 185.524886 -270.992332 
L 165.275795 -228.413335 
L 145.026705 -233.35133 
L 124.777614 -181.427421 
L 104.528523 -101.305082 
L 84.279432 -116.266316 
L 64.030341 -66.149107 
z
" style="stroke: #000000; stroke-opacity: 0.15"/>
    </defs>
    <g clip-path="url(#pc49a271ff4)">
     <use xlink:href="#m755bbdd416" x="0" y="315.99625" style="fill-opacity: 0.15; stroke: #000000; stroke-opacity: 0.15"/>
    </g>
   </g>
   <g id="FillBetweenPolyCollection_2">
    <defs>
     <path id="m47dce04f7d" d="M 64.030341 -66.149107 
L 64.030341 -61.138336 
L 84.279432 -70.713182 
L 104.528523 -93.232939 
L 124.777614 -96.062099 
L 145.026705 -99.948031 
L 165.275795 -104.118137 
L 185.524886 -133.703188 
L 205.773977 -148.512022 
L 226.023068 -137.366766 
L 246.272159 -176.962905 
L 266.52125 -159.046348 
L 286.770341 -183.04684 
L 307.019432 -185.783588 
L 327.268523 -169.656567 
L 347.517614 -210.621673 
L 367.766705 -193.40808 
L 388.015795 -182.308546 
L 408.264886 -218.209333 
L 428.513977 -209.899043 
L 448.763068 -221.335426 
L 469.012159 -226.198541 
L 469.012159 -244.449057 
L 469.012159 -244.449057 
L 448.763068 -233.512144 
L 428.513977 -240.359549 
L 408.264886 -234.082351 
L 388.015795 -225.080854 
L 367.766705 -220.95192 
L 347.517614 -236.616326 
L 327.268523 -212.115877 
L 307.019432 -219.108014 
L 286.770341 -215.455045 
L 266.52125 -202.569444 
L 246.272159 -208.643369 
L 226.023068 -178.998212 
L 205.773977 -179.296358 
L 185.524886 -168.31397 
L 165.275795 -140.507746 
L 145.026705 -140.20505 
L 124.777614 -120.39094 
L 104.528523 -137.684096 
L 84.279432 -95.609623 
L 64.030341 -66.149107 
z
" style="stroke: #1f77b4; stroke-opacity: 0.15"/>
    </defs>
    <g clip-path="url(#pc49a271ff4)">
     <use xlink:href="#m47dce04f7d" x="0" y="315.99625" style="fill: #1f77b4; fill-opacity: 0.15; stroke: #1f77b4; stroke-opacity: 0.15"/>
    </g>
   </g>
   <g id="FillBetweenPolyCollection_3">
    <defs>
     <path id="m406e9629db" d="M 64.030341 -66.149107 
L 64.030341 -61.138336 
L 84.279432 -65.588664 
L 104.528523 -84.27208 
L 124.777614 -76.036608 
L 145.026705 -80.883227 
L 165.275795 -97.800853 
L 185.524886 -107.399225 
L 205.773977 -113.428179 
L 226.023068 -120.264286 
L 246.272159 -111.588022 
L 266.52125 -106.217623 
L 286.770341 -135.969799 
L 307.019432 -135.394258 
L 327.268523 -141.41518 
L 347.517614 -116.190012 
L 367.766705 -144.893274 
L 388.015795 -145.162513 
L 408.264886 -155.027047 
L 428.513977 -150.933915 
L 448.763068 -148.010678 
L 469.012159 -143.323702 
L 469.012159 -175.713339 
L 469.012159 -175.713339 
L 448.763068 -177.76461 
L 428.513977 -170.020041 
L 408.264886 -177.196046 
L 388.015795 -167.717164 
L 367.766705 -174.957004 
L 347.517614 -147.66311 
L 327.268523 -175.007886 
L 307.019432 -169.120699 
L 286.770341 -174.121639 
L 266.52125 -136.317079 
L 246.272159 -140.879786 
L 226.023068 -152.360174 
L 205.773977 -134.741092 
L 185.524886 -146.811233 
L 165.275795 -120.394837 
L 145.026705 -110.53374 
L 124.777614 -88.07884 
L 104.528523 -126.604479 
L 84.279432 -86.444411 
L 64.030341 -66.149107 
z
" style="stroke: #d62728; stroke-opacity: 0.15"/>
    </defs>
    <g clip-path="url(#pc49a271ff4)">
     <use xlink:href="#m406e9629db" x="0" y="315.99625" style="fill: #d62728; fill-opacity: 0.15; stroke: #d62728; stroke-opacity: 0.15"/>
    </g>
   </g>
   <g id="FillBetweenPolyCollection_4">
    <defs>
     <path id="m7da500ba5e" d="M 64.030341 -66.149107 
L 64.030341 -61.138336 
L 84.279432 -65.948155 
L 104.528523 -84.007096 
L 124.777614 -76.123445 
L 145.026705 -80.84657 
L 165.275795 -98.860237 
L 185.524886 -107.142798 
L 205.773977 -114.035114 
L 226.023068 -118.859824 
L 246.272159 -112.355195 
L 266.52125 -106.386563 
L 286.770341 -136.924384 
L 307.019432 -135.686161 
L 327.268523 -142.260218 
L 347.517614 -119.531582 
L 367.766705 -146.024657 
L 388.015795 -145.893274 
L 408.264886 -155.940924 
L 428.513977 -151.880451 
L 448.763068 -150.588516 
L 469.012159 -143.8023 
L 469.012159 -175.583271 
L 469.012159 -175.583271 
L 448.763068 -182.21546 
L 428.513977 -171.919833 
L 408.264886 -178.605703 
L 388.015795 -166.40552 
L 367.766705 -175.626359 
L 347.517614 -152.395818 
L 327.268523 -176.195939 
L 307.019432 -170.222916 
L 286.770341 -175.897205 
L 266.52125 -136.612846 
L 246.272159 -140.809672 
L 226.023068 -150.802131 
L 205.773977 -134.192245 
L 185.524886 -145.383098 
L 165.275795 -121.775163 
L 145.026705 -110.628484 
L 124.777614 -88.340534 
L 104.528523 -125.533431 
L 84.279432 -86.781979 
L 64.030341 -66.149107 
z
" style="stroke: #ff7f0e; stroke-opacity: 0.15"/>
    </defs>
    <g clip-path="url(#pc49a271ff4)">
     <use xlink:href="#m7da500ba5e" x="0" y="315.99625" style="fill: #ff7f0e; fill-opacity: 0.15; stroke: #ff7f0e; stroke-opacity: 0.15"/>
    </g>
   </g>
   <g id="matplotlib.axis_1">
    <g id="xtick_1">
     <g id="line2d_1">
      <defs>
       <path id="mce0c669e61" d="M 0 0 
L 0 3.5 
" style="stroke: #000000; stroke-width: 0.8"/>
      </defs>
      <g>
       <use xlink:href="#mce0c669e61" x="64.030341" y="278.44" style="stroke: #000000; stroke-width: 0.8"/>
      </g>
     </g>
     <g id="text_1">
      <!-- 0 -->
      <g transform="translate(60.849091 293.038437) scale(0.1 -0.1)">
       <defs>
        <path id="DejaVuSans-30" d="M 2034 4250 
Q 1547 4250 1301 3770 
Q 1056 3291 1056 2328 
Q 1056 1369 1301 889 
Q 1547 409 2034 409 
Q 2525 409 2770 889 
Q 3016 1369 3016 2328 
Q 3016 3291 2770 3770 
Q 2525 4250 2034 4250 
z
M 2034 4750 
Q 2819 4750 3233 4129 
Q 3647 3509 3647 2328 
Q 3647 1150 3233 529 
Q 2819 -91 2034 -91 
Q 1250 -91 836 529 
Q 422 1150 422 2328 
Q 422 3509 836 4129 
Q 1250 4750 2034 4750 
z
" transform="scale(0.015625)"/>
       </defs>
       <use xlink:href="#DejaVuSans-30"/>
      </g>
     </g>
    </g>
    <g id="xtick_2">
     <g id="line2d_2">
      <g>
       <use xlink:href="#mce0c669e61" x="114.653068" y="278.44" style="stroke: #000000; stroke-width: 0.8"/>
      </g>
     </g>
     <g id="text_2">
      <!-- 250 -->
      <g transform="translate(105.109318 293.038437) scale(0.1 -0.1)">
       <defs>
        <path id="DejaVuSans-32" d="M 1228 531 
L 3431 531 
L 3431 0 
L 469 0 
L 469 531 
Q 828 903 1448 1529 
Q 2069 2156 2228 2338 
Q 2531 2678 2651 2914 
Q 2772 3150 2772 3378 
Q 2772 3750 2511 3984 
Q 2250 4219 1831 4219 
Q 1534 4219 1204 4116 
Q 875 4013 500 3803 
L 500 4441 
Q 881 4594 1212 4672 
Q 1544 4750 1819 4750 
Q 2544 4750 2975 4387 
Q 3406 4025 3406 3419 
Q 3406 3131 3298 2873 
Q 3191 2616 2906 2266 
Q 2828 2175 2409 1742 
Q 1991 1309 1228 531 
z
" transform="scale(0.015625)"/>
        <path id="DejaVuSans-35" d="M 691 4666 
L 3169 4666 
L 3169 4134 
L 1269 4134 
L 1269 2991 
Q 1406 3038 1543 3061 
Q 1681 3084 1819 3084 
Q 2600 3084 3056 2656 
Q 3513 2228 3513 1497 
Q 3513 744 3044 326 
Q 2575 -91 1722 -91 
Q 1428 -91 1123 -41 
Q 819 9 494 109 
L 494 744 
Q 775 591 1075 516 
Q 1375 441 1709 441 
Q 2250 441 2565 725 
Q 2881 1009 2881 1497 
Q 2881 1984 2565 2268 
Q 2250 2553 1709 2553 
Q 1456 2553 1204 2497 
Q 953 2441 691 2322 
L 691 4666 
z
" transform="scale(0.015625)"/>
       </defs>
       <use xlink:href="#DejaVuSans-32"/>
       <use xlink:href="#DejaVuSans-35" transform="translate(63.623047 0)"/>
       <use xlink:href="#DejaVuSans-30" transform="translate(127.246094 0)"/>
      </g>
     </g>
    </g>
    <g id="xtick_3">
     <g id="line2d_3">
      <g>
       <use xlink:href="#mce0c669e61" x="165.275795" y="278.44" style="stroke: #000000; stroke-width: 0.8"/>
      </g>
     </g>
     <g id="text_3">
      <!-- 500 -->
      <g transform="translate(155.732045 293.038437) scale(0.1 -0.1)">
       <use xlink:href="#DejaVuSans-35"/>
       <use xlink:href="#DejaVuSans-30" transform="translate(63.623047 0)"/>
       <use xlink:href="#DejaVuSans-30" transform="translate(127.246094 0)"/>
      </g>
     </g>
    </g>
    <g id="xtick_4">
     <g id="line2d_4">
      <g>
       <use xlink:href="#mce0c669e61" x="215.898523" y="278.44" style="stroke: #000000; stroke-width: 0.8"/>
      </g>
     </g>
     <g id="text_4">
      <!-- 750 -->
      <g transform="translate(206.354773 293.038437) scale(0.1 -0.1)">
       <defs>
        <path id="DejaVuSans-37" d="M 525 4666 
L 3525 4666 
L 3525 4397 
L 1831 0 
L 1172 0 
L 2766 4134 
L 525 4134 
L 525 4666 
z
" transform="scale(0.015625)"/>
       </defs>
       <use xlink:href="#DejaVuSans-37"/>
       <use xlink:href="#DejaVuSans-35" transform="translate(63.623047 0)"/>
       <use xlink:href="#DejaVuSans-30" transform="translate(127.246094 0)"/>
      </g>
     </g>
    </g>
    <g id="xtick_5">
     <g id="line2d_5">
      <g>
       <use xlink:href="#mce0c669e61" x="266.52125" y="278.44" style="stroke: #000000; stroke-width: 0.8"/>
      </g>
     </g>
     <g id="text_5">
      <!-- 1000 -->
      <g transform="translate(253.79625 293.038437) scale(0.1 -0.1)">
       <defs>
        <path id="DejaVuSans-31" d="M 794 531 
L 1825 531 
L 1825 4091 
L 703 3866 
L 703 4441 
L 1819 4666 
L 2450 4666 
L 2450 531 
L 3481 531 
L 3481 0 
L 794 0 
L 794 531 
z
" transform="scale(0.015625)"/>
       </defs>
       <use xlink:href="#DejaVuSans-31"/>
       <use xlink:href="#DejaVuSans-30" transform="translate(63.623047 0)"/>
       <use xlink:href="#DejaVuSans-30" transform="translate(127.246094 0)"/>
       <use xlink:href="#DejaVuSans-30" transform="translate(190.869141 0)"/>
      </g>
     </g>
    </g>
    <g id="xtick_6">
     <g id="line2d_6">
      <g>
       <use xlink:href="#mce0c669e61" x="317.143977" y="278.44" style="stroke: #000000; stroke-width: 0.8"/>
      </g>
     </g>
     <g id="text_6">
      <!-- 1250 -->
      <g transform="translate(304.418977 293.038437) scale(0.1 -0.1)">
       <use xlink:href="#DejaVuSans-31"/>
       <use xlink:href="#DejaVuSans-32" transform="translate(63.623047 0)"/>
       <use xlink:href="#DejaVuSans-35" transform="translate(127.246094 0)"/>
       <use xlink:href="#DejaVuSans-30" transform="translate(190.869141 0)"/>
      </g>
     </g>
    </g>
    <g id="xtick_7">
     <g id="line2d_7">
      <g>
       <use xlink:href="#mce0c669e61" x="367.766705" y="278.44" style="stroke: #000000; stroke-width: 0.8"/>
      </g>
     </g>
     <g id="text_7">
      <!-- 1500 -->
      <g transform="translate(355.041705 293.038437) scale(0.1 -0.1)">
       <use xlink:href="#DejaVuSans-31"/>
       <use xlink:href="#DejaVuSans-35" transform="translate(63.623047 0)"/>
       <use xlink:href="#DejaVuSans-30" transform="translate(127.246094 0)"/>
       <use xlink:href="#DejaVuSans-30" transform="translate(190.869141 0)"/>
      </g>
     </g>
    </g>
    <g id="xtick_8">
     <g id="line2d_8">
      <g>
       <use xlink:href="#mce0c669e61" x="418.389432" y="278.44" style="stroke: #000000; stroke-width: 0.8"/>
      </g>
     </g>
     <g id="text_8">
      <!-- 1750 -->
      <g transform="translate(405.664432 293.038437) scale(0.1 -0.1)">
       <use xlink:href="#DejaVuSans-31"/>
       <use xlink:href="#DejaVuSans-37" transform="translate(63.623047 0)"/>
       <use xlink:href="#DejaVuSans-35" transform="translate(127.246094 0)"/>
       <use xlink:href="#DejaVuSans-30" transform="translate(190.869141 0)"/>
      </g>
     </g>
    </g>
    <g id="xtick_9">
     <g id="line2d_9">
      <g>
       <use xlink:href="#mce0c669e61" x="469.012159" y="278.44" style="stroke: #000000; stroke-width: 0.8"/>
      </g>
     </g>
     <g id="text_9">
      <!-- 2000 -->
      <g transform="translate(456.287159 293.038437) scale(0.1 -0.1)">
       <use xlink:href="#DejaVuSans-32"/>
       <use xlink:href="#DejaVuSans-30" transform="translate(63.623047 0)"/>
       <use xlink:href="#DejaVuSans-30" transform="translate(127.246094 0)"/>
       <use xlink:href="#DejaVuSans-30" transform="translate(190.869141 0)"/>
      </g>
     </g>
    </g>
    <g id="text_10">
     <!-- training step -->
     <g transform="translate(234.747031 306.716562) scale(0.1 -0.1)">
      <defs>
       <path id="DejaVuSans-74" d="M 1172 4494 
L 1172 3500 
L 2356 3500 
L 2356 3053 
L 1172 3053 
L 1172 1153 
Q 1172 725 1289 603 
Q 1406 481 1766 481 
L 2356 481 
L 2356 0 
L 1766 0 
Q 1100 0 847 248 
Q 594 497 594 1153 
L 594 3053 
L 172 3053 
L 172 3500 
L 594 3500 
L 594 4494 
L 1172 4494 
z
" transform="scale(0.015625)"/>
       <path id="DejaVuSans-72" d="M 2631 2963 
Q 2534 3019 2420 3045 
Q 2306 3072 2169 3072 
Q 1681 3072 1420 2755 
Q 1159 2438 1159 1844 
L 1159 0 
L 581 0 
L 581 3500 
L 1159 3500 
L 1159 2956 
Q 1341 3275 1631 3429 
Q 1922 3584 2338 3584 
Q 2397 3584 2469 3576 
Q 2541 3569 2628 3553 
L 2631 2963 
z
" transform="scale(0.015625)"/>
       <path id="DejaVuSans-61" d="M 2194 1759 
Q 1497 1759 1228 1600 
Q 959 1441 959 1056 
Q 959 750 1161 570 
Q 1363 391 1709 391 
Q 2188 391 2477 730 
Q 2766 1069 2766 1631 
L 2766 1759 
L 2194 1759 
z
M 3341 1997 
L 3341 0 
L 2766 0 
L 2766 531 
Q 2569 213 2275 61 
Q 1981 -91 1556 -91 
Q 1019 -91 701 211 
Q 384 513 384 1019 
Q 384 1609 779 1909 
Q 1175 2209 1959 2209 
L 2766 2209 
L 2766 2266 
Q 2766 2663 2505 2880 
Q 2244 3097 1772 3097 
Q 1472 3097 1187 3025 
Q 903 2953 641 2809 
L 641 3341 
Q 956 3463 1253 3523 
Q 1550 3584 1831 3584 
Q 2591 3584 2966 3190 
Q 3341 2797 3341 1997 
z
" transform="scale(0.015625)"/>
       <path id="DejaVuSans-69" d="M 603 3500 
L 1178 3500 
L 1178 0 
L 603 0 
L 603 3500 
z
M 603 4863 
L 1178 4863 
L 1178 4134 
L 603 4134 
L 603 4863 
z
" transform="scale(0.015625)"/>
       <path id="DejaVuSans-6e" d="M 3513 2113 
L 3513 0 
L 2938 0 
L 2938 2094 
Q 2938 2591 2744 2837 
Q 2550 3084 2163 3084 
Q 1697 3084 1428 2787 
Q 1159 2491 1159 1978 
L 1159 0 
L 581 0 
L 581 3500 
L 1159 3500 
L 1159 2956 
Q 1366 3272 1645 3428 
Q 1925 3584 2291 3584 
Q 2894 3584 3203 3211 
Q 3513 2838 3513 2113 
z
" transform="scale(0.015625)"/>
       <path id="DejaVuSans-67" d="M 2906 1791 
Q 2906 2416 2648 2759 
Q 2391 3103 1925 3103 
Q 1463 3103 1205 2759 
Q 947 2416 947 1791 
Q 947 1169 1205 825 
Q 1463 481 1925 481 
Q 2391 481 2648 825 
Q 2906 1169 2906 1791 
z
M 3481 434 
Q 3481 -459 3084 -895 
Q 2688 -1331 1869 -1331 
Q 1566 -1331 1297 -1286 
Q 1028 -1241 775 -1147 
L 775 -588 
Q 1028 -725 1275 -790 
Q 1522 -856 1778 -856 
Q 2344 -856 2625 -561 
Q 2906 -266 2906 331 
L 2906 616 
Q 2728 306 2450 153 
Q 2172 0 1784 0 
Q 1141 0 747 490 
Q 353 981 353 1791 
Q 353 2603 747 3093 
Q 1141 3584 1784 3584 
Q 2172 3584 2450 3431 
Q 2728 3278 2906 2969 
L 2906 3500 
L 3481 3500 
L 3481 434 
z
" transform="scale(0.015625)"/>
       <path id="DejaVuSans-20" transform="scale(0.015625)"/>
       <path id="DejaVuSans-73" d="M 2834 3397 
L 2834 2853 
Q 2591 2978 2328 3040 
Q 2066 3103 1784 3103 
Q 1356 3103 1142 2972 
Q 928 2841 928 2578 
Q 928 2378 1081 2264 
Q 1234 2150 1697 2047 
L 1894 2003 
Q 2506 1872 2764 1633 
Q 3022 1394 3022 966 
Q 3022 478 2636 193 
Q 2250 -91 1575 -91 
Q 1294 -91 989 -36 
Q 684 19 347 128 
L 347 722 
Q 666 556 975 473 
Q 1284 391 1588 391 
Q 1994 391 2212 530 
Q 2431 669 2431 922 
Q 2431 1156 2273 1281 
Q 2116 1406 1581 1522 
L 1381 1569 
Q 847 1681 609 1914 
Q 372 2147 372 2553 
Q 372 3047 722 3315 
Q 1072 3584 1716 3584 
Q 2034 3584 2315 3537 
Q 2597 3491 2834 3397 
z
" transform="scale(0.015625)"/>
       <path id="DejaVuSans-65" d="M 3597 1894 
L 3597 1613 
L 953 1613 
Q 991 1019 1311 708 
Q 1631 397 2203 397 
Q 2534 397 2845 478 
Q 3156 559 3463 722 
L 3463 178 
Q 3153 47 2828 -22 
Q 2503 -91 2169 -91 
Q 1331 -91 842 396 
Q 353 884 353 1716 
Q 353 2575 817 3079 
Q 1281 3584 2069 3584 
Q 2775 3584 3186 3129 
Q 3597 2675 3597 1894 
z
M 3022 2063 
Q 3016 2534 2758 2815 
Q 2500 3097 2075 3097 
Q 1594 3097 1305 2825 
Q 1016 2553 972 2059 
L 3022 2063 
z
" transform="scale(0.015625)"/>
       <path id="DejaVuSans-70" d="M 1159 525 
L 1159 -1331 
L 581 -1331 
L 581 3500 
L 1159 3500 
L 1159 2969 
Q 1341 3281 1617 3432 
Q 1894 3584 2278 3584 
Q 2916 3584 3314 3078 
Q 3713 2572 3713 1747 
Q 3713 922 3314 415 
Q 2916 -91 2278 -91 
Q 1894 -91 1617 61 
Q 1341 213 1159 525 
z
M 3116 1747 
Q 3116 2381 2855 2742 
Q 2594 3103 2138 3103 
Q 1681 3103 1420 2742 
Q 1159 2381 1159 1747 
Q 1159 1113 1420 752 
Q 1681 391 2138 391 
Q 2594 391 2855 752 
Q 3116 1113 3116 1747 
z
" transform="scale(0.015625)"/>
      </defs>
      <use xlink:href="#DejaVuSans-74"/>
      <use xlink:href="#DejaVuSans-72" transform="translate(39.208984 0)"/>
      <use xlink:href="#DejaVuSans-61" transform="translate(80.322266 0)"/>
      <use xlink:href="#DejaVuSans-69" transform="translate(141.601562 0)"/>
      <use xlink:href="#DejaVuSans-6e" transform="translate(169.384766 0)"/>
      <use xlink:href="#DejaVuSans-69" transform="translate(232.763672 0)"/>
      <use xlink:href="#DejaVuSans-6e" transform="translate(260.546875 0)"/>
      <use xlink:href="#DejaVuSans-67" transform="translate(323.925781 0)"/>
      <use xlink:href="#DejaVuSans-20" transform="translate(387.402344 0)"/>
      <use xlink:href="#DejaVuSans-73" transform="translate(419.189453 0)"/>
      <use xlink:href="#DejaVuSans-74" transform="translate(471.289062 0)"/>
      <use xlink:href="#DejaVuSans-65" transform="translate(510.498047 0)"/>
      <use xlink:href="#DejaVuSans-70" transform="translate(572.021484 0)"/>
     </g>
    </g>
   </g>
   <g id="matplotlib.axis_2">
    <g id="ytick_1">
     <g id="line2d_10">
      <defs>
       <path id="mac6beb8159" d="M 0 0 
L -3.5 0 
" style="stroke: #000000; stroke-width: 0.8"/>
      </defs>
      <g>
       <use xlink:href="#mac6beb8159" x="43.78125" y="254.647018" style="stroke: #000000; stroke-width: 0.8"/>
      </g>
     </g>
     <g id="text_11">
      <!-- 0.5 -->
      <g transform="translate(20.878125 258.446236) scale(0.1 -0.1)">
       <defs>
        <path id="DejaVuSans-2e" d="M 684 794 
L 1344 794 
L 1344 0 
L 684 0 
L 684 794 
z
" transform="scale(0.015625)"/>
       </defs>
       <use xlink:href="#DejaVuSans-30"/>
       <use xlink:href="#DejaVuSans-2e" transform="translate(63.623047 0)"/>
       <use xlink:href="#DejaVuSans-35" transform="translate(95.410156 0)"/>
      </g>
     </g>
    </g>
    <g id="ytick_2">
     <g id="line2d_11">
      <g>
       <use xlink:href="#mac6beb8159" x="43.78125" y="207.061053" style="stroke: #000000; stroke-width: 0.8"/>
      </g>
     </g>
     <g id="text_12">
      <!-- 0.6 -->
      <g transform="translate(20.878125 210.860271) scale(0.1 -0.1)">
       <defs>
        <path id="DejaVuSans-36" d="M 2113 2584 
Q 1688 2584 1439 2293 
Q 1191 2003 1191 1497 
Q 1191 994 1439 701 
Q 1688 409 2113 409 
Q 2538 409 2786 701 
Q 3034 994 3034 1497 
Q 3034 2003 2786 2293 
Q 2538 2584 2113 2584 
z
M 3366 4563 
L 3366 3988 
Q 3128 4100 2886 4159 
Q 2644 4219 2406 4219 
Q 1781 4219 1451 3797 
Q 1122 3375 1075 2522 
Q 1259 2794 1537 2939 
Q 1816 3084 2150 3084 
Q 2853 3084 3261 2657 
Q 3669 2231 3669 1497 
Q 3669 778 3244 343 
Q 2819 -91 2113 -91 
Q 1303 -91 875 529 
Q 447 1150 447 2328 
Q 447 3434 972 4092 
Q 1497 4750 2381 4750 
Q 2619 4750 2861 4703 
Q 3103 4656 3366 4563 
z
" transform="scale(0.015625)"/>
       </defs>
       <use xlink:href="#DejaVuSans-30"/>
       <use xlink:href="#DejaVuSans-2e" transform="translate(63.623047 0)"/>
       <use xlink:href="#DejaVuSans-36" transform="translate(95.410156 0)"/>
      </g>
     </g>
    </g>
    <g id="ytick_3">
     <g id="line2d_12">
      <g>
       <use xlink:href="#mac6beb8159" x="43.78125" y="159.475088" style="stroke: #000000; stroke-width: 0.8"/>
      </g>
     </g>
     <g id="text_13">
      <!-- 0.7 -->
      <g transform="translate(20.878125 163.274306) scale(0.1 -0.1)">
       <use xlink:href="#DejaVuSans-30"/>
       <use xlink:href="#DejaVuSans-2e" transform="translate(63.623047 0)"/>
       <use xlink:href="#DejaVuSans-37" transform="translate(95.410156 0)"/>
      </g>
     </g>
    </g>
    <g id="ytick_4">
     <g id="line2d_13">
      <g>
       <use xlink:href="#mac6beb8159" x="43.78125" y="111.889123" style="stroke: #000000; stroke-width: 0.8"/>
      </g>
     </g>
     <g id="text_14">
      <!-- 0.8 -->
      <g transform="translate(20.878125 115.688342) scale(0.1 -0.1)">
       <defs>
        <path id="DejaVuSans-38" d="M 2034 2216 
Q 1584 2216 1326 1975 
Q 1069 1734 1069 1313 
Q 1069 891 1326 650 
Q 1584 409 2034 409 
Q 2484 409 2743 651 
Q 3003 894 3003 1313 
Q 3003 1734 2745 1975 
Q 2488 2216 2034 2216 
z
M 1403 2484 
Q 997 2584 770 2862 
Q 544 3141 544 3541 
Q 544 4100 942 4425 
Q 1341 4750 2034 4750 
Q 2731 4750 3128 4425 
Q 3525 4100 3525 3541 
Q 3525 3141 3298 2862 
Q 3072 2584 2669 2484 
Q 3125 2378 3379 2068 
Q 3634 1759 3634 1313 
Q 3634 634 3220 271 
Q 2806 -91 2034 -91 
Q 1263 -91 848 271 
Q 434 634 434 1313 
Q 434 1759 690 2068 
Q 947 2378 1403 2484 
z
M 1172 3481 
Q 1172 3119 1398 2916 
Q 1625 2713 2034 2713 
Q 2441 2713 2670 2916 
Q 2900 3119 2900 3481 
Q 2900 3844 2670 4047 
Q 2441 4250 2034 4250 
Q 1625 4250 1398 4047 
Q 1172 3844 1172 3481 
z
" transform="scale(0.015625)"/>
       </defs>
       <use xlink:href="#DejaVuSans-30"/>
       <use xlink:href="#DejaVuSans-2e" transform="translate(63.623047 0)"/>
       <use xlink:href="#DejaVuSans-38" transform="translate(95.410156 0)"/>
      </g>
     </g>
    </g>
    <g id="ytick_5">
     <g id="line2d_14">
      <g>
       <use xlink:href="#mac6beb8159" x="43.78125" y="64.303158" style="stroke: #000000; stroke-width: 0.8"/>
      </g>
     </g>
     <g id="text_15">
      <!-- 0.9 -->
      <g transform="translate(20.878125 68.102377) scale(0.1 -0.1)">
       <defs>
        <path id="DejaVuSans-39" d="M 703 97 
L 703 672 
Q 941 559 1184 500 
Q 1428 441 1663 441 
Q 2288 441 2617 861 
Q 2947 1281 2994 2138 
Q 2813 1869 2534 1725 
Q 2256 1581 1919 1581 
Q 1219 1581 811 2004 
Q 403 2428 403 3163 
Q 403 3881 828 4315 
Q 1253 4750 1959 4750 
Q 2769 4750 3195 4129 
Q 3622 3509 3622 2328 
Q 3622 1225 3098 567 
Q 2575 -91 1691 -91 
Q 1453 -91 1209 -44 
Q 966 3 703 97 
z
M 1959 2075 
Q 2384 2075 2632 2365 
Q 2881 2656 2881 3163 
Q 2881 3666 2632 3958 
Q 2384 4250 1959 4250 
Q 1534 4250 1286 3958 
Q 1038 3666 1038 3163 
Q 1038 2656 1286 2365 
Q 1534 2075 1959 2075 
z
" transform="scale(0.015625)"/>
       </defs>
       <use xlink:href="#DejaVuSans-30"/>
       <use xlink:href="#DejaVuSans-2e" transform="translate(63.623047 0)"/>
       <use xlink:href="#DejaVuSans-39" transform="translate(95.410156 0)"/>
      </g>
     </g>
    </g>
    <g id="ytick_6">
     <g id="line2d_15">
      <g>
       <use xlink:href="#mac6beb8159" x="43.78125" y="16.717193" style="stroke: #000000; stroke-width: 0.8"/>
      </g>
     </g>
     <g id="text_16">
      <!-- 1.0 -->
      <g transform="translate(20.878125 20.516412) scale(0.1 -0.1)">
       <use xlink:href="#DejaVuSans-31"/>
       <use xlink:href="#DejaVuSans-2e" transform="translate(63.623047 0)"/>
       <use xlink:href="#DejaVuSans-30" transform="translate(95.410156 0)"/>
      </g>
     </g>
    </g>
    <g id="text_17">
     <!-- accuracy -->
     <g transform="translate(14.798438 165.379375) rotate(-90) scale(0.1 -0.1)">
      <defs>
       <path id="DejaVuSans-63" d="M 3122 3366 
L 3122 2828 
Q 2878 2963 2633 3030 
Q 2388 3097 2138 3097 
Q 1578 3097 1268 2742 
Q 959 2388 959 1747 
Q 959 1106 1268 751 
Q 1578 397 2138 397 
Q 2388 397 2633 464 
Q 2878 531 3122 666 
L 3122 134 
Q 2881 22 2623 -34 
Q 2366 -91 2075 -91 
Q 1284 -91 818 406 
Q 353 903 353 1747 
Q 353 2603 823 3093 
Q 1294 3584 2113 3584 
Q 2378 3584 2631 3529 
Q 2884 3475 3122 3366 
z
" transform="scale(0.015625)"/>
       <path id="DejaVuSans-75" d="M 544 1381 
L 544 3500 
L 1119 3500 
L 1119 1403 
Q 1119 906 1312 657 
Q 1506 409 1894 409 
Q 2359 409 2629 706 
Q 2900 1003 2900 1516 
L 2900 3500 
L 3475 3500 
L 3475 0 
L 2900 0 
L 2900 538 
Q 2691 219 2414 64 
Q 2138 -91 1772 -91 
Q 1169 -91 856 284 
Q 544 659 544 1381 
z
M 1991 3584 
L 1991 3584 
z
" transform="scale(0.015625)"/>
       <path id="DejaVuSans-79" d="M 2059 -325 
Q 1816 -950 1584 -1140 
Q 1353 -1331 966 -1331 
L 506 -1331 
L 506 -850 
L 844 -850 
Q 1081 -850 1212 -737 
Q 1344 -625 1503 -206 
L 1606 56 
L 191 3500 
L 800 3500 
L 1894 763 
L 2988 3500 
L 3597 3500 
L 2059 -325 
z
" transform="scale(0.015625)"/>
      </defs>
      <use xlink:href="#DejaVuSans-61"/>
      <use xlink:href="#DejaVuSans-63" transform="translate(61.279297 0)"/>
      <use xlink:href="#DejaVuSans-63" transform="translate(116.259766 0)"/>
      <use xlink:href="#DejaVuSans-75" transform="translate(171.240234 0)"/>
      <use xlink:href="#DejaVuSans-72" transform="translate(234.619141 0)"/>
      <use xlink:href="#DejaVuSans-61" transform="translate(275.732422 0)"/>
      <use xlink:href="#DejaVuSans-63" transform="translate(337.011719 0)"/>
      <use xlink:href="#DejaVuSans-79" transform="translate(391.992188 0)"/>
     </g>
    </g>
   </g>
   <g id="line2d_16">
    <path d="M 64.030341 252.352528 
L 84.279432 217.354306 
L 104.528523 227.432632 
L 124.777614 161.444282 
L 145.026705 112.795301 
L 165.275795 117.239059 
L 185.524886 76.199649 
L 205.773977 78.813624 
L 226.023068 55.897776 
L 246.272159 33.76612 
L 266.52125 47.620188 
L 286.770341 45.906582 
L 307.019432 43.060253 
L 327.268523 27.144049 
L 347.517614 56.711012 
L 367.766705 29.322362 
L 388.015795 16.97859 
L 408.264886 16.891458 
L 428.513977 16.83337 
L 448.763068 16.862414 
L 469.012159 16.83337 
" clip-path="url(#pc49a271ff4)" style="fill: none; stroke: #000000; stroke-width: 1.5; stroke-linecap: square"/>
    <defs>
     <path id="m941ca4622b" d="M 0 1.5 
C 0.397805 1.5 0.77937 1.341951 1.06066 1.06066 
C 1.341951 0.77937 1.5 0.397805 1.5 0 
C 1.5 -0.397805 1.341951 -0.77937 1.06066 -1.06066 
C 0.77937 -1.341951 0.397805 -1.5 0 -1.5 
C -0.397805 -1.5 -0.77937 -1.341951 -1.06066 -1.06066 
C -1.341951 -0.77937 -1.5 -0.397805 -1.5 0 
C -1.5 0.397805 -1.341951 0.77937 -1.06066 1.06066 
C -0.77937 1.341951 -0.397805 1.5 0 1.5 
z
" style="stroke: #000000"/>
    </defs>
    <g clip-path="url(#pc49a271ff4)">
     <use xlink:href="#m941ca4622b" x="64.030341" y="252.352528" style="stroke: #000000"/>
     <use xlink:href="#m941ca4622b" x="84.279432" y="217.354306" style="stroke: #000000"/>
     <use xlink:href="#m941ca4622b" x="104.528523" y="227.432632" style="stroke: #000000"/>
     <use xlink:href="#m941ca4622b" x="124.777614" y="161.444282" style="stroke: #000000"/>
     <use xlink:href="#m941ca4622b" x="145.026705" y="112.795301" style="stroke: #000000"/>
     <use xlink:href="#m941ca4622b" x="165.275795" y="117.239059" style="stroke: #000000"/>
     <use xlink:href="#m941ca4622b" x="185.524886" y="76.199649" style="stroke: #000000"/>
     <use xlink:href="#m941ca4622b" x="205.773977" y="78.813624" style="stroke: #000000"/>
     <use xlink:href="#m941ca4622b" x="226.023068" y="55.897776" style="stroke: #000000"/>
     <use xlink:href="#m941ca4622b" x="246.272159" y="33.76612" style="stroke: #000000"/>
     <use xlink:href="#m941ca4622b" x="266.52125" y="47.620188" style="stroke: #000000"/>
     <use xlink:href="#m941ca4622b" x="286.770341" y="45.906582" style="stroke: #000000"/>
     <use xlink:href="#m941ca4622b" x="307.019432" y="43.060253" style="stroke: #000000"/>
     <use xlink:href="#m941ca4622b" x="327.268523" y="27.144049" style="stroke: #000000"/>
     <use xlink:href="#m941ca4622b" x="347.517614" y="56.711012" style="stroke: #000000"/>
     <use xlink:href="#m941ca4622b" x="367.766705" y="29.322362" style="stroke: #000000"/>
     <use xlink:href="#m941ca4622b" x="388.015795" y="16.97859" style="stroke: #000000"/>
     <use xlink:href="#m941ca4622b" x="408.264886" y="16.891458" style="stroke: #000000"/>
     <use xlink:href="#m941ca4622b" x="428.513977" y="16.83337" style="stroke: #000000"/>
     <use xlink:href="#m941ca4622b" x="448.763068" y="16.862414" style="stroke: #000000"/>
     <use xlink:href="#m941ca4622b" x="469.012159" y="16.83337" style="stroke: #000000"/>
    </g>
   </g>
   <g id="line2d_17">
    <path d="M 64.030341 252.352528 
L 84.279432 232.834847 
L 104.528523 200.537732 
L 124.777614 207.76973 
L 145.026705 195.91971 
L 165.275795 193.683309 
L 185.524886 164.987671 
L 205.773977 152.09206 
L 226.023068 157.813761 
L 246.272159 123.193113 
L 266.52125 135.188354 
L 286.770341 116.745308 
L 307.019432 113.550449 
L 327.268523 125.110028 
L 347.517614 92.377251 
L 367.766705 108.81625 
L 388.015795 112.30155 
L 408.264886 89.850408 
L 428.513977 90.866954 
L 448.763068 88.572465 
L 469.012159 80.672451 
" clip-path="url(#pc49a271ff4)" style="fill: none; stroke: #1f77b4; stroke-width: 1.5; stroke-linecap: square"/>
    <defs>
     <path id="m9a375650d2" d="M 0 1.5 
C 0.397805 1.5 0.77937 1.341951 1.06066 1.06066 
C 1.341951 0.77937 1.5 0.397805 1.5 0 
C 1.5 -0.397805 1.341951 -0.77937 1.06066 -1.06066 
C 0.77937 -1.341951 0.397805 -1.5 0 -1.5 
C -0.397805 -1.5 -0.77937 -1.341951 -1.06066 -1.06066 
C -1.341951 -0.77937 -1.5 -0.397805 -1.5 0 
C -1.5 0.397805 -1.341951 0.77937 -1.06066 1.06066 
C -0.77937 1.341951 -0.397805 1.5 0 1.5 
z
" style="stroke: #1f77b4"/>
    </defs>
    <g clip-path="url(#pc49a271ff4)">
     <use xlink:href="#m9a375650d2" x="64.030341" y="252.352528" style="fill: #1f77b4; stroke: #1f77b4"/>
     <use xlink:href="#m9a375650d2" x="84.279432" y="232.834847" style="fill: #1f77b4; stroke: #1f77b4"/>
     <use xlink:href="#m9a375650d2" x="104.528523" y="200.537732" style="fill: #1f77b4; stroke: #1f77b4"/>
     <use xlink:href="#m9a375650d2" x="124.777614" y="207.76973" style="fill: #1f77b4; stroke: #1f77b4"/>
     <use xlink:href="#m9a375650d2" x="145.026705" y="195.91971" style="fill: #1f77b4; stroke: #1f77b4"/>
     <use xlink:href="#m9a375650d2" x="165.275795" y="193.683309" style="fill: #1f77b4; stroke: #1f77b4"/>
     <use xlink:href="#m9a375650d2" x="185.524886" y="164.987671" style="fill: #1f77b4; stroke: #1f77b4"/>
     <use xlink:href="#m9a375650d2" x="205.773977" y="152.09206" style="fill: #1f77b4; stroke: #1f77b4"/>
     <use xlink:href="#m9a375650d2" x="226.023068" y="157.813761" style="fill: #1f77b4; stroke: #1f77b4"/>
     <use xlink:href="#m9a375650d2" x="246.272159" y="123.193113" style="fill: #1f77b4; stroke: #1f77b4"/>
     <use xlink:href="#m9a375650d2" x="266.52125" y="135.188354" style="fill: #1f77b4; stroke: #1f77b4"/>
     <use xlink:href="#m9a375650d2" x="286.770341" y="116.745308" style="fill: #1f77b4; stroke: #1f77b4"/>
     <use xlink:href="#m9a375650d2" x="307.019432" y="113.550449" style="fill: #1f77b4; stroke: #1f77b4"/>
     <use xlink:href="#m9a375650d2" x="327.268523" y="125.110028" style="fill: #1f77b4; stroke: #1f77b4"/>
     <use xlink:href="#m9a375650d2" x="347.517614" y="92.377251" style="fill: #1f77b4; stroke: #1f77b4"/>
     <use xlink:href="#m9a375650d2" x="367.766705" y="108.81625" style="fill: #1f77b4; stroke: #1f77b4"/>
     <use xlink:href="#m9a375650d2" x="388.015795" y="112.30155" style="fill: #1f77b4; stroke: #1f77b4"/>
     <use xlink:href="#m9a375650d2" x="408.264886" y="89.850408" style="fill: #1f77b4; stroke: #1f77b4"/>
     <use xlink:href="#m9a375650d2" x="428.513977" y="90.866954" style="fill: #1f77b4; stroke: #1f77b4"/>
     <use xlink:href="#m9a375650d2" x="448.763068" y="88.572465" style="fill: #1f77b4; stroke: #1f77b4"/>
     <use xlink:href="#m9a375650d2" x="469.012159" y="80.672451" style="fill: #1f77b4; stroke: #1f77b4"/>
    </g>
   </g>
   <g id="line2d_18">
    <path d="M 64.030341 252.352528 
L 84.279432 239.979713 
L 104.528523 210.55797 
L 124.777614 233.938526 
L 145.026705 220.287767 
L 165.275795 206.898405 
L 185.524886 188.891021 
L 205.773977 191.911615 
L 226.023068 179.68402 
L 246.272159 189.762346 
L 266.52125 194.728899 
L 286.770341 160.950531 
L 307.019432 163.738772 
L 327.268523 157.784717 
L 347.517614 184.069689 
L 367.766705 156.071111 
L 388.015795 159.556411 
L 408.264886 149.884703 
L 428.513977 155.519272 
L 448.763068 153.108606 
L 469.012159 156.47773 
" clip-path="url(#pc49a271ff4)" style="fill: none; stroke: #d62728; stroke-width: 1.5; stroke-linecap: square"/>
    <defs>
     <path id="m0664d65bf6" d="M 0 1.5 
C 0.397805 1.5 0.77937 1.341951 1.06066 1.06066 
C 1.341951 0.77937 1.5 0.397805 1.5 0 
C 1.5 -0.397805 1.341951 -0.77937 1.06066 -1.06066 
C 0.77937 -1.341951 0.397805 -1.5 0 -1.5 
C -0.397805 -1.5 -0.77937 -1.341951 -1.06066 -1.06066 
C -1.341951 -0.77937 -1.5 -0.397805 -1.5 0 
C -1.5 0.397805 -1.341951 0.77937 -1.06066 1.06066 
C -0.77937 1.341951 -0.397805 1.5 0 1.5 
z
" style="stroke: #d62728"/>
    </defs>
    <g clip-path="url(#pc49a271ff4)">
     <use xlink:href="#m0664d65bf6" x="64.030341" y="252.352528" style="fill: #d62728; stroke: #d62728"/>
     <use xlink:href="#m0664d65bf6" x="84.279432" y="239.979713" style="fill: #d62728; stroke: #d62728"/>
     <use xlink:href="#m0664d65bf6" x="104.528523" y="210.55797" style="fill: #d62728; stroke: #d62728"/>
     <use xlink:href="#m0664d65bf6" x="124.777614" y="233.938526" style="fill: #d62728; stroke: #d62728"/>
     <use xlink:href="#m0664d65bf6" x="145.026705" y="220.287767" style="fill: #d62728; stroke: #d62728"/>
     <use xlink:href="#m0664d65bf6" x="165.275795" y="206.898405" style="fill: #d62728; stroke: #d62728"/>
     <use xlink:href="#m0664d65bf6" x="185.524886" y="188.891021" style="fill: #d62728; stroke: #d62728"/>
     <use xlink:href="#m0664d65bf6" x="205.773977" y="191.911615" style="fill: #d62728; stroke: #d62728"/>
     <use xlink:href="#m0664d65bf6" x="226.023068" y="179.68402" style="fill: #d62728; stroke: #d62728"/>
     <use xlink:href="#m0664d65bf6" x="246.272159" y="189.762346" style="fill: #d62728; stroke: #d62728"/>
     <use xlink:href="#m0664d65bf6" x="266.52125" y="194.728899" style="fill: #d62728; stroke: #d62728"/>
     <use xlink:href="#m0664d65bf6" x="286.770341" y="160.950531" style="fill: #d62728; stroke: #d62728"/>
     <use xlink:href="#m0664d65bf6" x="307.019432" y="163.738772" style="fill: #d62728; stroke: #d62728"/>
     <use xlink:href="#m0664d65bf6" x="327.268523" y="157.784717" style="fill: #d62728; stroke: #d62728"/>
     <use xlink:href="#m0664d65bf6" x="347.517614" y="184.069689" style="fill: #d62728; stroke: #d62728"/>
     <use xlink:href="#m0664d65bf6" x="367.766705" y="156.071111" style="fill: #d62728; stroke: #d62728"/>
     <use xlink:href="#m0664d65bf6" x="388.015795" y="159.556411" style="fill: #d62728; stroke: #d62728"/>
     <use xlink:href="#m0664d65bf6" x="408.264886" y="149.884703" style="fill: #d62728; stroke: #d62728"/>
     <use xlink:href="#m0664d65bf6" x="428.513977" y="155.519272" style="fill: #d62728; stroke: #d62728"/>
     <use xlink:href="#m0664d65bf6" x="448.763068" y="153.108606" style="fill: #d62728; stroke: #d62728"/>
     <use xlink:href="#m0664d65bf6" x="469.012159" y="156.47773" style="fill: #d62728; stroke: #d62728"/>
    </g>
   </g>
   <g id="line2d_19">
    <path d="M 64.030341 252.352528 
L 84.279432 239.631183 
L 104.528523 211.225986 
L 124.777614 233.764261 
L 145.026705 220.258723 
L 165.275795 205.67855 
L 185.524886 189.733302 
L 205.773977 191.88257 
L 226.023068 181.165272 
L 246.272159 189.413816 
L 266.52125 194.496546 
L 286.770341 159.585456 
L 307.019432 163.041712 
L 327.268523 156.768171 
L 347.517614 180.03255 
L 367.766705 155.170742 
L 388.015795 159.846853 
L 408.264886 148.722937 
L 428.513977 154.096108 
L 448.763068 149.594262 
L 469.012159 156.303465 
" clip-path="url(#pc49a271ff4)" style="fill: none; stroke: #ff7f0e; stroke-width: 1.5; stroke-linecap: square"/>
    <defs>
     <path id="mc172d787a9" d="M 0 1.5 
C 0.397805 1.5 0.77937 1.341951 1.06066 1.06066 
C 1.341951 0.77937 1.5 0.397805 1.5 0 
C 1.5 -0.397805 1.341951 -0.77937 1.06066 -1.06066 
C 0.77937 -1.341951 0.397805 -1.5 0 -1.5 
C -0.397805 -1.5 -0.77937 -1.341951 -1.06066 -1.06066 
C -1.341951 -0.77937 -1.5 -0.397805 -1.5 0 
C -1.5 0.397805 -1.341951 0.77937 -1.06066 1.06066 
C -0.77937 1.341951 -0.397805 1.5 0 1.5 
z
" style="stroke: #ff7f0e"/>
    </defs>
    <g clip-path="url(#pc49a271ff4)">
     <use xlink:href="#mc172d787a9" x="64.030341" y="252.352528" style="fill: #ff7f0e; stroke: #ff7f0e"/>
     <use xlink:href="#mc172d787a9" x="84.279432" y="239.631183" style="fill: #ff7f0e; stroke: #ff7f0e"/>
     <use xlink:href="#mc172d787a9" x="104.528523" y="211.225986" style="fill: #ff7f0e; stroke: #ff7f0e"/>
     <use xlink:href="#mc172d787a9" x="124.777614" y="233.764261" style="fill: #ff7f0e; stroke: #ff7f0e"/>
     <use xlink:href="#mc172d787a9" x="145.026705" y="220.258723" style="fill: #ff7f0e; stroke: #ff7f0e"/>
     <use xlink:href="#mc172d787a9" x="165.275795" y="205.67855" style="fill: #ff7f0e; stroke: #ff7f0e"/>
     <use xlink:href="#mc172d787a9" x="185.524886" y="189.733302" style="fill: #ff7f0e; stroke: #ff7f0e"/>
     <use xlink:href="#mc172d787a9" x="205.773977" y="191.88257" style="fill: #ff7f0e; stroke: #ff7f0e"/>
     <use xlink:href="#mc172d787a9" x="226.023068" y="181.165272" style="fill: #ff7f0e; stroke: #ff7f0e"/>
     <use xlink:href="#mc172d787a9" x="246.272159" y="189.413816" style="fill: #ff7f0e; stroke: #ff7f0e"/>
     <use xlink:href="#mc172d787a9" x="266.52125" y="194.496546" style="fill: #ff7f0e; stroke: #ff7f0e"/>
     <use xlink:href="#mc172d787a9" x="286.770341" y="159.585456" style="fill: #ff7f0e; stroke: #ff7f0e"/>
     <use xlink:href="#mc172d787a9" x="307.019432" y="163.041712" style="fill: #ff7f0e; stroke: #ff7f0e"/>
     <use xlink:href="#mc172d787a9" x="327.268523" y="156.768171" style="fill: #ff7f0e; stroke: #ff7f0e"/>
     <use xlink:href="#mc172d787a9" x="347.517614" y="180.03255" style="fill: #ff7f0e; stroke: #ff7f0e"/>
     <use xlink:href="#mc172d787a9" x="367.766705" y="155.170742" style="fill: #ff7f0e; stroke: #ff7f0e"/>
     <use xlink:href="#mc172d787a9" x="388.015795" y="159.846853" style="fill: #ff7f0e; stroke: #ff7f0e"/>
     <use xlink:href="#mc172d787a9" x="408.264886" y="148.722937" style="fill: #ff7f0e; stroke: #ff7f0e"/>
     <use xlink:href="#mc172d787a9" x="428.513977" y="154.096108" style="fill: #ff7f0e; stroke: #ff7f0e"/>
     <use xlink:href="#mc172d787a9" x="448.763068" y="149.594262" style="fill: #ff7f0e; stroke: #ff7f0e"/>
     <use xlink:href="#mc172d787a9" x="469.012159" y="156.303465" style="fill: #ff7f0e; stroke: #ff7f0e"/>
    </g>
   </g>
   <g id="line2d_20">
    <path d="M 43.78125 254.647018 
L 489.26125 254.647018 
" clip-path="url(#pc49a271ff4)" style="fill: none; stroke-dasharray: 5.55,2.4; stroke-dashoffset: 0; stroke: #808080; stroke-width: 1.5"/>
   </g>
   <g id="patch_3">
    <path d="M 43.78125 278.44 
L 43.78125 7.2 
" style="fill: none; stroke: #000000; stroke-width: 0.8; stroke-linejoin: miter; stroke-linecap: square"/>
   </g>
   <g id="patch_4">
    <path d="M 489.26125 278.44 
L 489.26125 7.2 
" style="fill: none; stroke: #000000; stroke-width: 0.8; stroke-linejoin: miter; stroke-linecap: square"/>
   </g>
   <g id="patch_5">
    <path d="M 43.78125 278.44 
L 489.26125 278.44 
" style="fill: none; stroke: #000000; stroke-width: 0.8; stroke-linejoin: miter; stroke-linecap: square"/>
   </g>
   <g id="patch_6">
    <path d="M 43.78125 7.2 
L 489.26125 7.2 
" style="fill: none; stroke: #000000; stroke-width: 0.8; stroke-linejoin: miter; stroke-linecap: square"/>
   </g>
   <g id="legend_1">
    <g id="patch_7">
     <path d="M 49.38125 72.3125 
L 144.6125 72.3125 
Q 146.2125 72.3125 146.2125 70.7125 
L 146.2125 12.8 
Q 146.2125 11.2 144.6125 11.2 
L 49.38125 11.2 
Q 47.78125 11.2 47.78125 12.8 
L 47.78125 70.7125 
Q 47.78125 72.3125 49.38125 72.3125 
z
" style="fill: #ffffff; opacity: 0.8; stroke: #cccccc; stroke-linejoin: miter"/>
    </g>
    <g id="line2d_21">
     <path d="M 50.98125 17.67875 
L 58.98125 17.67875 
L 66.98125 17.67875 
" style="fill: none; stroke: #000000; stroke-width: 1.5; stroke-linecap: square"/>
     <g>
      <use xlink:href="#m941ca4622b" x="58.98125" y="17.67875" style="stroke: #000000"/>
     </g>
    </g>
    <g id="text_18">
     <!-- BPTT -->
     <g transform="translate(73.38125 20.47875) scale(0.08 -0.08)">
      <defs>
       <path id="DejaVuSans-42" d="M 1259 2228 
L 1259 519 
L 2272 519 
Q 2781 519 3026 730 
Q 3272 941 3272 1375 
Q 3272 1813 3026 2020 
Q 2781 2228 2272 2228 
L 1259 2228 
z
M 1259 4147 
L 1259 2741 
L 2194 2741 
Q 2656 2741 2882 2914 
Q 3109 3088 3109 3444 
Q 3109 3797 2882 3972 
Q 2656 4147 2194 4147 
L 1259 4147 
z
M 628 4666 
L 2241 4666 
Q 2963 4666 3353 4366 
Q 3744 4066 3744 3513 
Q 3744 3084 3544 2831 
Q 3344 2578 2956 2516 
Q 3422 2416 3680 2098 
Q 3938 1781 3938 1306 
Q 3938 681 3513 340 
Q 3088 0 2303 0 
L 628 0 
L 628 4666 
z
" transform="scale(0.015625)"/>
       <path id="DejaVuSans-50" d="M 1259 4147 
L 1259 2394 
L 2053 2394 
Q 2494 2394 2734 2622 
Q 2975 2850 2975 3272 
Q 2975 3691 2734 3919 
Q 2494 4147 2053 4147 
L 1259 4147 
z
M 628 4666 
L 2053 4666 
Q 2838 4666 3239 4311 
Q 3641 3956 3641 3272 
Q 3641 2581 3239 2228 
Q 2838 1875 2053 1875 
L 1259 1875 
L 1259 0 
L 628 0 
L 628 4666 
z
" transform="scale(0.015625)"/>
       <path id="DejaVuSans-54" d="M -19 4666 
L 3928 4666 
L 3928 4134 
L 2272 4134 
L 2272 0 
L 1638 0 
L 1638 4134 
L -19 4134 
L -19 4666 
z
" transform="scale(0.015625)"/>
      </defs>
      <use xlink:href="#DejaVuSans-42"/>
      <use xlink:href="#DejaVuSans-50" transform="translate(68.603516 0)"/>
      <use xlink:href="#DejaVuSans-54" transform="translate(128.90625 0)"/>
      <use xlink:href="#DejaVuSans-54" transform="translate(188.240234 0)"/>
     </g>
    </g>
    <g id="line2d_22">
     <path d="M 50.98125 29.42125 
L 58.98125 29.42125 
L 66.98125 29.42125 
" style="fill: none; stroke: #1f77b4; stroke-width: 1.5; stroke-linecap: square"/>
     <g>
      <use xlink:href="#m9a375650d2" x="58.98125" y="29.42125" style="fill: #1f77b4; stroke: #1f77b4"/>
     </g>
    </g>
    <g id="text_19">
     <!-- deep e-prop (full) -->
     <g transform="translate(73.38125 32.22125) scale(0.08 -0.08)">
      <defs>
       <path id="DejaVuSans-64" d="M 2906 2969 
L 2906 4863 
L 3481 4863 
L 3481 0 
L 2906 0 
L 2906 525 
Q 2725 213 2448 61 
Q 2172 -91 1784 -91 
Q 1150 -91 751 415 
Q 353 922 353 1747 
Q 353 2572 751 3078 
Q 1150 3584 1784 3584 
Q 2172 3584 2448 3432 
Q 2725 3281 2906 2969 
z
M 947 1747 
Q 947 1113 1208 752 
Q 1469 391 1925 391 
Q 2381 391 2643 752 
Q 2906 1113 2906 1747 
Q 2906 2381 2643 2742 
Q 2381 3103 1925 3103 
Q 1469 3103 1208 2742 
Q 947 2381 947 1747 
z
" transform="scale(0.015625)"/>
       <path id="DejaVuSans-2d" d="M 313 2009 
L 1997 2009 
L 1997 1497 
L 313 1497 
L 313 2009 
z
" transform="scale(0.015625)"/>
       <path id="DejaVuSans-6f" d="M 1959 3097 
Q 1497 3097 1228 2736 
Q 959 2375 959 1747 
Q 959 1119 1226 758 
Q 1494 397 1959 397 
Q 2419 397 2687 759 
Q 2956 1122 2956 1747 
Q 2956 2369 2687 2733 
Q 2419 3097 1959 3097 
z
M 1959 3584 
Q 2709 3584 3137 3096 
Q 3566 2609 3566 1747 
Q 3566 888 3137 398 
Q 2709 -91 1959 -91 
Q 1206 -91 779 398 
Q 353 888 353 1747 
Q 353 2609 779 3096 
Q 1206 3584 1959 3584 
z
" transform="scale(0.015625)"/>
       <path id="DejaVuSans-28" d="M 1984 4856 
Q 1566 4138 1362 3434 
Q 1159 2731 1159 2009 
Q 1159 1288 1364 580 
Q 1569 -128 1984 -844 
L 1484 -844 
Q 1016 -109 783 600 
Q 550 1309 550 2009 
Q 550 2706 781 3412 
Q 1013 4119 1484 4856 
L 1984 4856 
z
" transform="scale(0.015625)"/>
       <path id="DejaVuSans-66" d="M 2375 4863 
L 2375 4384 
L 1825 4384 
Q 1516 4384 1395 4259 
Q 1275 4134 1275 3809 
L 1275 3500 
L 2222 3500 
L 2222 3053 
L 1275 3053 
L 1275 0 
L 697 0 
L 697 3053 
L 147 3053 
L 147 3500 
L 697 3500 
L 697 3744 
Q 697 4328 969 4595 
Q 1241 4863 1831 4863 
L 2375 4863 
z
" transform="scale(0.015625)"/>
       <path id="DejaVuSans-6c" d="M 603 4863 
L 1178 4863 
L 1178 0 
L 603 0 
L 603 4863 
z
" transform="scale(0.015625)"/>
       <path id="DejaVuSans-29" d="M 513 4856 
L 1013 4856 
Q 1481 4119 1714 3412 
Q 1947 2706 1947 2009 
Q 1947 1309 1714 600 
Q 1481 -109 1013 -844 
L 513 -844 
Q 928 -128 1133 580 
Q 1338 1288 1338 2009 
Q 1338 2731 1133 3434 
Q 928 4138 513 4856 
z
" transform="scale(0.015625)"/>
      </defs>
      <use xlink:href="#DejaVuSans-64"/>
      <use xlink:href="#DejaVuSans-65" transform="translate(63.476562 0)"/>
      <use xlink:href="#DejaVuSans-65" transform="translate(125 0)"/>
      <use xlink:href="#DejaVuSans-70" transform="translate(186.523438 0)"/>
      <use xlink:href="#DejaVuSans-20" transform="translate(250 0)"/>
      <use xlink:href="#DejaVuSans-65" transform="translate(281.787109 0)"/>
      <use xlink:href="#DejaVuSans-2d" transform="translate(343.310547 0)"/>
      <use xlink:href="#DejaVuSans-70" transform="translate(379.394531 0)"/>
      <use xlink:href="#DejaVuSans-72" transform="translate(442.871094 0)"/>
      <use xlink:href="#DejaVuSans-6f" transform="translate(481.734375 0)"/>
      <use xlink:href="#DejaVuSans-70" transform="translate(542.916016 0)"/>
      <use xlink:href="#DejaVuSans-20" transform="translate(606.392578 0)"/>
      <use xlink:href="#DejaVuSans-28" transform="translate(638.179688 0)"/>
      <use xlink:href="#DejaVuSans-66" transform="translate(677.193359 0)"/>
      <use xlink:href="#DejaVuSans-75" transform="translate(712.398438 0)"/>
      <use xlink:href="#DejaVuSans-6c" transform="translate(775.777344 0)"/>
      <use xlink:href="#DejaVuSans-6c" transform="translate(803.560547 0)"/>
      <use xlink:href="#DejaVuSans-29" transform="translate(831.34375 0)"/>
     </g>
    </g>
    <g id="line2d_23">
     <path d="M 50.98125 41.16375 
L 58.98125 41.16375 
L 66.98125 41.16375 
" style="fill: none; stroke: #d62728; stroke-width: 1.5; stroke-linecap: square"/>
     <g>
      <use xlink:href="#m0664d65bf6" x="58.98125" y="41.16375" style="fill: #d62728; stroke: #d62728"/>
     </g>
    </g>
    <g id="text_20">
     <!-- ablate temporal -->
     <g transform="translate(73.38125 43.96375) scale(0.08 -0.08)">
      <defs>
       <path id="DejaVuSans-62" d="M 3116 1747 
Q 3116 2381 2855 2742 
Q 2594 3103 2138 3103 
Q 1681 3103 1420 2742 
Q 1159 2381 1159 1747 
Q 1159 1113 1420 752 
Q 1681 391 2138 391 
Q 2594 391 2855 752 
Q 3116 1113 3116 1747 
z
M 1159 2969 
Q 1341 3281 1617 3432 
Q 1894 3584 2278 3584 
Q 2916 3584 3314 3078 
Q 3713 2572 3713 1747 
Q 3713 922 3314 415 
Q 2916 -91 2278 -91 
Q 1894 -91 1617 61 
Q 1341 213 1159 525 
L 1159 0 
L 581 0 
L 581 4863 
L 1159 4863 
L 1159 2969 
z
" transform="scale(0.015625)"/>
       <path id="DejaVuSans-6d" d="M 3328 2828 
Q 3544 3216 3844 3400 
Q 4144 3584 4550 3584 
Q 5097 3584 5394 3201 
Q 5691 2819 5691 2113 
L 5691 0 
L 5113 0 
L 5113 2094 
Q 5113 2597 4934 2840 
Q 4756 3084 4391 3084 
Q 3944 3084 3684 2787 
Q 3425 2491 3425 1978 
L 3425 0 
L 2847 0 
L 2847 2094 
Q 2847 2600 2669 2842 
Q 2491 3084 2119 3084 
Q 1678 3084 1418 2786 
Q 1159 2488 1159 1978 
L 1159 0 
L 581 0 
L 581 3500 
L 1159 3500 
L 1159 2956 
Q 1356 3278 1631 3431 
Q 1906 3584 2284 3584 
Q 2666 3584 2933 3390 
Q 3200 3197 3328 2828 
z
" transform="scale(0.015625)"/>
      </defs>
      <use xlink:href="#DejaVuSans-61"/>
      <use xlink:href="#DejaVuSans-62" transform="translate(61.279297 0)"/>
      <use xlink:href="#DejaVuSans-6c" transform="translate(124.755859 0)"/>
      <use xlink:href="#DejaVuSans-61" transform="translate(152.539062 0)"/>
      <use xlink:href="#DejaVuSans-74" transform="translate(213.818359 0)"/>
      <use xlink:href="#DejaVuSans-65" transform="translate(253.027344 0)"/>
      <use xlink:href="#DejaVuSans-20" transform="translate(314.550781 0)"/>
      <use xlink:href="#DejaVuSans-74" transform="translate(346.337891 0)"/>
      <use xlink:href="#DejaVuSans-65" transform="translate(385.546875 0)"/>
      <use xlink:href="#DejaVuSans-6d" transform="translate(447.070312 0)"/>
      <use xlink:href="#DejaVuSans-70" transform="translate(544.482422 0)"/>
      <use xlink:href="#DejaVuSans-6f" transform="translate(607.958984 0)"/>
      <use xlink:href="#DejaVuSans-72" transform="translate(669.140625 0)"/>
      <use xlink:href="#DejaVuSans-61" transform="translate(710.253906 0)"/>
      <use xlink:href="#DejaVuSans-6c" transform="translate(771.533203 0)"/>
     </g>
    </g>
    <g id="line2d_24">
     <path d="M 50.98125 52.90625 
L 58.98125 52.90625 
L 66.98125 52.90625 
" style="fill: none; stroke: #ff7f0e; stroke-width: 1.5; stroke-linecap: square"/>
     <g>
      <use xlink:href="#mc172d787a9" x="58.98125" y="52.90625" style="fill: #ff7f0e; stroke: #ff7f0e"/>
     </g>
    </g>
    <g id="text_21">
     <!-- ablate spatial -->
     <g transform="translate(73.38125 55.70625) scale(0.08 -0.08)">
      <use xlink:href="#DejaVuSans-61"/>
      <use xlink:href="#DejaVuSans-62" transform="translate(61.279297 0)"/>
      <use xlink:href="#DejaVuSans-6c" transform="translate(124.755859 0)"/>
      <use xlink:href="#DejaVuSans-61" transform="translate(152.539062 0)"/>
      <use xlink:href="#DejaVuSans-74" transform="translate(213.818359 0)"/>
      <use xlink:href="#DejaVuSans-65" transform="translate(253.027344 0)"/>
      <use xlink:href="#DejaVuSans-20" transform="translate(314.550781 0)"/>
      <use xlink:href="#DejaVuSans-73" transform="translate(346.337891 0)"/>
      <use xlink:href="#DejaVuSans-70" transform="translate(398.4375 0)"/>
      <use xlink:href="#DejaVuSans-61" transform="translate(461.914062 0)"/>
      <use xlink:href="#DejaVuSans-74" transform="translate(523.193359 0)"/>
      <use xlink:href="#DejaVuSans-69" transform="translate(562.402344 0)"/>
      <use xlink:href="#DejaVuSans-61" transform="translate(590.185547 0)"/>
      <use xlink:href="#DejaVuSans-6c" transform="translate(651.464844 0)"/>
     </g>
    </g>
    <g id="line2d_25">
     <path d="M 50.98125 64.64875 
L 58.98125 64.64875 
L 66.98125 64.64875 
" style="fill: none; stroke-dasharray: 5.55,2.4; stroke-dashoffset: 0; stroke: #808080; stroke-width: 1.5"/>
    </g>
    <g id="text_22">
     <!-- chance -->
     <g transform="translate(73.38125 67.44875) scale(0.08 -0.08)">
      <defs>
       <path id="DejaVuSans-68" d="M 3513 2113 
L 3513 0 
L 2938 0 
L 2938 2094 
Q 2938 2591 2744 2837 
Q 2550 3084 2163 3084 
Q 1697 3084 1428 2787 
Q 1159 2491 1159 1978 
L 1159 0 
L 581 0 
L 581 4863 
L 1159 4863 
L 1159 2956 
Q 1366 3272 1645 3428 
Q 1925 3584 2291 3584 
Q 2894 3584 3203 3211 
Q 3513 2838 3513 2113 
z
" transform="scale(0.015625)"/>
      </defs>
      <use xlink:href="#DejaVuSans-63"/>
      <use xlink:href="#DejaVuSans-68" transform="translate(54.980469 0)"/>
      <use xlink:href="#DejaVuSans-61" transform="translate(118.359375 0)"/>
      <use xlink:href="#DejaVuSans-6e" transform="translate(179.638672 0)"/>
      <use xlink:href="#DejaVuSans-63" transform="translate(243.017578 0)"/>
      <use xlink:href="#DejaVuSans-65" transform="translate(297.998047 0)"/>
     </g>
    </g>
   </g>
  </g>
 </g>
 <defs>
  <clipPath id="pc49a271ff4">
   <rect x="43.78125" y="7.2" width="445.48" height="271.24"/>
  </clipPath>
 </defs>
</svg>
