<?xml version="1.0" encoding="utf-8" standalone="no"?>
<!DOCTYPE svg PUBLIC "-//W3C//DTD SVG 1.1//EN"
  "http://www.w3.org/Graphics/SVG/1.1/DTD/svg11.dtd">
<svg xmlns:xlink="http://www.w3.org/1999/xlink" width="496.46125pt" height="315.034375pt" viewBox="0 0 496.46125 315.034375" xmlns="http://www.w3.org/2000/svg" version="1.1">
 <metadata>
  <rdf:RDF xmlns:dc="http://purl.org/dc/elements/1.1/" xmlns:cc="http://creativecommons.org/ns#" xmlns:rdf="http://www.w3.org/1999/02/22-rdf-syntax-ns#">
   <cc:Work>
    <dc:type rdf:resource="http://purl.org/dc/dcmitype/StillImage"/>
    <dc:date>2026-07-06T23:12:51.780478</dc:date>
    <dc:format>image/svg+xml</dc:format>
    <dc:creator>
     <cc:Agent>
      <dc:title>Matplotlib v3.10.0, https://matplotlib.org/</dc:title>
     </cc:Agent>
    </dc:creator>
   </cc:Work>
  </rdf:RDF>
 </metadata>
 <defs>
  <style type="text/css">*{stroke-linejoin: round; stroke-linecap: butt}</style>
 </defs>
 <g id="figure_1">
  <g id="patch_1">
   <path d="M 0 315.034375 
L 496.46125 315.034375 
L 496.46125 0 
L 0 0 
z
" style="fill: #ffffff"/>
  </g>
  <g id="axes_1">
   <g id="patch_2">
    <path d="M 43.78125 277.478125 
L 489.26125 277.478125 
L 489.26125 22.318125 
L 43.78125 22.318125 
z
" style="fill: #ffffff"/>
   </g>
   <g id="FillBetweenPolyCollection_1">
    <defs>
     <path id="mf55fb7f054" d="M 64.030341 -64.454029 
L 64.030341 -59.740312 
L 74.154886 -249.222389 
L 84.279432 -281.910572 
L 94.403977 -282.954576 
L 104.528523 -282.871508 
L 114.653068 -283.623803 
L 124.777614 -283.67285 
L 134.902159 -283.623803 
L 145.026705 -283.67285 
L 155.15125 -283.708623 
L 165.275795 -283.459358 
L 175.400341 -283.763268 
L 185.524886 -283.653978 
L 195.649432 -283.582432 
L 205.773977 -283.67285 
L 215.898523 -283.708623 
L 226.023068 -283.763268 
L 236.147614 -283.708623 
L 246.272159 -283.763268 
L 256.396705 -283.763268 
L 266.52125 -283.763268 
L 276.645795 -283.380755 
L 286.770341 -283.763268 
L 296.894886 -283.708623 
L 307.019432 -283.763268 
L 307.019432 -283.763268 
L 307.019432 -283.763268 
L 296.894886 -283.763268 
L 286.770341 -283.763268 
L 276.645795 -283.763268 
L 266.52125 -283.763268 
L 256.396705 -283.763268 
L 246.272159 -283.763268 
L 236.147614 -283.763268 
L 226.023068 -283.763268 
L 215.898523 -283.763268 
L 205.773977 -283.744396 
L 195.649432 -283.725525 
L 185.524886 -283.763268 
L 175.400341 -283.763268 
L 165.275795 -283.684664 
L 155.15125 -283.763268 
L 145.026705 -283.744396 
L 134.902159 -283.738798 
L 124.777614 -283.744396 
L 114.653068 -283.738798 
L 104.528523 -283.671424 
L 94.403977 -283.643 
L 84.279432 -283.375532 
L 74.154886 -264.260569 
L 64.030341 -64.454029 
z
" style="stroke: #000000; stroke-opacity: 0.12"/>
    </defs>
    <g clip-path="url(#p1e2230d02f)">
     <use xlink:href="#mf55fb7f054" x="0" y="315.034375" style="fill-opacity: 0.12; stroke: #000000; stroke-opacity: 0.12"/>
    </g>
   </g>
   <g id="FillBetweenPolyCollection_2">
    <defs>
     <path id="m5f8664d964" d="M 64.030341 -64.454029 
L 64.030341 -59.740312 
L 74.154886 -162.836129 
L 84.279432 -223.293506 
L 94.403977 -239.899104 
L 104.528523 -261.615058 
L 114.653068 -273.194896 
L 124.777614 -279.645602 
L 134.902159 -282.075339 
L 145.026705 -282.454408 
L 155.15125 -276.079437 
L 165.275795 -282.433073 
L 175.400341 -283.07882 
L 185.524886 -282.893467 
L 195.649432 -283.503381 
L 205.773977 -283.544689 
L 215.898523 -283.50752 
L 226.023068 -283.484995 
L 236.147614 -283.569158 
L 246.272159 -282.992067 
L 256.396705 -282.670374 
L 266.52125 -283.459358 
L 276.645795 -283.438559 
L 286.770341 -283.463898 
L 296.894886 -283.660505 
L 307.019432 -283.690408 
L 317.143977 -283.289053 
L 327.268523 -283.763268 
L 337.393068 -283.763268 
L 347.517614 -282.888953 
L 347.517614 -283.763268 
L 347.517614 -283.763268 
L 337.393068 -283.763268 
L 327.268523 -283.763268 
L 317.143977 -283.712893 
L 307.019432 -283.763268 
L 296.894886 -283.741128 
L 286.770341 -283.734769 
L 276.645795 -283.705464 
L 266.52125 -283.684664 
L 256.396705 -283.490044 
L 246.272159 -283.550864 
L 236.147614 -283.684153 
L 226.023068 -283.659027 
L 215.898523 -283.636502 
L 205.773977 -283.653978 
L 195.649432 -283.585996 
L 185.524886 -283.266951 
L 175.400341 -283.464111 
L 165.275795 -283.180898 
L 155.15125 -282.92253 
L 145.026705 -283.104919 
L 134.902159 -282.773607 
L 124.777614 -281.542151 
L 114.653068 -279.085777 
L 104.528523 -271.64927 
L 94.403977 -249.485556 
L 84.279432 -237.129479 
L 74.154886 -185.401352 
L 64.030341 -64.454029 
z
" style="stroke: #1f77b4; stroke-opacity: 0.12"/>
    </defs>
    <g clip-path="url(#p1e2230d02f)">
     <use xlink:href="#m5f8664d964" x="0" y="315.034375" style="fill: #1f77b4; fill-opacity: 0.12; stroke: #1f77b4; stroke-opacity: 0.12"/>
    </g>
   </g>
   <g id="FillBetweenPolyCollection_3">
    <defs>
     <path id="mf6bef50536" d="M 64.030341 -64.454029 
L 64.030341 -59.740312 
L 74.154886 -103.278243 
L 84.279432 -134.444156 
L 94.403977 -164.438765 
L 104.528523 -202.064809 
L 114.653068 -236.047458 
L 124.777614 -258.707919 
L 134.902159 -269.636717 
L 145.026705 -274.607429 
L 155.15125 -275.829128 
L 165.275795 -279.195956 
L 175.400341 -278.719554 
L 185.524886 -280.624639 
L 195.649432 -280.377382 
L 205.773977 -281.916143 
L 215.898523 -280.953549 
L 226.023068 -282.697519 
L 236.147614 -282.278245 
L 246.272159 -282.341467 
L 256.396705 -282.784924 
L 266.52125 -282.32718 
L 276.645795 -283.042404 
L 286.770341 -283.005055 
L 296.894886 -271.480357 
L 307.019432 -282.782804 
L 317.143977 -283.136538 
L 327.268523 -283.262622 
L 337.393068 -283.113855 
L 347.517614 -282.877027 
L 357.642159 -283.32611 
L 357.642159 -283.32611 
L 357.642159 -283.32611 
L 347.517614 -283.556615 
L 337.393068 -283.611225 
L 327.268523 -283.576952 
L 317.143977 -283.578134 
L 307.019432 -283.32297 
L 296.894886 -283.204681 
L 286.770341 -283.373942 
L 276.645795 -283.500527 
L 266.52125 -283.177502 
L 256.396705 -283.266205 
L 246.272159 -283.163216 
L 236.147614 -282.953214 
L 226.023068 -283.298965 
L 215.898523 -282.63857 
L 205.773977 -282.932803 
L 195.649432 -282.012554 
L 185.524886 -282.202455 
L 175.400341 -281.648529 
L 165.275795 -281.937152 
L 155.15125 -280.440605 
L 145.026705 -280.022965 
L 134.902159 -277.0702 
L 124.777614 -267.452602 
L 114.653068 -249.730653 
L 104.528523 -228.412898 
L 94.403977 -202.487193 
L 84.279432 -171.880865 
L 74.154886 -142.992287 
L 64.030341 -64.454029 
z
" style="stroke: #d62728; stroke-opacity: 0.12"/>
    </defs>
    <g clip-path="url(#p1e2230d02f)">
     <use xlink:href="#mf6bef50536" x="0" y="315.034375" style="fill: #d62728; fill-opacity: 0.12; stroke: #d62728; stroke-opacity: 0.12"/>
    </g>
   </g>
   <g id="FillBetweenPolyCollection_4">
    <defs>
     <path id="m4e41e3c265" d="M 64.030341 -64.454029 
L 64.030341 -59.740312 
L 74.154886 -96.058832 
L 84.279432 -127.836503 
L 94.403977 -173.757846 
L 104.528523 -201.301484 
L 114.653068 -243.08904 
L 124.777614 -255.558301 
L 134.902159 -269.154648 
L 145.026705 -275.5859 
L 155.15125 -277.958101 
L 165.275795 -278.764688 
L 175.400341 -279.324593 
L 185.524886 -279.984329 
L 195.649432 -280.139431 
L 205.773977 -280.82937 
L 215.898523 -280.783379 
L 226.023068 -281.174787 
L 236.147614 -281.398433 
L 246.272159 -281.704051 
L 256.396705 -281.723841 
L 266.52125 -282.066006 
L 276.645795 -282.17448 
L 286.770341 -282.174684 
L 296.894886 -282.256759 
L 307.019432 -281.83894 
L 317.143977 -275.722647 
L 327.268523 -275.835282 
L 337.393068 -282.53737 
L 347.517614 -282.119743 
L 357.642159 -282.451796 
L 367.766705 -281.577481 
L 377.89125 -282.670374 
L 388.015795 -282.670374 
L 398.140341 -282.670374 
L 408.264886 -170.102357 
L 418.389432 -282.888953 
L 428.513977 -283.32611 
L 438.638523 -283.32611 
L 438.638523 -283.32611 
L 438.638523 -283.32611 
L 428.513977 -283.32611 
L 418.389432 -282.888953 
L 408.264886 -283.107532 
L 398.140341 -282.888953 
L 388.015795 -282.670374 
L 377.89125 -282.670374 
L 367.766705 -283.107532 
L 357.642159 -283.471829 
L 347.517614 -283.075287 
L 337.393068 -283.568404 
L 327.268523 -282.948106 
L 317.143977 -283.333965 
L 307.019432 -283.228585 
L 296.894886 -283.247923 
L 286.770341 -283.166064 
L 276.645795 -283.220913 
L 266.52125 -283.110808 
L 256.396705 -282.906527 
L 246.272159 -282.871672 
L 236.147614 -282.740132 
L 226.023068 -282.526621 
L 215.898523 -282.426228 
L 205.773977 -282.325591 
L 195.649432 -282.031927 
L 185.524886 -281.859161 
L 175.400341 -281.426003 
L 165.275795 -281.111593 
L 155.15125 -280.497419 
L 145.026705 -279.317717 
L 134.902159 -277.661558 
L 124.777614 -274.645925 
L 114.653068 -262.470441 
L 104.528523 -231.088786 
L 94.403977 -195.900345 
L 84.279432 -160.182553 
L 74.154886 -118.299212 
L 64.030341 -64.454029 
z
" style="stroke: #ff7f0e; stroke-opacity: 0.12"/>
    </defs>
    <g clip-path="url(#p1e2230d02f)">
     <use xlink:href="#m4e41e3c265" x="0" y="315.034375" style="fill: #ff7f0e; fill-opacity: 0.12; stroke: #ff7f0e; stroke-opacity: 0.12"/>
    </g>
   </g>
   <g id="FillBetweenPolyCollection_5">
    <defs>
     <path id="mb588222ad8" d="M 64.030341 -64.454029 
L 64.030341 -59.740312 
L 74.154886 -82.012987 
L 84.279432 -82.769444 
L 94.403977 -108.033021 
L 104.528523 -112.458992 
L 114.653068 -132.709866 
L 124.777614 -114.972047 
L 134.902159 -134.295001 
L 145.026705 -140.093126 
L 155.15125 -136.47975 
L 165.275795 -149.105061 
L 175.400341 -137.78007 
L 185.524886 -145.430239 
L 195.649432 -143.988947 
L 205.773977 -153.365958 
L 215.898523 -154.815229 
L 226.023068 -152.873926 
L 236.147614 -151.841619 
L 246.272159 -148.106112 
L 256.396705 -156.082954 
L 266.52125 -145.84412 
L 276.645795 -153.257112 
L 286.770341 -156.320009 
L 296.894886 -157.092096 
L 307.019432 -157.623964 
L 317.143977 -153.825654 
L 327.268523 -156.651196 
L 337.393068 -155.980028 
L 347.517614 -152.963931 
L 357.642159 -158.270148 
L 367.766705 -156.72313 
L 377.89125 -152.098352 
L 388.015795 -157.441236 
L 398.140341 -159.184287 
L 408.264886 -155.909671 
L 418.389432 -160.629006 
L 428.513977 -161.109609 
L 438.638523 -149.40229 
L 448.763068 -156.014806 
L 458.887614 -157.268198 
L 469.012159 -159.038118 
L 469.012159 -180.642008 
L 469.012159 -180.642008 
L 458.887614 -182.411929 
L 448.763068 -179.730904 
L 438.638523 -170.168598 
L 428.513977 -183.830977 
L 418.389432 -183.072967 
L 408.264886 -177.446246 
L 398.140341 -181.457586 
L 388.015795 -179.703378 
L 377.89125 -174.044468 
L 367.766705 -178.891433 
L 357.642159 -180.404517 
L 347.517614 -174.563221 
L 337.393068 -179.124518 
L 327.268523 -175.434883 
L 317.143977 -172.01532 
L 307.019432 -176.398097 
L 296.894886 -173.877669 
L 286.770341 -174.267244 
L 276.645795 -171.046005 
L 266.52125 -164.633896 
L 256.396705 -173.138182 
L 246.272159 -167.727081 
L 236.147614 -170.057132 
L 226.023068 -169.07947 
L 215.898523 -171.127228 
L 205.773977 -171.592895 
L 195.649432 -164.357926 
L 185.524886 -164.173462 
L 175.400341 -160.020383 
L 165.275795 -167.493157 
L 155.15125 -153.943672 
L 145.026705 -160.220981 
L 134.902159 -157.986339 
L 124.777614 -143.702822 
L 114.653068 -159.079673 
L 104.528523 -139.713162 
L 94.403977 -136.762103 
L 84.279432 -108.692484 
L 74.154886 -111.962595 
L 64.030341 -64.454029 
z
" style="stroke: #7f7f7f; stroke-opacity: 0.12"/>
    </defs>
    <g clip-path="url(#p1e2230d02f)">
     <use xlink:href="#mb588222ad8" x="0" y="315.034375" style="fill: #7f7f7f; fill-opacity: 0.12; stroke: #7f7f7f; stroke-opacity: 0.12"/>
    </g>
   </g>
   <g id="matplotlib.axis_1">
    <g id="xtick_1">
     <g id="line2d_1">
      <defs>
       <path id="mde425373b8" d="M 0 0 
L 0 3.5 
" style="stroke: #000000; stroke-width: 0.8"/>
      </defs>
      <g>
       <use xlink:href="#mde425373b8" x="64.030341" y="277.478125" style="stroke: #000000; stroke-width: 0.8"/>
      </g>
     </g>
     <g id="text_1">
      <!-- 0 -->
      <g transform="translate(60.849091 292.076563) scale(0.1 -0.1)">
       <defs>
        <path id="DejaVuSans-30" d="M 2034 4250 
Q 1547 4250 1301 3770 
Q 1056 3291 1056 2328 
Q 1056 1369 1301 889 
Q 1547 409 2034 409 
Q 2525 409 2770 889 
Q 3016 1369 3016 2328 
Q 3016 3291 2770 3770 
Q 2525 4250 2034 4250 
z
M 2034 4750 
Q 2819 4750 3233 4129 
Q 3647 3509 3647 2328 
Q 3647 1150 3233 529 
Q 2819 -91 2034 -91 
Q 1250 -91 836 529 
Q 422 1150 422 2328 
Q 422 3509 836 4129 
Q 1250 4750 2034 4750 
z
" transform="scale(0.015625)"/>
       </defs>
       <use xlink:href="#DejaVuSans-30"/>
      </g>
     </g>
    </g>
    <g id="xtick_2">
     <g id="line2d_2">
      <g>
       <use xlink:href="#mde425373b8" x="114.653068" y="277.478125" style="stroke: #000000; stroke-width: 0.8"/>
      </g>
     </g>
     <g id="text_2">
      <!-- 500 -->
      <g transform="translate(105.109318 292.076563) scale(0.1 -0.1)">
       <defs>
        <path id="DejaVuSans-35" d="M 691 4666 
L 3169 4666 
L 3169 4134 
L 1269 4134 
L 1269 2991 
Q 1406 3038 1543 3061 
Q 1681 3084 1819 3084 
Q 2600 3084 3056 2656 
Q 3513 2228 3513 1497 
Q 3513 744 3044 326 
Q 2575 -91 1722 -91 
Q 1428 -91 1123 -41 
Q 819 9 494 109 
L 494 744 
Q 775 591 1075 516 
Q 1375 441 1709 441 
Q 2250 441 2565 725 
Q 2881 1009 2881 1497 
Q 2881 1984 2565 2268 
Q 2250 2553 1709 2553 
Q 1456 2553 1204 2497 
Q 953 2441 691 2322 
L 691 4666 
z
" transform="scale(0.015625)"/>
       </defs>
       <use xlink:href="#DejaVuSans-35"/>
       <use xlink:href="#DejaVuSans-30" transform="translate(63.623047 0)"/>
       <use xlink:href="#DejaVuSans-30" transform="translate(127.246094 0)"/>
      </g>
     </g>
    </g>
    <g id="xtick_3">
     <g id="line2d_3">
      <g>
       <use xlink:href="#mde425373b8" x="165.275795" y="277.478125" style="stroke: #000000; stroke-width: 0.8"/>
      </g>
     </g>
     <g id="text_3">
      <!-- 1000 -->
      <g transform="translate(152.550795 292.076563) scale(0.1 -0.1)">
       <defs>
        <path id="DejaVuSans-31" d="M 794 531 
L 1825 531 
L 1825 4091 
L 703 3866 
L 703 4441 
L 1819 4666 
L 2450 4666 
L 2450 531 
L 3481 531 
L 3481 0 
L 794 0 
L 794 531 
z
" transform="scale(0.015625)"/>
       </defs>
       <use xlink:href="#DejaVuSans-31"/>
       <use xlink:href="#DejaVuSans-30" transform="translate(63.623047 0)"/>
       <use xlink:href="#DejaVuSans-30" transform="translate(127.246094 0)"/>
       <use xlink:href="#DejaVuSans-30" transform="translate(190.869141 0)"/>
      </g>
     </g>
    </g>
    <g id="xtick_4">
     <g id="line2d_4">
      <g>
       <use xlink:href="#mde425373b8" x="215.898523" y="277.478125" style="stroke: #000000; stroke-width: 0.8"/>
      </g>
     </g>
     <g id="text_4">
      <!-- 1500 -->
      <g transform="translate(203.173523 292.076563) scale(0.1 -0.1)">
       <use xlink:href="#DejaVuSans-31"/>
       <use xlink:href="#DejaVuSans-35" transform="translate(63.623047 0)"/>
       <use xlink:href="#DejaVuSans-30" transform="translate(127.246094 0)"/>
       <use xlink:href="#DejaVuSans-30" transform="translate(190.869141 0)"/>
      </g>
     </g>
    </g>
    <g id="xtick_5">
     <g id="line2d_5">
      <g>
       <use xlink:href="#mde425373b8" x="266.52125" y="277.478125" style="stroke: #000000; stroke-width: 0.8"/>
      </g>
     </g>
     <g id="text_5">
      <!-- 2000 -->
      <g transform="translate(253.79625 292.076563) scale(0.1 -0.1)">
       <defs>
        <path id="DejaVuSans-32" d="M 1228 531 
L 3431 531 
L 3431 0 
L 469 0 
L 469 531 
Q 828 903 1448 1529 
Q 2069 2156 2228 2338 
Q 2531 2678 2651 2914 
Q 2772 3150 2772 3378 
Q 2772 3750 2511 3984 
Q 2250 4219 1831 4219 
Q 1534 4219 1204 4116 
Q 875 4013 500 3803 
L 500 4441 
Q 881 4594 1212 4672 
Q 1544 4750 1819 4750 
Q 2544 4750 2975 4387 
Q 3406 4025 3406 3419 
Q 3406 3131 3298 2873 
Q 3191 2616 2906 2266 
Q 2828 2175 2409 1742 
Q 1991 1309 1228 531 
z
" transform="scale(0.015625)"/>
       </defs>
       <use xlink:href="#DejaVuSans-32"/>
       <use xlink:href="#DejaVuSans-30" transform="translate(63.623047 0)"/>
       <use xlink:href="#DejaVuSans-30" transform="translate(127.246094 0)"/>
       <use xlink:href="#DejaVuSans-30" transform="translate(190.869141 0)"/>
      </g>
     </g>
    </g>
    <g id="xtick_6">
     <g id="line2d_6">
      <g>
       <use xlink:href="#mde425373b8" x="317.143977" y="277.478125" style="stroke: #000000; stroke-width: 0.8"/>
      </g>
     </g>
     <g id="text_6">
      <!-- 2500 -->
      <g transform="translate(304.418977 292.076563) scale(0.1 -0.1)">
       <use xlink:href="#DejaVuSans-32"/>
       <use xlink:href="#DejaVuSans-35" transform="translate(63.623047 0)"/>
       <use xlink:href="#DejaVuSans-30" transform="translate(127.246094 0)"/>
       <use xlink:href="#DejaVuSans-30" transform="translate(190.869141 0)"/>
      </g>
     </g>
    </g>
    <g id="xtick_7">
     <g id="line2d_7">
      <g>
       <use xlink:href="#mde425373b8" x="367.766705" y="277.478125" style="stroke: #000000; stroke-width: 0.8"/>
      </g>
     </g>
     <g id="text_7">
      <!-- 3000 -->
      <g transform="translate(355.041705 292.076563) scale(0.1 -0.1)">
       <defs>
        <path id="DejaVuSans-33" d="M 2597 2516 
Q 3050 2419 3304 2112 
Q 3559 1806 3559 1356 
Q 3559 666 3084 287 
Q 2609 -91 1734 -91 
Q 1441 -91 1130 -33 
Q 819 25 488 141 
L 488 750 
Q 750 597 1062 519 
Q 1375 441 1716 441 
Q 2309 441 2620 675 
Q 2931 909 2931 1356 
Q 2931 1769 2642 2001 
Q 2353 2234 1838 2234 
L 1294 2234 
L 1294 2753 
L 1863 2753 
Q 2328 2753 2575 2939 
Q 2822 3125 2822 3475 
Q 2822 3834 2567 4026 
Q 2313 4219 1838 4219 
Q 1578 4219 1281 4162 
Q 984 4106 628 3988 
L 628 4550 
Q 988 4650 1302 4700 
Q 1616 4750 1894 4750 
Q 2613 4750 3031 4423 
Q 3450 4097 3450 3541 
Q 3450 3153 3228 2886 
Q 3006 2619 2597 2516 
z
" transform="scale(0.015625)"/>
       </defs>
       <use xlink:href="#DejaVuSans-33"/>
       <use xlink:href="#DejaVuSans-30" transform="translate(63.623047 0)"/>
       <use xlink:href="#DejaVuSans-30" transform="translate(127.246094 0)"/>
       <use xlink:href="#DejaVuSans-30" transform="translate(190.869141 0)"/>
      </g>
     </g>
    </g>
    <g id="xtick_8">
     <g id="line2d_8">
      <g>
       <use xlink:href="#mde425373b8" x="418.389432" y="277.478125" style="stroke: #000000; stroke-width: 0.8"/>
      </g>
     </g>
     <g id="text_8">
      <!-- 3500 -->
      <g transform="translate(405.664432 292.076563) scale(0.1 -0.1)">
       <use xlink:href="#DejaVuSans-33"/>
       <use xlink:href="#DejaVuSans-35" transform="translate(63.623047 0)"/>
       <use xlink:href="#DejaVuSans-30" transform="translate(127.246094 0)"/>
       <use xlink:href="#DejaVuSans-30" transform="translate(190.869141 0)"/>
      </g>
     </g>
    </g>
    <g id="xtick_9">
     <g id="line2d_9">
      <g>
       <use xlink:href="#mde425373b8" x="469.012159" y="277.478125" style="stroke: #000000; stroke-width: 0.8"/>
      </g>
     </g>
     <g id="text_9">
      <!-- 4000 -->
      <g transform="translate(456.287159 292.076563) scale(0.1 -0.1)">
       <defs>
        <path id="DejaVuSans-34" d="M 2419 4116 
L 825 1625 
L 2419 1625 
L 2419 4116 
z
M 2253 4666 
L 3047 4666 
L 3047 1625 
L 3713 1625 
L 3713 1100 
L 3047 1100 
L 3047 0 
L 2419 0 
L 2419 1100 
L 313 1100 
L 313 1709 
L 2253 4666 
z
" transform="scale(0.015625)"/>
       </defs>
       <use xlink:href="#DejaVuSans-34"/>
       <use xlink:href="#DejaVuSans-30" transform="translate(63.623047 0)"/>
       <use xlink:href="#DejaVuSans-30" transform="translate(127.246094 0)"/>
       <use xlink:href="#DejaVuSans-30" transform="translate(190.869141 0)"/>
      </g>
     </g>
    </g>
    <g id="text_10">
     <!-- training step -->
     <g transform="translate(234.747031 305.754687) scale(0.1 -0.1)">
      <defs>
       <path id="DejaVuSans-74" d="M 1172 4494 
L 1172 3500 
L 2356 3500 
L 2356 3053 
L 1172 3053 
L 1172 1153 
Q 1172 725 1289 603 
Q 1406 481 1766 481 
L 2356 481 
L 2356 0 
L 1766 0 
Q 1100 0 847 248 
Q 594 497 594 1153 
L 594 3053 
L 172 3053 
L 172 3500 
L 594 3500 
L 594 4494 
L 1172 4494 
z
" transform="scale(0.015625)"/>
       <path id="DejaVuSans-72" d="M 2631 2963 
Q 2534 3019 2420 3045 
Q 2306 3072 2169 3072 
Q 1681 3072 1420 2755 
Q 1159 2438 1159 1844 
L 1159 0 
L 581 0 
L 581 3500 
L 1159 3500 
L 1159 2956 
Q 1341 3275 1631 3429 
Q 1922 3584 2338 3584 
Q 2397 3584 2469 3576 
Q 2541 3569 2628 3553 
L 2631 2963 
z
" transform="scale(0.015625)"/>
       <path id="DejaVuSans-61" d="M 2194 1759 
Q 1497 1759 1228 1600 
Q 959 1441 959 1056 
Q 959 750 1161 570 
Q 1363 391 1709 391 
Q 2188 391 2477 730 
Q 2766 1069 2766 1631 
L 2766 1759 
L 2194 1759 
z
M 3341 1997 
L 3341 0 
L 2766 0 
L 2766 531 
Q 2569 213 2275 61 
Q 1981 -91 1556 -91 
Q 1019 -91 701 211 
Q 384 513 384 1019 
Q 384 1609 779 1909 
Q 1175 2209 1959 2209 
L 2766 2209 
L 2766 2266 
Q 2766 2663 2505 2880 
Q 2244 3097 1772 3097 
Q 1472 3097 1187 3025 
Q 903 2953 641 2809 
L 641 3341 
Q 956 3463 1253 3523 
Q 1550 3584 1831 3584 
Q 2591 3584 2966 3190 
Q 3341 2797 3341 1997 
z
" transform="scale(0.015625)"/>
       <path id="DejaVuSans-69" d="M 603 3500 
L 1178 3500 
L 1178 0 
L 603 0 
L 603 3500 
z
M 603 4863 
L 1178 4863 
L 1178 4134 
L 603 4134 
L 603 4863 
z
" transform="scale(0.015625)"/>
       <path id="DejaVuSans-6e" d="M 3513 2113 
L 3513 0 
L 2938 0 
L 2938 2094 
Q 2938 2591 2744 2837 
Q 2550 3084 2163 3084 
Q 1697 3084 1428 2787 
Q 1159 2491 1159 1978 
L 1159 0 
L 581 0 
L 581 3500 
L 1159 3500 
L 1159 2956 
Q 1366 3272 1645 3428 
Q 1925 3584 2291 3584 
Q 2894 3584 3203 3211 
Q 3513 2838 3513 2113 
z
" transform="scale(0.015625)"/>
       <path id="DejaVuSans-67" d="M 2906 1791 
Q 2906 2416 2648 2759 
Q 2391 3103 1925 3103 
Q 1463 3103 1205 2759 
Q 947 2416 947 1791 
Q 947 1169 1205 825 
Q 1463 481 1925 481 
Q 2391 481 2648 825 
Q 2906 1169 2906 1791 
z
M 3481 434 
Q 3481 -459 3084 -895 
Q 2688 -1331 1869 -1331 
Q 1566 -1331 1297 -1286 
Q 1028 -1241 775 -1147 
L 775 -588 
Q 1028 -725 1275 -790 
Q 1522 -856 1778 -856 
Q 2344 -856 2625 -561 
Q 2906 -266 2906 331 
L 2906 616 
Q 2728 306 2450 153 
Q 2172 0 1784 0 
Q 1141 0 747 490 
Q 353 981 353 1791 
Q 353 2603 747 3093 
Q 1141 3584 1784 3584 
Q 2172 3584 2450 3431 
Q 2728 3278 2906 2969 
L 2906 3500 
L 3481 3500 
L 3481 434 
z
" transform="scale(0.015625)"/>
       <path id="DejaVuSans-20" transform="scale(0.015625)"/>
       <path id="DejaVuSans-73" d="M 2834 3397 
L 2834 2853 
Q 2591 2978 2328 3040 
Q 2066 3103 1784 3103 
Q 1356 3103 1142 2972 
Q 928 2841 928 2578 
Q 928 2378 1081 2264 
Q 1234 2150 1697 2047 
L 1894 2003 
Q 2506 1872 2764 1633 
Q 3022 1394 3022 966 
Q 3022 478 2636 193 
Q 2250 -91 1575 -91 
Q 1294 -91 989 -36 
Q 684 19 347 128 
L 347 722 
Q 666 556 975 473 
Q 1284 391 1588 391 
Q 1994 391 2212 530 
Q 2431 669 2431 922 
Q 2431 1156 2273 1281 
Q 2116 1406 1581 1522 
L 1381 1569 
Q 847 1681 609 1914 
Q 372 2147 372 2553 
Q 372 3047 722 3315 
Q 1072 3584 1716 3584 
Q 2034 3584 2315 3537 
Q 2597 3491 2834 3397 
z
" transform="scale(0.015625)"/>
       <path id="DejaVuSans-65" d="M 3597 1894 
L 3597 1613 
L 953 1613 
Q 991 1019 1311 708 
Q 1631 397 2203 397 
Q 2534 397 2845 478 
Q 3156 559 3463 722 
L 3463 178 
Q 3153 47 2828 -22 
Q 2503 -91 2169 -91 
Q 1331 -91 842 396 
Q 353 884 353 1716 
Q 353 2575 817 3079 
Q 1281 3584 2069 3584 
Q 2775 3584 3186 3129 
Q 3597 2675 3597 1894 
z
M 3022 2063 
Q 3016 2534 2758 2815 
Q 2500 3097 2075 3097 
Q 1594 3097 1305 2825 
Q 1016 2553 972 2059 
L 3022 2063 
z
" transform="scale(0.015625)"/>
       <path id="DejaVuSans-70" d="M 1159 525 
L 1159 -1331 
L 581 -1331 
L 581 3500 
L 1159 3500 
L 1159 2969 
Q 1341 3281 1617 3432 
Q 1894 3584 2278 3584 
Q 2916 3584 3314 3078 
Q 3713 2572 3713 1747 
Q 3713 922 3314 415 
Q 2916 -91 2278 -91 
Q 1894 -91 1617 61 
Q 1341 213 1159 525 
z
M 3116 1747 
Q 3116 2381 2855 2742 
Q 2594 3103 2138 3103 
Q 1681 3103 1420 2742 
Q 1159 2381 1159 1747 
Q 1159 1113 1420 752 
Q 1681 391 2138 391 
Q 2594 391 2855 752 
Q 3116 1113 3116 1747 
z
" transform="scale(0.015625)"/>
      </defs>
      <use xlink:href="#DejaVuSans-74"/>
      <use xlink:href="#DejaVuSans-72" transform="translate(39.208984 0)"/>
      <use xlink:href="#DejaVuSans-61" transform="translate(80.322266 0)"/>
      <use xlink:href="#DejaVuSans-69" transform="translate(141.601562 0)"/>
      <use xlink:href="#DejaVuSans-6e" transform="translate(169.384766 0)"/>
      <use xlink:href="#DejaVuSans-69" transform="translate(232.763672 0)"/>
      <use xlink:href="#DejaVuSans-6e" transform="translate(260.546875 0)"/>
      <use xlink:href="#DejaVuSans-67" transform="translate(323.925781 0)"/>
      <use xlink:href="#DejaVuSans-20" transform="translate(387.402344 0)"/>
      <use xlink:href="#DejaVuSans-73" transform="translate(419.189453 0)"/>
      <use xlink:href="#DejaVuSans-74" transform="translate(471.289062 0)"/>
      <use xlink:href="#DejaVuSans-65" transform="translate(510.498047 0)"/>
      <use xlink:href="#DejaVuSans-70" transform="translate(572.021484 0)"/>
     </g>
    </g>
   </g>
   <g id="matplotlib.axis_2">
    <g id="ytick_1">
     <g id="line2d_10">
      <defs>
       <path id="m5828b1bb2e" d="M 0 0 
L -3.5 0 
" style="stroke: #000000; stroke-width: 0.8"/>
      </defs>
      <g>
       <use xlink:href="#m5828b1bb2e" x="43.78125" y="255.095669" style="stroke: #000000; stroke-width: 0.8"/>
      </g>
     </g>
     <g id="text_11">
      <!-- 0.5 -->
      <g transform="translate(20.878125 258.894888) scale(0.1 -0.1)">
       <defs>
        <path id="DejaVuSans-2e" d="M 684 794 
L 1344 794 
L 1344 0 
L 684 0 
L 684 794 
z
" transform="scale(0.015625)"/>
       </defs>
       <use xlink:href="#DejaVuSans-30"/>
       <use xlink:href="#DejaVuSans-2e" transform="translate(63.623047 0)"/>
       <use xlink:href="#DejaVuSans-35" transform="translate(95.410156 0)"/>
      </g>
     </g>
    </g>
    <g id="ytick_2">
     <g id="line2d_11">
      <g>
       <use xlink:href="#m5828b1bb2e" x="43.78125" y="210.330757" style="stroke: #000000; stroke-width: 0.8"/>
      </g>
     </g>
     <g id="text_12">
      <!-- 0.6 -->
      <g transform="translate(20.878125 214.129975) scale(0.1 -0.1)">
       <defs>
        <path id="DejaVuSans-36" d="M 2113 2584 
Q 1688 2584 1439 2293 
Q 1191 2003 1191 1497 
Q 1191 994 1439 701 
Q 1688 409 2113 409 
Q 2538 409 2786 701 
Q 3034 994 3034 1497 
Q 3034 2003 2786 2293 
Q 2538 2584 2113 2584 
z
M 3366 4563 
L 3366 3988 
Q 3128 4100 2886 4159 
Q 2644 4219 2406 4219 
Q 1781 4219 1451 3797 
Q 1122 3375 1075 2522 
Q 1259 2794 1537 2939 
Q 1816 3084 2150 3084 
Q 2853 3084 3261 2657 
Q 3669 2231 3669 1497 
Q 3669 778 3244 343 
Q 2819 -91 2113 -91 
Q 1303 -91 875 529 
Q 447 1150 447 2328 
Q 447 3434 972 4092 
Q 1497 4750 2381 4750 
Q 2619 4750 2861 4703 
Q 3103 4656 3366 4563 
z
" transform="scale(0.015625)"/>
       </defs>
       <use xlink:href="#DejaVuSans-30"/>
       <use xlink:href="#DejaVuSans-2e" transform="translate(63.623047 0)"/>
       <use xlink:href="#DejaVuSans-36" transform="translate(95.410156 0)"/>
      </g>
     </g>
    </g>
    <g id="ytick_3">
     <g id="line2d_12">
      <g>
       <use xlink:href="#m5828b1bb2e" x="43.78125" y="165.565844" style="stroke: #000000; stroke-width: 0.8"/>
      </g>
     </g>
     <g id="text_13">
      <!-- 0.7 -->
      <g transform="translate(20.878125 169.365063) scale(0.1 -0.1)">
       <defs>
        <path id="DejaVuSans-37" d="M 525 4666 
L 3525 4666 
L 3525 4397 
L 1831 0 
L 1172 0 
L 2766 4134 
L 525 4134 
L 525 4666 
z
" transform="scale(0.015625)"/>
       </defs>
       <use xlink:href="#DejaVuSans-30"/>
       <use xlink:href="#DejaVuSans-2e" transform="translate(63.623047 0)"/>
       <use xlink:href="#DejaVuSans-37" transform="translate(95.410156 0)"/>
      </g>
     </g>
    </g>
    <g id="ytick_4">
     <g id="line2d_13">
      <g>
       <use xlink:href="#m5828b1bb2e" x="43.78125" y="120.800932" style="stroke: #000000; stroke-width: 0.8"/>
      </g>
     </g>
     <g id="text_14">
      <!-- 0.8 -->
      <g transform="translate(20.878125 124.600151) scale(0.1 -0.1)">
       <defs>
        <path id="DejaVuSans-38" d="M 2034 2216 
Q 1584 2216 1326 1975 
Q 1069 1734 1069 1313 
Q 1069 891 1326 650 
Q 1584 409 2034 409 
Q 2484 409 2743 651 
Q 3003 894 3003 1313 
Q 3003 1734 2745 1975 
Q 2488 2216 2034 2216 
z
M 1403 2484 
Q 997 2584 770 2862 
Q 544 3141 544 3541 
Q 544 4100 942 4425 
Q 1341 4750 2034 4750 
Q 2731 4750 3128 4425 
Q 3525 4100 3525 3541 
Q 3525 3141 3298 2862 
Q 3072 2584 2669 2484 
Q 3125 2378 3379 2068 
Q 3634 1759 3634 1313 
Q 3634 634 3220 271 
Q 2806 -91 2034 -91 
Q 1263 -91 848 271 
Q 434 634 434 1313 
Q 434 1759 690 2068 
Q 947 2378 1403 2484 
z
M 1172 3481 
Q 1172 3119 1398 2916 
Q 1625 2713 2034 2713 
Q 2441 2713 2670 2916 
Q 2900 3119 2900 3481 
Q 2900 3844 2670 4047 
Q 2441 4250 2034 4250 
Q 1625 4250 1398 4047 
Q 1172 3844 1172 3481 
z
" transform="scale(0.015625)"/>
       </defs>
       <use xlink:href="#DejaVuSans-30"/>
       <use xlink:href="#DejaVuSans-2e" transform="translate(63.623047 0)"/>
       <use xlink:href="#DejaVuSans-38" transform="translate(95.410156 0)"/>
      </g>
     </g>
    </g>
    <g id="ytick_5">
     <g id="line2d_14">
      <g>
       <use xlink:href="#m5828b1bb2e" x="43.78125" y="76.03602" style="stroke: #000000; stroke-width: 0.8"/>
      </g>
     </g>
     <g id="text_15">
      <!-- 0.9 -->
      <g transform="translate(20.878125 79.835238) scale(0.1 -0.1)">
       <defs>
        <path id="DejaVuSans-39" d="M 703 97 
L 703 672 
Q 941 559 1184 500 
Q 1428 441 1663 441 
Q 2288 441 2617 861 
Q 2947 1281 2994 2138 
Q 2813 1869 2534 1725 
Q 2256 1581 1919 1581 
Q 1219 1581 811 2004 
Q 403 2428 403 3163 
Q 403 3881 828 4315 
Q 1253 4750 1959 4750 
Q 2769 4750 3195 4129 
Q 3622 3509 3622 2328 
Q 3622 1225 3098 567 
Q 2575 -91 1691 -91 
Q 1453 -91 1209 -44 
Q 966 3 703 97 
z
M 1959 2075 
Q 2384 2075 2632 2365 
Q 2881 2656 2881 3163 
Q 2881 3666 2632 3958 
Q 2384 4250 1959 4250 
Q 1534 4250 1286 3958 
Q 1038 3666 1038 3163 
Q 1038 2656 1286 2365 
Q 1534 2075 1959 2075 
z
" transform="scale(0.015625)"/>
       </defs>
       <use xlink:href="#DejaVuSans-30"/>
       <use xlink:href="#DejaVuSans-2e" transform="translate(63.623047 0)"/>
       <use xlink:href="#DejaVuSans-39" transform="translate(95.410156 0)"/>
      </g>
     </g>
    </g>
    <g id="ytick_6">
     <g id="line2d_15">
      <g>
       <use xlink:href="#m5828b1bb2e" x="43.78125" y="31.271107" style="stroke: #000000; stroke-width: 0.8"/>
      </g>
     </g>
     <g id="text_16">
      <!-- 1.0 -->
      <g transform="translate(20.878125 35.070326) scale(0.1 -0.1)">
       <use xlink:href="#DejaVuSans-31"/>
       <use xlink:href="#DejaVuSans-2e" transform="translate(63.623047 0)"/>
       <use xlink:href="#DejaVuSans-30" transform="translate(95.410156 0)"/>
      </g>
     </g>
    </g>
    <g id="text_17">
     <!-- accuracy (held-out) -->
     <g transform="translate(14.798438 198.842656) rotate(-90) scale(0.1 -0.1)">
      <defs>
       <path id="DejaVuSans-63" d="M 3122 3366 
L 3122 2828 
Q 2878 2963 2633 3030 
Q 2388 3097 2138 3097 
Q 1578 3097 1268 2742 
Q 959 2388 959 1747 
Q 959 1106 1268 751 
Q 1578 397 2138 397 
Q 2388 397 2633 464 
Q 2878 531 3122 666 
L 3122 134 
Q 2881 22 2623 -34 
Q 2366 -91 2075 -91 
Q 1284 -91 818 406 
Q 353 903 353 1747 
Q 353 2603 823 3093 
Q 1294 3584 2113 3584 
Q 2378 3584 2631 3529 
Q 2884 3475 3122 3366 
z
" transform="scale(0.015625)"/>
       <path id="DejaVuSans-75" d="M 544 1381 
L 544 3500 
L 1119 3500 
L 1119 1403 
Q 1119 906 1312 657 
Q 1506 409 1894 409 
Q 2359 409 2629 706 
Q 2900 1003 2900 1516 
L 2900 3500 
L 3475 3500 
L 3475 0 
L 2900 0 
L 2900 538 
Q 2691 219 2414 64 
Q 2138 -91 1772 -91 
Q 1169 -91 856 284 
Q 544 659 544 1381 
z
M 1991 3584 
L 1991 3584 
z
" transform="scale(0.015625)"/>
       <path id="DejaVuSans-79" d="M 2059 -325 
Q 1816 -950 1584 -1140 
Q 1353 -1331 966 -1331 
L 506 -1331 
L 506 -850 
L 844 -850 
Q 1081 -850 1212 -737 
Q 1344 -625 1503 -206 
L 1606 56 
L 191 3500 
L 800 3500 
L 1894 763 
L 2988 3500 
L 3597 3500 
L 2059 -325 
z
" transform="scale(0.015625)"/>
       <path id="DejaVuSans-28" d="M 1984 4856 
Q 1566 4138 1362 3434 
Q 1159 2731 1159 2009 
Q 1159 1288 1364 580 
Q 1569 -128 1984 -844 
L 1484 -844 
Q 1016 -109 783 600 
Q 550 1309 550 2009 
Q 550 2706 781 3412 
Q 1013 4119 1484 4856 
L 1984 4856 
z
" transform="scale(0.015625)"/>
       <path id="DejaVuSans-68" d="M 3513 2113 
L 3513 0 
L 2938 0 
L 2938 2094 
Q 2938 2591 2744 2837 
Q 2550 3084 2163 3084 
Q 1697 3084 1428 2787 
Q 1159 2491 1159 1978 
L 1159 0 
L 581 0 
L 581 4863 
L 1159 4863 
L 1159 2956 
Q 1366 3272 1645 3428 
Q 1925 3584 2291 3584 
Q 2894 3584 3203 3211 
Q 3513 2838 3513 2113 
z
" transform="scale(0.015625)"/>
       <path id="DejaVuSans-6c" d="M 603 4863 
L 1178 4863 
L 1178 0 
L 603 0 
L 603 4863 
z
" transform="scale(0.015625)"/>
       <path id="DejaVuSans-64" d="M 2906 2969 
L 2906 4863 
L 3481 4863 
L 3481 0 
L 2906 0 
L 2906 525 
Q 2725 213 2448 61 
Q 2172 -91 1784 -91 
Q 1150 -91 751 415 
Q 353 922 353 1747 
Q 353 2572 751 3078 
Q 1150 3584 1784 3584 
Q 2172 3584 2448 3432 
Q 2725 3281 2906 2969 
z
M 947 1747 
Q 947 1113 1208 752 
Q 1469 391 1925 391 
Q 2381 391 2643 752 
Q 2906 1113 2906 1747 
Q 2906 2381 2643 2742 
Q 2381 3103 1925 3103 
Q 1469 3103 1208 2742 
Q 947 2381 947 1747 
z
" transform="scale(0.015625)"/>
       <path id="DejaVuSans-2d" d="M 313 2009 
L 1997 2009 
L 1997 1497 
L 313 1497 
L 313 2009 
z
" transform="scale(0.015625)"/>
       <path id="DejaVuSans-6f" d="M 1959 3097 
Q 1497 3097 1228 2736 
Q 959 2375 959 1747 
Q 959 1119 1226 758 
Q 1494 397 1959 397 
Q 2419 397 2687 759 
Q 2956 1122 2956 1747 
Q 2956 2369 2687 2733 
Q 2419 3097 1959 3097 
z
M 1959 3584 
Q 2709 3584 3137 3096 
Q 3566 2609 3566 1747 
Q 3566 888 3137 398 
Q 2709 -91 1959 -91 
Q 1206 -91 779 398 
Q 353 888 353 1747 
Q 353 2609 779 3096 
Q 1206 3584 1959 3584 
z
" transform="scale(0.015625)"/>
       <path id="DejaVuSans-29" d="M 513 4856 
L 1013 4856 
Q 1481 4119 1714 3412 
Q 1947 2706 1947 2009 
Q 1947 1309 1714 600 
Q 1481 -109 1013 -844 
L 513 -844 
Q 928 -128 1133 580 
Q 1338 1288 1338 2009 
Q 1338 2731 1133 3434 
Q 928 4138 513 4856 
z
" transform="scale(0.015625)"/>
      </defs>
      <use xlink:href="#DejaVuSans-61"/>
      <use xlink:href="#DejaVuSans-63" transform="translate(61.279297 0)"/>
      <use xlink:href="#DejaVuSans-63" transform="translate(116.259766 0)"/>
      <use xlink:href="#DejaVuSans-75" transform="translate(171.240234 0)"/>
      <use xlink:href="#DejaVuSans-72" transform="translate(234.619141 0)"/>
      <use xlink:href="#DejaVuSans-61" transform="translate(275.732422 0)"/>
      <use xlink:href="#DejaVuSans-63" transform="translate(337.011719 0)"/>
      <use xlink:href="#DejaVuSans-79" transform="translate(391.992188 0)"/>
      <use xlink:href="#DejaVuSans-20" transform="translate(451.171875 0)"/>
      <use xlink:href="#DejaVuSans-28" transform="translate(482.958984 0)"/>
      <use xlink:href="#DejaVuSans-68" transform="translate(521.972656 0)"/>
      <use xlink:href="#DejaVuSans-65" transform="translate(585.351562 0)"/>
      <use xlink:href="#DejaVuSans-6c" transform="translate(646.875 0)"/>
      <use xlink:href="#DejaVuSans-64" transform="translate(674.658203 0)"/>
      <use xlink:href="#DejaVuSans-2d" transform="translate(738.134766 0)"/>
      <use xlink:href="#DejaVuSans-6f" transform="translate(776.09375 0)"/>
      <use xlink:href="#DejaVuSans-75" transform="translate(837.275391 0)"/>
      <use xlink:href="#DejaVuSans-74" transform="translate(900.654297 0)"/>
      <use xlink:href="#DejaVuSans-29" transform="translate(939.863281 0)"/>
     </g>
    </g>
   </g>
   <g id="line2d_16">
    <path d="M 64.030341 252.937204 
L 74.154886 58.292896 
L 84.279432 32.391323 
L 94.403977 31.735587 
L 104.528523 31.762909 
L 114.653068 31.353074 
L 124.777614 31.325752 
L 134.902159 31.353074 
L 145.026705 31.325752 
L 155.15125 31.29843 
L 165.275795 31.462364 
L 175.400341 31.271107 
L 185.524886 31.325752 
L 195.649432 31.380397 
L 205.773977 31.325752 
L 215.898523 31.29843 
L 226.023068 31.271107 
L 236.147614 31.29843 
L 246.272159 31.271107 
L 256.396705 31.271107 
L 266.52125 31.271107 
L 276.645795 31.462364 
L 286.770341 31.271107 
L 296.894886 31.29843 
L 307.019432 31.271107 
" clip-path="url(#p1e2230d02f)" style="fill: none; stroke: #000000; stroke-width: 1.5; stroke-linecap: square"/>
    <defs>
     <path id="m60e7849646" d="M 0 1.5 
C 0.397805 1.5 0.77937 1.341951 1.06066 1.06066 
C 1.341951 0.77937 1.5 0.397805 1.5 0 
C 1.5 -0.397805 1.341951 -0.77937 1.06066 -1.06066 
C 0.77937 -1.341951 0.397805 -1.5 0 -1.5 
C -0.397805 -1.5 -0.77937 -1.341951 -1.06066 -1.06066 
C -1.341951 -0.77937 -1.5 -0.397805 -1.5 0 
C -1.5 0.397805 -1.341951 0.77937 -1.06066 1.06066 
C -0.77937 1.341951 -0.397805 1.5 0 1.5 
z
" style="stroke: #000000"/>
    </defs>
    <g clip-path="url(#p1e2230d02f)">
     <use xlink:href="#m60e7849646" x="64.030341" y="252.937204" style="stroke: #000000"/>
     <use xlink:href="#m60e7849646" x="74.154886" y="58.292896" style="stroke: #000000"/>
     <use xlink:href="#m60e7849646" x="84.279432" y="32.391323" style="stroke: #000000"/>
     <use xlink:href="#m60e7849646" x="94.403977" y="31.735587" style="stroke: #000000"/>
     <use xlink:href="#m60e7849646" x="104.528523" y="31.762909" style="stroke: #000000"/>
     <use xlink:href="#m60e7849646" x="114.653068" y="31.353074" style="stroke: #000000"/>
     <use xlink:href="#m60e7849646" x="124.777614" y="31.325752" style="stroke: #000000"/>
     <use xlink:href="#m60e7849646" x="134.902159" y="31.353074" style="stroke: #000000"/>
     <use xlink:href="#m60e7849646" x="145.026705" y="31.325752" style="stroke: #000000"/>
     <use xlink:href="#m60e7849646" x="155.15125" y="31.29843" style="stroke: #000000"/>
     <use xlink:href="#m60e7849646" x="165.275795" y="31.462364" style="stroke: #000000"/>
     <use xlink:href="#m60e7849646" x="175.400341" y="31.271107" style="stroke: #000000"/>
     <use xlink:href="#m60e7849646" x="185.524886" y="31.325752" style="stroke: #000000"/>
     <use xlink:href="#m60e7849646" x="195.649432" y="31.380397" style="stroke: #000000"/>
     <use xlink:href="#m60e7849646" x="205.773977" y="31.325752" style="stroke: #000000"/>
     <use xlink:href="#m60e7849646" x="215.898523" y="31.29843" style="stroke: #000000"/>
     <use xlink:href="#m60e7849646" x="226.023068" y="31.271107" style="stroke: #000000"/>
     <use xlink:href="#m60e7849646" x="236.147614" y="31.29843" style="stroke: #000000"/>
     <use xlink:href="#m60e7849646" x="246.272159" y="31.271107" style="stroke: #000000"/>
     <use xlink:href="#m60e7849646" x="256.396705" y="31.271107" style="stroke: #000000"/>
     <use xlink:href="#m60e7849646" x="266.52125" y="31.271107" style="stroke: #000000"/>
     <use xlink:href="#m60e7849646" x="276.645795" y="31.462364" style="stroke: #000000"/>
     <use xlink:href="#m60e7849646" x="286.770341" y="31.271107" style="stroke: #000000"/>
     <use xlink:href="#m60e7849646" x="296.894886" y="31.29843" style="stroke: #000000"/>
     <use xlink:href="#m60e7849646" x="307.019432" y="31.271107" style="stroke: #000000"/>
    </g>
   </g>
   <g id="line2d_17">
    <path d="M 64.030341 252.937204 
L 74.154886 140.915634 
L 84.279432 84.822882 
L 94.403977 70.342045 
L 104.528523 48.402211 
L 114.653068 38.894039 
L 124.777614 34.440498 
L 134.902159 32.609902 
L 145.026705 32.254711 
L 155.15125 35.533392 
L 165.275795 32.227389 
L 175.400341 31.762909 
L 185.524886 31.954166 
L 195.649432 31.489686 
L 205.773977 31.435041 
L 215.898523 31.462364 
L 226.023068 31.462364 
L 236.147614 31.407719 
L 246.272159 31.762909 
L 256.396705 31.954166 
L 266.52125 31.462364 
L 276.645795 31.462364 
L 286.770341 31.435041 
L 296.894886 31.333559 
L 307.019432 31.307537 
L 317.143977 31.533402 
L 327.268523 31.271107 
L 337.393068 31.271107 
L 347.517614 31.708265 
" clip-path="url(#p1e2230d02f)" style="fill: none; stroke: #1f77b4; stroke-width: 1.5; stroke-linecap: square"/>
    <defs>
     <path id="m24ec53fe23" d="M 0 1.5 
C 0.397805 1.5 0.77937 1.341951 1.06066 1.06066 
C 1.341951 0.77937 1.5 0.397805 1.5 0 
C 1.5 -0.397805 1.341951 -0.77937 1.06066 -1.06066 
C 0.77937 -1.341951 0.397805 -1.5 0 -1.5 
C -0.397805 -1.5 -0.77937 -1.341951 -1.06066 -1.06066 
C -1.341951 -0.77937 -1.5 -0.397805 -1.5 0 
C -1.5 0.397805 -1.341951 0.77937 -1.06066 1.06066 
C -0.77937 1.341951 -0.397805 1.5 0 1.5 
z
" style="stroke: #1f77b4"/>
    </defs>
    <g clip-path="url(#p1e2230d02f)">
     <use xlink:href="#m24ec53fe23" x="64.030341" y="252.937204" style="fill: #1f77b4; stroke: #1f77b4"/>
     <use xlink:href="#m24ec53fe23" x="74.154886" y="140.915634" style="fill: #1f77b4; stroke: #1f77b4"/>
     <use xlink:href="#m24ec53fe23" x="84.279432" y="84.822882" style="fill: #1f77b4; stroke: #1f77b4"/>
     <use xlink:href="#m24ec53fe23" x="94.403977" y="70.342045" style="fill: #1f77b4; stroke: #1f77b4"/>
     <use xlink:href="#m24ec53fe23" x="104.528523" y="48.402211" style="fill: #1f77b4; stroke: #1f77b4"/>
     <use xlink:href="#m24ec53fe23" x="114.653068" y="38.894039" style="fill: #1f77b4; stroke: #1f77b4"/>
     <use xlink:href="#m24ec53fe23" x="124.777614" y="34.440498" style="fill: #1f77b4; stroke: #1f77b4"/>
     <use xlink:href="#m24ec53fe23" x="134.902159" y="32.609902" style="fill: #1f77b4; stroke: #1f77b4"/>
     <use xlink:href="#m24ec53fe23" x="145.026705" y="32.254711" style="fill: #1f77b4; stroke: #1f77b4"/>
     <use xlink:href="#m24ec53fe23" x="155.15125" y="35.533392" style="fill: #1f77b4; stroke: #1f77b4"/>
     <use xlink:href="#m24ec53fe23" x="165.275795" y="32.227389" style="fill: #1f77b4; stroke: #1f77b4"/>
     <use xlink:href="#m24ec53fe23" x="175.400341" y="31.762909" style="fill: #1f77b4; stroke: #1f77b4"/>
     <use xlink:href="#m24ec53fe23" x="185.524886" y="31.954166" style="fill: #1f77b4; stroke: #1f77b4"/>
     <use xlink:href="#m24ec53fe23" x="195.649432" y="31.489686" style="fill: #1f77b4; stroke: #1f77b4"/>
     <use xlink:href="#m24ec53fe23" x="205.773977" y="31.435041" style="fill: #1f77b4; stroke: #1f77b4"/>
     <use xlink:href="#m24ec53fe23" x="215.898523" y="31.462364" style="fill: #1f77b4; stroke: #1f77b4"/>
     <use xlink:href="#m24ec53fe23" x="226.023068" y="31.462364" style="fill: #1f77b4; stroke: #1f77b4"/>
     <use xlink:href="#m24ec53fe23" x="236.147614" y="31.407719" style="fill: #1f77b4; stroke: #1f77b4"/>
     <use xlink:href="#m24ec53fe23" x="246.272159" y="31.762909" style="fill: #1f77b4; stroke: #1f77b4"/>
     <use xlink:href="#m24ec53fe23" x="256.396705" y="31.954166" style="fill: #1f77b4; stroke: #1f77b4"/>
     <use xlink:href="#m24ec53fe23" x="266.52125" y="31.462364" style="fill: #1f77b4; stroke: #1f77b4"/>
     <use xlink:href="#m24ec53fe23" x="276.645795" y="31.462364" style="fill: #1f77b4; stroke: #1f77b4"/>
     <use xlink:href="#m24ec53fe23" x="286.770341" y="31.435041" style="fill: #1f77b4; stroke: #1f77b4"/>
     <use xlink:href="#m24ec53fe23" x="296.894886" y="31.333559" style="fill: #1f77b4; stroke: #1f77b4"/>
     <use xlink:href="#m24ec53fe23" x="307.019432" y="31.307537" style="fill: #1f77b4; stroke: #1f77b4"/>
     <use xlink:href="#m24ec53fe23" x="317.143977" y="31.533402" style="fill: #1f77b4; stroke: #1f77b4"/>
     <use xlink:href="#m24ec53fe23" x="327.268523" y="31.271107" style="fill: #1f77b4; stroke: #1f77b4"/>
     <use xlink:href="#m24ec53fe23" x="337.393068" y="31.271107" style="fill: #1f77b4; stroke: #1f77b4"/>
     <use xlink:href="#m24ec53fe23" x="347.517614" y="31.708265" style="fill: #1f77b4; stroke: #1f77b4"/>
    </g>
   </g>
   <g id="line2d_18">
    <path d="M 64.030341 252.937204 
L 74.154886 191.89911 
L 84.279432 161.871865 
L 94.403977 131.571396 
L 104.528523 99.795522 
L 114.653068 72.145319 
L 124.777614 51.954114 
L 134.902159 41.680917 
L 145.026705 37.719178 
L 155.15125 36.899508 
L 165.275795 34.467821 
L 175.400341 34.850333 
L 185.524886 33.620828 
L 195.649432 33.839407 
L 205.773977 32.609902 
L 215.898523 33.238316 
L 226.023068 32.036133 
L 236.147614 32.418645 
L 246.272159 32.282034 
L 256.396705 32.00881 
L 266.52125 32.282034 
L 276.645795 31.762909 
L 286.770341 31.844876 
L 296.894886 37.691856 
L 307.019432 31.981488 
L 317.143977 31.677039 
L 327.268523 31.614588 
L 337.393068 31.671835 
L 347.517614 31.817554 
L 357.642159 31.708265 
" clip-path="url(#p1e2230d02f)" style="fill: none; stroke: #d62728; stroke-width: 1.5; stroke-linecap: square"/>
    <defs>
     <path id="m9a457fe37f" d="M 0 1.5 
C 0.397805 1.5 0.77937 1.341951 1.06066 1.06066 
C 1.341951 0.77937 1.5 0.397805 1.5 0 
C 1.5 -0.397805 1.341951 -0.77937 1.06066 -1.06066 
C 0.77937 -1.341951 0.397805 -1.5 0 -1.5 
C -0.397805 -1.5 -0.77937 -1.341951 -1.06066 -1.06066 
C -1.341951 -0.77937 -1.5 -0.397805 -1.5 0 
C -1.5 0.397805 -1.341951 0.77937 -1.06066 1.06066 
C -0.77937 1.341951 -0.397805 1.5 0 1.5 
z
" style="stroke: #d62728"/>
    </defs>
    <g clip-path="url(#p1e2230d02f)">
     <use xlink:href="#m9a457fe37f" x="64.030341" y="252.937204" style="fill: #d62728; stroke: #d62728"/>
     <use xlink:href="#m9a457fe37f" x="74.154886" y="191.89911" style="fill: #d62728; stroke: #d62728"/>
     <use xlink:href="#m9a457fe37f" x="84.279432" y="161.871865" style="fill: #d62728; stroke: #d62728"/>
     <use xlink:href="#m9a457fe37f" x="94.403977" y="131.571396" style="fill: #d62728; stroke: #d62728"/>
     <use xlink:href="#m9a457fe37f" x="104.528523" y="99.795522" style="fill: #d62728; stroke: #d62728"/>
     <use xlink:href="#m9a457fe37f" x="114.653068" y="72.145319" style="fill: #d62728; stroke: #d62728"/>
     <use xlink:href="#m9a457fe37f" x="124.777614" y="51.954114" style="fill: #d62728; stroke: #d62728"/>
     <use xlink:href="#m9a457fe37f" x="134.902159" y="41.680917" style="fill: #d62728; stroke: #d62728"/>
     <use xlink:href="#m9a457fe37f" x="145.026705" y="37.719178" style="fill: #d62728; stroke: #d62728"/>
     <use xlink:href="#m9a457fe37f" x="155.15125" y="36.899508" style="fill: #d62728; stroke: #d62728"/>
     <use xlink:href="#m9a457fe37f" x="165.275795" y="34.467821" style="fill: #d62728; stroke: #d62728"/>
     <use xlink:href="#m9a457fe37f" x="175.400341" y="34.850333" style="fill: #d62728; stroke: #d62728"/>
     <use xlink:href="#m9a457fe37f" x="185.524886" y="33.620828" style="fill: #d62728; stroke: #d62728"/>
     <use xlink:href="#m9a457fe37f" x="195.649432" y="33.839407" style="fill: #d62728; stroke: #d62728"/>
     <use xlink:href="#m9a457fe37f" x="205.773977" y="32.609902" style="fill: #d62728; stroke: #d62728"/>
     <use xlink:href="#m9a457fe37f" x="215.898523" y="33.238316" style="fill: #d62728; stroke: #d62728"/>
     <use xlink:href="#m9a457fe37f" x="226.023068" y="32.036133" style="fill: #d62728; stroke: #d62728"/>
     <use xlink:href="#m9a457fe37f" x="236.147614" y="32.418645" style="fill: #d62728; stroke: #d62728"/>
     <use xlink:href="#m9a457fe37f" x="246.272159" y="32.282034" style="fill: #d62728; stroke: #d62728"/>
     <use xlink:href="#m9a457fe37f" x="256.396705" y="32.00881" style="fill: #d62728; stroke: #d62728"/>
     <use xlink:href="#m9a457fe37f" x="266.52125" y="32.282034" style="fill: #d62728; stroke: #d62728"/>
     <use xlink:href="#m9a457fe37f" x="276.645795" y="31.762909" style="fill: #d62728; stroke: #d62728"/>
     <use xlink:href="#m9a457fe37f" x="286.770341" y="31.844876" style="fill: #d62728; stroke: #d62728"/>
     <use xlink:href="#m9a457fe37f" x="296.894886" y="37.691856" style="fill: #d62728; stroke: #d62728"/>
     <use xlink:href="#m9a457fe37f" x="307.019432" y="31.981488" style="fill: #d62728; stroke: #d62728"/>
     <use xlink:href="#m9a457fe37f" x="317.143977" y="31.677039" style="fill: #d62728; stroke: #d62728"/>
     <use xlink:href="#m9a457fe37f" x="327.268523" y="31.614588" style="fill: #d62728; stroke: #d62728"/>
     <use xlink:href="#m9a457fe37f" x="337.393068" y="31.671835" style="fill: #d62728; stroke: #d62728"/>
     <use xlink:href="#m9a457fe37f" x="347.517614" y="31.817554" style="fill: #d62728; stroke: #d62728"/>
     <use xlink:href="#m9a457fe37f" x="357.642159" y="31.708265" style="fill: #d62728; stroke: #d62728"/>
    </g>
   </g>
   <g id="line2d_19">
    <path d="M 64.030341 252.937204 
L 74.154886 207.855353 
L 84.279432 171.024847 
L 94.403977 130.205279 
L 104.528523 98.83924 
L 114.653068 62.254634 
L 124.777614 49.932262 
L 134.902159 41.626272 
L 145.026705 37.582567 
L 155.15125 35.806615 
L 165.275795 35.096234 
L 175.400341 34.659077 
L 185.524886 34.11263 
L 195.649432 33.948696 
L 205.773977 33.456894 
L 215.898523 33.429572 
L 226.023068 33.183671 
L 236.147614 32.965092 
L 246.272159 32.746514 
L 256.396705 32.719191 
L 266.52125 32.445968 
L 276.645795 32.336678 
L 286.770341 32.364001 
L 296.894886 32.282034 
L 307.019432 32.500612 
L 317.143977 35.506069 
L 327.268523 35.642681 
L 337.393068 31.981488 
L 347.517614 32.43686 
L 357.642159 32.072563 
L 367.766705 32.691869 
L 377.89125 32.364001 
L 388.015795 32.364001 
L 398.140341 32.254711 
L 408.264886 88.429431 
L 418.389432 32.145422 
L 428.513977 31.708265 
L 438.638523 31.708265 
" clip-path="url(#p1e2230d02f)" style="fill: none; stroke: #ff7f0e; stroke-width: 1.5; stroke-linecap: square"/>
    <defs>
     <path id="m1e2111b2d1" d="M 0 1.5 
C 0.397805 1.5 0.77937 1.341951 1.06066 1.06066 
C 1.341951 0.77937 1.5 0.397805 1.5 0 
C 1.5 -0.397805 1.341951 -0.77937 1.06066 -1.06066 
C 0.77937 -1.341951 0.397805 -1.5 0 -1.5 
C -0.397805 -1.5 -0.77937 -1.341951 -1.06066 -1.06066 
C -1.341951 -0.77937 -1.5 -0.397805 -1.5 0 
C -1.5 0.397805 -1.341951 0.77937 -1.06066 1.06066 
C -0.77937 1.341951 -0.397805 1.5 0 1.5 
z
" style="stroke: #ff7f0e"/>
    </defs>
    <g clip-path="url(#p1e2230d02f)">
     <use xlink:href="#m1e2111b2d1" x="64.030341" y="252.937204" style="fill: #ff7f0e; stroke: #ff7f0e"/>
     <use xlink:href="#m1e2111b2d1" x="74.154886" y="207.855353" style="fill: #ff7f0e; stroke: #ff7f0e"/>
     <use xlink:href="#m1e2111b2d1" x="84.279432" y="171.024847" style="fill: #ff7f0e; stroke: #ff7f0e"/>
     <use xlink:href="#m1e2111b2d1" x="94.403977" y="130.205279" style="fill: #ff7f0e; stroke: #ff7f0e"/>
     <use xlink:href="#m1e2111b2d1" x="104.528523" y="98.83924" style="fill: #ff7f0e; stroke: #ff7f0e"/>
     <use xlink:href="#m1e2111b2d1" x="114.653068" y="62.254634" style="fill: #ff7f0e; stroke: #ff7f0e"/>
     <use xlink:href="#m1e2111b2d1" x="124.777614" y="49.932262" style="fill: #ff7f0e; stroke: #ff7f0e"/>
     <use xlink:href="#m1e2111b2d1" x="134.902159" y="41.626272" style="fill: #ff7f0e; stroke: #ff7f0e"/>
     <use xlink:href="#m1e2111b2d1" x="145.026705" y="37.582567" style="fill: #ff7f0e; stroke: #ff7f0e"/>
     <use xlink:href="#m1e2111b2d1" x="155.15125" y="35.806615" style="fill: #ff7f0e; stroke: #ff7f0e"/>
     <use xlink:href="#m1e2111b2d1" x="165.275795" y="35.096234" style="fill: #ff7f0e; stroke: #ff7f0e"/>
     <use xlink:href="#m1e2111b2d1" x="175.400341" y="34.659077" style="fill: #ff7f0e; stroke: #ff7f0e"/>
     <use xlink:href="#m1e2111b2d1" x="185.524886" y="34.11263" style="fill: #ff7f0e; stroke: #ff7f0e"/>
     <use xlink:href="#m1e2111b2d1" x="195.649432" y="33.948696" style="fill: #ff7f0e; stroke: #ff7f0e"/>
     <use xlink:href="#m1e2111b2d1" x="205.773977" y="33.456894" style="fill: #ff7f0e; stroke: #ff7f0e"/>
     <use xlink:href="#m1e2111b2d1" x="215.898523" y="33.429572" style="fill: #ff7f0e; stroke: #ff7f0e"/>
     <use xlink:href="#m1e2111b2d1" x="226.023068" y="33.183671" style="fill: #ff7f0e; stroke: #ff7f0e"/>
     <use xlink:href="#m1e2111b2d1" x="236.147614" y="32.965092" style="fill: #ff7f0e; stroke: #ff7f0e"/>
     <use xlink:href="#m1e2111b2d1" x="246.272159" y="32.746514" style="fill: #ff7f0e; stroke: #ff7f0e"/>
     <use xlink:href="#m1e2111b2d1" x="256.396705" y="32.719191" style="fill: #ff7f0e; stroke: #ff7f0e"/>
     <use xlink:href="#m1e2111b2d1" x="266.52125" y="32.445968" style="fill: #ff7f0e; stroke: #ff7f0e"/>
     <use xlink:href="#m1e2111b2d1" x="276.645795" y="32.336678" style="fill: #ff7f0e; stroke: #ff7f0e"/>
     <use xlink:href="#m1e2111b2d1" x="286.770341" y="32.364001" style="fill: #ff7f0e; stroke: #ff7f0e"/>
     <use xlink:href="#m1e2111b2d1" x="296.894886" y="32.282034" style="fill: #ff7f0e; stroke: #ff7f0e"/>
     <use xlink:href="#m1e2111b2d1" x="307.019432" y="32.500612" style="fill: #ff7f0e; stroke: #ff7f0e"/>
     <use xlink:href="#m1e2111b2d1" x="317.143977" y="35.506069" style="fill: #ff7f0e; stroke: #ff7f0e"/>
     <use xlink:href="#m1e2111b2d1" x="327.268523" y="35.642681" style="fill: #ff7f0e; stroke: #ff7f0e"/>
     <use xlink:href="#m1e2111b2d1" x="337.393068" y="31.981488" style="fill: #ff7f0e; stroke: #ff7f0e"/>
     <use xlink:href="#m1e2111b2d1" x="347.517614" y="32.43686" style="fill: #ff7f0e; stroke: #ff7f0e"/>
     <use xlink:href="#m1e2111b2d1" x="357.642159" y="32.072563" style="fill: #ff7f0e; stroke: #ff7f0e"/>
     <use xlink:href="#m1e2111b2d1" x="367.766705" y="32.691869" style="fill: #ff7f0e; stroke: #ff7f0e"/>
     <use xlink:href="#m1e2111b2d1" x="377.89125" y="32.364001" style="fill: #ff7f0e; stroke: #ff7f0e"/>
     <use xlink:href="#m1e2111b2d1" x="388.015795" y="32.364001" style="fill: #ff7f0e; stroke: #ff7f0e"/>
     <use xlink:href="#m1e2111b2d1" x="398.140341" y="32.254711" style="fill: #ff7f0e; stroke: #ff7f0e"/>
     <use xlink:href="#m1e2111b2d1" x="408.264886" y="88.429431" style="fill: #ff7f0e; stroke: #ff7f0e"/>
     <use xlink:href="#m1e2111b2d1" x="418.389432" y="32.145422" style="fill: #ff7f0e; stroke: #ff7f0e"/>
     <use xlink:href="#m1e2111b2d1" x="428.513977" y="31.708265" style="fill: #ff7f0e; stroke: #ff7f0e"/>
     <use xlink:href="#m1e2111b2d1" x="438.638523" y="31.708265" style="fill: #ff7f0e; stroke: #ff7f0e"/>
    </g>
   </g>
   <g id="line2d_20">
    <path d="M 64.030341 252.937204 
L 74.154886 218.046584 
L 84.279432 219.303411 
L 94.403977 192.636813 
L 104.528523 188.948298 
L 114.653068 169.139606 
L 124.777614 185.69694 
L 134.902159 168.893705 
L 145.026705 164.877321 
L 155.15125 169.822664 
L 165.275795 156.735266 
L 175.400341 166.134149 
L 185.524886 160.232525 
L 195.649432 160.860938 
L 205.773977 152.554949 
L 215.898523 152.063147 
L 226.023068 154.057677 
L 236.147614 154.084999 
L 246.272159 157.117779 
L 256.396705 150.423807 
L 266.52125 159.795367 
L 276.645795 152.882817 
L 286.770341 149.740748 
L 296.894886 149.549492 
L 307.019432 148.023344 
L 317.143977 152.113888 
L 327.268523 148.991336 
L 337.393068 147.482102 
L 347.517614 151.270799 
L 357.642159 145.697043 
L 367.766705 147.227094 
L 377.89125 151.962965 
L 388.015795 146.462068 
L 398.140341 144.713439 
L 408.264886 148.356417 
L 418.389432 143.183388 
L 428.513977 142.564082 
L 438.638523 155.248931 
L 448.763068 147.16152 
L 458.887614 145.194312 
L 469.012159 145.194312 
" clip-path="url(#p1e2230d02f)" style="fill: none; stroke-dasharray: 5.55,2.4; stroke-dashoffset: 0; stroke: #7f7f7f; stroke-width: 1.5"/>
    <defs>
     <path id="m429b943450" d="M 0 1.5 
C 0.397805 1.5 0.77937 1.341951 1.06066 1.06066 
C 1.341951 0.77937 1.5 0.397805 1.5 0 
C 1.5 -0.397805 1.341951 -0.77937 1.06066 -1.06066 
C 0.77937 -1.341951 0.397805 -1.5 0 -1.5 
C -0.397805 -1.5 -0.77937 -1.341951 -1.06066 -1.06066 
C -1.341951 -0.77937 -1.5 -0.397805 -1.5 0 
C -1.5 0.397805 -1.341951 0.77937 -1.06066 1.06066 
C -0.77937 1.341951 -0.397805 1.5 0 1.5 
z
" style="stroke: #7f7f7f"/>
    </defs>
    <g clip-path="url(#p1e2230d02f)">
     <use xlink:href="#m429b943450" x="64.030341" y="252.937204" style="fill: #7f7f7f; stroke: #7f7f7f"/>
     <use xlink:href="#m429b943450" x="74.154886" y="218.046584" style="fill: #7f7f7f; stroke: #7f7f7f"/>
     <use xlink:href="#m429b943450" x="84.279432" y="219.303411" style="fill: #7f7f7f; stroke: #7f7f7f"/>
     <use xlink:href="#m429b943450" x="94.403977" y="192.636813" style="fill: #7f7f7f; stroke: #7f7f7f"/>
     <use xlink:href="#m429b943450" x="104.528523" y="188.948298" style="fill: #7f7f7f; stroke: #7f7f7f"/>
     <use xlink:href="#m429b943450" x="114.653068" y="169.139606" style="fill: #7f7f7f; stroke: #7f7f7f"/>
     <use xlink:href="#m429b943450" x="124.777614" y="185.69694" style="fill: #7f7f7f; stroke: #7f7f7f"/>
     <use xlink:href="#m429b943450" x="134.902159" y="168.893705" style="fill: #7f7f7f; stroke: #7f7f7f"/>
     <use xlink:href="#m429b943450" x="145.026705" y="164.877321" style="fill: #7f7f7f; stroke: #7f7f7f"/>
     <use xlink:href="#m429b943450" x="155.15125" y="169.822664" style="fill: #7f7f7f; stroke: #7f7f7f"/>
     <use xlink:href="#m429b943450" x="165.275795" y="156.735266" style="fill: #7f7f7f; stroke: #7f7f7f"/>
     <use xlink:href="#m429b943450" x="175.400341" y="166.134149" style="fill: #7f7f7f; stroke: #7f7f7f"/>
     <use xlink:href="#m429b943450" x="185.524886" y="160.232525" style="fill: #7f7f7f; stroke: #7f7f7f"/>
     <use xlink:href="#m429b943450" x="195.649432" y="160.860938" style="fill: #7f7f7f; stroke: #7f7f7f"/>
     <use xlink:href="#m429b943450" x="205.773977" y="152.554949" style="fill: #7f7f7f; stroke: #7f7f7f"/>
     <use xlink:href="#m429b943450" x="215.898523" y="152.063147" style="fill: #7f7f7f; stroke: #7f7f7f"/>
     <use xlink:href="#m429b943450" x="226.023068" y="154.057677" style="fill: #7f7f7f; stroke: #7f7f7f"/>
     <use xlink:href="#m429b943450" x="236.147614" y="154.084999" style="fill: #7f7f7f; stroke: #7f7f7f"/>
     <use xlink:href="#m429b943450" x="246.272159" y="157.117779" style="fill: #7f7f7f; stroke: #7f7f7f"/>
     <use xlink:href="#m429b943450" x="256.396705" y="150.423807" style="fill: #7f7f7f; stroke: #7f7f7f"/>
     <use xlink:href="#m429b943450" x="266.52125" y="159.795367" style="fill: #7f7f7f; stroke: #7f7f7f"/>
     <use xlink:href="#m429b943450" x="276.645795" y="152.882817" style="fill: #7f7f7f; stroke: #7f7f7f"/>
     <use xlink:href="#m429b943450" x="286.770341" y="149.740748" style="fill: #7f7f7f; stroke: #7f7f7f"/>
     <use xlink:href="#m429b943450" x="296.894886" y="149.549492" style="fill: #7f7f7f; stroke: #7f7f7f"/>
     <use xlink:href="#m429b943450" x="307.019432" y="148.023344" style="fill: #7f7f7f; stroke: #7f7f7f"/>
     <use xlink:href="#m429b943450" x="317.143977" y="152.113888" style="fill: #7f7f7f; stroke: #7f7f7f"/>
     <use xlink:href="#m429b943450" x="327.268523" y="148.991336" style="fill: #7f7f7f; stroke: #7f7f7f"/>
     <use xlink:href="#m429b943450" x="337.393068" y="147.482102" style="fill: #7f7f7f; stroke: #7f7f7f"/>
     <use xlink:href="#m429b943450" x="347.517614" y="151.270799" style="fill: #7f7f7f; stroke: #7f7f7f"/>
     <use xlink:href="#m429b943450" x="357.642159" y="145.697043" style="fill: #7f7f7f; stroke: #7f7f7f"/>
     <use xlink:href="#m429b943450" x="367.766705" y="147.227094" style="fill: #7f7f7f; stroke: #7f7f7f"/>
     <use xlink:href="#m429b943450" x="377.89125" y="151.962965" style="fill: #7f7f7f; stroke: #7f7f7f"/>
     <use xlink:href="#m429b943450" x="388.015795" y="146.462068" style="fill: #7f7f7f; stroke: #7f7f7f"/>
     <use xlink:href="#m429b943450" x="398.140341" y="144.713439" style="fill: #7f7f7f; stroke: #7f7f7f"/>
     <use xlink:href="#m429b943450" x="408.264886" y="148.356417" style="fill: #7f7f7f; stroke: #7f7f7f"/>
     <use xlink:href="#m429b943450" x="418.389432" y="143.183388" style="fill: #7f7f7f; stroke: #7f7f7f"/>
     <use xlink:href="#m429b943450" x="428.513977" y="142.564082" style="fill: #7f7f7f; stroke: #7f7f7f"/>
     <use xlink:href="#m429b943450" x="438.638523" y="155.248931" style="fill: #7f7f7f; stroke: #7f7f7f"/>
     <use xlink:href="#m429b943450" x="448.763068" y="147.16152" style="fill: #7f7f7f; stroke: #7f7f7f"/>
     <use xlink:href="#m429b943450" x="458.887614" y="145.194312" style="fill: #7f7f7f; stroke: #7f7f7f"/>
     <use xlink:href="#m429b943450" x="469.012159" y="145.194312" style="fill: #7f7f7f; stroke: #7f7f7f"/>
    </g>
   </g>
   <g id="line2d_21">
    <path d="M 43.78125 255.095669 
L 489.26125 255.095669 
" clip-path="url(#p1e2230d02f)" style="fill: none; stroke-dasharray: 5.55,2.4; stroke-dashoffset: 0; stroke: #808080; stroke-width: 1.5"/>
   </g>
   <g id="patch_3">
    <path d="M 43.78125 277.478125 
L 43.78125 22.318125 
" style="fill: none; stroke: #000000; stroke-width: 0.8; stroke-linejoin: miter; stroke-linecap: square"/>
   </g>
   <g id="patch_4">
    <path d="M 489.26125 277.478125 
L 489.26125 22.318125 
" style="fill: none; stroke: #000000; stroke-width: 0.8; stroke-linejoin: miter; stroke-linecap: square"/>
   </g>
   <g id="patch_5">
    <path d="M 43.78125 277.478125 
L 489.26125 277.478125 
" style="fill: none; stroke: #000000; stroke-width: 0.8; stroke-linejoin: miter; stroke-linecap: square"/>
   </g>
   <g id="patch_6">
    <path d="M 43.78125 22.318125 
L 489.26125 22.318125 
" style="fill: none; stroke: #000000; stroke-width: 0.8; stroke-linejoin: miter; stroke-linecap: square"/>
   </g>
   <g id="text_18">
    <!-- Reservoir floor vs trainable-hidden rules -->
    <g transform="translate(146.088125 16.318125) scale(0.12 -0.12)">
     <defs>
      <path id="DejaVuSans-52" d="M 2841 2188 
Q 3044 2119 3236 1894 
Q 3428 1669 3622 1275 
L 4263 0 
L 3584 0 
L 2988 1197 
Q 2756 1666 2539 1819 
Q 2322 1972 1947 1972 
L 1259 1972 
L 1259 0 
L 628 0 
L 628 4666 
L 2053 4666 
Q 2853 4666 3247 4331 
Q 3641 3997 3641 3322 
Q 3641 2881 3436 2590 
Q 3231 2300 2841 2188 
z
M 1259 4147 
L 1259 2491 
L 2053 2491 
Q 2509 2491 2742 2702 
Q 2975 2913 2975 3322 
Q 2975 3731 2742 3939 
Q 2509 4147 2053 4147 
L 1259 4147 
z
" transform="scale(0.015625)"/>
      <path id="DejaVuSans-76" d="M 191 3500 
L 800 3500 
L 1894 563 
L 2988 3500 
L 3597 3500 
L 2284 0 
L 1503 0 
L 191 3500 
z
" transform="scale(0.015625)"/>
      <path id="DejaVuSans-66" d="M 2375 4863 
L 2375 4384 
L 1825 4384 
Q 1516 4384 1395 4259 
Q 1275 4134 1275 3809 
L 1275 3500 
L 2222 3500 
L 2222 3053 
L 1275 3053 
L 1275 0 
L 697 0 
L 697 3053 
L 147 3053 
L 147 3500 
L 697 3500 
L 697 3744 
Q 697 4328 969 4595 
Q 1241 4863 1831 4863 
L 2375 4863 
z
" transform="scale(0.015625)"/>
      <path id="DejaVuSans-62" d="M 3116 1747 
Q 3116 2381 2855 2742 
Q 2594 3103 2138 3103 
Q 1681 3103 1420 2742 
Q 1159 2381 1159 1747 
Q 1159 1113 1420 752 
Q 1681 391 2138 391 
Q 2594 391 2855 752 
Q 3116 1113 3116 1747 
z
M 1159 2969 
Q 1341 3281 1617 3432 
Q 1894 3584 2278 3584 
Q 2916 3584 3314 3078 
Q 3713 2572 3713 1747 
Q 3713 922 3314 415 
Q 2916 -91 2278 -91 
Q 1894 -91 1617 61 
Q 1341 213 1159 525 
L 1159 0 
L 581 0 
L 581 4863 
L 1159 4863 
L 1159 2969 
z
" transform="scale(0.015625)"/>
     </defs>
     <use xlink:href="#DejaVuSans-52"/>
     <use xlink:href="#DejaVuSans-65" transform="translate(64.982422 0)"/>
     <use xlink:href="#DejaVuSans-73" transform="translate(126.505859 0)"/>
     <use xlink:href="#DejaVuSans-65" transform="translate(178.605469 0)"/>
     <use xlink:href="#DejaVuSans-72" transform="translate(240.128906 0)"/>
     <use xlink:href="#DejaVuSans-76" transform="translate(281.242188 0)"/>
     <use xlink:href="#DejaVuSans-6f" transform="translate(340.421875 0)"/>
     <use xlink:href="#DejaVuSans-69" transform="translate(401.603516 0)"/>
     <use xlink:href="#DejaVuSans-72" transform="translate(429.386719 0)"/>
     <use xlink:href="#DejaVuSans-20" transform="translate(470.5 0)"/>
     <use xlink:href="#DejaVuSans-66" transform="translate(502.287109 0)"/>
     <use xlink:href="#DejaVuSans-6c" transform="translate(537.492188 0)"/>
     <use xlink:href="#DejaVuSans-6f" transform="translate(565.275391 0)"/>
     <use xlink:href="#DejaVuSans-6f" transform="translate(626.457031 0)"/>
     <use xlink:href="#DejaVuSans-72" transform="translate(687.638672 0)"/>
     <use xlink:href="#DejaVuSans-20" transform="translate(728.751953 0)"/>
     <use xlink:href="#DejaVuSans-76" transform="translate(760.539062 0)"/>
     <use xlink:href="#DejaVuSans-73" transform="translate(819.71875 0)"/>
     <use xlink:href="#DejaVuSans-20" transform="translate(871.818359 0)"/>
     <use xlink:href="#DejaVuSans-74" transform="translate(903.605469 0)"/>
     <use xlink:href="#DejaVuSans-72" transform="translate(942.814453 0)"/>
     <use xlink:href="#DejaVuSans-61" transform="translate(983.927734 0)"/>
     <use xlink:href="#DejaVuSans-69" transform="translate(1045.207031 0)"/>
     <use xlink:href="#DejaVuSans-6e" transform="translate(1072.990234 0)"/>
     <use xlink:href="#DejaVuSans-61" transform="translate(1136.369141 0)"/>
     <use xlink:href="#DejaVuSans-62" transform="translate(1197.648438 0)"/>
     <use xlink:href="#DejaVuSans-6c" transform="translate(1261.125 0)"/>
     <use xlink:href="#DejaVuSans-65" transform="translate(1288.908203 0)"/>
     <use xlink:href="#DejaVuSans-2d" transform="translate(1350.431641 0)"/>
     <use xlink:href="#DejaVuSans-68" transform="translate(1386.515625 0)"/>
     <use xlink:href="#DejaVuSans-69" transform="translate(1449.894531 0)"/>
     <use xlink:href="#DejaVuSans-64" transform="translate(1477.677734 0)"/>
     <use xlink:href="#DejaVuSans-64" transform="translate(1541.154297 0)"/>
     <use xlink:href="#DejaVuSans-65" transform="translate(1604.630859 0)"/>
     <use xlink:href="#DejaVuSans-6e" transform="translate(1666.154297 0)"/>
     <use xlink:href="#DejaVuSans-20" transform="translate(1729.533203 0)"/>
     <use xlink:href="#DejaVuSans-72" transform="translate(1761.320312 0)"/>
     <use xlink:href="#DejaVuSans-75" transform="translate(1802.433594 0)"/>
     <use xlink:href="#DejaVuSans-6c" transform="translate(1865.8125 0)"/>
     <use xlink:href="#DejaVuSans-65" transform="translate(1893.595703 0)"/>
     <use xlink:href="#DejaVuSans-73" transform="translate(1955.119141 0)"/>
    </g>
   </g>
   <g id="legend_1">
    <g id="patch_7">
     <path d="M 362.6525 273.478125 
L 483.66125 273.478125 
Q 485.26125 273.478125 485.26125 271.878125 
L 485.26125 202.223125 
Q 485.26125 200.623125 483.66125 200.623125 
L 362.6525 200.623125 
Q 361.0525 200.623125 361.0525 202.223125 
L 361.0525 271.878125 
Q 361.0525 273.478125 362.6525 273.478125 
z
" style="fill: #ffffff; opacity: 0.8; stroke: #cccccc; stroke-linejoin: miter"/>
    </g>
    <g id="line2d_22">
     <path d="M 364.2525 207.101875 
L 372.2525 207.101875 
L 380.2525 207.101875 
" style="fill: none; stroke: #000000; stroke-width: 1.5; stroke-linecap: square"/>
     <g>
      <use xlink:href="#m60e7849646" x="372.2525" y="207.101875" style="stroke: #000000"/>
     </g>
    </g>
    <g id="text_19">
     <!-- BPTT -->
     <g transform="translate(386.6525 209.901875) scale(0.08 -0.08)">
      <defs>
       <path id="DejaVuSans-42" d="M 1259 2228 
L 1259 519 
L 2272 519 
Q 2781 519 3026 730 
Q 3272 941 3272 1375 
Q 3272 1813 3026 2020 
Q 2781 2228 2272 2228 
L 1259 2228 
z
M 1259 4147 
L 1259 2741 
L 2194 2741 
Q 2656 2741 2882 2914 
Q 3109 3088 3109 3444 
Q 3109 3797 2882 3972 
Q 2656 4147 2194 4147 
L 1259 4147 
z
M 628 4666 
L 2241 4666 
Q 2963 4666 3353 4366 
Q 3744 4066 3744 3513 
Q 3744 3084 3544 2831 
Q 3344 2578 2956 2516 
Q 3422 2416 3680 2098 
Q 3938 1781 3938 1306 
Q 3938 681 3513 340 
Q 3088 0 2303 0 
L 628 0 
L 628 4666 
z
" transform="scale(0.015625)"/>
       <path id="DejaVuSans-50" d="M 1259 4147 
L 1259 2394 
L 2053 2394 
Q 2494 2394 2734 2622 
Q 2975 2850 2975 3272 
Q 2975 3691 2734 3919 
Q 2494 4147 2053 4147 
L 1259 4147 
z
M 628 4666 
L 2053 4666 
Q 2838 4666 3239 4311 
Q 3641 3956 3641 3272 
Q 3641 2581 3239 2228 
Q 2838 1875 2053 1875 
L 1259 1875 
L 1259 0 
L 628 0 
L 628 4666 
z
" transform="scale(0.015625)"/>
       <path id="DejaVuSans-54" d="M -19 4666 
L 3928 4666 
L 3928 4134 
L 2272 4134 
L 2272 0 
L 1638 0 
L 1638 4134 
L -19 4134 
L -19 4666 
z
" transform="scale(0.015625)"/>
      </defs>
      <use xlink:href="#DejaVuSans-42"/>
      <use xlink:href="#DejaVuSans-50" transform="translate(68.603516 0)"/>
      <use xlink:href="#DejaVuSans-54" transform="translate(128.90625 0)"/>
      <use xlink:href="#DejaVuSans-54" transform="translate(188.240234 0)"/>
     </g>
    </g>
    <g id="line2d_23">
     <path d="M 364.2525 218.844375 
L 372.2525 218.844375 
L 380.2525 218.844375 
" style="fill: none; stroke: #1f77b4; stroke-width: 1.5; stroke-linecap: square"/>
     <g>
      <use xlink:href="#m24ec53fe23" x="372.2525" y="218.844375" style="fill: #1f77b4; stroke: #1f77b4"/>
     </g>
    </g>
    <g id="text_20">
     <!-- full -->
     <g transform="translate(386.6525 221.644375) scale(0.08 -0.08)">
      <use xlink:href="#DejaVuSans-66"/>
      <use xlink:href="#DejaVuSans-75" transform="translate(35.205078 0)"/>
      <use xlink:href="#DejaVuSans-6c" transform="translate(98.583984 0)"/>
      <use xlink:href="#DejaVuSans-6c" transform="translate(126.367188 0)"/>
     </g>
    </g>
    <g id="line2d_24">
     <path d="M 364.2525 230.586875 
L 372.2525 230.586875 
L 380.2525 230.586875 
" style="fill: none; stroke: #d62728; stroke-width: 1.5; stroke-linecap: square"/>
     <g>
      <use xlink:href="#m9a457fe37f" x="372.2525" y="230.586875" style="fill: #d62728; stroke: #d62728"/>
     </g>
    </g>
    <g id="text_21">
     <!-- ablate temporal -->
     <g transform="translate(386.6525 233.386875) scale(0.08 -0.08)">
      <defs>
       <path id="DejaVuSans-6d" d="M 3328 2828 
Q 3544 3216 3844 3400 
Q 4144 3584 4550 3584 
Q 5097 3584 5394 3201 
Q 5691 2819 5691 2113 
L 5691 0 
L 5113 0 
L 5113 2094 
Q 5113 2597 4934 2840 
Q 4756 3084 4391 3084 
Q 3944 3084 3684 2787 
Q 3425 2491 3425 1978 
L 3425 0 
L 2847 0 
L 2847 2094 
Q 2847 2600 2669 2842 
Q 2491 3084 2119 3084 
Q 1678 3084 1418 2786 
Q 1159 2488 1159 1978 
L 1159 0 
L 581 0 
L 581 3500 
L 1159 3500 
L 1159 2956 
Q 1356 3278 1631 3431 
Q 1906 3584 2284 3584 
Q 2666 3584 2933 3390 
Q 3200 3197 3328 2828 
z
" transform="scale(0.015625)"/>
      </defs>
      <use xlink:href="#DejaVuSans-61"/>
      <use xlink:href="#DejaVuSans-62" transform="translate(61.279297 0)"/>
      <use xlink:href="#DejaVuSans-6c" transform="translate(124.755859 0)"/>
      <use xlink:href="#DejaVuSans-61" transform="translate(152.539062 0)"/>
      <use xlink:href="#DejaVuSans-74" transform="translate(213.818359 0)"/>
      <use xlink:href="#DejaVuSans-65" transform="translate(253.027344 0)"/>
      <use xlink:href="#DejaVuSans-20" transform="translate(314.550781 0)"/>
      <use xlink:href="#DejaVuSans-74" transform="translate(346.337891 0)"/>
      <use xlink:href="#DejaVuSans-65" transform="translate(385.546875 0)"/>
      <use xlink:href="#DejaVuSans-6d" transform="translate(447.070312 0)"/>
      <use xlink:href="#DejaVuSans-70" transform="translate(544.482422 0)"/>
      <use xlink:href="#DejaVuSans-6f" transform="translate(607.958984 0)"/>
      <use xlink:href="#DejaVuSans-72" transform="translate(669.140625 0)"/>
      <use xlink:href="#DejaVuSans-61" transform="translate(710.253906 0)"/>
      <use xlink:href="#DejaVuSans-6c" transform="translate(771.533203 0)"/>
     </g>
    </g>
    <g id="line2d_25">
     <path d="M 364.2525 242.329375 
L 372.2525 242.329375 
L 380.2525 242.329375 
" style="fill: none; stroke: #ff7f0e; stroke-width: 1.5; stroke-linecap: square"/>
     <g>
      <use xlink:href="#m1e2111b2d1" x="372.2525" y="242.329375" style="fill: #ff7f0e; stroke: #ff7f0e"/>
     </g>
    </g>
    <g id="text_22">
     <!-- ablate spatial -->
     <g transform="translate(386.6525 245.129375) scale(0.08 -0.08)">
      <use xlink:href="#DejaVuSans-61"/>
      <use xlink:href="#DejaVuSans-62" transform="translate(61.279297 0)"/>
      <use xlink:href="#DejaVuSans-6c" transform="translate(124.755859 0)"/>
      <use xlink:href="#DejaVuSans-61" transform="translate(152.539062 0)"/>
      <use xlink:href="#DejaVuSans-74" transform="translate(213.818359 0)"/>
      <use xlink:href="#DejaVuSans-65" transform="translate(253.027344 0)"/>
      <use xlink:href="#DejaVuSans-20" transform="translate(314.550781 0)"/>
      <use xlink:href="#DejaVuSans-73" transform="translate(346.337891 0)"/>
      <use xlink:href="#DejaVuSans-70" transform="translate(398.4375 0)"/>
      <use xlink:href="#DejaVuSans-61" transform="translate(461.914062 0)"/>
      <use xlink:href="#DejaVuSans-74" transform="translate(523.193359 0)"/>
      <use xlink:href="#DejaVuSans-69" transform="translate(562.402344 0)"/>
      <use xlink:href="#DejaVuSans-61" transform="translate(590.185547 0)"/>
      <use xlink:href="#DejaVuSans-6c" transform="translate(651.464844 0)"/>
     </g>
    </g>
    <g id="line2d_26">
     <path d="M 364.2525 254.071875 
L 372.2525 254.071875 
L 380.2525 254.071875 
" style="fill: none; stroke-dasharray: 5.55,2.4; stroke-dashoffset: 0; stroke: #7f7f7f; stroke-width: 1.5"/>
     <g>
      <use xlink:href="#m429b943450" x="372.2525" y="254.071875" style="fill: #7f7f7f; stroke: #7f7f7f"/>
     </g>
    </g>
    <g id="text_23">
     <!-- readout-only (reservoir) -->
     <g transform="translate(386.6525 256.871875) scale(0.08 -0.08)">
      <use xlink:href="#DejaVuSans-72"/>
      <use xlink:href="#DejaVuSans-65" transform="translate(38.863281 0)"/>
      <use xlink:href="#DejaVuSans-61" transform="translate(100.386719 0)"/>
      <use xlink:href="#DejaVuSans-64" transform="translate(161.666016 0)"/>
      <use xlink:href="#DejaVuSans-6f" transform="translate(225.142578 0)"/>
      <use xlink:href="#DejaVuSans-75" transform="translate(286.324219 0)"/>
      <use xlink:href="#DejaVuSans-74" transform="translate(349.703125 0)"/>
      <use xlink:href="#DejaVuSans-2d" transform="translate(388.912109 0)"/>
      <use xlink:href="#DejaVuSans-6f" transform="translate(426.871094 0)"/>
      <use xlink:href="#DejaVuSans-6e" transform="translate(488.052734 0)"/>
      <use xlink:href="#DejaVuSans-6c" transform="translate(551.431641 0)"/>
      <use xlink:href="#DejaVuSans-79" transform="translate(579.214844 0)"/>
      <use xlink:href="#DejaVuSans-20" transform="translate(638.394531 0)"/>
      <use xlink:href="#DejaVuSans-28" transform="translate(670.181641 0)"/>
      <use xlink:href="#DejaVuSans-72" transform="translate(709.195312 0)"/>
      <use xlink:href="#DejaVuSans-65" transform="translate(748.058594 0)"/>
      <use xlink:href="#DejaVuSans-73" transform="translate(809.582031 0)"/>
      <use xlink:href="#DejaVuSans-65" transform="translate(861.681641 0)"/>
      <use xlink:href="#DejaVuSans-72" transform="translate(923.205078 0)"/>
      <use xlink:href="#DejaVuSans-76" transform="translate(964.318359 0)"/>
      <use xlink:href="#DejaVuSans-6f" transform="translate(1023.498047 0)"/>
      <use xlink:href="#DejaVuSans-69" transform="translate(1084.679688 0)"/>
      <use xlink:href="#DejaVuSans-72" transform="translate(1112.462891 0)"/>
      <use xlink:href="#DejaVuSans-29" transform="translate(1153.576172 0)"/>
     </g>
    </g>
    <g id="line2d_27">
     <path d="M 364.2525 265.814375 
L 372.2525 265.814375 
L 380.2525 265.814375 
" style="fill: none; stroke-dasharray: 5.55,2.4; stroke-dashoffset: 0; stroke: #808080; stroke-width: 1.5"/>
    </g>
    <g id="text_24">
     <!-- chance -->
     <g transform="translate(386.6525 268.614375) scale(0.08 -0.08)">
      <use xlink:href="#DejaVuSans-63"/>
      <use xlink:href="#DejaVuSans-68" transform="translate(54.980469 0)"/>
      <use xlink:href="#DejaVuSans-61" transform="translate(118.359375 0)"/>
      <use xlink:href="#DejaVuSans-6e" transform="translate(179.638672 0)"/>
      <use xlink:href="#DejaVuSans-63" transform="translate(243.017578 0)"/>
      <use xlink:href="#DejaVuSans-65" transform="translate(297.998047 0)"/>
     </g>
    </g>
   </g>
  </g>
 </g>
 <defs>
  <clipPath id="p1e2230d02f">
   <rect x="43.78125" y="22.318125" width="445.48" height="255.16"/>
  </clipPath>
 </defs>
</svg>
